<?xml version="1.0" encoding="utf-8"?>
<svg xmlns="http://www.w3.org/2000/svg" xmlns:xlink="http://www.w3.org/1999/xlink" width="600" height="400" viewBox="0 0 2400 1600">
<defs>
  <clipPath id="clip820">
    <rect x="0" y="0" width="2400" height="1600"/>
  </clipPath>
</defs>
<path clip-path="url(#clip820)" d="M0 1600 L2400 1600 L2400 0 L0 0  Z" fill="#ffffff" fill-rule="evenodd" fill-opacity="1"/>
<defs>
  <clipPath id="clip821">
    <rect x="480" y="0" width="1681" height="1600"/>
  </clipPath>
</defs>
<path clip-path="url(#clip820)" d="M287.366 1423.18 L2352.76 1423.18 L2352.76 47.2441 L287.366 47.2441  Z" fill="#ffffff" fill-rule="evenodd" fill-opacity="1"/>
<defs>
  <clipPath id="clip822">
    <rect x="287" y="47" width="2066" height="1377"/>
  </clipPath>
</defs>
<polyline clip-path="url(#clip822)" style="stroke:#000000; stroke-linecap:round; stroke-linejoin:round; stroke-width:2; stroke-opacity:0.1; fill:none" points="345.82,1423.18 345.82,47.2441 "/>
<polyline clip-path="url(#clip822)" style="stroke:#000000; stroke-linecap:round; stroke-linejoin:round; stroke-width:2; stroke-opacity:0.1; fill:none" points="995.314,1423.18 995.314,47.2441 "/>
<polyline clip-path="url(#clip822)" style="stroke:#000000; stroke-linecap:round; stroke-linejoin:round; stroke-width:2; stroke-opacity:0.1; fill:none" points="1644.81,1423.18 1644.81,47.2441 "/>
<polyline clip-path="url(#clip822)" style="stroke:#000000; stroke-linecap:round; stroke-linejoin:round; stroke-width:2; stroke-opacity:0.1; fill:none" points="2294.3,1423.18 2294.3,47.2441 "/>
<polyline clip-path="url(#clip820)" style="stroke:#000000; stroke-linecap:round; stroke-linejoin:round; stroke-width:4; stroke-opacity:1; fill:none" points="287.366,1423.18 2352.76,1423.18 "/>
<polyline clip-path="url(#clip820)" style="stroke:#000000; stroke-linecap:round; stroke-linejoin:round; stroke-width:4; stroke-opacity:1; fill:none" points="345.82,1423.18 345.82,1404.28 "/>
<polyline clip-path="url(#clip820)" style="stroke:#000000; stroke-linecap:round; stroke-linejoin:round; stroke-width:4; stroke-opacity:1; fill:none" points="995.314,1423.18 995.314,1404.28 "/>
<polyline clip-path="url(#clip820)" style="stroke:#000000; stroke-linecap:round; stroke-linejoin:round; stroke-width:4; stroke-opacity:1; fill:none" points="1644.81,1423.18 1644.81,1404.28 "/>
<polyline clip-path="url(#clip820)" style="stroke:#000000; stroke-linecap:round; stroke-linejoin:round; stroke-width:4; stroke-opacity:1; fill:none" points="2294.3,1423.18 2294.3,1404.28 "/>
<path clip-path="url(#clip820)" d="M345.82 1454.1 Q342.209 1454.1 340.381 1457.66 Q338.575 1461.2 338.575 1468.33 Q338.575 1475.44 340.381 1479.01 Q342.209 1482.55 345.82 1482.55 Q349.455 1482.55 351.26 1479.01 Q353.089 1475.44 353.089 1468.33 Q353.089 1461.2 351.26 1457.66 Q349.455 1454.1 345.82 1454.1 M345.82 1450.39 Q351.63 1450.39 354.686 1455 Q357.765 1459.58 357.765 1468.33 Q357.765 1477.06 354.686 1481.67 Q351.63 1486.25 345.82 1486.25 Q340.01 1486.25 336.931 1481.67 Q333.876 1477.06 333.876 1468.33 Q333.876 1459.58 336.931 1455 Q340.01 1450.39 345.82 1450.39 Z" fill="#000000" fill-rule="nonzero" fill-opacity="1" /><path clip-path="url(#clip820)" d="M985.592 1451.02 L1003.95 1451.02 L1003.95 1454.96 L989.874 1454.96 L989.874 1463.43 Q990.893 1463.08 991.911 1462.92 Q992.93 1462.73 993.948 1462.73 Q999.735 1462.73 1003.11 1465.9 Q1006.49 1469.08 1006.49 1474.49 Q1006.49 1480.07 1003.02 1483.17 Q999.55 1486.25 993.231 1486.25 Q991.055 1486.25 988.786 1485.88 Q986.541 1485.51 984.134 1484.77 L984.134 1480.07 Q986.217 1481.2 988.439 1481.76 Q990.661 1482.32 993.138 1482.32 Q997.143 1482.32 999.481 1480.21 Q1001.82 1478.1 1001.82 1474.49 Q1001.82 1470.88 999.481 1468.77 Q997.143 1466.67 993.138 1466.67 Q991.263 1466.67 989.388 1467.08 Q987.536 1467.5 985.592 1468.38 L985.592 1451.02 Z" fill="#000000" fill-rule="nonzero" fill-opacity="1" /><path clip-path="url(#clip820)" d="M1619.5 1481.64 L1627.13 1481.64 L1627.13 1455.28 L1618.82 1456.95 L1618.82 1452.69 L1627.09 1451.02 L1631.76 1451.02 L1631.76 1481.64 L1639.4 1481.64 L1639.4 1485.58 L1619.5 1485.58 L1619.5 1481.64 Z" fill="#000000" fill-rule="nonzero" fill-opacity="1" /><path clip-path="url(#clip820)" d="M1658.85 1454.1 Q1655.24 1454.1 1653.41 1457.66 Q1651.6 1461.2 1651.6 1468.33 Q1651.6 1475.44 1653.41 1479.01 Q1655.24 1482.55 1658.85 1482.55 Q1662.48 1482.55 1664.29 1479.01 Q1666.12 1475.44 1666.12 1468.33 Q1666.12 1461.2 1664.29 1457.66 Q1662.48 1454.1 1658.85 1454.1 M1658.85 1450.39 Q1664.66 1450.39 1667.71 1455 Q1670.79 1459.58 1670.79 1468.33 Q1670.79 1477.06 1667.71 1481.67 Q1664.66 1486.25 1658.85 1486.25 Q1653.04 1486.25 1649.96 1481.67 Q1646.9 1477.06 1646.9 1468.33 Q1646.9 1459.58 1649.96 1455 Q1653.04 1450.39 1658.85 1450.39 Z" fill="#000000" fill-rule="nonzero" fill-opacity="1" /><path clip-path="url(#clip820)" d="M2269.49 1481.64 L2277.13 1481.64 L2277.13 1455.28 L2268.82 1456.95 L2268.82 1452.69 L2277.08 1451.02 L2281.76 1451.02 L2281.76 1481.64 L2289.39 1481.64 L2289.39 1485.58 L2269.49 1485.58 L2269.49 1481.64 Z" fill="#000000" fill-rule="nonzero" fill-opacity="1" /><path clip-path="url(#clip820)" d="M2298.88 1451.02 L2317.24 1451.02 L2317.24 1454.96 L2303.17 1454.96 L2303.17 1463.43 Q2304.19 1463.08 2305.2 1462.92 Q2306.22 1462.73 2307.24 1462.73 Q2313.03 1462.73 2316.41 1465.9 Q2319.79 1469.08 2319.79 1474.49 Q2319.79 1480.07 2316.32 1483.17 Q2312.84 1486.25 2306.52 1486.25 Q2304.35 1486.25 2302.08 1485.88 Q2299.83 1485.51 2297.43 1484.77 L2297.43 1480.07 Q2299.51 1481.2 2301.73 1481.76 Q2303.95 1482.32 2306.43 1482.32 Q2310.44 1482.32 2312.77 1480.21 Q2315.11 1478.1 2315.11 1474.49 Q2315.11 1470.88 2312.77 1468.77 Q2310.44 1466.67 2306.43 1466.67 Q2304.56 1466.67 2302.68 1467.08 Q2300.83 1467.5 2298.88 1468.38 L2298.88 1451.02 Z" fill="#000000" fill-rule="nonzero" fill-opacity="1" /><path clip-path="url(#clip820)" d="M1245.03 1537.87 Q1244.04 1537.3 1242.86 1537.04 Q1241.71 1536.76 1240.31 1536.76 Q1235.35 1536.76 1232.68 1540 Q1230.03 1543.22 1230.03 1549.27 L1230.03 1568.04 L1224.15 1568.04 L1224.15 1532.4 L1230.03 1532.4 L1230.03 1537.93 Q1231.88 1534.69 1234.84 1533.13 Q1237.8 1531.54 1242.03 1531.54 Q1242.64 1531.54 1243.37 1531.63 Q1244.1 1531.7 1244.99 1531.85 L1245.03 1537.87 Z" fill="#000000" fill-rule="nonzero" fill-opacity="1" /><path clip-path="url(#clip820)" d="M1285.96 1518.58 Q1281.69 1525.9 1279.62 1533.06 Q1277.55 1540.23 1277.55 1547.58 Q1277.55 1554.93 1279.62 1562.16 Q1281.72 1569.35 1285.96 1576.64 L1280.86 1576.64 Q1276.09 1569.16 1273.7 1561.93 Q1271.35 1554.71 1271.35 1547.58 Q1271.35 1540.48 1273.7 1533.29 Q1276.06 1526.09 1280.86 1518.58 L1285.96 1518.58 Z" fill="#000000" fill-rule="nonzero" fill-opacity="1" /><path clip-path="url(#clip820)" d="M1296.71 1581.6 L1296.71 1532.4 L1302.57 1532.4 L1302.57 1554.55 Q1302.57 1559.16 1304.77 1561.52 Q1306.96 1563.87 1311.26 1563.87 Q1315.97 1563.87 1318.33 1561.2 Q1320.71 1558.53 1320.71 1553.18 L1320.71 1532.4 L1326.57 1532.4 L1326.57 1559.83 Q1326.57 1561.74 1327.11 1562.66 Q1327.68 1563.56 1328.86 1563.56 Q1329.15 1563.56 1329.66 1563.4 Q1330.17 1563.21 1331.06 1562.82 L1331.06 1567.53 Q1329.75 1568.27 1328.58 1568.62 Q1327.43 1568.97 1326.32 1568.97 Q1324.12 1568.97 1322.81 1567.73 Q1321.51 1566.48 1321.03 1563.94 Q1319.44 1566.45 1317.12 1567.73 Q1314.83 1568.97 1311.71 1568.97 Q1308.46 1568.97 1306.17 1567.73 Q1303.91 1566.48 1302.57 1564 L1302.57 1581.6 L1296.71 1581.6 Z" fill="#000000" fill-rule="nonzero" fill-opacity="1" /><path clip-path="url(#clip820)" d="M1366.55 1539.24 Q1368.74 1535.29 1371.8 1533.41 Q1374.85 1531.54 1378.99 1531.54 Q1384.56 1531.54 1387.59 1535.45 Q1390.61 1539.33 1390.61 1546.53 L1390.61 1568.04 L1384.72 1568.04 L1384.72 1546.72 Q1384.72 1541.59 1382.91 1539.11 Q1381.09 1536.63 1377.37 1536.63 Q1372.82 1536.63 1370.17 1539.65 Q1367.53 1542.68 1367.53 1547.9 L1367.53 1568.04 L1361.64 1568.04 L1361.64 1546.72 Q1361.64 1541.56 1359.83 1539.11 Q1358.02 1536.63 1354.23 1536.63 Q1349.74 1536.63 1347.1 1539.68 Q1344.46 1542.71 1344.46 1547.9 L1344.46 1568.04 L1338.57 1568.04 L1338.57 1532.4 L1344.46 1532.4 L1344.46 1537.93 Q1346.46 1534.66 1349.26 1533.1 Q1352.06 1531.54 1355.92 1531.54 Q1359.8 1531.54 1362.5 1533.51 Q1365.24 1535.48 1366.55 1539.24 Z" fill="#000000" fill-rule="nonzero" fill-opacity="1" /><path clip-path="url(#clip820)" d="M1401.37 1518.58 L1406.46 1518.58 Q1411.23 1526.09 1413.59 1533.29 Q1415.98 1540.48 1415.98 1547.58 Q1415.98 1554.71 1413.59 1561.93 Q1411.23 1569.16 1406.46 1576.64 L1401.37 1576.64 Q1405.6 1569.35 1407.67 1562.16 Q1409.77 1554.93 1409.77 1547.58 Q1409.77 1540.23 1407.67 1533.06 Q1405.6 1525.9 1401.37 1518.58 Z" fill="#000000" fill-rule="nonzero" fill-opacity="1" /><polyline clip-path="url(#clip822)" style="stroke:#000000; stroke-linecap:round; stroke-linejoin:round; stroke-width:2; stroke-opacity:0.1; fill:none" points="287.366,1257.39 2352.76,1257.39 "/>
<polyline clip-path="url(#clip822)" style="stroke:#000000; stroke-linecap:round; stroke-linejoin:round; stroke-width:2; stroke-opacity:0.1; fill:none" points="287.366,1075.94 2352.76,1075.94 "/>
<polyline clip-path="url(#clip822)" style="stroke:#000000; stroke-linecap:round; stroke-linejoin:round; stroke-width:2; stroke-opacity:0.1; fill:none" points="287.366,894.495 2352.76,894.495 "/>
<polyline clip-path="url(#clip822)" style="stroke:#000000; stroke-linecap:round; stroke-linejoin:round; stroke-width:2; stroke-opacity:0.1; fill:none" points="287.366,713.046 2352.76,713.046 "/>
<polyline clip-path="url(#clip822)" style="stroke:#000000; stroke-linecap:round; stroke-linejoin:round; stroke-width:2; stroke-opacity:0.1; fill:none" points="287.366,531.596 2352.76,531.596 "/>
<polyline clip-path="url(#clip822)" style="stroke:#000000; stroke-linecap:round; stroke-linejoin:round; stroke-width:2; stroke-opacity:0.1; fill:none" points="287.366,350.147 2352.76,350.147 "/>
<polyline clip-path="url(#clip822)" style="stroke:#000000; stroke-linecap:round; stroke-linejoin:round; stroke-width:2; stroke-opacity:0.1; fill:none" points="287.366,168.697 2352.76,168.697 "/>
<polyline clip-path="url(#clip820)" style="stroke:#000000; stroke-linecap:round; stroke-linejoin:round; stroke-width:4; stroke-opacity:1; fill:none" points="287.366,1423.18 287.366,47.2441 "/>
<polyline clip-path="url(#clip820)" style="stroke:#000000; stroke-linecap:round; stroke-linejoin:round; stroke-width:4; stroke-opacity:1; fill:none" points="287.366,1257.39 306.264,1257.39 "/>
<polyline clip-path="url(#clip820)" style="stroke:#000000; stroke-linecap:round; stroke-linejoin:round; stroke-width:4; stroke-opacity:1; fill:none" points="287.366,1075.94 306.264,1075.94 "/>
<polyline clip-path="url(#clip820)" style="stroke:#000000; stroke-linecap:round; stroke-linejoin:round; stroke-width:4; stroke-opacity:1; fill:none" points="287.366,894.495 306.264,894.495 "/>
<polyline clip-path="url(#clip820)" style="stroke:#000000; stroke-linecap:round; stroke-linejoin:round; stroke-width:4; stroke-opacity:1; fill:none" points="287.366,713.046 306.264,713.046 "/>
<polyline clip-path="url(#clip820)" style="stroke:#000000; stroke-linecap:round; stroke-linejoin:round; stroke-width:4; stroke-opacity:1; fill:none" points="287.366,531.596 306.264,531.596 "/>
<polyline clip-path="url(#clip820)" style="stroke:#000000; stroke-linecap:round; stroke-linejoin:round; stroke-width:4; stroke-opacity:1; fill:none" points="287.366,350.147 306.264,350.147 "/>
<polyline clip-path="url(#clip820)" style="stroke:#000000; stroke-linecap:round; stroke-linejoin:round; stroke-width:4; stroke-opacity:1; fill:none" points="287.366,168.697 306.264,168.697 "/>
<path clip-path="url(#clip820)" d="M115.256 1257.85 L144.931 1257.85 L144.931 1261.78 L115.256 1261.78 L115.256 1257.85 Z" fill="#000000" fill-rule="nonzero" fill-opacity="1" /><path clip-path="url(#clip820)" d="M165.024 1243.19 Q161.413 1243.19 159.584 1246.76 Q157.778 1250.3 157.778 1257.43 Q157.778 1264.54 159.584 1268.1 Q161.413 1271.64 165.024 1271.64 Q168.658 1271.64 170.464 1268.1 Q172.292 1264.54 172.292 1257.43 Q172.292 1250.3 170.464 1246.76 Q168.658 1243.19 165.024 1243.19 M165.024 1239.49 Q170.834 1239.49 173.889 1244.1 Q176.968 1248.68 176.968 1257.43 Q176.968 1266.16 173.889 1270.76 Q170.834 1275.35 165.024 1275.35 Q159.214 1275.35 156.135 1270.76 Q153.079 1266.16 153.079 1257.43 Q153.079 1248.68 156.135 1244.1 Q159.214 1239.49 165.024 1239.49 Z" fill="#000000" fill-rule="nonzero" fill-opacity="1" /><path clip-path="url(#clip820)" d="M185.186 1268.79 L190.07 1268.79 L190.07 1274.67 L185.186 1274.67 L185.186 1268.79 Z" fill="#000000" fill-rule="nonzero" fill-opacity="1" /><path clip-path="url(#clip820)" d="M201.065 1270.74 L208.704 1270.74 L208.704 1244.37 L200.394 1246.04 L200.394 1241.78 L208.658 1240.11 L213.334 1240.11 L213.334 1270.74 L220.973 1270.74 L220.973 1274.67 L201.065 1274.67 L201.065 1270.74 Z" fill="#000000" fill-rule="nonzero" fill-opacity="1" /><path clip-path="url(#clip820)" d="M230.463 1240.11 L248.82 1240.11 L248.82 1244.05 L234.746 1244.05 L234.746 1252.52 Q235.764 1252.17 236.783 1252.01 Q237.801 1251.83 238.82 1251.83 Q244.607 1251.83 247.986 1255 Q251.366 1258.17 251.366 1263.59 Q251.366 1269.17 247.894 1272.27 Q244.421 1275.35 238.102 1275.35 Q235.926 1275.35 233.658 1274.98 Q231.412 1274.61 229.005 1273.86 L229.005 1269.17 Q231.088 1270.3 233.31 1270.86 Q235.533 1271.41 238.009 1271.41 Q242.014 1271.41 244.352 1269.3 Q246.69 1267.2 246.69 1263.59 Q246.69 1259.98 244.352 1257.87 Q242.014 1255.76 238.009 1255.76 Q236.135 1255.76 234.26 1256.18 Q232.408 1256.6 230.463 1257.48 L230.463 1240.11 Z" fill="#000000" fill-rule="nonzero" fill-opacity="1" /><path clip-path="url(#clip820)" d="M114.26 1076.4 L143.936 1076.4 L143.936 1080.33 L114.26 1080.33 L114.26 1076.4 Z" fill="#000000" fill-rule="nonzero" fill-opacity="1" /><path clip-path="url(#clip820)" d="M164.028 1061.74 Q160.417 1061.74 158.589 1065.31 Q156.783 1068.85 156.783 1075.98 Q156.783 1083.09 158.589 1086.65 Q160.417 1090.19 164.028 1090.19 Q167.663 1090.19 169.468 1086.65 Q171.297 1083.09 171.297 1075.98 Q171.297 1068.85 169.468 1065.31 Q167.663 1061.74 164.028 1061.74 M164.028 1058.04 Q169.839 1058.04 172.894 1062.65 Q175.973 1067.23 175.973 1075.98 Q175.973 1084.71 172.894 1089.31 Q169.839 1093.9 164.028 1093.9 Q158.218 1093.9 155.14 1089.31 Q152.084 1084.71 152.084 1075.98 Q152.084 1067.23 155.14 1062.65 Q158.218 1058.04 164.028 1058.04 Z" fill="#000000" fill-rule="nonzero" fill-opacity="1" /><path clip-path="url(#clip820)" d="M184.19 1087.35 L189.075 1087.35 L189.075 1093.22 L184.19 1093.22 L184.19 1087.35 Z" fill="#000000" fill-rule="nonzero" fill-opacity="1" /><path clip-path="url(#clip820)" d="M200.07 1089.29 L207.709 1089.29 L207.709 1062.92 L199.399 1064.59 L199.399 1060.33 L207.662 1058.66 L212.338 1058.66 L212.338 1089.29 L219.977 1089.29 L219.977 1093.22 L200.07 1093.22 L200.07 1089.29 Z" fill="#000000" fill-rule="nonzero" fill-opacity="1" /><path clip-path="url(#clip820)" d="M239.422 1061.74 Q235.81 1061.74 233.982 1065.31 Q232.176 1068.85 232.176 1075.98 Q232.176 1083.09 233.982 1086.65 Q235.81 1090.19 239.422 1090.19 Q243.056 1090.19 244.861 1086.65 Q246.69 1083.09 246.69 1075.98 Q246.69 1068.85 244.861 1065.31 Q243.056 1061.74 239.422 1061.74 M239.422 1058.04 Q245.232 1058.04 248.287 1062.65 Q251.366 1067.23 251.366 1075.98 Q251.366 1084.71 248.287 1089.31 Q245.232 1093.9 239.422 1093.9 Q233.611 1093.9 230.533 1089.31 Q227.477 1084.71 227.477 1075.98 Q227.477 1067.23 230.533 1062.65 Q233.611 1058.04 239.422 1058.04 Z" fill="#000000" fill-rule="nonzero" fill-opacity="1" /><path clip-path="url(#clip820)" d="M115.256 894.947 L144.931 894.947 L144.931 898.882 L115.256 898.882 L115.256 894.947 Z" fill="#000000" fill-rule="nonzero" fill-opacity="1" /><path clip-path="url(#clip820)" d="M165.024 880.294 Q161.413 880.294 159.584 883.859 Q157.778 887.401 157.778 894.53 Q157.778 901.637 159.584 905.201 Q161.413 908.743 165.024 908.743 Q168.658 908.743 170.464 905.201 Q172.292 901.637 172.292 894.53 Q172.292 887.401 170.464 883.859 Q168.658 880.294 165.024 880.294 M165.024 876.59 Q170.834 876.59 173.889 881.197 Q176.968 885.78 176.968 894.53 Q176.968 903.257 173.889 907.863 Q170.834 912.447 165.024 912.447 Q159.214 912.447 156.135 907.863 Q153.079 903.257 153.079 894.53 Q153.079 885.78 156.135 881.197 Q159.214 876.59 165.024 876.59 Z" fill="#000000" fill-rule="nonzero" fill-opacity="1" /><path clip-path="url(#clip820)" d="M185.186 905.896 L190.07 905.896 L190.07 911.775 L185.186 911.775 L185.186 905.896 Z" fill="#000000" fill-rule="nonzero" fill-opacity="1" /><path clip-path="url(#clip820)" d="M210.255 880.294 Q206.644 880.294 204.815 883.859 Q203.01 887.401 203.01 894.53 Q203.01 901.637 204.815 905.201 Q206.644 908.743 210.255 908.743 Q213.889 908.743 215.695 905.201 Q217.523 901.637 217.523 894.53 Q217.523 887.401 215.695 883.859 Q213.889 880.294 210.255 880.294 M210.255 876.59 Q216.065 876.59 219.121 881.197 Q222.199 885.78 222.199 894.53 Q222.199 903.257 219.121 907.863 Q216.065 912.447 210.255 912.447 Q204.445 912.447 201.366 907.863 Q198.311 903.257 198.311 894.53 Q198.311 885.78 201.366 881.197 Q204.445 876.59 210.255 876.59 Z" fill="#000000" fill-rule="nonzero" fill-opacity="1" /><path clip-path="url(#clip820)" d="M230.463 877.215 L248.82 877.215 L248.82 881.151 L234.746 881.151 L234.746 889.623 Q235.764 889.276 236.783 889.114 Q237.801 888.928 238.82 888.928 Q244.607 888.928 247.986 892.1 Q251.366 895.271 251.366 900.688 Q251.366 906.266 247.894 909.368 Q244.421 912.447 238.102 912.447 Q235.926 912.447 233.658 912.076 Q231.412 911.706 229.005 910.965 L229.005 906.266 Q231.088 907.4 233.31 907.956 Q235.533 908.512 238.009 908.512 Q242.014 908.512 244.352 906.405 Q246.69 904.299 246.69 900.688 Q246.69 897.076 244.352 894.97 Q242.014 892.864 238.009 892.864 Q236.135 892.864 234.26 893.28 Q232.408 893.697 230.463 894.576 L230.463 877.215 Z" fill="#000000" fill-rule="nonzero" fill-opacity="1" /><path clip-path="url(#clip820)" d="M164.028 698.845 Q160.417 698.845 158.589 702.409 Q156.783 705.951 156.783 713.081 Q156.783 720.187 158.589 723.752 Q160.417 727.294 164.028 727.294 Q167.663 727.294 169.468 723.752 Q171.297 720.187 171.297 713.081 Q171.297 705.951 169.468 702.409 Q167.663 698.845 164.028 698.845 M164.028 695.141 Q169.839 695.141 172.894 699.747 Q175.973 704.331 175.973 713.081 Q175.973 721.807 172.894 726.414 Q169.839 730.997 164.028 730.997 Q158.218 730.997 155.14 726.414 Q152.084 721.807 152.084 713.081 Q152.084 704.331 155.14 699.747 Q158.218 695.141 164.028 695.141 Z" fill="#000000" fill-rule="nonzero" fill-opacity="1" /><path clip-path="url(#clip820)" d="M184.19 724.446 L189.075 724.446 L189.075 730.326 L184.19 730.326 L184.19 724.446 Z" fill="#000000" fill-rule="nonzero" fill-opacity="1" /><path clip-path="url(#clip820)" d="M209.26 698.845 Q205.649 698.845 203.82 702.409 Q202.014 705.951 202.014 713.081 Q202.014 720.187 203.82 723.752 Q205.649 727.294 209.26 727.294 Q212.894 727.294 214.699 723.752 Q216.528 720.187 216.528 713.081 Q216.528 705.951 214.699 702.409 Q212.894 698.845 209.26 698.845 M209.26 695.141 Q215.07 695.141 218.125 699.747 Q221.204 704.331 221.204 713.081 Q221.204 721.807 218.125 726.414 Q215.07 730.997 209.26 730.997 Q203.449 730.997 200.371 726.414 Q197.315 721.807 197.315 713.081 Q197.315 704.331 200.371 699.747 Q203.449 695.141 209.26 695.141 Z" fill="#000000" fill-rule="nonzero" fill-opacity="1" /><path clip-path="url(#clip820)" d="M239.422 698.845 Q235.81 698.845 233.982 702.409 Q232.176 705.951 232.176 713.081 Q232.176 720.187 233.982 723.752 Q235.81 727.294 239.422 727.294 Q243.056 727.294 244.861 723.752 Q246.69 720.187 246.69 713.081 Q246.69 705.951 244.861 702.409 Q243.056 698.845 239.422 698.845 M239.422 695.141 Q245.232 695.141 248.287 699.747 Q251.366 704.331 251.366 713.081 Q251.366 721.807 248.287 726.414 Q245.232 730.997 239.422 730.997 Q233.611 730.997 230.533 726.414 Q227.477 721.807 227.477 713.081 Q227.477 704.331 230.533 699.747 Q233.611 695.141 239.422 695.141 Z" fill="#000000" fill-rule="nonzero" fill-opacity="1" /><path clip-path="url(#clip820)" d="M165.024 517.395 Q161.413 517.395 159.584 520.96 Q157.778 524.502 157.778 531.631 Q157.778 538.738 159.584 542.302 Q161.413 545.844 165.024 545.844 Q168.658 545.844 170.464 542.302 Q172.292 538.738 172.292 531.631 Q172.292 524.502 170.464 520.96 Q168.658 517.395 165.024 517.395 M165.024 513.691 Q170.834 513.691 173.889 518.298 Q176.968 522.881 176.968 531.631 Q176.968 540.358 173.889 544.964 Q170.834 549.548 165.024 549.548 Q159.214 549.548 156.135 544.964 Q153.079 540.358 153.079 531.631 Q153.079 522.881 156.135 518.298 Q159.214 513.691 165.024 513.691 Z" fill="#000000" fill-rule="nonzero" fill-opacity="1" /><path clip-path="url(#clip820)" d="M185.186 542.997 L190.07 542.997 L190.07 548.876 L185.186 548.876 L185.186 542.997 Z" fill="#000000" fill-rule="nonzero" fill-opacity="1" /><path clip-path="url(#clip820)" d="M210.255 517.395 Q206.644 517.395 204.815 520.96 Q203.01 524.502 203.01 531.631 Q203.01 538.738 204.815 542.302 Q206.644 545.844 210.255 545.844 Q213.889 545.844 215.695 542.302 Q217.523 538.738 217.523 531.631 Q217.523 524.502 215.695 520.96 Q213.889 517.395 210.255 517.395 M210.255 513.691 Q216.065 513.691 219.121 518.298 Q222.199 522.881 222.199 531.631 Q222.199 540.358 219.121 544.964 Q216.065 549.548 210.255 549.548 Q204.445 549.548 201.366 544.964 Q198.311 540.358 198.311 531.631 Q198.311 522.881 201.366 518.298 Q204.445 513.691 210.255 513.691 Z" fill="#000000" fill-rule="nonzero" fill-opacity="1" /><path clip-path="url(#clip820)" d="M230.463 514.316 L248.82 514.316 L248.82 518.252 L234.746 518.252 L234.746 526.724 Q235.764 526.377 236.783 526.214 Q237.801 526.029 238.82 526.029 Q244.607 526.029 247.986 529.201 Q251.366 532.372 251.366 537.788 Q251.366 543.367 247.894 546.469 Q244.421 549.548 238.102 549.548 Q235.926 549.548 233.658 549.177 Q231.412 548.807 229.005 548.066 L229.005 543.367 Q231.088 544.501 233.31 545.057 Q235.533 545.613 238.009 545.613 Q242.014 545.613 244.352 543.506 Q246.69 541.4 246.69 537.788 Q246.69 534.177 244.352 532.071 Q242.014 529.964 238.009 529.964 Q236.135 529.964 234.26 530.381 Q232.408 530.798 230.463 531.677 L230.463 514.316 Z" fill="#000000" fill-rule="nonzero" fill-opacity="1" /><path clip-path="url(#clip820)" d="M164.028 335.946 Q160.417 335.946 158.589 339.51 Q156.783 343.052 156.783 350.182 Q156.783 357.288 158.589 360.853 Q160.417 364.394 164.028 364.394 Q167.663 364.394 169.468 360.853 Q171.297 357.288 171.297 350.182 Q171.297 343.052 169.468 339.51 Q167.663 335.946 164.028 335.946 M164.028 332.242 Q169.839 332.242 172.894 336.848 Q175.973 341.432 175.973 350.182 Q175.973 358.908 172.894 363.515 Q169.839 368.098 164.028 368.098 Q158.218 368.098 155.14 363.515 Q152.084 358.908 152.084 350.182 Q152.084 341.432 155.14 336.848 Q158.218 332.242 164.028 332.242 Z" fill="#000000" fill-rule="nonzero" fill-opacity="1" /><path clip-path="url(#clip820)" d="M184.19 361.547 L189.075 361.547 L189.075 367.427 L184.19 367.427 L184.19 361.547 Z" fill="#000000" fill-rule="nonzero" fill-opacity="1" /><path clip-path="url(#clip820)" d="M200.07 363.492 L207.709 363.492 L207.709 337.126 L199.399 338.793 L199.399 334.534 L207.662 332.867 L212.338 332.867 L212.338 363.492 L219.977 363.492 L219.977 367.427 L200.07 367.427 L200.07 363.492 Z" fill="#000000" fill-rule="nonzero" fill-opacity="1" /><path clip-path="url(#clip820)" d="M239.422 335.946 Q235.81 335.946 233.982 339.51 Q232.176 343.052 232.176 350.182 Q232.176 357.288 233.982 360.853 Q235.81 364.394 239.422 364.394 Q243.056 364.394 244.861 360.853 Q246.69 357.288 246.69 350.182 Q246.69 343.052 244.861 339.51 Q243.056 335.946 239.422 335.946 M239.422 332.242 Q245.232 332.242 248.287 336.848 Q251.366 341.432 251.366 350.182 Q251.366 358.908 248.287 363.515 Q245.232 368.098 239.422 368.098 Q233.611 368.098 230.533 363.515 Q227.477 358.908 227.477 350.182 Q227.477 341.432 230.533 336.848 Q233.611 332.242 239.422 332.242 Z" fill="#000000" fill-rule="nonzero" fill-opacity="1" /><path clip-path="url(#clip820)" d="M165.024 154.496 Q161.413 154.496 159.584 158.061 Q157.778 161.602 157.778 168.732 Q157.778 175.838 159.584 179.403 Q161.413 182.945 165.024 182.945 Q168.658 182.945 170.464 179.403 Q172.292 175.838 172.292 168.732 Q172.292 161.602 170.464 158.061 Q168.658 154.496 165.024 154.496 M165.024 150.792 Q170.834 150.792 173.889 155.399 Q176.968 159.982 176.968 168.732 Q176.968 177.459 173.889 182.065 Q170.834 186.649 165.024 186.649 Q159.214 186.649 156.135 182.065 Q153.079 177.459 153.079 168.732 Q153.079 159.982 156.135 155.399 Q159.214 150.792 165.024 150.792 Z" fill="#000000" fill-rule="nonzero" fill-opacity="1" /><path clip-path="url(#clip820)" d="M185.186 180.098 L190.07 180.098 L190.07 185.977 L185.186 185.977 L185.186 180.098 Z" fill="#000000" fill-rule="nonzero" fill-opacity="1" /><path clip-path="url(#clip820)" d="M201.065 182.042 L208.704 182.042 L208.704 155.677 L200.394 157.343 L200.394 153.084 L208.658 151.417 L213.334 151.417 L213.334 182.042 L220.973 182.042 L220.973 185.977 L201.065 185.977 L201.065 182.042 Z" fill="#000000" fill-rule="nonzero" fill-opacity="1" /><path clip-path="url(#clip820)" d="M230.463 151.417 L248.82 151.417 L248.82 155.352 L234.746 155.352 L234.746 163.825 Q235.764 163.477 236.783 163.315 Q237.801 163.13 238.82 163.13 Q244.607 163.13 247.986 166.301 Q251.366 169.473 251.366 174.889 Q251.366 180.468 247.894 183.57 Q244.421 186.649 238.102 186.649 Q235.926 186.649 233.658 186.278 Q231.412 185.908 229.005 185.167 L229.005 180.468 Q231.088 181.602 233.31 182.158 Q235.533 182.713 238.009 182.713 Q242.014 182.713 244.352 180.607 Q246.69 178.501 246.69 174.889 Q246.69 171.278 244.352 169.172 Q242.014 167.065 238.009 167.065 Q236.135 167.065 234.26 167.482 Q232.408 167.899 230.463 168.778 L230.463 151.417 Z" fill="#000000" fill-rule="nonzero" fill-opacity="1" /><path clip-path="url(#clip820)" d="M33.8307 816.359 Q33.2578 817.345 33.0032 818.523 Q32.7167 819.669 32.7167 821.069 Q32.7167 826.035 35.9632 828.708 Q39.1779 831.35 45.2253 831.35 L64.0042 831.35 L64.0042 837.238 L28.3562 837.238 L28.3562 831.35 L33.8944 831.35 Q30.6479 829.504 29.0883 826.544 Q27.4968 823.584 27.4968 819.351 Q27.4968 818.746 27.5923 818.014 Q27.656 817.282 27.8151 816.391 L33.8307 816.359 Z" fill="#000000" fill-rule="nonzero" fill-opacity="1" /><path clip-path="url(#clip820)" d="M44.7161 781.156 L47.5806 781.156 L47.5806 808.083 Q53.6281 807.701 56.8109 804.455 Q59.9619 801.177 59.9619 795.352 Q59.9619 791.978 59.1344 788.827 Q58.3069 785.644 56.6518 782.525 L62.1899 782.525 Q63.5267 785.676 64.227 788.986 Q64.9272 792.296 64.9272 795.702 Q64.9272 804.232 59.9619 809.229 Q54.9967 814.194 46.5303 814.194 Q37.7774 814.194 32.6531 809.484 Q27.4968 804.741 27.4968 796.721 Q27.4968 789.527 32.1438 785.358 Q36.7589 781.156 44.7161 781.156 M42.9973 787.013 Q38.1912 787.077 35.3266 789.718 Q32.4621 792.328 32.4621 796.657 Q32.4621 801.559 35.2312 804.519 Q38.0002 807.447 43.0292 807.892 L42.9973 787.013 Z" fill="#000000" fill-rule="nonzero" fill-opacity="1" /><path clip-path="url(#clip820)" d="M46.0847 755.344 Q46.0847 762.441 47.7079 765.179 Q49.3312 767.916 53.2461 767.916 Q56.3653 767.916 58.2114 765.879 Q60.0256 763.81 60.0256 760.277 Q60.0256 755.407 56.5881 752.479 Q53.1188 749.519 47.3897 749.519 L46.0847 749.519 L46.0847 755.344 M43.6657 743.662 L64.0042 743.662 L64.0042 749.519 L58.5933 749.519 Q61.8398 751.524 63.3994 754.516 Q64.9272 757.508 64.9272 761.837 Q64.9272 767.311 61.8716 770.558 Q58.7843 773.772 53.6281 773.772 Q47.6125 773.772 44.5569 769.762 Q41.5014 765.72 41.5014 757.731 L41.5014 749.519 L40.9285 749.519 Q36.8862 749.519 34.6901 752.192 Q32.4621 754.834 32.4621 759.64 Q32.4621 762.696 33.1941 765.592 Q33.9262 768.489 35.3903 771.162 L29.9795 771.162 Q28.7381 767.948 28.1334 764.924 Q27.4968 761.9 27.4968 759.036 Q27.4968 751.301 31.5072 747.482 Q35.5176 743.662 43.6657 743.662 Z" fill="#000000" fill-rule="nonzero" fill-opacity="1" /><path clip-path="url(#clip820)" d="M14.479 731.599 L14.479 725.743 L64.0042 725.743 L64.0042 731.599 L14.479 731.599 Z" fill="#000000" fill-rule="nonzero" fill-opacity="1" /><path clip-path="url(#clip820)" d="M14.5426 699.421 Q21.8632 703.686 29.0246 705.755 Q36.186 707.824 43.5384 707.824 Q50.8908 707.824 58.1159 705.755 Q65.3091 703.654 72.5979 699.421 L72.5979 704.513 Q65.1182 709.288 57.8931 711.675 Q50.668 714.03 43.5384 714.03 Q36.4406 714.03 29.2474 711.675 Q22.0542 709.319 14.5426 704.513 L14.5426 699.421 Z" fill="#000000" fill-rule="nonzero" fill-opacity="1" /><path clip-path="url(#clip820)" d="M16.4842 687.803 L16.4842 657.757 L21.895 657.757 L21.895 681.374 L35.9632 681.374 L35.9632 658.744 L41.3741 658.744 L41.3741 681.374 L58.5933 681.374 L58.5933 657.184 L64.0042 657.184 L64.0042 687.803 L16.4842 687.803 Z" fill="#000000" fill-rule="nonzero" fill-opacity="1" /><path clip-path="url(#clip820)" d="M14.5426 647.795 L14.5426 642.702 Q22.0542 637.928 29.2474 635.573 Q36.4406 633.186 43.5384 633.186 Q50.668 633.186 57.8931 635.573 Q65.1182 637.928 72.5979 642.702 L72.5979 647.795 Q65.3091 643.562 58.1159 641.493 Q50.8908 639.392 43.5384 639.392 Q36.186 639.392 29.0246 641.493 Q21.8632 643.562 14.5426 647.795 Z" fill="#000000" fill-rule="nonzero" fill-opacity="1" /><polyline clip-path="url(#clip822)" style="stroke:#009af9; stroke-linecap:round; stroke-linejoin:round; stroke-width:4; stroke-opacity:1; fill:none" points="345.82,86.1857 347.119,86.1898 348.418,86.2022 349.717,86.2228 351.016,86.2517 352.315,86.2888 353.614,86.3342 354.913,86.3878 356.212,86.4497 357.511,86.5198 358.81,86.5981 360.109,86.6847 361.408,86.7796 362.707,86.8827 364.006,86.994 365.305,87.1135 366.604,87.2413 367.903,87.3773 369.202,87.5216 370.501,87.674 371.8,87.8347 373.099,88.0036 374.398,88.1808 375.697,88.3661 376.996,88.5596 378.295,88.7614 379.594,88.9713 380.893,89.1895 382.192,89.4158 383.491,89.6503 384.79,89.893 386.089,90.1439 387.388,90.4029 388.687,90.6702 389.986,90.9455 391.285,91.2291 392.584,91.5208 393.883,91.8206 395.182,92.1286 396.481,92.4447 397.78,92.7689 399.079,93.1013 400.378,93.4417 401.677,93.7903 402.976,94.147 404.275,94.5118 405.574,94.8846 406.873,95.2656 408.172,95.6546 409.471,96.0516 410.77,96.4568 412.069,96.8699 413.368,97.2912 414.667,97.7204 415.966,98.1577 417.265,98.603 418.564,99.0563 419.863,99.5175 421.162,99.9868 422.461,100.464 423.76,100.949 425.059,101.442 426.358,101.944 427.657,102.453 428.956,102.97 430.255,103.495 431.554,104.027 432.852,104.568 434.151,105.117 435.45,105.673 436.749,106.238 438.048,106.81 439.347,107.39 440.646,107.978 441.945,108.574 443.244,109.177 444.543,109.788 445.842,110.407 447.141,111.034 448.44,111.669 449.739,112.311 451.038,112.961 452.337,113.619 453.636,114.285 454.935,114.958 456.234,115.639 457.533,116.328 458.832,117.024 460.131,117.728 461.43,118.439 462.729,119.159 464.028,119.885 465.327,120.62 466.626,121.362 467.925,122.111 469.224,122.868 470.523,123.633 471.822,124.405 473.121,125.184 474.42,125.971 475.719,126.766 477.018,127.568 478.317,128.377 479.616,129.194 480.915,130.018 482.214,130.85 483.513,131.689 484.812,132.535 486.111,133.389 487.41,134.249 488.709,135.118 490.008,135.993 491.307,136.876 492.606,137.766 493.905,138.664 495.204,139.568 496.503,140.48 497.802,141.399 499.101,142.325 500.4,143.258 501.699,144.198 502.998,145.146 504.297,146.1 505.596,147.062 506.895,148.031 508.194,149.006 509.493,149.989 510.792,150.979 512.091,151.976 513.39,152.979 514.689,153.99 515.988,155.007 517.287,156.032 518.586,157.063 519.885,158.101 521.184,159.146 522.483,160.198 523.782,161.256 525.081,162.322 526.38,163.394 527.679,164.473 528.978,165.558 530.277,166.651 531.576,167.749 532.875,168.855 534.174,169.967 535.473,171.086 536.771,172.211 538.07,173.343 539.369,174.482 540.668,175.627 541.967,176.778 543.266,177.936 544.565,179.1 545.864,180.271 547.163,181.448 548.462,182.632 549.761,183.822 551.06,185.018 552.359,186.221 553.658,187.43 554.957,188.645 556.256,189.866 557.555,191.094 558.854,192.327 560.153,193.567 561.452,194.813 562.751,196.066 564.05,197.324 565.349,198.588 566.648,199.859 567.947,201.135 569.246,202.417 570.545,203.706 571.844,205 573.143,206.3 574.442,207.607 575.741,208.919 577.04,210.236 578.339,211.56 579.638,212.889 580.937,214.225 582.236,215.566 583.535,216.912 584.834,218.265 586.133,219.623 587.432,220.986 588.731,222.355 590.03,223.73 591.329,225.111 592.628,226.497 593.927,227.888 595.226,229.285 596.525,230.687 597.824,232.095 599.123,233.508 600.422,234.927 601.721,236.35 603.02,237.779 604.319,239.214 605.618,240.654 606.917,242.098 608.216,243.549 609.515,245.004 610.814,246.464 612.113,247.93 613.412,249.4 614.711,250.876 616.01,252.357 617.309,253.842 618.608,255.333 619.907,256.828 621.206,258.329 622.505,259.834 623.804,261.344 625.103,262.859 626.402,264.379 627.701,265.904 629,267.433 630.299,268.967 631.598,270.506 632.897,272.049 634.196,273.597 635.495,275.15 636.794,276.707 638.093,278.269 639.391,279.835 640.69,281.405 641.989,282.98 643.288,284.56 644.587,286.143 645.886,287.732 647.185,289.324 648.484,290.921 649.783,292.522 651.082,294.127 652.381,295.736 653.68,297.35 654.979,298.968 656.278,300.589 657.577,302.215 658.876,303.845 660.175,305.479 661.474,307.117 662.773,308.758 664.072,310.404 665.371,312.054 666.67,313.707 667.969,315.364 669.268,317.025 670.567,318.69 671.866,320.358 673.165,322.03 674.464,323.706 675.763,325.386 677.062,327.069 678.361,328.755 679.66,330.445 680.959,332.139 682.258,333.836 683.557,335.536 684.856,337.24 686.155,338.947 687.454,340.658 688.753,342.371 690.052,344.088 691.351,345.809 692.65,347.532 693.949,349.259 695.248,350.989 696.547,352.721 697.846,354.457 699.145,356.196 700.444,357.938 701.743,359.683 703.042,361.431 704.341,363.182 705.64,364.935 706.939,366.692 708.238,368.451 709.537,370.213 710.836,371.978 712.135,373.745 713.434,375.515 714.733,377.288 716.032,379.063 717.331,380.841 718.63,382.621 719.929,384.404 721.228,386.189 722.527,387.977 723.826,389.767 725.125,391.559 726.424,393.354 727.723,395.151 729.022,396.951 730.321,398.752 731.62,400.556 732.919,402.362 734.218,404.17 735.517,405.98 736.816,407.792 738.115,409.606 739.414,411.422 740.713,413.24 742.012,415.06 743.31,416.882 744.609,418.706 745.908,420.531 747.207,422.358 748.506,424.187 749.805,426.018 751.104,427.85 752.403,429.684 753.702,431.52 755.001,433.357 756.3,435.196 757.599,437.036 758.898,438.877 760.197,440.72 761.496,442.565 762.795,444.411 764.094,446.258 765.393,448.106 766.692,449.956 767.991,451.807 769.29,453.659 770.589,455.512 771.888,457.366 773.187,459.221 774.486,461.078 775.785,462.935 777.084,464.794 778.383,466.653 779.682,468.513 780.981,470.374 782.28,472.236 783.579,474.099 784.878,475.962 786.177,477.827 787.476,479.691 788.775,481.557 790.074,483.423 791.373,485.29 792.672,487.157 793.971,489.025 795.27,490.893 796.569,492.762 797.868,494.631 799.167,496.501 800.466,498.371 801.765,500.241 803.064,502.111 804.363,503.982 805.662,505.853 806.961,507.724 808.26,509.595 809.559,511.467 810.858,513.338 812.157,515.209 813.456,517.081 814.755,518.952 816.054,520.823 817.353,522.695 818.652,524.566 819.951,526.437 821.25,528.307 822.549,530.178 823.848,532.048 825.147,533.918 826.446,535.787 827.745,537.656 829.044,539.525 830.343,541.393 831.642,543.261 832.941,545.128 834.24,546.994 835.539,548.86 836.838,550.726 838.137,552.591 839.436,554.455 840.735,556.318 842.034,558.18 843.333,560.042 844.632,561.903 845.93,563.763 847.229,565.622 848.528,567.48 849.827,569.338 851.126,571.194 852.425,573.049 853.724,574.903 855.023,576.756 856.322,578.608 857.621,580.459 858.92,582.308 860.219,584.157 861.518,586.004 862.817,587.849 864.116,589.694 865.415,591.537 866.714,593.365 868.013,595.165 869.312,596.938 870.611,598.684 871.91,600.404 873.209,602.097 874.508,603.764 875.807,605.406 877.106,607.023 878.405,608.616 879.704,610.184 881.003,611.728 882.302,613.249 883.601,614.747 884.9,616.222 886.199,617.675 887.498,619.105 888.797,620.514 890.096,621.901 891.395,623.268 892.694,624.614 893.993,625.939 895.292,627.244 896.591,628.529 897.89,629.795 899.189,631.042 900.488,632.27 901.787,633.479 903.086,634.67 904.385,635.843 905.684,636.998 906.983,638.135 908.282,639.256 909.581,640.359 910.88,641.446 912.179,642.516 913.478,643.57 914.777,644.608 916.076,645.631 917.375,646.638 918.674,647.63 919.973,648.607 921.272,649.569 922.571,650.516 923.87,651.449 925.169,652.368 926.468,653.274 927.767,654.165 929.066,655.043 930.365,655.908 931.664,656.76 932.963,657.599 934.262,658.425 935.561,659.239 936.86,660.041 938.159,660.83 939.458,661.608 940.757,662.374 942.056,663.128 943.355,663.871 944.654,664.603 945.953,665.324 947.252,666.034 948.551,666.733 949.849,667.422 951.148,668.1 952.447,668.768 953.746,669.426 955.045,670.074 956.344,670.713 957.643,671.342 958.942,671.961 960.241,672.571 961.54,673.172 962.839,673.764 964.138,674.347 965.437,674.921 966.736,675.487 968.035,676.044 969.334,676.592 970.633,677.133 971.932,677.665 973.231,678.189 974.53,678.706 975.829,679.215 977.128,679.716 978.427,680.209 979.726,680.696 981.025,681.174 982.324,681.646 983.623,682.111 984.922,682.568 986.221,683.019 987.52,683.463 988.819,683.9 990.118,684.331 991.417,684.755 992.716,685.173 994.015,685.585 995.314,685.991 996.613,686.39 997.912,686.784 999.211,687.171 1000.51,687.553 1001.81,687.929 1003.11,688.299 1004.41,688.664 1005.71,689.023 1007,689.377 1008.3,689.726 1009.6,690.07 1010.9,690.408 1012.2,690.741 1013.5,691.069 1014.8,691.393 1016.1,691.711 1017.4,692.025 1018.7,692.334 1019.99,692.638 1021.29,692.938 1022.59,693.233 1023.89,693.524 1025.19,693.811 1026.49,694.093 1027.79,694.371 1029.09,694.645 1030.39,694.914 1031.69,695.18 1032.98,695.442 1034.28,695.7 1035.58,695.954 1036.88,696.204 1038.18,696.45 1039.48,696.693 1040.78,696.932 1042.08,697.167 1043.38,697.399 1044.68,697.628 1045.97,697.853 1047.27,698.074 1048.57,698.292 1049.87,698.508 1051.17,698.719 1052.47,698.928 1053.77,699.133 1055.07,699.336 1056.37,699.535 1057.67,699.732 1058.96,699.925 1060.26,700.115 1061.56,700.303 1062.86,700.488 1064.16,700.67 1065.46,700.849 1066.76,701.026 1068.06,701.2 1069.36,701.371 1070.66,701.54 1071.95,701.706 1073.25,701.87 1074.55,702.031 1075.85,702.19 1077.15,702.346 1078.45,702.5 1079.75,702.652 1081.05,702.801 1082.35,702.948 1083.65,703.093 1084.94,703.236 1086.24,703.376 1087.54,703.515 1088.84,703.651 1090.14,703.785 1091.44,703.918 1092.74,704.048 1094.04,704.176 1095.34,704.302 1096.64,704.427 1097.93,704.549 1099.23,704.67 1100.53,704.789 1101.83,704.906 1103.13,705.021 1104.43,705.134 1105.73,705.246 1107.03,705.356 1108.33,705.464 1109.62,705.571 1110.92,705.676 1112.22,705.779 1113.52,705.881 1114.82,705.981 1116.12,706.08 1117.42,706.177 1118.72,706.272 1120.02,706.367 1121.32,706.459 1122.61,706.551 1123.91,706.64 1125.21,706.729 1126.51,706.816 1127.81,706.902 1129.11,706.986 1130.41,707.069 1131.71,707.151 1133.01,707.231 1134.31,707.31 1135.6,707.388 1136.9,707.465 1138.2,707.541 1139.5,707.615 1140.8,707.688 1142.1,707.76 1143.4,707.831 1144.7,707.9 1146,707.969 1147.3,708.036 1148.59,708.103 1149.89,708.168 1151.19,708.232 1152.49,708.296 1153.79,708.358 1155.09,708.419 1156.39,708.479 1157.69,708.538 1158.99,708.597 1160.29,708.654 1161.58,708.71 1162.88,708.766 1164.18,708.82 1165.48,708.874 1166.78,708.926 1168.08,708.978 1169.38,709.029 1170.68,709.079 1171.98,709.128 1173.28,709.176 1174.57,709.224 1175.87,709.271 1177.17,709.316 1178.47,709.361 1179.77,709.406 1181.07,709.449 1182.37,709.492 1183.67,709.534 1184.97,709.575 1186.27,709.616 1187.56,709.655 1188.86,709.695 1190.16,709.733 1191.46,709.77 1192.76,709.807 1194.06,709.844 1195.36,709.879 1196.66,709.914 1197.96,709.948 1199.26,709.982 1200.55,710.015 1201.85,710.047 1203.15,710.079 1204.45,710.11 1205.75,710.14 1207.05,710.17 1208.35,710.199 1209.65,710.228 1210.95,710.256 1212.24,710.283 1213.54,710.31 1214.84,710.336 1216.14,710.362 1217.44,710.387 1218.74,710.412 1220.04,710.436 1221.34,710.459 1222.64,710.482 1223.94,710.504 1225.23,710.526 1226.53,710.548 1227.83,710.569 1229.13,710.589 1230.43,710.609 1231.73,710.628 1233.03,710.647 1234.33,710.665 1235.63,710.683 1236.93,710.7 1238.22,710.717 1239.52,710.734 1240.82,710.749 1242.12,710.765 1243.42,710.78 1244.72,710.794 1246.02,710.808 1247.32,710.822 1248.62,710.835 1249.92,710.848 1251.21,710.86 1252.51,710.872 1253.81,710.883 1255.11,710.894 1256.41,710.905 1257.71,710.915 1259.01,710.926 1260.31,710.937 1261.61,710.947 1262.91,710.957 1264.2,710.968 1265.5,710.978 1266.8,710.988 1268.1,710.998 1269.4,711.009 1270.7,711.019 1272,711.029 1273.3,711.039 1274.6,711.049 1275.9,711.059 1277.19,711.068 1278.49,711.078 1279.79,711.088 1281.09,711.098 1282.39,711.107 1283.69,711.117 1284.99,711.126 1286.29,711.136 1287.59,711.145 1288.89,711.155 1290.18,711.164 1291.48,711.173 1292.78,711.182 1294.08,711.192 1295.38,711.201 1296.68,711.21 1297.98,711.219 1299.28,711.228 1300.58,711.237 1301.88,711.246 1303.17,711.255 1304.47,711.264 1305.77,711.272 1307.07,711.281 1308.37,711.29 1309.67,711.298 1310.97,711.307 1312.27,711.316 1313.57,711.324 1314.86,711.333 1316.16,711.341 1317.46,711.349 1318.76,711.358 1320.06,711.366 1321.36,711.374 1322.66,711.383 1323.96,711.391 1325.26,711.399 1326.56,711.407 1327.85,711.415 1329.15,711.423 1330.45,711.431 1331.75,711.439 1333.05,711.447 1334.35,711.455 1335.65,711.462 1336.95,711.47 1338.25,711.478 1339.55,711.486 1340.84,711.493 1342.14,711.501 1343.44,711.509 1344.74,711.516 1346.04,711.524 1347.34,711.531 1348.64,711.538 1349.94,711.546 1351.24,711.553 1352.54,711.56 1353.83,711.568 1355.13,711.575 1356.43,711.582 1357.73,711.589 1359.03,711.596 1360.33,711.604 1361.63,711.611 1362.93,711.618 1364.23,711.625 1365.53,711.632 1366.82,711.639 1368.12,711.645 1369.42,711.652 1370.72,711.659 1372.02,711.666 1373.32,711.673 1374.62,711.679 1375.92,711.686 1377.22,711.693 1378.52,711.699 1379.81,711.706 1381.11,711.712 1382.41,711.719 1383.71,711.725 1385.01,711.732 1386.31,711.738 1387.61,711.745 1388.91,711.751 1390.21,711.757 1391.51,711.764 1392.8,711.77 1394.1,711.776 1395.4,711.782 1396.7,711.788 1398,711.794 1399.3,711.801 1400.6,711.807 1401.9,711.813 1403.2,711.819 1404.5,711.825 1405.79,711.831 1407.09,711.836 1408.39,711.842 1409.69,711.848 1410.99,711.854 1412.29,711.86 1413.59,711.866 1414.89,711.871 1416.19,711.877 1417.48,711.883 1418.78,711.888 1420.08,711.894 1421.38,711.9 1422.68,711.905 1423.98,711.911 1425.28,711.916 1426.58,711.922 1427.88,711.927 1429.18,711.933 1430.47,711.938 1431.77,711.943 1433.07,711.949 1434.37,711.954 1435.67,711.959 1436.97,711.965 1438.27,711.97 1439.57,711.975 1440.87,711.98 1442.17,711.985 1443.46,711.991 1444.76,711.996 1446.06,712.001 1447.36,712.006 1448.66,712.011 1449.96,712.016 1451.26,712.021 1452.56,712.026 1453.86,712.031 1455.16,712.036 1456.45,712.041 1457.75,712.046 1459.05,712.05 1460.35,712.055 1461.65,712.06 1462.95,712.065 1464.25,712.069 1465.55,712.074 1466.85,712.079 1468.15,712.084 1469.44,712.088 1470.74,712.093 1472.04,712.097 1473.34,712.102 1474.64,712.107 1475.94,712.111 1477.24,712.116 1478.54,712.12 1479.84,712.125 1481.14,712.129 1482.43,712.133 1483.73,712.138 1485.03,712.142 1486.33,712.147 1487.63,712.151 1488.93,712.155 1490.23,712.16 1491.53,712.164 1492.83,712.168 1494.13,712.172 1495.42,712.177 1496.72,712.181 1498.02,712.185 1499.32,712.189 1500.62,712.193 1501.92,712.197 1503.22,712.201 1504.52,712.205 1505.82,712.21 1507.12,712.214 1508.41,712.218 1509.71,712.222 1511.01,712.226 1512.31,712.229 1513.61,712.233 1514.91,712.237 1516.21,712.241 1517.51,712.245 1518.81,712.249 1520.1,712.253 1521.4,712.257 1522.7,712.26 1524,712.264 1525.3,712.268 1526.6,712.272 1527.9,712.275 1529.2,712.279 1530.5,712.283 1531.8,712.286 1533.09,712.29 1534.39,712.294 1535.69,712.297 1536.99,712.301 1538.29,712.304 1539.59,712.308 1540.89,712.312 1542.19,712.315 1543.49,712.319 1544.79,712.322 1546.08,712.326 1547.38,712.329 1548.68,712.332 1549.98,712.336 1551.28,712.339 1552.58,712.343 1553.88,712.346 1555.18,712.349 1556.48,712.353 1557.78,712.356 1559.07,712.359 1560.37,712.363 1561.67,712.366 1562.97,712.369 1564.27,712.372 1565.57,712.376 1566.87,712.379 1568.17,712.382 1569.47,712.385 1570.77,712.388 1572.06,712.391 1573.36,712.395 1574.66,712.398 1575.96,712.401 1577.26,712.404 1578.56,712.407 1579.86,712.41 1581.16,712.413 1582.46,712.416 1583.76,712.419 1585.05,712.422 1586.35,712.425 1587.65,712.428 1588.95,712.431 1590.25,712.434 1591.55,712.437 1592.85,712.44 1594.15,712.443 1595.45,712.446 1596.75,712.448 1598.04,712.451 1599.34,712.454 1600.64,712.457 1601.94,712.46 1603.24,712.462 1604.54,712.465 1605.84,712.468 1607.14,712.471 1608.44,712.474 1609.74,712.476 1611.03,712.479 1612.33,712.482 1613.63,712.484 1614.93,712.487 1616.23,712.49 1617.53,712.492 1618.83,712.495 1620.13,712.498 1621.43,712.5 1622.72,712.503 1624.02,712.505 1625.32,712.508 1626.62,712.511 1627.92,712.513 1629.22,712.516 1630.52,712.518 1631.82,712.521 1633.12,712.523 1634.42,712.526 1635.71,712.528 1637.01,712.531 1638.31,712.533 1639.61,712.535 1640.91,712.538 1642.21,712.54 1643.51,712.543 1644.81,712.545 1646.11,712.547 1647.41,712.55 1648.7,712.552 1650,712.554 1651.3,712.557 1652.6,712.559 1653.9,712.561 1655.2,712.564 1656.5,712.566 1657.8,712.568 1659.1,712.571 1660.4,712.573 1661.69,712.575 1662.99,712.577 1664.29,712.579 1665.59,712.582 1666.89,712.584 1668.19,712.586 1669.49,712.588 1670.79,712.59 1672.09,712.593 1673.39,712.595 1674.68,712.597 1675.98,712.599 1677.28,712.601 1678.58,712.603 1679.88,712.605 1681.18,712.607 1682.48,712.609 1683.78,712.612 1685.08,712.614 1686.38,712.616 1687.67,712.618 1688.97,712.62 1690.27,712.622 1691.57,712.624 1692.87,712.626 1694.17,712.628 1695.47,712.63 1696.77,712.632 1698.07,712.634 1699.37,712.635 1700.66,712.637 1701.96,712.639 1703.26,712.641 1704.56,712.643 1705.86,712.645 1707.16,712.647 1708.46,712.649 1709.76,712.651 1711.06,712.653 1712.36,712.654 1713.65,712.656 1714.95,712.658 1716.25,712.66 1717.55,712.662 1718.85,712.664 1720.15,712.665 1721.45,712.667 1722.75,712.669 1724.05,712.671 1725.34,712.672 1726.64,712.674 1727.94,712.676 1729.24,712.678 1730.54,712.679 1731.84,712.681 1733.14,712.683 1734.44,712.685 1735.74,712.686 1737.04,712.688 1738.33,712.69 1739.63,712.691 1740.93,712.693 1742.23,712.695 1743.53,712.696 1744.83,712.698 1746.13,712.7 1747.43,712.701 1748.73,712.703 1750.03,712.704 1751.32,712.706 1752.62,712.708 1753.92,712.709 1755.22,712.711 1756.52,712.712 1757.82,712.714 1759.12,712.715 1760.42,712.717 1761.72,712.719 1763.02,712.72 1764.31,712.722 1765.61,712.723 1766.91,712.725 1768.21,712.726 1769.51,712.728 1770.81,712.729 1772.11,712.731 1773.41,712.732 1774.71,712.733 1776.01,712.735 1777.3,712.736 1778.6,712.738 1779.9,712.739 1781.2,712.741 1782.5,712.742 1783.8,712.744 1785.1,712.745 1786.4,712.746 1787.7,712.748 1789,712.749 1790.29,712.751 1791.59,712.752 1792.89,712.753 1794.19,712.755 1795.49,712.756 1796.79,712.757 1798.09,712.759 1799.39,712.76 1800.69,712.761 1801.99,712.763 1803.28,712.764 1804.58,712.765 1805.88,712.767 1807.18,712.768 1808.48,712.769 1809.78,712.77 1811.08,712.772 1812.38,712.773 1813.68,712.774 1814.98,712.776 1816.27,712.777 1817.57,712.778 1818.87,712.779 1820.17,712.781 1821.47,712.782 1822.77,712.783 1824.07,712.784 1825.37,712.785 1826.67,712.787 1827.96,712.788 1829.26,712.789 1830.56,712.79 1831.86,712.791 1833.16,712.793 1834.46,712.794 1835.76,712.795 1837.06,712.796 1838.36,712.797 1839.66,712.798 1840.95,712.799 1842.25,712.801 1843.55,712.802 1844.85,712.803 1846.15,712.804 1847.45,712.805 1848.75,712.806 1850.05,712.807 1851.35,712.808 1852.65,712.81 1853.94,712.811 1855.24,712.812 1856.54,712.813 1857.84,712.814 1859.14,712.815 1860.44,712.816 1861.74,712.817 1863.04,712.818 1864.34,712.819 1865.64,712.82 1866.93,712.821 1868.23,712.822 1869.53,712.823 1870.83,712.824 1872.13,712.825 1873.43,712.826 1874.73,712.827 1876.03,712.828 1877.33,712.829 1878.63,712.83 1879.92,712.831 1881.22,712.832 1882.52,712.833 1883.82,712.834 1885.12,712.835 1886.42,712.836 1887.72,712.837 1889.02,712.838 1890.32,712.839 1891.62,712.84 1892.91,712.841 1894.21,712.842 1895.51,712.843 1896.81,712.844 1898.11,712.845 1899.41,712.846 1900.71,712.846 1902.01,712.847 1903.31,712.848 1904.61,712.849 1905.9,712.85 1907.2,712.851 1908.5,712.852 1909.8,712.853 1911.1,712.854 1912.4,712.854 1913.7,712.855 1915,712.856 1916.3,712.857 1917.6,712.858 1918.89,712.859 1920.19,712.86 1921.49,712.86 1922.79,712.861 1924.09,712.862 1925.39,712.863 1926.69,712.864 1927.99,712.865 1929.29,712.865 1930.58,712.866 1931.88,712.867 1933.18,712.868 1934.48,712.868 1935.78,712.869 1937.08,712.87 1938.38,712.871 1939.68,712.871 1940.98,712.872 1942.28,712.873 1943.57,712.874 1944.87,712.874 1946.17,712.875 1947.47,712.876 1948.77,712.876 1950.07,712.877 1951.37,712.878 1952.67,712.879 1953.97,712.879 1955.27,712.88 1956.56,712.881 1957.86,712.881 1959.16,712.882 1960.46,712.882 1961.76,712.883 1963.06,712.884 1964.36,712.884 1965.66,712.885 1966.96,712.886 1968.26,712.886 1969.55,712.887 1970.85,712.887 1972.15,712.888 1973.45,712.888 1974.75,712.889 1976.05,712.89 1977.35,712.89 1978.65,712.891 1979.95,712.891 1981.25,712.892 1982.54,712.892 1983.84,712.893 1985.14,712.893 1986.44,712.894 1987.74,712.894 1989.04,712.895 1990.34,712.895 1991.64,712.896 1992.94,712.896 1994.24,712.897 1995.53,712.897 1996.83,712.898 1998.13,712.898 1999.43,712.898 2000.73,712.899 2002.03,712.899 2003.33,712.9 2004.63,712.9 2005.93,712.901 2007.23,712.901 2008.52,712.901 2009.82,712.902 2011.12,712.902 2012.42,712.903 2013.72,712.903 2015.02,712.903 2016.32,712.904 2017.62,712.904 2018.92,712.905 2020.22,712.905 2021.51,712.905 2022.81,712.906 2024.11,712.906 2025.41,712.906 2026.71,712.907 2028.01,712.907 2029.31,712.908 2030.61,712.908 2031.91,712.908 2033.2,712.909 2034.5,712.909 2035.8,712.909 2037.1,712.91 2038.4,712.91 2039.7,712.91 2041,712.911 2042.3,712.911 2043.6,712.912 2044.9,712.912 2046.19,712.912 2047.49,712.913 2048.79,712.913 2050.09,712.913 2051.39,712.914 2052.69,712.914 2053.99,712.915 2055.29,712.915 2056.59,712.915 2057.89,712.916 2059.18,712.916 2060.48,712.916 2061.78,712.917 2063.08,712.917 2064.38,712.918 2065.68,712.918 2066.98,712.919 2068.28,712.919 2069.58,712.919 2070.88,712.92 2072.17,712.92 2073.47,712.921 2074.77,712.921 2076.07,712.922 2077.37,712.922 2078.67,712.923 2079.97,712.923 2081.27,712.924 2082.57,712.924 2083.87,712.925 2085.16,712.925 2086.46,712.926 2087.76,712.927 2089.06,712.927 2090.36,712.928 2091.66,712.928 2092.96,712.929 2094.26,712.93 2095.56,712.93 2096.86,712.931 2098.15,712.932 2099.45,712.932 2100.75,712.933 2102.05,712.934 2103.35,712.934 2104.65,712.935 2105.95,712.936 2107.25,712.937 2108.55,712.938 2109.85,712.938 2111.14,712.939 2112.44,712.94 2113.74,712.941 2115.04,712.942 2116.34,712.943 2117.64,712.944 2118.94,712.945 2120.24,712.946 2121.54,712.947 2122.84,712.948 2124.13,712.949 2125.43,712.95 2126.73,712.951 2128.03,712.952 2129.33,712.953 2130.63,712.954 2131.93,712.955 2133.23,712.956 2134.53,712.957 2135.83,712.959 2137.12,712.96 2138.42,712.961 2139.72,712.962 2141.02,712.964 2142.32,712.965 2143.62,712.966 2144.92,712.968 2146.22,712.969 2147.52,712.97 2148.81,712.972 2150.11,712.973 2151.41,712.975 2152.71,712.976 2154.01,712.978 2155.31,712.979 2156.61,712.981 2157.91,712.982 2159.21,712.984 2160.51,712.985 2161.8,712.987 2163.1,712.989 2164.4,712.99 2165.7,712.992 2167,712.993 2168.3,712.995 2169.6,712.997 2170.9,712.999 2172.2,713 2173.5,713.002 2174.79,713.004 2176.09,713.005 2177.39,713.007 2178.69,713.009 2179.99,713.011 2181.29,713.012 2182.59,713.014 2183.89,713.016 2185.19,713.018 2186.49,713.019 2187.78,713.021 2189.08,713.023 2190.38,713.025 2191.68,713.026 2192.98,713.028 2194.28,713.03 2195.58,713.032 2196.88,713.033 2198.18,713.035 2199.48,713.037 2200.77,713.038 2202.07,713.04 2203.37,713.042 2204.67,713.043 2205.97,713.045 2207.27,713.047 2208.57,713.048 2209.87,713.05 2211.17,713.051 2212.47,713.053 2213.76,713.054 2215.06,713.055 2216.36,713.057 2217.66,713.058 2218.96,713.059 2220.26,713.061 2221.56,713.062 2222.86,713.063 2224.16,713.064 2225.46,713.065 2226.75,713.066 2228.05,713.067 2229.35,713.068 2230.65,713.069 2231.95,713.07 2233.25,713.07 2234.55,713.071 2235.85,713.072 2237.15,713.072 2238.45,713.073 2239.74,713.073 2241.04,713.074 2242.34,713.074 2243.64,713.074 2244.94,713.074 2246.24,713.075 2247.54,713.075 2248.84,713.075 2250.14,713.075 2251.43,713.075 2252.73,713.074 2254.03,713.074 2255.33,713.074 2256.63,713.073 2257.93,713.073 2259.23,713.073 2260.53,713.072 2261.83,713.071 2263.13,713.071 2264.42,713.07 2265.72,713.069 2267.02,713.068 2268.32,713.068 2269.62,713.067 2270.92,713.066 2272.22,713.065 2273.52,713.064 2274.82,713.063 2276.12,713.062 2277.41,713.061 2278.71,713.059 2280.01,713.058 2281.31,713.057 2282.61,713.056 2283.91,713.055 2285.21,713.054 2286.51,713.052 2287.81,713.051 2289.11,713.05 2290.4,713.049 2291.7,713.048 2293,713.047 2294.3,713.046 "/>
<polyline clip-path="url(#clip822)" style="stroke:#e26f46; stroke-linecap:round; stroke-linejoin:round; stroke-width:4; stroke-opacity:1; fill:none" points="345.82,1384.24 347.119,1384.22 348.418,1384.15 349.717,1384.04 351.016,1383.88 352.315,1383.68 353.614,1383.43 354.913,1383.14 356.212,1382.8 357.511,1382.42 358.81,1382 360.109,1381.53 361.408,1381.01 362.707,1380.46 364.006,1379.85 365.305,1379.2 366.604,1378.51 367.903,1377.78 369.202,1377 370.501,1376.17 371.8,1375.3 373.099,1374.39 374.398,1373.43 375.697,1372.43 376.996,1371.39 378.295,1370.3 379.594,1369.17 380.893,1368 382.192,1366.78 383.491,1365.52 384.79,1364.22 386.089,1362.87 387.388,1361.48 388.687,1360.05 389.986,1358.58 391.285,1357.06 392.584,1355.5 393.883,1353.9 395.182,1352.26 396.481,1350.58 397.78,1348.85 399.079,1347.09 400.378,1345.28 401.677,1343.43 402.976,1341.54 404.275,1339.61 405.574,1337.64 406.873,1335.63 408.172,1333.58 409.471,1331.49 410.77,1329.36 412.069,1327.19 413.368,1324.98 414.667,1322.74 415.966,1320.45 417.265,1318.13 418.564,1315.77 419.863,1313.37 421.162,1310.93 422.461,1308.45 423.76,1305.94 425.059,1303.39 426.358,1300.8 427.657,1298.18 428.956,1295.52 430.255,1292.83 431.554,1290.09 432.852,1287.33 434.151,1284.53 435.45,1281.69 436.749,1278.82 438.048,1275.91 439.347,1272.98 440.646,1270 441.945,1267 443.244,1263.96 444.543,1260.88 445.842,1257.78 447.141,1254.64 448.44,1251.47 449.739,1248.27 451.038,1245.04 452.337,1241.78 453.636,1238.48 454.935,1235.16 456.234,1231.8 457.533,1228.42 458.832,1225.01 460.131,1221.57 461.43,1218.1 462.729,1214.6 464.028,1211.07 465.327,1207.51 466.626,1203.93 467.925,1200.32 469.224,1196.69 470.523,1193.03 471.822,1189.34 473.121,1185.63 474.42,1181.89 475.719,1178.13 477.018,1174.34 478.317,1170.53 479.616,1166.69 480.915,1162.84 482.214,1158.96 483.513,1155.05 484.812,1151.13 486.111,1147.18 487.41,1143.21 488.709,1139.22 490.008,1135.21 491.307,1131.18 492.606,1127.13 493.905,1123.06 495.204,1118.97 496.503,1114.87 497.802,1110.74 499.101,1106.6 500.4,1102.44 501.699,1098.26 502.998,1094.07 504.297,1089.86 505.596,1085.63 506.895,1081.39 508.194,1077.13 509.493,1072.86 510.792,1068.58 512.091,1064.28 513.39,1059.97 514.689,1055.64 515.988,1051.31 517.287,1046.96 518.586,1042.6 519.885,1038.23 521.184,1033.84 522.483,1029.45 523.782,1025.05 525.081,1020.64 526.38,1016.21 527.679,1011.78 528.978,1007.35 530.277,1002.9 531.576,998.446 532.875,993.985 534.174,989.518 535.473,985.045 536.771,980.566 538.07,976.082 539.369,971.593 540.668,967.1 541.967,962.603 543.266,958.102 544.565,953.598 545.864,949.091 547.163,944.582 548.462,940.072 549.761,935.56 551.06,931.047 552.359,926.533 553.658,922.019 554.957,917.506 556.256,912.993 557.555,908.481 558.854,903.971 560.153,899.463 561.452,894.958 562.751,890.455 564.05,885.955 565.349,881.46 566.648,876.968 567.947,872.481 569.246,867.998 570.545,863.521 571.844,859.05 573.143,854.585 574.442,850.126 575.741,845.675 577.04,841.231 578.339,836.795 579.638,832.367 580.937,827.947 582.236,823.537 583.535,819.136 584.834,814.745 586.133,810.364 587.432,805.994 588.731,801.635 590.03,797.288 591.329,792.952 592.628,788.628 593.927,784.317 595.226,780.02 596.525,775.735 597.824,771.464 599.123,767.208 600.422,762.966 601.721,758.739 603.02,754.527 604.319,750.331 605.618,746.151 606.917,741.987 608.216,737.841 609.515,733.711 610.814,729.599 612.113,725.505 613.412,721.429 614.711,717.372 616.01,713.334 617.309,709.315 618.608,705.316 619.907,701.336 621.206,697.378 622.505,693.439 623.804,689.522 625.103,685.627 626.402,681.753 627.701,677.901 629,674.071 630.299,670.265 631.598,666.481 632.897,662.721 634.196,658.984 635.495,655.271 636.794,651.583 638.093,647.919 639.391,644.28 640.69,640.667 641.989,637.079 643.288,633.516 644.587,629.98 645.886,626.471 647.185,622.988 648.484,619.532 649.783,616.103 651.082,612.702 652.381,609.328 653.68,605.983 654.979,602.666 656.278,599.378 657.577,596.118 658.876,592.888 660.175,589.687 661.474,586.516 662.773,583.375 664.072,580.263 665.371,577.182 666.67,574.132 667.969,571.113 669.268,568.124 670.567,565.167 671.866,562.242 673.165,559.348 674.464,556.486 675.763,553.657 677.062,550.859 678.361,548.095 679.66,545.363 680.959,542.664 682.258,539.998 683.557,537.365 684.856,534.766 686.155,532.201 687.454,529.67 688.753,527.172 690.052,524.709 691.351,522.281 692.65,519.886 693.949,517.527 695.248,515.202 696.547,512.913 697.846,510.658 699.145,508.439 700.444,506.255 701.743,504.107 703.042,501.995 704.341,499.918 705.64,497.877 706.939,495.872 708.238,493.904 709.537,491.972 710.836,490.076 712.135,488.216 713.434,486.393 714.733,484.607 716.032,482.858 717.331,481.145 718.63,479.469 719.929,477.83 721.228,476.228 722.527,474.664 723.826,473.136 725.125,471.646 726.424,470.193 727.723,468.777 729.022,467.399 730.321,466.058 731.62,464.755 732.919,463.489 734.218,462.261 735.517,461.07 736.816,459.917 738.115,458.801 739.414,457.723 740.713,456.682 742.012,455.68 743.31,454.714 744.609,453.787 745.908,452.897 747.207,452.044 748.506,451.229 749.805,450.452 751.104,449.712 752.403,449.01 753.702,448.345 755.001,447.717 756.3,447.127 757.599,446.574 758.898,446.059 760.197,445.58 761.496,445.139 762.795,444.735 764.094,444.368 765.393,444.038 766.692,443.745 767.991,443.489 769.29,443.269 770.589,443.086 771.888,442.94 773.187,442.83 774.486,442.757 775.785,442.719 777.084,442.718 778.383,442.753 779.682,442.824 780.981,442.931 782.28,443.073 783.579,443.252 784.878,443.465 786.177,443.714 787.476,443.998 788.775,444.317 790.074,444.671 791.373,445.06 792.672,445.483 793.971,445.941 795.27,446.433 796.569,446.96 797.868,447.52 799.167,448.114 800.466,448.742 801.765,449.403 803.064,450.097 804.363,450.825 805.662,451.585 806.961,452.379 808.26,453.204 809.559,454.062 810.858,454.953 812.157,455.875 813.456,456.829 814.755,457.814 816.054,458.831 817.353,459.879 818.652,460.958 819.951,462.067 821.25,463.207 822.549,464.377 823.848,465.577 825.147,466.807 826.446,468.067 827.745,469.355 829.044,470.673 830.343,472.019 831.642,473.394 832.941,474.798 834.24,476.229 835.539,477.688 836.838,479.175 838.137,480.689 839.436,482.23 840.735,483.798 842.034,485.392 843.333,487.012 844.632,488.659 845.93,490.331 847.229,492.028 848.528,493.75 849.827,495.498 851.126,497.269 852.425,499.065 853.724,500.885 855.023,502.729 856.322,504.596 857.621,506.486 858.92,508.399 860.219,510.334 861.518,512.292 862.817,514.271 864.116,516.272 865.415,518.294 866.714,520.315 868.013,522.315 869.312,524.293 870.611,526.25 871.91,528.185 873.209,530.099 874.508,531.993 875.807,533.866 877.106,535.719 878.405,537.552 879.704,539.365 881.003,541.158 882.302,542.932 883.601,544.687 884.9,546.422 886.199,548.139 887.498,549.838 888.797,551.518 890.096,553.18 891.395,554.824 892.694,556.45 893.993,558.058 895.292,559.649 896.591,561.223 897.89,562.78 899.189,564.321 900.488,565.844 901.787,567.351 903.086,568.842 904.385,570.317 905.684,571.775 906.983,573.218 908.282,574.646 909.581,576.058 910.88,577.454 912.179,578.836 913.478,580.203 914.777,581.554 916.076,582.892 917.375,584.215 918.674,585.523 919.973,586.818 921.272,588.098 922.571,589.365 923.87,590.618 925.169,591.857 926.468,593.083 927.767,594.296 929.066,595.496 930.365,596.682 931.664,597.856 932.963,599.017 934.262,600.166 935.561,601.302 936.86,602.426 938.159,603.538 939.458,604.638 940.757,605.725 942.056,606.801 943.355,607.866 944.654,608.919 945.953,609.96 947.252,610.99 948.551,612.009 949.849,613.017 951.148,614.014 952.447,615.001 953.746,615.976 955.045,616.941 956.344,617.895 957.643,618.84 958.942,619.773 960.241,620.697 961.54,621.611 962.839,622.514 964.138,623.408 965.437,624.292 966.736,625.167 968.035,626.032 969.334,626.887 970.633,627.734 971.932,628.571 973.231,629.399 974.53,630.217 975.829,631.027 977.128,631.828 978.427,632.621 979.726,633.404 981.025,634.179 982.324,634.946 983.623,635.704 984.922,636.454 986.221,637.195 987.52,637.928 988.819,638.654 990.118,639.371 991.417,640.081 992.716,640.782 994.015,641.476 995.314,642.162 996.613,642.841 997.912,643.512 999.211,644.176 1000.51,644.832 1001.81,645.481 1003.11,646.123 1004.41,646.758 1005.71,647.386 1007,648.007 1008.3,648.62 1009.6,649.227 1010.9,649.827 1012.2,650.421 1013.5,651.008 1014.8,651.588 1016.1,652.162 1017.4,652.729 1018.7,653.29 1019.99,653.845 1021.29,654.393 1022.59,654.935 1023.89,655.471 1025.19,656.001 1026.49,656.525 1027.79,657.043 1029.09,657.555 1030.39,658.061 1031.69,658.562 1032.98,659.056 1034.28,659.546 1035.58,660.029 1036.88,660.507 1038.18,660.979 1039.48,661.446 1040.78,661.908 1042.08,662.364 1043.38,662.815 1044.68,663.261 1045.97,663.701 1047.27,664.137 1048.57,664.567 1049.87,664.992 1051.17,665.413 1052.47,665.828 1053.77,666.238 1055.07,666.644 1056.37,667.045 1057.67,667.441 1058.96,667.832 1060.26,668.219 1061.56,668.601 1062.86,668.978 1064.16,669.351 1065.46,669.719 1066.76,670.083 1068.06,670.442 1069.36,670.798 1070.66,671.148 1071.95,671.495 1073.25,671.837 1074.55,672.175 1075.85,672.509 1077.15,672.838 1078.45,673.164 1079.75,673.485 1081.05,673.803 1082.35,674.116 1083.65,674.426 1084.94,674.731 1086.24,675.033 1087.54,675.331 1088.84,675.625 1090.14,675.915 1091.44,676.201 1092.74,676.484 1094.04,676.763 1095.34,677.038 1096.64,677.31 1097.93,677.578 1099.23,677.843 1100.53,678.104 1101.83,678.361 1103.13,678.615 1104.43,678.866 1105.73,679.113 1107.03,679.357 1108.33,679.597 1109.62,679.834 1110.92,680.068 1112.22,680.298 1113.52,680.525 1114.82,680.749 1116.12,680.97 1117.42,681.188 1118.72,681.402 1120.02,681.613 1121.32,681.821 1122.61,682.026 1123.91,682.229 1125.21,682.428 1126.51,682.623 1127.81,682.816 1129.11,683.006 1130.41,683.194 1131.71,683.378 1133.01,683.559 1134.31,683.737 1135.6,683.913 1136.9,684.086 1138.2,684.255 1139.5,684.422 1140.8,684.587 1142.1,684.748 1143.4,684.907 1144.7,685.063 1146,685.216 1147.3,685.367 1148.59,685.515 1149.89,685.66 1151.19,685.803 1152.49,685.943 1153.79,686.081 1155.09,686.216 1156.39,686.348 1157.69,686.478 1158.99,686.605 1160.29,686.73 1161.58,686.852 1162.88,686.972 1164.18,687.089 1165.48,687.204 1166.78,687.316 1168.08,687.426 1169.38,687.534 1170.68,687.639 1171.98,687.742 1173.28,687.842 1174.57,687.94 1175.87,688.036 1177.17,688.129 1178.47,688.22 1179.77,688.309 1181.07,688.395 1182.37,688.479 1183.67,688.561 1184.97,688.64 1186.27,688.718 1187.56,688.793 1188.86,688.865 1190.16,688.936 1191.46,689.004 1192.76,689.07 1194.06,689.134 1195.36,689.196 1196.66,689.256 1197.96,689.313 1199.26,689.368 1200.55,689.421 1201.85,689.472 1203.15,689.521 1204.45,689.568 1205.75,689.612 1207.05,689.655 1208.35,689.695 1209.65,689.733 1210.95,689.769 1212.24,689.803 1213.54,689.835 1214.84,689.865 1216.14,689.893 1217.44,689.918 1218.74,689.942 1220.04,689.964 1221.34,689.983 1222.64,690.001 1223.94,690.016 1225.23,690.029 1226.53,690.041 1227.83,690.05 1229.13,690.057 1230.43,690.063 1231.73,690.066 1233.03,690.067 1234.33,690.067 1235.63,690.064 1236.93,690.059 1238.22,690.052 1239.52,690.043 1240.82,690.033 1242.12,690.02 1243.42,690.005 1244.72,689.988 1246.02,689.97 1247.32,689.949 1248.62,689.926 1249.92,689.902 1251.21,689.875 1252.51,689.846 1253.81,689.815 1255.11,689.783 1256.41,689.75 1257.71,689.72 1259.01,689.691 1260.31,689.665 1261.61,689.641 1262.91,689.619 1264.2,689.599 1265.5,689.581 1266.8,689.566 1268.1,689.552 1269.4,689.541 1270.7,689.531 1272,689.524 1273.3,689.519 1274.6,689.516 1275.9,689.515 1277.19,689.516 1278.49,689.519 1279.79,689.524 1281.09,689.532 1282.39,689.541 1283.69,689.553 1284.99,689.566 1286.29,689.582 1287.59,689.6 1288.89,689.62 1290.18,689.641 1291.48,689.665 1292.78,689.691 1294.08,689.719 1295.38,689.749 1296.68,689.781 1297.98,689.816 1299.28,689.852 1300.58,689.89 1301.88,689.93 1303.17,689.972 1304.47,690.016 1305.77,690.062 1307.07,690.11 1308.37,690.16 1309.67,690.212 1310.97,690.266 1312.27,690.322 1313.57,690.38 1314.86,690.44 1316.16,690.502 1317.46,690.566 1318.76,690.631 1320.06,690.699 1321.36,690.768 1322.66,690.839 1323.96,690.913 1325.26,690.988 1326.56,691.065 1327.85,691.143 1329.15,691.224 1330.45,691.306 1331.75,691.391 1333.05,691.477 1334.35,691.565 1335.65,691.654 1336.95,691.746 1338.25,691.839 1339.55,691.934 1340.84,692.031 1342.14,692.129 1343.44,692.229 1344.74,692.331 1346.04,692.435 1347.34,692.54 1348.64,692.648 1349.94,692.756 1351.24,692.867 1352.54,692.979 1353.83,693.092 1355.13,693.208 1356.43,693.325 1357.73,693.443 1359.03,693.563 1360.33,693.685 1361.63,693.808 1362.93,693.933 1364.23,694.06 1365.53,694.188 1366.82,694.317 1368.12,694.448 1369.42,694.58 1370.72,694.714 1372.02,694.85 1373.32,694.986 1374.62,695.125 1375.92,695.264 1377.22,695.405 1378.52,695.548 1379.81,695.692 1381.11,695.837 1382.41,695.983 1383.71,696.131 1385.01,696.28 1386.31,696.431 1387.61,696.583 1388.91,696.736 1390.21,696.89 1391.51,697.046 1392.8,697.203 1394.1,697.361 1395.4,697.52 1396.7,697.68 1398,697.842 1399.3,698.005 1400.6,698.169 1401.9,698.334 1403.2,698.5 1404.5,698.667 1405.79,698.835 1407.09,699.005 1408.39,699.175 1409.69,699.346 1410.99,699.519 1412.29,699.692 1413.59,699.867 1414.89,700.042 1416.19,700.218 1417.48,700.396 1418.78,700.574 1420.08,700.753 1421.38,700.933 1422.68,701.114 1423.98,701.295 1425.28,701.478 1426.58,701.661 1427.88,701.845 1429.18,702.03 1430.47,702.216 1431.77,702.402 1433.07,702.589 1434.37,702.777 1435.67,702.965 1436.97,703.154 1438.27,703.344 1439.57,703.535 1440.87,703.726 1442.17,703.918 1443.46,704.11 1444.76,704.303 1446.06,704.496 1447.36,704.69 1448.66,704.884 1449.96,705.079 1451.26,705.275 1452.56,705.471 1453.86,705.667 1455.16,705.864 1456.45,706.061 1457.75,706.259 1459.05,706.457 1460.35,706.655 1461.65,706.854 1462.95,707.053 1464.25,707.252 1465.55,707.451 1466.85,707.651 1468.15,707.851 1469.44,708.052 1470.74,708.252 1472.04,708.453 1473.34,708.654 1474.64,708.855 1475.94,709.056 1477.24,709.258 1478.54,709.459 1479.84,709.661 1481.14,709.862 1482.43,710.064 1483.73,710.266 1485.03,710.467 1486.33,710.669 1487.63,710.871 1488.93,711.073 1490.23,711.274 1491.53,711.476 1492.83,711.677 1494.13,711.879 1495.42,712.08 1496.72,712.281 1498.02,712.482 1499.32,712.683 1500.62,712.884 1501.92,713.084 1503.22,713.284 1504.52,713.484 1505.82,713.684 1507.12,713.883 1508.41,714.082 1509.71,714.281 1511.01,714.48 1512.31,714.678 1513.61,714.875 1514.91,715.073 1516.21,715.27 1517.51,715.466 1518.81,715.663 1520.1,715.858 1521.4,716.053 1522.7,716.248 1524,716.442 1525.3,716.636 1526.6,716.829 1527.9,717.022 1529.2,717.214 1530.5,717.406 1531.8,717.597 1533.09,717.787 1534.39,717.977 1535.69,718.166 1536.99,718.354 1538.29,718.542 1539.59,718.729 1540.89,718.915 1542.19,719.101 1543.49,719.286 1544.79,719.47 1546.08,719.653 1547.38,719.836 1548.68,720.018 1549.98,720.199 1551.28,720.379 1552.58,720.558 1553.88,720.736 1555.18,720.914 1556.48,721.091 1557.78,721.266 1559.07,721.441 1560.37,721.615 1561.67,721.788 1562.97,721.96 1564.27,722.131 1565.57,722.301 1566.87,722.47 1568.17,722.638 1569.47,722.805 1570.77,722.971 1572.06,723.136 1573.36,723.3 1574.66,723.463 1575.96,723.625 1577.26,723.785 1578.56,723.945 1579.86,724.103 1581.16,724.26 1582.46,724.416 1583.76,724.571 1585.05,724.725 1586.35,724.877 1587.65,725.028 1588.95,725.178 1590.25,725.327 1591.55,725.475 1592.85,725.621 1594.15,725.766 1595.45,725.91 1596.75,726.052 1598.04,726.193 1599.34,726.333 1600.64,726.472 1601.94,726.609 1603.24,726.745 1604.54,726.879 1605.84,727.012 1607.14,727.144 1608.44,727.274 1609.74,727.403 1611.03,727.531 1612.33,727.657 1613.63,727.782 1614.93,727.905 1616.23,728.027 1617.53,728.147 1618.83,728.266 1620.13,728.383 1621.43,728.499 1622.72,728.614 1624.02,728.727 1625.32,728.838 1626.62,728.948 1627.92,729.057 1629.22,729.163 1630.52,729.269 1631.82,729.373 1633.12,729.475 1634.42,729.576 1635.71,729.675 1637.01,729.772 1638.31,729.868 1639.61,729.962 1640.91,730.055 1642.21,730.146 1643.51,730.236 1644.81,730.324 1646.11,730.41 1647.41,730.495 1648.7,730.578 1650,730.659 1651.3,730.739 1652.6,730.817 1653.9,730.894 1655.2,730.968 1656.5,731.042 1657.8,731.113 1659.1,731.183 1660.4,731.251 1661.69,731.317 1662.99,731.382 1664.29,731.445 1665.59,731.506 1666.89,731.566 1668.19,731.624 1669.49,731.68 1670.79,731.735 1672.09,731.787 1673.39,731.839 1674.68,731.888 1675.98,731.936 1677.28,731.981 1678.58,732.026 1679.88,732.068 1681.18,732.109 1682.48,732.148 1683.78,732.185 1685.08,732.221 1686.38,732.254 1687.67,732.286 1688.97,732.317 1690.27,732.345 1691.57,732.372 1692.87,732.397 1694.17,732.42 1695.47,732.442 1696.77,732.462 1698.07,732.48 1699.37,732.496 1700.66,732.511 1701.96,732.524 1703.26,732.535 1704.56,732.544 1705.86,732.552 1707.16,732.558 1708.46,732.562 1709.76,732.564 1711.06,732.565 1712.36,732.564 1713.65,732.561 1714.95,732.557 1716.25,732.55 1717.55,732.542 1718.85,732.533 1720.15,732.521 1721.45,732.508 1722.75,732.493 1724.05,732.476 1725.34,732.458 1726.64,732.438 1727.94,732.416 1729.24,732.393 1730.54,732.368 1731.84,732.341 1733.14,732.313 1734.44,732.282 1735.74,732.25 1737.04,732.217 1738.33,732.182 1739.63,732.145 1740.93,732.106 1742.23,732.066 1743.53,732.024 1744.83,731.981 1746.13,731.935 1747.43,731.889 1748.73,731.84 1750.03,731.79 1751.32,731.738 1752.62,731.685 1753.92,731.63 1755.22,731.574 1756.52,731.515 1757.82,731.456 1759.12,731.394 1760.42,731.332 1761.72,731.267 1763.02,731.201 1764.31,731.134 1765.61,731.065 1766.91,730.994 1768.21,730.922 1769.51,730.848 1770.81,730.773 1772.11,730.696 1773.41,730.618 1774.71,730.538 1776.01,730.457 1777.3,730.374 1778.6,730.29 1779.9,730.205 1781.2,730.118 1782.5,730.029 1783.8,729.939 1785.1,729.848 1786.4,729.755 1787.7,729.661 1789,729.565 1790.29,729.468 1791.59,729.37 1792.89,729.27 1794.19,729.169 1795.49,729.067 1796.79,728.963 1798.09,728.858 1799.39,728.752 1800.69,728.644 1801.99,728.535 1803.28,728.425 1804.58,728.314 1805.88,728.201 1807.18,728.087 1808.48,727.971 1809.78,727.855 1811.08,727.737 1812.38,727.618 1813.68,727.498 1814.98,727.377 1816.27,727.255 1817.57,727.131 1818.87,727.006 1820.17,726.88 1821.47,726.753 1822.77,726.625 1824.07,726.496 1825.37,726.366 1826.67,726.235 1827.96,726.102 1829.26,725.969 1830.56,725.834 1831.86,725.699 1833.16,725.562 1834.46,725.425 1835.76,725.286 1837.06,725.147 1838.36,725.006 1839.66,724.865 1840.95,724.722 1842.25,724.579 1843.55,724.435 1844.85,724.29 1846.15,724.144 1847.45,723.997 1848.75,723.85 1850.05,723.701 1851.35,723.552 1852.65,723.402 1853.94,723.251 1855.24,723.1 1856.54,722.947 1857.84,722.794 1859.14,722.64 1860.44,722.485 1861.74,722.33 1863.04,722.174 1864.34,722.017 1865.64,721.86 1866.93,721.702 1868.23,721.543 1869.53,721.384 1870.83,721.224 1872.13,721.064 1873.43,720.903 1874.73,720.741 1876.03,720.579 1877.33,720.416 1878.63,720.253 1879.92,720.089 1881.22,719.925 1882.52,719.76 1883.82,719.595 1885.12,719.429 1886.42,719.263 1887.72,719.097 1889.02,718.93 1890.32,718.763 1891.62,718.595 1892.91,718.427 1894.21,718.259 1895.51,718.09 1896.81,717.921 1898.11,717.752 1899.41,717.582 1900.71,717.413 1902.01,717.243 1903.31,717.072 1904.61,716.902 1905.9,716.731 1907.2,716.56 1908.5,716.389 1909.8,716.218 1911.1,716.046 1912.4,715.875 1913.7,715.703 1915,715.531 1916.3,715.36 1917.6,715.188 1918.89,715.016 1920.19,714.844 1921.49,714.672 1922.79,714.5 1924.09,714.328 1925.39,714.156 1926.69,713.984 1927.99,713.813 1929.29,713.641 1930.58,713.47 1931.88,713.299 1933.18,713.128 1934.48,712.958 1935.78,712.788 1937.08,712.618 1938.38,712.449 1939.68,712.28 1940.98,712.112 1942.28,711.945 1943.57,711.778 1944.87,711.611 1946.17,711.446 1947.47,711.281 1948.77,711.117 1950.07,710.953 1951.37,710.791 1952.67,710.63 1953.97,710.469 1955.27,710.31 1956.56,710.152 1957.86,709.995 1959.16,709.839 1960.46,709.685 1961.76,709.532 1963.06,709.38 1964.36,709.23 1965.66,709.081 1966.96,708.934 1968.26,708.788 1969.55,708.645 1970.85,708.503 1972.15,708.362 1973.45,708.224 1974.75,708.088 1976.05,707.953 1977.35,707.821 1978.65,707.691 1979.95,707.563 1981.25,707.437 1982.54,707.314 1983.84,707.192 1985.14,707.074 1986.44,706.958 1987.74,706.844 1989.04,706.733 1990.34,706.624 1991.64,706.518 1992.94,706.415 1994.24,706.315 1995.53,706.217 1996.83,706.123 1998.13,706.031 1999.43,705.942 2000.73,705.857 2002.03,705.774 2003.33,705.695 2004.63,705.618 2005.93,705.545 2007.23,705.475 2008.52,705.408 2009.82,705.345 2011.12,705.285 2012.42,705.228 2013.72,705.174 2015.02,705.124 2016.32,705.078 2017.62,705.034 2018.92,704.994 2020.22,704.958 2021.51,704.925 2022.81,704.896 2024.11,704.87 2025.41,704.847 2026.71,704.828 2028.01,704.813 2029.31,704.801 2030.61,704.792 2031.91,704.787 2033.2,704.785 2034.5,704.787 2035.8,704.792 2037.1,704.8 2038.4,704.812 2039.7,704.827 2041,704.845 2042.3,704.867 2043.6,704.892 2044.9,704.92 2046.19,704.951 2047.49,704.986 2048.79,705.023 2050.09,705.064 2051.39,705.107 2052.69,705.153 2053.99,705.202 2055.29,705.254 2056.59,705.309 2057.89,705.366 2059.18,705.426 2060.48,705.489 2061.78,705.554 2063.08,705.621 2064.38,705.691 2065.68,705.763 2066.98,705.837 2068.28,705.913 2069.58,705.991 2070.88,706.072 2072.17,706.154 2073.47,706.237 2074.77,706.323 2076.07,706.41 2077.37,706.499 2078.67,706.589 2079.97,706.68 2081.27,706.773 2082.57,706.867 2083.87,706.962 2085.16,707.058 2086.46,707.155 2087.76,707.253 2089.06,707.351 2090.36,707.451 2091.66,707.55 2092.96,707.651 2094.26,707.751 2095.56,707.852 2096.86,707.954 2098.15,708.055 2099.45,708.157 2100.75,708.258 2102.05,708.36 2103.35,708.461 2104.65,708.562 2105.95,708.662 2107.25,708.763 2108.55,708.863 2109.85,708.962 2111.14,709.061 2112.44,709.159 2113.74,709.256 2115.04,709.353 2116.34,709.449 2117.64,709.544 2118.94,709.638 2120.24,709.731 2121.54,709.823 2122.84,709.913 2124.13,710.003 2125.43,710.092 2126.73,710.179 2128.03,710.265 2129.33,710.35 2130.63,710.433 2131.93,710.515 2133.23,710.596 2134.53,710.675 2135.83,710.753 2137.12,710.829 2138.42,710.904 2139.72,710.977 2141.02,711.049 2142.32,711.119 2143.62,711.188 2144.92,711.255 2146.22,711.321 2147.52,711.385 2148.81,711.447 2150.11,711.508 2151.41,711.568 2152.71,711.626 2154.01,711.682 2155.31,711.737 2156.61,711.79 2157.91,711.842 2159.21,711.892 2160.51,711.94 2161.8,711.988 2163.1,712.033 2164.4,712.078 2165.7,712.121 2167,712.162 2168.3,712.202 2169.6,712.241 2170.9,712.278 2172.2,712.315 2173.5,712.349 2174.79,712.383 2176.09,712.415 2177.39,712.446 2178.69,712.476 2179.99,712.505 2181.29,712.532 2182.59,712.559 2183.89,712.584 2185.19,712.608 2186.49,712.632 2187.78,712.654 2189.08,712.675 2190.38,712.696 2191.68,712.715 2192.98,712.734 2194.28,712.751 2195.58,712.768 2196.88,712.784 2198.18,712.8 2199.48,712.814 2200.77,712.828 2202.07,712.841 2203.37,712.854 2204.67,712.866 2205.97,712.877 2207.27,712.888 2208.57,712.898 2209.87,712.907 2211.17,712.916 2212.47,712.925 2213.76,712.933 2215.06,712.941 2216.36,712.948 2217.66,712.954 2218.96,712.961 2220.26,712.967 2221.56,712.972 2222.86,712.978 2224.16,712.983 2225.46,712.987 2226.75,712.991 2228.05,712.996 2229.35,712.999 2230.65,713.003 2231.95,713.006 2233.25,713.009 2234.55,713.012 2235.85,713.015 2237.15,713.017 2238.45,713.02 2239.74,713.022 2241.04,713.024 2242.34,713.026 2243.64,713.027 2244.94,713.029 2246.24,713.03 2247.54,713.032 2248.84,713.033 2250.14,713.034 2251.43,713.035 2252.73,713.036 2254.03,713.037 2255.33,713.038 2256.63,713.039 2257.93,713.039 2259.23,713.04 2260.53,713.041 2261.83,713.041 2263.13,713.042 2264.42,713.042 2265.72,713.042 2267.02,713.043 2268.32,713.043 2269.62,713.043 2270.92,713.044 2272.22,713.044 2273.52,713.044 2274.82,713.044 2276.12,713.045 2277.41,713.045 2278.71,713.045 2280.01,713.045 2281.31,713.045 2282.61,713.045 2283.91,713.045 2285.21,713.045 2286.51,713.046 2287.81,713.046 2289.11,713.046 2290.4,713.046 2291.7,713.046 2293,713.046 2294.3,713.046 "/>
<path clip-path="url(#clip820)" d="M1971.07 248.629 L2283.91 248.629 L2283.91 93.1086 L1971.07 93.1086  Z" fill="#ffffff" fill-rule="evenodd" fill-opacity="1"/>
<polyline clip-path="url(#clip820)" style="stroke:#000000; stroke-linecap:round; stroke-linejoin:round; stroke-width:4; stroke-opacity:1; fill:none" points="1971.07,248.629 2283.91,248.629 2283.91,93.1086 1971.07,93.1086 1971.07,248.629 "/>
<polyline clip-path="url(#clip820)" style="stroke:#009af9; stroke-linecap:round; stroke-linejoin:round; stroke-width:4; stroke-opacity:1; fill:none" points="1994.02,144.949 2131.72,144.949 "/>
<path clip-path="url(#clip820)" d="M2154.67 127.669 L2159.34 127.669 L2159.34 158.293 L2176.17 158.293 L2176.17 162.229 L2154.67 162.229 L2154.67 127.669 Z" fill="#000000" fill-rule="nonzero" fill-opacity="1" /><path clip-path="url(#clip820)" d="M2185.75 131.511 L2185.75 144.497 L2191.63 144.497 Q2194.9 144.497 2196.68 142.807 Q2198.46 141.118 2198.46 137.993 Q2198.46 134.891 2196.68 133.201 Q2194.9 131.511 2191.63 131.511 L2185.75 131.511 M2181.08 127.669 L2191.63 127.669 Q2197.44 127.669 2200.41 130.307 Q2203.39 132.923 2203.39 137.993 Q2203.39 143.108 2200.41 145.724 Q2197.44 148.34 2191.63 148.34 L2185.75 148.34 L2185.75 162.229 L2181.08 162.229 L2181.08 127.669 Z" fill="#000000" fill-rule="nonzero" fill-opacity="1" /><path clip-path="url(#clip820)" d="M2220.08 130.747 Q2216.47 130.747 2214.64 134.312 Q2212.84 137.854 2212.84 144.983 Q2212.84 152.09 2214.64 155.655 Q2216.47 159.196 2220.08 159.196 Q2223.72 159.196 2225.52 155.655 Q2227.35 152.09 2227.35 144.983 Q2227.35 137.854 2225.52 134.312 Q2223.72 130.747 2220.08 130.747 M2220.08 127.044 Q2225.89 127.044 2228.95 131.65 Q2232.03 136.233 2232.03 144.983 Q2232.03 153.71 2228.95 158.317 Q2225.89 162.9 2220.08 162.9 Q2214.27 162.9 2211.19 158.317 Q2208.14 153.71 2208.14 144.983 Q2208.14 136.233 2211.19 131.65 Q2214.27 127.044 2220.08 127.044 Z" fill="#000000" fill-rule="nonzero" fill-opacity="1" /><path clip-path="url(#clip820)" d="M2241.05 158.293 L2248.69 158.293 L2248.69 131.928 L2240.38 133.595 L2240.38 129.335 L2248.65 127.669 L2253.32 127.669 L2253.32 158.293 L2260.96 158.293 L2260.96 162.229 L2241.05 162.229 L2241.05 158.293 Z" fill="#000000" fill-rule="nonzero" fill-opacity="1" /><polyline clip-path="url(#clip820)" style="stroke:#e26f46; stroke-linecap:round; stroke-linejoin:round; stroke-width:4; stroke-opacity:1; fill:none" points="1994.02,196.789 2131.72,196.789 "/>
<path clip-path="url(#clip820)" d="M2154.67 179.509 L2159.34 179.509 L2159.34 210.133 L2176.17 210.133 L2176.17 214.069 L2154.67 214.069 L2154.67 179.509 Z" fill="#000000" fill-rule="nonzero" fill-opacity="1" /><path clip-path="url(#clip820)" d="M2185.75 183.351 L2185.75 196.337 L2191.63 196.337 Q2194.9 196.337 2196.68 194.647 Q2198.46 192.958 2198.46 189.833 Q2198.46 186.731 2196.68 185.041 Q2194.9 183.351 2191.63 183.351 L2185.75 183.351 M2181.08 179.509 L2191.63 179.509 Q2197.44 179.509 2200.41 182.147 Q2203.39 184.763 2203.39 189.833 Q2203.39 194.948 2200.41 197.564 Q2197.44 200.18 2191.63 200.18 L2185.75 200.18 L2185.75 214.069 L2181.08 214.069 L2181.08 179.509 Z" fill="#000000" fill-rule="nonzero" fill-opacity="1" /><path clip-path="url(#clip820)" d="M2220.08 182.587 Q2216.47 182.587 2214.64 186.152 Q2212.84 189.694 2212.84 196.823 Q2212.84 203.93 2214.64 207.495 Q2216.47 211.036 2220.08 211.036 Q2223.72 211.036 2225.52 207.495 Q2227.35 203.93 2227.35 196.823 Q2227.35 189.694 2225.52 186.152 Q2223.72 182.587 2220.08 182.587 M2220.08 178.884 Q2225.89 178.884 2228.95 183.49 Q2232.03 188.073 2232.03 196.823 Q2232.03 205.55 2228.95 210.157 Q2225.89 214.74 2220.08 214.74 Q2214.27 214.74 2211.19 210.157 Q2208.14 205.55 2208.14 196.823 Q2208.14 188.073 2211.19 183.49 Q2214.27 178.884 2220.08 178.884 Z" fill="#000000" fill-rule="nonzero" fill-opacity="1" /><path clip-path="url(#clip820)" d="M2244.27 210.133 L2260.59 210.133 L2260.59 214.069 L2238.65 214.069 L2238.65 210.133 Q2241.31 207.379 2245.89 202.749 Q2250.5 198.096 2251.68 196.754 Q2253.92 194.231 2254.8 192.495 Q2255.71 190.735 2255.71 189.046 Q2255.71 186.291 2253.76 184.555 Q2251.84 182.819 2248.74 182.819 Q2246.54 182.819 2244.09 183.583 Q2241.66 184.347 2238.88 185.897 L2238.88 181.175 Q2241.7 180.041 2244.16 179.462 Q2246.61 178.884 2248.65 178.884 Q2254.02 178.884 2257.21 181.569 Q2260.41 184.254 2260.41 188.745 Q2260.41 190.874 2259.6 192.796 Q2258.81 194.694 2256.7 197.286 Q2256.12 197.958 2253.02 201.175 Q2249.92 204.37 2244.27 210.133 Z" fill="#000000" fill-rule="nonzero" fill-opacity="1" /></svg>
