<?xml version="1.0" encoding="utf-8"?>
<svg xmlns="http://www.w3.org/2000/svg" xmlns:xlink="http://www.w3.org/1999/xlink" width="600" height="400" viewBox="0 0 2400 1600">
<defs>
  <clipPath id="clip950">
    <rect x="0" y="0" width="2400" height="1600"/>
  </clipPath>
</defs>
<path clip-path="url(#clip950)" d="M0 1600 L2400 1600 L2400 0 L0 0  Z" fill="#ffffff" fill-rule="evenodd" fill-opacity="1"/>
<defs>
  <clipPath id="clip951">
    <rect x="480" y="0" width="1681" height="1600"/>
  </clipPath>
</defs>
<path clip-path="url(#clip950)" d="M202.714 1423.18 L2197.77 1423.18 L2197.77 47.2441 L202.714 47.2441  Z" fill="#ffffff" fill-rule="evenodd" fill-opacity="1"/>
<defs>
  <clipPath id="clip952">
    <rect x="202" y="47" width="1996" height="1377"/>
  </clipPath>
</defs>
<polyline clip-path="url(#clip952)" style="stroke:#000000; stroke-linecap:round; stroke-linejoin:round; stroke-width:2; stroke-opacity:0.1; fill:none" points="259.178,1423.18 259.178,47.2441 "/>
<polyline clip-path="url(#clip952)" style="stroke:#000000; stroke-linecap:round; stroke-linejoin:round; stroke-width:2; stroke-opacity:0.1; fill:none" points="635.604,1423.18 635.604,47.2441 "/>
<polyline clip-path="url(#clip952)" style="stroke:#000000; stroke-linecap:round; stroke-linejoin:round; stroke-width:2; stroke-opacity:0.1; fill:none" points="1012.03,1423.18 1012.03,47.2441 "/>
<polyline clip-path="url(#clip952)" style="stroke:#000000; stroke-linecap:round; stroke-linejoin:round; stroke-width:2; stroke-opacity:0.1; fill:none" points="1388.46,1423.18 1388.46,47.2441 "/>
<polyline clip-path="url(#clip952)" style="stroke:#000000; stroke-linecap:round; stroke-linejoin:round; stroke-width:2; stroke-opacity:0.1; fill:none" points="1764.88,1423.18 1764.88,47.2441 "/>
<polyline clip-path="url(#clip952)" style="stroke:#000000; stroke-linecap:round; stroke-linejoin:round; stroke-width:2; stroke-opacity:0.1; fill:none" points="2141.31,1423.18 2141.31,47.2441 "/>
<polyline clip-path="url(#clip950)" style="stroke:#000000; stroke-linecap:round; stroke-linejoin:round; stroke-width:4; stroke-opacity:1; fill:none" points="202.714,1423.18 2197.77,1423.18 "/>
<polyline clip-path="url(#clip950)" style="stroke:#000000; stroke-linecap:round; stroke-linejoin:round; stroke-width:4; stroke-opacity:1; fill:none" points="259.178,1423.18 259.178,1404.28 "/>
<polyline clip-path="url(#clip950)" style="stroke:#000000; stroke-linecap:round; stroke-linejoin:round; stroke-width:4; stroke-opacity:1; fill:none" points="635.604,1423.18 635.604,1404.28 "/>
<polyline clip-path="url(#clip950)" style="stroke:#000000; stroke-linecap:round; stroke-linejoin:round; stroke-width:4; stroke-opacity:1; fill:none" points="1012.03,1423.18 1012.03,1404.28 "/>
<polyline clip-path="url(#clip950)" style="stroke:#000000; stroke-linecap:round; stroke-linejoin:round; stroke-width:4; stroke-opacity:1; fill:none" points="1388.46,1423.18 1388.46,1404.28 "/>
<polyline clip-path="url(#clip950)" style="stroke:#000000; stroke-linecap:round; stroke-linejoin:round; stroke-width:4; stroke-opacity:1; fill:none" points="1764.88,1423.18 1764.88,1404.28 "/>
<polyline clip-path="url(#clip950)" style="stroke:#000000; stroke-linecap:round; stroke-linejoin:round; stroke-width:4; stroke-opacity:1; fill:none" points="2141.31,1423.18 2141.31,1404.28 "/>
<path clip-path="url(#clip950)" d="M226.33 1481.64 L233.969 1481.64 L233.969 1455.28 L225.659 1456.95 L225.659 1452.69 L233.923 1451.02 L238.599 1451.02 L238.599 1481.64 L246.238 1481.64 L246.238 1485.58 L226.33 1485.58 L226.33 1481.64 Z" fill="#000000" fill-rule="nonzero" fill-opacity="1" /><path clip-path="url(#clip950)" d="M255.682 1479.7 L260.566 1479.7 L260.566 1485.58 L255.682 1485.58 L255.682 1479.7 Z" fill="#000000" fill-rule="nonzero" fill-opacity="1" /><path clip-path="url(#clip950)" d="M280.751 1454.1 Q277.14 1454.1 275.312 1457.66 Q273.506 1461.2 273.506 1468.33 Q273.506 1475.44 275.312 1479.01 Q277.14 1482.55 280.751 1482.55 Q284.386 1482.55 286.191 1479.01 Q288.02 1475.44 288.02 1468.33 Q288.02 1461.2 286.191 1457.66 Q284.386 1454.1 280.751 1454.1 M280.751 1450.39 Q286.562 1450.39 289.617 1455 Q292.696 1459.58 292.696 1468.33 Q292.696 1477.06 289.617 1481.67 Q286.562 1486.25 280.751 1486.25 Q274.941 1486.25 271.863 1481.67 Q268.807 1477.06 268.807 1468.33 Q268.807 1459.58 271.863 1455 Q274.941 1450.39 280.751 1450.39 Z" fill="#000000" fill-rule="nonzero" fill-opacity="1" /><path clip-path="url(#clip950)" d="M603.37 1481.64 L611.009 1481.64 L611.009 1455.28 L602.699 1456.95 L602.699 1452.69 L610.963 1451.02 L615.639 1451.02 L615.639 1481.64 L623.277 1481.64 L623.277 1485.58 L603.37 1485.58 L603.37 1481.64 Z" fill="#000000" fill-rule="nonzero" fill-opacity="1" /><path clip-path="url(#clip950)" d="M632.722 1479.7 L637.606 1479.7 L637.606 1485.58 L632.722 1485.58 L632.722 1479.7 Z" fill="#000000" fill-rule="nonzero" fill-opacity="1" /><path clip-path="url(#clip950)" d="M648.601 1481.64 L656.24 1481.64 L656.24 1455.28 L647.93 1456.95 L647.93 1452.69 L656.194 1451.02 L660.87 1451.02 L660.87 1481.64 L668.509 1481.64 L668.509 1485.58 L648.601 1485.58 L648.601 1481.64 Z" fill="#000000" fill-rule="nonzero" fill-opacity="1" /><path clip-path="url(#clip950)" d="M979.982 1481.64 L987.62 1481.64 L987.62 1455.28 L979.31 1456.95 L979.31 1452.69 L987.574 1451.02 L992.25 1451.02 L992.25 1481.64 L999.889 1481.64 L999.889 1485.58 L979.982 1485.58 L979.982 1481.64 Z" fill="#000000" fill-rule="nonzero" fill-opacity="1" /><path clip-path="url(#clip950)" d="M1009.33 1479.7 L1014.22 1479.7 L1014.22 1485.58 L1009.33 1485.58 L1009.33 1479.7 Z" fill="#000000" fill-rule="nonzero" fill-opacity="1" /><path clip-path="url(#clip950)" d="M1028.43 1481.64 L1044.75 1481.64 L1044.75 1485.58 L1022.81 1485.58 L1022.81 1481.64 Q1025.47 1478.89 1030.05 1474.26 Q1034.66 1469.61 1035.84 1468.27 Q1038.08 1465.74 1038.96 1464.01 Q1039.87 1462.25 1039.87 1460.56 Q1039.87 1457.8 1037.92 1456.07 Q1036 1454.33 1032.9 1454.33 Q1030.7 1454.33 1028.25 1455.09 Q1025.81 1455.86 1023.04 1457.41 L1023.04 1452.69 Q1025.86 1451.55 1028.31 1450.97 Q1030.77 1450.39 1032.81 1450.39 Q1038.18 1450.39 1041.37 1453.08 Q1044.56 1455.77 1044.56 1460.26 Q1044.56 1462.39 1043.75 1464.31 Q1042.97 1466.2 1040.86 1468.8 Q1040.28 1469.47 1037.18 1472.69 Q1034.08 1475.88 1028.43 1481.64 Z" fill="#000000" fill-rule="nonzero" fill-opacity="1" /><path clip-path="url(#clip950)" d="M1355.93 1481.64 L1363.57 1481.64 L1363.57 1455.28 L1355.26 1456.95 L1355.26 1452.69 L1363.53 1451.02 L1368.2 1451.02 L1368.2 1481.64 L1375.84 1481.64 L1375.84 1485.58 L1355.93 1485.58 L1355.93 1481.64 Z" fill="#000000" fill-rule="nonzero" fill-opacity="1" /><path clip-path="url(#clip950)" d="M1385.28 1479.7 L1390.17 1479.7 L1390.17 1485.58 L1385.28 1485.58 L1385.28 1479.7 Z" fill="#000000" fill-rule="nonzero" fill-opacity="1" /><path clip-path="url(#clip950)" d="M1414.52 1466.95 Q1417.88 1467.66 1419.75 1469.93 Q1421.65 1472.2 1421.65 1475.53 Q1421.65 1480.65 1418.13 1483.45 Q1414.61 1486.25 1408.13 1486.25 Q1405.96 1486.25 1403.64 1485.81 Q1401.35 1485.39 1398.9 1484.54 L1398.9 1480.02 Q1400.84 1481.16 1403.16 1481.74 Q1405.47 1482.32 1407.99 1482.32 Q1412.39 1482.32 1414.68 1480.58 Q1417 1478.84 1417 1475.53 Q1417 1472.48 1414.84 1470.77 Q1412.72 1469.03 1408.9 1469.03 L1404.87 1469.03 L1404.87 1465.19 L1409.08 1465.19 Q1412.53 1465.19 1414.36 1463.82 Q1416.19 1462.43 1416.19 1459.84 Q1416.19 1457.18 1414.29 1455.77 Q1412.41 1454.33 1408.9 1454.33 Q1406.97 1454.33 1404.78 1454.75 Q1402.58 1455.16 1399.94 1456.04 L1399.94 1451.88 Q1402.6 1451.14 1404.91 1450.77 Q1407.25 1450.39 1409.31 1450.39 Q1414.64 1450.39 1417.74 1452.83 Q1420.84 1455.23 1420.84 1459.35 Q1420.84 1462.22 1419.2 1464.21 Q1417.55 1466.18 1414.52 1466.95 Z" fill="#000000" fill-rule="nonzero" fill-opacity="1" /><path clip-path="url(#clip950)" d="M1731.79 1481.64 L1739.43 1481.64 L1739.43 1455.28 L1731.12 1456.95 L1731.12 1452.69 L1739.38 1451.02 L1744.06 1451.02 L1744.06 1481.64 L1751.7 1481.64 L1751.7 1485.58 L1731.79 1485.58 L1731.79 1481.64 Z" fill="#000000" fill-rule="nonzero" fill-opacity="1" /><path clip-path="url(#clip950)" d="M1761.14 1479.7 L1766.03 1479.7 L1766.03 1485.58 L1761.14 1485.58 L1761.14 1479.7 Z" fill="#000000" fill-rule="nonzero" fill-opacity="1" /><path clip-path="url(#clip950)" d="M1789.06 1455.09 L1777.25 1473.54 L1789.06 1473.54 L1789.06 1455.09 M1787.83 1451.02 L1793.71 1451.02 L1793.71 1473.54 L1798.64 1473.54 L1798.64 1477.43 L1793.71 1477.43 L1793.71 1485.58 L1789.06 1485.58 L1789.06 1477.43 L1773.46 1477.43 L1773.46 1472.92 L1787.83 1451.02 Z" fill="#000000" fill-rule="nonzero" fill-opacity="1" /><path clip-path="url(#clip950)" d="M2108.96 1481.64 L2116.6 1481.64 L2116.6 1455.28 L2108.29 1456.95 L2108.29 1452.69 L2116.55 1451.02 L2121.23 1451.02 L2121.23 1481.64 L2128.87 1481.64 L2128.87 1485.58 L2108.96 1485.58 L2108.96 1481.64 Z" fill="#000000" fill-rule="nonzero" fill-opacity="1" /><path clip-path="url(#clip950)" d="M2138.31 1479.7 L2143.2 1479.7 L2143.2 1485.58 L2138.31 1485.58 L2138.31 1479.7 Z" fill="#000000" fill-rule="nonzero" fill-opacity="1" /><path clip-path="url(#clip950)" d="M2153.43 1451.02 L2171.78 1451.02 L2171.78 1454.96 L2157.71 1454.96 L2157.71 1463.43 Q2158.73 1463.08 2159.75 1462.92 Q2160.76 1462.73 2161.78 1462.73 Q2167.57 1462.73 2170.95 1465.9 Q2174.33 1469.08 2174.33 1474.49 Q2174.33 1480.07 2170.86 1483.17 Q2167.38 1486.25 2161.07 1486.25 Q2158.89 1486.25 2156.62 1485.88 Q2154.38 1485.51 2151.97 1484.77 L2151.97 1480.07 Q2154.05 1481.2 2156.27 1481.76 Q2158.5 1482.32 2160.97 1482.32 Q2164.98 1482.32 2167.32 1480.21 Q2169.65 1478.1 2169.65 1474.49 Q2169.65 1470.88 2167.32 1468.77 Q2164.98 1466.67 2160.97 1466.67 Q2159.1 1466.67 2157.22 1467.08 Q2155.37 1467.5 2153.43 1468.38 L2153.43 1451.02 Z" fill="#000000" fill-rule="nonzero" fill-opacity="1" /><path clip-path="url(#clip950)" d="M1114.69 1524.09 L1131.14 1568.04 L1124.94 1568.04 L1114.94 1541.69 L1102.66 1568.04 L1096.45 1568.04 L1112.08 1533.86 L1109.72 1527.56 Q1108.23 1523.55 1104.82 1523.55 L1101.77 1523.55 L1101.77 1518.52 L1105.49 1518.58 Q1112.68 1518.68 1114.69 1524.09 Z" fill="#000000" fill-rule="nonzero" fill-opacity="1" /><path clip-path="url(#clip950)" d="M1174.02 1518.58 Q1169.75 1525.9 1167.68 1533.06 Q1165.61 1540.23 1165.61 1547.58 Q1165.61 1554.93 1167.68 1562.16 Q1169.78 1569.35 1174.02 1576.64 L1168.92 1576.64 Q1164.15 1569.16 1161.76 1561.93 Q1159.41 1554.71 1159.41 1547.58 Q1159.41 1540.48 1161.76 1533.29 Q1164.12 1526.09 1168.92 1518.58 L1174.02 1518.58 Z" fill="#000000" fill-rule="nonzero" fill-opacity="1" /><path clip-path="url(#clip950)" d="M1184.77 1581.6 L1184.77 1532.4 L1190.63 1532.4 L1190.63 1554.55 Q1190.63 1559.16 1192.83 1561.52 Q1195.02 1563.87 1199.32 1563.87 Q1204.03 1563.87 1206.39 1561.2 Q1208.77 1558.53 1208.77 1553.18 L1208.77 1532.4 L1214.63 1532.4 L1214.63 1559.83 Q1214.63 1561.74 1215.17 1562.66 Q1215.74 1563.56 1216.92 1563.56 Q1217.21 1563.56 1217.72 1563.4 Q1218.23 1563.21 1219.12 1562.82 L1219.12 1567.53 Q1217.81 1568.27 1216.63 1568.62 Q1215.49 1568.97 1214.37 1568.97 Q1212.18 1568.97 1210.87 1567.73 Q1209.57 1566.48 1209.09 1563.94 Q1207.5 1566.45 1205.18 1567.73 Q1202.88 1568.97 1199.77 1568.97 Q1196.52 1568.97 1194.23 1567.73 Q1191.97 1566.48 1190.63 1564 L1190.63 1581.6 L1184.77 1581.6 Z" fill="#000000" fill-rule="nonzero" fill-opacity="1" /><path clip-path="url(#clip950)" d="M1254.61 1539.24 Q1256.8 1535.29 1259.86 1533.41 Q1262.91 1531.54 1267.05 1531.54 Q1272.62 1531.54 1275.64 1535.45 Q1278.67 1539.33 1278.67 1546.53 L1278.67 1568.04 L1272.78 1568.04 L1272.78 1546.72 Q1272.78 1541.59 1270.97 1539.11 Q1269.15 1536.63 1265.43 1536.63 Q1260.88 1536.63 1258.23 1539.65 Q1255.59 1542.68 1255.59 1547.9 L1255.59 1568.04 L1249.7 1568.04 L1249.7 1546.72 Q1249.7 1541.56 1247.89 1539.11 Q1246.08 1536.63 1242.29 1536.63 Q1237.8 1536.63 1235.16 1539.68 Q1232.52 1542.71 1232.52 1547.9 L1232.52 1568.04 L1226.63 1568.04 L1226.63 1532.4 L1232.52 1532.4 L1232.52 1537.93 Q1234.52 1534.66 1237.32 1533.1 Q1240.12 1531.54 1243.98 1531.54 Q1247.86 1531.54 1250.56 1533.51 Q1253.3 1535.48 1254.61 1539.24 Z" fill="#000000" fill-rule="nonzero" fill-opacity="1" /><path clip-path="url(#clip950)" d="M1289.43 1518.58 L1294.52 1518.58 Q1299.29 1526.09 1301.65 1533.29 Q1304.04 1540.48 1304.04 1547.58 Q1304.04 1554.71 1301.65 1561.93 Q1299.29 1569.16 1294.52 1576.64 L1289.43 1576.64 Q1293.66 1569.35 1295.73 1562.16 Q1297.83 1554.93 1297.83 1547.58 Q1297.83 1540.23 1295.73 1533.06 Q1293.66 1525.9 1289.43 1518.58 Z" fill="#000000" fill-rule="nonzero" fill-opacity="1" /><polyline clip-path="url(#clip950)" style="stroke:#000000; stroke-linecap:round; stroke-linejoin:round; stroke-width:4; stroke-opacity:1; fill:none" points="202.714,1423.18 202.714,47.2441 "/>
<polyline clip-path="url(#clip950)" style="stroke:#000000; stroke-linecap:round; stroke-linejoin:round; stroke-width:4; stroke-opacity:1; fill:none" points="202.714,1364.94 221.611,1364.94 "/>
<polyline clip-path="url(#clip950)" style="stroke:#000000; stroke-linecap:round; stroke-linejoin:round; stroke-width:4; stroke-opacity:1; fill:none" points="202.714,1168.59 221.611,1168.59 "/>
<polyline clip-path="url(#clip950)" style="stroke:#000000; stroke-linecap:round; stroke-linejoin:round; stroke-width:4; stroke-opacity:1; fill:none" points="202.714,972.242 221.611,972.242 "/>
<polyline clip-path="url(#clip950)" style="stroke:#000000; stroke-linecap:round; stroke-linejoin:round; stroke-width:4; stroke-opacity:1; fill:none" points="202.714,775.895 221.611,775.895 "/>
<polyline clip-path="url(#clip950)" style="stroke:#000000; stroke-linecap:round; stroke-linejoin:round; stroke-width:4; stroke-opacity:1; fill:none" points="202.714,579.547 221.611,579.547 "/>
<polyline clip-path="url(#clip950)" style="stroke:#000000; stroke-linecap:round; stroke-linejoin:round; stroke-width:4; stroke-opacity:1; fill:none" points="202.714,383.199 221.611,383.199 "/>
<polyline clip-path="url(#clip950)" style="stroke:#000000; stroke-linecap:round; stroke-linejoin:round; stroke-width:4; stroke-opacity:1; fill:none" points="202.714,186.852 221.611,186.852 "/>
<path clip-path="url(#clip950)" d="M117.015 1378.28 L124.654 1378.28 L124.654 1351.92 L116.343 1353.58 L116.343 1349.32 L124.607 1347.66 L129.283 1347.66 L129.283 1378.28 L136.922 1378.28 L136.922 1382.22 L117.015 1382.22 L117.015 1378.28 Z" fill="#000000" fill-rule="nonzero" fill-opacity="1" /><path clip-path="url(#clip950)" d="M150.394 1378.28 L166.714 1378.28 L166.714 1382.22 L144.769 1382.22 L144.769 1378.28 Q147.431 1375.53 152.015 1370.9 Q156.621 1366.25 157.802 1364.9 Q160.047 1362.38 160.927 1360.64 Q161.829 1358.88 161.829 1357.19 Q161.829 1354.44 159.885 1352.7 Q157.964 1350.97 154.862 1350.97 Q152.663 1350.97 150.209 1351.73 Q147.778 1352.5 145.001 1354.05 L145.001 1349.32 Q147.825 1348.19 150.278 1347.61 Q152.732 1347.03 154.769 1347.03 Q160.14 1347.03 163.334 1349.72 Q166.528 1352.4 166.528 1356.89 Q166.528 1359.02 165.718 1360.94 Q164.931 1362.84 162.825 1365.44 Q162.246 1366.11 159.144 1369.32 Q156.042 1372.52 150.394 1378.28 Z" fill="#000000" fill-rule="nonzero" fill-opacity="1" /><path clip-path="url(#clip950)" d="M116.066 1181.93 L123.705 1181.93 L123.705 1155.57 L115.394 1157.24 L115.394 1152.98 L123.658 1151.31 L128.334 1151.31 L128.334 1181.93 L135.973 1181.93 L135.973 1185.87 L116.066 1185.87 L116.066 1181.93 Z" fill="#000000" fill-rule="nonzero" fill-opacity="1" /><path clip-path="url(#clip950)" d="M159.584 1167.24 Q162.94 1167.95 164.815 1170.22 Q166.714 1172.49 166.714 1175.82 Q166.714 1180.94 163.195 1183.74 Q159.677 1186.54 153.195 1186.54 Q151.019 1186.54 148.704 1186.1 Q146.413 1185.68 143.959 1184.83 L143.959 1180.31 Q145.904 1181.45 148.218 1182.03 Q150.533 1182.61 153.056 1182.61 Q157.454 1182.61 159.746 1180.87 Q162.061 1179.13 162.061 1175.82 Q162.061 1172.77 159.908 1171.06 Q157.778 1169.32 153.959 1169.32 L149.931 1169.32 L149.931 1165.48 L154.144 1165.48 Q157.593 1165.48 159.422 1164.11 Q161.251 1162.72 161.251 1160.13 Q161.251 1157.47 159.353 1156.06 Q157.478 1154.62 153.959 1154.62 Q152.038 1154.62 149.839 1155.04 Q147.64 1155.45 145.001 1156.33 L145.001 1152.17 Q147.663 1151.43 149.978 1151.06 Q152.316 1150.68 154.376 1150.68 Q159.7 1150.68 162.802 1153.12 Q165.903 1155.52 165.903 1159.64 Q165.903 1162.51 164.26 1164.5 Q162.616 1166.47 159.584 1167.24 Z" fill="#000000" fill-rule="nonzero" fill-opacity="1" /><path clip-path="url(#clip950)" d="M114.931 985.587 L122.57 985.587 L122.57 959.222 L114.26 960.888 L114.26 956.629 L122.524 954.962 L127.2 954.962 L127.2 985.587 L134.839 985.587 L134.839 989.522 L114.931 989.522 L114.931 985.587 Z" fill="#000000" fill-rule="nonzero" fill-opacity="1" /><path clip-path="url(#clip950)" d="M157.13 959.036 L145.325 977.485 L157.13 977.485 L157.13 959.036 M155.903 954.962 L161.783 954.962 L161.783 977.485 L166.714 977.485 L166.714 981.374 L161.783 981.374 L161.783 989.522 L157.13 989.522 L157.13 981.374 L141.529 981.374 L141.529 976.86 L155.903 954.962 Z" fill="#000000" fill-rule="nonzero" fill-opacity="1" /><path clip-path="url(#clip950)" d="M116.413 789.239 L124.052 789.239 L124.052 762.874 L115.742 764.541 L115.742 760.281 L124.005 758.615 L128.681 758.615 L128.681 789.239 L136.32 789.239 L136.32 793.175 L116.413 793.175 L116.413 789.239 Z" fill="#000000" fill-rule="nonzero" fill-opacity="1" /><path clip-path="url(#clip950)" d="M145.811 758.615 L164.167 758.615 L164.167 762.55 L150.093 762.55 L150.093 771.022 Q151.112 770.675 152.13 770.513 Q153.149 770.328 154.167 770.328 Q159.954 770.328 163.334 773.499 Q166.714 776.67 166.714 782.087 Q166.714 787.665 163.241 790.767 Q159.769 793.846 153.45 793.846 Q151.274 793.846 149.005 793.476 Q146.76 793.105 144.353 792.364 L144.353 787.665 Q146.436 788.8 148.658 789.355 Q150.88 789.911 153.357 789.911 Q157.362 789.911 159.7 787.804 Q162.038 785.698 162.038 782.087 Q162.038 778.476 159.7 776.369 Q157.362 774.263 153.357 774.263 Q151.482 774.263 149.607 774.679 Q147.755 775.096 145.811 775.976 L145.811 758.615 Z" fill="#000000" fill-rule="nonzero" fill-opacity="1" /><path clip-path="url(#clip950)" d="M115.256 592.892 L122.894 592.892 L122.894 566.526 L114.584 568.193 L114.584 563.934 L122.848 562.267 L127.524 562.267 L127.524 592.892 L135.163 592.892 L135.163 596.827 L115.256 596.827 L115.256 592.892 Z" fill="#000000" fill-rule="nonzero" fill-opacity="1" /><path clip-path="url(#clip950)" d="M155.186 577.684 Q152.038 577.684 150.186 579.836 Q148.357 581.989 148.357 585.739 Q148.357 589.466 150.186 591.642 Q152.038 593.795 155.186 593.795 Q158.334 593.795 160.163 591.642 Q162.015 589.466 162.015 585.739 Q162.015 581.989 160.163 579.836 Q158.334 577.684 155.186 577.684 M164.468 563.031 L164.468 567.29 Q162.709 566.457 160.903 566.017 Q159.121 565.577 157.362 565.577 Q152.732 565.577 150.278 568.702 Q147.848 571.827 147.501 578.147 Q148.866 576.133 150.927 575.068 Q152.987 573.98 155.464 573.98 Q160.672 573.98 163.681 577.151 Q166.714 580.299 166.714 585.739 Q166.714 591.063 163.565 594.281 Q160.417 597.498 155.186 597.498 Q149.191 597.498 146.019 592.915 Q142.848 588.309 142.848 579.582 Q142.848 571.387 146.737 566.526 Q150.626 561.642 157.177 561.642 Q158.936 561.642 160.718 561.989 Q162.524 562.336 164.468 563.031 Z" fill="#000000" fill-rule="nonzero" fill-opacity="1" /><path clip-path="url(#clip950)" d="M116.32 396.544 L123.959 396.544 L123.959 370.179 L115.649 371.845 L115.649 367.586 L123.913 365.919 L128.589 365.919 L128.589 396.544 L136.228 396.544 L136.228 400.479 L116.32 400.479 L116.32 396.544 Z" fill="#000000" fill-rule="nonzero" fill-opacity="1" /><path clip-path="url(#clip950)" d="M144.491 365.919 L166.714 365.919 L166.714 367.91 L154.167 400.479 L149.283 400.479 L161.089 369.854 L144.491 369.854 L144.491 365.919 Z" fill="#000000" fill-rule="nonzero" fill-opacity="1" /><path clip-path="url(#clip950)" d="M115.51 200.196 L123.149 200.196 L123.149 173.831 L114.839 175.498 L114.839 171.238 L123.103 169.572 L127.779 169.572 L127.779 200.196 L135.417 200.196 L135.417 204.132 L115.51 204.132 L115.51 200.196 Z" fill="#000000" fill-rule="nonzero" fill-opacity="1" /><path clip-path="url(#clip950)" d="M154.862 187.72 Q151.528 187.72 149.607 189.502 Q147.709 191.285 147.709 194.409 Q147.709 197.534 149.607 199.317 Q151.528 201.099 154.862 201.099 Q158.195 201.099 160.116 199.317 Q162.038 197.511 162.038 194.409 Q162.038 191.285 160.116 189.502 Q158.218 187.72 154.862 187.72 M150.186 185.729 Q147.177 184.988 145.487 182.928 Q143.82 180.868 143.82 177.905 Q143.82 173.761 146.76 171.354 Q149.723 168.947 154.862 168.947 Q160.024 168.947 162.964 171.354 Q165.903 173.761 165.903 177.905 Q165.903 180.868 164.214 182.928 Q162.547 184.988 159.561 185.729 Q162.94 186.516 164.815 188.808 Q166.714 191.099 166.714 194.409 Q166.714 199.433 163.635 202.118 Q160.579 204.803 154.862 204.803 Q149.144 204.803 146.066 202.118 Q143.01 199.433 143.01 194.409 Q143.01 191.099 144.908 188.808 Q146.806 186.516 150.186 185.729 M148.473 178.345 Q148.473 181.03 150.14 182.535 Q151.829 184.039 154.862 184.039 Q157.871 184.039 159.561 182.535 Q161.274 181.03 161.274 178.345 Q161.274 175.66 159.561 174.155 Q157.871 172.65 154.862 172.65 Q151.829 172.65 150.14 174.155 Q148.473 175.66 148.473 178.345 Z" fill="#000000" fill-rule="nonzero" fill-opacity="1" /><path clip-path="url(#clip950)" d="M16.4842 1091.26 L16.4842 1061.22 L21.895 1061.22 L21.895 1084.83 L35.9632 1084.83 L35.9632 1062.2 L41.3741 1062.2 L41.3741 1084.83 L58.5933 1084.83 L58.5933 1060.64 L64.0042 1060.64 L64.0042 1091.26 L16.4842 1091.26 Z" fill="#000000" fill-rule="nonzero" fill-opacity="1" /><path clip-path="url(#clip950)" d="M14.479 1032.28 L19.3487 1032.28 L19.3487 1037.89 Q19.3487 1041.04 20.6219 1042.28 Q21.895 1043.49 25.2052 1043.49 L28.3562 1043.49 L28.3562 1033.84 L32.9077 1033.84 L32.9077 1043.49 L64.0042 1043.49 L64.0042 1049.38 L32.9077 1049.38 L32.9077 1054.98 L28.3562 1054.98 L28.3562 1049.38 L25.8736 1049.38 Q19.9216 1049.38 17.2162 1046.61 Q14.479 1043.84 14.479 1037.82 L14.479 1032.28 Z" fill="#000000" fill-rule="nonzero" fill-opacity="1" /><path clip-path="url(#clip950)" d="M14.479 1009.34 L19.3487 1009.34 L19.3487 1014.94 Q19.3487 1018.09 20.6219 1019.33 Q21.895 1020.54 25.2052 1020.54 L28.3562 1020.54 L28.3562 1010.89 L32.9077 1010.89 L32.9077 1020.54 L64.0042 1020.54 L64.0042 1026.43 L32.9077 1026.43 L32.9077 1032.03 L28.3562 1032.03 L28.3562 1026.43 L25.8736 1026.43 Q19.9216 1026.43 17.2162 1023.66 Q14.479 1020.89 14.479 1014.87 L14.479 1009.34 Z" fill="#000000" fill-rule="nonzero" fill-opacity="1" /><path clip-path="url(#clip950)" d="M44.7161 973.942 L47.5806 973.942 L47.5806 1000.87 Q53.6281 1000.49 56.8109 997.24 Q59.9619 993.962 59.9619 988.137 Q59.9619 984.764 59.1344 981.613 Q58.3069 978.43 56.6518 975.311 L62.1899 975.311 Q63.5267 978.462 64.227 981.772 Q64.9272 985.082 64.9272 988.488 Q64.9272 997.018 59.9619 1002.01 Q54.9967 1006.98 46.5303 1006.98 Q37.7774 1006.98 32.6531 1002.27 Q27.4968 997.527 27.4968 989.506 Q27.4968 982.313 32.1438 978.143 Q36.7589 973.942 44.7161 973.942 M42.9973 979.798 Q38.1912 979.862 35.3266 982.504 Q32.4621 985.114 32.4621 989.442 Q32.4621 994.344 35.2312 997.304 Q38.0002 1000.23 43.0292 1000.68 L42.9973 979.798 Z" fill="#000000" fill-rule="nonzero" fill-opacity="1" /><path clip-path="url(#clip950)" d="M29.7248 938.676 L35.1993 938.676 Q33.8307 941.158 33.1623 943.673 Q32.4621 946.156 32.4621 948.702 Q32.4621 954.399 36.0905 957.55 Q39.6872 960.701 46.212 960.701 Q52.7369 960.701 56.3653 957.55 Q59.9619 954.399 59.9619 948.702 Q59.9619 946.156 59.2935 943.673 Q58.5933 941.158 57.2247 938.676 L62.6355 938.676 Q63.7814 941.127 64.3543 943.768 Q64.9272 946.378 64.9272 949.338 Q64.9272 957.391 59.8664 962.133 Q54.8057 966.876 46.212 966.876 Q37.491 966.876 32.4939 962.102 Q27.4968 957.296 27.4968 948.956 Q27.4968 946.251 28.0697 943.673 Q28.6108 941.095 29.7248 938.676 Z" fill="#000000" fill-rule="nonzero" fill-opacity="1" /><path clip-path="url(#clip950)" d="M18.2347 922.698 L28.3562 922.698 L28.3562 910.635 L32.9077 910.635 L32.9077 922.698 L52.2594 922.698 Q56.6199 922.698 57.8613 921.52 Q59.1026 920.311 59.1026 916.651 L59.1026 910.635 L64.0042 910.635 L64.0042 916.651 Q64.0042 923.43 61.4897 926.008 Q58.9434 928.586 52.2594 928.586 L32.9077 928.586 L32.9077 932.883 L28.3562 932.883 L28.3562 928.586 L18.2347 928.586 L18.2347 922.698 Z" fill="#000000" fill-rule="nonzero" fill-opacity="1" /><path clip-path="url(#clip950)" d="M28.3562 902.932 L28.3562 897.076 L64.0042 897.076 L64.0042 902.932 L28.3562 902.932 M14.479 902.932 L14.479 897.076 L21.895 897.076 L21.895 902.932 L14.479 902.932 Z" fill="#000000" fill-rule="nonzero" fill-opacity="1" /><path clip-path="url(#clip950)" d="M28.3562 889.023 L28.3562 882.817 L58.275 871.677 L28.3562 860.537 L28.3562 854.33 L64.0042 867.698 L64.0042 875.655 L28.3562 889.023 Z" fill="#000000" fill-rule="nonzero" fill-opacity="1" /><path clip-path="url(#clip950)" d="M44.7161 815.754 L47.5806 815.754 L47.5806 842.681 Q53.6281 842.299 56.8109 839.053 Q59.9619 835.774 59.9619 829.95 Q59.9619 826.576 59.1344 823.425 Q58.3069 820.242 56.6518 817.123 L62.1899 817.123 Q63.5267 820.274 64.227 823.584 Q64.9272 826.894 64.9272 830.3 Q64.9272 838.83 59.9619 843.827 Q54.9967 848.792 46.5303 848.792 Q37.7774 848.792 32.6531 844.081 Q27.4968 839.339 27.4968 831.318 Q27.4968 824.125 32.1438 819.955 Q36.7589 815.754 44.7161 815.754 M42.9973 821.611 Q38.1912 821.674 35.3266 824.316 Q32.4621 826.926 32.4621 831.255 Q32.4621 836.156 35.2312 839.116 Q38.0002 842.044 43.0292 842.49 L42.9973 821.611 Z" fill="#000000" fill-rule="nonzero" fill-opacity="1" /><path clip-path="url(#clip950)" d="M46.0847 769.221 Q46.0847 776.319 47.7079 779.056 Q49.3312 781.793 53.2461 781.793 Q56.3653 781.793 58.2114 779.756 Q60.0256 777.687 60.0256 774.154 Q60.0256 769.284 56.5881 766.356 Q53.1188 763.396 47.3897 763.396 L46.0847 763.396 L46.0847 769.221 M43.6657 757.54 L64.0042 757.54 L64.0042 763.396 L58.5933 763.396 Q61.8398 765.401 63.3994 768.393 Q64.9272 771.385 64.9272 775.714 Q64.9272 781.188 61.8716 784.435 Q58.7843 787.649 53.6281 787.649 Q47.6125 787.649 44.5569 783.639 Q41.5014 779.597 41.5014 771.608 L41.5014 763.396 L40.9285 763.396 Q36.8862 763.396 34.6901 766.07 Q32.4621 768.711 32.4621 773.518 Q32.4621 776.573 33.1941 779.47 Q33.9262 782.366 35.3903 785.04 L29.9795 785.04 Q28.7381 781.825 28.1334 778.801 Q27.4968 775.777 27.4968 772.913 Q27.4968 765.179 31.5072 761.359 Q35.5176 757.54 43.6657 757.54 Z" fill="#000000" fill-rule="nonzero" fill-opacity="1" /><path clip-path="url(#clip950)" d="M33.8307 724.82 Q33.2578 725.807 33.0032 726.984 Q32.7167 728.13 32.7167 729.531 Q32.7167 734.496 35.9632 737.169 Q39.1779 739.811 45.2253 739.811 L64.0042 739.811 L64.0042 745.699 L28.3562 745.699 L28.3562 739.811 L33.8944 739.811 Q30.6479 737.965 29.0883 735.005 Q27.4968 732.045 27.4968 727.812 Q27.4968 727.207 27.5923 726.475 Q27.656 725.743 27.8151 724.852 L33.8307 724.82 Z" fill="#000000" fill-rule="nonzero" fill-opacity="1" /><path clip-path="url(#clip950)" d="M44.7161 689.618 L47.5806 689.618 L47.5806 716.545 Q53.6281 716.163 56.8109 712.916 Q59.9619 709.638 59.9619 703.813 Q59.9619 700.439 59.1344 697.288 Q58.3069 694.105 56.6518 690.986 L62.1899 690.986 Q63.5267 694.137 64.227 697.447 Q64.9272 700.758 64.9272 704.163 Q64.9272 712.693 59.9619 717.69 Q54.9967 722.656 46.5303 722.656 Q37.7774 722.656 32.6531 717.945 Q27.4968 713.203 27.4968 705.182 Q27.4968 697.988 32.1438 693.819 Q36.7589 689.618 44.7161 689.618 M42.9973 695.474 Q38.1912 695.538 35.3266 698.179 Q32.4621 700.789 32.4621 705.118 Q32.4621 710.02 35.2312 712.98 Q38.0002 715.908 43.0292 716.354 L42.9973 695.474 Z" fill="#000000" fill-rule="nonzero" fill-opacity="1" /><path clip-path="url(#clip950)" d="M46.0847 663.805 Q46.0847 670.902 47.7079 673.64 Q49.3312 676.377 53.2461 676.377 Q56.3653 676.377 58.2114 674.34 Q60.0256 672.271 60.0256 668.738 Q60.0256 663.868 56.5881 660.94 Q53.1188 657.98 47.3897 657.98 L46.0847 657.98 L46.0847 663.805 M43.6657 652.124 L64.0042 652.124 L64.0042 657.98 L58.5933 657.98 Q61.8398 659.985 63.3994 662.977 Q64.9272 665.969 64.9272 670.298 Q64.9272 675.772 61.8716 679.019 Q58.7843 682.233 53.6281 682.233 Q47.6125 682.233 44.5569 678.223 Q41.5014 674.181 41.5014 666.192 L41.5014 657.98 L40.9285 657.98 Q36.8862 657.98 34.6901 660.654 Q32.4621 663.295 32.4621 668.102 Q32.4621 671.157 33.1941 674.053 Q33.9262 676.95 35.3903 679.623 L29.9795 679.623 Q28.7381 676.409 28.1334 673.385 Q27.4968 670.361 27.4968 667.497 Q27.4968 659.762 31.5072 655.943 Q35.5176 652.124 43.6657 652.124 Z" fill="#000000" fill-rule="nonzero" fill-opacity="1" /><path clip-path="url(#clip950)" d="M14.5426 605.272 Q21.8632 609.537 29.0246 611.606 Q36.186 613.675 43.5384 613.675 Q50.8908 613.675 58.1159 611.606 Q65.3091 609.505 72.5979 605.272 L72.5979 610.365 Q65.1182 615.139 57.8931 617.526 Q50.668 619.881 43.5384 619.881 Q36.4406 619.881 29.2474 617.526 Q22.0542 615.171 14.5426 610.365 L14.5426 605.272 Z" fill="#000000" fill-rule="nonzero" fill-opacity="1" /><path clip-path="url(#clip950)" d="M77.5631 594.514 L28.3562 594.514 L28.3562 588.657 L50.5089 588.657 Q55.124 588.657 57.4793 586.461 Q59.8346 584.265 59.8346 579.968 Q59.8346 575.258 57.161 572.902 Q54.4874 570.515 49.1402 570.515 L28.3562 570.515 L28.3562 564.659 L55.7924 564.659 Q57.7021 564.659 58.6251 564.118 Q59.5163 563.545 59.5163 562.367 Q59.5163 562.081 59.3572 561.571 Q59.1662 561.062 58.7843 560.171 L63.4949 560.171 Q64.227 561.476 64.5771 562.654 Q64.9272 563.799 64.9272 564.913 Q64.9272 567.11 63.6859 568.415 Q62.4446 569.72 59.8983 570.197 Q62.4127 571.788 63.6859 574.112 Q64.9272 576.404 64.9272 579.523 Q64.9272 582.769 63.6859 585.061 Q62.4446 587.321 59.9619 588.657 L77.5631 588.657 L77.5631 594.514 Z" fill="#000000" fill-rule="nonzero" fill-opacity="1" /><path clip-path="url(#clip950)" d="M35.1993 524.682 Q31.2526 522.486 29.3747 519.43 Q27.4968 516.375 27.4968 512.237 Q27.4968 506.667 31.4117 503.643 Q35.2948 500.62 42.4881 500.62 L64.0042 500.62 L64.0042 506.508 L42.679 506.508 Q37.5546 506.508 35.072 508.322 Q32.5894 510.136 32.5894 513.86 Q32.5894 518.412 35.6131 521.054 Q38.6368 523.695 43.8567 523.695 L64.0042 523.695 L64.0042 529.584 L42.679 529.584 Q37.5228 529.584 35.072 531.398 Q32.5894 533.212 32.5894 537 Q32.5894 541.488 35.6449 544.129 Q38.6686 546.771 43.8567 546.771 L64.0042 546.771 L64.0042 552.659 L28.3562 552.659 L28.3562 546.771 L33.8944 546.771 Q30.616 544.766 29.0564 541.965 Q27.4968 539.164 27.4968 535.313 Q27.4968 531.43 29.4702 528.724 Q31.4436 525.987 35.1993 524.682 Z" fill="#000000" fill-rule="nonzero" fill-opacity="1" /><path clip-path="url(#clip950)" d="M16.4842 464.654 L34.2127 447.371 L34.2127 453.768 L21.6404 467.773 L34.2127 481.777 L34.2127 488.175 L16.4842 470.892 L16.4842 464.654 Z" fill="#000000" fill-rule="nonzero" fill-opacity="1" /><path clip-path="url(#clip950)" d="M58.5933 427.955 L58.5933 405.516 L64.0042 405.516 L64.0042 435.69 L58.5933 435.69 Q54.8057 432.029 48.44 425.727 Q42.0425 419.393 40.1964 417.77 Q36.7271 414.683 34.34 413.473 Q31.921 412.232 29.5975 412.232 Q25.8099 412.232 23.4228 414.906 Q21.0356 417.547 21.0356 421.812 Q21.0356 424.836 22.086 428.21 Q23.1363 431.552 25.2688 435.371 L18.7758 435.371 Q17.2162 431.488 16.4205 428.114 Q15.6248 424.741 15.6248 421.94 Q15.6248 414.555 19.3169 410.163 Q23.009 405.771 29.1837 405.771 Q32.112 405.771 34.7537 406.885 Q37.3637 407.967 40.9285 410.863 Q41.8515 411.659 46.2757 415.924 Q50.668 420.189 58.5933 427.955 Z" fill="#000000" fill-rule="nonzero" fill-opacity="1" /><path clip-path="url(#clip950)" d="M14.5426 393.771 L14.5426 388.679 Q22.0542 383.905 29.2474 381.549 Q36.4406 379.162 43.5384 379.162 Q50.668 379.162 57.8931 381.549 Q65.1182 383.905 72.5979 388.679 L72.5979 393.771 Q65.3091 389.538 58.1159 387.469 Q50.8908 385.369 43.5384 385.369 Q36.186 385.369 29.0246 387.469 Q21.8632 389.538 14.5426 393.771 Z" fill="#000000" fill-rule="nonzero" fill-opacity="1" /><polyline clip-path="url(#clip952)" style="stroke:#0000ff; stroke-linecap:round; stroke-linejoin:round; stroke-width:4; stroke-opacity:1; fill:none" points="259.178,1384.24 296.82,1359.85 334.463,1335.43 372.105,1310.97 409.748,1286.47 447.391,1261.94 485.033,1237.36 522.676,1212.75 560.318,1188.08 597.961,1163.37 635.604,1138.61 673.246,1113.8 710.889,1088.94 748.532,1064.03 786.174,1039.06 823.817,1014.03 861.459,988.94 899.102,963.791 936.745,938.578 974.387,913.299 1012.03,887.954 1049.67,862.538 1087.32,837.052 1124.96,811.493 1162.6,785.858 1200.24,760.146 1237.89,734.354 1275.53,708.482 1313.17,682.526 1350.81,656.485 1388.46,630.356 1426.1,604.139 1463.74,577.829 1501.38,551.426 1539.03,524.927 1576.67,498.331 1614.31,471.634 1651.95,444.836 1689.6,417.933 1727.24,390.924 1764.88,363.807 1802.53,336.579 1840.17,309.238 1877.81,281.782 1915.45,254.209 1953.1,226.517 1990.74,198.703 2028.38,170.765 2066.02,142.701 2103.67,114.509 2141.31,86.1857 "/>
<path clip-path="url(#clip950)" d="M1837.09 196.789 L2131.27 196.789 L2131.27 93.1086 L1837.09 93.1086  Z" fill="#ffffff" fill-rule="evenodd" fill-opacity="1"/>
<polyline clip-path="url(#clip950)" style="stroke:#000000; stroke-linecap:round; stroke-linejoin:round; stroke-width:4; stroke-opacity:1; fill:none" points="1837.09,196.789 2131.27,196.789 2131.27,93.1086 1837.09,93.1086 1837.09,196.789 "/>
<polyline clip-path="url(#clip950)" style="stroke:#0000ff; stroke-linecap:round; stroke-linejoin:round; stroke-width:4; stroke-opacity:1; fill:none" points="1859.26,144.949 1992.26,144.949 "/>
<path clip-path="url(#clip950)" d="M2030.26 132.275 L2023.92 149.474 L2036.63 149.474 L2030.26 132.275 M2027.62 127.669 L2032.92 127.669 L2046.09 162.229 L2041.23 162.229 L2038.09 153.363 L2022.51 153.363 L2019.36 162.229 L2014.43 162.229 L2027.62 127.669 Z" fill="#000000" fill-rule="nonzero" fill-opacity="1" /><path clip-path="url(#clip950)" d="M2072.3 148.201 L2072.3 150.284 L2052.71 150.284 Q2052.99 154.682 2055.35 156.997 Q2057.74 159.289 2061.97 159.289 Q2064.43 159.289 2066.72 158.687 Q2069.03 158.085 2071.3 156.881 L2071.3 160.909 Q2069.01 161.881 2066.6 162.391 Q2064.2 162.9 2061.72 162.9 Q2055.52 162.9 2051.88 159.289 Q2048.27 155.678 2048.27 149.52 Q2048.27 143.155 2051.7 139.428 Q2055.15 135.678 2060.98 135.678 Q2066.21 135.678 2069.24 139.057 Q2072.3 142.414 2072.3 148.201 M2068.04 146.951 Q2067.99 143.456 2066.07 141.372 Q2064.17 139.289 2061.02 139.289 Q2057.46 139.289 2055.31 141.303 Q2053.18 143.317 2052.85 146.974 L2068.04 146.951 Z" fill="#000000" fill-rule="nonzero" fill-opacity="1" /><path clip-path="url(#clip950)" d="M2092.41 126.21 L2092.41 129.752 L2088.34 129.752 Q2086.05 129.752 2085.15 130.678 Q2084.27 131.604 2084.27 134.011 L2084.27 136.303 L2091.28 136.303 L2091.28 139.613 L2084.27 139.613 L2084.27 162.229 L2079.98 162.229 L2079.98 139.613 L2075.91 139.613 L2075.91 136.303 L2079.98 136.303 L2079.98 134.497 Q2079.98 130.169 2082 128.201 Q2084.01 126.21 2088.39 126.21 L2092.41 126.21 Z" fill="#000000" fill-rule="nonzero" fill-opacity="1" /><path clip-path="url(#clip950)" d="M2109.1 126.21 L2109.1 129.752 L2105.03 129.752 Q2102.74 129.752 2101.83 130.678 Q2100.96 131.604 2100.96 134.011 L2100.96 136.303 L2107.97 136.303 L2107.97 139.613 L2100.96 139.613 L2100.96 162.229 L2096.67 162.229 L2096.67 139.613 L2092.6 139.613 L2092.6 136.303 L2096.67 136.303 L2096.67 134.497 Q2096.67 130.169 2098.69 128.201 Q2100.7 126.21 2105.08 126.21 L2109.1 126.21 Z" fill="#000000" fill-rule="nonzero" fill-opacity="1" /><polyline clip-path="url(#clip950)" style="stroke:#000000; stroke-linecap:round; stroke-linejoin:round; stroke-width:4; stroke-opacity:1; fill:none" points="2197.77,1423.18 2197.77,47.2441 "/>
<polyline clip-path="url(#clip950)" style="stroke:#000000; stroke-linecap:round; stroke-linejoin:round; stroke-width:4; stroke-opacity:1; fill:none" points="2197.77,1337.39 2178.87,1337.39 "/>
<polyline clip-path="url(#clip950)" style="stroke:#000000; stroke-linecap:round; stroke-linejoin:round; stroke-width:4; stroke-opacity:1; fill:none" points="2197.77,997.222 2178.87,997.222 "/>
<polyline clip-path="url(#clip950)" style="stroke:#000000; stroke-linecap:round; stroke-linejoin:round; stroke-width:4; stroke-opacity:1; fill:none" points="2197.77,657.058 2178.87,657.058 "/>
<polyline clip-path="url(#clip950)" style="stroke:#000000; stroke-linecap:round; stroke-linejoin:round; stroke-width:4; stroke-opacity:1; fill:none" points="2197.77,316.895 2178.87,316.895 "/>
<path clip-path="url(#clip950)" d="M2246.11 1335.52 Q2242.96 1335.52 2241.11 1337.67 Q2239.28 1339.83 2239.28 1343.58 Q2239.28 1347.3 2241.11 1349.48 Q2242.96 1351.63 2246.11 1351.63 Q2249.26 1351.63 2251.09 1349.48 Q2252.94 1347.3 2252.94 1343.58 Q2252.94 1339.83 2251.09 1337.67 Q2249.26 1335.52 2246.11 1335.52 M2255.39 1320.87 L2255.39 1325.13 Q2253.63 1324.29 2251.83 1323.86 Q2250.05 1323.42 2248.29 1323.42 Q2243.66 1323.42 2241.2 1326.54 Q2238.77 1329.67 2238.43 1335.98 Q2239.79 1333.97 2241.85 1332.91 Q2243.91 1331.82 2246.39 1331.82 Q2251.6 1331.82 2254.61 1334.99 Q2257.64 1338.14 2257.64 1343.58 Q2257.64 1348.9 2254.49 1352.12 Q2251.34 1355.34 2246.11 1355.34 Q2240.12 1355.34 2236.94 1350.75 Q2233.77 1346.15 2233.77 1337.42 Q2233.77 1329.23 2237.66 1324.36 Q2241.55 1319.48 2248.1 1319.48 Q2249.86 1319.48 2251.64 1319.83 Q2253.45 1320.17 2255.39 1320.87 Z" fill="#000000" fill-rule="nonzero" fill-opacity="1" /><path clip-path="url(#clip950)" d="M2245.62 998.09 Q2242.29 998.09 2240.37 999.872 Q2238.47 1001.65 2238.47 1004.78 Q2238.47 1007.9 2240.37 1009.69 Q2242.29 1011.47 2245.62 1011.47 Q2248.96 1011.47 2250.88 1009.69 Q2252.8 1007.88 2252.8 1004.78 Q2252.8 1001.65 2250.88 999.872 Q2248.98 998.09 2245.62 998.09 M2240.95 996.099 Q2237.94 995.358 2236.25 993.298 Q2234.58 991.238 2234.58 988.275 Q2234.58 984.131 2237.52 981.724 Q2240.49 979.317 2245.62 979.317 Q2250.79 979.317 2253.73 981.724 Q2256.67 984.131 2256.67 988.275 Q2256.67 991.238 2254.98 993.298 Q2253.31 995.358 2250.32 996.099 Q2253.7 996.886 2255.58 999.178 Q2257.48 1001.47 2257.48 1004.78 Q2257.48 1009.8 2254.4 1012.49 Q2251.34 1015.17 2245.62 1015.17 Q2239.91 1015.17 2236.83 1012.49 Q2233.77 1009.8 2233.77 1004.78 Q2233.77 1001.47 2235.67 999.178 Q2237.57 996.886 2240.95 996.099 M2239.24 988.715 Q2239.24 991.4 2240.9 992.905 Q2242.59 994.409 2245.62 994.409 Q2248.63 994.409 2250.32 992.905 Q2252.04 991.4 2252.04 988.715 Q2252.04 986.03 2250.32 984.525 Q2248.63 983.02 2245.62 983.02 Q2242.59 983.02 2240.9 984.525 Q2239.24 986.03 2239.24 988.715 Z" fill="#000000" fill-rule="nonzero" fill-opacity="1" /><path clip-path="url(#clip950)" d="M2234.44 670.403 L2242.08 670.403 L2242.08 644.037 L2233.77 645.704 L2233.77 641.445 L2242.04 639.778 L2246.71 639.778 L2246.71 670.403 L2254.35 670.403 L2254.35 674.338 L2234.44 674.338 L2234.44 670.403 Z" fill="#000000" fill-rule="nonzero" fill-opacity="1" /><path clip-path="url(#clip950)" d="M2273.8 642.857 Q2270.18 642.857 2268.36 646.422 Q2266.55 649.963 2266.55 657.093 Q2266.55 664.199 2268.36 667.764 Q2270.18 671.306 2273.8 671.306 Q2277.43 671.306 2279.24 667.764 Q2281.06 664.199 2281.06 657.093 Q2281.06 649.963 2279.24 646.422 Q2277.43 642.857 2273.8 642.857 M2273.8 639.153 Q2279.61 639.153 2282.66 643.76 Q2285.74 648.343 2285.74 657.093 Q2285.74 665.82 2282.66 670.426 Q2279.61 675.009 2273.8 675.009 Q2267.99 675.009 2264.91 670.426 Q2261.85 665.82 2261.85 657.093 Q2261.85 648.343 2264.91 643.76 Q2267.99 639.153 2273.8 639.153 Z" fill="#000000" fill-rule="nonzero" fill-opacity="1" /><path clip-path="url(#clip950)" d="M2234.44 330.239 L2242.08 330.239 L2242.08 303.874 L2233.77 305.54 L2233.77 301.281 L2242.04 299.615 L2246.71 299.615 L2246.71 330.239 L2254.35 330.239 L2254.35 334.175 L2234.44 334.175 L2234.44 330.239 Z" fill="#000000" fill-rule="nonzero" fill-opacity="1" /><path clip-path="url(#clip950)" d="M2267.82 330.239 L2284.14 330.239 L2284.14 334.175 L2262.2 334.175 L2262.2 330.239 Q2264.86 327.485 2269.44 322.855 Q2274.05 318.202 2275.23 316.86 Q2277.48 314.337 2278.36 312.601 Q2279.26 310.841 2279.26 309.152 Q2279.26 306.397 2277.31 304.661 Q2275.39 302.925 2272.29 302.925 Q2270.09 302.925 2267.64 303.689 Q2265.21 304.453 2262.43 306.003 L2262.43 301.281 Q2265.25 300.147 2267.71 299.568 Q2270.16 298.99 2272.2 298.99 Q2277.57 298.99 2280.76 301.675 Q2283.96 304.36 2283.96 308.851 Q2283.96 310.98 2283.15 312.902 Q2282.36 314.8 2280.25 317.392 Q2279.68 318.064 2276.57 321.281 Q2273.47 324.476 2267.82 330.239 Z" fill="#000000" fill-rule="nonzero" fill-opacity="1" /><path clip-path="url(#clip950)" d="M2331.24 1327.49 L2331.24 1318.84 L2371 1297.77 L2331.24 1297.77 L2331.24 1291.53 L2378.76 1291.53 L2378.76 1300.18 L2339.01 1321.25 L2378.76 1321.25 L2378.76 1327.49 L2331.24 1327.49 Z" fill="#000000" fill-rule="nonzero" fill-opacity="1" /><path clip-path="url(#clip950)" d="M2347.22 1265.17 Q2347.22 1269.88 2350.91 1272.62 Q2354.57 1275.36 2360.97 1275.36 Q2367.37 1275.36 2371.06 1272.65 Q2374.72 1269.92 2374.72 1265.17 Q2374.72 1260.49 2371.03 1257.76 Q2367.34 1255.02 2360.97 1255.02 Q2354.64 1255.02 2350.95 1257.76 Q2347.22 1260.49 2347.22 1265.17 M2342.26 1265.17 Q2342.26 1257.53 2347.22 1253.17 Q2352.19 1248.81 2360.97 1248.81 Q2369.72 1248.81 2374.72 1253.17 Q2379.69 1257.53 2379.69 1265.17 Q2379.69 1272.84 2374.72 1277.2 Q2369.72 1281.53 2360.97 1281.53 Q2352.19 1281.53 2347.22 1277.2 Q2342.26 1272.84 2342.26 1265.17 Z" fill="#000000" fill-rule="nonzero" fill-opacity="1" /><path clip-path="url(#clip950)" d="M2357.25 1209.47 L2378.76 1209.47 L2378.76 1215.33 L2357.44 1215.33 Q2352.38 1215.33 2349.86 1217.3 Q2347.35 1219.28 2347.35 1223.22 Q2347.35 1227.97 2350.37 1230.7 Q2353.4 1233.44 2358.62 1233.44 L2378.76 1233.44 L2378.76 1239.33 L2343.12 1239.33 L2343.12 1233.44 L2348.65 1233.44 Q2345.44 1231.34 2343.85 1228.51 Q2342.26 1225.64 2342.26 1221.92 Q2342.26 1215.78 2346.08 1212.62 Q2349.86 1209.47 2357.25 1209.47 Z" fill="#000000" fill-rule="nonzero" fill-opacity="1" /><path clip-path="url(#clip950)" d="M2358.3 1200.75 L2358.3 1183.6 L2363.52 1183.6 L2363.52 1200.75 L2358.3 1200.75 Z" fill="#000000" fill-rule="nonzero" fill-opacity="1" /><path clip-path="url(#clip950)" d="M2329.24 1174.27 L2329.24 1168.41 L2378.76 1168.41 L2378.76 1174.27 L2329.24 1174.27 Z" fill="#000000" fill-rule="nonzero" fill-opacity="1" /><path clip-path="url(#clip950)" d="M2343.12 1156.16 L2343.12 1150.3 L2378.76 1150.3 L2378.76 1156.16 L2343.12 1156.16 M2329.24 1156.16 L2329.24 1150.3 L2336.65 1150.3 L2336.65 1156.16 L2329.24 1156.16 Z" fill="#000000" fill-rule="nonzero" fill-opacity="1" /><path clip-path="url(#clip950)" d="M2357.25 1108.42 L2378.76 1108.42 L2378.76 1114.27 L2357.44 1114.27 Q2352.38 1114.27 2349.86 1116.25 Q2347.35 1118.22 2347.35 1122.17 Q2347.35 1126.91 2350.37 1129.65 Q2353.4 1132.38 2358.62 1132.38 L2378.76 1132.38 L2378.76 1138.27 L2343.12 1138.27 L2343.12 1132.38 L2348.65 1132.38 Q2345.44 1130.28 2343.85 1127.45 Q2342.26 1124.59 2342.26 1120.86 Q2342.26 1114.72 2346.08 1111.57 Q2349.86 1108.42 2357.25 1108.42 Z" fill="#000000" fill-rule="nonzero" fill-opacity="1" /><path clip-path="url(#clip950)" d="M2359.48 1066.24 L2362.34 1066.24 L2362.34 1093.17 Q2368.39 1092.79 2371.57 1089.54 Q2374.72 1086.26 2374.72 1080.44 Q2374.72 1077.07 2373.89 1073.92 Q2373.07 1070.73 2371.41 1067.61 L2376.95 1067.61 Q2378.29 1070.76 2378.99 1074.07 Q2379.69 1077.38 2379.69 1080.79 Q2379.69 1089.32 2374.72 1094.32 Q2369.76 1099.28 2361.29 1099.28 Q2352.54 1099.28 2347.41 1094.57 Q2342.26 1089.83 2342.26 1081.81 Q2342.26 1074.62 2346.9 1070.45 Q2351.52 1066.24 2359.48 1066.24 M2357.76 1072.1 Q2352.95 1072.16 2350.09 1074.81 Q2347.22 1077.42 2347.22 1081.75 Q2347.22 1086.65 2349.99 1089.61 Q2352.76 1092.53 2357.79 1092.98 L2357.76 1072.1 Z" fill="#000000" fill-rule="nonzero" fill-opacity="1" /><path clip-path="url(#clip950)" d="M2360.84 1040.43 Q2360.84 1047.53 2362.47 1050.27 Q2364.09 1053 2368.01 1053 Q2371.12 1053 2372.97 1050.97 Q2374.79 1048.9 2374.79 1045.37 Q2374.79 1040.5 2371.35 1037.57 Q2367.88 1034.61 2362.15 1034.61 L2360.84 1034.61 L2360.84 1040.43 M2358.43 1028.75 L2378.76 1028.75 L2378.76 1034.61 L2373.35 1034.61 Q2376.6 1036.61 2378.16 1039.6 Q2379.69 1042.6 2379.69 1046.92 Q2379.69 1052.4 2376.63 1055.65 Q2373.54 1058.86 2368.39 1058.86 Q2362.37 1058.86 2359.32 1054.85 Q2356.26 1050.81 2356.26 1042.82 L2356.26 1034.61 L2355.69 1034.61 Q2351.65 1034.61 2349.45 1037.28 Q2347.22 1039.92 2347.22 1044.73 Q2347.22 1047.78 2347.95 1050.68 Q2348.69 1053.58 2350.15 1056.25 L2344.74 1056.25 Q2343.5 1053.04 2342.89 1050.01 Q2342.26 1046.99 2342.26 1044.12 Q2342.26 1036.39 2346.27 1032.57 Q2350.28 1028.75 2358.43 1028.75 Z" fill="#000000" fill-rule="nonzero" fill-opacity="1" /><path clip-path="url(#clip950)" d="M2348.59 996.031 Q2348.02 997.018 2347.76 998.195 Q2347.48 999.341 2347.48 1000.74 Q2347.48 1005.71 2350.72 1008.38 Q2353.94 1011.02 2359.99 1011.02 L2378.76 1011.02 L2378.76 1016.91 L2343.12 1016.91 L2343.12 1011.02 L2348.65 1011.02 Q2345.41 1009.18 2343.85 1006.22 Q2342.26 1003.26 2342.26 999.023 Q2342.26 998.418 2342.35 997.686 Q2342.42 996.954 2342.57 996.063 L2348.59 996.031 Z" fill="#000000" fill-rule="nonzero" fill-opacity="1" /><path clip-path="url(#clip950)" d="M2344.48 943.514 L2349.96 943.514 Q2348.59 945.996 2347.92 948.511 Q2347.22 950.994 2347.22 953.54 Q2347.22 959.237 2350.85 962.388 Q2354.45 965.539 2360.97 965.539 Q2367.5 965.539 2371.12 962.388 Q2374.72 959.237 2374.72 953.54 Q2374.72 950.994 2374.05 948.511 Q2373.35 945.996 2371.98 943.514 L2377.4 943.514 Q2378.54 945.965 2379.11 948.606 Q2379.69 951.216 2379.69 954.176 Q2379.69 962.229 2374.63 966.971 Q2369.57 971.714 2360.97 971.714 Q2352.25 971.714 2347.25 966.94 Q2342.26 962.133 2342.26 953.794 Q2342.26 951.089 2342.83 948.511 Q2343.37 945.933 2344.48 943.514 Z" fill="#000000" fill-rule="nonzero" fill-opacity="1" /><path clip-path="url(#clip950)" d="M2347.22 919.515 Q2347.22 924.226 2350.91 926.963 Q2354.57 929.7 2360.97 929.7 Q2367.37 929.7 2371.06 926.995 Q2374.72 924.258 2374.72 919.515 Q2374.72 914.836 2371.03 912.099 Q2367.34 909.362 2360.97 909.362 Q2354.64 909.362 2350.95 912.099 Q2347.22 914.836 2347.22 919.515 M2342.26 919.515 Q2342.26 911.876 2347.22 907.516 Q2352.19 903.155 2360.97 903.155 Q2369.72 903.155 2374.72 907.516 Q2379.69 911.876 2379.69 919.515 Q2379.69 927.186 2374.72 931.546 Q2369.72 935.875 2360.97 935.875 Q2352.19 935.875 2347.22 931.546 Q2342.26 927.186 2342.26 919.515 Z" fill="#000000" fill-rule="nonzero" fill-opacity="1" /><path clip-path="url(#clip950)" d="M2359.48 862.956 L2362.34 862.956 L2362.34 889.883 Q2368.39 889.501 2371.57 886.254 Q2374.72 882.976 2374.72 877.151 Q2374.72 873.777 2373.89 870.626 Q2373.07 867.444 2371.41 864.324 L2376.95 864.324 Q2378.29 867.475 2378.99 870.786 Q2379.69 874.096 2379.69 877.501 Q2379.69 886.031 2374.72 891.029 Q2369.76 895.994 2361.29 895.994 Q2352.54 895.994 2347.41 891.283 Q2342.26 886.541 2342.26 878.52 Q2342.26 871.327 2346.9 867.157 Q2351.52 862.956 2359.48 862.956 M2357.76 868.812 Q2352.95 868.876 2350.09 871.518 Q2347.22 874.128 2347.22 878.456 Q2347.22 883.358 2349.99 886.318 Q2352.76 889.246 2357.79 889.692 L2357.76 868.812 Z" fill="#000000" fill-rule="nonzero" fill-opacity="1" /><path clip-path="url(#clip950)" d="M2329.24 835.297 L2334.11 835.297 L2334.11 840.899 Q2334.11 844.05 2335.38 845.291 Q2336.65 846.5 2339.96 846.5 L2343.12 846.5 L2343.12 836.856 L2347.67 836.856 L2347.67 846.5 L2378.76 846.5 L2378.76 852.389 L2347.67 852.389 L2347.67 857.991 L2343.12 857.991 L2343.12 852.389 L2340.63 852.389 Q2334.68 852.389 2331.98 849.62 Q2329.24 846.851 2329.24 840.835 L2329.24 835.297 Z" fill="#000000" fill-rule="nonzero" fill-opacity="1" /><path clip-path="url(#clip950)" d="M2329.24 812.348 L2334.11 812.348 L2334.11 817.95 Q2334.11 821.101 2335.38 822.343 Q2336.65 823.552 2339.96 823.552 L2343.12 823.552 L2343.12 813.908 L2347.67 813.908 L2347.67 823.552 L2378.76 823.552 L2378.76 829.44 L2347.67 829.44 L2347.67 835.042 L2343.12 835.042 L2343.12 829.44 L2340.63 829.44 Q2334.68 829.44 2331.98 826.671 Q2329.24 823.902 2329.24 817.887 L2329.24 812.348 Z" fill="#000000" fill-rule="nonzero" fill-opacity="1" /><path clip-path="url(#clip950)" d="M2343.12 807.447 L2343.12 801.59 L2378.76 801.59 L2378.76 807.447 L2343.12 807.447 M2329.24 807.447 L2329.24 801.59 L2336.65 801.59 L2336.65 807.447 L2329.24 807.447 Z" fill="#000000" fill-rule="nonzero" fill-opacity="1" /><path clip-path="url(#clip950)" d="M2344.48 763.683 L2349.96 763.683 Q2348.59 766.165 2347.92 768.68 Q2347.22 771.162 2347.22 773.709 Q2347.22 779.406 2350.85 782.557 Q2354.45 785.708 2360.97 785.708 Q2367.5 785.708 2371.12 782.557 Q2374.72 779.406 2374.72 773.709 Q2374.72 771.162 2374.05 768.68 Q2373.35 766.165 2371.98 763.683 L2377.4 763.683 Q2378.54 766.133 2379.11 768.775 Q2379.69 771.385 2379.69 774.345 Q2379.69 782.398 2374.63 787.14 Q2369.57 791.883 2360.97 791.883 Q2352.25 791.883 2347.25 787.108 Q2342.26 782.302 2342.26 773.963 Q2342.26 771.258 2342.83 768.68 Q2343.37 766.102 2344.48 763.683 Z" fill="#000000" fill-rule="nonzero" fill-opacity="1" /><path clip-path="url(#clip950)" d="M2343.12 753.497 L2343.12 747.641 L2378.76 747.641 L2378.76 753.497 L2343.12 753.497 M2329.24 753.497 L2329.24 747.641 L2336.65 747.641 L2336.65 753.497 L2329.24 753.497 Z" fill="#000000" fill-rule="nonzero" fill-opacity="1" /><path clip-path="url(#clip950)" d="M2359.48 704.895 L2362.34 704.895 L2362.34 731.822 Q2368.39 731.44 2371.57 728.194 Q2374.72 724.915 2374.72 719.091 Q2374.72 715.717 2373.89 712.566 Q2373.07 709.383 2371.41 706.264 L2376.95 706.264 Q2378.29 709.415 2378.99 712.725 Q2379.69 716.035 2379.69 719.441 Q2379.69 727.971 2374.72 732.968 Q2369.76 737.933 2361.29 737.933 Q2352.54 737.933 2347.41 733.223 Q2342.26 728.48 2342.26 720.459 Q2342.26 713.266 2346.9 709.097 Q2351.52 704.895 2359.48 704.895 M2357.76 710.752 Q2352.95 710.815 2350.09 713.457 Q2347.22 716.067 2347.22 720.396 Q2347.22 725.297 2349.99 728.257 Q2352.76 731.186 2357.79 731.631 L2357.76 710.752 Z" fill="#000000" fill-rule="nonzero" fill-opacity="1" /><path clip-path="url(#clip950)" d="M2357.25 665.651 L2378.76 665.651 L2378.76 671.507 L2357.44 671.507 Q2352.38 671.507 2349.86 673.481 Q2347.35 675.454 2347.35 679.401 Q2347.35 684.143 2350.37 686.88 Q2353.4 689.618 2358.62 689.618 L2378.76 689.618 L2378.76 695.506 L2343.12 695.506 L2343.12 689.618 L2348.65 689.618 Q2345.44 687.517 2343.85 684.684 Q2342.26 681.82 2342.26 678.096 Q2342.26 671.953 2346.08 668.802 Q2349.86 665.651 2357.25 665.651 Z" fill="#000000" fill-rule="nonzero" fill-opacity="1" /><path clip-path="url(#clip950)" d="M2332.99 648.177 L2343.12 648.177 L2343.12 636.114 L2347.67 636.114 L2347.67 648.177 L2367.02 648.177 Q2371.38 648.177 2372.62 646.999 Q2373.86 645.79 2373.86 642.129 L2373.86 636.114 L2378.76 636.114 L2378.76 642.129 Q2378.76 648.909 2376.25 651.487 Q2373.7 654.065 2367.02 654.065 L2347.67 654.065 L2347.67 658.362 L2343.12 658.362 L2343.12 654.065 L2332.99 654.065 L2332.99 648.177 Z" fill="#000000" fill-rule="nonzero" fill-opacity="1" /><path clip-path="url(#clip950)" d="M2329.3 593.623 Q2336.62 597.888 2343.78 599.957 Q2350.95 602.025 2358.3 602.025 Q2365.65 602.025 2372.88 599.957 Q2380.07 597.856 2387.36 593.623 L2387.36 598.715 Q2379.88 603.49 2372.65 605.877 Q2365.43 608.232 2358.3 608.232 Q2351.2 608.232 2344.01 605.877 Q2336.81 603.521 2329.3 598.715 L2329.3 593.623 Z" fill="#000000" fill-rule="nonzero" fill-opacity="1" /><path clip-path="url(#clip950)" d="M2329.24 582.483 L2329.24 576.594 L2358.49 576.594 L2343.12 559.121 L2343.12 551.641 L2359.79 570.547 L2378.76 550.845 L2378.76 558.484 L2361.35 576.594 L2378.76 576.594 L2378.76 582.483 L2329.24 582.483 Z" fill="#000000" fill-rule="nonzero" fill-opacity="1" /><path clip-path="url(#clip950)" d="M2349.96 516.757 Q2346.01 514.561 2344.13 511.505 Q2342.26 508.45 2342.26 504.312 Q2342.26 498.742 2346.17 495.718 Q2350.05 492.694 2357.25 492.694 L2378.76 492.694 L2378.76 498.583 L2357.44 498.583 Q2352.31 498.583 2349.83 500.397 Q2347.35 502.211 2347.35 505.935 Q2347.35 510.487 2350.37 513.128 Q2353.4 515.77 2358.62 515.77 L2378.76 515.77 L2378.76 521.658 L2357.44 521.658 Q2352.28 521.658 2349.83 523.473 Q2347.35 525.287 2347.35 529.074 Q2347.35 533.562 2350.4 536.204 Q2353.43 538.846 2358.62 538.846 L2378.76 538.846 L2378.76 544.734 L2343.12 544.734 L2343.12 538.846 L2348.65 538.846 Q2345.38 536.841 2343.82 534.04 Q2342.26 531.239 2342.26 527.388 Q2342.26 523.504 2344.23 520.799 Q2346.2 518.062 2349.96 516.757 Z" fill="#000000" fill-rule="nonzero" fill-opacity="1" /><path clip-path="url(#clip950)" d="M2331.24 456.728 L2348.97 439.445 L2348.97 445.843 L2336.4 459.847 L2348.97 473.852 L2348.97 480.25 L2331.24 462.967 L2331.24 456.728 Z" fill="#000000" fill-rule="nonzero" fill-opacity="1" /><path clip-path="url(#clip950)" d="M2358.3 429.356 L2358.3 412.2 L2363.52 412.2 L2363.52 429.356 L2358.3 429.356 Z" fill="#000000" fill-rule="nonzero" fill-opacity="1" /><path clip-path="url(#clip950)" d="M2373.35 400.933 L2373.35 390.429 L2337.1 390.429 L2339.39 401.856 L2333.54 401.856 L2331.24 390.493 L2331.24 384.064 L2373.35 384.064 L2373.35 373.56 L2378.76 373.56 L2378.76 400.933 L2373.35 400.933 Z" fill="#000000" fill-rule="nonzero" fill-opacity="1" /><path clip-path="url(#clip950)" d="M2331.24 344.66 L2331.24 338.167 L2371.41 328.173 L2331.24 318.21 L2331.24 310.985 L2371.41 300.991 L2331.24 291.029 L2331.24 284.504 L2378.76 296.44 L2378.76 304.524 L2337.51 314.55 L2378.76 324.672 L2378.76 332.756 L2331.24 344.66 Z" fill="#000000" fill-rule="nonzero" fill-opacity="1" /><path clip-path="url(#clip950)" d="M2331.24 251.943 L2348.97 234.661 L2348.97 241.058 L2336.4 255.063 L2348.97 269.067 L2348.97 275.465 L2331.24 258.182 L2331.24 251.943 Z" fill="#000000" fill-rule="nonzero" fill-opacity="1" /><path clip-path="url(#clip950)" d="M2358.3 224.571 L2358.3 207.415 L2363.52 207.415 L2363.52 224.571 L2358.3 224.571 Z" fill="#000000" fill-rule="nonzero" fill-opacity="1" /><path clip-path="url(#clip950)" d="M2373.35 196.148 L2373.35 185.645 L2337.1 185.645 L2339.39 197.071 L2333.54 197.071 L2331.24 185.708 L2331.24 179.279 L2373.35 179.279 L2373.35 168.775 L2378.76 168.775 L2378.76 196.148 L2373.35 196.148 Z" fill="#000000" fill-rule="nonzero" fill-opacity="1" /><path clip-path="url(#clip950)" d="M2329.3 157.54 L2329.3 152.447 Q2336.81 147.673 2344.01 145.318 Q2351.2 142.931 2358.3 142.931 Q2365.43 142.931 2372.65 145.318 Q2379.88 147.673 2387.36 152.447 L2387.36 157.54 Q2380.07 153.307 2372.88 151.238 Q2365.65 149.137 2358.3 149.137 Q2350.95 149.137 2343.78 151.238 Q2336.62 153.307 2329.3 157.54 Z" fill="#000000" fill-rule="nonzero" fill-opacity="1" /><polyline clip-path="url(#clip952)" style="stroke:#ff0000; stroke-linecap:round; stroke-linejoin:round; stroke-width:4; stroke-opacity:1; fill:none" points="259.178,86.1857 296.82,131.908 334.463,176.295 372.105,219.399 409.748,261.27 447.391,301.956 485.033,341.503 522.676,379.952 560.318,417.347 597.961,453.725 635.604,489.125 673.246,523.582 710.889,557.13 748.532,589.802 786.174,621.628 823.817,652.639 861.459,682.862 899.102,712.326 936.745,741.056 974.387,769.076 1012.03,796.411 1049.67,823.084 1087.32,849.116 1124.96,874.528 1162.6,899.341 1200.24,923.573 1237.89,947.244 1275.53,970.37 1313.17,992.97 1350.81,1015.06 1388.46,1036.65 1426.1,1057.77 1463.74,1078.42 1501.38,1098.61 1539.03,1118.37 1576.67,1137.71 1614.31,1156.63 1651.95,1175.15 1689.6,1193.29 1727.24,1211.04 1764.88,1228.43 1802.53,1245.46 1840.17,1262.15 1877.81,1278.5 1915.45,1294.52 1953.1,1310.22 1990.74,1325.61 2028.38,1340.7 2066.02,1355.5 2103.67,1370.01 2141.31,1384.24 "/>
<path clip-path="url(#clip950)" d="M269.216 196.789 L494.624 196.789 L494.624 93.1086 L269.216 93.1086  Z" fill="#ffffff" fill-rule="evenodd" fill-opacity="1"/>
<polyline clip-path="url(#clip950)" style="stroke:#000000; stroke-linecap:round; stroke-linejoin:round; stroke-width:4; stroke-opacity:1; fill:none" points="269.216,196.789 494.624,196.789 494.624,93.1086 269.216,93.1086 269.216,196.789 "/>
<polyline clip-path="url(#clip950)" style="stroke:#ff0000; stroke-linecap:round; stroke-linejoin:round; stroke-width:4; stroke-opacity:1; fill:none" points="291.383,144.949 424.387,144.949 "/>
<path clip-path="url(#clip950)" d="M454.17 140.377 L459.841 156.395 L467.943 136.303 L472.457 136.303 L461.971 162.229 L461.971 172.09 L457.711 172.09 L457.711 162.229 L450.906 142.877 Q449.887 139.96 447.688 139.96 L446.554 139.96 L446.554 136.303 L448.174 136.303 Q452.735 136.303 454.17 140.377 Z" fill="#000000" fill-rule="nonzero" fill-opacity="1" /></svg>
