<?xml version="1.0" encoding="utf-8"?>
<svg xmlns="http://www.w3.org/2000/svg" xmlns:xlink="http://www.w3.org/1999/xlink" width="600" height="400" viewBox="0 0 2400 1600">
<defs>
  <clipPath id="clip980">
    <rect x="0" y="0" width="2400" height="1600"/>
  </clipPath>
</defs>
<path clip-path="url(#clip980)" d="M0 1600 L2400 1600 L2400 0 L0 0  Z" fill="#ffffff" fill-rule="evenodd" fill-opacity="1"/>
<defs>
  <clipPath id="clip981">
    <rect x="480" y="0" width="1681" height="1600"/>
  </clipPath>
</defs>
<path clip-path="url(#clip980)" d="M375.418 1423.18 L2352.76 1423.18 L2352.76 47.2441 L375.418 47.2441  Z" fill="#ffffff" fill-rule="evenodd" fill-opacity="1"/>
<defs>
  <clipPath id="clip982">
    <rect x="375" y="47" width="1978" height="1377"/>
  </clipPath>
</defs>
<polyline clip-path="url(#clip982)" style="stroke:#000000; stroke-linecap:round; stroke-linejoin:round; stroke-width:2; stroke-opacity:0.1; fill:none" points="431.38,1423.18 431.38,47.2441 "/>
<polyline clip-path="url(#clip982)" style="stroke:#000000; stroke-linecap:round; stroke-linejoin:round; stroke-width:2; stroke-opacity:0.1; fill:none" points="1053.18,1423.18 1053.18,47.2441 "/>
<polyline clip-path="url(#clip982)" style="stroke:#000000; stroke-linecap:round; stroke-linejoin:round; stroke-width:2; stroke-opacity:0.1; fill:none" points="1674.99,1423.18 1674.99,47.2441 "/>
<polyline clip-path="url(#clip982)" style="stroke:#000000; stroke-linecap:round; stroke-linejoin:round; stroke-width:2; stroke-opacity:0.1; fill:none" points="2296.79,1423.18 2296.79,47.2441 "/>
<polyline clip-path="url(#clip982)" style="stroke:#000000; stroke-linecap:round; stroke-linejoin:round; stroke-width:2; stroke-opacity:0.1; fill:none" points="375.418,1322.92 2352.76,1322.92 "/>
<polyline clip-path="url(#clip982)" style="stroke:#000000; stroke-linecap:round; stroke-linejoin:round; stroke-width:2; stroke-opacity:0.1; fill:none" points="375.418,1011.54 2352.76,1011.54 "/>
<polyline clip-path="url(#clip982)" style="stroke:#000000; stroke-linecap:round; stroke-linejoin:round; stroke-width:2; stroke-opacity:0.1; fill:none" points="375.418,700.162 2352.76,700.162 "/>
<polyline clip-path="url(#clip982)" style="stroke:#000000; stroke-linecap:round; stroke-linejoin:round; stroke-width:2; stroke-opacity:0.1; fill:none" points="375.418,388.783 2352.76,388.783 "/>
<polyline clip-path="url(#clip982)" style="stroke:#000000; stroke-linecap:round; stroke-linejoin:round; stroke-width:2; stroke-opacity:0.1; fill:none" points="375.418,77.4044 2352.76,77.4044 "/>
<polyline clip-path="url(#clip980)" style="stroke:#000000; stroke-linecap:round; stroke-linejoin:round; stroke-width:4; stroke-opacity:1; fill:none" points="375.418,1423.18 2352.76,1423.18 "/>
<polyline clip-path="url(#clip980)" style="stroke:#000000; stroke-linecap:round; stroke-linejoin:round; stroke-width:4; stroke-opacity:1; fill:none" points="431.38,1423.18 431.38,1404.28 "/>
<polyline clip-path="url(#clip980)" style="stroke:#000000; stroke-linecap:round; stroke-linejoin:round; stroke-width:4; stroke-opacity:1; fill:none" points="1053.18,1423.18 1053.18,1404.28 "/>
<polyline clip-path="url(#clip980)" style="stroke:#000000; stroke-linecap:round; stroke-linejoin:round; stroke-width:4; stroke-opacity:1; fill:none" points="1674.99,1423.18 1674.99,1404.28 "/>
<polyline clip-path="url(#clip980)" style="stroke:#000000; stroke-linecap:round; stroke-linejoin:round; stroke-width:4; stroke-opacity:1; fill:none" points="2296.79,1423.18 2296.79,1404.28 "/>
<path clip-path="url(#clip980)" d="M431.38 1454.1 Q427.769 1454.1 425.941 1457.66 Q424.135 1461.2 424.135 1468.33 Q424.135 1475.44 425.941 1479.01 Q427.769 1482.55 431.38 1482.55 Q435.015 1482.55 436.82 1479.01 Q438.649 1475.44 438.649 1468.33 Q438.649 1461.2 436.82 1457.66 Q435.015 1454.1 431.38 1454.1 M431.38 1450.39 Q437.191 1450.39 440.246 1455 Q443.325 1459.58 443.325 1468.33 Q443.325 1477.06 440.246 1481.67 Q437.191 1486.25 431.38 1486.25 Q425.57 1486.25 422.492 1481.67 Q419.436 1477.06 419.436 1468.33 Q419.436 1459.58 422.492 1455 Q425.57 1450.39 431.38 1450.39 Z" fill="#000000" fill-rule="nonzero" fill-opacity="1" /><path clip-path="url(#clip980)" d="M1043.46 1451.02 L1061.82 1451.02 L1061.82 1454.96 L1047.75 1454.96 L1047.75 1463.43 Q1048.76 1463.08 1049.78 1462.92 Q1050.8 1462.73 1051.82 1462.73 Q1057.61 1462.73 1060.99 1465.9 Q1064.37 1469.08 1064.37 1474.49 Q1064.37 1480.07 1060.89 1483.17 Q1057.42 1486.25 1051.1 1486.25 Q1048.93 1486.25 1046.66 1485.88 Q1044.41 1485.51 1042 1484.77 L1042 1480.07 Q1044.09 1481.2 1046.31 1481.76 Q1048.53 1482.32 1051.01 1482.32 Q1055.01 1482.32 1057.35 1480.21 Q1059.69 1478.1 1059.69 1474.49 Q1059.69 1470.88 1057.35 1468.77 Q1055.01 1466.67 1051.01 1466.67 Q1049.13 1466.67 1047.26 1467.08 Q1045.41 1467.5 1043.46 1468.38 L1043.46 1451.02 Z" fill="#000000" fill-rule="nonzero" fill-opacity="1" /><path clip-path="url(#clip980)" d="M1649.68 1481.64 L1657.32 1481.64 L1657.32 1455.28 L1649.01 1456.95 L1649.01 1452.69 L1657.27 1451.02 L1661.95 1451.02 L1661.95 1481.64 L1669.58 1481.64 L1669.58 1485.58 L1649.68 1485.58 L1649.68 1481.64 Z" fill="#000000" fill-rule="nonzero" fill-opacity="1" /><path clip-path="url(#clip980)" d="M1689.03 1454.1 Q1685.42 1454.1 1683.59 1457.66 Q1681.78 1461.2 1681.78 1468.33 Q1681.78 1475.44 1683.59 1479.01 Q1685.42 1482.55 1689.03 1482.55 Q1692.66 1482.55 1694.47 1479.01 Q1696.3 1475.44 1696.3 1468.33 Q1696.3 1461.2 1694.47 1457.66 Q1692.66 1454.1 1689.03 1454.1 M1689.03 1450.39 Q1694.84 1450.39 1697.89 1455 Q1700.97 1459.58 1700.97 1468.33 Q1700.97 1477.06 1697.89 1481.67 Q1694.84 1486.25 1689.03 1486.25 Q1683.22 1486.25 1680.14 1481.67 Q1677.08 1477.06 1677.08 1468.33 Q1677.08 1459.58 1680.14 1455 Q1683.22 1450.39 1689.03 1450.39 Z" fill="#000000" fill-rule="nonzero" fill-opacity="1" /><path clip-path="url(#clip980)" d="M2271.98 1481.64 L2279.62 1481.64 L2279.62 1455.28 L2271.31 1456.95 L2271.31 1452.69 L2279.57 1451.02 L2284.25 1451.02 L2284.25 1481.64 L2291.89 1481.64 L2291.89 1485.58 L2271.98 1485.58 L2271.98 1481.64 Z" fill="#000000" fill-rule="nonzero" fill-opacity="1" /><path clip-path="url(#clip980)" d="M2301.38 1451.02 L2319.73 1451.02 L2319.73 1454.96 L2305.66 1454.96 L2305.66 1463.43 Q2306.68 1463.08 2307.7 1462.92 Q2308.71 1462.73 2309.73 1462.73 Q2315.52 1462.73 2318.9 1465.9 Q2322.28 1469.08 2322.28 1474.49 Q2322.28 1480.07 2318.81 1483.17 Q2315.34 1486.25 2309.02 1486.25 Q2306.84 1486.25 2304.57 1485.88 Q2302.33 1485.51 2299.92 1484.77 L2299.92 1480.07 Q2302 1481.2 2304.22 1481.76 Q2306.45 1482.32 2308.92 1482.32 Q2312.93 1482.32 2315.27 1480.21 Q2317.6 1478.1 2317.6 1474.49 Q2317.6 1470.88 2315.27 1468.77 Q2312.93 1466.67 2308.92 1466.67 Q2307.05 1466.67 2305.17 1467.08 Q2303.32 1467.5 2301.38 1468.38 L2301.38 1451.02 Z" fill="#000000" fill-rule="nonzero" fill-opacity="1" /><path clip-path="url(#clip980)" d="M1289.05 1537.87 Q1288.06 1537.3 1286.89 1537.04 Q1285.74 1536.76 1284.34 1536.76 Q1279.38 1536.76 1276.7 1540 Q1274.06 1543.22 1274.06 1549.27 L1274.06 1568.04 L1268.17 1568.04 L1268.17 1532.4 L1274.06 1532.4 L1274.06 1537.93 Q1275.91 1534.69 1278.87 1533.13 Q1281.83 1531.54 1286.06 1531.54 Q1286.66 1531.54 1287.4 1531.63 Q1288.13 1531.7 1289.02 1531.85 L1289.05 1537.87 Z" fill="#000000" fill-rule="nonzero" fill-opacity="1" /><path clip-path="url(#clip980)" d="M1329.98 1518.58 Q1325.72 1525.9 1323.65 1533.06 Q1321.58 1540.23 1321.58 1547.58 Q1321.58 1554.93 1323.65 1562.16 Q1325.75 1569.35 1329.98 1576.64 L1324.89 1576.64 Q1320.12 1569.16 1317.73 1561.93 Q1315.37 1554.71 1315.37 1547.58 Q1315.37 1540.48 1317.73 1533.29 Q1320.08 1526.09 1324.89 1518.58 L1329.98 1518.58 Z" fill="#000000" fill-rule="nonzero" fill-opacity="1" /><path clip-path="url(#clip980)" d="M1340.74 1581.6 L1340.74 1532.4 L1346.6 1532.4 L1346.6 1554.55 Q1346.6 1559.16 1348.79 1561.52 Q1350.99 1563.87 1355.29 1563.87 Q1360 1563.87 1362.35 1561.2 Q1364.74 1558.53 1364.74 1553.18 L1364.74 1532.4 L1370.6 1532.4 L1370.6 1559.83 Q1370.6 1561.74 1371.14 1562.66 Q1371.71 1563.56 1372.89 1563.56 Q1373.17 1563.56 1373.68 1563.4 Q1374.19 1563.21 1375.08 1562.82 L1375.08 1567.53 Q1373.78 1568.27 1372.6 1568.62 Q1371.46 1568.97 1370.34 1568.97 Q1368.15 1568.97 1366.84 1567.73 Q1365.54 1566.48 1365.06 1563.94 Q1363.47 1566.45 1361.14 1567.73 Q1358.85 1568.97 1355.73 1568.97 Q1352.49 1568.97 1350.19 1567.73 Q1347.93 1566.48 1346.6 1564 L1346.6 1581.6 L1340.74 1581.6 Z" fill="#000000" fill-rule="nonzero" fill-opacity="1" /><path clip-path="url(#clip980)" d="M1410.57 1539.24 Q1412.77 1535.29 1415.82 1533.41 Q1418.88 1531.54 1423.02 1531.54 Q1428.59 1531.54 1431.61 1535.45 Q1434.63 1539.33 1434.63 1546.53 L1434.63 1568.04 L1428.75 1568.04 L1428.75 1546.72 Q1428.75 1541.59 1426.93 1539.11 Q1425.12 1536.63 1421.39 1536.63 Q1416.84 1536.63 1414.2 1539.65 Q1411.56 1542.68 1411.56 1547.9 L1411.56 1568.04 L1405.67 1568.04 L1405.67 1546.72 Q1405.67 1541.56 1403.86 1539.11 Q1402.04 1536.63 1398.25 1536.63 Q1393.77 1536.63 1391.13 1539.68 Q1388.48 1542.71 1388.48 1547.9 L1388.48 1568.04 L1382.6 1568.04 L1382.6 1532.4 L1388.48 1532.4 L1388.48 1537.93 Q1390.49 1534.66 1393.29 1533.1 Q1396.09 1531.54 1399.94 1531.54 Q1403.82 1531.54 1406.53 1533.51 Q1409.27 1535.48 1410.57 1539.24 Z" fill="#000000" fill-rule="nonzero" fill-opacity="1" /><path clip-path="url(#clip980)" d="M1445.39 1518.58 L1450.49 1518.58 Q1455.26 1526.09 1457.62 1533.29 Q1460 1540.48 1460 1547.58 Q1460 1554.71 1457.62 1561.93 Q1455.26 1569.16 1450.49 1576.64 L1445.39 1576.64 Q1449.63 1569.35 1451.7 1562.16 Q1453.8 1554.93 1453.8 1547.58 Q1453.8 1540.23 1451.7 1533.06 Q1449.63 1525.9 1445.39 1518.58 Z" fill="#000000" fill-rule="nonzero" fill-opacity="1" /><polyline clip-path="url(#clip980)" style="stroke:#000000; stroke-linecap:round; stroke-linejoin:round; stroke-width:4; stroke-opacity:1; fill:none" points="375.418,1423.18 375.418,47.2441 "/>
<polyline clip-path="url(#clip980)" style="stroke:#000000; stroke-linecap:round; stroke-linejoin:round; stroke-width:4; stroke-opacity:1; fill:none" points="375.418,1322.92 394.316,1322.92 "/>
<polyline clip-path="url(#clip980)" style="stroke:#000000; stroke-linecap:round; stroke-linejoin:round; stroke-width:4; stroke-opacity:1; fill:none" points="375.418,1011.54 394.316,1011.54 "/>
<polyline clip-path="url(#clip980)" style="stroke:#000000; stroke-linecap:round; stroke-linejoin:round; stroke-width:4; stroke-opacity:1; fill:none" points="375.418,700.162 394.316,700.162 "/>
<polyline clip-path="url(#clip980)" style="stroke:#000000; stroke-linecap:round; stroke-linejoin:round; stroke-width:4; stroke-opacity:1; fill:none" points="375.418,388.783 394.316,388.783 "/>
<polyline clip-path="url(#clip980)" style="stroke:#000000; stroke-linecap:round; stroke-linejoin:round; stroke-width:4; stroke-opacity:1; fill:none" points="375.418,77.4044 394.316,77.4044 "/>
<path clip-path="url(#clip980)" d="M114.26 1329.82 L143.936 1329.82 L143.936 1333.75 L114.26 1333.75 L114.26 1329.82 Z" fill="#000000" fill-rule="nonzero" fill-opacity="1" /><path clip-path="url(#clip980)" d="M154.839 1342.71 L162.477 1342.71 L162.477 1316.35 L154.167 1318.01 L154.167 1313.75 L162.431 1312.09 L167.107 1312.09 L167.107 1342.71 L174.746 1342.71 L174.746 1346.65 L154.839 1346.65 L154.839 1342.71 Z" fill="#000000" fill-rule="nonzero" fill-opacity="1" /><path clip-path="url(#clip980)" d="M184.19 1340.77 L189.075 1340.77 L189.075 1346.65 L184.19 1346.65 L184.19 1340.77 Z" fill="#000000" fill-rule="nonzero" fill-opacity="1" /><path clip-path="url(#clip980)" d="M209.26 1315.17 Q205.649 1315.17 203.82 1318.73 Q202.014 1322.27 202.014 1329.4 Q202.014 1336.51 203.82 1340.07 Q205.649 1343.62 209.26 1343.62 Q212.894 1343.62 214.699 1340.07 Q216.528 1336.51 216.528 1329.4 Q216.528 1322.27 214.699 1318.73 Q212.894 1315.17 209.26 1315.17 M209.26 1311.46 Q215.07 1311.46 218.125 1316.07 Q221.204 1320.65 221.204 1329.4 Q221.204 1338.13 218.125 1342.74 Q215.07 1347.32 209.26 1347.32 Q203.449 1347.32 200.371 1342.74 Q197.315 1338.13 197.315 1329.4 Q197.315 1320.65 200.371 1316.07 Q203.449 1311.46 209.26 1311.46 Z" fill="#000000" fill-rule="nonzero" fill-opacity="1" /><path clip-path="url(#clip980)" d="M257.593 1321.19 L247.014 1331.81 L257.593 1342.39 L254.838 1345.19 L244.213 1334.56 L233.588 1345.19 L230.857 1342.39 L241.412 1331.81 L230.857 1321.19 L233.588 1318.38 L244.213 1329.01 L254.838 1318.38 L257.593 1321.19 Z" fill="#000000" fill-rule="nonzero" fill-opacity="1" /><path clip-path="url(#clip980)" d="M269.954 1342.71 L277.593 1342.71 L277.593 1316.35 L269.282 1318.01 L269.282 1313.75 L277.546 1312.09 L282.222 1312.09 L282.222 1342.71 L289.861 1342.71 L289.861 1346.65 L269.954 1346.65 L269.954 1342.71 Z" fill="#000000" fill-rule="nonzero" fill-opacity="1" /><path clip-path="url(#clip980)" d="M309.305 1315.17 Q305.694 1315.17 303.866 1318.73 Q302.06 1322.27 302.06 1329.4 Q302.06 1336.51 303.866 1340.07 Q305.694 1343.62 309.305 1343.62 Q312.94 1343.62 314.745 1340.07 Q316.574 1336.51 316.574 1329.4 Q316.574 1322.27 314.745 1318.73 Q312.94 1315.17 309.305 1315.17 M309.305 1311.46 Q315.116 1311.46 318.171 1316.07 Q321.25 1320.65 321.25 1329.4 Q321.25 1338.13 318.171 1342.74 Q315.116 1347.32 309.305 1347.32 Q303.495 1347.32 300.417 1342.74 Q297.361 1338.13 297.361 1329.4 Q297.361 1320.65 300.417 1316.07 Q303.495 1311.46 309.305 1311.46 Z" fill="#000000" fill-rule="nonzero" fill-opacity="1" /><path clip-path="url(#clip980)" d="M322.435 1291.16 L337.349 1291.16 L337.349 1294.35 L325.914 1294.35 L325.914 1301.24 Q326.742 1300.96 327.569 1300.82 Q328.397 1300.67 329.224 1300.67 Q333.926 1300.67 336.672 1303.25 Q339.418 1305.83 339.418 1310.23 Q339.418 1314.76 336.597 1317.28 Q333.776 1319.78 328.641 1319.78 Q326.873 1319.78 325.03 1319.48 Q323.206 1319.18 321.25 1318.58 L321.25 1314.76 Q322.942 1315.68 324.748 1316.13 Q326.554 1316.59 328.566 1316.59 Q331.82 1316.59 333.719 1314.87 Q335.619 1313.16 335.619 1310.23 Q335.619 1307.29 333.719 1305.58 Q331.82 1303.87 328.566 1303.87 Q327.043 1303.87 325.519 1304.21 Q324.015 1304.55 322.435 1305.26 L322.435 1291.16 Z" fill="#000000" fill-rule="nonzero" fill-opacity="1" /><path clip-path="url(#clip980)" d="M327.474 997.34 Q323.863 997.34 322.034 1000.9 Q320.228 1004.45 320.228 1011.58 Q320.228 1018.68 322.034 1022.25 Q323.863 1025.79 327.474 1025.79 Q331.108 1025.79 332.913 1022.25 Q334.742 1018.68 334.742 1011.58 Q334.742 1004.45 332.913 1000.9 Q331.108 997.34 327.474 997.34 M327.474 993.636 Q333.284 993.636 336.339 998.243 Q339.418 1002.83 339.418 1011.58 Q339.418 1020.3 336.339 1024.91 Q333.284 1029.49 327.474 1029.49 Q321.664 1029.49 318.585 1024.91 Q315.529 1020.3 315.529 1011.58 Q315.529 1002.83 318.585 998.243 Q321.664 993.636 327.474 993.636 Z" fill="#000000" fill-rule="nonzero" fill-opacity="1" /><path clip-path="url(#clip980)" d="M154.839 719.955 L162.477 719.955 L162.477 693.589 L154.167 695.256 L154.167 690.997 L162.431 689.33 L167.107 689.33 L167.107 719.955 L174.746 719.955 L174.746 723.89 L154.839 723.89 L154.839 719.955 Z" fill="#000000" fill-rule="nonzero" fill-opacity="1" /><path clip-path="url(#clip980)" d="M184.19 718.01 L189.075 718.01 L189.075 723.89 L184.19 723.89 L184.19 718.01 Z" fill="#000000" fill-rule="nonzero" fill-opacity="1" /><path clip-path="url(#clip980)" d="M209.26 692.409 Q205.649 692.409 203.82 695.973 Q202.014 699.515 202.014 706.645 Q202.014 713.751 203.82 717.316 Q205.649 720.858 209.26 720.858 Q212.894 720.858 214.699 717.316 Q216.528 713.751 216.528 706.645 Q216.528 699.515 214.699 695.973 Q212.894 692.409 209.26 692.409 M209.26 688.705 Q215.07 688.705 218.125 693.311 Q221.204 697.895 221.204 706.645 Q221.204 715.372 218.125 719.978 Q215.07 724.561 209.26 724.561 Q203.449 724.561 200.371 719.978 Q197.315 715.372 197.315 706.645 Q197.315 697.895 200.371 693.311 Q203.449 688.705 209.26 688.705 Z" fill="#000000" fill-rule="nonzero" fill-opacity="1" /><path clip-path="url(#clip980)" d="M257.593 698.427 L247.014 709.052 L257.593 719.631 L254.838 722.432 L244.213 711.807 L233.588 722.432 L230.857 719.631 L241.412 709.052 L230.857 698.427 L233.588 695.626 L244.213 706.251 L254.838 695.626 L257.593 698.427 Z" fill="#000000" fill-rule="nonzero" fill-opacity="1" /><path clip-path="url(#clip980)" d="M269.954 719.955 L277.593 719.955 L277.593 693.589 L269.282 695.256 L269.282 690.997 L277.546 689.33 L282.222 689.33 L282.222 719.955 L289.861 719.955 L289.861 723.89 L269.954 723.89 L269.954 719.955 Z" fill="#000000" fill-rule="nonzero" fill-opacity="1" /><path clip-path="url(#clip980)" d="M309.305 692.409 Q305.694 692.409 303.866 695.973 Q302.06 699.515 302.06 706.645 Q302.06 713.751 303.866 717.316 Q305.694 720.858 309.305 720.858 Q312.94 720.858 314.745 717.316 Q316.574 713.751 316.574 706.645 Q316.574 699.515 314.745 695.973 Q312.94 692.409 309.305 692.409 M309.305 688.705 Q315.116 688.705 318.171 693.311 Q321.25 697.895 321.25 706.645 Q321.25 715.372 318.171 719.978 Q315.116 724.561 309.305 724.561 Q303.495 724.561 300.417 719.978 Q297.361 715.372 297.361 706.645 Q297.361 697.895 300.417 693.311 Q303.495 688.705 309.305 688.705 Z" fill="#000000" fill-rule="nonzero" fill-opacity="1" /><path clip-path="url(#clip980)" d="M322.435 668.4 L337.349 668.4 L337.349 671.597 L325.914 671.597 L325.914 678.481 Q326.742 678.198 327.569 678.067 Q328.397 677.916 329.224 677.916 Q333.926 677.916 336.672 680.493 Q339.418 683.07 339.418 687.471 Q339.418 692.003 336.597 694.524 Q333.776 697.025 328.641 697.025 Q326.873 697.025 325.03 696.724 Q323.206 696.423 321.25 695.821 L321.25 692.003 Q322.942 692.925 324.748 693.376 Q326.554 693.828 328.566 693.828 Q331.82 693.828 333.719 692.116 Q335.619 690.405 335.619 687.471 Q335.619 684.537 333.719 682.825 Q331.82 681.114 328.566 681.114 Q327.043 681.114 325.519 681.452 Q324.015 681.791 322.435 682.505 L322.435 668.4 Z" fill="#000000" fill-rule="nonzero" fill-opacity="1" /><path clip-path="url(#clip980)" d="M158.056 408.576 L174.376 408.576 L174.376 412.511 L152.431 412.511 L152.431 408.576 Q155.093 405.821 159.677 401.192 Q164.283 396.539 165.464 395.196 Q167.709 392.673 168.589 390.937 Q169.491 389.178 169.491 387.488 Q169.491 384.733 167.547 382.997 Q165.626 381.261 162.524 381.261 Q160.325 381.261 157.871 382.025 Q155.44 382.789 152.663 384.34 L152.663 379.618 Q155.487 378.483 157.94 377.905 Q160.394 377.326 162.431 377.326 Q167.802 377.326 170.996 380.011 Q174.19 382.696 174.19 387.187 Q174.19 389.317 173.38 391.238 Q172.593 393.136 170.487 395.729 Q169.908 396.4 166.806 399.618 Q163.704 402.812 158.056 408.576 Z" fill="#000000" fill-rule="nonzero" fill-opacity="1" /><path clip-path="url(#clip980)" d="M184.19 406.631 L189.075 406.631 L189.075 412.511 L184.19 412.511 L184.19 406.631 Z" fill="#000000" fill-rule="nonzero" fill-opacity="1" /><path clip-path="url(#clip980)" d="M209.26 381.03 Q205.649 381.03 203.82 384.595 Q202.014 388.136 202.014 395.266 Q202.014 402.372 203.82 405.937 Q205.649 409.479 209.26 409.479 Q212.894 409.479 214.699 405.937 Q216.528 402.372 216.528 395.266 Q216.528 388.136 214.699 384.595 Q212.894 381.03 209.26 381.03 M209.26 377.326 Q215.07 377.326 218.125 381.932 Q221.204 386.516 221.204 395.266 Q221.204 403.993 218.125 408.599 Q215.07 413.182 209.26 413.182 Q203.449 413.182 200.371 408.599 Q197.315 403.993 197.315 395.266 Q197.315 386.516 200.371 381.932 Q203.449 377.326 209.26 377.326 Z" fill="#000000" fill-rule="nonzero" fill-opacity="1" /><path clip-path="url(#clip980)" d="M257.593 387.048 L247.014 397.673 L257.593 408.252 L254.838 411.053 L244.213 400.428 L233.588 411.053 L230.857 408.252 L241.412 397.673 L230.857 387.048 L233.588 384.247 L244.213 394.872 L254.838 384.247 L257.593 387.048 Z" fill="#000000" fill-rule="nonzero" fill-opacity="1" /><path clip-path="url(#clip980)" d="M269.954 408.576 L277.593 408.576 L277.593 382.21 L269.282 383.877 L269.282 379.618 L277.546 377.951 L282.222 377.951 L282.222 408.576 L289.861 408.576 L289.861 412.511 L269.954 412.511 L269.954 408.576 Z" fill="#000000" fill-rule="nonzero" fill-opacity="1" /><path clip-path="url(#clip980)" d="M309.305 381.03 Q305.694 381.03 303.866 384.595 Q302.06 388.136 302.06 395.266 Q302.06 402.372 303.866 405.937 Q305.694 409.479 309.305 409.479 Q312.94 409.479 314.745 405.937 Q316.574 402.372 316.574 395.266 Q316.574 388.136 314.745 384.595 Q312.94 381.03 309.305 381.03 M309.305 377.326 Q315.116 377.326 318.171 381.932 Q321.25 386.516 321.25 395.266 Q321.25 403.993 318.171 408.599 Q315.116 413.182 309.305 413.182 Q303.495 413.182 300.417 408.599 Q297.361 403.993 297.361 395.266 Q297.361 386.516 300.417 381.932 Q303.495 377.326 309.305 377.326 Z" fill="#000000" fill-rule="nonzero" fill-opacity="1" /><path clip-path="url(#clip980)" d="M322.435 357.021 L337.349 357.021 L337.349 360.218 L325.914 360.218 L325.914 367.102 Q326.742 366.819 327.569 366.688 Q328.397 366.537 329.224 366.537 Q333.926 366.537 336.672 369.114 Q339.418 371.691 339.418 376.092 Q339.418 380.624 336.597 383.145 Q333.776 385.646 328.641 385.646 Q326.873 385.646 325.03 385.345 Q323.206 385.044 321.25 384.442 L321.25 380.624 Q322.942 381.546 324.748 381.997 Q326.554 382.449 328.566 382.449 Q331.82 382.449 333.719 380.737 Q335.619 379.026 335.619 376.092 Q335.619 373.158 333.719 371.446 Q331.82 369.735 328.566 369.735 Q327.043 369.735 325.519 370.073 Q324.015 370.412 322.435 371.126 L322.435 357.021 Z" fill="#000000" fill-rule="nonzero" fill-opacity="1" /><path clip-path="url(#clip980)" d="M168.195 82.4979 Q171.552 83.2155 173.427 85.484 Q175.325 87.7525 175.325 91.0858 Q175.325 96.2015 171.806 99.0024 Q168.288 101.803 161.806 101.803 Q159.63 101.803 157.315 101.364 Q155.024 100.947 152.57 100.09 L152.57 95.5765 Q154.515 96.7108 156.829 97.2895 Q159.144 97.8682 161.667 97.8682 Q166.065 97.8682 168.357 96.1321 Q170.672 94.396 170.672 91.0858 Q170.672 88.0303 168.519 86.3173 Q166.39 84.5812 162.57 84.5812 L158.542 84.5812 L158.542 80.7386 L162.755 80.7386 Q166.204 80.7386 168.033 79.3729 Q169.862 77.984 169.862 75.3914 Q169.862 72.7294 167.964 71.3174 Q166.089 69.8822 162.57 69.8822 Q160.649 69.8822 158.45 70.2989 Q156.251 70.7155 153.612 71.5952 L153.612 67.4285 Q156.274 66.6878 158.589 66.3174 Q160.927 65.947 162.987 65.947 Q168.311 65.947 171.413 68.3776 Q174.514 70.785 174.514 74.9053 Q174.514 77.7757 172.871 79.7664 Q171.227 81.734 168.195 82.4979 Z" fill="#000000" fill-rule="nonzero" fill-opacity="1" /><path clip-path="url(#clip980)" d="M184.19 95.2524 L189.075 95.2524 L189.075 101.132 L184.19 101.132 L184.19 95.2524 Z" fill="#000000" fill-rule="nonzero" fill-opacity="1" /><path clip-path="url(#clip980)" d="M209.26 69.6507 Q205.649 69.6507 203.82 73.2155 Q202.014 76.7572 202.014 83.8868 Q202.014 90.9932 203.82 94.558 Q205.649 98.0996 209.26 98.0996 Q212.894 98.0996 214.699 94.558 Q216.528 90.9932 216.528 83.8868 Q216.528 76.7572 214.699 73.2155 Q212.894 69.6507 209.26 69.6507 M209.26 65.947 Q215.07 65.947 218.125 70.5535 Q221.204 75.1368 221.204 83.8868 Q221.204 92.6136 218.125 97.22 Q215.07 101.803 209.26 101.803 Q203.449 101.803 200.371 97.22 Q197.315 92.6136 197.315 83.8868 Q197.315 75.1368 200.371 70.5535 Q203.449 65.947 209.26 65.947 Z" fill="#000000" fill-rule="nonzero" fill-opacity="1" /><path clip-path="url(#clip980)" d="M257.593 75.6692 L247.014 86.2941 L257.593 96.8728 L254.838 99.6737 L244.213 89.0488 L233.588 99.6737 L230.857 96.8728 L241.412 86.2941 L230.857 75.6692 L233.588 72.8683 L244.213 83.4932 L254.838 72.8683 L257.593 75.6692 Z" fill="#000000" fill-rule="nonzero" fill-opacity="1" /><path clip-path="url(#clip980)" d="M269.954 97.1969 L277.593 97.1969 L277.593 70.8313 L269.282 72.4979 L269.282 68.2387 L277.546 66.572 L282.222 66.572 L282.222 97.1969 L289.861 97.1969 L289.861 101.132 L269.954 101.132 L269.954 97.1969 Z" fill="#000000" fill-rule="nonzero" fill-opacity="1" /><path clip-path="url(#clip980)" d="M309.305 69.6507 Q305.694 69.6507 303.866 73.2155 Q302.06 76.7572 302.06 83.8868 Q302.06 90.9932 303.866 94.558 Q305.694 98.0996 309.305 98.0996 Q312.94 98.0996 314.745 94.558 Q316.574 90.9932 316.574 83.8868 Q316.574 76.7572 314.745 73.2155 Q312.94 69.6507 309.305 69.6507 M309.305 65.947 Q315.116 65.947 318.171 70.5535 Q321.25 75.1368 321.25 83.8868 Q321.25 92.6136 318.171 97.22 Q315.116 101.803 309.305 101.803 Q303.495 101.803 300.417 97.22 Q297.361 92.6136 297.361 83.8868 Q297.361 75.1368 300.417 70.5535 Q303.495 65.947 309.305 65.947 Z" fill="#000000" fill-rule="nonzero" fill-opacity="1" /><path clip-path="url(#clip980)" d="M322.435 45.6416 L337.349 45.6416 L337.349 48.839 L325.914 48.839 L325.914 55.7226 Q326.742 55.4405 327.569 55.3088 Q328.397 55.1584 329.224 55.1584 Q333.926 55.1584 336.672 57.735 Q339.418 60.3117 339.418 64.7127 Q339.418 69.2454 336.597 71.7656 Q333.776 74.2671 328.641 74.2671 Q326.873 74.2671 325.03 73.9661 Q323.206 73.6652 321.25 73.0634 L321.25 69.2454 Q322.942 70.167 324.748 70.6184 Q326.554 71.0697 328.566 71.0697 Q331.82 71.0697 333.719 69.3582 Q335.619 67.6467 335.619 64.7127 Q335.619 61.7787 333.719 60.0672 Q331.82 58.3557 328.566 58.3557 Q327.043 58.3557 325.519 58.6942 Q324.015 59.0328 322.435 59.7475 L322.435 45.6416 Z" fill="#000000" fill-rule="nonzero" fill-opacity="1" /><path clip-path="url(#clip980)" d="M33.8307 976.361 Q33.2578 977.348 33.0032 978.525 Q32.7167 979.671 32.7167 981.071 Q32.7167 986.037 35.9632 988.71 Q39.1779 991.352 45.2253 991.352 L64.0042 991.352 L64.0042 997.24 L28.3562 997.24 L28.3562 991.352 L33.8944 991.352 Q30.6479 989.506 29.0883 986.546 Q27.4968 983.586 27.4968 979.353 Q27.4968 978.748 27.5923 978.016 Q27.656 977.284 27.8151 976.393 L33.8307 976.361 Z" fill="#000000" fill-rule="nonzero" fill-opacity="1" /><path clip-path="url(#clip980)" d="M44.7161 941.158 L47.5806 941.158 L47.5806 968.085 Q53.6281 967.703 56.8109 964.457 Q59.9619 961.179 59.9619 955.354 Q59.9619 951.98 59.1344 948.829 Q58.3069 945.646 56.6518 942.527 L62.1899 942.527 Q63.5267 945.678 64.227 948.988 Q64.9272 952.298 64.9272 955.704 Q64.9272 964.234 59.9619 969.231 Q54.9967 974.197 46.5303 974.197 Q37.7774 974.197 32.6531 969.486 Q27.4968 964.743 27.4968 956.723 Q27.4968 949.529 32.1438 945.36 Q36.7589 941.158 44.7161 941.158 M42.9973 947.015 Q38.1912 947.079 35.3266 949.72 Q32.4621 952.33 32.4621 956.659 Q32.4621 961.561 35.2312 964.521 Q38.0002 967.449 43.0292 967.894 L42.9973 947.015 Z" fill="#000000" fill-rule="nonzero" fill-opacity="1" /><path clip-path="url(#clip980)" d="M46.0847 915.346 Q46.0847 922.443 47.7079 925.181 Q49.3312 927.918 53.2461 927.918 Q56.3653 927.918 58.2114 925.881 Q60.0256 923.812 60.0256 920.279 Q60.0256 915.409 56.5881 912.481 Q53.1188 909.521 47.3897 909.521 L46.0847 909.521 L46.0847 915.346 M43.6657 903.664 L64.0042 903.664 L64.0042 909.521 L58.5933 909.521 Q61.8398 911.526 63.3994 914.518 Q64.9272 917.51 64.9272 921.839 Q64.9272 927.313 61.8716 930.56 Q58.7843 933.774 53.6281 933.774 Q47.6125 933.774 44.5569 929.764 Q41.5014 925.722 41.5014 917.733 L41.5014 909.521 L40.9285 909.521 Q36.8862 909.521 34.6901 912.195 Q32.4621 914.836 32.4621 919.642 Q32.4621 922.698 33.1941 925.594 Q33.9262 928.491 35.3903 931.164 L29.9795 931.164 Q28.7381 927.95 28.1334 924.926 Q27.4968 921.902 27.4968 919.038 Q27.4968 911.303 31.5072 907.484 Q35.5176 903.664 43.6657 903.664 Z" fill="#000000" fill-rule="nonzero" fill-opacity="1" /><path clip-path="url(#clip980)" d="M14.479 891.601 L14.479 885.745 L64.0042 885.745 L64.0042 891.601 L14.479 891.601 Z" fill="#000000" fill-rule="nonzero" fill-opacity="1" /><path clip-path="url(#clip980)" d="M14.5426 859.423 Q21.8632 863.688 29.0246 865.757 Q36.186 867.826 43.5384 867.826 Q50.8908 867.826 58.1159 865.757 Q65.3091 863.656 72.5979 859.423 L72.5979 864.515 Q65.1182 869.29 57.8931 871.677 Q50.668 874.032 43.5384 874.032 Q36.4406 874.032 29.2474 871.677 Q22.0542 869.321 14.5426 864.515 L14.5426 859.423 Z" fill="#000000" fill-rule="nonzero" fill-opacity="1" /><path clip-path="url(#clip980)" d="M16.4842 847.805 L16.4842 817.759 L21.895 817.759 L21.895 841.376 L35.9632 841.376 L35.9632 818.746 L41.3741 818.746 L41.3741 841.376 L58.5933 841.376 L58.5933 817.186 L64.0042 817.186 L64.0042 847.805 L16.4842 847.805 Z" fill="#000000" fill-rule="nonzero" fill-opacity="1" /><path clip-path="url(#clip980)" d="M14.5426 807.797 L14.5426 802.704 Q22.0542 797.93 29.2474 795.575 Q36.4406 793.188 43.5384 793.188 Q50.668 793.188 57.8931 795.575 Q65.1182 797.93 72.5979 802.704 L72.5979 807.797 Q65.3091 803.564 58.1159 801.495 Q50.8908 799.394 43.5384 799.394 Q36.186 799.394 29.0246 801.495 Q21.8632 803.564 14.5426 807.797 Z" fill="#000000" fill-rule="nonzero" fill-opacity="1" /><path clip-path="url(#clip980)" d="M14.5426 746.654 Q21.8632 750.919 29.0246 752.988 Q36.186 755.057 43.5384 755.057 Q50.8908 755.057 58.1159 752.988 Q65.3091 750.888 72.5979 746.654 L72.5979 751.747 Q65.1182 756.521 57.8931 758.908 Q50.668 761.264 43.5384 761.264 Q36.4406 761.264 29.2474 758.908 Q22.0542 756.553 14.5426 751.747 L14.5426 746.654 Z" fill="#000000" fill-rule="nonzero" fill-opacity="1" /><path clip-path="url(#clip980)" d="M64.0042 722.783 L16.4842 740.925 L16.4842 734.209 L56.4926 719.154 L16.4842 704.068 L16.4842 697.384 L64.0042 715.494 L64.0042 722.783 Z" fill="#000000" fill-rule="nonzero" fill-opacity="1" /><path clip-path="url(#clip980)" d="M35.1993 642.225 Q31.2526 640.029 29.3747 636.973 Q27.4968 633.918 27.4968 629.78 Q27.4968 624.21 31.4117 621.186 Q35.2948 618.163 42.4881 618.163 L64.0042 618.163 L64.0042 624.051 L42.679 624.051 Q37.5546 624.051 35.072 625.865 Q32.5894 627.679 32.5894 631.403 Q32.5894 635.955 35.6131 638.596 Q38.6368 641.238 43.8567 641.238 L64.0042 641.238 L64.0042 647.127 L42.679 647.127 Q37.5228 647.127 35.072 648.941 Q32.5894 650.755 32.5894 654.543 Q32.5894 659.03 35.6449 661.672 Q38.6686 664.314 43.8567 664.314 L64.0042 664.314 L64.0042 670.202 L28.3562 670.202 L28.3562 664.314 L33.8944 664.314 Q30.616 662.309 29.0564 659.508 Q27.4968 656.707 27.4968 652.856 Q27.4968 648.973 29.4702 646.267 Q31.4436 643.53 35.1993 642.225 Z" fill="#000000" fill-rule="nonzero" fill-opacity="1" /><path clip-path="url(#clip980)" d="M16.4842 582.196 L34.2127 564.913 L34.2127 571.311 L21.6404 585.315 L34.2127 599.32 L34.2127 605.718 L16.4842 588.435 L16.4842 582.196 Z" fill="#000000" fill-rule="nonzero" fill-opacity="1" /><path clip-path="url(#clip980)" d="M43.5384 554.824 L43.5384 537.668 L48.7583 537.668 L48.7583 554.824 L43.5384 554.824 Z" fill="#000000" fill-rule="nonzero" fill-opacity="1" /><path clip-path="url(#clip980)" d="M58.5933 526.401 L58.5933 515.897 L22.3406 515.897 L24.6323 527.324 L18.7758 527.324 L16.4842 515.961 L16.4842 509.532 L58.5933 509.532 L58.5933 499.028 L64.0042 499.028 L64.0042 526.401 L58.5933 526.401 Z" fill="#000000" fill-rule="nonzero" fill-opacity="1" /><path clip-path="url(#clip980)" d="M14.5426 487.793 L14.5426 482.7 Q22.0542 477.926 29.2474 475.571 Q36.4406 473.184 43.5384 473.184 Q50.668 473.184 57.8931 475.571 Q65.1182 477.926 72.5979 482.7 L72.5979 487.793 Q65.3091 483.56 58.1159 481.491 Q50.8908 479.39 43.5384 479.39 Q36.186 479.39 29.0246 481.491 Q21.8632 483.56 14.5426 487.793 Z" fill="#000000" fill-rule="nonzero" fill-opacity="1" /><polyline clip-path="url(#clip982)" style="stroke:#009af9; stroke-linecap:round; stroke-linejoin:round; stroke-width:4; stroke-opacity:1; fill:none" points="431.38,471.704 432.624,471.708 433.868,471.718 435.111,471.736 436.355,471.761 437.599,471.793 438.842,471.832 440.086,471.878 441.329,471.931 442.573,471.992 443.817,472.059 445.06,472.134 446.304,472.216 447.547,472.304 448.791,472.4 450.035,472.503 451.278,472.613 452.522,472.73 453.765,472.855 455.009,472.986 456.253,473.124 457.496,473.27 458.74,473.422 459.983,473.582 461.227,473.749 462.471,473.922 463.714,474.103 464.958,474.291 466.202,474.486 467.445,474.688 468.689,474.897 469.932,475.113 471.176,475.336 472.42,475.566 473.663,475.803 474.907,476.047 476.15,476.299 477.394,476.557 478.638,476.822 479.881,477.094 481.125,477.373 482.368,477.66 483.612,477.953 484.856,478.253 486.099,478.56 487.343,478.874 488.586,479.195 489.83,479.524 491.074,479.859 492.317,480.2 493.561,480.549 494.805,480.905 496.048,481.268 497.292,481.638 498.535,482.014 499.779,482.398 501.023,482.788 502.266,483.185 503.51,483.589 504.753,484 505.997,484.418 507.241,484.843 508.484,485.275 509.728,485.713 510.971,486.158 512.215,486.61 513.459,487.069 514.702,487.535 515.946,488.007 517.189,488.486 518.433,488.972 519.677,489.465 520.92,489.965 522.164,490.471 523.408,490.984 524.651,491.504 525.895,492.03 527.138,492.563 528.382,493.103 529.626,493.65 530.869,494.203 532.113,494.763 533.356,495.329 534.6,495.903 535.844,496.482 537.087,497.069 538.331,497.662 539.574,498.261 540.818,498.868 542.062,499.48 543.305,500.1 544.549,500.725 545.792,501.358 547.036,501.997 548.28,502.642 549.523,503.294 550.767,503.953 552.011,504.617 553.254,505.289 554.498,505.966 555.741,506.651 556.985,507.341 558.229,508.038 559.472,508.742 560.716,509.452 561.959,510.168 563.203,510.89 564.447,511.619 565.69,512.354 566.934,513.096 568.177,513.843 569.421,514.597 570.665,515.358 571.908,516.124 573.152,516.897 574.395,517.676 575.639,518.461 576.883,519.252 578.126,520.05 579.37,520.854 580.614,521.663 581.857,522.479 583.101,523.301 584.344,524.129 585.588,524.964 586.832,525.804 588.075,526.65 589.319,527.503 590.562,528.361 591.806,529.225 593.05,530.095 594.293,530.972 595.537,531.854 596.78,532.742 598.024,533.636 599.268,534.536 600.511,535.442 601.755,536.353 602.998,537.271 604.242,538.194 605.486,539.123 606.729,540.058 607.973,540.999 609.217,541.945 610.46,542.897 611.704,543.855 612.947,544.818 614.191,545.787 615.435,546.762 616.678,547.743 617.922,548.729 619.165,549.72 620.409,550.717 621.653,551.72 622.896,552.728 624.14,553.742 625.383,554.761 626.627,555.786 627.871,556.816 629.114,557.852 630.358,558.893 631.601,559.939 632.845,560.991 634.089,562.048 635.332,563.111 636.576,564.179 637.82,565.252 639.063,566.33 640.307,567.414 641.55,568.503 642.794,569.597 644.038,570.696 645.281,571.8 646.525,572.91 647.768,574.024 649.012,575.144 650.256,576.269 651.499,577.399 652.743,578.534 653.986,579.674 655.23,580.818 656.474,581.968 657.717,583.123 658.961,584.283 660.204,585.447 661.448,586.617 662.692,587.791 663.935,588.97 665.179,590.154 666.423,591.343 667.666,592.537 668.91,593.735 670.153,594.938 671.397,596.145 672.641,597.358 673.884,598.575 675.128,599.796 676.371,601.022 677.615,602.253 678.859,603.488 680.102,604.728 681.346,605.973 682.589,607.221 683.833,608.475 685.077,609.732 686.32,610.994 687.564,612.261 688.807,613.531 690.051,614.807 691.295,616.086 692.538,617.37 693.782,618.658 695.026,619.95 696.269,621.246 697.513,622.547 698.756,623.851 700,625.16 701.244,626.473 702.487,627.79 703.731,629.111 704.974,630.436 706.218,631.766 707.462,633.099 708.705,634.436 709.949,635.777 711.192,637.121 712.436,638.47 713.68,639.823 714.923,641.179 716.167,642.539 717.41,643.903 718.654,645.271 719.898,646.642 721.141,648.017 722.385,649.396 723.629,650.778 724.872,652.164 726.116,653.554 727.359,654.947 728.603,656.343 729.847,657.744 731.09,659.147 732.334,660.554 733.577,661.965 734.821,663.379 736.065,664.796 737.308,666.216 738.552,667.64 739.795,669.067 741.039,670.498 742.283,671.931 743.526,673.368 744.77,674.808 746.013,676.251 747.257,677.698 748.501,679.147 749.744,680.599 750.988,682.055 752.232,683.513 753.475,684.975 754.719,686.439 755.962,687.906 757.206,689.376 758.45,690.849 759.693,692.325 760.937,693.804 762.18,695.285 763.424,696.77 764.668,698.257 765.911,699.746 767.155,701.238 768.398,702.733 769.642,704.231 770.886,705.731 772.129,707.234 773.373,708.739 774.616,710.247 775.86,711.757 777.104,713.269 778.347,714.784 779.591,716.302 780.835,717.821 782.078,719.343 783.322,720.868 784.565,722.394 785.809,723.923 787.053,725.454 788.296,726.987 789.54,728.523 790.783,730.06 792.027,731.6 793.271,733.141 794.514,734.685 795.758,736.23 797.001,737.778 798.245,739.328 799.489,740.879 800.732,742.432 801.976,743.988 803.219,745.545 804.463,747.103 805.707,748.664 806.95,750.226 808.194,751.79 809.438,753.356 810.681,754.923 811.925,756.492 813.168,758.062 814.412,759.635 815.656,761.208 816.899,762.783 818.143,764.36 819.386,765.938 820.63,767.517 821.874,769.098 823.117,770.68 824.361,772.263 825.604,773.848 826.848,775.434 828.092,777.021 829.335,778.61 830.579,780.199 831.822,781.79 833.066,783.382 834.31,784.974 835.553,786.568 836.797,788.163 838.041,789.759 839.284,791.356 840.528,792.954 841.771,794.552 843.015,796.152 844.259,797.752 845.502,799.354 846.746,800.956 847.989,802.558 849.233,804.162 850.477,805.766 851.72,807.371 852.964,808.976 854.207,810.582 855.451,812.189 856.695,813.796 857.938,815.403 859.182,817.011 860.425,818.62 861.669,820.229 862.913,821.838 864.156,823.448 865.4,825.058 866.644,826.668 867.887,828.279 869.131,829.89 870.374,831.501 871.618,833.112 872.862,834.723 874.105,836.335 875.349,837.946 876.592,839.558 877.836,841.169 879.08,842.781 880.323,844.392 881.567,846.004 882.81,847.615 884.054,849.227 885.298,850.838 886.541,852.449 887.785,854.06 889.028,855.67 890.272,857.28 891.516,858.89 892.759,860.5 894.003,862.109 895.247,863.718 896.49,865.326 897.734,866.934 898.977,868.542 900.221,870.149 901.465,871.755 902.708,873.361 903.952,874.966 905.195,876.571 906.439,878.175 907.683,879.778 908.926,881.381 910.17,882.983 911.413,884.584 912.657,886.184 913.901,887.783 915.144,889.382 916.388,890.98 917.631,892.576 918.875,894.172 920.119,895.767 921.362,897.361 922.606,898.953 923.85,900.545 925.093,902.136 926.337,903.725 927.58,905.313 928.824,906.901 930.068,908.475 931.311,910.025 932.555,911.552 933.798,913.056 935.042,914.536 936.286,915.995 937.529,917.43 938.773,918.845 940.016,920.237 941.26,921.608 942.504,922.959 943.747,924.289 944.991,925.599 946.234,926.889 947.478,928.159 948.722,929.41 949.965,930.642 951.209,931.855 952.453,933.05 953.696,934.227 954.94,935.386 956.183,936.527 957.427,937.651 958.671,938.758 959.914,939.848 961.158,940.921 962.401,941.979 963.645,943.02 964.889,944.046 966.132,945.056 967.376,946.051 968.619,947.03 969.863,947.995 971.107,948.945 972.35,949.881 973.594,950.803 974.837,951.711 976.081,952.605 977.325,953.485 978.568,954.352 979.812,955.207 981.056,956.048 982.299,956.876 983.543,957.692 984.786,958.496 986.03,959.287 987.274,960.067 988.517,960.835 989.761,961.591 991.004,962.336 992.248,963.069 993.492,963.792 994.735,964.503 995.979,965.204 997.222,965.895 998.466,966.575 999.71,967.244 1000.95,967.904 1002.2,968.553 1003.44,969.193 1004.68,969.823 1005.93,970.444 1007.17,971.056 1008.41,971.658 1009.66,972.251 1010.9,972.835 1012.15,973.41 1013.39,973.977 1014.63,974.535 1015.88,975.085 1017.12,975.627 1018.36,976.16 1019.61,976.685 1020.85,977.203 1022.09,977.713 1023.34,978.215 1024.58,978.709 1025.83,979.196 1027.07,979.676 1028.31,980.148 1029.56,980.614 1030.8,981.072 1032.04,981.524 1033.29,981.969 1034.53,982.407 1035.77,982.838 1037.02,983.263 1038.26,983.682 1039.51,984.094 1040.75,984.501 1041.99,984.901 1043.24,985.295 1044.48,985.683 1045.72,986.065 1046.97,986.442 1048.21,986.813 1049.45,987.178 1050.7,987.538 1051.94,987.893 1053.18,988.242 1054.43,988.586 1055.67,988.925 1056.92,989.259 1058.16,989.587 1059.4,989.911 1060.65,990.23 1061.89,990.544 1063.13,990.854 1064.38,991.159 1065.62,991.459 1066.86,991.755 1068.11,992.046 1069.35,992.333 1070.6,992.616 1071.84,992.894 1073.08,993.168 1074.33,993.438 1075.57,993.705 1076.81,993.967 1078.06,994.225 1079.3,994.479 1080.54,994.73 1081.79,994.976 1083.03,995.22 1084.28,995.459 1085.52,995.695 1086.76,995.927 1088.01,996.156 1089.25,996.381 1090.49,996.603 1091.74,996.822 1092.98,997.037 1094.22,997.249 1095.47,997.458 1096.71,997.664 1097.95,997.867 1099.2,998.067 1100.44,998.263 1101.69,998.457 1102.93,998.648 1104.17,998.836 1105.42,999.021 1106.66,999.204 1107.9,999.383 1109.15,999.56 1110.39,999.735 1111.63,999.906 1112.88,1000.08 1114.12,1000.24 1115.37,1000.41 1116.61,1000.57 1117.85,1000.73 1119.1,1000.88 1120.34,1001.04 1121.58,1001.19 1122.83,1001.34 1124.07,1001.49 1125.31,1001.63 1126.56,1001.78 1127.8,1001.92 1129.04,1002.06 1130.29,1002.19 1131.53,1002.33 1132.78,1002.46 1134.02,1002.59 1135.26,1002.72 1136.51,1002.85 1137.75,1002.97 1138.99,1003.09 1140.24,1003.21 1141.48,1003.33 1142.72,1003.45 1143.97,1003.57 1145.21,1003.68 1146.46,1003.79 1147.7,1003.9 1148.94,1004.01 1150.19,1004.12 1151.43,1004.22 1152.67,1004.33 1153.92,1004.43 1155.16,1004.53 1156.4,1004.63 1157.65,1004.73 1158.89,1004.82 1160.14,1004.92 1161.38,1005.01 1162.62,1005.1 1163.87,1005.19 1165.11,1005.28 1166.35,1005.37 1167.6,1005.46 1168.84,1005.54 1170.08,1005.63 1171.33,1005.71 1172.57,1005.79 1173.81,1005.87 1175.06,1005.95 1176.3,1006.03 1177.55,1006.1 1178.79,1006.18 1180.03,1006.25 1181.28,1006.32 1182.52,1006.39 1183.76,1006.46 1185.01,1006.53 1186.25,1006.6 1187.49,1006.67 1188.74,1006.74 1189.98,1006.8 1191.23,1006.86 1192.47,1006.93 1193.71,1006.99 1194.96,1007.05 1196.2,1007.11 1197.44,1007.17 1198.69,1007.23 1199.93,1007.28 1201.17,1007.34 1202.42,1007.4 1203.66,1007.45 1204.91,1007.5 1206.15,1007.56 1207.39,1007.61 1208.64,1007.66 1209.88,1007.71 1211.12,1007.76 1212.37,1007.81 1213.61,1007.86 1214.85,1007.9 1216.1,1007.95 1217.34,1007.99 1218.58,1008.04 1219.83,1008.08 1221.07,1008.13 1222.32,1008.17 1223.56,1008.21 1224.8,1008.25 1226.05,1008.29 1227.29,1008.33 1228.53,1008.37 1229.78,1008.41 1231.02,1008.44 1232.26,1008.48 1233.51,1008.52 1234.75,1008.55 1236,1008.59 1237.24,1008.62 1238.48,1008.66 1239.73,1008.69 1240.97,1008.72 1242.21,1008.75 1243.46,1008.78 1244.7,1008.81 1245.94,1008.84 1247.19,1008.87 1248.43,1008.9 1249.68,1008.93 1250.92,1008.96 1252.16,1008.99 1253.41,1009.01 1254.65,1009.04 1255.89,1009.06 1257.14,1009.09 1258.38,1009.11 1259.62,1009.14 1260.87,1009.16 1262.11,1009.19 1263.35,1009.21 1264.6,1009.23 1265.84,1009.25 1267.09,1009.27 1268.33,1009.29 1269.57,1009.31 1270.82,1009.33 1272.06,1009.35 1273.3,1009.37 1274.55,1009.39 1275.79,1009.41 1277.03,1009.43 1278.28,1009.44 1279.52,1009.46 1280.77,1009.48 1282.01,1009.49 1283.25,1009.51 1284.5,1009.52 1285.74,1009.54 1286.98,1009.55 1288.23,1009.56 1289.47,1009.58 1290.71,1009.59 1291.96,1009.6 1293.2,1009.61 1294.44,1009.63 1295.69,1009.64 1296.93,1009.65 1298.18,1009.66 1299.42,1009.67 1300.66,1009.68 1301.91,1009.69 1303.15,1009.7 1304.39,1009.71 1305.64,1009.72 1306.88,1009.72 1308.12,1009.73 1309.37,1009.74 1310.61,1009.75 1311.86,1009.76 1313.1,1009.77 1314.34,1009.78 1315.59,1009.79 1316.83,1009.8 1318.07,1009.8 1319.32,1009.81 1320.56,1009.82 1321.8,1009.83 1323.05,1009.84 1324.29,1009.85 1325.54,1009.86 1326.78,1009.86 1328.02,1009.87 1329.27,1009.88 1330.51,1009.89 1331.75,1009.9 1333,1009.9 1334.24,1009.91 1335.48,1009.92 1336.73,1009.93 1337.97,1009.94 1339.21,1009.94 1340.46,1009.95 1341.7,1009.96 1342.95,1009.97 1344.19,1009.98 1345.43,1009.98 1346.68,1009.99 1347.92,1010 1349.16,1010.01 1350.41,1010.01 1351.65,1010.02 1352.89,1010.03 1354.14,1010.04 1355.38,1010.04 1356.63,1010.05 1357.87,1010.06 1359.11,1010.07 1360.36,1010.07 1361.6,1010.08 1362.84,1010.09 1364.09,1010.09 1365.33,1010.1 1366.57,1010.11 1367.82,1010.12 1369.06,1010.12 1370.31,1010.13 1371.55,1010.14 1372.79,1010.14 1374.04,1010.15 1375.28,1010.16 1376.52,1010.16 1377.77,1010.17 1379.01,1010.18 1380.25,1010.18 1381.5,1010.19 1382.74,1010.2 1383.98,1010.2 1385.23,1010.21 1386.47,1010.22 1387.72,1010.22 1388.96,1010.23 1390.2,1010.24 1391.45,1010.24 1392.69,1010.25 1393.93,1010.26 1395.18,1010.26 1396.42,1010.27 1397.66,1010.27 1398.91,1010.28 1400.15,1010.29 1401.4,1010.29 1402.64,1010.3 1403.88,1010.31 1405.13,1010.31 1406.37,1010.32 1407.61,1010.32 1408.86,1010.33 1410.1,1010.34 1411.34,1010.34 1412.59,1010.35 1413.83,1010.35 1415.07,1010.36 1416.32,1010.36 1417.56,1010.37 1418.81,1010.38 1420.05,1010.38 1421.29,1010.39 1422.54,1010.39 1423.78,1010.4 1425.02,1010.4 1426.27,1010.41 1427.51,1010.42 1428.75,1010.42 1430,1010.43 1431.24,1010.43 1432.49,1010.44 1433.73,1010.44 1434.97,1010.45 1436.22,1010.45 1437.46,1010.46 1438.7,1010.46 1439.95,1010.47 1441.19,1010.47 1442.43,1010.48 1443.68,1010.48 1444.92,1010.49 1446.17,1010.49 1447.41,1010.5 1448.65,1010.5 1449.9,1010.51 1451.14,1010.51 1452.38,1010.52 1453.63,1010.52 1454.87,1010.53 1456.11,1010.53 1457.36,1010.54 1458.6,1010.54 1459.84,1010.55 1461.09,1010.55 1462.33,1010.56 1463.58,1010.56 1464.82,1010.57 1466.06,1010.57 1467.31,1010.58 1468.55,1010.58 1469.79,1010.59 1471.04,1010.59 1472.28,1010.6 1473.52,1010.6 1474.77,1010.61 1476.01,1010.61 1477.26,1010.61 1478.5,1010.62 1479.74,1010.62 1480.99,1010.63 1482.23,1010.63 1483.47,1010.64 1484.72,1010.64 1485.96,1010.65 1487.2,1010.65 1488.45,1010.65 1489.69,1010.66 1490.94,1010.66 1492.18,1010.67 1493.42,1010.67 1494.67,1010.68 1495.91,1010.68 1497.15,1010.68 1498.4,1010.69 1499.64,1010.69 1500.88,1010.7 1502.13,1010.7 1503.37,1010.7 1504.61,1010.71 1505.86,1010.71 1507.1,1010.72 1508.35,1010.72 1509.59,1010.72 1510.83,1010.73 1512.08,1010.73 1513.32,1010.74 1514.56,1010.74 1515.81,1010.74 1517.05,1010.75 1518.29,1010.75 1519.54,1010.76 1520.78,1010.76 1522.03,1010.76 1523.27,1010.77 1524.51,1010.77 1525.76,1010.77 1527,1010.78 1528.24,1010.78 1529.49,1010.79 1530.73,1010.79 1531.97,1010.79 1533.22,1010.8 1534.46,1010.8 1535.7,1010.8 1536.95,1010.81 1538.19,1010.81 1539.44,1010.81 1540.68,1010.82 1541.92,1010.82 1543.17,1010.82 1544.41,1010.83 1545.65,1010.83 1546.9,1010.83 1548.14,1010.84 1549.38,1010.84 1550.63,1010.84 1551.87,1010.85 1553.12,1010.85 1554.36,1010.85 1555.6,1010.86 1556.85,1010.86 1558.09,1010.86 1559.33,1010.87 1560.58,1010.87 1561.82,1010.87 1563.06,1010.88 1564.31,1010.88 1565.55,1010.88 1566.8,1010.89 1568.04,1010.89 1569.28,1010.89 1570.53,1010.9 1571.77,1010.9 1573.01,1010.9 1574.26,1010.91 1575.5,1010.91 1576.74,1010.91 1577.99,1010.91 1579.23,1010.92 1580.47,1010.92 1581.72,1010.92 1582.96,1010.93 1584.21,1010.93 1585.45,1010.93 1586.69,1010.94 1587.94,1010.94 1589.18,1010.94 1590.42,1010.94 1591.67,1010.95 1592.91,1010.95 1594.15,1010.95 1595.4,1010.96 1596.64,1010.96 1597.89,1010.96 1599.13,1010.96 1600.37,1010.97 1601.62,1010.97 1602.86,1010.97 1604.1,1010.98 1605.35,1010.98 1606.59,1010.98 1607.83,1010.98 1609.08,1010.99 1610.32,1010.99 1611.57,1010.99 1612.81,1010.99 1614.05,1011 1615.3,1011 1616.54,1011 1617.78,1011 1619.03,1011.01 1620.27,1011.01 1621.51,1011.01 1622.76,1011.01 1624,1011.02 1625.24,1011.02 1626.49,1011.02 1627.73,1011.02 1628.98,1011.03 1630.22,1011.03 1631.46,1011.03 1632.71,1011.03 1633.95,1011.04 1635.19,1011.04 1636.44,1011.04 1637.68,1011.04 1638.92,1011.05 1640.17,1011.05 1641.41,1011.05 1642.66,1011.05 1643.9,1011.06 1645.14,1011.06 1646.39,1011.06 1647.63,1011.06 1648.87,1011.06 1650.12,1011.07 1651.36,1011.07 1652.6,1011.07 1653.85,1011.07 1655.09,1011.08 1656.34,1011.08 1657.58,1011.08 1658.82,1011.08 1660.07,1011.08 1661.31,1011.09 1662.55,1011.09 1663.8,1011.09 1665.04,1011.09 1666.28,1011.1 1667.53,1011.1 1668.77,1011.1 1670.01,1011.1 1671.26,1011.1 1672.5,1011.11 1673.75,1011.11 1674.99,1011.11 1676.23,1011.11 1677.48,1011.11 1678.72,1011.12 1679.96,1011.12 1681.21,1011.12 1682.45,1011.12 1683.69,1011.12 1684.94,1011.13 1686.18,1011.13 1687.43,1011.13 1688.67,1011.13 1689.91,1011.13 1691.16,1011.14 1692.4,1011.14 1693.64,1011.14 1694.89,1011.14 1696.13,1011.14 1697.37,1011.15 1698.62,1011.15 1699.86,1011.15 1701.1,1011.15 1702.35,1011.15 1703.59,1011.15 1704.84,1011.16 1706.08,1011.16 1707.32,1011.16 1708.57,1011.16 1709.81,1011.16 1711.05,1011.17 1712.3,1011.17 1713.54,1011.17 1714.78,1011.17 1716.03,1011.17 1717.27,1011.17 1718.52,1011.18 1719.76,1011.18 1721,1011.18 1722.25,1011.18 1723.49,1011.18 1724.73,1011.18 1725.98,1011.19 1727.22,1011.19 1728.46,1011.19 1729.71,1011.19 1730.95,1011.19 1732.2,1011.19 1733.44,1011.2 1734.68,1011.2 1735.93,1011.2 1737.17,1011.2 1738.41,1011.2 1739.66,1011.2 1740.9,1011.21 1742.14,1011.21 1743.39,1011.21 1744.63,1011.21 1745.87,1011.21 1747.12,1011.21 1748.36,1011.22 1749.61,1011.22 1750.85,1011.22 1752.09,1011.22 1753.34,1011.22 1754.58,1011.22 1755.82,1011.22 1757.07,1011.23 1758.31,1011.23 1759.55,1011.23 1760.8,1011.23 1762.04,1011.23 1763.29,1011.23 1764.53,1011.23 1765.77,1011.24 1767.02,1011.24 1768.26,1011.24 1769.5,1011.24 1770.75,1011.24 1771.99,1011.24 1773.23,1011.24 1774.48,1011.25 1775.72,1011.25 1776.97,1011.25 1778.21,1011.25 1779.45,1011.25 1780.7,1011.25 1781.94,1011.25 1783.18,1011.26 1784.43,1011.26 1785.67,1011.26 1786.91,1011.26 1788.16,1011.26 1789.4,1011.26 1790.64,1011.26 1791.89,1011.26 1793.13,1011.27 1794.38,1011.27 1795.62,1011.27 1796.86,1011.27 1798.11,1011.27 1799.35,1011.27 1800.59,1011.27 1801.84,1011.27 1803.08,1011.28 1804.32,1011.28 1805.57,1011.28 1806.81,1011.28 1808.06,1011.28 1809.3,1011.28 1810.54,1011.28 1811.79,1011.28 1813.03,1011.29 1814.27,1011.29 1815.52,1011.29 1816.76,1011.29 1818,1011.29 1819.25,1011.29 1820.49,1011.29 1821.73,1011.29 1822.98,1011.3 1824.22,1011.3 1825.47,1011.3 1826.71,1011.3 1827.95,1011.3 1829.2,1011.3 1830.44,1011.3 1831.68,1011.3 1832.93,1011.3 1834.17,1011.31 1835.41,1011.31 1836.66,1011.31 1837.9,1011.31 1839.15,1011.31 1840.39,1011.31 1841.63,1011.31 1842.88,1011.31 1844.12,1011.31 1845.36,1011.31 1846.61,1011.32 1847.85,1011.32 1849.09,1011.32 1850.34,1011.32 1851.58,1011.32 1852.83,1011.32 1854.07,1011.32 1855.31,1011.32 1856.56,1011.32 1857.8,1011.33 1859.04,1011.33 1860.29,1011.33 1861.53,1011.33 1862.77,1011.33 1864.02,1011.33 1865.26,1011.33 1866.5,1011.33 1867.75,1011.33 1868.99,1011.33 1870.24,1011.33 1871.48,1011.34 1872.72,1011.34 1873.97,1011.34 1875.21,1011.34 1876.45,1011.34 1877.7,1011.34 1878.94,1011.34 1880.18,1011.34 1881.43,1011.34 1882.67,1011.34 1883.92,1011.35 1885.16,1011.35 1886.4,1011.35 1887.65,1011.35 1888.89,1011.35 1890.13,1011.35 1891.38,1011.35 1892.62,1011.35 1893.86,1011.35 1895.11,1011.35 1896.35,1011.35 1897.6,1011.35 1898.84,1011.36 1900.08,1011.36 1901.33,1011.36 1902.57,1011.36 1903.81,1011.36 1905.06,1011.36 1906.3,1011.36 1907.54,1011.36 1908.79,1011.36 1910.03,1011.36 1911.27,1011.36 1912.52,1011.36 1913.76,1011.37 1915.01,1011.37 1916.25,1011.37 1917.49,1011.37 1918.74,1011.37 1919.98,1011.37 1921.22,1011.37 1922.47,1011.37 1923.71,1011.37 1924.95,1011.37 1926.2,1011.37 1927.44,1011.37 1928.69,1011.37 1929.93,1011.38 1931.17,1011.38 1932.42,1011.38 1933.66,1011.38 1934.9,1011.38 1936.15,1011.38 1937.39,1011.38 1938.63,1011.38 1939.88,1011.38 1941.12,1011.38 1942.37,1011.38 1943.61,1011.38 1944.85,1011.38 1946.1,1011.39 1947.34,1011.39 1948.58,1011.39 1949.83,1011.39 1951.07,1011.39 1952.31,1011.39 1953.56,1011.39 1954.8,1011.39 1956.04,1011.39 1957.29,1011.39 1958.53,1011.39 1959.78,1011.39 1961.02,1011.39 1962.26,1011.39 1963.51,1011.39 1964.75,1011.39 1965.99,1011.4 1967.24,1011.4 1968.48,1011.4 1969.72,1011.4 1970.97,1011.4 1972.21,1011.4 1973.46,1011.4 1974.7,1011.4 1975.94,1011.4 1977.19,1011.4 1978.43,1011.4 1979.67,1011.4 1980.92,1011.4 1982.16,1011.4 1983.4,1011.4 1984.65,1011.4 1985.89,1011.4 1987.13,1011.4 1988.38,1011.41 1989.62,1011.41 1990.87,1011.41 1992.11,1011.41 1993.35,1011.41 1994.6,1011.41 1995.84,1011.41 1997.08,1011.41 1998.33,1011.41 1999.57,1011.41 2000.81,1011.41 2002.06,1011.41 2003.3,1011.41 2004.55,1011.41 2005.79,1011.41 2007.03,1011.41 2008.28,1011.41 2009.52,1011.41 2010.76,1011.41 2012.01,1011.41 2013.25,1011.41 2014.49,1011.41 2015.74,1011.41 2016.98,1011.42 2018.23,1011.42 2019.47,1011.42 2020.71,1011.42 2021.96,1011.42 2023.2,1011.42 2024.44,1011.42 2025.69,1011.42 2026.93,1011.42 2028.17,1011.42 2029.42,1011.42 2030.66,1011.42 2031.9,1011.42 2033.15,1011.42 2034.39,1011.42 2035.64,1011.42 2036.88,1011.42 2038.12,1011.42 2039.37,1011.42 2040.61,1011.42 2041.85,1011.42 2043.1,1011.42 2044.34,1011.42 2045.58,1011.42 2046.83,1011.42 2048.07,1011.42 2049.32,1011.42 2050.56,1011.42 2051.8,1011.42 2053.05,1011.42 2054.29,1011.43 2055.53,1011.43 2056.78,1011.43 2058.02,1011.43 2059.26,1011.43 2060.51,1011.43 2061.75,1011.43 2063,1011.43 2064.24,1011.43 2065.48,1011.43 2066.73,1011.43 2067.97,1011.43 2069.21,1011.43 2070.46,1011.43 2071.7,1011.43 2072.94,1011.43 2074.19,1011.43 2075.43,1011.43 2076.67,1011.43 2077.92,1011.43 2079.16,1011.43 2080.41,1011.43 2081.65,1011.43 2082.89,1011.43 2084.14,1011.43 2085.38,1011.43 2086.62,1011.43 2087.87,1011.43 2089.11,1011.43 2090.35,1011.44 2091.6,1011.44 2092.84,1011.44 2094.09,1011.44 2095.33,1011.44 2096.57,1011.44 2097.82,1011.44 2099.06,1011.44 2100.3,1011.44 2101.55,1011.44 2102.79,1011.44 2104.03,1011.44 2105.28,1011.44 2106.52,1011.44 2107.76,1011.44 2109.01,1011.44 2110.25,1011.44 2111.5,1011.44 2112.74,1011.44 2113.98,1011.45 2115.23,1011.45 2116.47,1011.45 2117.71,1011.45 2118.96,1011.45 2120.2,1011.45 2121.44,1011.45 2122.69,1011.45 2123.93,1011.45 2125.18,1011.45 2126.42,1011.45 2127.66,1011.45 2128.91,1011.45 2130.15,1011.46 2131.39,1011.46 2132.64,1011.46 2133.88,1011.46 2135.12,1011.46 2136.37,1011.46 2137.61,1011.46 2138.86,1011.46 2140.1,1011.46 2141.34,1011.46 2142.59,1011.46 2143.83,1011.47 2145.07,1011.47 2146.32,1011.47 2147.56,1011.47 2148.8,1011.47 2150.05,1011.47 2151.29,1011.47 2152.53,1011.47 2153.78,1011.47 2155.02,1011.48 2156.27,1011.48 2157.51,1011.48 2158.75,1011.48 2160,1011.48 2161.24,1011.48 2162.48,1011.48 2163.73,1011.48 2164.97,1011.49 2166.21,1011.49 2167.46,1011.49 2168.7,1011.49 2169.95,1011.49 2171.19,1011.49 2172.43,1011.49 2173.68,1011.5 2174.92,1011.5 2176.16,1011.5 2177.41,1011.5 2178.65,1011.5 2179.89,1011.5 2181.14,1011.5 2182.38,1011.51 2183.63,1011.51 2184.87,1011.51 2186.11,1011.51 2187.36,1011.51 2188.6,1011.51 2189.84,1011.51 2191.09,1011.52 2192.33,1011.52 2193.57,1011.52 2194.82,1011.52 2196.06,1011.52 2197.3,1011.52 2198.55,1011.53 2199.79,1011.53 2201.04,1011.53 2202.28,1011.53 2203.52,1011.53 2204.77,1011.53 2206.01,1011.53 2207.25,1011.54 2208.5,1011.54 2209.74,1011.54 2210.98,1011.54 2212.23,1011.54 2213.47,1011.54 2214.72,1011.54 2215.96,1011.55 2217.2,1011.55 2218.45,1011.55 2219.69,1011.55 2220.93,1011.55 2222.18,1011.55 2223.42,1011.55 2224.66,1011.55 2225.91,1011.55 2227.15,1011.56 2228.4,1011.56 2229.64,1011.56 2230.88,1011.56 2232.13,1011.56 2233.37,1011.56 2234.61,1011.56 2235.86,1011.56 2237.1,1011.56 2238.34,1011.56 2239.59,1011.56 2240.83,1011.56 2242.07,1011.56 2243.32,1011.57 2244.56,1011.57 2245.81,1011.57 2247.05,1011.57 2248.29,1011.57 2249.54,1011.57 2250.78,1011.57 2252.02,1011.57 2253.27,1011.57 2254.51,1011.57 2255.75,1011.57 2257,1011.57 2258.24,1011.57 2259.49,1011.57 2260.73,1011.57 2261.97,1011.57 2263.22,1011.56 2264.46,1011.56 2265.7,1011.56 2266.95,1011.56 2268.19,1011.56 2269.43,1011.56 2270.68,1011.56 2271.92,1011.56 2273.16,1011.56 2274.41,1011.56 2275.65,1011.56 2276.9,1011.56 2278.14,1011.56 2279.38,1011.56 2280.63,1011.55 2281.87,1011.55 2283.11,1011.55 2284.36,1011.55 2285.6,1011.55 2286.84,1011.55 2288.09,1011.55 2289.33,1011.55 2290.58,1011.55 2291.82,1011.55 2293.06,1011.54 2294.31,1011.54 2295.55,1011.54 2296.79,1011.54 "/>
<polyline clip-path="url(#clip982)" style="stroke:#e26f46; stroke-linecap:round; stroke-linejoin:round; stroke-width:4; stroke-opacity:1; fill:none" points="431.38,86.1857 432.624,86.2167 433.868,86.3096 435.111,86.4645 436.355,86.6813 437.599,86.9601 438.842,87.3007 440.086,87.7032 441.329,88.1675 442.573,88.6935 443.817,89.2813 445.06,89.9307 446.304,90.6418 447.547,91.4143 448.791,92.2483 450.035,93.1436 451.278,94.1002 452.522,95.1179 453.765,96.1968 455.009,97.3365 456.253,98.5372 457.496,99.7985 458.74,101.12 459.983,102.503 461.227,103.946 462.471,105.449 463.714,107.012 464.958,108.634 466.202,110.317 467.445,112.059 468.689,113.86 469.932,115.721 471.176,117.641 472.42,119.619 473.663,121.656 474.907,123.752 476.15,125.905 477.394,128.117 478.638,130.386 479.881,132.713 481.125,135.097 482.368,137.539 483.612,140.037 484.856,142.591 486.099,145.202 487.343,147.869 488.586,150.592 489.83,153.371 491.074,156.204 492.317,159.093 493.561,162.036 494.805,165.033 496.048,168.085 497.292,171.19 498.535,174.349 499.779,177.561 501.023,180.825 502.266,184.143 503.51,187.512 504.753,190.933 505.997,194.406 507.241,197.93 508.484,201.504 509.728,205.129 510.971,208.804 512.215,212.529 513.459,216.303 514.702,220.126 515.946,223.998 517.189,227.917 518.433,231.885 519.677,235.9 520.92,239.962 522.164,244.07 523.408,248.225 524.651,252.426 525.895,256.671 527.138,260.962 528.382,265.297 529.626,269.677 530.869,274.1 532.113,278.566 533.356,283.075 534.6,287.626 535.844,292.22 537.087,296.854 538.331,301.53 539.574,306.246 540.818,311.002 542.062,315.797 543.305,320.632 544.549,325.505 545.792,330.416 547.036,335.365 548.28,340.352 549.523,345.374 550.767,350.433 552.011,355.528 553.254,360.658 554.498,365.822 555.741,371.021 556.985,376.253 558.229,381.518 559.472,386.816 560.716,392.146 561.959,397.507 563.203,402.9 564.447,408.323 565.69,413.776 566.934,419.258 568.177,424.769 569.421,430.309 570.665,435.877 571.908,441.471 573.152,447.093 574.395,452.74 575.639,458.414 576.883,464.112 578.126,469.835 579.37,475.581 580.614,481.352 581.857,487.144 583.101,492.96 584.344,498.797 585.588,504.655 586.832,510.533 588.075,516.432 589.319,522.35 590.562,528.287 591.806,534.242 593.05,540.215 594.293,546.205 595.537,552.211 596.78,558.233 598.024,564.271 599.268,570.324 600.511,576.39 601.755,582.471 602.998,588.564 604.242,594.67 605.486,600.788 606.729,606.917 607.973,613.057 609.217,619.206 610.46,625.366 611.704,631.534 612.947,637.71 614.191,643.895 615.435,650.086 616.678,656.284 617.922,662.488 619.165,668.697 620.409,674.911 621.653,681.129 622.896,687.351 624.14,693.576 625.383,699.803 626.627,706.032 627.871,712.263 629.114,718.494 630.358,724.725 631.601,730.955 632.845,737.184 634.089,743.412 635.332,749.638 636.576,755.86 637.82,762.079 639.063,768.294 640.307,774.504 641.55,780.71 642.794,786.909 644.038,793.102 645.281,799.288 646.525,805.467 647.768,811.637 649.012,817.799 650.256,823.952 651.499,830.094 652.743,836.227 653.986,842.348 655.23,848.458 656.474,854.556 657.717,860.641 658.961,866.713 660.204,872.771 661.448,878.815 662.692,884.845 663.935,890.858 665.179,896.856 666.423,902.837 667.666,908.802 668.91,914.748 670.153,920.677 671.397,926.587 672.641,932.477 673.884,938.348 675.128,944.199 676.371,950.029 677.615,955.838 678.859,961.624 680.102,967.389 681.346,973.13 682.589,978.849 683.833,984.543 685.077,990.213 686.32,995.858 687.564,1001.48 688.807,1007.07 690.051,1012.64 691.295,1018.18 692.538,1023.69 693.782,1029.18 695.026,1034.64 696.269,1040.06 697.513,1045.46 698.756,1050.83 700,1056.17 701.244,1061.48 702.487,1066.76 703.731,1072.01 704.974,1077.22 706.218,1082.4 707.462,1087.55 708.705,1092.67 709.949,1097.75 711.192,1102.79 712.436,1107.81 713.68,1112.79 714.923,1117.73 716.167,1122.64 717.41,1127.51 718.654,1132.34 719.898,1137.14 721.141,1141.9 722.385,1146.62 723.629,1151.3 724.872,1155.95 726.116,1160.55 727.359,1165.12 728.603,1169.65 729.847,1174.13 731.09,1178.58 732.334,1182.99 733.577,1187.35 734.821,1191.67 736.065,1195.96 737.308,1200.2 738.552,1204.39 739.795,1208.55 741.039,1212.66 742.283,1216.73 743.526,1220.75 744.77,1224.73 746.013,1228.67 747.257,1232.56 748.501,1236.41 749.744,1240.21 750.988,1243.96 752.232,1247.67 753.475,1251.34 754.719,1254.96 755.962,1258.53 757.206,1262.06 758.45,1265.53 759.693,1268.97 760.937,1272.35 762.18,1275.69 763.424,1278.97 764.668,1282.21 765.911,1285.41 767.155,1288.55 768.398,1291.65 769.642,1294.69 770.886,1297.69 772.129,1300.64 773.373,1303.54 774.616,1306.39 775.86,1309.18 777.104,1311.93 778.347,1314.63 779.591,1317.28 780.835,1319.88 782.078,1322.43 783.322,1324.93 784.565,1327.38 785.809,1329.77 787.053,1332.12 788.296,1334.41 789.54,1336.66 790.783,1338.85 792.027,1340.99 793.271,1343.08 794.514,1345.11 795.758,1347.1 797.001,1349.04 798.245,1350.92 799.489,1352.75 800.732,1354.53 801.976,1356.26 803.219,1357.93 804.463,1359.56 805.707,1361.13 806.95,1362.65 808.194,1364.12 809.438,1365.53 810.681,1366.9 811.925,1368.21 813.168,1369.47 814.412,1370.68 815.656,1371.83 816.899,1372.94 818.143,1373.99 819.386,1374.99 820.63,1375.94 821.874,1376.83 823.117,1377.68 824.361,1378.47 825.604,1379.22 826.848,1379.91 828.092,1380.54 829.335,1381.13 830.579,1381.67 831.822,1382.15 833.066,1382.59 834.31,1382.97 835.553,1383.3 836.797,1383.59 838.041,1383.82 839.284,1384 840.528,1384.13 841.771,1384.21 843.015,1384.24 844.259,1384.22 845.502,1384.15 846.746,1384.03 847.989,1383.86 849.233,1383.64 850.477,1383.38 851.72,1383.06 852.964,1382.69 854.207,1382.28 855.451,1381.82 856.695,1381.31 857.938,1380.75 859.182,1380.15 860.425,1379.49 861.669,1378.79 862.913,1378.04 864.156,1377.25 865.4,1376.41 866.644,1375.52 867.887,1374.59 869.131,1373.61 870.374,1372.58 871.618,1371.51 872.862,1370.4 874.105,1369.24 875.349,1368.03 876.592,1366.78 877.836,1365.49 879.08,1364.15 880.323,1362.77 881.567,1361.35 882.81,1359.88 884.054,1358.37 885.298,1356.82 886.541,1355.23 887.785,1353.59 889.028,1351.91 890.272,1350.2 891.516,1348.44 892.759,1346.64 894.003,1344.8 895.247,1342.93 896.49,1341.01 897.734,1339.05 898.977,1337.06 900.221,1335.02 901.465,1332.95 902.708,1330.85 903.952,1328.7 905.195,1326.52 906.439,1324.3 907.683,1322.04 908.926,1319.75 910.17,1317.43 911.413,1315.07 912.657,1312.67 913.901,1310.24 915.144,1307.78 916.388,1305.29 917.631,1302.76 918.875,1300.2 920.119,1297.6 921.362,1294.98 922.606,1292.32 923.85,1289.63 925.093,1286.92 926.337,1284.17 927.58,1281.39 928.824,1278.58 930.068,1275.78 931.311,1273 932.555,1270.26 933.798,1267.54 935.042,1264.85 936.286,1262.19 937.529,1259.56 938.773,1256.96 940.016,1254.39 941.26,1251.84 942.504,1249.32 943.747,1246.83 944.991,1244.36 946.234,1241.92 947.478,1239.51 948.722,1237.12 949.965,1234.75 951.209,1232.42 952.453,1230.1 953.696,1227.82 954.94,1225.55 956.183,1223.31 957.427,1221.09 958.671,1218.9 959.914,1216.73 961.158,1214.59 962.401,1212.46 963.645,1210.36 964.889,1208.28 966.132,1206.23 967.376,1204.19 968.619,1202.18 969.863,1200.18 971.107,1198.21 972.35,1196.26 973.594,1194.33 974.837,1192.42 976.081,1190.53 977.325,1188.66 978.568,1186.81 979.812,1184.98 981.056,1183.17 982.299,1181.38 983.543,1179.61 984.786,1177.85 986.03,1176.12 987.274,1174.4 988.517,1172.7 989.761,1171.02 991.004,1169.35 992.248,1167.71 993.492,1166.08 994.735,1164.47 995.979,1162.87 997.222,1161.29 998.466,1159.73 999.71,1158.18 1000.95,1156.66 1002.2,1155.14 1003.44,1153.64 1004.68,1152.16 1005.93,1150.7 1007.17,1149.24 1008.41,1147.81 1009.66,1146.39 1010.9,1144.98 1012.15,1143.59 1013.39,1142.21 1014.63,1140.85 1015.88,1139.5 1017.12,1138.17 1018.36,1136.84 1019.61,1135.54 1020.85,1134.24 1022.09,1132.96 1023.34,1131.7 1024.58,1130.44 1025.83,1129.2 1027.07,1127.98 1028.31,1126.76 1029.56,1125.56 1030.8,1124.37 1032.04,1123.19 1033.29,1122.03 1034.53,1120.87 1035.77,1119.73 1037.02,1118.6 1038.26,1117.48 1039.51,1116.38 1040.75,1115.28 1041.99,1114.2 1043.24,1113.12 1044.48,1112.06 1045.72,1111.01 1046.97,1109.97 1048.21,1108.94 1049.45,1107.92 1050.7,1106.92 1051.94,1105.92 1053.18,1104.93 1054.43,1103.95 1055.67,1102.99 1056.92,1102.03 1058.16,1101.08 1059.4,1100.14 1060.65,1099.21 1061.89,1098.3 1063.13,1097.39 1064.38,1096.49 1065.62,1095.59 1066.86,1094.71 1068.11,1093.84 1069.35,1092.98 1070.6,1092.12 1071.84,1091.27 1073.08,1090.44 1074.33,1089.61 1075.57,1088.78 1076.81,1087.97 1078.06,1087.17 1079.3,1086.37 1080.54,1085.58 1081.79,1084.8 1083.03,1084.03 1084.28,1083.26 1085.52,1082.51 1086.76,1081.76 1088.01,1081.02 1089.25,1080.28 1090.49,1079.56 1091.74,1078.84 1092.98,1078.12 1094.22,1077.42 1095.47,1076.72 1096.71,1076.03 1097.95,1075.34 1099.2,1074.67 1100.44,1074 1101.69,1073.33 1102.93,1072.67 1104.17,1072.02 1105.42,1071.38 1106.66,1070.74 1107.9,1070.11 1109.15,1069.48 1110.39,1068.87 1111.63,1068.25 1112.88,1067.65 1114.12,1067.04 1115.37,1066.45 1116.61,1065.86 1117.85,1065.28 1119.1,1064.7 1120.34,1064.13 1121.58,1063.56 1122.83,1063 1124.07,1062.45 1125.31,1061.9 1126.56,1061.35 1127.8,1060.81 1129.04,1060.28 1130.29,1059.75 1131.53,1059.23 1132.78,1058.71 1134.02,1058.2 1135.26,1057.69 1136.51,1057.18 1137.75,1056.69 1138.99,1056.19 1140.24,1055.7 1141.48,1055.22 1142.72,1054.74 1143.97,1054.26 1145.21,1053.79 1146.46,1053.33 1147.7,1052.87 1148.94,1052.41 1150.19,1051.96 1151.43,1051.51 1152.67,1051.06 1153.92,1050.62 1155.16,1050.19 1156.4,1049.76 1157.65,1049.33 1158.89,1048.91 1160.14,1048.49 1161.38,1048.07 1162.62,1047.66 1163.87,1047.25 1165.11,1046.85 1166.35,1046.45 1167.6,1046.05 1168.84,1045.66 1170.08,1045.27 1171.33,1044.88 1172.57,1044.5 1173.81,1044.12 1175.06,1043.75 1176.3,1043.38 1177.55,1043.01 1178.79,1042.64 1180.03,1042.28 1181.28,1041.92 1182.52,1041.57 1183.76,1041.22 1185.01,1040.87 1186.25,1040.52 1187.49,1040.18 1188.74,1039.84 1189.98,1039.5 1191.23,1039.17 1192.47,1038.84 1193.71,1038.51 1194.96,1038.19 1196.2,1037.87 1197.44,1037.55 1198.69,1037.23 1199.93,1036.92 1201.17,1036.61 1202.42,1036.3 1203.66,1035.99 1204.91,1035.69 1206.15,1035.39 1207.39,1035.09 1208.64,1034.8 1209.88,1034.51 1211.12,1034.22 1212.37,1033.93 1213.61,1033.64 1214.85,1033.36 1216.1,1033.08 1217.34,1032.8 1218.58,1032.53 1219.83,1032.25 1221.07,1031.98 1222.32,1031.71 1223.56,1031.44 1224.8,1031.18 1226.05,1030.92 1227.29,1030.66 1228.53,1030.4 1229.78,1030.14 1231.02,1029.89 1232.26,1029.64 1233.51,1029.38 1234.75,1029.14 1236,1028.89 1237.24,1028.65 1238.48,1028.4 1239.73,1028.16 1240.97,1027.92 1242.21,1027.68 1243.46,1027.45 1244.7,1027.22 1245.94,1026.98 1247.19,1026.75 1248.43,1026.52 1249.68,1026.3 1250.92,1026.07 1252.16,1025.85 1253.41,1025.63 1254.65,1025.41 1255.89,1025.19 1257.14,1024.97 1258.38,1024.75 1259.62,1024.54 1260.87,1024.32 1262.11,1024.11 1263.35,1023.9 1264.6,1023.69 1265.84,1023.49 1267.09,1023.28 1268.33,1023.07 1269.57,1022.87 1270.82,1022.67 1272.06,1022.47 1273.3,1022.27 1274.55,1022.07 1275.79,1021.87 1277.03,1021.68 1278.28,1021.48 1279.52,1021.29 1280.77,1021.09 1282.01,1020.9 1283.25,1020.71 1284.5,1020.52 1285.74,1020.33 1286.98,1020.15 1288.23,1019.96 1289.47,1019.78 1290.71,1019.59 1291.96,1019.41 1293.2,1019.23 1294.44,1019.04 1295.69,1018.86 1296.93,1018.68 1298.18,1018.5 1299.42,1018.33 1300.66,1018.15 1301.91,1017.97 1303.15,1017.8 1304.39,1017.62 1305.64,1017.44 1306.88,1017.27 1308.12,1017.09 1309.37,1016.91 1310.61,1016.74 1311.86,1016.56 1313.1,1016.38 1314.34,1016.2 1315.59,1016.02 1316.83,1015.84 1318.07,1015.67 1319.32,1015.49 1320.56,1015.31 1321.8,1015.13 1323.05,1014.95 1324.29,1014.77 1325.54,1014.59 1326.78,1014.41 1328.02,1014.23 1329.27,1014.05 1330.51,1013.88 1331.75,1013.7 1333,1013.52 1334.24,1013.34 1335.48,1013.16 1336.73,1012.98 1337.97,1012.8 1339.21,1012.62 1340.46,1012.44 1341.7,1012.27 1342.95,1012.09 1344.19,1011.91 1345.43,1011.73 1346.68,1011.56 1347.92,1011.38 1349.16,1011.2 1350.41,1011.02 1351.65,1010.85 1352.89,1010.67 1354.14,1010.5 1355.38,1010.32 1356.63,1010.15 1357.87,1009.97 1359.11,1009.8 1360.36,1009.62 1361.6,1009.45 1362.84,1009.28 1364.09,1009.1 1365.33,1008.93 1366.57,1008.76 1367.82,1008.59 1369.06,1008.42 1370.31,1008.25 1371.55,1008.08 1372.79,1007.91 1374.04,1007.74 1375.28,1007.57 1376.52,1007.4 1377.77,1007.23 1379.01,1007.07 1380.25,1006.9 1381.5,1006.74 1382.74,1006.57 1383.98,1006.41 1385.23,1006.24 1386.47,1006.08 1387.72,1005.92 1388.96,1005.76 1390.2,1005.6 1391.45,1005.44 1392.69,1005.28 1393.93,1005.12 1395.18,1004.96 1396.42,1004.81 1397.66,1004.65 1398.91,1004.5 1400.15,1004.34 1401.4,1004.19 1402.64,1004.03 1403.88,1003.88 1405.13,1003.73 1406.37,1003.58 1407.61,1003.43 1408.86,1003.28 1410.1,1003.14 1411.34,1002.99 1412.59,1002.85 1413.83,1002.7 1415.07,1002.56 1416.32,1002.42 1417.56,1002.27 1418.81,1002.13 1420.05,1001.99 1421.29,1001.86 1422.54,1001.72 1423.78,1001.58 1425.02,1001.45 1426.27,1001.31 1427.51,1001.18 1428.75,1001.05 1430,1000.92 1431.24,1000.79 1432.49,1000.66 1433.73,1000.53 1434.97,1000.4 1436.22,1000.28 1437.46,1000.15 1438.7,1000.03 1439.95,999.907 1441.19,999.787 1442.43,999.667 1443.68,999.549 1444.92,999.431 1446.17,999.316 1447.41,999.201 1448.65,999.087 1449.9,998.975 1451.14,998.864 1452.38,998.754 1453.63,998.646 1454.87,998.539 1456.11,998.433 1457.36,998.328 1458.6,998.225 1459.84,998.123 1461.09,998.022 1462.33,997.923 1463.58,997.825 1464.82,997.728 1466.06,997.633 1467.31,997.539 1468.55,997.446 1469.79,997.355 1471.04,997.265 1472.28,997.177 1473.52,997.089 1474.77,997.004 1476.01,996.919 1477.26,996.836 1478.5,996.755 1479.74,996.675 1480.99,996.596 1482.23,996.518 1483.47,996.443 1484.72,996.368 1485.96,996.295 1487.2,996.223 1488.45,996.153 1489.69,996.085 1490.94,996.017 1492.18,995.952 1493.42,995.887 1494.67,995.824 1495.91,995.763 1497.15,995.703 1498.4,995.645 1499.64,995.588 1500.88,995.532 1502.13,995.478 1503.37,995.426 1504.61,995.375 1505.86,995.325 1507.1,995.277 1508.35,995.231 1509.59,995.186 1510.83,995.142 1512.08,995.1 1513.32,995.06 1514.56,995.021 1515.81,994.983 1517.05,994.947 1518.29,994.913 1519.54,994.88 1520.78,994.848 1522.03,994.819 1523.27,994.79 1524.51,994.763 1525.76,994.738 1527,994.714 1528.24,994.692 1529.49,994.671 1530.73,994.652 1531.97,994.634 1533.22,994.618 1534.46,994.603 1535.7,994.59 1536.95,994.579 1538.19,994.569 1539.44,994.56 1540.68,994.553 1541.92,994.547 1543.17,994.543 1544.41,994.541 1545.65,994.54 1546.9,994.54 1548.14,994.542 1549.38,994.546 1550.63,994.551 1551.87,994.557 1553.12,994.566 1554.36,994.575 1555.6,994.586 1556.85,994.599 1558.09,994.613 1559.33,994.628 1560.58,994.645 1561.82,994.664 1563.06,994.684 1564.31,994.705 1565.55,994.728 1566.8,994.753 1568.04,994.778 1569.28,994.806 1570.53,994.835 1571.77,994.865 1573.01,994.896 1574.26,994.93 1575.5,994.964 1576.74,995 1577.99,995.038 1579.23,995.077 1580.47,995.117 1581.72,995.159 1582.96,995.202 1584.21,995.246 1585.45,995.292 1586.69,995.34 1587.94,995.388 1589.18,995.438 1590.42,995.49 1591.67,995.543 1592.91,995.597 1594.15,995.653 1595.4,995.709 1596.64,995.768 1597.89,995.827 1599.13,995.888 1600.37,995.951 1601.62,996.014 1602.86,996.079 1604.1,996.145 1605.35,996.213 1606.59,996.282 1607.83,996.352 1609.08,996.423 1610.32,996.496 1611.57,996.57 1612.81,996.645 1614.05,996.722 1615.3,996.799 1616.54,996.878 1617.78,996.958 1619.03,997.04 1620.27,997.122 1621.51,997.206 1622.76,997.291 1624,997.377 1625.24,997.464 1626.49,997.553 1627.73,997.642 1628.98,997.733 1630.22,997.825 1631.46,997.918 1632.71,998.012 1633.95,998.107 1635.19,998.203 1636.44,998.301 1637.68,998.399 1638.92,998.499 1640.17,998.599 1641.41,998.701 1642.66,998.804 1643.9,998.908 1645.14,999.012 1646.39,999.118 1647.63,999.225 1648.87,999.333 1650.12,999.441 1651.36,999.551 1652.6,999.662 1653.85,999.773 1655.09,999.886 1656.34,999.999 1657.58,1000.11 1658.82,1000.23 1660.07,1000.35 1661.31,1000.46 1662.55,1000.58 1663.8,1000.7 1665.04,1000.82 1666.28,1000.94 1667.53,1001.06 1668.77,1001.18 1670.01,1001.31 1671.26,1001.43 1672.5,1001.55 1673.75,1001.68 1674.99,1001.8 1676.23,1001.93 1677.48,1002.06 1678.72,1002.19 1679.96,1002.32 1681.21,1002.45 1682.45,1002.58 1683.69,1002.71 1684.94,1002.84 1686.18,1002.97 1687.43,1003.1 1688.67,1003.24 1689.91,1003.37 1691.16,1003.51 1692.4,1003.64 1693.64,1003.78 1694.89,1003.91 1696.13,1004.05 1697.37,1004.19 1698.62,1004.33 1699.86,1004.46 1701.1,1004.6 1702.35,1004.74 1703.59,1004.88 1704.84,1005.02 1706.08,1005.16 1707.32,1005.3 1708.57,1005.45 1709.81,1005.59 1711.05,1005.73 1712.3,1005.87 1713.54,1006.02 1714.78,1006.16 1716.03,1006.3 1717.27,1006.45 1718.52,1006.59 1719.76,1006.74 1721,1006.88 1722.25,1007.03 1723.49,1007.17 1724.73,1007.32 1725.98,1007.47 1727.22,1007.61 1728.46,1007.76 1729.71,1007.91 1730.95,1008.05 1732.2,1008.2 1733.44,1008.35 1734.68,1008.5 1735.93,1008.64 1737.17,1008.79 1738.41,1008.94 1739.66,1009.09 1740.9,1009.24 1742.14,1009.38 1743.39,1009.53 1744.63,1009.68 1745.87,1009.83 1747.12,1009.98 1748.36,1010.12 1749.61,1010.27 1750.85,1010.42 1752.09,1010.57 1753.34,1010.72 1754.58,1010.87 1755.82,1011.01 1757.07,1011.16 1758.31,1011.31 1759.55,1011.46 1760.8,1011.6 1762.04,1011.75 1763.29,1011.9 1764.53,1012.05 1765.77,1012.19 1767.02,1012.34 1768.26,1012.49 1769.5,1012.63 1770.75,1012.78 1771.99,1012.93 1773.23,1013.07 1774.48,1013.22 1775.72,1013.36 1776.97,1013.51 1778.21,1013.65 1779.45,1013.79 1780.7,1013.94 1781.94,1014.08 1783.18,1014.22 1784.43,1014.37 1785.67,1014.51 1786.91,1014.65 1788.16,1014.79 1789.4,1014.93 1790.64,1015.07 1791.89,1015.22 1793.13,1015.36 1794.38,1015.49 1795.62,1015.63 1796.86,1015.77 1798.11,1015.91 1799.35,1016.05 1800.59,1016.18 1801.84,1016.32 1803.08,1016.46 1804.32,1016.59 1805.57,1016.73 1806.81,1016.86 1808.06,1016.99 1809.3,1017.13 1810.54,1017.26 1811.79,1017.39 1813.03,1017.52 1814.27,1017.65 1815.52,1017.78 1816.76,1017.91 1818,1018.04 1819.25,1018.17 1820.49,1018.29 1821.73,1018.42 1822.98,1018.54 1824.22,1018.67 1825.47,1018.79 1826.71,1018.92 1827.95,1019.04 1829.2,1019.16 1830.44,1019.28 1831.68,1019.4 1832.93,1019.52 1834.17,1019.64 1835.41,1019.76 1836.66,1019.87 1837.9,1019.99 1839.15,1020.11 1840.39,1020.22 1841.63,1020.33 1842.88,1020.45 1844.12,1020.56 1845.36,1020.67 1846.61,1020.78 1847.85,1020.89 1849.09,1021 1850.34,1021.1 1851.58,1021.21 1852.83,1021.31 1854.07,1021.42 1855.31,1021.52 1856.56,1021.62 1857.8,1021.73 1859.04,1021.83 1860.29,1021.93 1861.53,1022.02 1862.77,1022.12 1864.02,1022.22 1865.26,1022.31 1866.5,1022.41 1867.75,1022.5 1868.99,1022.59 1870.24,1022.68 1871.48,1022.77 1872.72,1022.86 1873.97,1022.95 1875.21,1023.04 1876.45,1023.12 1877.7,1023.21 1878.94,1023.29 1880.18,1023.37 1881.43,1023.45 1882.67,1023.53 1883.92,1023.61 1885.16,1023.69 1886.4,1023.77 1887.65,1023.84 1888.89,1023.92 1890.13,1023.99 1891.38,1024.06 1892.62,1024.13 1893.86,1024.2 1895.11,1024.27 1896.35,1024.34 1897.6,1024.41 1898.84,1024.47 1900.08,1024.53 1901.33,1024.6 1902.57,1024.66 1903.81,1024.72 1905.06,1024.78 1906.3,1024.83 1907.54,1024.89 1908.79,1024.95 1910.03,1025 1911.27,1025.05 1912.52,1025.1 1913.76,1025.15 1915.01,1025.2 1916.25,1025.25 1917.49,1025.3 1918.74,1025.34 1919.98,1025.39 1921.22,1025.43 1922.47,1025.47 1923.71,1025.51 1924.95,1025.55 1926.2,1025.59 1927.44,1025.62 1928.69,1025.66 1929.93,1025.69 1931.17,1025.72 1932.42,1025.75 1933.66,1025.78 1934.9,1025.81 1936.15,1025.84 1937.39,1025.86 1938.63,1025.88 1939.88,1025.9 1941.12,1025.92 1942.37,1025.94 1943.61,1025.96 1944.85,1025.97 1946.1,1025.98 1947.34,1025.99 1948.58,1026 1949.83,1026.01 1951.07,1026.01 1952.31,1026.01 1953.56,1026.01 1954.8,1026.01 1956.04,1026.01 1957.29,1026 1958.53,1025.99 1959.78,1025.98 1961.02,1025.97 1962.26,1025.95 1963.51,1025.93 1964.75,1025.91 1965.99,1025.89 1967.24,1025.87 1968.48,1025.84 1969.72,1025.81 1970.97,1025.78 1972.21,1025.75 1973.46,1025.71 1974.7,1025.67 1975.94,1025.63 1977.19,1025.59 1978.43,1025.54 1979.67,1025.49 1980.92,1025.44 1982.16,1025.39 1983.4,1025.33 1984.65,1025.27 1985.89,1025.21 1987.13,1025.15 1988.38,1025.08 1989.62,1025.01 1990.87,1024.94 1992.11,1024.87 1993.35,1024.79 1994.6,1024.71 1995.84,1024.63 1997.08,1024.55 1998.33,1024.46 1999.57,1024.37 2000.81,1024.28 2002.06,1024.19 2003.3,1024.09 2004.55,1024 2005.79,1023.9 2007.03,1023.8 2008.28,1023.69 2009.52,1023.58 2010.76,1023.48 2012.01,1023.36 2013.25,1023.25 2014.49,1023.14 2015.74,1023.02 2016.98,1022.9 2018.23,1022.78 2019.47,1022.66 2020.71,1022.53 2021.96,1022.41 2023.2,1022.28 2024.44,1022.15 2025.69,1022.02 2026.93,1021.89 2028.17,1021.75 2029.42,1021.62 2030.66,1021.48 2031.9,1021.34 2033.15,1021.21 2034.39,1021.07 2035.64,1020.92 2036.88,1020.78 2038.12,1020.64 2039.37,1020.5 2040.61,1020.35 2041.85,1020.21 2043.1,1020.06 2044.34,1019.91 2045.58,1019.77 2046.83,1019.62 2048.07,1019.47 2049.32,1019.32 2050.56,1019.17 2051.8,1019.03 2053.05,1018.88 2054.29,1018.73 2055.53,1018.58 2056.78,1018.43 2058.02,1018.29 2059.26,1018.14 2060.51,1017.99 2061.75,1017.85 2063,1017.7 2064.24,1017.56 2065.48,1017.41 2066.73,1017.27 2067.97,1017.12 2069.21,1016.98 2070.46,1016.84 2071.7,1016.7 2072.94,1016.56 2074.19,1016.43 2075.43,1016.29 2076.67,1016.16 2077.92,1016.02 2079.16,1015.89 2080.41,1015.76 2081.65,1015.63 2082.89,1015.51 2084.14,1015.38 2085.38,1015.26 2086.62,1015.13 2087.87,1015.01 2089.11,1014.9 2090.35,1014.78 2091.6,1014.66 2092.84,1014.55 2094.09,1014.44 2095.33,1014.33 2096.57,1014.23 2097.82,1014.12 2099.06,1014.02 2100.3,1013.92 2101.55,1013.82 2102.79,1013.73 2104.03,1013.63 2105.28,1013.54 2106.52,1013.45 2107.76,1013.36 2109.01,1013.28 2110.25,1013.2 2111.5,1013.12 2112.74,1013.04 2113.98,1012.96 2115.23,1012.89 2116.47,1012.82 2117.71,1012.75 2118.96,1012.68 2120.2,1012.61 2121.44,1012.55 2122.69,1012.49 2123.93,1012.43 2125.18,1012.37 2126.42,1012.32 2127.66,1012.27 2128.91,1012.21 2130.15,1012.17 2131.39,1012.12 2132.64,1012.07 2133.88,1012.03 2135.12,1011.99 2136.37,1011.95 2137.61,1011.91 2138.86,1011.88 2140.1,1011.84 2141.34,1011.81 2142.59,1011.78 2143.83,1011.75 2145.07,1011.72 2146.32,1011.69 2147.56,1011.67 2148.8,1011.65 2150.05,1011.62 2151.29,1011.6 2152.53,1011.58 2153.78,1011.57 2155.02,1011.55 2156.27,1011.53 2157.51,1011.52 2158.75,1011.5 2160,1011.49 2161.24,1011.48 2162.48,1011.47 2163.73,1011.46 2164.97,1011.45 2166.21,1011.44 2167.46,1011.44 2168.7,1011.43 2169.95,1011.42 2171.19,1011.42 2172.43,1011.41 2173.68,1011.41 2174.92,1011.41 2176.16,1011.4 2177.41,1011.4 2178.65,1011.4 2179.89,1011.4 2181.14,1011.4 2182.38,1011.4 2183.63,1011.4 2184.87,1011.4 2186.11,1011.4 2187.36,1011.4 2188.6,1011.4 2189.84,1011.4 2191.09,1011.41 2192.33,1011.41 2193.57,1011.41 2194.82,1011.41 2196.06,1011.42 2197.3,1011.42 2198.55,1011.42 2199.79,1011.42 2201.04,1011.43 2202.28,1011.43 2203.52,1011.43 2204.77,1011.44 2206.01,1011.44 2207.25,1011.44 2208.5,1011.44 2209.74,1011.45 2210.98,1011.45 2212.23,1011.45 2213.47,1011.46 2214.72,1011.46 2215.96,1011.46 2217.2,1011.47 2218.45,1011.47 2219.69,1011.47 2220.93,1011.48 2222.18,1011.48 2223.42,1011.48 2224.66,1011.48 2225.91,1011.49 2227.15,1011.49 2228.4,1011.49 2229.64,1011.49 2230.88,1011.5 2232.13,1011.5 2233.37,1011.5 2234.61,1011.5 2235.86,1011.5 2237.1,1011.51 2238.34,1011.51 2239.59,1011.51 2240.83,1011.51 2242.07,1011.51 2243.32,1011.51 2244.56,1011.52 2245.81,1011.52 2247.05,1011.52 2248.29,1011.52 2249.54,1011.52 2250.78,1011.52 2252.02,1011.52 2253.27,1011.53 2254.51,1011.53 2255.75,1011.53 2257,1011.53 2258.24,1011.53 2259.49,1011.53 2260.73,1011.53 2261.97,1011.53 2263.22,1011.53 2264.46,1011.53 2265.7,1011.53 2266.95,1011.53 2268.19,1011.53 2269.43,1011.53 2270.68,1011.54 2271.92,1011.54 2273.16,1011.54 2274.41,1011.54 2275.65,1011.54 2276.9,1011.54 2278.14,1011.54 2279.38,1011.54 2280.63,1011.54 2281.87,1011.54 2283.11,1011.54 2284.36,1011.54 2285.6,1011.54 2286.84,1011.54 2288.09,1011.54 2289.33,1011.54 2290.58,1011.54 2291.82,1011.54 2293.06,1011.54 2294.31,1011.54 2295.55,1011.54 2296.79,1011.54 "/>
<path clip-path="url(#clip980)" d="M1982.82 248.629 L2286.84 248.629 L2286.84 93.1086 L1982.82 93.1086  Z" fill="#ffffff" fill-rule="evenodd" fill-opacity="1"/>
<polyline clip-path="url(#clip980)" style="stroke:#000000; stroke-linecap:round; stroke-linejoin:round; stroke-width:4; stroke-opacity:1; fill:none" points="1982.82,248.629 2286.84,248.629 2286.84,93.1086 1982.82,93.1086 1982.82,248.629 "/>
<polyline clip-path="url(#clip980)" style="stroke:#009af9; stroke-linecap:round; stroke-linejoin:round; stroke-width:4; stroke-opacity:1; fill:none" points="2004.79,144.949 2136.61,144.949 "/>
<path clip-path="url(#clip980)" d="M2158.58 127.669 L2163.25 127.669 L2163.25 158.293 L2180.08 158.293 L2180.08 162.229 L2158.58 162.229 L2158.58 127.669 Z" fill="#000000" fill-rule="nonzero" fill-opacity="1" /><path clip-path="url(#clip980)" d="M2189.67 131.511 L2189.67 144.497 L2195.55 144.497 Q2198.81 144.497 2200.59 142.807 Q2202.37 141.118 2202.37 137.993 Q2202.37 134.891 2200.59 133.201 Q2198.81 131.511 2195.55 131.511 L2189.67 131.511 M2184.99 127.669 L2195.55 127.669 Q2201.36 127.669 2204.32 130.307 Q2207.31 132.923 2207.31 137.993 Q2207.31 143.108 2204.32 145.724 Q2201.36 148.34 2195.55 148.34 L2189.67 148.34 L2189.67 162.229 L2184.99 162.229 L2184.99 127.669 Z" fill="#000000" fill-rule="nonzero" fill-opacity="1" /><path clip-path="url(#clip980)" d="M2223.99 130.747 Q2220.38 130.747 2218.56 134.312 Q2216.75 137.854 2216.75 144.983 Q2216.75 152.09 2218.56 155.655 Q2220.38 159.196 2223.99 159.196 Q2227.63 159.196 2229.43 155.655 Q2231.26 152.09 2231.26 144.983 Q2231.26 137.854 2229.43 134.312 Q2227.63 130.747 2223.99 130.747 M2223.99 127.044 Q2229.8 127.044 2232.86 131.65 Q2235.94 136.233 2235.94 144.983 Q2235.94 153.71 2232.86 158.317 Q2229.8 162.9 2223.99 162.9 Q2218.18 162.9 2215.11 158.317 Q2212.05 153.71 2212.05 144.983 Q2212.05 136.233 2215.11 131.65 Q2218.18 127.044 2223.99 127.044 Z" fill="#000000" fill-rule="nonzero" fill-opacity="1" /><path clip-path="url(#clip980)" d="M2244.97 158.293 L2252.61 158.293 L2252.61 131.928 L2244.3 133.595 L2244.3 129.335 L2252.56 127.669 L2257.24 127.669 L2257.24 158.293 L2264.87 158.293 L2264.87 162.229 L2244.97 162.229 L2244.97 158.293 Z" fill="#000000" fill-rule="nonzero" fill-opacity="1" /><polyline clip-path="url(#clip980)" style="stroke:#e26f46; stroke-linecap:round; stroke-linejoin:round; stroke-width:4; stroke-opacity:1; fill:none" points="2004.79,196.789 2136.61,196.789 "/>
<path clip-path="url(#clip980)" d="M2158.58 179.509 L2163.25 179.509 L2163.25 210.133 L2180.08 210.133 L2180.08 214.069 L2158.58 214.069 L2158.58 179.509 Z" fill="#000000" fill-rule="nonzero" fill-opacity="1" /><path clip-path="url(#clip980)" d="M2189.67 183.351 L2189.67 196.337 L2195.55 196.337 Q2198.81 196.337 2200.59 194.647 Q2202.37 192.958 2202.37 189.833 Q2202.37 186.731 2200.59 185.041 Q2198.81 183.351 2195.55 183.351 L2189.67 183.351 M2184.99 179.509 L2195.55 179.509 Q2201.36 179.509 2204.32 182.147 Q2207.31 184.763 2207.31 189.833 Q2207.31 194.948 2204.32 197.564 Q2201.36 200.18 2195.55 200.18 L2189.67 200.18 L2189.67 214.069 L2184.99 214.069 L2184.99 179.509 Z" fill="#000000" fill-rule="nonzero" fill-opacity="1" /><path clip-path="url(#clip980)" d="M2223.99 182.587 Q2220.38 182.587 2218.56 186.152 Q2216.75 189.694 2216.75 196.823 Q2216.75 203.93 2218.56 207.495 Q2220.38 211.036 2223.99 211.036 Q2227.63 211.036 2229.43 207.495 Q2231.26 203.93 2231.26 196.823 Q2231.26 189.694 2229.43 186.152 Q2227.63 182.587 2223.99 182.587 M2223.99 178.884 Q2229.8 178.884 2232.86 183.49 Q2235.94 188.073 2235.94 196.823 Q2235.94 205.55 2232.86 210.157 Q2229.8 214.74 2223.99 214.74 Q2218.18 214.74 2215.11 210.157 Q2212.05 205.55 2212.05 196.823 Q2212.05 188.073 2215.11 183.49 Q2218.18 178.884 2223.99 178.884 Z" fill="#000000" fill-rule="nonzero" fill-opacity="1" /><path clip-path="url(#clip980)" d="M2248.18 210.133 L2264.5 210.133 L2264.5 214.069 L2242.56 214.069 L2242.56 210.133 Q2245.22 207.379 2249.8 202.749 Q2254.41 198.096 2255.59 196.754 Q2257.84 194.231 2258.72 192.495 Q2259.62 190.735 2259.62 189.046 Q2259.62 186.291 2257.68 184.555 Q2255.75 182.819 2252.65 182.819 Q2250.45 182.819 2248 183.583 Q2245.57 184.347 2242.79 185.897 L2242.79 181.175 Q2245.62 180.041 2248.07 179.462 Q2250.52 178.884 2252.56 178.884 Q2257.93 178.884 2261.12 181.569 Q2264.32 184.254 2264.32 188.745 Q2264.32 190.874 2263.51 192.796 Q2262.72 194.694 2260.61 197.286 Q2260.04 197.958 2256.93 201.175 Q2253.83 204.37 2248.18 210.133 Z" fill="#000000" fill-rule="nonzero" fill-opacity="1" /></svg>
