<?xml version="1.0" encoding="utf-8"?>
<svg xmlns="http://www.w3.org/2000/svg" xmlns:xlink="http://www.w3.org/1999/xlink" width="600" height="400" viewBox="0 0 2400 1600">
<defs>
  <clipPath id="clip500">
    <rect x="0" y="0" width="2400" height="1600"/>
  </clipPath>
</defs>
<path clip-path="url(#clip500)" d="M0 1600 L2400 1600 L2400 0 L0 0  Z" fill="#ffffff" fill-rule="evenodd" fill-opacity="1"/>
<defs>
  <clipPath id="clip501">
    <rect x="369" y="47" width="1984" height="1377"/>
  </clipPath>
</defs>
<path clip-path="url(#clip500)" d="M369.518 1423.18 L2352.76 1423.18 L2352.76 47.2441 L369.518 47.2441  Z" fill="#ffffff" fill-rule="evenodd" fill-opacity="1"/>
<polyline clip-path="url(#clip501)" style="stroke:#000000; stroke-linecap:round; stroke-linejoin:round; stroke-width:2; stroke-opacity:0.1; fill:none" points="369.518,1423.18 369.518,47.2441 "/>
<polyline clip-path="url(#clip501)" style="stroke:#000000; stroke-linecap:round; stroke-linejoin:round; stroke-width:2; stroke-opacity:0.1; fill:none" points="1030.6,1423.18 1030.6,47.2441 "/>
<polyline clip-path="url(#clip501)" style="stroke:#000000; stroke-linecap:round; stroke-linejoin:round; stroke-width:2; stroke-opacity:0.1; fill:none" points="1691.68,1423.18 1691.68,47.2441 "/>
<polyline clip-path="url(#clip501)" style="stroke:#000000; stroke-linecap:round; stroke-linejoin:round; stroke-width:2; stroke-opacity:0.1; fill:none" points="2352.76,1423.18 2352.76,47.2441 "/>
<polyline clip-path="url(#clip501)" style="stroke:#000000; stroke-linecap:round; stroke-linejoin:round; stroke-width:2; stroke-opacity:0.1; fill:none" points="369.518,1232.04 2352.76,1232.04 "/>
<polyline clip-path="url(#clip501)" style="stroke:#000000; stroke-linecap:round; stroke-linejoin:round; stroke-width:2; stroke-opacity:0.1; fill:none" points="369.518,892.254 2352.76,892.254 "/>
<polyline clip-path="url(#clip501)" style="stroke:#000000; stroke-linecap:round; stroke-linejoin:round; stroke-width:2; stroke-opacity:0.1; fill:none" points="369.518,552.464 2352.76,552.464 "/>
<polyline clip-path="url(#clip501)" style="stroke:#000000; stroke-linecap:round; stroke-linejoin:round; stroke-width:2; stroke-opacity:0.1; fill:none" points="369.518,212.674 2352.76,212.674 "/>
<polyline clip-path="url(#clip500)" style="stroke:#000000; stroke-linecap:round; stroke-linejoin:round; stroke-width:4; stroke-opacity:1; fill:none" points="369.518,1423.18 2352.76,1423.18 "/>
<polyline clip-path="url(#clip500)" style="stroke:#000000; stroke-linecap:round; stroke-linejoin:round; stroke-width:4; stroke-opacity:1; fill:none" points="369.518,1423.18 369.518,1404.28 "/>
<polyline clip-path="url(#clip500)" style="stroke:#000000; stroke-linecap:round; stroke-linejoin:round; stroke-width:4; stroke-opacity:1; fill:none" points="1030.6,1423.18 1030.6,1404.28 "/>
<polyline clip-path="url(#clip500)" style="stroke:#000000; stroke-linecap:round; stroke-linejoin:round; stroke-width:4; stroke-opacity:1; fill:none" points="1691.68,1423.18 1691.68,1404.28 "/>
<polyline clip-path="url(#clip500)" style="stroke:#000000; stroke-linecap:round; stroke-linejoin:round; stroke-width:4; stroke-opacity:1; fill:none" points="2352.76,1423.18 2352.76,1404.28 "/>
<path clip-path="url(#clip500)" d="M369.518 1454.1 Q365.907 1454.1 364.078 1457.66 Q362.273 1461.2 362.273 1468.33 Q362.273 1475.44 364.078 1479.01 Q365.907 1482.55 369.518 1482.55 Q373.152 1482.55 374.958 1479.01 Q376.787 1475.44 376.787 1468.33 Q376.787 1461.2 374.958 1457.66 Q373.152 1454.1 369.518 1454.1 M369.518 1450.39 Q375.328 1450.39 378.384 1455 Q381.463 1459.58 381.463 1468.33 Q381.463 1477.06 378.384 1481.67 Q375.328 1486.25 369.518 1486.25 Q363.708 1486.25 360.629 1481.67 Q357.574 1477.06 357.574 1468.33 Q357.574 1459.58 360.629 1455 Q363.708 1450.39 369.518 1450.39 Z" fill="#000000" fill-rule="nonzero" fill-opacity="1" /><path clip-path="url(#clip500)" d="M1020.88 1451.02 L1039.23 1451.02 L1039.23 1454.96 L1025.16 1454.96 L1025.16 1463.43 Q1026.18 1463.08 1027.19 1462.92 Q1028.21 1462.73 1029.23 1462.73 Q1035.02 1462.73 1038.4 1465.9 Q1041.78 1469.08 1041.78 1474.49 Q1041.78 1480.07 1038.31 1483.17 Q1034.83 1486.25 1028.51 1486.25 Q1026.34 1486.25 1024.07 1485.88 Q1021.82 1485.51 1019.42 1484.77 L1019.42 1480.07 Q1021.5 1481.2 1023.72 1481.76 Q1025.94 1482.32 1028.42 1482.32 Q1032.43 1482.32 1034.76 1480.21 Q1037.1 1478.1 1037.1 1474.49 Q1037.1 1470.88 1034.76 1468.77 Q1032.43 1466.67 1028.42 1466.67 Q1026.55 1466.67 1024.67 1467.08 Q1022.82 1467.5 1020.88 1468.38 L1020.88 1451.02 Z" fill="#000000" fill-rule="nonzero" fill-opacity="1" /><path clip-path="url(#clip500)" d="M1666.36 1481.64 L1674 1481.64 L1674 1455.28 L1665.69 1456.95 L1665.69 1452.69 L1673.96 1451.02 L1678.63 1451.02 L1678.63 1481.64 L1686.27 1481.64 L1686.27 1485.58 L1666.36 1485.58 L1666.36 1481.64 Z" fill="#000000" fill-rule="nonzero" fill-opacity="1" /><path clip-path="url(#clip500)" d="M1705.72 1454.1 Q1702.1 1454.1 1700.28 1457.66 Q1698.47 1461.2 1698.47 1468.33 Q1698.47 1475.44 1700.28 1479.01 Q1702.1 1482.55 1705.72 1482.55 Q1709.35 1482.55 1711.16 1479.01 Q1712.98 1475.44 1712.98 1468.33 Q1712.98 1461.2 1711.16 1457.66 Q1709.35 1454.1 1705.72 1454.1 M1705.72 1450.39 Q1711.53 1450.39 1714.58 1455 Q1717.66 1459.58 1717.66 1468.33 Q1717.66 1477.06 1714.58 1481.67 Q1711.53 1486.25 1705.72 1486.25 Q1699.91 1486.25 1696.83 1481.67 Q1693.77 1477.06 1693.77 1468.33 Q1693.77 1459.58 1696.83 1455 Q1699.91 1450.39 1705.72 1450.39 Z" fill="#000000" fill-rule="nonzero" fill-opacity="1" /><path clip-path="url(#clip500)" d="M2327.94 1481.64 L2335.58 1481.64 L2335.58 1455.28 L2327.27 1456.95 L2327.27 1452.69 L2335.53 1451.02 L2340.21 1451.02 L2340.21 1481.64 L2347.85 1481.64 L2347.85 1485.58 L2327.94 1485.58 L2327.94 1481.64 Z" fill="#000000" fill-rule="nonzero" fill-opacity="1" /><path clip-path="url(#clip500)" d="M2357.34 1451.02 L2375.7 1451.02 L2375.7 1454.96 L2361.62 1454.96 L2361.62 1463.43 Q2362.64 1463.08 2363.66 1462.92 Q2364.68 1462.73 2365.7 1462.73 Q2371.48 1462.73 2374.86 1465.9 Q2378.24 1469.08 2378.24 1474.49 Q2378.24 1480.07 2374.77 1483.17 Q2371.3 1486.25 2364.98 1486.25 Q2362.8 1486.25 2360.53 1485.88 Q2358.29 1485.51 2355.88 1484.77 L2355.88 1480.07 Q2357.96 1481.2 2360.19 1481.76 Q2362.41 1482.32 2364.89 1482.32 Q2368.89 1482.32 2371.23 1480.21 Q2373.57 1478.1 2373.57 1474.49 Q2373.57 1470.88 2371.23 1468.77 Q2368.89 1466.67 2364.89 1466.67 Q2363.01 1466.67 2361.14 1467.08 Q2359.28 1467.5 2357.34 1468.38 L2357.34 1451.02 Z" fill="#000000" fill-rule="nonzero" fill-opacity="1" /><path clip-path="url(#clip500)" d="M1286.1 1537.87 Q1285.11 1537.3 1283.94 1537.04 Q1282.79 1536.76 1281.39 1536.76 Q1276.43 1536.76 1273.75 1540 Q1271.11 1543.22 1271.11 1549.27 L1271.11 1568.04 L1265.22 1568.04 L1265.22 1532.4 L1271.11 1532.4 L1271.11 1537.93 Q1272.96 1534.69 1275.92 1533.13 Q1278.88 1531.54 1283.11 1531.54 Q1283.71 1531.54 1284.45 1531.63 Q1285.18 1531.7 1286.07 1531.85 L1286.1 1537.87 Z" fill="#000000" fill-rule="nonzero" fill-opacity="1" /><path clip-path="url(#clip500)" d="M1327.03 1518.58 Q1322.77 1525.9 1320.7 1533.06 Q1318.63 1540.23 1318.63 1547.58 Q1318.63 1554.93 1320.7 1562.16 Q1322.8 1569.35 1327.03 1576.64 L1321.94 1576.64 Q1317.17 1569.16 1314.78 1561.93 Q1312.42 1554.71 1312.42 1547.58 Q1312.42 1540.48 1314.78 1533.29 Q1317.13 1526.09 1321.94 1518.58 L1327.03 1518.58 Z" fill="#000000" fill-rule="nonzero" fill-opacity="1" /><path clip-path="url(#clip500)" d="M1337.79 1581.6 L1337.79 1532.4 L1343.65 1532.4 L1343.65 1554.55 Q1343.65 1559.16 1345.84 1561.52 Q1348.04 1563.87 1352.34 1563.87 Q1357.05 1563.87 1359.4 1561.2 Q1361.79 1558.53 1361.79 1553.18 L1361.79 1532.4 L1367.65 1532.4 L1367.65 1559.83 Q1367.65 1561.74 1368.19 1562.66 Q1368.76 1563.56 1369.94 1563.56 Q1370.22 1563.56 1370.73 1563.4 Q1371.24 1563.21 1372.13 1562.82 L1372.13 1567.53 Q1370.83 1568.27 1369.65 1568.62 Q1368.51 1568.97 1367.39 1568.97 Q1365.2 1568.97 1363.89 1567.73 Q1362.59 1566.48 1362.11 1563.94 Q1360.52 1566.45 1358.19 1567.73 Q1355.9 1568.97 1352.78 1568.97 Q1349.54 1568.97 1347.24 1567.73 Q1344.98 1566.48 1343.65 1564 L1343.65 1581.6 L1337.79 1581.6 Z" fill="#000000" fill-rule="nonzero" fill-opacity="1" /><path clip-path="url(#clip500)" d="M1407.62 1539.24 Q1409.82 1535.29 1412.87 1533.41 Q1415.93 1531.54 1420.07 1531.54 Q1425.64 1531.54 1428.66 1535.45 Q1431.69 1539.33 1431.69 1546.53 L1431.69 1568.04 L1425.8 1568.04 L1425.8 1546.72 Q1425.8 1541.59 1423.98 1539.11 Q1422.17 1536.63 1418.44 1536.63 Q1413.89 1536.63 1411.25 1539.65 Q1408.61 1542.68 1408.61 1547.9 L1408.61 1568.04 L1402.72 1568.04 L1402.72 1546.72 Q1402.72 1541.56 1400.91 1539.11 Q1399.09 1536.63 1395.31 1536.63 Q1390.82 1536.63 1388.18 1539.68 Q1385.53 1542.71 1385.53 1547.9 L1385.53 1568.04 L1379.65 1568.04 L1379.65 1532.4 L1385.53 1532.4 L1385.53 1537.93 Q1387.54 1534.66 1390.34 1533.1 Q1393.14 1531.54 1396.99 1531.54 Q1400.87 1531.54 1403.58 1533.51 Q1406.32 1535.48 1407.62 1539.24 Z" fill="#000000" fill-rule="nonzero" fill-opacity="1" /><path clip-path="url(#clip500)" d="M1442.44 1518.58 L1447.54 1518.58 Q1452.31 1526.09 1454.67 1533.29 Q1457.05 1540.48 1457.05 1547.58 Q1457.05 1554.71 1454.67 1561.93 Q1452.31 1569.16 1447.54 1576.64 L1442.44 1576.64 Q1446.68 1569.35 1448.75 1562.16 Q1450.85 1554.93 1450.85 1547.58 Q1450.85 1540.23 1448.75 1533.06 Q1446.68 1525.9 1442.44 1518.58 Z" fill="#000000" fill-rule="nonzero" fill-opacity="1" /><polyline clip-path="url(#clip500)" style="stroke:#000000; stroke-linecap:round; stroke-linejoin:round; stroke-width:4; stroke-opacity:1; fill:none" points="369.518,1423.18 369.518,47.2441 "/>
<polyline clip-path="url(#clip500)" style="stroke:#000000; stroke-linecap:round; stroke-linejoin:round; stroke-width:4; stroke-opacity:1; fill:none" points="369.518,1232.04 388.416,1232.04 "/>
<polyline clip-path="url(#clip500)" style="stroke:#000000; stroke-linecap:round; stroke-linejoin:round; stroke-width:4; stroke-opacity:1; fill:none" points="369.518,892.254 388.416,892.254 "/>
<polyline clip-path="url(#clip500)" style="stroke:#000000; stroke-linecap:round; stroke-linejoin:round; stroke-width:4; stroke-opacity:1; fill:none" points="369.518,552.464 388.416,552.464 "/>
<polyline clip-path="url(#clip500)" style="stroke:#000000; stroke-linecap:round; stroke-linejoin:round; stroke-width:4; stroke-opacity:1; fill:none" points="369.518,212.674 388.416,212.674 "/>
<path clip-path="url(#clip500)" d="M321.574 1217.84 Q317.963 1217.84 316.134 1221.41 Q314.329 1224.95 314.329 1232.08 Q314.329 1239.18 316.134 1242.75 Q317.963 1246.29 321.574 1246.29 Q325.208 1246.29 327.014 1242.75 Q328.842 1239.18 328.842 1232.08 Q328.842 1224.95 327.014 1221.41 Q325.208 1217.84 321.574 1217.84 M321.574 1214.14 Q327.384 1214.14 330.44 1218.74 Q333.518 1223.33 333.518 1232.08 Q333.518 1240.81 330.44 1245.41 Q327.384 1249.99 321.574 1249.99 Q315.764 1249.99 312.685 1245.41 Q309.629 1240.81 309.629 1232.08 Q309.629 1223.33 312.685 1218.74 Q315.764 1214.14 321.574 1214.14 Z" fill="#000000" fill-rule="nonzero" fill-opacity="1" /><path clip-path="url(#clip500)" d="M115.718 881.421 L134.075 881.421 L134.075 885.356 L120.001 885.356 L120.001 893.829 Q121.019 893.481 122.038 893.319 Q123.056 893.134 124.075 893.134 Q129.862 893.134 133.242 896.305 Q136.621 899.477 136.621 904.893 Q136.621 910.472 133.149 913.574 Q129.677 916.652 123.357 916.652 Q121.181 916.652 118.913 916.282 Q116.668 915.912 114.26 915.171 L114.26 910.472 Q116.343 911.606 118.566 912.162 Q120.788 912.717 123.265 912.717 Q127.269 912.717 129.607 910.611 Q131.945 908.504 131.945 904.893 Q131.945 901.282 129.607 899.176 Q127.269 897.069 123.265 897.069 Q121.39 897.069 119.515 897.486 Q117.663 897.903 115.718 898.782 L115.718 881.421 Z" fill="#000000" fill-rule="nonzero" fill-opacity="1" /><path clip-path="url(#clip500)" d="M145.834 910.102 L150.718 910.102 L150.718 915.981 L145.834 915.981 L145.834 910.102 Z" fill="#000000" fill-rule="nonzero" fill-opacity="1" /><path clip-path="url(#clip500)" d="M170.903 884.5 Q167.292 884.5 165.464 888.065 Q163.658 891.606 163.658 898.736 Q163.658 905.842 165.464 909.407 Q167.292 912.949 170.903 912.949 Q174.538 912.949 176.343 909.407 Q178.172 905.842 178.172 898.736 Q178.172 891.606 176.343 888.065 Q174.538 884.5 170.903 884.5 M170.903 880.796 Q176.714 880.796 179.769 885.403 Q182.848 889.986 182.848 898.736 Q182.848 907.463 179.769 912.069 Q176.714 916.652 170.903 916.652 Q165.093 916.652 162.015 912.069 Q158.959 907.463 158.959 898.736 Q158.959 889.986 162.015 885.403 Q165.093 880.796 170.903 880.796 Z" fill="#000000" fill-rule="nonzero" fill-opacity="1" /><path clip-path="url(#clip500)" d="M201.065 884.5 Q197.454 884.5 195.625 888.065 Q193.82 891.606 193.82 898.736 Q193.82 905.842 195.625 909.407 Q197.454 912.949 201.065 912.949 Q204.699 912.949 206.505 909.407 Q208.334 905.842 208.334 898.736 Q208.334 891.606 206.505 888.065 Q204.699 884.5 201.065 884.5 M201.065 880.796 Q206.875 880.796 209.931 885.403 Q213.01 889.986 213.01 898.736 Q213.01 907.463 209.931 912.069 Q206.875 916.652 201.065 916.652 Q195.255 916.652 192.176 912.069 Q189.121 907.463 189.121 898.736 Q189.121 889.986 192.176 885.403 Q195.255 880.796 201.065 880.796 Z" fill="#000000" fill-rule="nonzero" fill-opacity="1" /><path clip-path="url(#clip500)" d="M249.398 890.518 L238.82 901.143 L249.398 911.722 L246.644 914.523 L236.019 903.898 L225.394 914.523 L222.662 911.722 L233.218 901.143 L222.662 890.518 L225.394 887.717 L236.019 898.342 L246.644 887.717 L249.398 890.518 Z" fill="#000000" fill-rule="nonzero" fill-opacity="1" /><path clip-path="url(#clip500)" d="M261.759 912.046 L269.398 912.046 L269.398 885.68 L261.088 887.347 L261.088 883.088 L269.352 881.421 L274.028 881.421 L274.028 912.046 L281.667 912.046 L281.667 915.981 L261.759 915.981 L261.759 912.046 Z" fill="#000000" fill-rule="nonzero" fill-opacity="1" /><path clip-path="url(#clip500)" d="M301.111 884.5 Q297.5 884.5 295.671 888.065 Q293.866 891.606 293.866 898.736 Q293.866 905.842 295.671 909.407 Q297.5 912.949 301.111 912.949 Q304.745 912.949 306.551 909.407 Q308.379 905.842 308.379 898.736 Q308.379 891.606 306.551 888.065 Q304.745 884.5 301.111 884.5 M301.111 880.796 Q306.921 880.796 309.977 885.403 Q313.055 889.986 313.055 898.736 Q313.055 907.463 309.977 912.069 Q306.921 916.652 301.111 916.652 Q295.301 916.652 292.222 912.069 Q289.167 907.463 289.167 898.736 Q289.167 889.986 292.222 885.403 Q295.301 880.796 301.111 880.796 Z" fill="#000000" fill-rule="nonzero" fill-opacity="1" /><path clip-path="url(#clip500)" d="M325.732 863.801 L316.14 878.791 L325.732 878.791 L325.732 863.801 M324.735 860.491 L329.512 860.491 L329.512 878.791 L333.518 878.791 L333.518 881.95 L329.512 881.95 L329.512 888.571 L325.732 888.571 L325.732 881.95 L313.055 881.95 L313.055 878.283 L324.735 860.491 Z" fill="#000000" fill-rule="nonzero" fill-opacity="1" /><path clip-path="url(#clip500)" d="M118.777 572.256 L126.416 572.256 L126.416 545.89 L118.106 547.557 L118.106 543.298 L126.369 541.631 L131.045 541.631 L131.045 572.256 L138.684 572.256 L138.684 576.191 L118.777 576.191 L118.777 572.256 Z" fill="#000000" fill-rule="nonzero" fill-opacity="1" /><path clip-path="url(#clip500)" d="M148.129 570.312 L153.013 570.312 L153.013 576.191 L148.129 576.191 L148.129 570.312 Z" fill="#000000" fill-rule="nonzero" fill-opacity="1" /><path clip-path="url(#clip500)" d="M173.198 544.71 Q169.587 544.71 167.758 548.275 Q165.953 551.816 165.953 558.946 Q165.953 566.052 167.758 569.617 Q169.587 573.159 173.198 573.159 Q176.832 573.159 178.638 569.617 Q180.466 566.052 180.466 558.946 Q180.466 551.816 178.638 548.275 Q176.832 544.71 173.198 544.71 M173.198 541.006 Q179.008 541.006 182.064 545.613 Q185.142 550.196 185.142 558.946 Q185.142 567.673 182.064 572.279 Q179.008 576.863 173.198 576.863 Q167.388 576.863 164.309 572.279 Q161.254 567.673 161.254 558.946 Q161.254 550.196 164.309 545.613 Q167.388 541.006 173.198 541.006 Z" fill="#000000" fill-rule="nonzero" fill-opacity="1" /><path clip-path="url(#clip500)" d="M203.36 544.71 Q199.749 544.71 197.92 548.275 Q196.114 551.816 196.114 558.946 Q196.114 566.052 197.92 569.617 Q199.749 573.159 203.36 573.159 Q206.994 573.159 208.8 569.617 Q210.628 566.052 210.628 558.946 Q210.628 551.816 208.8 548.275 Q206.994 544.71 203.36 544.71 M203.36 541.006 Q209.17 541.006 212.225 545.613 Q215.304 550.196 215.304 558.946 Q215.304 567.673 212.225 572.279 Q209.17 576.863 203.36 576.863 Q197.55 576.863 194.471 572.279 Q191.415 567.673 191.415 558.946 Q191.415 550.196 194.471 545.613 Q197.55 541.006 203.36 541.006 Z" fill="#000000" fill-rule="nonzero" fill-opacity="1" /><path clip-path="url(#clip500)" d="M251.693 550.728 L241.114 561.353 L251.693 571.932 L248.938 574.733 L238.313 564.108 L227.688 574.733 L224.957 571.932 L235.512 561.353 L224.957 550.728 L227.688 547.927 L238.313 558.552 L248.938 547.927 L251.693 550.728 Z" fill="#000000" fill-rule="nonzero" fill-opacity="1" /><path clip-path="url(#clip500)" d="M264.054 572.256 L271.693 572.256 L271.693 545.89 L263.383 547.557 L263.383 543.298 L271.646 541.631 L276.322 541.631 L276.322 572.256 L283.961 572.256 L283.961 576.191 L264.054 576.191 L264.054 572.256 Z" fill="#000000" fill-rule="nonzero" fill-opacity="1" /><path clip-path="url(#clip500)" d="M303.406 544.71 Q299.794 544.71 297.966 548.275 Q296.16 551.816 296.16 558.946 Q296.16 566.052 297.966 569.617 Q299.794 573.159 303.406 573.159 Q307.04 573.159 308.845 569.617 Q310.674 566.052 310.674 558.946 Q310.674 551.816 308.845 548.275 Q307.04 544.71 303.406 544.71 M303.406 541.006 Q309.216 541.006 312.271 545.613 Q315.35 550.196 315.35 558.946 Q315.35 567.673 312.271 572.279 Q309.216 576.863 303.406 576.863 Q297.595 576.863 294.517 572.279 Q291.461 567.673 291.461 558.946 Q291.461 550.196 294.517 545.613 Q297.595 541.006 303.406 541.006 Z" fill="#000000" fill-rule="nonzero" fill-opacity="1" /><path clip-path="url(#clip500)" d="M316.535 520.701 L331.449 520.701 L331.449 523.898 L320.014 523.898 L320.014 530.782 Q320.842 530.5 321.669 530.368 Q322.497 530.218 323.324 530.218 Q328.026 530.218 330.772 532.794 Q333.518 535.371 333.518 539.772 Q333.518 544.305 330.697 546.825 Q327.876 549.326 322.741 549.326 Q320.973 549.326 319.13 549.025 Q317.306 548.724 315.35 548.123 L315.35 544.305 Q317.043 545.226 318.848 545.678 Q320.654 546.129 322.666 546.129 Q325.92 546.129 327.819 544.417 Q329.719 542.706 329.719 539.772 Q329.719 536.838 327.819 535.126 Q325.92 533.415 322.666 533.415 Q321.143 533.415 319.619 533.753 Q318.115 534.092 316.535 534.807 L316.535 520.701 Z" fill="#000000" fill-rule="nonzero" fill-opacity="1" /><path clip-path="url(#clip500)" d="M118.777 232.466 L126.416 232.466 L126.416 206.101 L118.106 207.767 L118.106 203.508 L126.369 201.841 L131.045 201.841 L131.045 232.466 L138.684 232.466 L138.684 236.401 L118.777 236.401 L118.777 232.466 Z" fill="#000000" fill-rule="nonzero" fill-opacity="1" /><path clip-path="url(#clip500)" d="M148.129 230.522 L153.013 230.522 L153.013 236.401 L148.129 236.401 L148.129 230.522 Z" fill="#000000" fill-rule="nonzero" fill-opacity="1" /><path clip-path="url(#clip500)" d="M163.244 201.841 L181.601 201.841 L181.601 205.776 L167.527 205.776 L167.527 214.249 Q168.545 213.901 169.564 213.739 Q170.582 213.554 171.601 213.554 Q177.388 213.554 180.767 216.725 Q184.147 219.897 184.147 225.313 Q184.147 230.892 180.675 233.994 Q177.203 237.073 170.883 237.073 Q168.707 237.073 166.439 236.702 Q164.193 236.332 161.786 235.591 L161.786 230.892 Q163.869 232.026 166.091 232.582 Q168.314 233.137 170.791 233.137 Q174.795 233.137 177.133 231.031 Q179.471 228.924 179.471 225.313 Q179.471 221.702 177.133 219.596 Q174.795 217.489 170.791 217.489 Q168.916 217.489 167.041 217.906 Q165.189 218.323 163.244 219.202 L163.244 201.841 Z" fill="#000000" fill-rule="nonzero" fill-opacity="1" /><path clip-path="url(#clip500)" d="M203.36 204.92 Q199.749 204.92 197.92 208.485 Q196.114 212.026 196.114 219.156 Q196.114 226.262 197.92 229.827 Q199.749 233.369 203.36 233.369 Q206.994 233.369 208.8 229.827 Q210.628 226.262 210.628 219.156 Q210.628 212.026 208.8 208.485 Q206.994 204.92 203.36 204.92 M203.36 201.216 Q209.17 201.216 212.225 205.823 Q215.304 210.406 215.304 219.156 Q215.304 227.883 212.225 232.489 Q209.17 237.073 203.36 237.073 Q197.55 237.073 194.471 232.489 Q191.415 227.883 191.415 219.156 Q191.415 210.406 194.471 205.823 Q197.55 201.216 203.36 201.216 Z" fill="#000000" fill-rule="nonzero" fill-opacity="1" /><path clip-path="url(#clip500)" d="M251.693 210.938 L241.114 221.563 L251.693 232.142 L248.938 234.943 L238.313 224.318 L227.688 234.943 L224.957 232.142 L235.512 221.563 L224.957 210.938 L227.688 208.138 L238.313 218.762 L248.938 208.138 L251.693 210.938 Z" fill="#000000" fill-rule="nonzero" fill-opacity="1" /><path clip-path="url(#clip500)" d="M264.054 232.466 L271.693 232.466 L271.693 206.101 L263.383 207.767 L263.383 203.508 L271.646 201.841 L276.322 201.841 L276.322 232.466 L283.961 232.466 L283.961 236.401 L264.054 236.401 L264.054 232.466 Z" fill="#000000" fill-rule="nonzero" fill-opacity="1" /><path clip-path="url(#clip500)" d="M303.406 204.92 Q299.794 204.92 297.966 208.485 Q296.16 212.026 296.16 219.156 Q296.16 226.262 297.966 229.827 Q299.794 233.369 303.406 233.369 Q307.04 233.369 308.845 229.827 Q310.674 226.262 310.674 219.156 Q310.674 212.026 308.845 208.485 Q307.04 204.92 303.406 204.92 M303.406 201.216 Q309.216 201.216 312.271 205.823 Q315.35 210.406 315.35 219.156 Q315.35 227.883 312.271 232.489 Q309.216 237.073 303.406 237.073 Q297.595 237.073 294.517 232.489 Q291.461 227.883 291.461 219.156 Q291.461 210.406 294.517 205.823 Q297.595 201.216 303.406 201.216 Z" fill="#000000" fill-rule="nonzero" fill-opacity="1" /><path clip-path="url(#clip500)" d="M316.535 180.911 L331.449 180.911 L331.449 184.108 L320.014 184.108 L320.014 190.992 Q320.842 190.71 321.669 190.578 Q322.497 190.428 323.324 190.428 Q328.026 190.428 330.772 193.004 Q333.518 195.581 333.518 199.982 Q333.518 204.515 330.697 207.035 Q327.876 209.536 322.741 209.536 Q320.973 209.536 319.13 209.235 Q317.306 208.934 315.35 208.333 L315.35 204.515 Q317.043 205.436 318.848 205.888 Q320.654 206.339 322.666 206.339 Q325.92 206.339 327.819 204.627 Q329.719 202.916 329.719 199.982 Q329.719 197.048 327.819 195.336 Q325.92 193.625 322.666 193.625 Q321.143 193.625 319.619 193.963 Q318.115 194.302 316.535 195.017 L316.535 180.911 Z" fill="#000000" fill-rule="nonzero" fill-opacity="1" /><path clip-path="url(#clip500)" d="M33.8307 976.361 Q33.2578 977.348 33.0032 978.525 Q32.7167 979.671 32.7167 981.071 Q32.7167 986.037 35.9632 988.71 Q39.1779 991.352 45.2253 991.352 L64.0042 991.352 L64.0042 997.24 L28.3562 997.24 L28.3562 991.352 L33.8944 991.352 Q30.6479 989.506 29.0883 986.546 Q27.4968 983.586 27.4968 979.353 Q27.4968 978.748 27.5923 978.016 Q27.656 977.284 27.8151 976.393 L33.8307 976.361 Z" fill="#000000" fill-rule="nonzero" fill-opacity="1" /><path clip-path="url(#clip500)" d="M44.7161 941.158 L47.5806 941.158 L47.5806 968.085 Q53.6281 967.703 56.8109 964.457 Q59.9619 961.179 59.9619 955.354 Q59.9619 951.98 59.1344 948.829 Q58.3069 945.646 56.6518 942.527 L62.1899 942.527 Q63.5267 945.678 64.227 948.988 Q64.9272 952.298 64.9272 955.704 Q64.9272 964.234 59.9619 969.231 Q54.9967 974.197 46.5303 974.197 Q37.7774 974.197 32.6531 969.486 Q27.4968 964.743 27.4968 956.723 Q27.4968 949.529 32.1438 945.36 Q36.7589 941.158 44.7161 941.158 M42.9973 947.015 Q38.1912 947.079 35.3266 949.72 Q32.4621 952.33 32.4621 956.659 Q32.4621 961.561 35.2312 964.521 Q38.0002 967.449 43.0292 967.894 L42.9973 947.015 Z" fill="#000000" fill-rule="nonzero" fill-opacity="1" /><path clip-path="url(#clip500)" d="M46.0847 915.346 Q46.0847 922.443 47.7079 925.181 Q49.3312 927.918 53.2461 927.918 Q56.3653 927.918 58.2114 925.881 Q60.0256 923.812 60.0256 920.279 Q60.0256 915.409 56.5881 912.481 Q53.1188 909.521 47.3897 909.521 L46.0847 909.521 L46.0847 915.346 M43.6657 903.664 L64.0042 903.664 L64.0042 909.521 L58.5933 909.521 Q61.8398 911.526 63.3994 914.518 Q64.9272 917.51 64.9272 921.839 Q64.9272 927.313 61.8716 930.56 Q58.7843 933.774 53.6281 933.774 Q47.6125 933.774 44.5569 929.764 Q41.5014 925.722 41.5014 917.733 L41.5014 909.521 L40.9285 909.521 Q36.8862 909.521 34.6901 912.195 Q32.4621 914.836 32.4621 919.642 Q32.4621 922.698 33.1941 925.594 Q33.9262 928.491 35.3903 931.164 L29.9795 931.164 Q28.7381 927.95 28.1334 924.926 Q27.4968 921.902 27.4968 919.038 Q27.4968 911.303 31.5072 907.484 Q35.5176 903.664 43.6657 903.664 Z" fill="#000000" fill-rule="nonzero" fill-opacity="1" /><path clip-path="url(#clip500)" d="M14.479 891.601 L14.479 885.745 L64.0042 885.745 L64.0042 891.601 L14.479 891.601 Z" fill="#000000" fill-rule="nonzero" fill-opacity="1" /><path clip-path="url(#clip500)" d="M14.5426 859.423 Q21.8632 863.688 29.0246 865.757 Q36.186 867.826 43.5384 867.826 Q50.8908 867.826 58.1159 865.757 Q65.3091 863.656 72.5979 859.423 L72.5979 864.515 Q65.1182 869.29 57.8931 871.677 Q50.668 874.032 43.5384 874.032 Q36.4406 874.032 29.2474 871.677 Q22.0542 869.321 14.5426 864.515 L14.5426 859.423 Z" fill="#000000" fill-rule="nonzero" fill-opacity="1" /><path clip-path="url(#clip500)" d="M16.4842 847.805 L16.4842 817.759 L21.895 817.759 L21.895 841.376 L35.9632 841.376 L35.9632 818.746 L41.3741 818.746 L41.3741 841.376 L58.5933 841.376 L58.5933 817.186 L64.0042 817.186 L64.0042 847.805 L16.4842 847.805 Z" fill="#000000" fill-rule="nonzero" fill-opacity="1" /><path clip-path="url(#clip500)" d="M14.5426 807.797 L14.5426 802.704 Q22.0542 797.93 29.2474 795.575 Q36.4406 793.188 43.5384 793.188 Q50.668 793.188 57.8931 795.575 Q65.1182 797.93 72.5979 802.704 L72.5979 807.797 Q65.3091 803.564 58.1159 801.495 Q50.8908 799.394 43.5384 799.394 Q36.186 799.394 29.0246 801.495 Q21.8632 803.564 14.5426 807.797 Z" fill="#000000" fill-rule="nonzero" fill-opacity="1" /><path clip-path="url(#clip500)" d="M14.5426 746.654 Q21.8632 750.919 29.0246 752.988 Q36.186 755.057 43.5384 755.057 Q50.8908 755.057 58.1159 752.988 Q65.3091 750.888 72.5979 746.654 L72.5979 751.747 Q65.1182 756.521 57.8931 758.908 Q50.668 761.264 43.5384 761.264 Q36.4406 761.264 29.2474 758.908 Q22.0542 756.553 14.5426 751.747 L14.5426 746.654 Z" fill="#000000" fill-rule="nonzero" fill-opacity="1" /><path clip-path="url(#clip500)" d="M64.0042 722.783 L16.4842 740.925 L16.4842 734.209 L56.4926 719.154 L16.4842 704.068 L16.4842 697.384 L64.0042 715.494 L64.0042 722.783 Z" fill="#000000" fill-rule="nonzero" fill-opacity="1" /><path clip-path="url(#clip500)" d="M35.1993 642.225 Q31.2526 640.029 29.3747 636.973 Q27.4968 633.918 27.4968 629.78 Q27.4968 624.21 31.4117 621.186 Q35.2948 618.163 42.4881 618.163 L64.0042 618.163 L64.0042 624.051 L42.679 624.051 Q37.5546 624.051 35.072 625.865 Q32.5894 627.679 32.5894 631.403 Q32.5894 635.955 35.6131 638.596 Q38.6368 641.238 43.8567 641.238 L64.0042 641.238 L64.0042 647.127 L42.679 647.127 Q37.5228 647.127 35.072 648.941 Q32.5894 650.755 32.5894 654.543 Q32.5894 659.03 35.6449 661.672 Q38.6686 664.314 43.8567 664.314 L64.0042 664.314 L64.0042 670.202 L28.3562 670.202 L28.3562 664.314 L33.8944 664.314 Q30.616 662.309 29.0564 659.508 Q27.4968 656.707 27.4968 652.856 Q27.4968 648.973 29.4702 646.267 Q31.4436 643.53 35.1993 642.225 Z" fill="#000000" fill-rule="nonzero" fill-opacity="1" /><path clip-path="url(#clip500)" d="M16.4842 582.196 L34.2127 564.913 L34.2127 571.311 L21.6404 585.315 L34.2127 599.32 L34.2127 605.718 L16.4842 588.435 L16.4842 582.196 Z" fill="#000000" fill-rule="nonzero" fill-opacity="1" /><path clip-path="url(#clip500)" d="M43.5384 554.824 L43.5384 537.668 L48.7583 537.668 L48.7583 554.824 L43.5384 554.824 Z" fill="#000000" fill-rule="nonzero" fill-opacity="1" /><path clip-path="url(#clip500)" d="M58.5933 526.401 L58.5933 515.897 L22.3406 515.897 L24.6323 527.324 L18.7758 527.324 L16.4842 515.961 L16.4842 509.532 L58.5933 509.532 L58.5933 499.028 L64.0042 499.028 L64.0042 526.401 L58.5933 526.401 Z" fill="#000000" fill-rule="nonzero" fill-opacity="1" /><path clip-path="url(#clip500)" d="M14.5426 487.793 L14.5426 482.7 Q22.0542 477.926 29.2474 475.571 Q36.4406 473.184 43.5384 473.184 Q50.668 473.184 57.8931 475.571 Q65.1182 477.926 72.5979 482.7 L72.5979 487.793 Q65.3091 483.56 58.1159 481.491 Q50.8908 479.39 43.5384 479.39 Q36.186 479.39 29.0246 481.491 Q21.8632 483.56 14.5426 487.793 Z" fill="#000000" fill-rule="nonzero" fill-opacity="1" /><polyline clip-path="url(#clip501)" style="stroke:#009af9; stroke-linecap:round; stroke-linejoin:round; stroke-width:8; stroke-opacity:1; fill:none" points="369.518,86.1857 370.84,86.1932 372.163,86.2158 373.485,86.2535 374.807,86.3063 376.129,86.3742 377.451,86.4571 378.773,86.5551 380.096,86.6682 381.418,86.7964 382.74,86.9396 384.062,87.0979 385.384,87.2713 386.706,87.4597 388.028,87.6632 389.351,87.8817 390.673,88.1153 391.995,88.364 393.317,88.6276 394.639,88.9063 395.961,89.2001 397.284,89.5088 398.606,89.8326 399.928,90.1713 401.25,90.5251 402.572,90.8939 403.894,91.2777 405.217,91.6764 406.539,92.0901 407.861,92.5188 409.183,92.9624 410.505,93.421 411.827,93.8946 413.149,94.383 414.472,94.8864 415.794,95.4047 417.116,95.9379 418.438,96.4859 419.76,97.0489 421.082,97.6267 422.405,98.2194 423.727,98.8269 425.049,99.4493 426.371,100.086 427.693,100.738 429.015,101.405 430.338,102.087 431.66,102.783 432.982,103.494 434.304,104.22 435.626,104.961 436.948,105.716 438.27,106.486 439.593,107.27 440.915,108.07 442.237,108.884 443.559,109.712 444.881,110.555 446.203,111.413 447.526,112.286 448.848,113.173 450.17,114.074 451.492,114.99 452.814,115.921 454.136,116.866 455.459,117.825 456.781,118.799 458.103,119.788 459.425,120.79 460.747,121.808 462.069,122.839 463.391,123.885 464.714,124.946 466.036,126.02 467.358,127.109 468.68,128.212 470.002,129.33 471.324,130.461 472.647,131.607 473.969,132.767 475.291,133.942 476.613,135.13 477.935,136.333 479.257,137.549 480.58,138.78 481.902,140.025 483.224,141.283 484.546,142.556 485.868,143.843 487.19,145.143 488.513,146.458 489.835,147.786 491.157,149.129 492.479,150.485 493.801,151.855 495.123,153.238 496.445,154.636 497.768,156.047 499.09,157.472 500.412,158.911 501.734,160.363 503.056,161.829 504.378,163.309 505.701,164.802 507.023,166.308 508.345,167.828 509.667,169.362 510.989,170.909 512.311,172.469 513.634,174.043 514.956,175.63 516.278,177.231 517.6,178.844 518.922,180.471 520.244,182.112 521.566,183.765 522.889,185.432 524.211,187.111 525.533,188.804 526.855,190.51 528.177,192.229 529.499,193.961 530.822,195.706 532.144,197.464 533.466,199.234 534.788,201.018 536.11,202.814 537.432,204.623 538.755,206.445 540.077,208.28 541.399,210.127 542.721,211.987 544.043,213.859 545.365,215.745 546.687,217.642 548.01,219.552 549.332,221.475 550.654,223.41 551.976,225.357 553.298,227.317 554.62,229.289 555.943,231.273 557.265,233.27 558.587,235.279 559.909,237.3 561.231,239.332 562.553,241.378 563.876,243.435 565.198,245.504 566.52,247.585 567.842,249.678 569.164,251.782 570.486,253.899 571.808,256.027 573.131,258.168 574.453,260.319 575.775,262.483 577.097,264.658 578.419,266.845 579.741,269.043 581.064,271.253 582.386,273.474 583.708,275.706 585.03,277.95 586.352,280.206 587.674,282.472 588.997,284.75 590.319,287.039 591.641,289.339 592.963,291.65 594.285,293.972 595.607,296.305 596.929,298.649 598.252,301.005 599.574,303.37 600.896,305.747 602.218,308.135 603.54,310.533 604.862,312.942 606.185,315.361 607.507,317.792 608.829,320.232 610.151,322.683 611.473,325.145 612.795,327.617 614.118,330.099 615.44,332.592 616.762,335.095 618.084,337.608 619.406,340.131 620.728,342.664 622.051,345.208 623.373,347.761 624.695,350.325 626.017,352.898 627.339,355.481 628.661,358.074 629.983,360.676 631.306,363.289 632.628,365.911 633.95,368.542 635.272,371.184 636.594,373.834 637.916,376.494 639.239,379.164 640.561,381.843 641.883,384.531 643.205,387.228 644.527,389.935 645.849,392.65 647.172,395.375 648.494,398.109 649.816,400.852 651.138,403.603 652.46,406.364 653.782,409.133 655.104,411.912 656.427,414.698 657.749,417.494 659.071,420.298 660.393,423.111 661.715,425.932 663.037,428.761 664.36,431.599 665.682,434.445 667.004,437.3 668.326,440.163 669.648,443.034 670.97,445.913 672.293,448.8 673.615,451.695 674.937,454.598 676.259,457.509 677.581,460.427 678.903,463.354 680.225,466.288 681.548,469.23 682.87,472.179 684.192,475.136 685.514,478.101 686.836,481.073 688.158,484.052 689.481,487.039 690.803,490.032 692.125,493.034 693.447,496.042 694.769,499.057 696.091,502.079 697.414,505.108 698.736,508.145 700.058,511.188 701.38,514.237 702.702,517.294 704.024,520.357 705.346,523.427 706.669,526.503 707.991,529.586 709.313,532.675 710.635,535.771 711.957,538.873 713.279,541.981 714.602,545.096 715.924,548.216 717.246,551.343 718.568,554.476 719.89,557.614 721.212,560.759 722.535,563.909 723.857,567.065 725.179,570.227 726.501,573.395 727.823,576.568 729.145,579.747 730.467,582.931 731.79,586.12 733.112,589.315 734.434,592.515 735.756,595.721 737.078,598.932 738.4,602.147 739.723,605.368 741.045,608.594 742.367,611.824 743.689,615.06 745.011,618.3 746.333,621.545 747.656,624.795 748.978,628.049 750.3,631.308 751.622,634.572 752.944,637.839 754.266,641.112 755.589,644.388 756.911,647.669 758.233,650.954 759.555,654.243 760.877,657.536 762.199,660.833 763.521,664.134 764.844,667.439 766.166,670.748 767.488,674.06 768.81,677.376 770.132,680.696 771.454,684.019 772.777,687.346 774.099,690.676 775.421,694.009 776.743,697.346 778.065,700.686 779.387,704.03 780.71,707.376 782.032,710.725 783.354,714.078 784.676,717.433 785.998,720.791 787.32,724.152 788.642,727.516 789.965,730.882 791.287,734.251 792.609,737.623 793.931,740.997 795.253,744.373 796.575,747.752 797.898,751.133 799.22,754.516 800.542,757.901 801.864,761.289 803.186,764.678 804.508,768.07 805.831,771.463 807.153,774.858 808.475,778.255 809.797,781.654 811.119,785.054 812.441,788.456 813.763,791.86 815.086,795.265 816.408,798.671 817.73,802.079 819.052,805.487 820.374,808.898 821.696,812.309 823.019,815.721 824.341,819.134 825.663,822.549 826.985,825.964 828.307,829.38 829.629,832.796 830.952,836.214 832.274,839.632 833.596,843.051 834.918,846.47 836.24,849.889 837.562,853.309 838.884,856.729 840.207,860.15 841.529,863.57 842.851,866.991 844.173,870.412 845.495,873.833 846.817,877.253 848.14,880.674 849.462,884.094 850.784,887.515 852.106,890.934 853.428,894.354 854.75,897.773 856.073,901.191 857.395,904.609 858.717,908.026 860.039,911.443 861.361,914.859 862.683,918.273 864.005,921.687 865.328,925.101 866.65,928.513 867.972,931.924 869.294,935.333 870.616,938.742 871.938,942.149 873.261,945.555 874.583,948.96 875.905,952.363 877.227,955.765 878.549,959.165 879.871,962.563 881.194,965.96 882.516,969.355 883.838,972.748 885.16,976.139 886.482,979.528 887.804,982.915 889.127,986.301 890.449,989.684 891.771,993.064 893.093,996.443 894.415,999.819 895.737,1003.19 897.059,1006.56 898.382,1009.93 899.704,1013.28 901.026,1016.57 902.348,1019.81 903.67,1023 904.992,1026.14 906.315,1029.24 907.637,1032.28 908.959,1035.29 910.281,1038.24 911.603,1041.15 912.925,1044.02 914.248,1046.84 915.57,1049.62 916.892,1052.36 918.214,1055.06 919.536,1057.71 920.858,1060.33 922.18,1062.9 923.503,1065.44 924.825,1067.94 926.147,1070.4 927.469,1072.82 928.791,1075.2 930.113,1077.55 931.436,1079.87 932.758,1082.15 934.08,1084.39 935.402,1086.6 936.724,1088.78 938.046,1090.92 939.369,1093.03 940.691,1095.11 942.013,1097.16 943.335,1099.18 944.657,1101.16 945.979,1103.12 947.301,1105.05 948.624,1106.94 949.946,1108.81 951.268,1110.65 952.59,1112.47 953.912,1114.25 955.234,1116.01 956.557,1117.74 957.879,1119.45 959.201,1121.13 960.523,1122.78 961.845,1124.41 963.167,1126.02 964.49,1127.6 965.812,1129.16 967.134,1130.69 968.456,1132.2 969.778,1133.69 971.1,1135.15 972.422,1136.6 973.745,1138.02 975.067,1139.42 976.389,1140.8 977.711,1142.16 979.033,1143.49 980.355,1144.81 981.678,1146.11 983,1147.39 984.322,1148.65 985.644,1149.89 986.966,1151.11 988.288,1152.31 989.611,1153.49 990.933,1154.66 992.255,1155.81 993.577,1156.94 994.899,1158.06 996.221,1159.16 997.544,1160.24 998.866,1161.3 1000.19,1162.35 1001.51,1163.39 1002.83,1164.41 1004.15,1165.41 1005.48,1166.4 1006.8,1167.37 1008.12,1168.33 1009.44,1169.27 1010.77,1170.2 1012.09,1171.12 1013.41,1172.02 1014.73,1172.91 1016.05,1173.78 1017.38,1174.65 1018.7,1175.5 1020.02,1176.33 1021.34,1177.16 1022.66,1177.97 1023.99,1178.77 1025.31,1179.55 1026.63,1180.33 1027.95,1181.09 1029.28,1181.85 1030.6,1182.59 1031.92,1183.32 1033.24,1184.04 1034.56,1184.75 1035.89,1185.44 1037.21,1186.13 1038.53,1186.81 1039.85,1187.48 1041.17,1188.13 1042.5,1188.78 1043.82,1189.42 1045.14,1190.04 1046.46,1190.66 1047.79,1191.27 1049.11,1191.87 1050.43,1192.46 1051.75,1193.04 1053.07,1193.62 1054.4,1194.18 1055.72,1194.74 1057.04,1195.29 1058.36,1195.83 1059.68,1196.36 1061.01,1196.88 1062.33,1197.4 1063.65,1197.91 1064.97,1198.41 1066.3,1198.9 1067.62,1199.39 1068.94,1199.86 1070.26,1200.34 1071.58,1200.8 1072.91,1201.26 1074.23,1201.71 1075.55,1202.15 1076.87,1202.59 1078.2,1203.02 1079.52,1203.44 1080.84,1203.86 1082.16,1204.27 1083.48,1204.68 1084.81,1205.08 1086.13,1205.47 1087.45,1205.86 1088.77,1206.24 1090.09,1206.61 1091.42,1206.98 1092.74,1207.35 1094.06,1207.71 1095.38,1208.06 1096.71,1208.41 1098.03,1208.75 1099.35,1209.09 1100.67,1209.42 1101.99,1209.75 1103.32,1210.07 1104.64,1210.39 1105.96,1210.7 1107.28,1211.01 1108.6,1211.31 1109.93,1211.61 1111.25,1211.91 1112.57,1212.2 1113.89,1212.48 1115.22,1212.77 1116.54,1213.04 1117.86,1213.32 1119.18,1213.59 1120.5,1213.85 1121.83,1214.11 1123.15,1214.37 1124.47,1214.62 1125.79,1214.87 1127.12,1215.12 1128.44,1215.36 1129.76,1215.6 1131.08,1215.83 1132.4,1216.06 1133.73,1216.29 1135.05,1216.51 1136.37,1216.73 1137.69,1216.95 1139.01,1217.16 1140.34,1217.37 1141.66,1217.58 1142.98,1217.79 1144.3,1217.99 1145.63,1218.18 1146.95,1218.38 1148.27,1218.57 1149.59,1218.76 1150.91,1218.95 1152.24,1219.13 1153.56,1219.31 1154.88,1219.49 1156.2,1219.66 1157.52,1219.83 1158.85,1220 1160.17,1220.17 1161.49,1220.33 1162.81,1220.5 1164.14,1220.66 1165.46,1220.81 1166.78,1220.97 1168.1,1221.12 1169.42,1221.27 1170.75,1221.41 1172.07,1221.56 1173.39,1221.7 1174.71,1221.84 1176.03,1221.98 1177.36,1222.12 1178.68,1222.25 1180,1222.38 1181.32,1222.51 1182.65,1222.64 1183.97,1222.76 1185.29,1222.89 1186.61,1223.01 1187.93,1223.13 1189.26,1223.24 1190.58,1223.36 1191.9,1223.47 1193.22,1223.59 1194.55,1223.7 1195.87,1223.8 1197.19,1223.91 1198.51,1224.02 1199.83,1224.12 1201.16,1224.22 1202.48,1224.32 1203.8,1224.42 1205.12,1224.51 1206.44,1224.61 1207.77,1224.7 1209.09,1224.79 1210.41,1224.88 1211.73,1224.97 1213.06,1225.06 1214.38,1225.14 1215.7,1225.23 1217.02,1225.31 1218.34,1225.39 1219.67,1225.47 1220.99,1225.55 1222.31,1225.62 1223.63,1225.7 1224.95,1225.77 1226.28,1225.85 1227.6,1225.92 1228.92,1225.99 1230.24,1226.06 1231.57,1226.12 1232.89,1226.19 1234.21,1226.26 1235.53,1226.32 1236.85,1226.38 1238.18,1226.44 1239.5,1226.5 1240.82,1226.56 1242.14,1226.62 1243.46,1226.68 1244.79,1226.73 1246.11,1226.79 1247.43,1226.84 1248.75,1226.89 1250.08,1226.94 1251.4,1226.99 1252.72,1227.04 1254.04,1227.09 1255.36,1227.14 1256.69,1227.18 1258.01,1227.23 1259.33,1227.27 1260.65,1227.32 1261.98,1227.36 1263.3,1227.4 1264.62,1227.44 1265.94,1227.48 1267.26,1227.52 1268.59,1227.55 1269.91,1227.59 1271.23,1227.62 1272.55,1227.66 1273.87,1227.69 1275.2,1227.72 1276.52,1227.76 1277.84,1227.79 1279.16,1227.82 1280.49,1227.85 1281.81,1227.87 1283.13,1227.9 1284.45,1227.93 1285.77,1227.95 1287.1,1227.98 1288.42,1228 1289.74,1228.03 1291.06,1228.05 1292.38,1228.07 1293.71,1228.09 1295.03,1228.11 1296.35,1228.13 1297.67,1228.15 1299,1228.17 1300.32,1228.19 1301.64,1228.21 1302.96,1228.23 1304.28,1228.25 1305.61,1228.26 1306.93,1228.28 1308.25,1228.3 1309.57,1228.32 1310.9,1228.34 1312.22,1228.36 1313.54,1228.38 1314.86,1228.39 1316.18,1228.41 1317.51,1228.43 1318.83,1228.45 1320.15,1228.46 1321.47,1228.48 1322.79,1228.5 1324.12,1228.52 1325.44,1228.54 1326.76,1228.55 1328.08,1228.57 1329.41,1228.59 1330.73,1228.6 1332.05,1228.62 1333.37,1228.64 1334.69,1228.65 1336.02,1228.67 1337.34,1228.69 1338.66,1228.7 1339.98,1228.72 1341.3,1228.74 1342.63,1228.75 1343.95,1228.77 1345.27,1228.79 1346.59,1228.8 1347.92,1228.82 1349.24,1228.83 1350.56,1228.85 1351.88,1228.87 1353.2,1228.88 1354.53,1228.9 1355.85,1228.91 1357.17,1228.93 1358.49,1228.94 1359.81,1228.96 1361.14,1228.97 1362.46,1228.99 1363.78,1229 1365.1,1229.02 1366.43,1229.03 1367.75,1229.05 1369.07,1229.06 1370.39,1229.08 1371.71,1229.09 1373.04,1229.11 1374.36,1229.12 1375.68,1229.14 1377,1229.15 1378.33,1229.16 1379.65,1229.18 1380.97,1229.19 1382.29,1229.21 1383.61,1229.22 1384.94,1229.23 1386.26,1229.25 1387.58,1229.26 1388.9,1229.28 1390.22,1229.29 1391.55,1229.3 1392.87,1229.32 1394.19,1229.33 1395.51,1229.34 1396.84,1229.36 1398.16,1229.37 1399.48,1229.38 1400.8,1229.4 1402.12,1229.41 1403.45,1229.42 1404.77,1229.43 1406.09,1229.45 1407.41,1229.46 1408.73,1229.47 1410.06,1229.48 1411.38,1229.5 1412.7,1229.51 1414.02,1229.52 1415.35,1229.53 1416.67,1229.55 1417.99,1229.56 1419.31,1229.57 1420.63,1229.58 1421.96,1229.59 1423.28,1229.61 1424.6,1229.62 1425.92,1229.63 1427.24,1229.64 1428.57,1229.65 1429.89,1229.67 1431.21,1229.68 1432.53,1229.69 1433.86,1229.7 1435.18,1229.71 1436.5,1229.72 1437.82,1229.73 1439.14,1229.75 1440.47,1229.76 1441.79,1229.77 1443.11,1229.78 1444.43,1229.79 1445.76,1229.8 1447.08,1229.81 1448.4,1229.82 1449.72,1229.83 1451.04,1229.84 1452.37,1229.86 1453.69,1229.87 1455.01,1229.88 1456.33,1229.89 1457.65,1229.9 1458.98,1229.91 1460.3,1229.92 1461.62,1229.93 1462.94,1229.94 1464.27,1229.95 1465.59,1229.96 1466.91,1229.97 1468.23,1229.98 1469.55,1229.99 1470.88,1230 1472.2,1230.01 1473.52,1230.02 1474.84,1230.03 1476.16,1230.04 1477.49,1230.05 1478.81,1230.06 1480.13,1230.07 1481.45,1230.08 1482.78,1230.09 1484.1,1230.1 1485.42,1230.11 1486.74,1230.12 1488.06,1230.13 1489.39,1230.13 1490.71,1230.14 1492.03,1230.15 1493.35,1230.16 1494.68,1230.17 1496,1230.18 1497.32,1230.19 1498.64,1230.2 1499.96,1230.21 1501.29,1230.22 1502.61,1230.23 1503.93,1230.23 1505.25,1230.24 1506.57,1230.25 1507.9,1230.26 1509.22,1230.27 1510.54,1230.28 1511.86,1230.29 1513.19,1230.29 1514.51,1230.3 1515.83,1230.31 1517.15,1230.32 1518.47,1230.33 1519.8,1230.34 1521.12,1230.34 1522.44,1230.35 1523.76,1230.36 1525.08,1230.37 1526.41,1230.38 1527.73,1230.39 1529.05,1230.39 1530.37,1230.4 1531.7,1230.41 1533.02,1230.42 1534.34,1230.43 1535.66,1230.43 1536.98,1230.44 1538.31,1230.45 1539.63,1230.46 1540.95,1230.46 1542.27,1230.47 1543.59,1230.48 1544.92,1230.49 1546.24,1230.49 1547.56,1230.5 1548.88,1230.51 1550.21,1230.52 1551.53,1230.52 1552.85,1230.53 1554.17,1230.54 1555.49,1230.55 1556.82,1230.55 1558.14,1230.56 1559.46,1230.57 1560.78,1230.57 1562.11,1230.58 1563.43,1230.59 1564.75,1230.6 1566.07,1230.6 1567.39,1230.61 1568.72,1230.62 1570.04,1230.62 1571.36,1230.63 1572.68,1230.64 1574,1230.64 1575.33,1230.65 1576.65,1230.66 1577.97,1230.66 1579.29,1230.67 1580.62,1230.68 1581.94,1230.68 1583.26,1230.69 1584.58,1230.7 1585.9,1230.7 1587.23,1230.71 1588.55,1230.72 1589.87,1230.72 1591.19,1230.73 1592.51,1230.74 1593.84,1230.74 1595.16,1230.75 1596.48,1230.75 1597.8,1230.76 1599.13,1230.77 1600.45,1230.77 1601.77,1230.78 1603.09,1230.78 1604.41,1230.79 1605.74,1230.8 1607.06,1230.8 1608.38,1230.81 1609.7,1230.81 1611.03,1230.82 1612.35,1230.83 1613.67,1230.83 1614.99,1230.84 1616.31,1230.84 1617.64,1230.85 1618.96,1230.86 1620.28,1230.86 1621.6,1230.87 1622.92,1230.87 1624.25,1230.88 1625.57,1230.88 1626.89,1230.89 1628.21,1230.89 1629.54,1230.9 1630.86,1230.91 1632.18,1230.91 1633.5,1230.92 1634.82,1230.92 1636.15,1230.93 1637.47,1230.93 1638.79,1230.94 1640.11,1230.94 1641.43,1230.95 1642.76,1230.95 1644.08,1230.96 1645.4,1230.96 1646.72,1230.97 1648.05,1230.97 1649.37,1230.98 1650.69,1230.98 1652.01,1230.99 1653.33,1230.99 1654.66,1231 1655.98,1231 1657.3,1231.01 1658.62,1231.01 1659.94,1231.02 1661.27,1231.02 1662.59,1231.03 1663.91,1231.03 1665.23,1231.04 1666.56,1231.04 1667.88,1231.05 1669.2,1231.05 1670.52,1231.06 1671.84,1231.06 1673.17,1231.07 1674.49,1231.07 1675.81,1231.08 1677.13,1231.08 1678.46,1231.09 1679.78,1231.09 1681.1,1231.1 1682.42,1231.1 1683.74,1231.1 1685.07,1231.11 1686.39,1231.11 1687.71,1231.12 1689.03,1231.12 1690.35,1231.13 1691.68,1231.13 1693,1231.14 1694.32,1231.14 1695.64,1231.14 1696.97,1231.15 1698.29,1231.15 1699.61,1231.16 1700.93,1231.16 1702.25,1231.17 1703.58,1231.17 1704.9,1231.17 1706.22,1231.18 1707.54,1231.18 1708.86,1231.19 1710.19,1231.19 1711.51,1231.19 1712.83,1231.2 1714.15,1231.2 1715.48,1231.21 1716.8,1231.21 1718.12,1231.21 1719.44,1231.22 1720.76,1231.22 1722.09,1231.23 1723.41,1231.23 1724.73,1231.23 1726.05,1231.24 1727.37,1231.24 1728.7,1231.25 1730.02,1231.25 1731.34,1231.25 1732.66,1231.26 1733.99,1231.26 1735.31,1231.26 1736.63,1231.27 1737.95,1231.27 1739.27,1231.28 1740.6,1231.28 1741.92,1231.28 1743.24,1231.29 1744.56,1231.29 1745.89,1231.29 1747.21,1231.3 1748.53,1231.3 1749.85,1231.3 1751.17,1231.31 1752.5,1231.31 1753.82,1231.31 1755.14,1231.32 1756.46,1231.32 1757.78,1231.32 1759.11,1231.33 1760.43,1231.33 1761.75,1231.33 1763.07,1231.34 1764.4,1231.34 1765.72,1231.34 1767.04,1231.35 1768.36,1231.35 1769.68,1231.35 1771.01,1231.36 1772.33,1231.36 1773.65,1231.36 1774.97,1231.37 1776.29,1231.37 1777.62,1231.37 1778.94,1231.38 1780.26,1231.38 1781.58,1231.38 1782.91,1231.39 1784.23,1231.39 1785.55,1231.39 1786.87,1231.4 1788.19,1231.4 1789.52,1231.4 1790.84,1231.41 1792.16,1231.41 1793.48,1231.41 1794.81,1231.41 1796.13,1231.42 1797.45,1231.42 1798.77,1231.42 1800.09,1231.43 1801.42,1231.43 1802.74,1231.43 1804.06,1231.43 1805.38,1231.44 1806.7,1231.44 1808.03,1231.44 1809.35,1231.45 1810.67,1231.45 1811.99,1231.45 1813.32,1231.45 1814.64,1231.46 1815.96,1231.46 1817.28,1231.46 1818.6,1231.47 1819.93,1231.47 1821.25,1231.47 1822.57,1231.47 1823.89,1231.48 1825.21,1231.48 1826.54,1231.48 1827.86,1231.48 1829.18,1231.49 1830.5,1231.49 1831.83,1231.49 1833.15,1231.5 1834.47,1231.5 1835.79,1231.5 1837.11,1231.5 1838.44,1231.51 1839.76,1231.51 1841.08,1231.51 1842.4,1231.51 1843.72,1231.52 1845.05,1231.52 1846.37,1231.52 1847.69,1231.52 1849.01,1231.53 1850.34,1231.53 1851.66,1231.53 1852.98,1231.53 1854.3,1231.54 1855.62,1231.54 1856.95,1231.54 1858.27,1231.54 1859.59,1231.54 1860.91,1231.55 1862.24,1231.55 1863.56,1231.55 1864.88,1231.55 1866.2,1231.56 1867.52,1231.56 1868.85,1231.56 1870.17,1231.56 1871.49,1231.57 1872.81,1231.57 1874.13,1231.57 1875.46,1231.57 1876.78,1231.57 1878.1,1231.58 1879.42,1231.58 1880.75,1231.58 1882.07,1231.58 1883.39,1231.59 1884.71,1231.59 1886.03,1231.59 1887.36,1231.59 1888.68,1231.59 1890,1231.6 1891.32,1231.6 1892.64,1231.6 1893.97,1231.6 1895.29,1231.6 1896.61,1231.61 1897.93,1231.61 1899.26,1231.61 1900.58,1231.61 1901.9,1231.61 1903.22,1231.62 1904.54,1231.62 1905.87,1231.62 1907.19,1231.62 1908.51,1231.62 1909.83,1231.63 1911.15,1231.63 1912.48,1231.63 1913.8,1231.63 1915.12,1231.63 1916.44,1231.64 1917.77,1231.64 1919.09,1231.64 1920.41,1231.64 1921.73,1231.64 1923.05,1231.65 1924.38,1231.65 1925.7,1231.65 1927.02,1231.65 1928.34,1231.65 1929.67,1231.66 1930.99,1231.66 1932.31,1231.66 1933.63,1231.66 1934.95,1231.66 1936.28,1231.66 1937.6,1231.67 1938.92,1231.67 1940.24,1231.67 1941.56,1231.67 1942.89,1231.67 1944.21,1231.68 1945.53,1231.68 1946.85,1231.68 1948.18,1231.68 1949.5,1231.68 1950.82,1231.68 1952.14,1231.69 1953.46,1231.69 1954.79,1231.69 1956.11,1231.69 1957.43,1231.69 1958.75,1231.69 1960.07,1231.7 1961.4,1231.7 1962.72,1231.7 1964.04,1231.7 1965.36,1231.7 1966.69,1231.7 1968.01,1231.7 1969.33,1231.71 1970.65,1231.71 1971.97,1231.71 1973.3,1231.71 1974.62,1231.71 1975.94,1231.71 1977.26,1231.72 1978.59,1231.72 1979.91,1231.72 1981.23,1231.72 1982.55,1231.72 1983.87,1231.72 1985.2,1231.72 1986.52,1231.73 1987.84,1231.73 1989.16,1231.73 1990.48,1231.73 1991.81,1231.73 1993.13,1231.73 1994.45,1231.73 1995.77,1231.74 1997.1,1231.74 1998.42,1231.74 1999.74,1231.74 2001.06,1231.74 2002.38,1231.74 2003.71,1231.74 2005.03,1231.74 2006.35,1231.75 2007.67,1231.75 2008.99,1231.75 2010.32,1231.75 2011.64,1231.75 2012.96,1231.75 2014.28,1231.75 2015.61,1231.75 2016.93,1231.76 2018.25,1231.76 2019.57,1231.76 2020.89,1231.76 2022.22,1231.76 2023.54,1231.76 2024.86,1231.76 2026.18,1231.76 2027.5,1231.76 2028.83,1231.76 2030.15,1231.77 2031.47,1231.77 2032.79,1231.77 2034.12,1231.77 2035.44,1231.77 2036.76,1231.77 2038.08,1231.77 2039.4,1231.77 2040.73,1231.77 2042.05,1231.77 2043.37,1231.77 2044.69,1231.78 2046.02,1231.78 2047.34,1231.78 2048.66,1231.78 2049.98,1231.78 2051.3,1231.78 2052.63,1231.78 2053.95,1231.78 2055.27,1231.78 2056.59,1231.78 2057.91,1231.78 2059.24,1231.78 2060.56,1231.79 2061.88,1231.79 2063.2,1231.79 2064.53,1231.79 2065.85,1231.79 2067.17,1231.79 2068.49,1231.79 2069.81,1231.79 2071.14,1231.79 2072.46,1231.79 2073.78,1231.79 2075.1,1231.79 2076.42,1231.79 2077.75,1231.79 2079.07,1231.79 2080.39,1231.79 2081.71,1231.8 2083.04,1231.8 2084.36,1231.8 2085.68,1231.8 2087,1231.8 2088.32,1231.8 2089.65,1231.8 2090.97,1231.8 2092.29,1231.8 2093.61,1231.8 2094.94,1231.8 2096.26,1231.8 2097.58,1231.8 2098.9,1231.8 2100.22,1231.8 2101.55,1231.8 2102.87,1231.81 2104.19,1231.81 2105.51,1231.81 2106.83,1231.81 2108.16,1231.81 2109.48,1231.81 2110.8,1231.81 2112.12,1231.81 2113.45,1231.81 2114.77,1231.81 2116.09,1231.81 2117.41,1231.81 2118.73,1231.81 2120.06,1231.81 2121.38,1231.81 2122.7,1231.82 2124.02,1231.82 2125.34,1231.82 2126.67,1231.82 2127.99,1231.82 2129.31,1231.82 2130.63,1231.82 2131.96,1231.82 2133.28,1231.82 2134.6,1231.82 2135.92,1231.82 2137.24,1231.82 2138.57,1231.83 2139.89,1231.83 2141.21,1231.83 2142.53,1231.83 2143.85,1231.83 2145.18,1231.83 2146.5,1231.83 2147.82,1231.83 2149.14,1231.83 2150.47,1231.84 2151.79,1231.84 2153.11,1231.84 2154.43,1231.84 2155.75,1231.84 2157.08,1231.84 2158.4,1231.84 2159.72,1231.85 2161.04,1231.85 2162.37,1231.85 2163.69,1231.85 2165.01,1231.85 2166.33,1231.85 2167.65,1231.85 2168.98,1231.86 2170.3,1231.86 2171.62,1231.86 2172.94,1231.86 2174.26,1231.86 2175.59,1231.87 2176.91,1231.87 2178.23,1231.87 2179.55,1231.87 2180.88,1231.87 2182.2,1231.88 2183.52,1231.88 2184.84,1231.88 2186.16,1231.88 2187.49,1231.89 2188.81,1231.89 2190.13,1231.89 2191.45,1231.89 2192.77,1231.9 2194.1,1231.9 2195.42,1231.9 2196.74,1231.9 2198.06,1231.91 2199.39,1231.91 2200.71,1231.91 2202.03,1231.92 2203.35,1231.92 2204.67,1231.92 2206,1231.93 2207.32,1231.93 2208.64,1231.93 2209.96,1231.94 2211.28,1231.94 2212.61,1231.94 2213.93,1231.95 2215.25,1231.95 2216.57,1231.95 2217.9,1231.96 2219.22,1231.96 2220.54,1231.97 2221.86,1231.97 2223.18,1231.97 2224.51,1231.98 2225.83,1231.98 2227.15,1231.98 2228.47,1231.99 2229.8,1231.99 2231.12,1232 2232.44,1232 2233.76,1232.01 2235.08,1232.01 2236.41,1232.01 2237.73,1232.02 2239.05,1232.02 2240.37,1232.03 2241.69,1232.03 2243.02,1232.04 2244.34,1232.04 2245.66,1232.04 2246.98,1232.05 2248.31,1232.05 2249.63,1232.06 2250.95,1232.06 2252.27,1232.07 2253.59,1232.07 2254.92,1232.08 2256.24,1232.08 2257.56,1232.08 2258.88,1232.09 2260.2,1232.09 2261.53,1232.1 2262.85,1232.1 2264.17,1232.11 2265.49,1232.11 2266.82,1232.11 2268.14,1232.12 2269.46,1232.12 2270.78,1232.13 2272.1,1232.13 2273.43,1232.13 2274.75,1232.14 2276.07,1232.14 2277.39,1232.14 2278.72,1232.15 2280.04,1232.15 2281.36,1232.15 2282.68,1232.16 2284,1232.16 2285.33,1232.16 2286.65,1232.16 2287.97,1232.17 2289.29,1232.17 2290.61,1232.17 2291.94,1232.17 2293.26,1232.18 2294.58,1232.18 2295.9,1232.18 2297.23,1232.18 2298.55,1232.18 2299.87,1232.18 2301.19,1232.18 2302.51,1232.18 2303.84,1232.18 2305.16,1232.18 2306.48,1232.18 2307.8,1232.18 2309.12,1232.18 2310.45,1232.18 2311.77,1232.18 2313.09,1232.18 2314.41,1232.18 2315.74,1232.18 2317.06,1232.17 2318.38,1232.17 2319.7,1232.17 2321.02,1232.17 2322.35,1232.16 2323.67,1232.16 2324.99,1232.16 2326.31,1232.15 2327.63,1232.15 2328.96,1232.15 2330.28,1232.14 2331.6,1232.14 2332.92,1232.13 2334.25,1232.13 2335.57,1232.12 2336.89,1232.12 2338.21,1232.11 2339.53,1232.11 2340.86,1232.1 2342.18,1232.1 2343.5,1232.09 2344.82,1232.08 2346.15,1232.08 2347.47,1232.07 2348.79,1232.06 2350.11,1232.06 2351.43,1232.05 2352.76,1232.04 "/>
<polyline clip-path="url(#clip501)" style="stroke:#e26f46; stroke-linecap:round; stroke-linejoin:round; stroke-width:8; stroke-opacity:1; fill:none" points="369.518,1384.24 370.84,1384.23 372.163,1384.22 373.485,1384.19 374.807,1384.16 376.129,1384.11 377.451,1384.05 378.773,1383.98 380.096,1383.91 381.418,1383.82 382.74,1383.72 384.062,1383.61 385.384,1383.49 386.706,1383.36 388.028,1383.22 389.351,1383.07 390.673,1382.91 391.995,1382.74 393.317,1382.56 394.639,1382.37 395.961,1382.17 397.284,1381.96 398.606,1381.74 399.928,1381.51 401.25,1381.26 402.572,1381.01 403.894,1380.75 405.217,1380.48 406.539,1380.2 407.861,1379.91 409.183,1379.61 410.505,1379.29 411.827,1378.97 413.149,1378.64 414.472,1378.3 415.794,1377.95 417.116,1377.59 418.438,1377.22 419.76,1376.84 421.082,1376.45 422.405,1376.05 423.727,1375.64 425.049,1375.22 426.371,1374.8 427.693,1374.36 429.015,1373.91 430.338,1373.46 431.66,1372.99 432.982,1372.52 434.304,1372.04 435.626,1371.54 436.948,1371.04 438.27,1370.53 439.593,1370.01 440.915,1369.48 442.237,1368.95 443.559,1368.4 444.881,1367.84 446.203,1367.28 447.526,1366.71 448.848,1366.13 450.17,1365.54 451.492,1364.94 452.814,1364.33 454.136,1363.72 455.459,1363.1 456.781,1362.47 458.103,1361.83 459.425,1361.18 460.747,1360.52 462.069,1359.86 463.391,1359.19 464.714,1358.51 466.036,1357.82 467.358,1357.13 468.68,1356.43 470.002,1355.72 471.324,1355 472.647,1354.28 473.969,1353.54 475.291,1352.8 476.613,1352.06 477.935,1351.3 479.257,1350.54 480.58,1349.78 481.902,1349 483.224,1348.22 484.546,1347.43 485.868,1346.64 487.19,1345.84 488.513,1345.03 489.835,1344.22 491.157,1343.4 492.479,1342.57 493.801,1341.74 495.123,1340.9 496.445,1340.05 497.768,1339.2 499.09,1338.35 500.412,1337.49 501.734,1336.62 503.056,1335.74 504.378,1334.87 505.701,1333.98 507.023,1333.09 508.345,1332.2 509.667,1331.3 510.989,1330.39 512.311,1329.48 513.634,1328.57 514.956,1327.65 516.278,1326.73 517.6,1325.8 518.922,1324.86 520.244,1323.93 521.566,1322.98 522.889,1322.04 524.211,1321.09 525.533,1320.14 526.855,1319.18 528.177,1318.22 529.499,1317.25 530.822,1316.28 532.144,1315.31 533.466,1314.33 534.788,1313.35 536.11,1312.37 537.432,1311.38 538.755,1310.4 540.077,1309.4 541.399,1308.41 542.721,1307.41 544.043,1306.41 545.365,1305.41 546.687,1304.41 548.01,1303.4 549.332,1302.39 550.654,1301.38 551.976,1300.36 553.298,1299.35 554.62,1298.33 555.943,1297.31 557.265,1296.29 558.587,1295.27 559.909,1294.24 561.231,1293.22 562.553,1292.19 563.876,1291.16 565.198,1290.13 566.52,1289.1 567.842,1288.07 569.164,1287.04 570.486,1286.01 571.808,1284.98 573.131,1283.94 574.453,1282.91 575.775,1281.87 577.097,1280.84 578.419,1279.81 579.741,1278.77 581.064,1277.74 582.386,1276.7 583.708,1275.67 585.03,1274.64 586.352,1273.6 587.674,1272.57 588.997,1271.54 590.319,1270.51 591.641,1269.48 592.963,1268.45 594.285,1267.43 595.607,1266.4 596.929,1265.38 598.252,1264.35 599.574,1263.33 600.896,1262.31 602.218,1261.29 603.54,1260.27 604.862,1259.26 606.185,1258.25 607.507,1257.24 608.829,1256.23 610.151,1255.22 611.473,1254.22 612.795,1253.22 614.118,1252.22 615.44,1251.22 616.762,1250.23 618.084,1249.24 619.406,1248.25 620.728,1247.26 622.051,1246.28 623.373,1245.3 624.695,1244.33 626.017,1243.35 627.339,1242.39 628.661,1241.42 629.983,1240.46 631.306,1239.5 632.628,1238.55 633.95,1237.6 635.272,1236.65 636.594,1235.71 637.916,1234.77 639.239,1233.84 640.561,1232.91 641.883,1231.98 643.205,1231.06 644.527,1230.15 645.849,1229.24 647.172,1228.33 648.494,1227.43 649.816,1226.53 651.138,1225.64 652.46,1224.75 653.782,1223.87 655.104,1223 656.427,1222.13 657.749,1221.26 659.071,1220.4 660.393,1219.54 661.715,1218.69 663.037,1217.85 664.36,1217.01 665.682,1216.18 667.004,1215.35 668.326,1214.53 669.648,1213.72 670.97,1212.91 672.293,1212.11 673.615,1211.31 674.937,1210.52 676.259,1209.74 677.581,1208.96 678.903,1208.19 680.225,1207.43 681.548,1206.67 682.87,1205.92 684.192,1205.18 685.514,1204.44 686.836,1203.71 688.158,1202.99 689.481,1202.27 690.803,1201.56 692.125,1200.86 693.447,1200.16 694.769,1199.47 696.091,1198.79 697.414,1198.12 698.736,1197.45 700.058,1196.79 701.38,1196.14 702.702,1195.5 704.024,1194.86 705.346,1194.23 706.669,1193.61 707.991,1193 709.313,1192.39 710.635,1191.79 711.957,1191.2 713.279,1190.62 714.602,1190.05 715.924,1189.48 717.246,1188.92 718.568,1188.37 719.89,1187.83 721.212,1187.29 722.535,1186.76 723.857,1186.25 725.179,1185.73 726.501,1185.23 727.823,1184.74 729.145,1184.25 730.467,1183.77 731.79,1183.31 733.112,1182.84 734.434,1182.39 735.756,1181.95 737.078,1181.51 738.4,1181.08 739.723,1180.67 741.045,1180.26 742.367,1179.85 743.689,1179.46 745.011,1179.08 746.333,1178.7 747.656,1178.33 748.978,1177.97 750.3,1177.62 751.622,1177.28 752.944,1176.95 754.266,1176.62 755.589,1176.31 756.911,1176 758.233,1175.7 759.555,1175.41 760.877,1175.13 762.199,1174.86 763.521,1174.59 764.844,1174.34 766.166,1174.09 767.488,1173.85 768.81,1173.63 770.132,1173.4 771.454,1173.19 772.777,1172.99 774.099,1172.8 775.421,1172.61 776.743,1172.43 778.065,1172.27 779.387,1172.11 780.71,1171.96 782.032,1171.81 783.354,1171.68 784.676,1171.56 785.998,1171.44 787.32,1171.33 788.642,1171.23 789.965,1171.14 791.287,1171.06 792.609,1170.99 793.931,1170.92 795.253,1170.87 796.575,1170.82 797.898,1170.78 799.22,1170.75 800.542,1170.73 801.864,1170.71 803.186,1170.71 804.508,1170.71 805.831,1170.72 807.153,1170.74 808.475,1170.77 809.797,1170.8 811.119,1170.85 812.441,1170.9 813.763,1170.96 815.086,1171.03 816.408,1171.11 817.73,1171.19 819.052,1171.29 820.374,1171.39 821.696,1171.5 823.019,1171.61 824.341,1171.74 825.663,1171.87 826.985,1172.01 828.307,1172.16 829.629,1172.31 830.952,1172.48 832.274,1172.65 833.596,1172.83 834.918,1173.01 836.24,1173.21 837.562,1173.41 838.884,1173.62 840.207,1173.84 841.529,1174.06 842.851,1174.29 844.173,1174.53 845.495,1174.77 846.817,1175.02 848.14,1175.28 849.462,1175.55 850.784,1175.82 852.106,1176.1 853.428,1176.39 854.75,1176.69 856.073,1176.99 857.395,1177.29 858.717,1177.61 860.039,1177.93 861.361,1178.25 862.683,1178.59 864.005,1178.93 865.328,1179.27 866.65,1179.63 867.972,1179.99 869.294,1180.35 870.616,1180.72 871.938,1181.1 873.261,1181.48 874.583,1181.87 875.905,1182.26 877.227,1182.66 878.549,1183.07 879.871,1183.48 881.194,1183.9 882.516,1184.32 883.838,1184.75 885.16,1185.18 886.482,1185.62 887.804,1186.07 889.127,1186.51 890.449,1186.97 891.771,1187.43 893.093,1187.89 894.415,1188.36 895.737,1188.83 897.059,1189.31 898.382,1189.79 899.704,1190.28 901.026,1190.76 902.348,1191.23 903.67,1191.7 904.992,1192.16 906.315,1192.62 907.637,1193.08 908.959,1193.53 910.281,1193.97 911.603,1194.42 912.925,1194.85 914.248,1195.29 915.57,1195.72 916.892,1196.14 918.214,1196.56 919.536,1196.98 920.858,1197.39 922.18,1197.8 923.503,1198.21 924.825,1198.61 926.147,1199.01 927.469,1199.4 928.791,1199.79 930.113,1200.18 931.436,1200.56 932.758,1200.94 934.08,1201.32 935.402,1201.69 936.724,1202.06 938.046,1202.43 939.369,1202.79 940.691,1203.15 942.013,1203.5 943.335,1203.86 944.657,1204.2 945.979,1204.55 947.301,1204.89 948.624,1205.23 949.946,1205.57 951.268,1205.9 952.59,1206.24 953.912,1206.56 955.234,1206.89 956.557,1207.21 957.879,1207.53 959.201,1207.85 960.523,1208.16 961.845,1208.47 963.167,1208.78 964.49,1209.09 965.812,1209.39 967.134,1209.69 968.456,1209.99 969.778,1210.28 971.1,1210.58 972.422,1210.87 973.745,1211.16 975.067,1211.44 976.389,1211.73 977.711,1212.01 979.033,1212.28 980.355,1212.56 981.678,1212.84 983,1213.11 984.322,1213.38 985.644,1213.65 986.966,1213.91 988.288,1214.17 989.611,1214.44 990.933,1214.7 992.255,1214.95 993.577,1215.21 994.899,1215.46 996.221,1215.71 997.544,1215.96 998.866,1216.21 1000.19,1216.46 1001.51,1216.7 1002.83,1216.94 1004.15,1217.18 1005.48,1217.42 1006.8,1217.66 1008.12,1217.89 1009.44,1218.13 1010.77,1218.36 1012.09,1218.59 1013.41,1218.82 1014.73,1219.05 1016.05,1219.27 1017.38,1219.5 1018.7,1219.72 1020.02,1219.94 1021.34,1220.16 1022.66,1220.38 1023.99,1220.59 1025.31,1220.81 1026.63,1221.02 1027.95,1221.24 1029.28,1221.45 1030.6,1221.66 1031.92,1221.87 1033.24,1222.07 1034.56,1222.28 1035.89,1222.48 1037.21,1222.69 1038.53,1222.89 1039.85,1223.09 1041.17,1223.29 1042.5,1223.49 1043.82,1223.69 1045.14,1223.89 1046.46,1224.08 1047.79,1224.28 1049.11,1224.47 1050.43,1224.66 1051.75,1224.86 1053.07,1225.05 1054.4,1225.24 1055.72,1225.42 1057.04,1225.61 1058.36,1225.8 1059.68,1225.99 1061.01,1226.17 1062.33,1226.36 1063.65,1226.54 1064.97,1226.72 1066.3,1226.91 1067.62,1227.09 1068.94,1227.27 1070.26,1227.45 1071.58,1227.63 1072.91,1227.81 1074.23,1227.98 1075.55,1228.16 1076.87,1228.34 1078.2,1228.51 1079.52,1228.69 1080.84,1228.86 1082.16,1229.04 1083.48,1229.21 1084.81,1229.38 1086.13,1229.56 1087.45,1229.73 1088.77,1229.9 1090.09,1230.07 1091.42,1230.24 1092.74,1230.41 1094.06,1230.58 1095.38,1230.75 1096.71,1230.92 1098.03,1231.09 1099.35,1231.26 1100.67,1231.42 1101.99,1231.59 1103.32,1231.76 1104.64,1231.93 1105.96,1232.09 1107.28,1232.26 1108.6,1232.42 1109.93,1232.59 1111.25,1232.76 1112.57,1232.92 1113.89,1233.09 1115.22,1233.25 1116.54,1233.42 1117.86,1233.58 1119.18,1233.75 1120.5,1233.91 1121.83,1234.07 1123.15,1234.24 1124.47,1234.4 1125.79,1234.57 1127.12,1234.73 1128.44,1234.89 1129.76,1235.06 1131.08,1235.22 1132.4,1235.39 1133.73,1235.55 1135.05,1235.71 1136.37,1235.88 1137.69,1236.04 1139.01,1236.21 1140.34,1236.37 1141.66,1236.54 1142.98,1236.7 1144.3,1236.87 1145.63,1237.03 1146.95,1237.2 1148.27,1237.36 1149.59,1237.53 1150.91,1237.69 1152.24,1237.86 1153.56,1238.02 1154.88,1238.19 1156.2,1238.36 1157.52,1238.52 1158.85,1238.69 1160.17,1238.86 1161.49,1239.03 1162.81,1239.19 1164.14,1239.36 1165.46,1239.53 1166.78,1239.7 1168.1,1239.87 1169.42,1240.04 1170.75,1240.21 1172.07,1240.38 1173.39,1240.55 1174.71,1240.73 1176.03,1240.9 1177.36,1241.07 1178.68,1241.25 1180,1241.42 1181.32,1241.59 1182.65,1241.77 1183.97,1241.94 1185.29,1242.12 1186.61,1242.3 1187.93,1242.48 1189.26,1242.65 1190.58,1242.83 1191.9,1243.01 1193.22,1243.19 1194.55,1243.37 1195.87,1243.55 1197.19,1243.74 1198.51,1243.92 1199.83,1244.1 1201.16,1244.29 1202.48,1244.47 1203.8,1244.66 1205.12,1244.85 1206.44,1245.03 1207.77,1245.22 1209.09,1245.41 1210.41,1245.6 1211.73,1245.79 1213.06,1245.99 1214.38,1246.18 1215.7,1246.37 1217.02,1246.57 1218.34,1246.77 1219.67,1246.96 1220.99,1247.16 1222.31,1247.36 1223.63,1247.56 1224.95,1247.76 1226.28,1247.96 1227.6,1248.17 1228.92,1248.37 1230.24,1248.58 1231.57,1248.78 1232.89,1248.99 1234.21,1249.2 1235.53,1249.41 1236.85,1249.62 1238.18,1249.83 1239.5,1250.05 1240.82,1250.26 1242.14,1250.48 1243.46,1250.7 1244.79,1250.92 1246.11,1251.14 1247.43,1251.36 1248.75,1251.58 1250.08,1251.81 1251.4,1252.03 1252.72,1252.26 1254.04,1252.49 1255.36,1252.72 1256.69,1252.95 1258.01,1253.18 1259.33,1253.42 1260.65,1253.65 1261.98,1253.89 1263.3,1254.13 1264.62,1254.37 1265.94,1254.61 1267.26,1254.86 1268.59,1255.1 1269.91,1255.35 1271.23,1255.6 1272.55,1255.85 1273.87,1256.1 1275.2,1256.36 1276.52,1256.61 1277.84,1256.87 1279.16,1257.13 1280.49,1257.39 1281.81,1257.65 1283.13,1257.92 1284.45,1258.18 1285.77,1258.45 1287.1,1258.72 1288.42,1259 1289.74,1259.27 1291.06,1259.55 1292.38,1259.83 1293.71,1260.11 1295.03,1260.39 1296.35,1260.67 1297.67,1260.95 1299,1261.23 1300.32,1261.5 1301.64,1261.77 1302.96,1262.04 1304.28,1262.3 1305.61,1262.56 1306.93,1262.82 1308.25,1263.08 1309.57,1263.33 1310.9,1263.58 1312.22,1263.82 1313.54,1264.07 1314.86,1264.31 1316.18,1264.54 1317.51,1264.78 1318.83,1265.01 1320.15,1265.23 1321.47,1265.46 1322.79,1265.67 1324.12,1265.89 1325.44,1266.1 1326.76,1266.31 1328.08,1266.52 1329.41,1266.73 1330.73,1266.93 1332.05,1267.12 1333.37,1267.31 1334.69,1267.5 1336.02,1267.69 1337.34,1267.87 1338.66,1268.05 1339.98,1268.23 1341.3,1268.4 1342.63,1268.57 1343.95,1268.74 1345.27,1268.9 1346.59,1269.06 1347.92,1269.21 1349.24,1269.37 1350.56,1269.51 1351.88,1269.66 1353.2,1269.8 1354.53,1269.94 1355.85,1270.07 1357.17,1270.2 1358.49,1270.33 1359.81,1270.45 1361.14,1270.57 1362.46,1270.69 1363.78,1270.8 1365.1,1270.91 1366.43,1271.02 1367.75,1271.12 1369.07,1271.22 1370.39,1271.31 1371.71,1271.4 1373.04,1271.49 1374.36,1271.57 1375.68,1271.65 1377,1271.73 1378.33,1271.8 1379.65,1271.87 1380.97,1271.94 1382.29,1272 1383.61,1272.06 1384.94,1272.11 1386.26,1272.16 1387.58,1272.21 1388.9,1272.25 1390.22,1272.29 1391.55,1272.33 1392.87,1272.36 1394.19,1272.39 1395.51,1272.42 1396.84,1272.44 1398.16,1272.46 1399.48,1272.47 1400.8,1272.49 1402.12,1272.49 1403.45,1272.5 1404.77,1272.5 1406.09,1272.49 1407.41,1272.49 1408.73,1272.48 1410.06,1272.46 1411.38,1272.45 1412.7,1272.42 1414.02,1272.4 1415.35,1272.37 1416.67,1272.34 1417.99,1272.3 1419.31,1272.27 1420.63,1272.22 1421.96,1272.18 1423.28,1272.13 1424.6,1272.08 1425.92,1272.02 1427.24,1271.96 1428.57,1271.9 1429.89,1271.83 1431.21,1271.76 1432.53,1271.68 1433.86,1271.61 1435.18,1271.53 1436.5,1271.44 1437.82,1271.36 1439.14,1271.26 1440.47,1271.17 1441.79,1271.07 1443.11,1270.97 1444.43,1270.87 1445.76,1270.76 1447.08,1270.65 1448.4,1270.54 1449.72,1270.42 1451.04,1270.3 1452.37,1270.17 1453.69,1270.05 1455.01,1269.92 1456.33,1269.78 1457.65,1269.65 1458.98,1269.51 1460.3,1269.36 1461.62,1269.22 1462.94,1269.07 1464.27,1268.91 1465.59,1268.76 1466.91,1268.6 1468.23,1268.44 1469.55,1268.27 1470.88,1268.1 1472.2,1267.93 1473.52,1267.76 1474.84,1267.58 1476.16,1267.4 1477.49,1267.22 1478.81,1267.04 1480.13,1266.85 1481.45,1266.66 1482.78,1266.46 1484.1,1266.26 1485.42,1266.06 1486.74,1265.86 1488.06,1265.66 1489.39,1265.45 1490.71,1265.24 1492.03,1265.02 1493.35,1264.81 1494.68,1264.59 1496,1264.37 1497.32,1264.14 1498.64,1263.92 1499.96,1263.69 1501.29,1263.45 1502.61,1263.22 1503.93,1262.98 1505.25,1262.74 1506.57,1262.5 1507.9,1262.26 1509.22,1262.01 1510.54,1261.76 1511.86,1261.51 1513.19,1261.26 1514.51,1261 1515.83,1260.74 1517.15,1260.48 1518.47,1260.22 1519.8,1259.95 1521.12,1259.68 1522.44,1259.42 1523.76,1259.14 1525.08,1258.87 1526.41,1258.59 1527.73,1258.32 1529.05,1258.04 1530.37,1257.75 1531.7,1257.47 1533.02,1257.18 1534.34,1256.9 1535.66,1256.61 1536.98,1256.32 1538.31,1256.02 1539.63,1255.73 1540.95,1255.43 1542.27,1255.13 1543.59,1254.83 1544.92,1254.53 1546.24,1254.23 1547.56,1253.92 1548.88,1253.61 1550.21,1253.31 1551.53,1253 1552.85,1252.68 1554.17,1252.37 1555.49,1252.06 1556.82,1251.74 1558.14,1251.42 1559.46,1251.1 1560.78,1250.78 1562.11,1250.46 1563.43,1250.14 1564.75,1249.82 1566.07,1249.49 1567.39,1249.16 1568.72,1248.84 1570.04,1248.51 1571.36,1248.18 1572.68,1247.85 1574,1247.52 1575.33,1247.18 1576.65,1246.85 1577.97,1246.51 1579.29,1246.18 1580.62,1245.84 1581.94,1245.5 1583.26,1245.17 1584.58,1244.83 1585.9,1244.49 1587.23,1244.15 1588.55,1243.8 1589.87,1243.46 1591.19,1243.12 1592.51,1242.78 1593.84,1242.43 1595.16,1242.09 1596.48,1241.74 1597.8,1241.4 1599.13,1241.05 1600.45,1240.7 1601.77,1240.36 1603.09,1240.01 1604.41,1239.66 1605.74,1239.31 1607.06,1238.97 1608.38,1238.62 1609.7,1238.27 1611.03,1237.92 1612.35,1237.57 1613.67,1237.22 1614.99,1236.87 1616.31,1236.52 1617.64,1236.17 1618.96,1235.83 1620.28,1235.48 1621.6,1235.13 1622.92,1234.78 1624.25,1234.43 1625.57,1234.08 1626.89,1233.73 1628.21,1233.38 1629.54,1233.03 1630.86,1232.69 1632.18,1232.34 1633.5,1231.99 1634.82,1231.64 1636.15,1231.3 1637.47,1230.95 1638.79,1230.61 1640.11,1230.26 1641.43,1229.92 1642.76,1229.57 1644.08,1229.23 1645.4,1228.89 1646.72,1228.54 1648.05,1228.2 1649.37,1227.86 1650.69,1227.52 1652.01,1227.18 1653.33,1226.84 1654.66,1226.5 1655.98,1226.17 1657.3,1225.83 1658.62,1225.49 1659.94,1225.16 1661.27,1224.83 1662.59,1224.49 1663.91,1224.16 1665.23,1223.83 1666.56,1223.5 1667.88,1223.17 1669.2,1222.85 1670.52,1222.52 1671.84,1222.2 1673.17,1221.87 1674.49,1221.55 1675.81,1221.23 1677.13,1220.91 1678.46,1220.59 1679.78,1220.27 1681.1,1219.96 1682.42,1219.64 1683.74,1219.33 1685.07,1219.02 1686.39,1218.71 1687.71,1218.4 1689.03,1218.09 1690.35,1217.79 1691.68,1217.48 1693,1217.18 1694.32,1216.88 1695.64,1216.58 1696.97,1216.28 1698.29,1215.99 1699.61,1215.69 1700.93,1215.4 1702.25,1215.11 1703.58,1214.82 1704.9,1214.53 1706.22,1214.25 1707.54,1213.96 1708.86,1213.68 1710.19,1213.4 1711.51,1213.12 1712.83,1212.85 1714.15,1212.57 1715.48,1212.3 1716.8,1212.03 1718.12,1211.77 1719.44,1211.5 1720.76,1211.24 1722.09,1210.97 1723.41,1210.72 1724.73,1210.46 1726.05,1210.2 1727.37,1209.95 1728.7,1209.7 1730.02,1209.45 1731.34,1209.21 1732.66,1208.96 1733.99,1208.72 1735.31,1208.48 1736.63,1208.24 1737.95,1208.01 1739.27,1207.78 1740.6,1207.55 1741.92,1207.32 1743.24,1207.09 1744.56,1206.87 1745.89,1206.65 1747.21,1206.43 1748.53,1206.22 1749.85,1206.01 1751.17,1205.8 1752.5,1205.59 1753.82,1205.38 1755.14,1205.18 1756.46,1204.98 1757.78,1204.78 1759.11,1204.59 1760.43,1204.4 1761.75,1204.21 1763.07,1204.02 1764.4,1203.83 1765.72,1203.65 1767.04,1203.47 1768.36,1203.3 1769.68,1203.12 1771.01,1202.95 1772.33,1202.79 1773.65,1202.62 1774.97,1202.46 1776.29,1202.3 1777.62,1202.14 1778.94,1201.99 1780.26,1201.84 1781.58,1201.69 1782.91,1201.54 1784.23,1201.4 1785.55,1201.26 1786.87,1201.12 1788.19,1200.99 1789.52,1200.86 1790.84,1200.73 1792.16,1200.6 1793.48,1200.48 1794.81,1200.36 1796.13,1200.24 1797.45,1200.13 1798.77,1200.02 1800.09,1199.91 1801.42,1199.81 1802.74,1199.7 1804.06,1199.61 1805.38,1199.51 1806.7,1199.42 1808.03,1199.33 1809.35,1199.24 1810.67,1199.16 1811.99,1199.07 1813.32,1199 1814.64,1198.92 1815.96,1198.85 1817.28,1198.78 1818.6,1198.71 1819.93,1198.65 1821.25,1198.59 1822.57,1198.53 1823.89,1198.48 1825.21,1198.43 1826.54,1198.38 1827.86,1198.34 1829.18,1198.29 1830.5,1198.26 1831.83,1198.22 1833.15,1198.19 1834.47,1198.16 1835.79,1198.13 1837.11,1198.11 1838.44,1198.09 1839.76,1198.07 1841.08,1198.06 1842.4,1198.04 1843.72,1198.04 1845.05,1198.03 1846.37,1198.03 1847.69,1198.03 1849.01,1198.03 1850.34,1198.04 1851.66,1198.05 1852.98,1198.06 1854.3,1198.08 1855.62,1198.1 1856.95,1198.12 1858.27,1198.14 1859.59,1198.17 1860.91,1198.2 1862.24,1198.24 1863.56,1198.27 1864.88,1198.31 1866.2,1198.35 1867.52,1198.4 1868.85,1198.45 1870.17,1198.5 1871.49,1198.56 1872.81,1198.61 1874.13,1198.67 1875.46,1198.74 1876.78,1198.8 1878.1,1198.87 1879.42,1198.94 1880.75,1199.02 1882.07,1199.1 1883.39,1199.18 1884.71,1199.26 1886.03,1199.35 1887.36,1199.44 1888.68,1199.53 1890,1199.62 1891.32,1199.72 1892.64,1199.82 1893.97,1199.92 1895.29,1200.03 1896.61,1200.14 1897.93,1200.25 1899.26,1200.36 1900.58,1200.48 1901.9,1200.6 1903.22,1200.72 1904.54,1200.85 1905.87,1200.97 1907.19,1201.1 1908.51,1201.24 1909.83,1201.37 1911.15,1201.51 1912.48,1201.65 1913.8,1201.79 1915.12,1201.94 1916.44,1202.09 1917.77,1202.24 1919.09,1202.39 1920.41,1202.55 1921.73,1202.71 1923.05,1202.87 1924.38,1203.03 1925.7,1203.2 1927.02,1203.37 1928.34,1203.54 1929.67,1203.71 1930.99,1203.89 1932.31,1204.06 1933.63,1204.24 1934.95,1204.43 1936.28,1204.61 1937.6,1204.8 1938.92,1204.99 1940.24,1205.18 1941.56,1205.37 1942.89,1205.57 1944.21,1205.77 1945.53,1205.97 1946.85,1206.17 1948.18,1206.38 1949.5,1206.58 1950.82,1206.79 1952.14,1207 1953.46,1207.22 1954.79,1207.43 1956.11,1207.65 1957.43,1207.87 1958.75,1208.09 1960.07,1208.31 1961.4,1208.54 1962.72,1208.76 1964.04,1208.99 1965.36,1209.22 1966.69,1209.46 1968.01,1209.69 1969.33,1209.93 1970.65,1210.17 1971.97,1210.41 1973.3,1210.66 1974.62,1210.91 1975.94,1211.15 1977.26,1211.41 1978.59,1211.66 1979.91,1211.91 1981.23,1212.17 1982.55,1212.43 1983.87,1212.69 1985.2,1212.96 1986.52,1213.22 1987.84,1213.49 1989.16,1213.76 1990.48,1214.03 1991.81,1214.31 1993.13,1214.58 1994.45,1214.86 1995.77,1215.14 1997.1,1215.42 1998.42,1215.7 1999.74,1215.99 2001.06,1216.27 2002.38,1216.56 2003.71,1216.85 2005.03,1217.14 2006.35,1217.43 2007.67,1217.72 2008.99,1218.02 2010.32,1218.31 2011.64,1218.61 2012.96,1218.91 2014.28,1219.21 2015.61,1219.51 2016.93,1219.81 2018.25,1220.11 2019.57,1220.41 2020.89,1220.71 2022.22,1221.01 2023.54,1221.31 2024.86,1221.62 2026.18,1221.92 2027.5,1222.22 2028.83,1222.52 2030.15,1222.83 2031.47,1223.13 2032.79,1223.43 2034.12,1223.73 2035.44,1224.03 2036.76,1224.33 2038.08,1224.63 2039.4,1224.93 2040.73,1225.22 2042.05,1225.52 2043.37,1225.81 2044.69,1226.1 2046.02,1226.39 2047.34,1226.68 2048.66,1226.97 2049.98,1227.25 2051.3,1227.54 2052.63,1227.82 2053.95,1228.09 2055.27,1228.37 2056.59,1228.64 2057.91,1228.91 2059.24,1229.18 2060.56,1229.45 2061.88,1229.71 2063.2,1229.97 2064.53,1230.22 2065.85,1230.47 2067.17,1230.72 2068.49,1230.97 2069.81,1231.21 2071.14,1231.44 2072.46,1231.68 2073.78,1231.91 2075.1,1232.13 2076.42,1232.35 2077.75,1232.57 2079.07,1232.78 2080.39,1232.99 2081.71,1233.19 2083.04,1233.39 2084.36,1233.59 2085.68,1233.78 2087,1233.96 2088.32,1234.14 2089.65,1234.32 2090.97,1234.49 2092.29,1234.65 2093.61,1234.81 2094.94,1234.97 2096.26,1235.12 2097.58,1235.26 2098.9,1235.4 2100.22,1235.54 2101.55,1235.67 2102.87,1235.79 2104.19,1235.91 2105.51,1236.02 2106.83,1236.13 2108.16,1236.24 2109.48,1236.33 2110.8,1236.43 2112.12,1236.51 2113.45,1236.6 2114.77,1236.67 2116.09,1236.75 2117.41,1236.81 2118.73,1236.87 2120.06,1236.93 2121.38,1236.98 2122.7,1237.03 2124.02,1237.07 2125.34,1237.11 2126.67,1237.14 2127.99,1237.17 2129.31,1237.2 2130.63,1237.21 2131.96,1237.23 2133.28,1237.24 2134.6,1237.25 2135.92,1237.25 2137.24,1237.25 2138.57,1237.24 2139.89,1237.23 2141.21,1237.22 2142.53,1237.2 2143.85,1237.18 2145.18,1237.16 2146.5,1237.13 2147.82,1237.1 2149.14,1237.06 2150.47,1237.03 2151.79,1236.99 2153.11,1236.95 2154.43,1236.9 2155.75,1236.85 2157.08,1236.8 2158.4,1236.75 2159.72,1236.69 2161.04,1236.64 2162.37,1236.58 2163.69,1236.52 2165.01,1236.46 2166.33,1236.39 2167.65,1236.33 2168.98,1236.26 2170.3,1236.19 2171.62,1236.12 2172.94,1236.05 2174.26,1235.98 2175.59,1235.91 2176.91,1235.84 2178.23,1235.76 2179.55,1235.69 2180.88,1235.61 2182.2,1235.54 2183.52,1235.46 2184.84,1235.39 2186.16,1235.31 2187.49,1235.24 2188.81,1235.16 2190.13,1235.09 2191.45,1235.01 2192.77,1234.94 2194.1,1234.86 2195.42,1234.79 2196.74,1234.71 2198.06,1234.64 2199.39,1234.57 2200.71,1234.5 2202.03,1234.43 2203.35,1234.36 2204.67,1234.29 2206,1234.22 2207.32,1234.15 2208.64,1234.09 2209.96,1234.02 2211.28,1233.96 2212.61,1233.9 2213.93,1233.83 2215.25,1233.77 2216.57,1233.71 2217.9,1233.65 2219.22,1233.6 2220.54,1233.54 2221.86,1233.49 2223.18,1233.43 2224.51,1233.38 2225.83,1233.33 2227.15,1233.28 2228.47,1233.23 2229.8,1233.19 2231.12,1233.14 2232.44,1233.1 2233.76,1233.05 2235.08,1233.01 2236.41,1232.97 2237.73,1232.93 2239.05,1232.89 2240.37,1232.86 2241.69,1232.82 2243.02,1232.78 2244.34,1232.75 2245.66,1232.72 2246.98,1232.69 2248.31,1232.66 2249.63,1232.63 2250.95,1232.6 2252.27,1232.57 2253.59,1232.55 2254.92,1232.52 2256.24,1232.5 2257.56,1232.48 2258.88,1232.45 2260.2,1232.43 2261.53,1232.41 2262.85,1232.39 2264.17,1232.37 2265.49,1232.36 2266.82,1232.34 2268.14,1232.32 2269.46,1232.31 2270.78,1232.29 2272.1,1232.28 2273.43,1232.27 2274.75,1232.25 2276.07,1232.24 2277.39,1232.23 2278.72,1232.22 2280.04,1232.21 2281.36,1232.2 2282.68,1232.19 2284,1232.18 2285.33,1232.17 2286.65,1232.16 2287.97,1232.16 2289.29,1232.15 2290.61,1232.14 2291.94,1232.14 2293.26,1232.13 2294.58,1232.12 2295.9,1232.12 2297.23,1232.11 2298.55,1232.11 2299.87,1232.1 2301.19,1232.1 2302.51,1232.1 2303.84,1232.09 2305.16,1232.09 2306.48,1232.09 2307.8,1232.08 2309.12,1232.08 2310.45,1232.08 2311.77,1232.07 2313.09,1232.07 2314.41,1232.07 2315.74,1232.07 2317.06,1232.07 2318.38,1232.06 2319.7,1232.06 2321.02,1232.06 2322.35,1232.06 2323.67,1232.06 2324.99,1232.06 2326.31,1232.06 2327.63,1232.06 2328.96,1232.05 2330.28,1232.05 2331.6,1232.05 2332.92,1232.05 2334.25,1232.05 2335.57,1232.05 2336.89,1232.05 2338.21,1232.05 2339.53,1232.05 2340.86,1232.05 2342.18,1232.05 2343.5,1232.05 2344.82,1232.05 2346.15,1232.05 2347.47,1232.05 2348.79,1232.04 2350.11,1232.04 2351.43,1232.04 2352.76,1232.04 "/>
<path clip-path="url(#clip500)" d="M1982.03 248.629 L2286.65 248.629 L2286.65 93.1086 L1982.03 93.1086  Z" fill="#ffffff" fill-rule="evenodd" fill-opacity="1"/>
<polyline clip-path="url(#clip500)" style="stroke:#000000; stroke-linecap:round; stroke-linejoin:round; stroke-width:4; stroke-opacity:1; fill:none" points="1982.03,248.629 2286.65,248.629 2286.65,93.1086 1982.03,93.1086 1982.03,248.629 "/>
<polyline clip-path="url(#clip500)" style="stroke:#009af9; stroke-linecap:round; stroke-linejoin:round; stroke-width:8; stroke-opacity:1; fill:none" points="2004.06,144.949 2136.28,144.949 "/>
<path clip-path="url(#clip500)" d="M2158.32 127.669 L2162.99 127.669 L2162.99 158.293 L2179.82 158.293 L2179.82 162.229 L2158.32 162.229 L2158.32 127.669 Z" fill="#000000" fill-rule="nonzero" fill-opacity="1" /><path clip-path="url(#clip500)" d="M2189.4 131.511 L2189.4 144.497 L2195.28 144.497 Q2198.55 144.497 2200.33 142.807 Q2202.11 141.118 2202.11 137.993 Q2202.11 134.891 2200.33 133.201 Q2198.55 131.511 2195.28 131.511 L2189.4 131.511 M2184.73 127.669 L2195.28 127.669 Q2201.09 127.669 2204.06 130.307 Q2207.04 132.923 2207.04 137.993 Q2207.04 143.108 2204.06 145.724 Q2201.09 148.34 2195.28 148.34 L2189.4 148.34 L2189.4 162.229 L2184.73 162.229 L2184.73 127.669 Z" fill="#000000" fill-rule="nonzero" fill-opacity="1" /><path clip-path="url(#clip500)" d="M2223.73 130.747 Q2220.12 130.747 2218.29 134.312 Q2216.49 137.854 2216.49 144.983 Q2216.49 152.09 2218.29 155.655 Q2220.12 159.196 2223.73 159.196 Q2227.37 159.196 2229.17 155.655 Q2231 152.09 2231 144.983 Q2231 137.854 2229.17 134.312 Q2227.37 130.747 2223.73 130.747 M2223.73 127.044 Q2229.54 127.044 2232.6 131.65 Q2235.68 136.233 2235.68 144.983 Q2235.68 153.71 2232.6 158.317 Q2229.54 162.9 2223.73 162.9 Q2217.92 162.9 2214.84 158.317 Q2211.79 153.71 2211.79 144.983 Q2211.79 136.233 2214.84 131.65 Q2217.92 127.044 2223.73 127.044 Z" fill="#000000" fill-rule="nonzero" fill-opacity="1" /><path clip-path="url(#clip500)" d="M2244.7 158.293 L2252.34 158.293 L2252.34 131.928 L2244.03 133.595 L2244.03 129.335 L2252.3 127.669 L2256.97 127.669 L2256.97 158.293 L2264.61 158.293 L2264.61 162.229 L2244.7 162.229 L2244.7 158.293 Z" fill="#000000" fill-rule="nonzero" fill-opacity="1" /><polyline clip-path="url(#clip500)" style="stroke:#e26f46; stroke-linecap:round; stroke-linejoin:round; stroke-width:8; stroke-opacity:1; fill:none" points="2004.06,196.789 2136.28,196.789 "/>
<path clip-path="url(#clip500)" d="M2158.32 179.509 L2162.99 179.509 L2162.99 210.133 L2179.82 210.133 L2179.82 214.069 L2158.32 214.069 L2158.32 179.509 Z" fill="#000000" fill-rule="nonzero" fill-opacity="1" /><path clip-path="url(#clip500)" d="M2189.4 183.351 L2189.4 196.337 L2195.28 196.337 Q2198.55 196.337 2200.33 194.647 Q2202.11 192.958 2202.11 189.833 Q2202.11 186.731 2200.33 185.041 Q2198.55 183.351 2195.28 183.351 L2189.4 183.351 M2184.73 179.509 L2195.28 179.509 Q2201.09 179.509 2204.06 182.147 Q2207.04 184.763 2207.04 189.833 Q2207.04 194.948 2204.06 197.564 Q2201.09 200.18 2195.28 200.18 L2189.4 200.18 L2189.4 214.069 L2184.73 214.069 L2184.73 179.509 Z" fill="#000000" fill-rule="nonzero" fill-opacity="1" /><path clip-path="url(#clip500)" d="M2223.73 182.587 Q2220.12 182.587 2218.29 186.152 Q2216.49 189.694 2216.49 196.823 Q2216.49 203.93 2218.29 207.495 Q2220.12 211.036 2223.73 211.036 Q2227.37 211.036 2229.17 207.495 Q2231 203.93 2231 196.823 Q2231 189.694 2229.17 186.152 Q2227.37 182.587 2223.73 182.587 M2223.73 178.884 Q2229.54 178.884 2232.6 183.49 Q2235.68 188.073 2235.68 196.823 Q2235.68 205.55 2232.6 210.157 Q2229.54 214.74 2223.73 214.74 Q2217.92 214.74 2214.84 210.157 Q2211.79 205.55 2211.79 196.823 Q2211.79 188.073 2214.84 183.49 Q2217.92 178.884 2223.73 178.884 Z" fill="#000000" fill-rule="nonzero" fill-opacity="1" /><path clip-path="url(#clip500)" d="M2247.92 210.133 L2264.24 210.133 L2264.24 214.069 L2242.3 214.069 L2242.3 210.133 Q2244.96 207.379 2249.54 202.749 Q2254.15 198.096 2255.33 196.754 Q2257.58 194.231 2258.45 192.495 Q2259.36 190.735 2259.36 189.046 Q2259.36 186.291 2257.41 184.555 Q2255.49 182.819 2252.39 182.819 Q2250.19 182.819 2247.74 183.583 Q2245.31 184.347 2242.53 185.897 L2242.53 181.175 Q2245.35 180.041 2247.81 179.462 Q2250.26 178.884 2252.3 178.884 Q2257.67 178.884 2260.86 181.569 Q2264.06 184.254 2264.06 188.745 Q2264.06 190.874 2263.25 192.796 Q2262.46 194.694 2260.35 197.286 Q2259.77 197.958 2256.67 201.175 Q2253.57 204.37 2247.92 210.133 Z" fill="#000000" fill-rule="nonzero" fill-opacity="1" /></svg>
