<?xml version="1.0" encoding="utf-8"?>
<svg xmlns="http://www.w3.org/2000/svg" xmlns:xlink="http://www.w3.org/1999/xlink" width="600" height="400" viewBox="0 0 2400 1600">
<defs>
  <clipPath id="clip470">
    <rect x="0" y="0" width="2400" height="1600"/>
  </clipPath>
</defs>
<path clip-path="url(#clip470)" d="M0 1600 L2400 1600 L2400 0 L0 0  Z" fill="#ffffff" fill-rule="evenodd" fill-opacity="1"/>
<defs>
  <clipPath id="clip471">
    <rect x="375" y="47" width="1978" height="1377"/>
  </clipPath>
</defs>
<path clip-path="url(#clip470)" d="M375.418 1423.18 L2352.76 1423.18 L2352.76 47.2441 L375.418 47.2441  Z" fill="#ffffff" fill-rule="evenodd" fill-opacity="1"/>
<polyline clip-path="url(#clip471)" style="stroke:#000000; stroke-linecap:round; stroke-linejoin:round; stroke-width:2; stroke-opacity:0.1; fill:none" points="375.418,1423.18 375.418,47.2441 "/>
<polyline clip-path="url(#clip471)" style="stroke:#000000; stroke-linecap:round; stroke-linejoin:round; stroke-width:2; stroke-opacity:0.1; fill:none" points="1034.53,1423.18 1034.53,47.2441 "/>
<polyline clip-path="url(#clip471)" style="stroke:#000000; stroke-linecap:round; stroke-linejoin:round; stroke-width:2; stroke-opacity:0.1; fill:none" points="1693.64,1423.18 1693.64,47.2441 "/>
<polyline clip-path="url(#clip471)" style="stroke:#000000; stroke-linecap:round; stroke-linejoin:round; stroke-width:2; stroke-opacity:0.1; fill:none" points="2352.76,1423.18 2352.76,47.2441 "/>
<polyline clip-path="url(#clip471)" style="stroke:#000000; stroke-linecap:round; stroke-linejoin:round; stroke-width:2; stroke-opacity:0.1; fill:none" points="375.418,1153.96 2352.76,1153.96 "/>
<polyline clip-path="url(#clip471)" style="stroke:#000000; stroke-linecap:round; stroke-linejoin:round; stroke-width:2; stroke-opacity:0.1; fill:none" points="375.418,870.584 2352.76,870.584 "/>
<polyline clip-path="url(#clip471)" style="stroke:#000000; stroke-linecap:round; stroke-linejoin:round; stroke-width:2; stroke-opacity:0.1; fill:none" points="375.418,587.21 2352.76,587.21 "/>
<polyline clip-path="url(#clip471)" style="stroke:#000000; stroke-linecap:round; stroke-linejoin:round; stroke-width:2; stroke-opacity:0.1; fill:none" points="375.418,303.836 2352.76,303.836 "/>
<polyline clip-path="url(#clip470)" style="stroke:#000000; stroke-linecap:round; stroke-linejoin:round; stroke-width:4; stroke-opacity:1; fill:none" points="375.418,1423.18 2352.76,1423.18 "/>
<polyline clip-path="url(#clip470)" style="stroke:#000000; stroke-linecap:round; stroke-linejoin:round; stroke-width:4; stroke-opacity:1; fill:none" points="375.418,1423.18 375.418,1404.28 "/>
<polyline clip-path="url(#clip470)" style="stroke:#000000; stroke-linecap:round; stroke-linejoin:round; stroke-width:4; stroke-opacity:1; fill:none" points="1034.53,1423.18 1034.53,1404.28 "/>
<polyline clip-path="url(#clip470)" style="stroke:#000000; stroke-linecap:round; stroke-linejoin:round; stroke-width:4; stroke-opacity:1; fill:none" points="1693.64,1423.18 1693.64,1404.28 "/>
<polyline clip-path="url(#clip470)" style="stroke:#000000; stroke-linecap:round; stroke-linejoin:round; stroke-width:4; stroke-opacity:1; fill:none" points="2352.76,1423.18 2352.76,1404.28 "/>
<path clip-path="url(#clip470)" d="M375.418 1454.1 Q371.807 1454.1 369.978 1457.66 Q368.173 1461.2 368.173 1468.33 Q368.173 1475.44 369.978 1479.01 Q371.807 1482.55 375.418 1482.55 Q379.052 1482.55 380.858 1479.01 Q382.687 1475.44 382.687 1468.33 Q382.687 1461.2 380.858 1457.66 Q379.052 1454.1 375.418 1454.1 M375.418 1450.39 Q381.228 1450.39 384.284 1455 Q387.362 1459.58 387.362 1468.33 Q387.362 1477.06 384.284 1481.67 Q381.228 1486.25 375.418 1486.25 Q369.608 1486.25 366.529 1481.67 Q363.474 1477.06 363.474 1468.33 Q363.474 1459.58 366.529 1455 Q369.608 1450.39 375.418 1450.39 Z" fill="#000000" fill-rule="nonzero" fill-opacity="1" /><path clip-path="url(#clip470)" d="M1024.81 1451.02 L1043.16 1451.02 L1043.16 1454.96 L1029.09 1454.96 L1029.09 1463.43 Q1030.11 1463.08 1031.13 1462.92 Q1032.15 1462.73 1033.16 1462.73 Q1038.95 1462.73 1042.33 1465.9 Q1045.71 1469.08 1045.71 1474.49 Q1045.71 1480.07 1042.24 1483.17 Q1038.77 1486.25 1032.45 1486.25 Q1030.27 1486.25 1028 1485.88 Q1025.76 1485.51 1023.35 1484.77 L1023.35 1480.07 Q1025.43 1481.2 1027.66 1481.76 Q1029.88 1482.32 1032.35 1482.32 Q1036.36 1482.32 1038.7 1480.21 Q1041.04 1478.1 1041.04 1474.49 Q1041.04 1470.88 1038.7 1468.77 Q1036.36 1466.67 1032.35 1466.67 Q1030.48 1466.67 1028.6 1467.08 Q1026.75 1467.5 1024.81 1468.38 L1024.81 1451.02 Z" fill="#000000" fill-rule="nonzero" fill-opacity="1" /><path clip-path="url(#clip470)" d="M1668.33 1481.64 L1675.97 1481.64 L1675.97 1455.28 L1667.66 1456.95 L1667.66 1452.69 L1675.92 1451.02 L1680.6 1451.02 L1680.6 1481.64 L1688.24 1481.64 L1688.24 1485.58 L1668.33 1485.58 L1668.33 1481.64 Z" fill="#000000" fill-rule="nonzero" fill-opacity="1" /><path clip-path="url(#clip470)" d="M1707.68 1454.1 Q1704.07 1454.1 1702.24 1457.66 Q1700.44 1461.2 1700.44 1468.33 Q1700.44 1475.44 1702.24 1479.01 Q1704.07 1482.55 1707.68 1482.55 Q1711.32 1482.55 1713.12 1479.01 Q1714.95 1475.44 1714.95 1468.33 Q1714.95 1461.2 1713.12 1457.66 Q1711.32 1454.1 1707.68 1454.1 M1707.68 1450.39 Q1713.49 1450.39 1716.55 1455 Q1719.63 1459.58 1719.63 1468.33 Q1719.63 1477.06 1716.55 1481.67 Q1713.49 1486.25 1707.68 1486.25 Q1701.87 1486.25 1698.79 1481.67 Q1695.74 1477.06 1695.74 1468.33 Q1695.74 1459.58 1698.79 1455 Q1701.87 1450.39 1707.68 1450.39 Z" fill="#000000" fill-rule="nonzero" fill-opacity="1" /><path clip-path="url(#clip470)" d="M2327.94 1481.64 L2335.58 1481.64 L2335.58 1455.28 L2327.27 1456.95 L2327.27 1452.69 L2335.53 1451.02 L2340.21 1451.02 L2340.21 1481.64 L2347.85 1481.64 L2347.85 1485.58 L2327.94 1485.58 L2327.94 1481.64 Z" fill="#000000" fill-rule="nonzero" fill-opacity="1" /><path clip-path="url(#clip470)" d="M2357.34 1451.02 L2375.7 1451.02 L2375.7 1454.96 L2361.62 1454.96 L2361.62 1463.43 Q2362.64 1463.08 2363.66 1462.92 Q2364.68 1462.73 2365.7 1462.73 Q2371.48 1462.73 2374.86 1465.9 Q2378.24 1469.08 2378.24 1474.49 Q2378.24 1480.07 2374.77 1483.17 Q2371.3 1486.25 2364.98 1486.25 Q2362.8 1486.25 2360.53 1485.88 Q2358.29 1485.51 2355.88 1484.77 L2355.88 1480.07 Q2357.96 1481.2 2360.19 1481.76 Q2362.41 1482.32 2364.89 1482.32 Q2368.89 1482.32 2371.23 1480.21 Q2373.57 1478.1 2373.57 1474.49 Q2373.57 1470.88 2371.23 1468.77 Q2368.89 1466.67 2364.89 1466.67 Q2363.01 1466.67 2361.14 1467.08 Q2359.28 1467.5 2357.34 1468.38 L2357.34 1451.02 Z" fill="#000000" fill-rule="nonzero" fill-opacity="1" /><path clip-path="url(#clip470)" d="M1289.05 1537.87 Q1288.06 1537.3 1286.89 1537.04 Q1285.74 1536.76 1284.34 1536.76 Q1279.38 1536.76 1276.7 1540 Q1274.06 1543.22 1274.06 1549.27 L1274.06 1568.04 L1268.17 1568.04 L1268.17 1532.4 L1274.06 1532.4 L1274.06 1537.93 Q1275.91 1534.69 1278.87 1533.13 Q1281.83 1531.54 1286.06 1531.54 Q1286.66 1531.54 1287.4 1531.63 Q1288.13 1531.7 1289.02 1531.85 L1289.05 1537.87 Z" fill="#000000" fill-rule="nonzero" fill-opacity="1" /><path clip-path="url(#clip470)" d="M1329.98 1518.58 Q1325.72 1525.9 1323.65 1533.06 Q1321.58 1540.23 1321.58 1547.58 Q1321.58 1554.93 1323.65 1562.16 Q1325.75 1569.35 1329.98 1576.64 L1324.89 1576.64 Q1320.12 1569.16 1317.73 1561.93 Q1315.37 1554.71 1315.37 1547.58 Q1315.37 1540.48 1317.73 1533.29 Q1320.08 1526.09 1324.89 1518.58 L1329.98 1518.58 Z" fill="#000000" fill-rule="nonzero" fill-opacity="1" /><path clip-path="url(#clip470)" d="M1340.74 1581.6 L1340.74 1532.4 L1346.6 1532.4 L1346.6 1554.55 Q1346.6 1559.16 1348.79 1561.52 Q1350.99 1563.87 1355.29 1563.87 Q1360 1563.87 1362.35 1561.2 Q1364.74 1558.53 1364.74 1553.18 L1364.74 1532.4 L1370.6 1532.4 L1370.6 1559.83 Q1370.6 1561.74 1371.14 1562.66 Q1371.71 1563.56 1372.89 1563.56 Q1373.17 1563.56 1373.68 1563.4 Q1374.19 1563.21 1375.08 1562.82 L1375.08 1567.53 Q1373.78 1568.27 1372.6 1568.62 Q1371.46 1568.97 1370.34 1568.97 Q1368.15 1568.97 1366.84 1567.73 Q1365.54 1566.48 1365.06 1563.94 Q1363.47 1566.45 1361.14 1567.73 Q1358.85 1568.97 1355.73 1568.97 Q1352.49 1568.97 1350.19 1567.73 Q1347.93 1566.48 1346.6 1564 L1346.6 1581.6 L1340.74 1581.6 Z" fill="#000000" fill-rule="nonzero" fill-opacity="1" /><path clip-path="url(#clip470)" d="M1410.57 1539.24 Q1412.77 1535.29 1415.82 1533.41 Q1418.88 1531.54 1423.02 1531.54 Q1428.59 1531.54 1431.61 1535.45 Q1434.63 1539.33 1434.63 1546.53 L1434.63 1568.04 L1428.75 1568.04 L1428.75 1546.72 Q1428.75 1541.59 1426.93 1539.11 Q1425.12 1536.63 1421.39 1536.63 Q1416.84 1536.63 1414.2 1539.65 Q1411.56 1542.68 1411.56 1547.9 L1411.56 1568.04 L1405.67 1568.04 L1405.67 1546.72 Q1405.67 1541.56 1403.86 1539.11 Q1402.04 1536.63 1398.25 1536.63 Q1393.77 1536.63 1391.13 1539.68 Q1388.48 1542.71 1388.48 1547.9 L1388.48 1568.04 L1382.6 1568.04 L1382.6 1532.4 L1388.48 1532.4 L1388.48 1537.93 Q1390.49 1534.66 1393.29 1533.1 Q1396.09 1531.54 1399.94 1531.54 Q1403.82 1531.54 1406.53 1533.51 Q1409.27 1535.48 1410.57 1539.24 Z" fill="#000000" fill-rule="nonzero" fill-opacity="1" /><path clip-path="url(#clip470)" d="M1445.39 1518.58 L1450.49 1518.58 Q1455.26 1526.09 1457.62 1533.29 Q1460 1540.48 1460 1547.58 Q1460 1554.71 1457.62 1561.93 Q1455.26 1569.16 1450.49 1576.64 L1445.39 1576.64 Q1449.63 1569.35 1451.7 1562.16 Q1453.8 1554.93 1453.8 1547.58 Q1453.8 1540.23 1451.7 1533.06 Q1449.63 1525.9 1445.39 1518.58 Z" fill="#000000" fill-rule="nonzero" fill-opacity="1" /><polyline clip-path="url(#clip470)" style="stroke:#000000; stroke-linecap:round; stroke-linejoin:round; stroke-width:4; stroke-opacity:1; fill:none" points="375.418,1423.18 375.418,47.2441 "/>
<polyline clip-path="url(#clip470)" style="stroke:#000000; stroke-linecap:round; stroke-linejoin:round; stroke-width:4; stroke-opacity:1; fill:none" points="375.418,1153.96 394.316,1153.96 "/>
<polyline clip-path="url(#clip470)" style="stroke:#000000; stroke-linecap:round; stroke-linejoin:round; stroke-width:4; stroke-opacity:1; fill:none" points="375.418,870.584 394.316,870.584 "/>
<polyline clip-path="url(#clip470)" style="stroke:#000000; stroke-linecap:round; stroke-linejoin:round; stroke-width:4; stroke-opacity:1; fill:none" points="375.418,587.21 394.316,587.21 "/>
<polyline clip-path="url(#clip470)" style="stroke:#000000; stroke-linecap:round; stroke-linejoin:round; stroke-width:4; stroke-opacity:1; fill:none" points="375.418,303.836 394.316,303.836 "/>
<path clip-path="url(#clip470)" d="M114.26 1160.86 L143.936 1160.86 L143.936 1164.79 L114.26 1164.79 L114.26 1160.86 Z" fill="#000000" fill-rule="nonzero" fill-opacity="1" /><path clip-path="url(#clip470)" d="M158.056 1173.75 L174.376 1173.75 L174.376 1177.69 L152.431 1177.69 L152.431 1173.75 Q155.093 1171 159.677 1166.37 Q164.283 1161.71 165.464 1160.37 Q167.709 1157.85 168.589 1156.11 Q169.491 1154.35 169.491 1152.66 Q169.491 1149.91 167.547 1148.17 Q165.626 1146.44 162.524 1146.44 Q160.325 1146.44 157.871 1147.2 Q155.44 1147.96 152.663 1149.51 L152.663 1144.79 Q155.487 1143.66 157.94 1143.08 Q160.394 1142.5 162.431 1142.5 Q167.802 1142.5 170.996 1145.19 Q174.19 1147.87 174.19 1152.36 Q174.19 1154.49 173.38 1156.41 Q172.593 1158.31 170.487 1160.9 Q169.908 1161.57 166.806 1164.79 Q163.704 1167.99 158.056 1173.75 Z" fill="#000000" fill-rule="nonzero" fill-opacity="1" /><path clip-path="url(#clip470)" d="M184.19 1171.81 L189.075 1171.81 L189.075 1177.69 L184.19 1177.69 L184.19 1171.81 Z" fill="#000000" fill-rule="nonzero" fill-opacity="1" /><path clip-path="url(#clip470)" d="M209.26 1146.2 Q205.649 1146.2 203.82 1149.77 Q202.014 1153.31 202.014 1160.44 Q202.014 1167.55 203.82 1171.11 Q205.649 1174.65 209.26 1174.65 Q212.894 1174.65 214.699 1171.11 Q216.528 1167.55 216.528 1160.44 Q216.528 1153.31 214.699 1149.77 Q212.894 1146.2 209.26 1146.2 M209.26 1142.5 Q215.07 1142.5 218.125 1147.11 Q221.204 1151.69 221.204 1160.44 Q221.204 1169.17 218.125 1173.77 Q215.07 1178.36 209.26 1178.36 Q203.449 1178.36 200.371 1173.77 Q197.315 1169.17 197.315 1160.44 Q197.315 1151.69 200.371 1147.11 Q203.449 1142.5 209.26 1142.5 Z" fill="#000000" fill-rule="nonzero" fill-opacity="1" /><path clip-path="url(#clip470)" d="M257.593 1152.22 L247.014 1162.85 L257.593 1173.43 L254.838 1176.23 L244.213 1165.6 L233.588 1176.23 L230.857 1173.43 L241.412 1162.85 L230.857 1152.22 L233.588 1149.42 L244.213 1160.05 L254.838 1149.42 L257.593 1152.22 Z" fill="#000000" fill-rule="nonzero" fill-opacity="1" /><path clip-path="url(#clip470)" d="M269.954 1173.75 L277.593 1173.75 L277.593 1147.38 L269.282 1149.05 L269.282 1144.79 L277.546 1143.13 L282.222 1143.13 L282.222 1173.75 L289.861 1173.75 L289.861 1177.69 L269.954 1177.69 L269.954 1173.75 Z" fill="#000000" fill-rule="nonzero" fill-opacity="1" /><path clip-path="url(#clip470)" d="M309.305 1146.2 Q305.694 1146.2 303.866 1149.77 Q302.06 1153.31 302.06 1160.44 Q302.06 1167.55 303.866 1171.11 Q305.694 1174.65 309.305 1174.65 Q312.94 1174.65 314.745 1171.11 Q316.574 1167.55 316.574 1160.44 Q316.574 1153.31 314.745 1149.77 Q312.94 1146.2 309.305 1146.2 M309.305 1142.5 Q315.116 1142.5 318.171 1147.11 Q321.25 1151.69 321.25 1160.44 Q321.25 1169.17 318.171 1173.77 Q315.116 1178.36 309.305 1178.36 Q303.495 1178.36 300.417 1173.77 Q297.361 1169.17 297.361 1160.44 Q297.361 1151.69 300.417 1147.11 Q303.495 1142.5 309.305 1142.5 Z" fill="#000000" fill-rule="nonzero" fill-opacity="1" /><path clip-path="url(#clip470)" d="M322.435 1122.2 L337.349 1122.2 L337.349 1125.39 L325.914 1125.39 L325.914 1132.28 Q326.742 1131.99 327.569 1131.86 Q328.397 1131.71 329.224 1131.71 Q333.926 1131.71 336.672 1134.29 Q339.418 1136.87 339.418 1141.27 Q339.418 1145.8 336.597 1148.32 Q333.776 1150.82 328.641 1150.82 Q326.873 1150.82 325.03 1150.52 Q323.206 1150.22 321.25 1149.62 L321.25 1145.8 Q322.942 1146.72 324.748 1147.17 Q326.554 1147.62 328.566 1147.62 Q331.82 1147.62 333.719 1145.91 Q335.619 1144.2 335.619 1141.27 Q335.619 1138.33 333.719 1136.62 Q331.82 1134.91 328.566 1134.91 Q327.043 1134.91 325.519 1135.25 Q324.015 1135.59 322.435 1136.3 L322.435 1122.2 Z" fill="#000000" fill-rule="nonzero" fill-opacity="1" /><path clip-path="url(#clip470)" d="M114.26 877.483 L143.936 877.483 L143.936 881.418 L114.26 881.418 L114.26 877.483 Z" fill="#000000" fill-rule="nonzero" fill-opacity="1" /><path clip-path="url(#clip470)" d="M154.839 890.376 L162.477 890.376 L162.477 864.011 L154.167 865.677 L154.167 861.418 L162.431 859.752 L167.107 859.752 L167.107 890.376 L174.746 890.376 L174.746 894.312 L154.839 894.312 L154.839 890.376 Z" fill="#000000" fill-rule="nonzero" fill-opacity="1" /><path clip-path="url(#clip470)" d="M184.19 888.432 L189.075 888.432 L189.075 894.312 L184.19 894.312 L184.19 888.432 Z" fill="#000000" fill-rule="nonzero" fill-opacity="1" /><path clip-path="url(#clip470)" d="M209.26 862.83 Q205.649 862.83 203.82 866.395 Q202.014 869.937 202.014 877.066 Q202.014 884.173 203.82 887.737 Q205.649 891.279 209.26 891.279 Q212.894 891.279 214.699 887.737 Q216.528 884.173 216.528 877.066 Q216.528 869.937 214.699 866.395 Q212.894 862.83 209.26 862.83 M209.26 859.127 Q215.07 859.127 218.125 863.733 Q221.204 868.316 221.204 877.066 Q221.204 885.793 218.125 890.4 Q215.07 894.983 209.26 894.983 Q203.449 894.983 200.371 890.4 Q197.315 885.793 197.315 877.066 Q197.315 868.316 200.371 863.733 Q203.449 859.127 209.26 859.127 Z" fill="#000000" fill-rule="nonzero" fill-opacity="1" /><path clip-path="url(#clip470)" d="M257.593 868.849 L247.014 879.474 L257.593 890.052 L254.838 892.853 L244.213 882.228 L233.588 892.853 L230.857 890.052 L241.412 879.474 L230.857 868.849 L233.588 866.048 L244.213 876.673 L254.838 866.048 L257.593 868.849 Z" fill="#000000" fill-rule="nonzero" fill-opacity="1" /><path clip-path="url(#clip470)" d="M269.954 890.376 L277.593 890.376 L277.593 864.011 L269.282 865.677 L269.282 861.418 L277.546 859.752 L282.222 859.752 L282.222 890.376 L289.861 890.376 L289.861 894.312 L269.954 894.312 L269.954 890.376 Z" fill="#000000" fill-rule="nonzero" fill-opacity="1" /><path clip-path="url(#clip470)" d="M309.305 862.83 Q305.694 862.83 303.866 866.395 Q302.06 869.937 302.06 877.066 Q302.06 884.173 303.866 887.737 Q305.694 891.279 309.305 891.279 Q312.94 891.279 314.745 887.737 Q316.574 884.173 316.574 877.066 Q316.574 869.937 314.745 866.395 Q312.94 862.83 309.305 862.83 M309.305 859.127 Q315.116 859.127 318.171 863.733 Q321.25 868.316 321.25 877.066 Q321.25 885.793 318.171 890.4 Q315.116 894.983 309.305 894.983 Q303.495 894.983 300.417 890.4 Q297.361 885.793 297.361 877.066 Q297.361 868.316 300.417 863.733 Q303.495 859.127 309.305 859.127 Z" fill="#000000" fill-rule="nonzero" fill-opacity="1" /><path clip-path="url(#clip470)" d="M322.435 838.821 L337.349 838.821 L337.349 842.018 L325.914 842.018 L325.914 848.902 Q326.742 848.62 327.569 848.488 Q328.397 848.338 329.224 848.338 Q333.926 848.338 336.672 850.915 Q339.418 853.491 339.418 857.892 Q339.418 862.425 336.597 864.945 Q333.776 867.447 328.641 867.447 Q326.873 867.447 325.03 867.146 Q323.206 866.845 321.25 866.243 L321.25 862.425 Q322.942 863.346 324.748 863.798 Q326.554 864.249 328.566 864.249 Q331.82 864.249 333.719 862.538 Q335.619 860.826 335.619 857.892 Q335.619 854.958 333.719 853.247 Q331.82 851.535 328.566 851.535 Q327.043 851.535 325.519 851.874 Q324.015 852.212 322.435 852.927 L322.435 838.821 Z" fill="#000000" fill-rule="nonzero" fill-opacity="1" /><path clip-path="url(#clip470)" d="M327.474 573.008 Q323.863 573.008 322.034 576.573 Q320.228 580.115 320.228 587.244 Q320.228 594.351 322.034 597.916 Q323.863 601.457 327.474 601.457 Q331.108 601.457 332.913 597.916 Q334.742 594.351 334.742 587.244 Q334.742 580.115 332.913 576.573 Q331.108 573.008 327.474 573.008 M327.474 569.305 Q333.284 569.305 336.339 573.911 Q339.418 578.495 339.418 587.244 Q339.418 595.971 336.339 600.578 Q333.284 605.161 327.474 605.161 Q321.664 605.161 318.585 600.578 Q315.529 595.971 315.529 587.244 Q315.529 578.495 318.585 573.911 Q321.664 569.305 327.474 569.305 Z" fill="#000000" fill-rule="nonzero" fill-opacity="1" /><path clip-path="url(#clip470)" d="M154.839 323.628 L162.477 323.628 L162.477 297.262 L154.167 298.929 L154.167 294.67 L162.431 293.003 L167.107 293.003 L167.107 323.628 L174.746 323.628 L174.746 327.563 L154.839 327.563 L154.839 323.628 Z" fill="#000000" fill-rule="nonzero" fill-opacity="1" /><path clip-path="url(#clip470)" d="M184.19 321.684 L189.075 321.684 L189.075 327.563 L184.19 327.563 L184.19 321.684 Z" fill="#000000" fill-rule="nonzero" fill-opacity="1" /><path clip-path="url(#clip470)" d="M209.26 296.082 Q205.649 296.082 203.82 299.647 Q202.014 303.188 202.014 310.318 Q202.014 317.424 203.82 320.989 Q205.649 324.531 209.26 324.531 Q212.894 324.531 214.699 320.989 Q216.528 317.424 216.528 310.318 Q216.528 303.188 214.699 299.647 Q212.894 296.082 209.26 296.082 M209.26 292.378 Q215.07 292.378 218.125 296.985 Q221.204 301.568 221.204 310.318 Q221.204 319.045 218.125 323.651 Q215.07 328.234 209.26 328.234 Q203.449 328.234 200.371 323.651 Q197.315 319.045 197.315 310.318 Q197.315 301.568 200.371 296.985 Q203.449 292.378 209.26 292.378 Z" fill="#000000" fill-rule="nonzero" fill-opacity="1" /><path clip-path="url(#clip470)" d="M257.593 302.1 L247.014 312.725 L257.593 323.304 L254.838 326.105 L244.213 315.48 L233.588 326.105 L230.857 323.304 L241.412 312.725 L230.857 302.1 L233.588 299.299 L244.213 309.924 L254.838 299.299 L257.593 302.1 Z" fill="#000000" fill-rule="nonzero" fill-opacity="1" /><path clip-path="url(#clip470)" d="M269.954 323.628 L277.593 323.628 L277.593 297.262 L269.282 298.929 L269.282 294.67 L277.546 293.003 L282.222 293.003 L282.222 323.628 L289.861 323.628 L289.861 327.563 L269.954 327.563 L269.954 323.628 Z" fill="#000000" fill-rule="nonzero" fill-opacity="1" /><path clip-path="url(#clip470)" d="M309.305 296.082 Q305.694 296.082 303.866 299.647 Q302.06 303.188 302.06 310.318 Q302.06 317.424 303.866 320.989 Q305.694 324.531 309.305 324.531 Q312.94 324.531 314.745 320.989 Q316.574 317.424 316.574 310.318 Q316.574 303.188 314.745 299.647 Q312.94 296.082 309.305 296.082 M309.305 292.378 Q315.116 292.378 318.171 296.985 Q321.25 301.568 321.25 310.318 Q321.25 319.045 318.171 323.651 Q315.116 328.234 309.305 328.234 Q303.495 328.234 300.417 323.651 Q297.361 319.045 297.361 310.318 Q297.361 301.568 300.417 296.985 Q303.495 292.378 309.305 292.378 Z" fill="#000000" fill-rule="nonzero" fill-opacity="1" /><path clip-path="url(#clip470)" d="M322.435 272.073 L337.349 272.073 L337.349 275.27 L325.914 275.27 L325.914 282.154 Q326.742 281.872 327.569 281.74 Q328.397 281.59 329.224 281.59 Q333.926 281.59 336.672 284.166 Q339.418 286.743 339.418 291.144 Q339.418 295.677 336.597 298.197 Q333.776 300.698 328.641 300.698 Q326.873 300.698 325.03 300.397 Q323.206 300.096 321.25 299.495 L321.25 295.677 Q322.942 296.598 324.748 297.05 Q326.554 297.501 328.566 297.501 Q331.82 297.501 333.719 295.789 Q335.619 294.078 335.619 291.144 Q335.619 288.21 333.719 286.498 Q331.82 284.787 328.566 284.787 Q327.043 284.787 325.519 285.125 Q324.015 285.464 322.435 286.179 L322.435 272.073 Z" fill="#000000" fill-rule="nonzero" fill-opacity="1" /><path clip-path="url(#clip470)" d="M33.8307 976.361 Q33.2578 977.348 33.0032 978.525 Q32.7167 979.671 32.7167 981.071 Q32.7167 986.037 35.9632 988.71 Q39.1779 991.352 45.2253 991.352 L64.0042 991.352 L64.0042 997.24 L28.3562 997.24 L28.3562 991.352 L33.8944 991.352 Q30.6479 989.506 29.0883 986.546 Q27.4968 983.586 27.4968 979.353 Q27.4968 978.748 27.5923 978.016 Q27.656 977.284 27.8151 976.393 L33.8307 976.361 Z" fill="#000000" fill-rule="nonzero" fill-opacity="1" /><path clip-path="url(#clip470)" d="M44.7161 941.158 L47.5806 941.158 L47.5806 968.085 Q53.6281 967.703 56.8109 964.457 Q59.9619 961.179 59.9619 955.354 Q59.9619 951.98 59.1344 948.829 Q58.3069 945.646 56.6518 942.527 L62.1899 942.527 Q63.5267 945.678 64.227 948.988 Q64.9272 952.298 64.9272 955.704 Q64.9272 964.234 59.9619 969.231 Q54.9967 974.197 46.5303 974.197 Q37.7774 974.197 32.6531 969.486 Q27.4968 964.743 27.4968 956.723 Q27.4968 949.529 32.1438 945.36 Q36.7589 941.158 44.7161 941.158 M42.9973 947.015 Q38.1912 947.079 35.3266 949.72 Q32.4621 952.33 32.4621 956.659 Q32.4621 961.561 35.2312 964.521 Q38.0002 967.449 43.0292 967.894 L42.9973 947.015 Z" fill="#000000" fill-rule="nonzero" fill-opacity="1" /><path clip-path="url(#clip470)" d="M46.0847 915.346 Q46.0847 922.443 47.7079 925.181 Q49.3312 927.918 53.2461 927.918 Q56.3653 927.918 58.2114 925.881 Q60.0256 923.812 60.0256 920.279 Q60.0256 915.409 56.5881 912.481 Q53.1188 909.521 47.3897 909.521 L46.0847 909.521 L46.0847 915.346 M43.6657 903.664 L64.0042 903.664 L64.0042 909.521 L58.5933 909.521 Q61.8398 911.526 63.3994 914.518 Q64.9272 917.51 64.9272 921.839 Q64.9272 927.313 61.8716 930.56 Q58.7843 933.774 53.6281 933.774 Q47.6125 933.774 44.5569 929.764 Q41.5014 925.722 41.5014 917.733 L41.5014 909.521 L40.9285 909.521 Q36.8862 909.521 34.6901 912.195 Q32.4621 914.836 32.4621 919.642 Q32.4621 922.698 33.1941 925.594 Q33.9262 928.491 35.3903 931.164 L29.9795 931.164 Q28.7381 927.95 28.1334 924.926 Q27.4968 921.902 27.4968 919.038 Q27.4968 911.303 31.5072 907.484 Q35.5176 903.664 43.6657 903.664 Z" fill="#000000" fill-rule="nonzero" fill-opacity="1" /><path clip-path="url(#clip470)" d="M14.479 891.601 L14.479 885.745 L64.0042 885.745 L64.0042 891.601 L14.479 891.601 Z" fill="#000000" fill-rule="nonzero" fill-opacity="1" /><path clip-path="url(#clip470)" d="M14.5426 859.423 Q21.8632 863.688 29.0246 865.757 Q36.186 867.826 43.5384 867.826 Q50.8908 867.826 58.1159 865.757 Q65.3091 863.656 72.5979 859.423 L72.5979 864.515 Q65.1182 869.29 57.8931 871.677 Q50.668 874.032 43.5384 874.032 Q36.4406 874.032 29.2474 871.677 Q22.0542 869.321 14.5426 864.515 L14.5426 859.423 Z" fill="#000000" fill-rule="nonzero" fill-opacity="1" /><path clip-path="url(#clip470)" d="M16.4842 847.805 L16.4842 817.759 L21.895 817.759 L21.895 841.376 L35.9632 841.376 L35.9632 818.746 L41.3741 818.746 L41.3741 841.376 L58.5933 841.376 L58.5933 817.186 L64.0042 817.186 L64.0042 847.805 L16.4842 847.805 Z" fill="#000000" fill-rule="nonzero" fill-opacity="1" /><path clip-path="url(#clip470)" d="M14.5426 807.797 L14.5426 802.704 Q22.0542 797.93 29.2474 795.575 Q36.4406 793.188 43.5384 793.188 Q50.668 793.188 57.8931 795.575 Q65.1182 797.93 72.5979 802.704 L72.5979 807.797 Q65.3091 803.564 58.1159 801.495 Q50.8908 799.394 43.5384 799.394 Q36.186 799.394 29.0246 801.495 Q21.8632 803.564 14.5426 807.797 Z" fill="#000000" fill-rule="nonzero" fill-opacity="1" /><path clip-path="url(#clip470)" d="M14.5426 746.654 Q21.8632 750.919 29.0246 752.988 Q36.186 755.057 43.5384 755.057 Q50.8908 755.057 58.1159 752.988 Q65.3091 750.888 72.5979 746.654 L72.5979 751.747 Q65.1182 756.521 57.8931 758.908 Q50.668 761.264 43.5384 761.264 Q36.4406 761.264 29.2474 758.908 Q22.0542 756.553 14.5426 751.747 L14.5426 746.654 Z" fill="#000000" fill-rule="nonzero" fill-opacity="1" /><path clip-path="url(#clip470)" d="M64.0042 722.783 L16.4842 740.925 L16.4842 734.209 L56.4926 719.154 L16.4842 704.068 L16.4842 697.384 L64.0042 715.494 L64.0042 722.783 Z" fill="#000000" fill-rule="nonzero" fill-opacity="1" /><path clip-path="url(#clip470)" d="M35.1993 642.225 Q31.2526 640.029 29.3747 636.973 Q27.4968 633.918 27.4968 629.78 Q27.4968 624.21 31.4117 621.186 Q35.2948 618.163 42.4881 618.163 L64.0042 618.163 L64.0042 624.051 L42.679 624.051 Q37.5546 624.051 35.072 625.865 Q32.5894 627.679 32.5894 631.403 Q32.5894 635.955 35.6131 638.596 Q38.6368 641.238 43.8567 641.238 L64.0042 641.238 L64.0042 647.127 L42.679 647.127 Q37.5228 647.127 35.072 648.941 Q32.5894 650.755 32.5894 654.543 Q32.5894 659.03 35.6449 661.672 Q38.6686 664.314 43.8567 664.314 L64.0042 664.314 L64.0042 670.202 L28.3562 670.202 L28.3562 664.314 L33.8944 664.314 Q30.616 662.309 29.0564 659.508 Q27.4968 656.707 27.4968 652.856 Q27.4968 648.973 29.4702 646.267 Q31.4436 643.53 35.1993 642.225 Z" fill="#000000" fill-rule="nonzero" fill-opacity="1" /><path clip-path="url(#clip470)" d="M16.4842 582.196 L34.2127 564.913 L34.2127 571.311 L21.6404 585.315 L34.2127 599.32 L34.2127 605.718 L16.4842 588.435 L16.4842 582.196 Z" fill="#000000" fill-rule="nonzero" fill-opacity="1" /><path clip-path="url(#clip470)" d="M43.5384 554.824 L43.5384 537.668 L48.7583 537.668 L48.7583 554.824 L43.5384 554.824 Z" fill="#000000" fill-rule="nonzero" fill-opacity="1" /><path clip-path="url(#clip470)" d="M58.5933 526.401 L58.5933 515.897 L22.3406 515.897 L24.6323 527.324 L18.7758 527.324 L16.4842 515.961 L16.4842 509.532 L58.5933 509.532 L58.5933 499.028 L64.0042 499.028 L64.0042 526.401 L58.5933 526.401 Z" fill="#000000" fill-rule="nonzero" fill-opacity="1" /><path clip-path="url(#clip470)" d="M14.5426 487.793 L14.5426 482.7 Q22.0542 477.926 29.2474 475.571 Q36.4406 473.184 43.5384 473.184 Q50.668 473.184 57.8931 475.571 Q65.1182 477.926 72.5979 482.7 L72.5979 487.793 Q65.3091 483.56 58.1159 481.491 Q50.8908 479.39 43.5384 479.39 Q36.186 479.39 29.0246 481.491 Q21.8632 483.56 14.5426 487.793 Z" fill="#000000" fill-rule="nonzero" fill-opacity="1" /><polyline clip-path="url(#clip471)" style="stroke:#009af9; stroke-linecap:round; stroke-linejoin:round; stroke-width:8; stroke-opacity:1; fill:none" points="375.418,86.1857 376.736,86.189 378.055,86.1989 379.373,86.2153 380.691,86.2384 382.009,86.2681 383.327,86.3044 384.646,86.3472 385.964,86.3967 387.282,86.4527 388.6,86.5153 389.919,86.5846 391.237,86.6604 392.555,86.7428 393.873,86.8317 395.191,86.9273 396.51,87.0294 397.828,87.1381 399.146,87.2534 400.464,87.3753 401.783,87.5037 403.101,87.6387 404.419,87.7803 405.737,87.9284 407.055,88.0831 408.374,88.2443 409.692,88.4121 411.01,88.5865 412.328,88.7674 413.647,88.9548 414.965,89.1488 416.283,89.3493 417.601,89.5564 418.92,89.7699 420.238,89.99 421.556,90.2167 422.874,90.4498 424.192,90.6894 425.511,90.9356 426.829,91.1882 428.147,91.4474 429.465,91.713 430.784,91.9852 432.102,92.2638 433.42,92.5488 434.738,92.8404 436.056,93.1384 437.375,93.4429 438.693,93.7538 440.011,94.0711 441.329,94.3949 442.648,94.7252 443.966,95.0618 445.284,95.4049 446.602,95.7544 447.92,96.1103 449.239,96.4726 450.557,96.8413 451.875,97.2164 453.193,97.5978 454.512,97.9856 455.83,98.3798 457.148,98.7804 458.466,99.1872 459.785,99.6005 461.103,100.02 462.421,100.446 463.739,100.878 465.057,101.317 466.376,101.761 467.694,102.212 469.012,102.67 470.33,103.133 471.649,103.603 472.967,104.079 474.285,104.562 475.603,105.05 476.921,105.545 478.24,106.046 479.558,106.553 480.876,107.067 482.194,107.587 483.513,108.112 484.831,108.644 486.149,109.182 487.467,109.727 488.785,110.277 490.104,110.833 491.422,111.396 492.74,111.965 494.058,112.54 495.377,113.12 496.695,113.707 498.013,114.3 499.331,114.899 500.649,115.504 501.968,116.115 503.286,116.733 504.604,117.356 505.922,117.985 507.241,118.62 508.559,119.261 509.877,119.907 511.195,120.56 512.514,121.219 513.832,121.884 515.15,122.554 516.468,123.231 517.786,123.913 519.105,124.601 520.423,125.295 521.741,125.995 523.059,126.701 524.378,127.412 525.696,128.129 527.014,128.852 528.332,129.581 529.65,130.315 530.969,131.055 532.287,131.801 533.605,132.553 534.923,133.31 536.242,134.073 537.56,134.842 538.878,135.616 540.196,136.396 541.514,137.181 542.833,137.972 544.151,138.769 545.469,139.571 546.787,140.379 548.106,141.192 549.424,142.011 550.742,142.835 552.06,143.665 553.378,144.5 554.697,145.341 556.015,146.187 557.333,147.038 558.651,147.895 559.97,148.757 561.288,149.625 562.606,150.498 563.924,151.376 565.243,152.26 566.561,153.149 567.879,154.043 569.197,154.942 570.515,155.847 571.834,156.757 573.152,157.672 574.47,158.593 575.788,159.518 577.107,160.449 578.425,161.384 579.743,162.325 581.061,163.271 582.379,164.222 583.698,165.178 585.016,166.14 586.334,167.106 587.652,168.077 588.971,169.053 590.289,170.034 591.607,171.02 592.925,172.012 594.243,173.007 595.562,174.008 596.88,175.014 598.198,176.025 599.516,177.04 600.835,178.06 602.153,179.085 603.471,180.115 604.789,181.149 606.108,182.189 607.426,183.232 608.744,184.281 610.062,185.334 611.38,186.392 612.699,187.455 614.017,188.522 615.335,189.594 616.653,190.67 617.972,191.751 619.29,192.836 620.608,193.926 621.926,195.021 623.244,196.12 624.563,197.223 625.881,198.331 627.199,199.443 628.517,200.559 629.836,201.68 631.154,202.805 632.472,203.934 633.79,205.068 635.108,206.206 636.427,207.348 637.745,208.495 639.063,209.646 640.381,210.8 641.7,211.959 643.018,213.123 644.336,214.29 645.654,215.461 646.972,216.636 648.291,217.816 649.609,218.999 650.927,220.187 652.245,221.378 653.564,222.574 654.882,223.773 656.2,224.976 657.518,226.183 658.837,227.394 660.155,228.609 661.473,229.827 662.791,231.05 664.109,232.276 665.428,233.505 666.746,234.739 668.064,235.976 669.382,237.217 670.701,238.462 672.019,239.71 673.337,240.961 674.655,242.217 675.973,243.476 677.292,244.738 678.61,246.004 679.928,247.273 681.246,248.546 682.565,249.822 683.883,251.102 685.201,252.385 686.519,253.671 687.837,254.961 689.156,256.254 690.474,257.55 691.792,258.849 693.11,260.152 694.429,261.458 695.747,262.767 697.065,264.079 698.383,265.394 699.701,266.713 701.02,268.034 702.338,269.359 703.656,270.686 704.974,272.017 706.293,273.35 707.611,274.687 708.929,276.026 710.247,277.369 711.566,278.714 712.884,280.062 714.202,281.412 715.52,282.766 716.838,284.122 718.157,285.481 719.475,286.843 720.793,288.208 722.111,289.575 723.43,290.945 724.748,292.317 726.066,293.692 727.384,295.069 728.702,296.449 730.021,297.832 731.339,299.217 732.657,300.604 733.975,301.994 735.294,303.387 736.612,304.781 737.93,306.178 739.248,307.577 740.566,308.979 741.885,310.383 743.203,311.789 744.521,313.197 745.839,314.608 747.158,316.02 748.476,317.435 749.794,318.852 751.112,320.271 752.431,321.692 753.749,323.115 755.067,324.539 756.385,325.966 757.703,327.395 759.022,328.826 760.34,330.259 761.658,331.693 762.976,333.129 764.295,334.568 765.613,336.007 766.931,337.449 768.249,338.892 769.567,340.337 770.886,341.784 772.204,343.233 773.522,344.682 774.84,346.134 776.159,347.587 777.477,349.042 778.795,350.498 780.113,351.955 781.431,353.414 782.75,354.875 784.068,356.337 785.386,357.8 786.704,359.264 788.023,360.73 789.341,362.197 790.659,363.666 791.977,365.135 793.295,366.606 794.614,368.078 795.932,369.551 797.25,371.025 798.568,372.5 799.887,373.977 801.205,375.454 802.523,376.932 803.841,378.412 805.16,379.892 806.478,381.373 807.796,382.855 809.114,384.338 810.432,385.822 811.751,387.306 813.069,388.792 814.387,390.278 815.705,391.765 817.024,393.252 818.342,394.74 819.66,396.229 820.978,397.718 822.296,399.208 823.615,400.699 824.933,402.19 826.251,403.682 827.569,405.174 828.888,406.666 830.206,408.159 831.524,409.652 832.842,411.146 834.16,412.64 835.479,414.134 836.797,415.629 838.115,417.123 839.433,418.618 840.752,420.114 842.07,421.609 843.388,423.104 844.706,424.6 846.024,426.096 847.343,427.591 848.661,429.087 849.979,430.583 851.297,432.078 852.616,433.574 853.934,435.07 855.252,436.565 856.57,438.06 857.889,439.556 859.207,441.051 860.525,442.545 861.843,444.04 863.161,445.534 864.48,447.028 865.798,448.521 867.116,450.014 868.434,451.507 869.753,453 871.071,454.491 872.389,455.983 873.707,457.474 875.025,458.964 876.344,460.454 877.662,461.943 878.98,463.432 880.298,464.92 881.617,466.407 882.935,467.894 884.253,469.38 885.571,470.865 886.889,472.35 888.208,473.833 889.526,475.316 890.844,476.798 892.162,478.279 893.481,479.759 894.799,481.238 896.117,482.717 897.435,484.194 898.754,485.67 900.072,487.145 901.39,488.619 902.708,490.092 904.026,491.554 905.345,492.993 906.663,494.41 907.981,495.805 909.299,497.179 910.618,498.533 911.936,499.865 913.254,501.178 914.572,502.47 915.89,503.743 917.209,504.996 918.527,506.231 919.845,507.446 921.163,508.643 922.482,509.822 923.8,510.983 925.118,512.127 926.436,513.253 927.754,514.362 929.073,515.454 930.391,516.529 931.709,517.589 933.027,518.632 934.346,519.659 935.664,520.671 936.982,521.667 938.3,522.649 939.618,523.615 940.937,524.567 942.255,525.504 943.573,526.428 944.891,527.337 946.21,528.232 947.528,529.114 948.846,529.983 950.164,530.838 951.483,531.681 952.801,532.51 954.119,533.328 955.437,534.133 956.755,534.925 958.074,535.706 959.392,536.475 960.71,537.232 962.028,537.978 963.347,538.713 964.665,539.436 965.983,540.149 967.301,540.851 968.619,541.542 969.938,542.223 971.256,542.893 972.574,543.554 973.892,544.204 975.211,544.845 976.529,545.476 977.847,546.097 979.165,546.71 980.483,547.313 981.802,547.906 983.12,548.491 984.438,549.067 985.756,549.635 987.075,550.194 988.393,550.744 989.711,551.286 991.029,551.82 992.347,552.346 993.666,552.864 994.984,553.375 996.302,553.877 997.62,554.372 998.939,554.86 1000.26,555.34 1001.58,555.813 1002.89,556.279 1004.21,556.738 1005.53,557.19 1006.85,557.635 1008.17,558.074 1009.48,558.506 1010.8,558.931 1012.12,559.35 1013.44,559.763 1014.76,560.17 1016.08,560.57 1017.39,560.965 1018.71,561.353 1020.03,561.736 1021.35,562.113 1022.67,562.484 1023.98,562.85 1025.3,563.21 1026.62,563.565 1027.94,563.915 1029.26,564.259 1030.58,564.598 1031.89,564.932 1033.21,565.261 1034.53,565.586 1035.85,565.905 1037.17,566.219 1038.49,566.529 1039.8,566.834 1041.12,567.135 1042.44,567.431 1043.76,567.722 1045.08,568.01 1046.39,568.292 1047.71,568.571 1049.03,568.846 1050.35,569.116 1051.67,569.382 1052.99,569.645 1054.3,569.903 1055.62,570.158 1056.94,570.408 1058.26,570.655 1059.58,570.899 1060.9,571.138 1062.21,571.374 1063.53,571.607 1064.85,571.836 1066.17,572.061 1067.49,572.284 1068.8,572.502 1070.12,572.718 1071.44,572.93 1072.76,573.14 1074.08,573.346 1075.4,573.549 1076.71,573.748 1078.03,573.945 1079.35,574.139 1080.67,574.33 1081.99,574.519 1083.31,574.704 1084.62,574.886 1085.94,575.066 1087.26,575.243 1088.58,575.418 1089.9,575.59 1091.21,575.759 1092.53,575.926 1093.85,576.09 1095.17,576.252 1096.49,576.411 1097.81,576.568 1099.12,576.723 1100.44,576.875 1101.76,577.025 1103.08,577.173 1104.4,577.318 1105.71,577.461 1107.03,577.603 1108.35,577.742 1109.67,577.878 1110.99,578.013 1112.31,578.146 1113.62,578.277 1114.94,578.406 1116.26,578.533 1117.58,578.658 1118.9,578.781 1120.22,578.902 1121.53,579.022 1122.85,579.139 1124.17,579.255 1125.49,579.369 1126.81,579.481 1128.12,579.592 1129.44,579.701 1130.76,579.808 1132.08,579.914 1133.4,580.018 1134.72,580.121 1136.03,580.221 1137.35,580.321 1138.67,580.419 1139.99,580.515 1141.31,580.61 1142.63,580.704 1143.94,580.796 1145.26,580.886 1146.58,580.975 1147.9,581.063 1149.22,581.15 1150.53,581.235 1151.85,581.319 1153.17,581.402 1154.49,581.483 1155.81,581.563 1157.13,581.642 1158.44,581.72 1159.76,581.796 1161.08,581.871 1162.4,581.945 1163.72,582.018 1165.03,582.09 1166.35,582.161 1167.67,582.23 1168.99,582.299 1170.31,582.366 1171.63,582.433 1172.94,582.498 1174.26,582.562 1175.58,582.626 1176.9,582.688 1178.22,582.749 1179.54,582.81 1180.85,582.869 1182.17,582.927 1183.49,582.985 1184.81,583.041 1186.13,583.097 1187.44,583.152 1188.76,583.206 1190.08,583.259 1191.4,583.311 1192.72,583.363 1194.04,583.413 1195.35,583.463 1196.67,583.512 1197.99,583.56 1199.31,583.607 1200.63,583.654 1201.95,583.699 1203.26,583.744 1204.58,583.789 1205.9,583.832 1207.22,583.875 1208.54,583.917 1209.85,583.958 1211.17,583.999 1212.49,584.039 1213.81,584.078 1215.13,584.117 1216.45,584.155 1217.76,584.192 1219.08,584.229 1220.4,584.265 1221.72,584.3 1223.04,584.335 1224.36,584.369 1225.67,584.403 1226.99,584.436 1228.31,584.468 1229.63,584.5 1230.95,584.531 1232.26,584.562 1233.58,584.592 1234.9,584.621 1236.22,584.65 1237.54,584.679 1238.86,584.707 1240.17,584.734 1241.49,584.761 1242.81,584.787 1244.13,584.813 1245.45,584.838 1246.76,584.863 1248.08,584.887 1249.4,584.911 1250.72,584.934 1252.04,584.957 1253.36,584.98 1254.67,585.002 1255.99,585.023 1257.31,585.044 1258.63,585.065 1259.95,585.085 1261.27,585.104 1262.58,585.123 1263.9,585.142 1265.22,585.161 1266.54,585.178 1267.86,585.196 1269.17,585.213 1270.49,585.23 1271.81,585.246 1273.13,585.262 1274.45,585.277 1275.77,585.292 1277.08,585.307 1278.4,585.321 1279.72,585.335 1281.04,585.348 1282.36,585.362 1283.68,585.374 1284.99,585.387 1286.31,585.399 1287.63,585.41 1288.95,585.421 1290.27,585.432 1291.58,585.443 1292.9,585.453 1294.22,585.463 1295.54,585.472 1296.86,585.481 1298.18,585.49 1299.49,585.498 1300.81,585.507 1302.13,585.515 1303.45,585.524 1304.77,585.532 1306.09,585.54 1307.4,585.549 1308.72,585.557 1310.04,585.565 1311.36,585.573 1312.68,585.581 1313.99,585.589 1315.31,585.597 1316.63,585.605 1317.95,585.613 1319.27,585.621 1320.59,585.629 1321.9,585.637 1323.22,585.645 1324.54,585.652 1325.86,585.66 1327.18,585.668 1328.49,585.675 1329.81,585.683 1331.13,585.691 1332.45,585.698 1333.77,585.706 1335.09,585.713 1336.4,585.72 1337.72,585.728 1339.04,585.735 1340.36,585.742 1341.68,585.749 1343,585.757 1344.31,585.764 1345.63,585.771 1346.95,585.778 1348.27,585.785 1349.59,585.792 1350.9,585.799 1352.22,585.806 1353.54,585.813 1354.86,585.82 1356.18,585.827 1357.5,585.834 1358.81,585.84 1360.13,585.847 1361.45,585.854 1362.77,585.86 1364.09,585.867 1365.41,585.874 1366.72,585.88 1368.04,585.887 1369.36,585.893 1370.68,585.9 1372,585.906 1373.31,585.913 1374.63,585.919 1375.95,585.925 1377.27,585.932 1378.59,585.938 1379.91,585.944 1381.22,585.95 1382.54,585.956 1383.86,585.963 1385.18,585.969 1386.5,585.975 1387.82,585.981 1389.13,585.987 1390.45,585.993 1391.77,585.999 1393.09,586.005 1394.41,586.011 1395.72,586.017 1397.04,586.022 1398.36,586.028 1399.68,586.034 1401,586.04 1402.32,586.045 1403.63,586.051 1404.95,586.057 1406.27,586.063 1407.59,586.068 1408.91,586.074 1410.22,586.079 1411.54,586.085 1412.86,586.09 1414.18,586.096 1415.5,586.101 1416.82,586.107 1418.13,586.112 1419.45,586.117 1420.77,586.123 1422.09,586.128 1423.41,586.133 1424.73,586.139 1426.04,586.144 1427.36,586.149 1428.68,586.154 1430,586.159 1431.32,586.164 1432.63,586.17 1433.95,586.175 1435.27,586.18 1436.59,586.185 1437.91,586.19 1439.23,586.195 1440.54,586.2 1441.86,586.205 1443.18,586.209 1444.5,586.214 1445.82,586.219 1447.14,586.224 1448.45,586.229 1449.77,586.234 1451.09,586.238 1452.41,586.243 1453.73,586.248 1455.04,586.252 1456.36,586.257 1457.68,586.262 1459,586.266 1460.32,586.271 1461.64,586.275 1462.95,586.28 1464.27,586.284 1465.59,586.289 1466.91,586.293 1468.23,586.298 1469.55,586.302 1470.86,586.307 1472.18,586.311 1473.5,586.315 1474.82,586.32 1476.14,586.324 1477.45,586.328 1478.77,586.333 1480.09,586.337 1481.41,586.341 1482.73,586.345 1484.05,586.35 1485.36,586.354 1486.68,586.358 1488,586.362 1489.32,586.366 1490.64,586.37 1491.95,586.374 1493.27,586.378 1494.59,586.382 1495.91,586.386 1497.23,586.39 1498.55,586.394 1499.86,586.398 1501.18,586.402 1502.5,586.406 1503.82,586.41 1505.14,586.414 1506.46,586.418 1507.77,586.422 1509.09,586.425 1510.41,586.429 1511.73,586.433 1513.05,586.437 1514.36,586.44 1515.68,586.444 1517,586.448 1518.32,586.452 1519.64,586.455 1520.96,586.459 1522.27,586.462 1523.59,586.466 1524.91,586.47 1526.23,586.473 1527.55,586.477 1528.87,586.48 1530.18,586.484 1531.5,586.487 1532.82,586.491 1534.14,586.494 1535.46,586.498 1536.77,586.501 1538.09,586.505 1539.41,586.508 1540.73,586.511 1542.05,586.515 1543.37,586.518 1544.68,586.521 1546,586.525 1547.32,586.528 1548.64,586.531 1549.96,586.535 1551.27,586.538 1552.59,586.541 1553.91,586.544 1555.23,586.548 1556.55,586.551 1557.87,586.554 1559.18,586.557 1560.5,586.56 1561.82,586.563 1563.14,586.566 1564.46,586.569 1565.78,586.573 1567.09,586.576 1568.41,586.579 1569.73,586.582 1571.05,586.585 1572.37,586.588 1573.68,586.591 1575,586.594 1576.32,586.597 1577.64,586.6 1578.96,586.603 1580.28,586.605 1581.59,586.608 1582.91,586.611 1584.23,586.614 1585.55,586.617 1586.87,586.62 1588.19,586.623 1589.5,586.625 1590.82,586.628 1592.14,586.631 1593.46,586.634 1594.78,586.637 1596.09,586.639 1597.41,586.642 1598.73,586.645 1600.05,586.647 1601.37,586.65 1602.69,586.653 1604,586.655 1605.32,586.658 1606.64,586.661 1607.96,586.663 1609.28,586.666 1610.6,586.669 1611.91,586.671 1613.23,586.674 1614.55,586.676 1615.87,586.679 1617.19,586.681 1618.5,586.684 1619.82,586.686 1621.14,586.689 1622.46,586.691 1623.78,586.694 1625.1,586.696 1626.41,586.699 1627.73,586.701 1629.05,586.704 1630.37,586.706 1631.69,586.709 1633,586.711 1634.32,586.713 1635.64,586.716 1636.96,586.718 1638.28,586.72 1639.6,586.723 1640.91,586.725 1642.23,586.727 1643.55,586.73 1644.87,586.732 1646.19,586.734 1647.51,586.736 1648.82,586.739 1650.14,586.741 1651.46,586.743 1652.78,586.745 1654.1,586.748 1655.41,586.75 1656.73,586.752 1658.05,586.754 1659.37,586.756 1660.69,586.759 1662.01,586.761 1663.32,586.763 1664.64,586.765 1665.96,586.767 1667.28,586.769 1668.6,586.771 1669.92,586.773 1671.23,586.775 1672.55,586.777 1673.87,586.78 1675.19,586.782 1676.51,586.784 1677.82,586.786 1679.14,586.788 1680.46,586.79 1681.78,586.792 1683.1,586.794 1684.42,586.796 1685.73,586.798 1687.05,586.8 1688.37,586.801 1689.69,586.803 1691.01,586.805 1692.33,586.807 1693.64,586.809 1694.96,586.811 1696.28,586.813 1697.6,586.815 1698.92,586.817 1700.23,586.819 1701.55,586.82 1702.87,586.822 1704.19,586.824 1705.51,586.826 1706.83,586.828 1708.14,586.83 1709.46,586.831 1710.78,586.833 1712.1,586.835 1713.42,586.837 1714.73,586.838 1716.05,586.84 1717.37,586.842 1718.69,586.844 1720.01,586.845 1721.33,586.847 1722.64,586.849 1723.96,586.851 1725.28,586.852 1726.6,586.854 1727.92,586.856 1729.24,586.857 1730.55,586.859 1731.87,586.861 1733.19,586.862 1734.51,586.864 1735.83,586.866 1737.14,586.867 1738.46,586.869 1739.78,586.87 1741.1,586.872 1742.42,586.874 1743.74,586.875 1745.05,586.877 1746.37,586.878 1747.69,586.88 1749.01,586.881 1750.33,586.883 1751.65,586.884 1752.96,586.886 1754.28,586.888 1755.6,586.889 1756.92,586.891 1758.24,586.892 1759.55,586.894 1760.87,586.895 1762.19,586.897 1763.51,586.898 1764.83,586.899 1766.15,586.901 1767.46,586.902 1768.78,586.904 1770.1,586.905 1771.42,586.907 1772.74,586.908 1774.06,586.909 1775.37,586.911 1776.69,586.912 1778.01,586.914 1779.33,586.915 1780.65,586.916 1781.96,586.918 1783.28,586.919 1784.6,586.921 1785.92,586.922 1787.24,586.923 1788.56,586.925 1789.87,586.926 1791.19,586.927 1792.51,586.929 1793.83,586.93 1795.15,586.931 1796.46,586.933 1797.78,586.934 1799.1,586.935 1800.42,586.936 1801.74,586.938 1803.06,586.939 1804.37,586.94 1805.69,586.941 1807.01,586.943 1808.33,586.944 1809.65,586.945 1810.97,586.946 1812.28,586.948 1813.6,586.949 1814.92,586.95 1816.24,586.951 1817.56,586.953 1818.87,586.954 1820.19,586.955 1821.51,586.956 1822.83,586.957 1824.15,586.958 1825.47,586.96 1826.78,586.961 1828.1,586.962 1829.42,586.963 1830.74,586.964 1832.06,586.965 1833.38,586.967 1834.69,586.968 1836.01,586.969 1837.33,586.97 1838.65,586.971 1839.97,586.972 1841.28,586.973 1842.6,586.974 1843.92,586.975 1845.24,586.977 1846.56,586.978 1847.88,586.979 1849.19,586.98 1850.51,586.981 1851.83,586.982 1853.15,586.983 1854.47,586.984 1855.79,586.985 1857.1,586.986 1858.42,586.987 1859.74,586.988 1861.06,586.989 1862.38,586.99 1863.69,586.991 1865.01,586.992 1866.33,586.993 1867.65,586.994 1868.97,586.995 1870.29,586.996 1871.6,586.997 1872.92,586.998 1874.24,586.999 1875.56,587 1876.88,587.001 1878.19,587.002 1879.51,587.003 1880.83,587.004 1882.15,587.005 1883.47,587.006 1884.79,587.007 1886.1,587.008 1887.42,587.009 1888.74,587.01 1890.06,587.01 1891.38,587.011 1892.7,587.012 1894.01,587.013 1895.33,587.014 1896.65,587.015 1897.97,587.016 1899.29,587.017 1900.6,587.018 1901.92,587.019 1903.24,587.019 1904.56,587.02 1905.88,587.021 1907.2,587.022 1908.51,587.023 1909.83,587.024 1911.15,587.025 1912.47,587.025 1913.79,587.026 1915.11,587.027 1916.42,587.028 1917.74,587.029 1919.06,587.03 1920.38,587.03 1921.7,587.031 1923.01,587.032 1924.33,587.033 1925.65,587.034 1926.97,587.034 1928.29,587.035 1929.61,587.036 1930.92,587.037 1932.24,587.038 1933.56,587.038 1934.88,587.039 1936.2,587.04 1937.51,587.041 1938.83,587.042 1940.15,587.042 1941.47,587.043 1942.79,587.044 1944.11,587.045 1945.42,587.045 1946.74,587.046 1948.06,587.047 1949.38,587.048 1950.7,587.048 1952.02,587.049 1953.33,587.05 1954.65,587.05 1955.97,587.051 1957.29,587.052 1958.61,587.053 1959.92,587.053 1961.24,587.054 1962.56,587.055 1963.88,587.055 1965.2,587.056 1966.52,587.057 1967.83,587.057 1969.15,587.058 1970.47,587.059 1971.79,587.06 1973.11,587.06 1974.43,587.061 1975.74,587.062 1977.06,587.062 1978.38,587.063 1979.7,587.063 1981.02,587.064 1982.33,587.065 1983.65,587.065 1984.97,587.066 1986.29,587.067 1987.61,587.067 1988.93,587.068 1990.24,587.068 1991.56,587.069 1992.88,587.07 1994.2,587.07 1995.52,587.071 1996.84,587.071 1998.15,587.072 1999.47,587.073 2000.79,587.073 2002.11,587.074 2003.43,587.074 2004.74,587.075 2006.06,587.075 2007.38,587.076 2008.7,587.076 2010.02,587.077 2011.34,587.077 2012.65,587.078 2013.97,587.078 2015.29,587.079 2016.61,587.079 2017.93,587.08 2019.24,587.08 2020.56,587.081 2021.88,587.081 2023.2,587.082 2024.52,587.082 2025.84,587.083 2027.15,587.083 2028.47,587.084 2029.79,587.084 2031.11,587.085 2032.43,587.085 2033.75,587.085 2035.06,587.086 2036.38,587.086 2037.7,587.087 2039.02,587.087 2040.34,587.088 2041.65,587.088 2042.97,587.088 2044.29,587.089 2045.61,587.089 2046.93,587.089 2048.25,587.09 2049.56,587.09 2050.88,587.091 2052.2,587.091 2053.52,587.091 2054.84,587.092 2056.16,587.092 2057.47,587.092 2058.79,587.093 2060.11,587.093 2061.43,587.093 2062.75,587.094 2064.06,587.094 2065.38,587.094 2066.7,587.095 2068.02,587.095 2069.34,587.095 2070.66,587.096 2071.97,587.096 2073.29,587.096 2074.61,587.097 2075.93,587.097 2077.25,587.097 2078.57,587.098 2079.88,587.098 2081.2,587.098 2082.52,587.099 2083.84,587.099 2085.16,587.099 2086.47,587.099 2087.79,587.1 2089.11,587.1 2090.43,587.1 2091.75,587.101 2093.07,587.101 2094.38,587.101 2095.7,587.102 2097.02,587.102 2098.34,587.102 2099.66,587.103 2100.97,587.103 2102.29,587.103 2103.61,587.103 2104.93,587.104 2106.25,587.104 2107.57,587.104 2108.88,587.105 2110.2,587.105 2111.52,587.105 2112.84,587.106 2114.16,587.106 2115.48,587.106 2116.79,587.107 2118.11,587.107 2119.43,587.107 2120.75,587.108 2122.07,587.108 2123.38,587.108 2124.7,587.109 2126.02,587.109 2127.34,587.11 2128.66,587.11 2129.98,587.11 2131.29,587.111 2132.61,587.111 2133.93,587.112 2135.25,587.112 2136.57,587.112 2137.89,587.113 2139.2,587.113 2140.52,587.114 2141.84,587.114 2143.16,587.115 2144.48,587.115 2145.79,587.116 2147.11,587.116 2148.43,587.117 2149.75,587.117 2151.07,587.118 2152.39,587.118 2153.7,587.119 2155.02,587.12 2156.34,587.12 2157.66,587.121 2158.98,587.121 2160.3,587.122 2161.61,587.123 2162.93,587.123 2164.25,587.124 2165.57,587.125 2166.89,587.125 2168.2,587.126 2169.52,587.127 2170.84,587.127 2172.16,587.128 2173.48,587.129 2174.8,587.13 2176.11,587.13 2177.43,587.131 2178.75,587.132 2180.07,587.133 2181.39,587.134 2182.7,587.135 2184.02,587.136 2185.34,587.136 2186.66,587.137 2187.98,587.138 2189.3,587.139 2190.61,587.14 2191.93,587.141 2193.25,587.142 2194.57,587.143 2195.89,587.144 2197.21,587.145 2198.52,587.146 2199.84,587.148 2201.16,587.149 2202.48,587.15 2203.8,587.151 2205.11,587.152 2206.43,587.153 2207.75,587.154 2209.07,587.156 2210.39,587.157 2211.71,587.158 2213.02,587.159 2214.34,587.16 2215.66,587.162 2216.98,587.163 2218.3,587.164 2219.62,587.166 2220.93,587.167 2222.25,587.168 2223.57,587.17 2224.89,587.171 2226.21,587.172 2227.52,587.174 2228.84,587.175 2230.16,587.177 2231.48,587.178 2232.8,587.179 2234.12,587.181 2235.43,587.182 2236.75,587.184 2238.07,587.185 2239.39,587.186 2240.71,587.188 2242.02,587.189 2243.34,587.191 2244.66,587.192 2245.98,587.194 2247.3,587.195 2248.62,587.196 2249.93,587.198 2251.25,587.199 2252.57,587.201 2253.89,587.202 2255.21,587.203 2256.53,587.205 2257.84,587.206 2259.16,587.207 2260.48,587.209 2261.8,587.21 2263.12,587.211 2264.43,587.213 2265.75,587.214 2267.07,587.215 2268.39,587.216 2269.71,587.218 2271.03,587.219 2272.34,587.22 2273.66,587.221 2274.98,587.222 2276.3,587.223 2277.62,587.224 2278.94,587.225 2280.25,587.226 2281.57,587.227 2282.89,587.228 2284.21,587.228 2285.53,587.229 2286.84,587.23 2288.16,587.231 2289.48,587.231 2290.8,587.232 2292.12,587.232 2293.44,587.233 2294.75,587.233 2296.07,587.234 2297.39,587.234 2298.71,587.234 2300.03,587.235 2301.35,587.235 2302.66,587.235 2303.98,587.235 2305.3,587.235 2306.62,587.235 2307.94,587.235 2309.25,587.235 2310.57,587.235 2311.89,587.234 2313.21,587.234 2314.53,587.234 2315.85,587.234 2317.16,587.233 2318.48,587.233 2319.8,587.232 2321.12,587.231 2322.44,587.231 2323.75,587.23 2325.07,587.23 2326.39,587.229 2327.71,587.228 2329.03,587.227 2330.35,587.226 2331.66,587.225 2332.98,587.225 2334.3,587.224 2335.62,587.223 2336.94,587.222 2338.26,587.221 2339.57,587.22 2340.89,587.219 2342.21,587.218 2343.53,587.217 2344.85,587.216 2346.16,587.215 2347.48,587.214 2348.8,587.213 2350.12,587.212 2351.44,587.211 2352.76,587.21 "/>
<polyline clip-path="url(#clip471)" style="stroke:#e26f46; stroke-linecap:round; stroke-linejoin:round; stroke-width:8; stroke-opacity:1; fill:none" points="375.418,1384.24 376.736,1384.21 378.055,1384.13 379.373,1384 380.691,1383.81 382.009,1383.57 383.327,1383.28 384.646,1382.93 385.964,1382.53 387.282,1382.08 388.6,1381.58 389.919,1381.02 391.237,1380.41 392.555,1379.74 393.873,1379.02 395.191,1378.25 396.51,1377.43 397.828,1376.56 399.146,1375.63 400.464,1374.65 401.783,1373.62 403.101,1372.53 404.419,1371.39 405.737,1370.2 407.055,1368.96 408.374,1367.67 409.692,1366.33 411.01,1364.93 412.328,1363.48 413.647,1361.99 414.965,1360.44 416.283,1358.84 417.601,1357.19 418.92,1355.48 420.238,1353.73 421.556,1351.93 422.874,1350.08 424.192,1348.18 425.511,1346.22 426.829,1344.22 428.147,1342.17 429.465,1340.07 430.784,1337.92 432.102,1335.73 433.42,1333.48 434.738,1331.19 436.056,1328.84 437.375,1326.46 438.693,1324.02 440.011,1321.53 441.329,1319 442.648,1316.42 443.966,1313.8 445.284,1311.13 446.602,1308.41 447.92,1305.65 449.239,1302.84 450.557,1299.99 451.875,1297.09 453.193,1294.15 454.512,1291.16 455.83,1288.13 457.148,1285.06 458.466,1281.94 459.785,1278.78 461.103,1275.57 462.421,1272.33 463.739,1269.04 465.057,1265.71 466.376,1262.34 467.694,1258.92 469.012,1255.47 470.33,1251.98 471.649,1248.44 472.967,1244.87 474.285,1241.26 475.603,1237.6 476.921,1233.91 478.24,1230.18 479.558,1226.42 480.876,1222.61 482.194,1218.77 483.513,1214.89 484.831,1210.98 486.149,1207.03 487.467,1203.04 488.785,1199.02 490.104,1194.96 491.422,1190.87 492.74,1186.74 494.058,1182.58 495.377,1178.39 496.695,1174.17 498.013,1169.91 499.331,1165.62 500.649,1161.3 501.968,1156.95 503.286,1152.57 504.604,1148.15 505.922,1143.71 507.241,1139.24 508.559,1134.74 509.877,1130.21 511.195,1125.65 512.514,1121.06 513.832,1116.45 515.15,1111.81 516.468,1107.15 517.786,1102.46 519.105,1097.74 520.423,1093 521.741,1088.23 523.059,1083.44 524.378,1078.63 525.696,1073.79 527.014,1068.93 528.332,1064.05 529.65,1059.15 530.969,1054.23 532.287,1049.28 533.605,1044.32 534.923,1039.33 536.242,1034.33 537.56,1029.31 538.878,1024.27 540.196,1019.21 541.514,1014.14 542.833,1009.04 544.151,1003.93 545.469,998.811 546.787,993.672 548.106,988.518 549.424,983.35 550.742,978.168 552.06,972.972 553.378,967.764 554.697,962.544 556.015,957.312 557.333,952.068 558.651,946.814 559.97,941.55 561.288,936.276 562.606,930.992 563.924,925.7 565.243,920.4 566.561,915.092 567.879,909.777 569.197,904.455 570.515,899.127 571.834,893.793 573.152,888.454 574.47,883.11 575.788,877.762 577.107,872.411 578.425,867.056 579.743,861.699 581.061,856.339 582.379,850.978 583.698,845.616 585.016,840.253 586.334,834.89 587.652,829.528 588.971,824.166 590.289,818.806 591.607,813.447 592.925,808.091 594.243,802.738 595.562,797.389 596.88,792.043 598.198,786.702 599.516,781.366 600.835,776.035 602.153,770.71 603.471,765.391 604.789,760.079 606.108,754.775 607.426,749.478 608.744,744.19 610.062,738.911 611.38,733.641 612.699,728.381 614.017,723.131 615.335,717.893 616.653,712.665 617.972,707.449 619.29,702.245 620.608,697.054 621.926,691.877 623.244,686.712 624.563,681.562 625.881,676.427 627.199,671.307 628.517,666.202 629.836,661.113 631.154,656.041 632.472,650.985 633.79,645.947 635.108,640.927 636.427,635.925 637.745,630.941 639.063,625.977 640.381,621.032 641.7,616.108 643.018,611.204 644.336,606.32 645.654,601.458 646.972,596.618 648.291,591.8 649.609,587.005 650.927,582.232 652.245,577.484 653.564,572.758 654.882,568.058 656.2,563.382 657.518,558.731 658.837,554.105 660.155,549.505 661.473,544.932 662.791,540.385 664.109,535.866 665.428,531.373 666.746,526.909 668.064,522.473 669.382,518.065 670.701,513.686 672.019,509.337 673.337,505.017 674.655,500.728 675.973,496.469 677.292,492.24 678.61,488.043 679.928,483.877 681.246,479.742 682.565,475.64 683.883,471.571 685.201,467.534 686.519,463.53 687.837,459.56 689.156,455.623 690.474,451.721 691.792,447.853 693.11,444.02 694.429,440.221 695.747,436.458 697.065,432.73 698.383,429.039 699.701,425.383 701.02,421.764 702.338,418.182 703.656,414.636 704.974,411.128 706.293,407.657 707.611,404.224 708.929,400.829 710.247,397.473 711.566,394.154 712.884,390.875 714.202,387.635 715.52,384.433 716.838,381.272 718.157,378.15 719.475,375.067 720.793,372.025 722.111,369.024 723.43,366.062 724.748,363.142 726.066,360.262 727.384,357.424 728.702,354.626 730.021,351.87 731.339,349.156 732.657,346.484 733.975,343.854 735.294,341.265 736.612,338.719 737.93,336.216 739.248,333.755 740.566,331.337 741.885,328.961 743.203,326.629 744.521,324.34 745.839,322.094 747.158,319.891 748.476,317.732 749.794,315.617 751.112,313.545 752.431,311.517 753.749,309.533 755.067,307.593 756.385,305.697 757.703,303.845 759.022,302.037 760.34,300.273 761.658,298.554 762.976,296.879 764.295,295.249 765.613,293.663 766.931,292.122 768.249,290.625 769.567,289.173 770.886,287.765 772.204,286.403 773.522,285.084 774.84,283.811 776.159,282.582 777.477,281.398 778.795,280.259 780.113,279.164 781.431,278.114 782.75,277.109 784.068,276.148 785.386,275.232 786.704,274.361 788.023,273.534 789.341,272.752 790.659,272.014 791.977,271.32 793.295,270.671 794.614,270.066 795.932,269.506 797.25,268.99 798.568,268.517 799.887,268.089 801.205,267.705 802.523,267.364 803.841,267.067 805.16,266.814 806.478,266.605 807.796,266.439 809.114,266.316 810.432,266.237 811.751,266.2 813.069,266.207 814.387,266.256 815.705,266.348 817.024,266.483 818.342,266.66 819.66,266.88 820.978,267.141 822.296,267.445 823.615,267.79 824.933,268.177 826.251,268.605 827.569,269.075 828.888,269.586 830.206,270.137 831.524,270.73 832.842,271.363 834.16,272.036 835.479,272.75 836.797,273.503 838.115,274.296 839.433,275.129 840.752,276.001 842.07,276.912 843.388,277.862 844.706,278.851 846.024,279.878 847.343,280.943 848.661,282.046 849.979,283.187 851.297,284.365 852.616,285.581 853.934,286.833 855.252,288.122 856.57,289.448 857.889,290.809 859.207,292.207 860.525,293.64 861.843,295.108 863.161,296.612 864.48,298.15 865.798,299.722 867.116,301.329 868.434,302.97 869.753,304.644 871.071,306.352 872.389,308.092 873.707,309.865 875.025,311.671 876.344,313.508 877.662,315.378 878.98,317.278 880.298,319.21 881.617,321.172 882.935,323.165 884.253,325.188 885.571,327.241 886.889,329.323 888.208,331.435 889.526,333.575 890.844,335.743 892.162,337.94 893.481,340.164 894.799,342.415 896.117,344.694 897.435,346.999 898.754,349.33 900.072,351.688 901.39,354.07 902.708,356.478 904.026,358.886 905.345,361.267 906.663,363.623 907.981,365.953 909.299,368.259 910.618,370.539 911.936,372.795 913.254,375.026 914.572,377.234 915.89,379.418 917.209,381.578 918.527,383.715 919.845,385.829 921.163,387.921 922.482,389.989 923.8,392.036 925.118,394.061 926.436,396.064 927.754,398.045 929.073,400.005 930.391,401.944 931.709,403.863 933.027,405.76 934.346,407.638 935.664,409.495 936.982,411.332 938.3,413.15 939.618,414.948 940.937,416.727 942.255,418.487 943.573,420.228 944.891,421.95 946.21,423.654 947.528,425.34 948.846,427.008 950.164,428.658 951.483,430.29 952.801,431.904 954.119,433.502 955.437,435.082 956.755,436.646 958.074,438.193 959.392,439.723 960.71,441.237 962.028,442.734 963.347,444.216 964.665,445.682 965.983,447.132 967.301,448.567 968.619,449.986 969.938,451.391 971.256,452.78 972.574,454.154 973.892,455.514 975.211,456.859 976.529,458.19 977.847,459.507 979.165,460.81 980.483,462.099 981.802,463.374 983.12,464.635 984.438,465.883 985.756,467.118 987.075,468.339 988.393,469.548 989.711,470.743 991.029,471.926 992.347,473.096 993.666,474.254 994.984,475.399 996.302,476.533 997.62,477.654 998.939,478.763 1000.26,479.86 1001.58,480.946 1002.89,482.02 1004.21,483.082 1005.53,484.133 1006.85,485.173 1008.17,486.202 1009.48,487.22 1010.8,488.227 1012.12,489.224 1013.44,490.209 1014.76,491.185 1016.08,492.149 1017.39,493.104 1018.71,494.048 1020.03,494.982 1021.35,495.907 1022.67,496.821 1023.98,497.726 1025.3,498.621 1026.62,499.506 1027.94,500.382 1029.26,501.248 1030.58,502.106 1031.89,502.954 1033.21,503.793 1034.53,504.623 1035.85,505.444 1037.17,506.256 1038.49,507.06 1039.8,507.855 1041.12,508.642 1042.44,509.42 1043.76,510.19 1045.08,510.951 1046.39,511.705 1047.71,512.45 1049.03,513.187 1050.35,513.917 1051.67,514.638 1052.99,515.352 1054.3,516.058 1055.62,516.756 1056.94,517.447 1058.26,518.131 1059.58,518.807 1060.9,519.476 1062.21,520.138 1063.53,520.792 1064.85,521.44 1066.17,522.08 1067.49,522.714 1068.8,523.341 1070.12,523.961 1071.44,524.574 1072.76,525.181 1074.08,525.781 1075.4,526.374 1076.71,526.961 1078.03,527.542 1079.35,528.117 1080.67,528.685 1081.99,529.247 1083.31,529.803 1084.62,530.353 1085.94,530.896 1087.26,531.434 1088.58,531.966 1089.9,532.493 1091.21,533.013 1092.53,533.528 1093.85,534.037 1095.17,534.54 1096.49,535.038 1097.81,535.531 1099.12,536.018 1100.44,536.5 1101.76,536.976 1103.08,537.447 1104.4,537.913 1105.71,538.374 1107.03,538.83 1108.35,539.281 1109.67,539.726 1110.99,540.167 1112.31,540.603 1113.62,541.034 1114.94,541.46 1116.26,541.881 1117.58,542.298 1118.9,542.71 1120.22,543.117 1121.53,543.52 1122.85,543.918 1124.17,544.312 1125.49,544.701 1126.81,545.086 1128.12,545.467 1129.44,545.843 1130.76,546.215 1132.08,546.583 1133.4,546.946 1134.72,547.306 1136.03,547.661 1137.35,548.012 1138.67,548.36 1139.99,548.703 1141.31,549.042 1142.63,549.377 1143.94,549.709 1145.26,550.036 1146.58,550.36 1147.9,550.68 1149.22,550.996 1150.53,551.309 1151.85,551.618 1153.17,551.923 1154.49,552.224 1155.81,552.522 1157.13,552.817 1158.44,553.108 1159.76,553.395 1161.08,553.68 1162.4,553.96 1163.72,554.238 1165.03,554.511 1166.35,554.782 1167.67,555.049 1168.99,555.314 1170.31,555.574 1171.63,555.832 1172.94,556.087 1174.26,556.338 1175.58,556.586 1176.9,556.831 1178.22,557.073 1179.54,557.313 1180.85,557.549 1182.17,557.782 1183.49,558.012 1184.81,558.239 1186.13,558.463 1187.44,558.685 1188.76,558.903 1190.08,559.119 1191.4,559.332 1192.72,559.542 1194.04,559.749 1195.35,559.954 1196.67,560.156 1197.99,560.355 1199.31,560.552 1200.63,560.746 1201.95,560.937 1203.26,561.126 1204.58,561.312 1205.9,561.495 1207.22,561.676 1208.54,561.855 1209.85,562.031 1211.17,562.205 1212.49,562.376 1213.81,562.544 1215.13,562.71 1216.45,562.874 1217.76,563.036 1219.08,563.195 1220.4,563.351 1221.72,563.506 1223.04,563.658 1224.36,563.808 1225.67,563.955 1226.99,564.1 1228.31,564.243 1229.63,564.384 1230.95,564.523 1232.26,564.659 1233.58,564.793 1234.9,564.925 1236.22,565.055 1237.54,565.183 1238.86,565.308 1240.17,565.432 1241.49,565.553 1242.81,565.672 1244.13,565.79 1245.45,565.905 1246.76,566.018 1248.08,566.129 1249.4,566.238 1250.72,566.345 1252.04,566.451 1253.36,566.554 1254.67,566.655 1255.99,566.754 1257.31,566.852 1258.63,566.947 1259.95,567.04 1261.27,567.132 1262.58,567.222 1263.9,567.31 1265.22,567.395 1266.54,567.48 1267.86,567.562 1269.17,567.642 1270.49,567.721 1271.81,567.798 1273.13,567.872 1274.45,567.946 1275.77,568.017 1277.08,568.087 1278.4,568.154 1279.72,568.22 1281.04,568.285 1282.36,568.347 1283.68,568.408 1284.99,568.467 1286.31,568.524 1287.63,568.58 1288.95,568.634 1290.27,568.686 1291.58,568.737 1292.9,568.785 1294.22,568.833 1295.54,568.878 1296.86,568.922 1298.18,568.964 1299.49,569.006 1300.81,569.05 1302.13,569.095 1303.45,569.142 1304.77,569.19 1306.09,569.24 1307.4,569.291 1308.72,569.344 1310.04,569.399 1311.36,569.455 1312.68,569.512 1313.99,569.571 1315.31,569.631 1316.63,569.693 1317.95,569.756 1319.27,569.821 1320.59,569.888 1321.9,569.955 1323.22,570.024 1324.54,570.095 1325.86,570.167 1327.18,570.24 1328.49,570.315 1329.81,570.392 1331.13,570.469 1332.45,570.548 1333.77,570.629 1335.09,570.71 1336.4,570.793 1337.72,570.878 1339.04,570.964 1340.36,571.051 1341.68,571.139 1343,571.229 1344.31,571.32 1345.63,571.412 1346.95,571.506 1348.27,571.601 1349.59,571.697 1350.9,571.794 1352.22,571.893 1353.54,571.993 1354.86,572.094 1356.18,572.196 1357.5,572.3 1358.81,572.404 1360.13,572.51 1361.45,572.617 1362.77,572.725 1364.09,572.835 1365.41,572.945 1366.72,573.057 1368.04,573.17 1369.36,573.283 1370.68,573.398 1372,573.514 1373.31,573.631 1374.63,573.749 1375.95,573.868 1377.27,573.989 1378.59,574.11 1379.91,574.232 1381.22,574.355 1382.54,574.479 1383.86,574.604 1385.18,574.731 1386.5,574.858 1387.82,574.986 1389.13,575.115 1390.45,575.244 1391.77,575.375 1393.09,575.507 1394.41,575.639 1395.72,575.772 1397.04,575.907 1398.36,576.042 1399.68,576.177 1401,576.314 1402.32,576.452 1403.63,576.59 1404.95,576.729 1406.27,576.868 1407.59,577.009 1408.91,577.15 1410.22,577.292 1411.54,577.435 1412.86,577.578 1414.18,577.722 1415.5,577.867 1416.82,578.012 1418.13,578.158 1419.45,578.305 1420.77,578.452 1422.09,578.6 1423.41,578.748 1424.73,578.897 1426.04,579.046 1427.36,579.196 1428.68,579.347 1430,579.498 1431.32,579.649 1432.63,579.802 1433.95,579.954 1435.27,580.107 1436.59,580.26 1437.91,580.414 1439.23,580.569 1440.54,580.723 1441.86,580.878 1443.18,581.034 1444.5,581.19 1445.82,581.346 1447.14,581.502 1448.45,581.659 1449.77,581.816 1451.09,581.973 1452.41,582.131 1453.73,582.289 1455.04,582.447 1456.36,582.606 1457.68,582.764 1459,582.923 1460.32,583.082 1461.64,583.241 1462.95,583.401 1464.27,583.56 1465.59,583.72 1466.91,583.879 1468.23,584.039 1469.55,584.199 1470.86,584.359 1472.18,584.519 1473.5,584.68 1474.82,584.84 1476.14,585 1477.45,585.16 1478.77,585.32 1480.09,585.481 1481.41,585.641 1482.73,585.801 1484.05,585.961 1485.36,586.121 1486.68,586.281 1488,586.44 1489.32,586.6 1490.64,586.76 1491.95,586.919 1493.27,587.078 1494.59,587.237 1495.91,587.396 1497.23,587.555 1498.55,587.713 1499.86,587.871 1501.18,588.029 1502.5,588.187 1503.82,588.344 1505.14,588.502 1506.46,588.658 1507.77,588.815 1509.09,588.971 1510.41,589.127 1511.73,589.283 1513.05,589.438 1514.36,589.593 1515.68,589.747 1517,589.901 1518.32,590.055 1519.64,590.208 1520.96,590.361 1522.27,590.513 1523.59,590.665 1524.91,590.816 1526.23,590.967 1527.55,591.117 1528.87,591.267 1530.18,591.416 1531.5,591.565 1532.82,591.713 1534.14,591.861 1535.46,592.008 1536.77,592.155 1538.09,592.3 1539.41,592.446 1540.73,592.59 1542.05,592.734 1543.37,592.878 1544.68,593.02 1546,593.162 1547.32,593.304 1548.64,593.444 1549.96,593.584 1551.27,593.723 1552.59,593.862 1553.91,593.999 1555.23,594.136 1556.55,594.273 1557.87,594.408 1559.18,594.543 1560.5,594.676 1561.82,594.809 1563.14,594.942 1564.46,595.073 1565.78,595.203 1567.09,595.333 1568.41,595.462 1569.73,595.59 1571.05,595.717 1572.37,595.843 1573.68,595.968 1575,596.093 1576.32,596.216 1577.64,596.338 1578.96,596.46 1580.28,596.58 1581.59,596.7 1582.91,596.819 1584.23,596.936 1585.55,597.053 1586.87,597.169 1588.19,597.283 1589.5,597.397 1590.82,597.51 1592.14,597.621 1593.46,597.732 1594.78,597.841 1596.09,597.95 1597.41,598.057 1598.73,598.163 1600.05,598.268 1601.37,598.372 1602.69,598.475 1604,598.577 1605.32,598.678 1606.64,598.778 1607.96,598.876 1609.28,598.973 1610.6,599.07 1611.91,599.165 1613.23,599.259 1614.55,599.351 1615.87,599.443 1617.19,599.533 1618.5,599.622 1619.82,599.71 1621.14,599.797 1622.46,599.883 1623.78,599.967 1625.1,600.05 1626.41,600.132 1627.73,600.213 1629.05,600.292 1630.37,600.37 1631.69,600.447 1633,600.523 1634.32,600.597 1635.64,600.67 1636.96,600.742 1638.28,600.813 1639.6,600.882 1640.91,600.95 1642.23,601.017 1643.55,601.082 1644.87,601.146 1646.19,601.209 1647.51,601.271 1648.82,601.331 1650.14,601.39 1651.46,601.447 1652.78,601.504 1654.1,601.558 1655.41,601.612 1656.73,601.664 1658.05,601.715 1659.37,601.765 1660.69,601.813 1662.01,601.86 1663.32,601.905 1664.64,601.95 1665.96,601.992 1667.28,602.034 1668.6,602.074 1669.92,602.113 1671.23,602.15 1672.55,602.186 1673.87,602.221 1675.19,602.254 1676.51,602.286 1677.82,602.316 1679.14,602.346 1680.46,602.373 1681.78,602.4 1683.1,602.425 1684.42,602.448 1685.73,602.471 1687.05,602.492 1688.37,602.511 1689.69,602.529 1691.01,602.546 1692.33,602.561 1693.64,602.575 1694.96,602.588 1696.28,602.599 1697.6,602.609 1698.92,602.618 1700.23,602.625 1701.55,602.63 1702.87,602.635 1704.19,602.638 1705.51,602.639 1706.83,602.64 1708.14,602.638 1709.46,602.636 1710.78,602.632 1712.1,602.627 1713.42,602.62 1714.73,602.612 1716.05,602.603 1717.37,602.592 1718.69,602.58 1720.01,602.567 1721.33,602.552 1722.64,602.536 1723.96,602.518 1725.28,602.499 1726.6,602.479 1727.92,602.458 1729.24,602.435 1730.55,602.411 1731.87,602.385 1733.19,602.358 1734.51,602.33 1735.83,602.301 1737.14,602.27 1738.46,602.238 1739.78,602.205 1741.1,602.17 1742.42,602.134 1743.74,602.097 1745.05,602.058 1746.37,602.018 1747.69,601.977 1749.01,601.935 1750.33,601.891 1751.65,601.846 1752.96,601.8 1754.28,601.752 1755.6,601.704 1756.92,601.654 1758.24,601.603 1759.55,601.55 1760.87,601.496 1762.19,601.442 1763.51,601.386 1764.83,601.328 1766.15,601.27 1767.46,601.21 1768.78,601.149 1770.1,601.087 1771.42,601.024 1772.74,600.96 1774.06,600.894 1775.37,600.827 1776.69,600.759 1778.01,600.69 1779.33,600.62 1780.65,600.549 1781.96,600.477 1783.28,600.403 1784.6,600.328 1785.92,600.253 1787.24,600.176 1788.56,600.098 1789.87,600.019 1791.19,599.939 1792.51,599.858 1793.83,599.776 1795.15,599.693 1796.46,599.609 1797.78,599.523 1799.1,599.437 1800.42,599.35 1801.74,599.262 1803.06,599.172 1804.37,599.082 1805.69,598.991 1807.01,598.899 1808.33,598.806 1809.65,598.711 1810.97,598.616 1812.28,598.52 1813.6,598.424 1814.92,598.326 1816.24,598.227 1817.56,598.128 1818.87,598.027 1820.19,597.926 1821.51,597.824 1822.83,597.721 1824.15,597.617 1825.47,597.512 1826.78,597.406 1828.1,597.3 1829.42,597.193 1830.74,597.085 1832.06,596.976 1833.38,596.867 1834.69,596.757 1836.01,596.646 1837.33,596.534 1838.65,596.421 1839.97,596.308 1841.28,596.194 1842.6,596.08 1843.92,595.964 1845.24,595.848 1846.56,595.732 1847.88,595.614 1849.19,595.497 1850.51,595.378 1851.83,595.259 1853.15,595.139 1854.47,595.019 1855.79,594.898 1857.1,594.776 1858.42,594.654 1859.74,594.531 1861.06,594.408 1862.38,594.284 1863.69,594.16 1865.01,594.035 1866.33,593.91 1867.65,593.784 1868.97,593.658 1870.29,593.531 1871.6,593.404 1872.92,593.276 1874.24,593.148 1875.56,593.02 1876.88,592.891 1878.19,592.762 1879.51,592.632 1880.83,592.502 1882.15,592.371 1883.47,592.241 1884.79,592.11 1886.1,591.978 1887.42,591.847 1888.74,591.715 1890.06,591.582 1891.38,591.45 1892.7,591.317 1894.01,591.184 1895.33,591.051 1896.65,590.917 1897.97,590.783 1899.29,590.649 1900.6,590.515 1901.92,590.381 1903.24,590.246 1904.56,590.112 1905.88,589.977 1907.2,589.842 1908.51,589.707 1909.83,589.572 1911.15,589.436 1912.47,589.301 1913.79,589.166 1915.11,589.03 1916.42,588.895 1917.74,588.759 1919.06,588.623 1920.38,588.488 1921.7,588.352 1923.01,588.217 1924.33,588.081 1925.65,587.945 1926.97,587.81 1928.29,587.675 1929.61,587.539 1930.92,587.404 1932.24,587.269 1933.56,587.134 1934.88,586.999 1936.2,586.864 1937.51,586.729 1938.83,586.595 1940.15,586.46 1941.47,586.326 1942.79,586.192 1944.11,586.058 1945.42,585.925 1946.74,585.791 1948.06,585.658 1949.38,585.525 1950.7,585.393 1952.02,585.261 1953.33,585.128 1954.65,584.997 1955.97,584.865 1957.29,584.734 1958.61,584.603 1959.92,584.473 1961.24,584.343 1962.56,584.213 1963.88,584.084 1965.2,583.955 1966.52,583.826 1967.83,583.698 1969.15,583.571 1970.47,583.444 1971.79,583.318 1973.11,583.192 1974.43,583.067 1975.74,582.942 1977.06,582.819 1978.38,582.695 1979.7,582.573 1981.02,582.452 1982.33,582.331 1983.65,582.211 1984.97,582.092 1986.29,581.974 1987.61,581.857 1988.93,581.741 1990.24,581.625 1991.56,581.511 1992.88,581.398 1994.2,581.287 1995.52,581.176 1996.84,581.067 1998.15,580.959 1999.47,580.852 2000.79,580.746 2002.11,580.642 2003.43,580.54 2004.74,580.439 2006.06,580.339 2007.38,580.241 2008.7,580.145 2010.02,580.05 2011.34,579.957 2012.65,579.866 2013.97,579.776 2015.29,579.688 2016.61,579.602 2017.93,579.519 2019.24,579.437 2020.56,579.357 2021.88,579.279 2023.2,579.203 2024.52,579.129 2025.84,579.058 2027.15,578.988 2028.47,578.921 2029.79,578.856 2031.11,578.794 2032.43,578.733 2033.75,578.676 2035.06,578.62 2036.38,578.567 2037.7,578.517 2039.02,578.469 2040.34,578.423 2041.65,578.381 2042.97,578.34 2044.29,578.303 2045.61,578.268 2046.93,578.236 2048.25,578.206 2049.56,578.179 2050.88,578.155 2052.2,578.134 2053.52,578.115 2054.84,578.099 2056.16,578.086 2057.47,578.076 2058.79,578.069 2060.11,578.064 2061.43,578.063 2062.75,578.064 2064.06,578.068 2065.38,578.074 2066.7,578.084 2068.02,578.096 2069.34,578.112 2070.66,578.13 2071.97,578.151 2073.29,578.174 2074.61,578.201 2075.93,578.23 2077.25,578.262 2078.57,578.296 2079.88,578.333 2081.2,578.373 2082.52,578.416 2083.84,578.461 2085.16,578.509 2086.47,578.559 2087.79,578.612 2089.11,578.667 2090.43,578.724 2091.75,578.784 2093.07,578.847 2094.38,578.911 2095.7,578.978 2097.02,579.047 2098.34,579.118 2099.66,579.191 2100.97,579.266 2102.29,579.344 2103.61,579.423 2104.93,579.504 2106.25,579.586 2107.57,579.671 2108.88,579.757 2110.2,579.844 2111.52,579.934 2112.84,580.024 2114.16,580.116 2115.48,580.21 2116.79,580.304 2118.11,580.4 2119.43,580.497 2120.75,580.595 2122.07,580.693 2123.38,580.793 2124.7,580.894 2126.02,580.995 2127.34,581.097 2128.66,581.199 2129.98,581.303 2131.29,581.406 2132.61,581.51 2133.93,581.614 2135.25,581.718 2136.57,581.823 2137.89,581.928 2139.2,582.032 2140.52,582.137 2141.84,582.241 2143.16,582.345 2144.48,582.449 2145.79,582.553 2147.11,582.656 2148.43,582.759 2149.75,582.861 2151.07,582.963 2152.39,583.064 2153.7,583.165 2155.02,583.264 2156.34,583.363 2157.66,583.461 2158.98,583.558 2160.3,583.654 2161.61,583.749 2162.93,583.843 2164.25,583.936 2165.57,584.028 2166.89,584.118 2168.2,584.208 2169.52,584.296 2170.84,584.383 2172.16,584.468 2173.48,584.552 2174.8,584.635 2176.11,584.717 2177.43,584.796 2178.75,584.875 2180.07,584.952 2181.39,585.028 2182.7,585.102 2184.02,585.174 2185.34,585.245 2186.66,585.315 2187.98,585.383 2189.3,585.449 2190.61,585.514 2191.93,585.577 2193.25,585.639 2194.57,585.699 2195.89,585.758 2197.21,585.815 2198.52,585.871 2199.84,585.925 2201.16,585.978 2202.48,586.029 2203.8,586.078 2205.11,586.126 2206.43,586.173 2207.75,586.218 2209.07,586.262 2210.39,586.304 2211.71,586.345 2213.02,586.385 2214.34,586.423 2215.66,586.46 2216.98,586.496 2218.3,586.53 2219.62,586.563 2220.93,586.595 2222.25,586.626 2223.57,586.655 2224.89,586.684 2226.21,586.711 2227.52,586.737 2228.84,586.762 2230.16,586.786 2231.48,586.809 2232.8,586.831 2234.12,586.852 2235.43,586.872 2236.75,586.891 2238.07,586.91 2239.39,586.927 2240.71,586.944 2242.02,586.96 2243.34,586.975 2244.66,586.989 2245.98,587.003 2247.3,587.016 2248.62,587.028 2249.93,587.04 2251.25,587.051 2252.57,587.061 2253.89,587.071 2255.21,587.08 2256.53,587.089 2257.84,587.097 2259.16,587.105 2260.48,587.113 2261.8,587.12 2263.12,587.126 2264.43,587.132 2265.75,587.138 2267.07,587.144 2268.39,587.149 2269.71,587.153 2271.03,587.158 2272.34,587.162 2273.66,587.166 2274.98,587.169 2276.3,587.173 2277.62,587.176 2278.94,587.179 2280.25,587.181 2281.57,587.184 2282.89,587.186 2284.21,587.188 2285.53,587.19 2286.84,587.192 2288.16,587.194 2289.48,587.195 2290.8,587.197 2292.12,587.198 2293.44,587.199 2294.75,587.201 2296.07,587.202 2297.39,587.202 2298.71,587.203 2300.03,587.204 2301.35,587.205 2302.66,587.205 2303.98,587.206 2305.3,587.206 2306.62,587.207 2307.94,587.207 2309.25,587.208 2310.57,587.208 2311.89,587.208 2313.21,587.209 2314.53,587.209 2315.85,587.209 2317.16,587.209 2318.48,587.209 2319.8,587.209 2321.12,587.21 2322.44,587.21 2323.75,587.21 2325.07,587.21 2326.39,587.21 2327.71,587.21 2329.03,587.21 2330.35,587.21 2331.66,587.21 2332.98,587.21 2334.3,587.21 2335.62,587.21 2336.94,587.21 2338.26,587.21 2339.57,587.21 2340.89,587.21 2342.21,587.21 2343.53,587.21 2344.85,587.21 2346.16,587.21 2347.48,587.21 2348.8,587.21 2350.12,587.21 2351.44,587.21 2352.76,587.21 "/>
<path clip-path="url(#clip470)" d="M1982.82 248.629 L2286.84 248.629 L2286.84 93.1086 L1982.82 93.1086  Z" fill="#ffffff" fill-rule="evenodd" fill-opacity="1"/>
<polyline clip-path="url(#clip470)" style="stroke:#000000; stroke-linecap:round; stroke-linejoin:round; stroke-width:4; stroke-opacity:1; fill:none" points="1982.82,248.629 2286.84,248.629 2286.84,93.1086 1982.82,93.1086 1982.82,248.629 "/>
<polyline clip-path="url(#clip470)" style="stroke:#009af9; stroke-linecap:round; stroke-linejoin:round; stroke-width:8; stroke-opacity:1; fill:none" points="2004.79,144.949 2136.61,144.949 "/>
<path clip-path="url(#clip470)" d="M2158.58 127.669 L2163.25 127.669 L2163.25 158.293 L2180.08 158.293 L2180.08 162.229 L2158.58 162.229 L2158.58 127.669 Z" fill="#000000" fill-rule="nonzero" fill-opacity="1" /><path clip-path="url(#clip470)" d="M2189.67 131.511 L2189.67 144.497 L2195.55 144.497 Q2198.81 144.497 2200.59 142.807 Q2202.37 141.118 2202.37 137.993 Q2202.37 134.891 2200.59 133.201 Q2198.81 131.511 2195.55 131.511 L2189.67 131.511 M2184.99 127.669 L2195.55 127.669 Q2201.36 127.669 2204.32 130.307 Q2207.31 132.923 2207.31 137.993 Q2207.31 143.108 2204.32 145.724 Q2201.36 148.34 2195.55 148.34 L2189.67 148.34 L2189.67 162.229 L2184.99 162.229 L2184.99 127.669 Z" fill="#000000" fill-rule="nonzero" fill-opacity="1" /><path clip-path="url(#clip470)" d="M2223.99 130.747 Q2220.38 130.747 2218.56 134.312 Q2216.75 137.854 2216.75 144.983 Q2216.75 152.09 2218.56 155.655 Q2220.38 159.196 2223.99 159.196 Q2227.63 159.196 2229.43 155.655 Q2231.26 152.09 2231.26 144.983 Q2231.26 137.854 2229.43 134.312 Q2227.63 130.747 2223.99 130.747 M2223.99 127.044 Q2229.8 127.044 2232.86 131.65 Q2235.94 136.233 2235.94 144.983 Q2235.94 153.71 2232.86 158.317 Q2229.8 162.9 2223.99 162.9 Q2218.18 162.9 2215.11 158.317 Q2212.05 153.71 2212.05 144.983 Q2212.05 136.233 2215.11 131.65 Q2218.18 127.044 2223.99 127.044 Z" fill="#000000" fill-rule="nonzero" fill-opacity="1" /><path clip-path="url(#clip470)" d="M2244.97 158.293 L2252.61 158.293 L2252.61 131.928 L2244.3 133.595 L2244.3 129.335 L2252.56 127.669 L2257.24 127.669 L2257.24 158.293 L2264.87 158.293 L2264.87 162.229 L2244.97 162.229 L2244.97 158.293 Z" fill="#000000" fill-rule="nonzero" fill-opacity="1" /><polyline clip-path="url(#clip470)" style="stroke:#e26f46; stroke-linecap:round; stroke-linejoin:round; stroke-width:8; stroke-opacity:1; fill:none" points="2004.79,196.789 2136.61,196.789 "/>
<path clip-path="url(#clip470)" d="M2158.58 179.509 L2163.25 179.509 L2163.25 210.133 L2180.08 210.133 L2180.08 214.069 L2158.58 214.069 L2158.58 179.509 Z" fill="#000000" fill-rule="nonzero" fill-opacity="1" /><path clip-path="url(#clip470)" d="M2189.67 183.351 L2189.67 196.337 L2195.55 196.337 Q2198.81 196.337 2200.59 194.647 Q2202.37 192.958 2202.37 189.833 Q2202.37 186.731 2200.59 185.041 Q2198.81 183.351 2195.55 183.351 L2189.67 183.351 M2184.99 179.509 L2195.55 179.509 Q2201.36 179.509 2204.32 182.147 Q2207.31 184.763 2207.31 189.833 Q2207.31 194.948 2204.32 197.564 Q2201.36 200.18 2195.55 200.18 L2189.67 200.18 L2189.67 214.069 L2184.99 214.069 L2184.99 179.509 Z" fill="#000000" fill-rule="nonzero" fill-opacity="1" /><path clip-path="url(#clip470)" d="M2223.99 182.587 Q2220.38 182.587 2218.56 186.152 Q2216.75 189.694 2216.75 196.823 Q2216.75 203.93 2218.56 207.495 Q2220.38 211.036 2223.99 211.036 Q2227.63 211.036 2229.43 207.495 Q2231.26 203.93 2231.26 196.823 Q2231.26 189.694 2229.43 186.152 Q2227.63 182.587 2223.99 182.587 M2223.99 178.884 Q2229.8 178.884 2232.86 183.49 Q2235.94 188.073 2235.94 196.823 Q2235.94 205.55 2232.86 210.157 Q2229.8 214.74 2223.99 214.74 Q2218.18 214.74 2215.11 210.157 Q2212.05 205.55 2212.05 196.823 Q2212.05 188.073 2215.11 183.49 Q2218.18 178.884 2223.99 178.884 Z" fill="#000000" fill-rule="nonzero" fill-opacity="1" /><path clip-path="url(#clip470)" d="M2248.18 210.133 L2264.5 210.133 L2264.5 214.069 L2242.56 214.069 L2242.56 210.133 Q2245.22 207.379 2249.8 202.749 Q2254.41 198.096 2255.59 196.754 Q2257.84 194.231 2258.72 192.495 Q2259.62 190.735 2259.62 189.046 Q2259.62 186.291 2257.68 184.555 Q2255.75 182.819 2252.65 182.819 Q2250.45 182.819 2248 183.583 Q2245.57 184.347 2242.79 185.897 L2242.79 181.175 Q2245.62 180.041 2248.07 179.462 Q2250.52 178.884 2252.56 178.884 Q2257.93 178.884 2261.12 181.569 Q2264.32 184.254 2264.32 188.745 Q2264.32 190.874 2263.51 192.796 Q2262.72 194.694 2260.61 197.286 Q2260.04 197.958 2256.93 201.175 Q2253.83 204.37 2248.18 210.133 Z" fill="#000000" fill-rule="nonzero" fill-opacity="1" /></svg>
