<?xml version="1.0" encoding="utf-8"?>
<svg xmlns="http://www.w3.org/2000/svg" xmlns:xlink="http://www.w3.org/1999/xlink" width="600" height="400" viewBox="0 0 2400 1600">
<defs>
  <clipPath id="clip640">
    <rect x="0" y="0" width="2400" height="1600"/>
  </clipPath>
</defs>
<path clip-path="url(#clip640)" d="M0 1600 L2400 1600 L2400 0 L0 0  Z" fill="#ffffff" fill-rule="evenodd" fill-opacity="1"/>
<defs>
  <clipPath id="clip641">
    <rect x="221" y="47" width="2132" height="1377"/>
  </clipPath>
</defs>
<path clip-path="url(#clip640)" d="M221.637 1423.18 L2352.76 1423.18 L2352.76 47.2441 L221.637 47.2441  Z" fill="#ffffff" fill-rule="evenodd" fill-opacity="1"/>
<polyline clip-path="url(#clip641)" style="stroke:#000000; stroke-linecap:round; stroke-linejoin:round; stroke-width:2; stroke-opacity:0.1; fill:none" points="221.637,1423.18 221.637,47.2441 "/>
<polyline clip-path="url(#clip641)" style="stroke:#000000; stroke-linecap:round; stroke-linejoin:round; stroke-width:2; stroke-opacity:0.1; fill:none" points="647.861,1423.18 647.861,47.2441 "/>
<polyline clip-path="url(#clip641)" style="stroke:#000000; stroke-linecap:round; stroke-linejoin:round; stroke-width:2; stroke-opacity:0.1; fill:none" points="1074.08,1423.18 1074.08,47.2441 "/>
<polyline clip-path="url(#clip641)" style="stroke:#000000; stroke-linecap:round; stroke-linejoin:round; stroke-width:2; stroke-opacity:0.1; fill:none" points="1500.31,1423.18 1500.31,47.2441 "/>
<polyline clip-path="url(#clip641)" style="stroke:#000000; stroke-linecap:round; stroke-linejoin:round; stroke-width:2; stroke-opacity:0.1; fill:none" points="1926.53,1423.18 1926.53,47.2441 "/>
<polyline clip-path="url(#clip641)" style="stroke:#000000; stroke-linecap:round; stroke-linejoin:round; stroke-width:2; stroke-opacity:0.1; fill:none" points="2352.76,1423.18 2352.76,47.2441 "/>
<polyline clip-path="url(#clip641)" style="stroke:#000000; stroke-linecap:round; stroke-linejoin:round; stroke-width:2; stroke-opacity:0.1; fill:none" points="221.637,972.471 2352.76,972.471 "/>
<polyline clip-path="url(#clip641)" style="stroke:#000000; stroke-linecap:round; stroke-linejoin:round; stroke-width:2; stroke-opacity:0.1; fill:none" points="221.637,326.565 2352.76,326.565 "/>
<polyline clip-path="url(#clip640)" style="stroke:#000000; stroke-linecap:round; stroke-linejoin:round; stroke-width:4; stroke-opacity:1; fill:none" points="221.637,1423.18 2352.76,1423.18 "/>
<polyline clip-path="url(#clip640)" style="stroke:#000000; stroke-linecap:round; stroke-linejoin:round; stroke-width:4; stroke-opacity:1; fill:none" points="221.637,1423.18 221.637,1404.28 "/>
<polyline clip-path="url(#clip640)" style="stroke:#000000; stroke-linecap:round; stroke-linejoin:round; stroke-width:4; stroke-opacity:1; fill:none" points="647.861,1423.18 647.861,1404.28 "/>
<polyline clip-path="url(#clip640)" style="stroke:#000000; stroke-linecap:round; stroke-linejoin:round; stroke-width:4; stroke-opacity:1; fill:none" points="1074.08,1423.18 1074.08,1404.28 "/>
<polyline clip-path="url(#clip640)" style="stroke:#000000; stroke-linecap:round; stroke-linejoin:round; stroke-width:4; stroke-opacity:1; fill:none" points="1500.31,1423.18 1500.31,1404.28 "/>
<polyline clip-path="url(#clip640)" style="stroke:#000000; stroke-linecap:round; stroke-linejoin:round; stroke-width:4; stroke-opacity:1; fill:none" points="1926.53,1423.18 1926.53,1404.28 "/>
<polyline clip-path="url(#clip640)" style="stroke:#000000; stroke-linecap:round; stroke-linejoin:round; stroke-width:4; stroke-opacity:1; fill:none" points="2352.76,1423.18 2352.76,1404.28 "/>
<path clip-path="url(#clip640)" d="M221.637 1454.1 Q218.026 1454.1 216.197 1457.66 Q214.392 1461.2 214.392 1468.33 Q214.392 1475.44 216.197 1479.01 Q218.026 1482.55 221.637 1482.55 Q225.271 1482.55 227.077 1479.01 Q228.906 1475.44 228.906 1468.33 Q228.906 1461.2 227.077 1457.66 Q225.271 1454.1 221.637 1454.1 M221.637 1450.39 Q227.447 1450.39 230.503 1455 Q233.581 1459.58 233.581 1468.33 Q233.581 1477.06 230.503 1481.67 Q227.447 1486.25 221.637 1486.25 Q215.827 1486.25 212.748 1481.67 Q209.693 1477.06 209.693 1468.33 Q209.693 1459.58 212.748 1455 Q215.827 1450.39 221.637 1450.39 Z" fill="#000000" fill-rule="nonzero" fill-opacity="1" /><path clip-path="url(#clip640)" d="M642.514 1481.64 L658.833 1481.64 L658.833 1485.58 L636.889 1485.58 L636.889 1481.64 Q639.551 1478.89 644.134 1474.26 Q648.74 1469.61 649.921 1468.27 Q652.166 1465.74 653.046 1464.01 Q653.949 1462.25 653.949 1460.56 Q653.949 1457.8 652.004 1456.07 Q650.083 1454.33 646.981 1454.33 Q644.782 1454.33 642.328 1455.09 Q639.898 1455.86 637.12 1457.41 L637.12 1452.69 Q639.944 1451.55 642.398 1450.97 Q644.852 1450.39 646.889 1450.39 Q652.259 1450.39 655.453 1453.08 Q658.648 1455.77 658.648 1460.26 Q658.648 1462.39 657.838 1464.31 Q657.051 1466.2 654.944 1468.8 Q654.365 1469.47 651.264 1472.69 Q648.162 1475.88 642.514 1481.64 Z" fill="#000000" fill-rule="nonzero" fill-opacity="1" /><path clip-path="url(#clip640)" d="M1077.09 1455.09 L1065.29 1473.54 L1077.09 1473.54 L1077.09 1455.09 M1075.87 1451.02 L1081.75 1451.02 L1081.75 1473.54 L1086.68 1473.54 L1086.68 1477.43 L1081.75 1477.43 L1081.75 1485.58 L1077.09 1485.58 L1077.09 1477.43 L1061.49 1477.43 L1061.49 1472.92 L1075.87 1451.02 Z" fill="#000000" fill-rule="nonzero" fill-opacity="1" /><path clip-path="url(#clip640)" d="M1500.71 1466.44 Q1497.57 1466.44 1495.71 1468.59 Q1493.88 1470.74 1493.88 1474.49 Q1493.88 1478.22 1495.71 1480.39 Q1497.57 1482.55 1500.71 1482.55 Q1503.86 1482.55 1505.69 1480.39 Q1507.54 1478.22 1507.54 1474.49 Q1507.54 1470.74 1505.69 1468.59 Q1503.86 1466.44 1500.71 1466.44 M1510 1451.78 L1510 1456.04 Q1508.24 1455.21 1506.43 1454.77 Q1504.65 1454.33 1502.89 1454.33 Q1498.26 1454.33 1495.81 1457.45 Q1493.38 1460.58 1493.03 1466.9 Q1494.39 1464.89 1496.45 1463.82 Q1498.51 1462.73 1500.99 1462.73 Q1506.2 1462.73 1509.21 1465.9 Q1512.24 1469.05 1512.24 1474.49 Q1512.24 1479.82 1509.09 1483.03 Q1505.94 1486.25 1500.71 1486.25 Q1494.72 1486.25 1491.55 1481.67 Q1488.38 1477.06 1488.38 1468.33 Q1488.38 1460.14 1492.26 1455.28 Q1496.15 1450.39 1502.7 1450.39 Q1504.46 1450.39 1506.25 1450.74 Q1508.05 1451.09 1510 1451.78 Z" fill="#000000" fill-rule="nonzero" fill-opacity="1" /><path clip-path="url(#clip640)" d="M1926.53 1469.17 Q1923.2 1469.17 1921.28 1470.95 Q1919.38 1472.73 1919.38 1475.86 Q1919.38 1478.98 1921.28 1480.77 Q1923.2 1482.55 1926.53 1482.55 Q1929.87 1482.55 1931.79 1480.77 Q1933.71 1478.96 1933.71 1475.86 Q1933.71 1472.73 1931.79 1470.95 Q1929.89 1469.17 1926.53 1469.17 M1921.86 1467.18 Q1918.85 1466.44 1917.16 1464.38 Q1915.49 1462.32 1915.49 1459.35 Q1915.49 1455.21 1918.43 1452.8 Q1921.39 1450.39 1926.53 1450.39 Q1931.69 1450.39 1934.63 1452.8 Q1937.57 1455.21 1937.57 1459.35 Q1937.57 1462.32 1935.88 1464.38 Q1934.22 1466.44 1931.23 1467.18 Q1934.61 1467.96 1936.49 1470.26 Q1938.38 1472.55 1938.38 1475.86 Q1938.38 1480.88 1935.31 1483.57 Q1932.25 1486.25 1926.53 1486.25 Q1920.81 1486.25 1917.74 1483.57 Q1914.68 1480.88 1914.68 1475.86 Q1914.68 1472.55 1916.58 1470.26 Q1918.48 1467.96 1921.86 1467.18 M1920.14 1459.79 Q1920.14 1462.48 1921.81 1463.98 Q1923.5 1465.49 1926.53 1465.49 Q1929.54 1465.49 1931.23 1463.98 Q1932.94 1462.48 1932.94 1459.79 Q1932.94 1457.11 1931.23 1455.6 Q1929.54 1454.1 1926.53 1454.1 Q1923.5 1454.1 1921.81 1455.6 Q1920.14 1457.11 1920.14 1459.79 Z" fill="#000000" fill-rule="nonzero" fill-opacity="1" /><path clip-path="url(#clip640)" d="M2327.44 1481.64 L2335.08 1481.64 L2335.08 1455.28 L2326.77 1456.95 L2326.77 1452.69 L2335.04 1451.02 L2339.71 1451.02 L2339.71 1481.64 L2347.35 1481.64 L2347.35 1485.58 L2327.44 1485.58 L2327.44 1481.64 Z" fill="#000000" fill-rule="nonzero" fill-opacity="1" /><path clip-path="url(#clip640)" d="M2366.8 1454.1 Q2363.18 1454.1 2361.36 1457.66 Q2359.55 1461.2 2359.55 1468.33 Q2359.55 1475.44 2361.36 1479.01 Q2363.18 1482.55 2366.8 1482.55 Q2370.43 1482.55 2372.23 1479.01 Q2374.06 1475.44 2374.06 1468.33 Q2374.06 1461.2 2372.23 1457.66 Q2370.43 1454.1 2366.8 1454.1 M2366.8 1450.39 Q2372.61 1450.39 2375.66 1455 Q2378.74 1459.58 2378.74 1468.33 Q2378.74 1477.06 2375.66 1481.67 Q2372.61 1486.25 2366.8 1486.25 Q2360.99 1486.25 2357.91 1481.67 Q2354.85 1477.06 2354.85 1468.33 Q2354.85 1459.58 2357.91 1455 Q2360.99 1450.39 2366.8 1450.39 Z" fill="#000000" fill-rule="nonzero" fill-opacity="1" /><path clip-path="url(#clip640)" d="M1175.88 1545.76 Q1177.95 1546.46 1179.89 1548.76 Q1181.86 1551.05 1183.83 1555.06 L1190.36 1568.04 L1183.45 1568.04 L1177.37 1555.85 Q1175.02 1551.08 1172.79 1549.52 Q1170.59 1547.96 1166.77 1547.96 L1159.77 1547.96 L1159.77 1568.04 L1153.34 1568.04 L1153.34 1520.52 L1167.86 1520.52 Q1176 1520.52 1180.01 1523.93 Q1184.02 1527.34 1184.02 1534.21 Q1184.02 1538.7 1181.92 1541.66 Q1179.85 1544.62 1175.88 1545.76 M1159.77 1525.81 L1159.77 1542.68 L1167.86 1542.68 Q1172.5 1542.68 1174.86 1540.54 Q1177.24 1538.38 1177.24 1534.21 Q1177.24 1530.04 1174.86 1527.94 Q1172.5 1525.81 1167.86 1525.81 L1159.77 1525.81 Z" fill="#000000" fill-rule="nonzero" fill-opacity="1" /><path clip-path="url(#clip640)" d="M1224.03 1533.76 L1224.03 1539.24 Q1221.55 1537.87 1219.04 1537.2 Q1216.55 1536.5 1214.01 1536.5 Q1208.31 1536.5 1205.16 1540.13 Q1202.01 1543.73 1202.01 1550.25 Q1202.01 1556.78 1205.16 1560.4 Q1208.31 1564 1214.01 1564 Q1216.55 1564 1219.04 1563.33 Q1221.55 1562.63 1224.03 1561.26 L1224.03 1566.68 Q1221.58 1567.82 1218.94 1568.39 Q1216.33 1568.97 1213.37 1568.97 Q1205.32 1568.97 1200.58 1563.91 Q1195.83 1558.85 1195.83 1550.25 Q1195.83 1541.53 1200.61 1536.53 Q1205.41 1531.54 1213.75 1531.54 Q1216.46 1531.54 1219.04 1532.11 Q1221.61 1532.65 1224.03 1533.76 Z" fill="#000000" fill-rule="nonzero" fill-opacity="1" /><path clip-path="url(#clip640)" d="M1269.01 1518.58 Q1264.74 1525.9 1262.67 1533.06 Q1260.6 1540.23 1260.6 1547.58 Q1260.6 1554.93 1262.67 1562.16 Q1264.77 1569.35 1269.01 1576.64 L1263.91 1576.64 Q1259.14 1569.16 1256.75 1561.93 Q1254.4 1554.71 1254.4 1547.58 Q1254.4 1540.48 1256.75 1533.29 Q1259.11 1526.09 1263.91 1518.58 L1269.01 1518.58 Z" fill="#000000" fill-rule="nonzero" fill-opacity="1" /><path clip-path="url(#clip640)" d="M1308.12 1539.24 Q1310.32 1535.29 1313.38 1533.41 Q1316.43 1531.54 1320.57 1531.54 Q1326.14 1531.54 1329.16 1535.45 Q1332.19 1539.33 1332.19 1546.53 L1332.19 1568.04 L1326.3 1568.04 L1326.3 1546.72 Q1326.3 1541.59 1324.48 1539.11 Q1322.67 1536.63 1318.95 1536.63 Q1314.39 1536.63 1311.75 1539.65 Q1309.11 1542.68 1309.11 1547.9 L1309.11 1568.04 L1303.22 1568.04 L1303.22 1546.72 Q1303.22 1541.56 1301.41 1539.11 Q1299.59 1536.63 1295.81 1536.63 Q1291.32 1536.63 1288.68 1539.68 Q1286.03 1542.71 1286.03 1547.9 L1286.03 1568.04 L1280.15 1568.04 L1280.15 1532.4 L1286.03 1532.4 L1286.03 1537.93 Q1288.04 1534.66 1290.84 1533.1 Q1293.64 1531.54 1297.49 1531.54 Q1301.38 1531.54 1304.08 1533.51 Q1306.82 1535.48 1308.12 1539.24 Z" fill="#000000" fill-rule="nonzero" fill-opacity="1" /><path clip-path="url(#clip640)" d="M1371.62 1539.24 Q1373.82 1535.29 1376.87 1533.41 Q1379.93 1531.54 1384.07 1531.54 Q1389.64 1531.54 1392.66 1535.45 Q1395.68 1539.33 1395.68 1546.53 L1395.68 1568.04 L1389.8 1568.04 L1389.8 1546.72 Q1389.8 1541.59 1387.98 1539.11 Q1386.17 1536.63 1382.44 1536.63 Q1377.89 1536.63 1375.25 1539.65 Q1372.61 1542.68 1372.61 1547.9 L1372.61 1568.04 L1366.72 1568.04 L1366.72 1546.72 Q1366.72 1541.56 1364.91 1539.11 Q1363.09 1536.63 1359.3 1536.63 Q1354.82 1536.63 1352.17 1539.68 Q1349.53 1542.71 1349.53 1547.9 L1349.53 1568.04 L1343.64 1568.04 L1343.64 1532.4 L1349.53 1532.4 L1349.53 1537.93 Q1351.54 1534.66 1354.34 1533.1 Q1357.14 1531.54 1360.99 1531.54 Q1364.87 1531.54 1367.58 1533.51 Q1370.32 1535.48 1371.62 1539.24 Z" fill="#000000" fill-rule="nonzero" fill-opacity="1" /><path clip-path="url(#clip640)" d="M1406.44 1518.58 L1411.53 1518.58 Q1416.31 1526.09 1418.66 1533.29 Q1421.05 1540.48 1421.05 1547.58 Q1421.05 1554.71 1418.66 1561.93 Q1416.31 1569.16 1411.53 1576.64 L1406.44 1576.64 Q1410.68 1569.35 1412.74 1562.16 Q1414.84 1554.93 1414.84 1547.58 Q1414.84 1540.23 1412.74 1533.06 Q1410.68 1525.9 1406.44 1518.58 Z" fill="#000000" fill-rule="nonzero" fill-opacity="1" /><polyline clip-path="url(#clip640)" style="stroke:#000000; stroke-linecap:round; stroke-linejoin:round; stroke-width:4; stroke-opacity:1; fill:none" points="221.637,1423.18 221.637,47.2441 "/>
<polyline clip-path="url(#clip640)" style="stroke:#000000; stroke-linecap:round; stroke-linejoin:round; stroke-width:4; stroke-opacity:1; fill:none" points="221.637,972.471 240.535,972.471 "/>
<polyline clip-path="url(#clip640)" style="stroke:#000000; stroke-linecap:round; stroke-linejoin:round; stroke-width:4; stroke-opacity:1; fill:none" points="221.637,326.565 240.535,326.565 "/>
<path clip-path="url(#clip640)" d="M114.931 992.263 L122.57 992.263 L122.57 965.898 L114.26 967.564 L114.26 963.305 L122.524 961.639 L127.2 961.639 L127.2 992.263 L134.839 992.263 L134.839 996.199 L114.931 996.199 L114.931 992.263 Z" fill="#000000" fill-rule="nonzero" fill-opacity="1" /><path clip-path="url(#clip640)" d="M154.283 964.717 Q150.672 964.717 148.843 968.282 Q147.038 971.824 147.038 978.953 Q147.038 986.06 148.843 989.625 Q150.672 993.166 154.283 993.166 Q157.917 993.166 159.723 989.625 Q161.552 986.06 161.552 978.953 Q161.552 971.824 159.723 968.282 Q157.917 964.717 154.283 964.717 M154.283 961.014 Q160.093 961.014 163.149 965.62 Q166.227 970.203 166.227 978.953 Q166.227 987.68 163.149 992.287 Q160.093 996.87 154.283 996.87 Q148.473 996.87 145.394 992.287 Q142.339 987.68 142.339 978.953 Q142.339 970.203 145.394 965.62 Q148.473 961.014 154.283 961.014 Z" fill="#000000" fill-rule="nonzero" fill-opacity="1" /><path clip-path="url(#clip640)" d="M175.932 943.21 Q172.998 943.21 171.512 946.106 Q170.045 948.984 170.045 954.776 Q170.045 960.55 171.512 963.447 Q172.998 966.324 175.932 966.324 Q178.885 966.324 180.352 963.447 Q181.838 960.55 181.838 954.776 Q181.838 948.984 180.352 946.106 Q178.885 943.21 175.932 943.21 M175.932 940.2 Q180.653 940.2 183.136 943.943 Q185.637 947.667 185.637 954.776 Q185.637 961.867 183.136 965.61 Q180.653 969.334 175.932 969.334 Q171.212 969.334 168.71 965.61 Q166.227 961.867 166.227 954.776 Q166.227 947.667 168.71 943.943 Q171.212 940.2 175.932 940.2 Z" fill="#000000" fill-rule="nonzero" fill-opacity="1" /><path clip-path="url(#clip640)" d="M115.853 346.357 L123.492 346.357 L123.492 319.992 L115.182 321.659 L115.182 317.399 L123.446 315.733 L128.121 315.733 L128.121 346.357 L135.76 346.357 L135.76 350.293 L115.853 350.293 L115.853 346.357 Z" fill="#000000" fill-rule="nonzero" fill-opacity="1" /><path clip-path="url(#clip640)" d="M155.205 318.811 Q151.594 318.811 149.765 322.376 Q147.959 325.918 147.959 333.047 Q147.959 340.154 149.765 343.719 Q151.594 347.26 155.205 347.26 Q158.839 347.26 160.644 343.719 Q162.473 340.154 162.473 333.047 Q162.473 325.918 160.644 322.376 Q158.839 318.811 155.205 318.811 M155.205 315.108 Q161.015 315.108 164.07 319.714 Q167.149 324.297 167.149 333.047 Q167.149 341.774 164.07 346.381 Q161.015 350.964 155.205 350.964 Q149.395 350.964 146.316 346.381 Q143.26 341.774 143.26 333.047 Q143.26 324.297 146.316 319.714 Q149.395 315.108 155.205 315.108 Z" fill="#000000" fill-rule="nonzero" fill-opacity="1" /><path clip-path="url(#clip640)" d="M179.844 307.742 Q182.571 308.325 184.095 310.168 Q185.637 312.011 185.637 314.72 Q185.637 318.876 182.778 321.152 Q179.92 323.428 174.653 323.428 Q172.885 323.428 171.005 323.07 Q169.143 322.732 167.149 322.036 L167.149 318.368 Q168.729 319.29 170.61 319.76 Q172.49 320.23 174.541 320.23 Q178.114 320.23 179.976 318.82 Q181.857 317.409 181.857 314.72 Q181.857 312.237 180.108 310.845 Q178.377 309.435 175.274 309.435 L172.001 309.435 L172.001 306.313 L175.424 306.313 Q178.227 306.313 179.713 305.203 Q181.198 304.074 181.198 301.968 Q181.198 299.805 179.656 298.658 Q178.133 297.492 175.274 297.492 Q173.713 297.492 171.926 297.83 Q170.139 298.169 167.995 298.883 L167.995 295.498 Q170.158 294.896 172.039 294.595 Q173.939 294.294 175.613 294.294 Q179.938 294.294 182.459 296.269 Q184.979 298.225 184.979 301.573 Q184.979 303.905 183.643 305.523 Q182.308 307.121 179.844 307.742 Z" fill="#000000" fill-rule="nonzero" fill-opacity="1" /><path clip-path="url(#clip640)" d="M33.958 868.064 L55.9834 860.266 L28.3562 849.126 L28.3562 842.92 L64.0042 857.338 L77.5631 857.338 L77.5631 863.195 L64.0042 863.195 L37.3955 872.552 Q33.3851 873.953 33.3851 876.976 L33.3851 878.536 L28.3562 878.536 L28.3562 876.308 Q28.3562 870.038 33.958 868.064 Z" fill="#000000" fill-rule="nonzero" fill-opacity="1" /><path clip-path="url(#clip640)" d="M14.5426 800.047 Q21.8632 804.312 29.0246 806.381 Q36.186 808.449 43.5384 808.449 Q50.8908 808.449 58.1159 806.381 Q65.3091 804.28 72.5979 800.047 L72.5979 805.139 Q65.1182 809.914 57.8931 812.301 Q50.668 814.656 43.5384 814.656 Q36.4406 814.656 29.2474 812.301 Q22.0542 809.945 14.5426 805.139 L14.5426 800.047 Z" fill="#000000" fill-rule="nonzero" fill-opacity="1" /><path clip-path="url(#clip640)" d="M35.1993 760.929 Q31.2526 758.733 29.3747 755.678 Q27.4968 752.622 27.4968 748.484 Q27.4968 742.914 31.4117 739.891 Q35.2948 736.867 42.4881 736.867 L64.0042 736.867 L64.0042 742.755 L42.679 742.755 Q37.5546 742.755 35.072 744.57 Q32.5894 746.384 32.5894 750.108 Q32.5894 754.659 35.6131 757.301 Q38.6368 759.943 43.8567 759.943 L64.0042 759.943 L64.0042 765.831 L42.679 765.831 Q37.5228 765.831 35.072 767.645 Q32.5894 769.459 32.5894 773.247 Q32.5894 777.735 35.6449 780.377 Q38.6686 783.018 43.8567 783.018 L64.0042 783.018 L64.0042 788.907 L28.3562 788.907 L28.3562 783.018 L33.8944 783.018 Q30.616 781.013 29.0564 778.212 Q27.4968 775.411 27.4968 771.56 Q27.4968 767.677 29.4702 764.972 Q31.4436 762.234 35.1993 760.929 Z" fill="#000000" fill-rule="nonzero" fill-opacity="1" /><path clip-path="url(#clip640)" d="M16.4842 700.901 L34.2127 683.618 L34.2127 690.015 L21.6404 704.02 L34.2127 718.025 L34.2127 724.422 L16.4842 707.139 L16.4842 700.901 Z" fill="#000000" fill-rule="nonzero" fill-opacity="1" /><path clip-path="url(#clip640)" d="M43.5384 673.528 L43.5384 656.373 L48.7583 656.373 L48.7583 673.528 L43.5384 673.528 Z" fill="#000000" fill-rule="nonzero" fill-opacity="1" /><path clip-path="url(#clip640)" d="M58.5933 645.105 L58.5933 634.602 L22.3406 634.602 L24.6323 646.028 L18.7758 646.028 L16.4842 634.666 L16.4842 628.236 L58.5933 628.236 L58.5933 617.733 L64.0042 617.733 L64.0042 645.105 L58.5933 645.105 Z" fill="#000000" fill-rule="nonzero" fill-opacity="1" /><path clip-path="url(#clip640)" d="M14.5426 606.497 L14.5426 601.405 Q22.0542 596.631 29.2474 594.275 Q36.4406 591.888 43.5384 591.888 Q50.668 591.888 57.8931 594.275 Q65.1182 596.631 72.5979 601.405 L72.5979 606.497 Q65.3091 602.264 58.1159 600.195 Q50.8908 598.095 43.5384 598.095 Q36.186 598.095 29.0246 600.195 Q21.8632 602.264 14.5426 606.497 Z" fill="#000000" fill-rule="nonzero" fill-opacity="1" /><polyline clip-path="url(#clip641)" style="stroke:#009af9; stroke-linecap:round; stroke-linejoin:round; stroke-width:8; stroke-opacity:1; fill:none" points="434.749,86.1857 436.88,87.9476 439.011,89.705 441.142,91.4579 443.273,93.2064 445.405,94.9505 447.536,96.6904 449.667,98.4262 451.798,100.158 453.929,101.885 456.06,103.609 458.191,105.329 460.322,107.045 462.454,108.757 464.585,110.466 466.716,112.171 468.847,113.873 470.978,115.571 473.109,117.265 475.24,118.957 477.371,120.645 479.502,122.329 481.634,124.011 483.765,125.689 485.896,127.365 488.027,129.037 490.158,130.706 492.289,132.373 494.42,134.036 496.551,135.697 498.683,137.354 500.814,139.009 502.945,140.662 505.076,142.311 507.207,143.958 509.338,145.603 511.469,147.245 513.6,148.884 515.731,150.521 517.863,152.155 519.994,153.787 522.125,155.416 524.256,157.043 526.387,158.668 528.518,160.291 530.649,161.911 532.78,163.529 534.912,165.145 537.043,166.759 539.174,168.37 541.305,169.98 543.436,171.587 545.567,173.193 547.698,174.796 549.829,176.397 551.961,177.997 554.092,179.594 556.223,181.19 558.354,182.783 560.485,184.375 562.616,185.965 564.747,187.553 566.878,189.139 569.009,190.724 571.141,192.306 573.272,193.887 575.403,195.466 577.534,197.044 579.665,198.62 581.796,200.194 583.927,201.767 586.058,203.338 588.19,204.907 590.321,206.475 592.452,208.041 594.583,209.606 596.714,211.169 598.845,212.73 600.976,214.291 603.107,215.849 605.238,217.407 607.37,218.962 609.501,220.517 611.632,222.07 613.763,223.621 615.894,225.171 618.025,226.72 620.156,228.268 622.287,229.814 624.419,231.358 626.55,232.902 628.681,234.444 630.812,235.985 632.943,237.525 635.074,239.063 637.205,240.6 639.336,242.136 641.467,243.671 643.599,245.204 645.73,246.736 647.861,248.268 649.992,249.797 652.123,251.326 654.254,252.854 656.385,254.38 658.516,255.906 660.648,257.43 662.779,258.953 664.91,260.475 667.041,261.996 669.172,263.516 671.303,265.035 673.434,266.553 675.565,268.07 677.697,269.585 679.828,271.1 681.959,272.614 684.09,274.126 686.221,275.638 688.352,277.149 690.483,278.659 692.614,280.167 694.745,281.675 696.877,283.182 699.008,284.688 701.139,286.193 703.27,287.697 705.401,289.2 707.532,290.703 709.663,292.204 711.794,293.704 713.926,295.204 716.057,296.703 718.188,298.201 720.319,299.698 722.45,301.194 724.581,302.689 726.712,304.183 728.843,305.677 730.974,307.17 733.106,308.662 735.237,310.153 737.368,311.643 739.499,313.133 741.63,314.622 743.761,316.109 745.892,317.597 748.023,319.083 750.155,320.569 752.286,322.054 754.417,323.538 756.548,325.021 758.679,326.504 760.81,327.986 762.941,329.467 765.072,330.947 767.204,332.427 769.335,333.906 771.466,335.384 773.597,336.862 775.728,338.339 777.859,339.815 779.99,341.291 782.121,342.766 784.252,344.24 786.384,345.713 788.515,347.186 790.646,348.658 792.777,350.13 794.908,351.601 797.039,353.071 799.17,354.541 801.301,356.01 803.433,357.478 805.564,358.946 807.695,360.413 809.826,361.879 811.957,363.345 814.088,364.81 816.219,366.275 818.35,367.739 820.481,369.202 822.613,370.665 824.744,372.127 826.875,373.589 829.006,375.05 831.137,376.511 833.268,377.971 835.399,379.43 837.53,380.889 839.662,382.347 841.793,383.805 843.924,385.262 846.055,386.718 848.186,388.175 850.317,389.63 852.448,391.085 854.579,392.539 856.71,393.993 858.842,395.447 860.973,396.9 863.104,398.352 865.235,399.804 867.366,401.255 869.497,402.706 871.628,404.156 873.759,405.606 875.891,407.055 878.022,408.504 880.153,409.952 882.284,411.4 884.415,412.847 886.546,414.294 888.677,415.741 890.808,417.187 892.94,418.632 895.071,420.077 897.202,421.521 899.333,422.965 901.464,424.409 903.595,425.852 905.726,427.295 907.857,428.737 909.988,430.179 912.12,431.62 914.251,433.061 916.382,434.501 918.513,435.941 920.644,437.381 922.775,438.82 924.906,440.258 927.037,441.696 929.169,443.134 931.3,444.572 933.431,446.009 935.562,447.445 937.693,448.881 939.824,450.317 941.955,451.752 944.086,453.187 946.217,454.621 948.349,456.056 950.48,457.489 952.611,458.922 954.742,460.355 956.873,461.788 959.004,463.22 961.135,464.652 963.266,466.083 965.398,467.514 967.529,468.944 969.66,470.374 971.791,471.804 973.922,473.234 976.053,474.663 978.184,476.091 980.315,477.519 982.447,478.947 984.578,480.375 986.709,481.802 988.84,483.229 990.971,484.655 993.102,486.081 995.233,487.507 997.364,488.933 999.495,490.358 1001.63,491.782 1003.76,493.207 1005.89,494.631 1008.02,496.054 1010.15,497.477 1012.28,498.9 1014.41,500.323 1016.54,501.745 1018.68,503.167 1020.81,504.589 1022.94,506.01 1025.07,507.431 1027.2,508.852 1029.33,510.272 1031.46,511.692 1033.59,513.111 1035.72,514.531 1037.86,515.95 1039.99,517.368 1042.12,518.787 1044.25,520.205 1046.38,521.622 1048.51,523.04 1050.64,524.457 1052.77,525.874 1054.9,527.29 1057.04,528.706 1059.17,530.122 1061.3,531.538 1063.43,532.953 1065.56,534.368 1067.69,535.783 1069.82,537.197 1071.95,538.611 1074.08,540.025 1076.22,541.438 1078.35,542.852 1080.48,544.265 1082.61,545.677 1084.74,547.09 1086.87,548.502 1089,549.913 1091.13,551.325 1093.26,552.736 1095.4,554.147 1097.53,555.558 1099.66,556.968 1101.79,558.378 1103.92,559.788 1106.05,561.197 1108.18,562.607 1110.31,564.016 1112.44,565.425 1114.58,566.833 1116.71,568.241 1118.84,569.649 1120.97,571.057 1123.1,572.464 1125.23,573.871 1127.36,575.278 1129.49,576.685 1131.62,578.091 1133.76,579.497 1135.89,580.903 1138.02,582.309 1140.15,583.714 1142.28,585.119 1144.41,586.524 1146.54,587.929 1148.67,589.333 1150.8,590.737 1152.94,592.141 1155.07,593.545 1157.2,594.948 1159.33,596.351 1161.46,597.754 1163.59,599.157 1165.72,600.559 1167.85,601.961 1169.98,603.363 1172.12,604.765 1174.25,606.166 1176.38,607.568 1178.51,608.969 1180.64,610.369 1182.77,611.77 1184.9,613.17 1187.03,614.57 1189.17,615.97 1191.3,617.37 1193.43,618.769 1195.56,620.168 1197.69,621.567 1199.82,622.966 1201.95,624.365 1204.08,625.763 1206.21,627.161 1208.35,628.559 1210.48,629.956 1212.61,631.354 1214.74,632.751 1216.87,634.148 1219,635.545 1221.13,636.941 1223.26,638.338 1225.39,639.734 1227.53,641.13 1229.66,642.525 1231.79,643.921 1233.92,645.316 1236.05,646.711 1238.18,648.106 1240.31,649.501 1242.44,650.895 1244.57,652.289 1246.71,653.684 1248.84,655.077 1250.97,656.471 1253.1,657.864 1255.23,659.258 1257.36,660.651 1259.49,662.044 1261.62,663.436 1263.75,664.829 1265.89,666.221 1268.02,667.613 1270.15,669.005 1272.28,670.397 1274.41,671.788 1276.54,673.179 1278.67,674.571 1280.8,675.961 1282.93,677.352 1285.07,678.743 1287.2,680.133 1289.33,681.523 1291.46,682.913 1293.59,684.303 1295.72,685.693 1297.85,687.082 1299.98,688.471 1302.11,689.86 1304.25,691.249 1306.38,692.638 1308.51,694.027 1310.64,695.415 1312.77,696.803 1314.9,698.191 1317.03,699.579 1319.16,700.966 1321.29,702.354 1323.43,703.741 1325.56,705.128 1327.69,706.515 1329.82,707.902 1331.95,709.288 1334.08,710.675 1336.21,712.061 1338.34,713.447 1340.47,714.833 1342.61,716.219 1344.74,717.604 1346.87,718.99 1349,720.375 1351.13,721.76 1353.26,723.145 1355.39,724.53 1357.52,725.914 1359.65,727.299 1361.79,728.683 1363.92,730.067 1366.05,731.451 1368.18,732.834 1370.31,734.218 1372.44,735.601 1374.57,736.985 1376.7,738.368 1378.83,739.751 1380.97,741.134 1383.1,742.516 1385.23,743.899 1387.36,745.281 1389.49,746.663 1391.62,748.045 1393.75,749.427 1395.88,750.809 1398.01,752.19 1400.15,753.572 1402.28,754.953 1404.41,756.334 1406.54,757.715 1408.67,759.095 1410.8,760.476 1412.93,761.857 1415.06,763.237 1417.19,764.617 1419.33,765.997 1421.46,767.377 1423.59,768.757 1425.72,770.136 1427.85,771.516 1429.98,772.895 1432.11,774.274 1434.24,775.653 1436.37,777.032 1438.51,778.411 1440.64,779.789 1442.77,781.168 1444.9,782.546 1447.03,783.924 1449.16,785.302 1451.29,786.68 1453.42,788.058 1455.55,789.435 1457.69,790.813 1459.82,792.19 1461.95,793.567 1464.08,794.944 1466.21,796.321 1468.34,797.698 1470.47,799.074 1472.6,800.451 1474.73,801.827 1476.87,803.203 1479,804.579 1481.13,805.955 1483.26,807.331 1485.39,808.707 1487.52,810.082 1489.65,811.458 1491.78,812.833 1493.92,814.208 1496.05,815.583 1498.18,816.958 1500.31,818.333 1502.44,819.707 1504.57,821.082 1506.7,822.456 1508.83,823.83 1510.96,825.204 1513.1,826.578 1515.23,827.952 1517.36,829.326 1519.49,830.7 1521.62,832.073 1523.75,833.446 1525.88,834.82 1528.01,836.193 1530.14,837.566 1532.28,838.939 1534.41,840.311 1536.54,841.684 1538.67,843.056 1540.8,844.429 1542.93,845.801 1545.06,847.173 1547.19,848.545 1549.32,849.917 1551.46,851.289 1553.59,852.66 1555.72,854.032 1557.85,855.403 1559.98,856.774 1562.11,858.145 1564.24,859.516 1566.37,860.887 1568.5,862.258 1570.64,863.629 1572.77,864.999 1574.9,866.37 1577.03,867.74 1579.16,869.11 1581.29,870.48 1583.42,871.85 1585.55,873.22 1587.68,874.59 1589.82,875.96 1591.95,877.329 1594.08,878.699 1596.21,880.068 1598.34,881.437 1600.47,882.806 1602.6,884.175 1604.73,885.544 1606.86,886.913 1609,888.281 1611.13,889.65 1613.26,891.018 1615.39,892.387 1617.52,893.755 1619.65,895.123 1621.78,896.491 1623.91,897.859 1626.04,899.226 1628.18,900.594 1630.31,901.962 1632.44,903.329 1634.57,904.696 1636.7,906.064 1638.83,907.431 1640.96,908.798 1643.09,910.165 1645.22,911.531 1647.36,912.898 1649.49,914.265 1651.62,915.631 1653.75,916.998 1655.88,918.364 1658.01,919.73 1660.14,921.096 1662.27,922.462 1664.4,923.828 1666.54,925.194 1668.67,926.559 1670.8,927.925 1672.93,929.29 1675.06,930.656 1677.19,932.021 1679.32,933.386 1681.45,934.751 1683.58,936.116 1685.72,937.481 1687.85,938.846 1689.98,940.21 1692.11,941.575 1694.24,942.939 1696.37,944.304 1698.5,945.668 1700.63,947.032 1702.76,948.396 1704.9,949.76 1707.03,951.124 1709.16,952.488 1711.29,953.852 1713.42,955.215 1715.55,956.579 1717.68,957.942 1719.81,959.305 1721.94,960.669 1724.08,962.032 1726.21,963.395 1728.34,964.758 1730.47,966.121 1732.6,967.483 1734.73,968.846 1736.86,970.209 1738.99,971.571 1741.12,972.933 1743.26,974.296 1745.39,975.658 1747.52,977.02 1749.65,978.382 1751.78,979.744 1753.91,981.106 1756.04,982.467 1758.17,983.829 1760.3,985.191 1762.44,986.552 1764.57,987.913 1766.7,989.275 1768.83,990.636 1770.96,991.997 1773.09,993.358 1775.22,994.719 1777.35,996.08 1779.48,997.441 1781.62,998.801 1783.75,1000.16 1785.88,1001.52 1788.01,1002.88 1790.14,1004.24 1792.27,1005.6 1794.4,1006.96 1796.53,1008.32 1798.67,1009.68 1800.8,1011.04 1802.93,1012.4 1805.06,1013.76 1807.19,1015.12 1809.32,1016.48 1811.45,1017.84 1813.58,1019.2 1815.71,1020.56 1817.85,1021.92 1819.98,1023.28 1822.11,1024.64 1824.24,1026 1826.37,1027.36 1828.5,1028.71 1830.63,1030.07 1832.76,1031.43 1834.89,1032.79 1837.03,1034.15 1839.16,1035.51 1841.29,1036.87 1843.42,1038.22 1845.55,1039.58 1847.68,1040.94 1849.81,1042.3 1851.94,1043.66 1854.07,1045.01 1856.21,1046.37 1858.34,1047.73 1860.47,1049.09 1862.6,1050.44 1864.73,1051.8 1866.86,1053.16 1868.99,1054.52 1871.12,1055.87 1873.25,1057.23 1875.39,1058.59 1877.52,1059.94 1879.65,1061.3 1881.78,1062.66 1883.91,1064.02 1886.04,1065.37 1888.17,1066.73 1890.3,1068.08 1892.43,1069.44 1894.57,1070.8 1896.7,1072.15 1898.83,1073.51 1900.96,1074.87 1903.09,1076.22 1905.22,1077.58 1907.35,1078.93 1909.48,1080.29 1911.61,1081.65 1913.75,1083 1915.88,1084.36 1918.01,1085.71 1920.14,1087.07 1922.27,1088.42 1924.4,1089.78 1926.53,1091.13 1928.66,1092.49 1930.79,1093.84 1932.93,1095.2 1935.06,1096.55 1937.19,1097.91 1939.32,1099.26 1941.45,1100.62 1943.58,1101.97 1945.71,1103.33 1947.84,1104.68 1949.97,1106.04 1952.11,1107.39 1954.24,1108.75 1956.37,1110.1 1958.5,1111.45 1960.63,1112.81 1962.76,1114.16 1964.89,1115.52 1967.02,1116.87 1969.15,1118.22 1971.29,1119.58 1973.42,1120.93 1975.55,1122.28 1977.68,1123.64 1979.81,1124.99 1981.94,1126.34 1984.07,1127.7 1986.2,1129.05 1988.33,1130.4 1990.47,1131.76 1992.6,1133.11 1994.73,1134.46 1996.86,1135.82 1998.99,1137.17 2001.12,1138.52 2003.25,1139.87 2005.38,1141.23 2007.51,1142.58 2009.65,1143.93 2011.78,1145.29 2013.91,1146.64 2016.04,1147.99 2018.17,1149.34 2020.3,1150.69 2022.43,1152.05 2024.56,1153.4 2026.69,1154.75 2028.83,1156.1 2030.96,1157.45 2033.09,1158.81 2035.22,1160.16 2037.35,1161.51 2039.48,1162.86 2041.61,1164.21 2043.74,1165.56 2045.87,1166.92 2048.01,1168.27 2050.14,1169.62 2052.27,1170.97 2054.4,1172.32 2056.53,1173.67 2058.66,1175.02 2060.79,1176.37 2062.92,1177.72 2065.05,1179.08 2067.19,1180.43 2069.32,1181.78 2071.45,1183.13 2073.58,1184.48 2075.71,1185.83 2077.84,1187.18 2079.97,1188.53 2082.1,1189.88 2084.23,1191.23 2086.37,1192.58 2088.5,1193.93 2090.63,1195.28 2092.76,1196.63 2094.89,1197.98 2097.02,1199.33 2099.15,1200.68 2101.28,1202.03 2103.42,1203.38 2105.55,1204.73 2107.68,1206.08 2109.81,1207.43 2111.94,1208.78 2114.07,1210.13 2116.2,1211.48 2118.33,1212.83 2120.46,1214.18 2122.6,1215.52 2124.73,1216.87 2126.86,1218.22 2128.99,1219.57 2131.12,1220.92 2133.25,1222.27 2135.38,1223.62 2137.51,1224.97 2139.64,1226.32 2141.78,1227.66 2143.91,1229.01 2146.04,1230.36 2148.17,1231.71 2150.3,1233.06 2152.43,1234.41 2154.56,1235.76 2156.69,1237.1 2158.82,1238.45 2160.96,1239.8 2163.09,1241.15 2165.22,1242.5 2167.35,1243.84 2169.48,1245.19 2171.61,1246.54 2173.74,1247.89 2175.87,1249.24 2178,1250.58 2180.14,1251.93 2182.27,1253.28 2184.4,1254.63 2186.53,1255.97 2188.66,1257.32 2190.79,1258.67 2192.92,1260.02 2195.05,1261.36 2197.18,1262.71 2199.32,1264.06 2201.45,1265.4 2203.58,1266.75 2205.71,1268.1 2207.84,1269.45 2209.97,1270.79 2212.1,1272.14 2214.23,1273.49 2216.36,1274.83 2218.5,1276.18 2220.63,1277.53 2222.76,1278.87 2224.89,1280.22 2227.02,1281.57 2229.15,1282.91 2231.28,1284.26 2233.41,1285.6 2235.54,1286.95 2237.68,1288.3 2239.81,1289.64 2241.94,1290.99 2244.07,1292.34 2246.2,1293.68 2248.33,1295.03 2250.46,1296.37 2252.59,1297.72 2254.72,1299.07 2256.86,1300.41 2258.99,1301.76 2261.12,1303.1 2263.25,1304.45 2265.38,1305.79 2267.51,1307.14 2269.64,1308.48 2271.77,1309.83 2273.9,1311.17 2276.04,1312.52 2278.17,1313.87 2280.3,1315.21 2282.43,1316.56 2284.56,1317.9 2286.69,1319.25 2288.82,1320.59 2290.95,1321.94 2293.08,1323.28 2295.22,1324.63 2297.35,1325.97 2299.48,1327.32 2301.61,1328.66 2303.74,1330 2305.87,1331.35 2308,1332.69 2310.13,1334.04 2312.26,1335.38 2314.4,1336.73 2316.53,1338.07 2318.66,1339.42 2320.79,1340.76 2322.92,1342.1 2325.05,1343.45 2327.18,1344.79 2329.31,1346.14 2331.44,1347.48 2333.58,1348.82 2335.71,1350.17 2337.84,1351.51 2339.97,1352.86 2342.1,1354.2 2344.23,1355.54 2346.36,1356.89 2348.49,1358.23 2350.62,1359.57 2352.76,1360.92 "/>
<polyline clip-path="url(#clip641)" style="stroke:#e26f46; stroke-linecap:round; stroke-linejoin:round; stroke-width:8; stroke-opacity:1; fill:none" points="434.749,152.36 647.861,307.792 860.973,443.37 1074.08,576.346 1287.2,708.509 1500.31,847.062 1713.42,976.593 1926.53,1115 2139.64,1255.98 2352.76,1384.24 "/>
<path clip-path="url(#clip640)" d="M1728.4 248.629 L2281.72 248.629 L2281.72 93.1086 L1728.4 93.1086  Z" fill="#ffffff" fill-rule="evenodd" fill-opacity="1"/>
<polyline clip-path="url(#clip640)" style="stroke:#000000; stroke-linecap:round; stroke-linejoin:round; stroke-width:4; stroke-opacity:1; fill:none" points="1728.4,248.629 2281.72,248.629 2281.72,93.1086 1728.4,93.1086 1728.4,248.629 "/>
<polyline clip-path="url(#clip640)" style="stroke:#009af9; stroke-linecap:round; stroke-linejoin:round; stroke-width:8; stroke-opacity:1; fill:none" points="1752.08,144.949 1894.15,144.949 "/>
<path clip-path="url(#clip640)" d="M1940.08 128.803 L1940.08 133.363 Q1937.42 132.09 1935.06 131.465 Q1932.69 130.84 1930.49 130.84 Q1926.68 130.84 1924.59 132.321 Q1922.53 133.803 1922.53 136.534 Q1922.53 138.826 1923.9 140.007 Q1925.29 141.164 1929.13 141.882 L1931.95 142.46 Q1937.18 143.456 1939.66 145.979 Q1942.16 148.479 1942.16 152.692 Q1942.16 157.715 1938.78 160.307 Q1935.43 162.9 1928.92 162.9 Q1926.47 162.9 1923.69 162.344 Q1920.93 161.789 1917.97 160.701 L1917.97 155.886 Q1920.82 157.483 1923.55 158.293 Q1926.28 159.104 1928.92 159.104 Q1932.93 159.104 1935.1 157.53 Q1937.28 155.956 1937.28 153.039 Q1937.28 150.493 1935.7 149.057 Q1934.15 147.622 1930.59 146.905 L1927.74 146.349 Q1922.51 145.307 1920.17 143.085 Q1917.83 140.863 1917.83 136.905 Q1917.83 132.321 1921.05 129.682 Q1924.29 127.044 1929.96 127.044 Q1932.39 127.044 1934.92 127.483 Q1937.44 127.923 1940.08 128.803 Z" fill="#000000" fill-rule="nonzero" fill-opacity="1" /><path clip-path="url(#clip640)" d="M1970.82 146.581 L1970.82 162.229 L1966.56 162.229 L1966.56 146.719 Q1966.56 143.039 1965.12 141.21 Q1963.69 139.382 1960.82 139.382 Q1957.37 139.382 1955.38 141.581 Q1953.39 143.78 1953.39 147.576 L1953.39 162.229 L1949.11 162.229 L1949.11 136.303 L1953.39 136.303 L1953.39 140.331 Q1954.92 137.993 1956.98 136.835 Q1959.06 135.678 1961.77 135.678 Q1966.24 135.678 1968.53 138.456 Q1970.82 141.21 1970.82 146.581 Z" fill="#000000" fill-rule="nonzero" fill-opacity="1" /><path clip-path="url(#clip640)" d="M1990.1 164.636 Q1988.3 169.266 1986.58 170.678 Q1984.87 172.09 1982 172.09 L1978.6 172.09 L1978.6 168.525 L1981.1 168.525 Q1982.86 168.525 1983.83 167.692 Q1984.8 166.858 1985.98 163.756 L1986.74 161.812 L1976.26 136.303 L1980.77 136.303 L1988.87 156.581 L1996.98 136.303 L2001.49 136.303 L1990.1 164.636 Z" fill="#000000" fill-rule="nonzero" fill-opacity="1" /><path clip-path="url(#clip640)" d="M2024.43 140.238 L2024.43 126.21 L2028.69 126.21 L2028.69 162.229 L2024.43 162.229 L2024.43 158.34 Q2023.09 160.655 2021.03 161.789 Q2018.99 162.9 2016.12 162.9 Q2011.42 162.9 2008.46 159.15 Q2005.52 155.4 2005.52 149.289 Q2005.52 143.178 2008.46 139.428 Q2011.42 135.678 2016.12 135.678 Q2018.99 135.678 2021.03 136.812 Q2023.09 137.923 2024.43 140.238 M2009.92 149.289 Q2009.92 153.988 2011.84 156.673 Q2013.78 159.335 2017.16 159.335 Q2020.54 159.335 2022.49 156.673 Q2024.43 153.988 2024.43 149.289 Q2024.43 144.59 2022.49 141.928 Q2020.54 139.243 2017.16 139.243 Q2013.78 139.243 2011.84 141.928 Q2009.92 144.59 2009.92 149.289 Z" fill="#000000" fill-rule="nonzero" fill-opacity="1" /><path clip-path="url(#clip640)" d="M2059.64 148.201 L2059.64 150.284 L2040.05 150.284 Q2040.33 154.682 2042.69 156.997 Q2045.08 159.289 2049.31 159.289 Q2051.77 159.289 2054.06 158.687 Q2056.37 158.085 2058.64 156.881 L2058.64 160.909 Q2056.35 161.881 2053.94 162.391 Q2051.54 162.9 2049.06 162.9 Q2042.86 162.9 2039.22 159.289 Q2035.61 155.678 2035.61 149.52 Q2035.61 143.155 2039.04 139.428 Q2042.49 135.678 2048.32 135.678 Q2053.55 135.678 2056.58 139.057 Q2059.64 142.414 2059.64 148.201 M2055.38 146.951 Q2055.33 143.456 2053.41 141.372 Q2051.51 139.289 2048.36 139.289 Q2044.8 139.289 2042.65 141.303 Q2040.52 143.317 2040.19 146.974 L2055.38 146.951 Z" fill="#000000" fill-rule="nonzero" fill-opacity="1" /><path clip-path="url(#clip640)" d="M2081.65 140.284 Q2080.93 139.868 2080.08 139.682 Q2079.24 139.474 2078.23 139.474 Q2074.61 139.474 2072.67 141.835 Q2070.75 144.173 2070.75 148.571 L2070.75 162.229 L2066.47 162.229 L2066.47 136.303 L2070.75 136.303 L2070.75 140.331 Q2072.09 137.969 2074.24 136.835 Q2076.4 135.678 2079.48 135.678 Q2079.92 135.678 2080.45 135.747 Q2080.98 135.794 2081.63 135.909 L2081.65 140.284 Z" fill="#000000" fill-rule="nonzero" fill-opacity="1" /><path clip-path="url(#clip640)" d="M2108.25 143.641 Q2106.14 145.516 2105.15 147.391 Q2104.17 149.243 2104.17 151.28 Q2104.17 154.659 2106.63 156.905 Q2109.08 159.15 2112.79 159.15 Q2114.98 159.15 2116.91 158.432 Q2118.83 157.692 2120.52 156.21 L2108.25 143.641 M2111.51 141.048 L2123.27 153.085 Q2124.64 151.025 2125.4 148.687 Q2126.17 146.326 2126.3 143.687 L2130.61 143.687 Q2130.33 146.743 2129.13 149.729 Q2127.92 152.715 2125.77 155.631 L2132.23 162.229 L2126.4 162.229 L2123.09 158.826 Q2120.68 160.886 2118.04 161.905 Q2115.4 162.9 2112.37 162.9 Q2106.79 162.9 2103.25 159.729 Q2099.71 156.534 2099.71 151.557 Q2099.71 148.594 2101.26 146.002 Q2102.81 143.386 2105.91 141.094 Q2104.8 139.636 2104.22 138.201 Q2103.64 136.743 2103.64 135.354 Q2103.64 131.604 2106.21 129.335 Q2108.78 127.044 2113.04 127.044 Q2114.96 127.044 2116.86 127.46 Q2118.78 127.877 2120.75 128.71 L2120.75 132.923 Q2118.73 131.835 2116.91 131.28 Q2115.08 130.701 2113.5 130.701 Q2111.07 130.701 2109.54 131.997 Q2108.04 133.27 2108.04 135.307 Q2108.04 136.488 2108.71 137.692 Q2109.41 138.872 2111.51 141.048 Z" fill="#000000" fill-rule="nonzero" fill-opacity="1" /><path clip-path="url(#clip640)" d="M2153.41 127.669 L2158.09 127.669 L2158.09 158.293 L2174.91 158.293 L2174.91 162.229 L2153.41 162.229 L2153.41 127.669 Z" fill="#000000" fill-rule="nonzero" fill-opacity="1" /><path clip-path="url(#clip640)" d="M2188.85 139.289 Q2185.42 139.289 2183.43 141.974 Q2181.44 144.636 2181.44 149.289 Q2181.44 153.942 2183.41 156.627 Q2185.4 159.289 2188.85 159.289 Q2192.25 159.289 2194.24 156.604 Q2196.23 153.918 2196.23 149.289 Q2196.23 144.682 2194.24 141.997 Q2192.25 139.289 2188.85 139.289 M2188.85 135.678 Q2194.41 135.678 2197.58 139.289 Q2200.75 142.9 2200.75 149.289 Q2200.75 155.655 2197.58 159.289 Q2194.41 162.9 2188.85 162.9 Q2183.27 162.9 2180.1 159.289 Q2176.95 155.655 2176.95 149.289 Q2176.95 142.9 2180.1 139.289 Q2183.27 135.678 2188.85 135.678 Z" fill="#000000" fill-rule="nonzero" fill-opacity="1" /><path clip-path="url(#clip640)" d="M2204.75 136.303 L2209.27 136.303 L2217.37 158.062 L2225.47 136.303 L2229.98 136.303 L2220.26 162.229 L2214.47 162.229 L2204.75 136.303 Z" fill="#000000" fill-rule="nonzero" fill-opacity="1" /><path clip-path="url(#clip640)" d="M2258.04 148.201 L2258.04 150.284 L2238.46 150.284 Q2238.73 154.682 2241.1 156.997 Q2243.48 159.289 2247.72 159.289 Q2250.17 159.289 2252.46 158.687 Q2254.78 158.085 2257.04 156.881 L2257.04 160.909 Q2254.75 161.881 2252.35 162.391 Q2249.94 162.9 2247.46 162.9 Q2241.26 162.9 2237.62 159.289 Q2234.01 155.678 2234.01 149.52 Q2234.01 143.155 2237.44 139.428 Q2240.89 135.678 2246.72 135.678 Q2251.95 135.678 2254.98 139.057 Q2258.04 142.414 2258.04 148.201 M2253.78 146.951 Q2253.73 143.456 2251.81 141.372 Q2249.91 139.289 2246.77 139.289 Q2243.2 139.289 2241.05 141.303 Q2238.92 143.317 2238.6 146.974 L2253.78 146.951 Z" fill="#000000" fill-rule="nonzero" fill-opacity="1" /><polyline clip-path="url(#clip640)" style="stroke:#e26f46; stroke-linecap:round; stroke-linejoin:round; stroke-width:8; stroke-opacity:1; fill:none" points="1752.08,196.789 1894.15,196.789 "/>
<path clip-path="url(#clip640)" d="M1917.83 179.509 L1937.69 179.509 L1937.69 183.444 L1922.51 183.444 L1922.51 193.629 L1936.21 193.629 L1936.21 197.564 L1922.51 197.564 L1922.51 214.069 L1917.83 214.069 L1917.83 179.509 Z" fill="#000000" fill-rule="nonzero" fill-opacity="1" /><path clip-path="url(#clip640)" d="M1945.1 179.509 L1966.95 179.509 L1966.95 183.444 L1949.78 183.444 L1949.78 193.675 L1966.24 193.675 L1966.24 197.61 L1949.78 197.61 L1949.78 210.133 L1967.37 210.133 L1967.37 214.069 L1945.1 214.069 L1945.1 179.509 Z" fill="#000000" fill-rule="nonzero" fill-opacity="1" /><path clip-path="url(#clip640)" d="M1975.05 179.509 L1982.02 179.509 L1990.84 203.027 L1999.71 179.509 L2006.68 179.509 L2006.68 214.069 L2002.11 214.069 L2002.11 183.722 L1993.2 207.425 L1988.5 207.425 L1979.59 183.722 L1979.59 214.069 L1975.05 214.069 L1975.05 179.509 Z" fill="#000000" fill-rule="nonzero" fill-opacity="1" /><path clip-path="url(#clip640)" d="M2020.4 210.133 L2036.72 210.133 L2036.72 214.069 L2014.78 214.069 L2014.78 210.133 Q2017.44 207.379 2022.02 202.749 Q2026.63 198.096 2027.81 196.754 Q2030.05 194.231 2030.93 192.495 Q2031.84 190.735 2031.84 189.046 Q2031.84 186.291 2029.89 184.555 Q2027.97 182.819 2024.87 182.819 Q2022.67 182.819 2020.22 183.583 Q2017.79 184.347 2015.01 185.897 L2015.01 181.175 Q2017.83 180.041 2020.29 179.462 Q2022.74 178.884 2024.78 178.884 Q2030.15 178.884 2033.34 181.569 Q2036.54 184.254 2036.54 188.745 Q2036.54 190.874 2035.73 192.796 Q2034.94 194.694 2032.83 197.286 Q2032.25 197.958 2029.15 201.175 Q2026.05 204.37 2020.4 210.133 Z" fill="#000000" fill-rule="nonzero" fill-opacity="1" /><path clip-path="url(#clip640)" d="M2050.8 183.351 L2050.8 210.226 L2056.44 210.226 Q2063.6 210.226 2066.91 206.985 Q2070.24 203.745 2070.24 196.754 Q2070.24 189.809 2066.91 186.592 Q2063.6 183.351 2056.44 183.351 L2050.8 183.351 M2046.12 179.509 L2055.73 179.509 Q2065.77 179.509 2070.47 183.698 Q2075.17 187.865 2075.17 196.754 Q2075.17 205.689 2070.45 209.879 Q2065.73 214.069 2055.73 214.069 L2046.12 214.069 L2046.12 179.509 Z" fill="#000000" fill-rule="nonzero" fill-opacity="1" /></svg>
