<?xml version="1.0" encoding="utf-8"?>
<svg xmlns="http://www.w3.org/2000/svg" xmlns:xlink="http://www.w3.org/1999/xlink" width="600" height="400" viewBox="0 0 2400 1600">
<defs>
  <clipPath id="clip800">
    <rect x="0" y="0" width="2400" height="1600"/>
  </clipPath>
</defs>
<path clip-path="url(#clip800)" d="M0 1600 L2400 1600 L2400 0 L0 0  Z" fill="#ffffff" fill-rule="evenodd" fill-opacity="1"/>
<defs>
  <clipPath id="clip801">
    <rect x="480" y="0" width="1681" height="1600"/>
  </clipPath>
</defs>
<path clip-path="url(#clip800)" d="M255.977 1423.18 L2352.76 1423.18 L2352.76 47.2441 L255.977 47.2441  Z" fill="#ffffff" fill-rule="evenodd" fill-opacity="1"/>
<defs>
  <clipPath id="clip802">
    <rect x="255" y="47" width="2098" height="1377"/>
  </clipPath>
</defs>
<polyline clip-path="url(#clip802)" style="stroke:#000000; stroke-linecap:round; stroke-linejoin:round; stroke-width:2; stroke-opacity:0.1; fill:none" points="315.32,1423.18 315.32,47.2441 "/>
<polyline clip-path="url(#clip802)" style="stroke:#000000; stroke-linecap:round; stroke-linejoin:round; stroke-width:2; stroke-opacity:0.1; fill:none" points="974.684,1423.18 974.684,47.2441 "/>
<polyline clip-path="url(#clip802)" style="stroke:#000000; stroke-linecap:round; stroke-linejoin:round; stroke-width:2; stroke-opacity:0.1; fill:none" points="1634.05,1423.18 1634.05,47.2441 "/>
<polyline clip-path="url(#clip802)" style="stroke:#000000; stroke-linecap:round; stroke-linejoin:round; stroke-width:2; stroke-opacity:0.1; fill:none" points="2293.41,1423.18 2293.41,47.2441 "/>
<polyline clip-path="url(#clip802)" style="stroke:#000000; stroke-linecap:round; stroke-linejoin:round; stroke-width:2; stroke-opacity:0.1; fill:none" points="255.977,1293.61 2352.76,1293.61 "/>
<polyline clip-path="url(#clip802)" style="stroke:#000000; stroke-linecap:round; stroke-linejoin:round; stroke-width:2; stroke-opacity:0.1; fill:none" points="255.977,1011.54 2352.76,1011.54 "/>
<polyline clip-path="url(#clip802)" style="stroke:#000000; stroke-linecap:round; stroke-linejoin:round; stroke-width:2; stroke-opacity:0.1; fill:none" points="255.977,729.47 2352.76,729.47 "/>
<polyline clip-path="url(#clip802)" style="stroke:#000000; stroke-linecap:round; stroke-linejoin:round; stroke-width:2; stroke-opacity:0.1; fill:none" points="255.977,447.398 2352.76,447.398 "/>
<polyline clip-path="url(#clip802)" style="stroke:#000000; stroke-linecap:round; stroke-linejoin:round; stroke-width:2; stroke-opacity:0.1; fill:none" points="255.977,165.326 2352.76,165.326 "/>
<polyline clip-path="url(#clip800)" style="stroke:#000000; stroke-linecap:round; stroke-linejoin:round; stroke-width:4; stroke-opacity:1; fill:none" points="255.977,1423.18 2352.76,1423.18 "/>
<polyline clip-path="url(#clip800)" style="stroke:#000000; stroke-linecap:round; stroke-linejoin:round; stroke-width:4; stroke-opacity:1; fill:none" points="315.32,1423.18 315.32,1404.28 "/>
<polyline clip-path="url(#clip800)" style="stroke:#000000; stroke-linecap:round; stroke-linejoin:round; stroke-width:4; stroke-opacity:1; fill:none" points="974.684,1423.18 974.684,1404.28 "/>
<polyline clip-path="url(#clip800)" style="stroke:#000000; stroke-linecap:round; stroke-linejoin:round; stroke-width:4; stroke-opacity:1; fill:none" points="1634.05,1423.18 1634.05,1404.28 "/>
<polyline clip-path="url(#clip800)" style="stroke:#000000; stroke-linecap:round; stroke-linejoin:round; stroke-width:4; stroke-opacity:1; fill:none" points="2293.41,1423.18 2293.41,1404.28 "/>
<path clip-path="url(#clip800)" d="M315.32 1454.1 Q311.709 1454.1 309.88 1457.66 Q308.075 1461.2 308.075 1468.33 Q308.075 1475.44 309.88 1479.01 Q311.709 1482.55 315.32 1482.55 Q318.954 1482.55 320.76 1479.01 Q322.588 1475.44 322.588 1468.33 Q322.588 1461.2 320.76 1457.66 Q318.954 1454.1 315.32 1454.1 M315.32 1450.39 Q321.13 1450.39 324.186 1455 Q327.264 1459.58 327.264 1468.33 Q327.264 1477.06 324.186 1481.67 Q321.13 1486.25 315.32 1486.25 Q309.51 1486.25 306.431 1481.67 Q303.376 1477.06 303.376 1468.33 Q303.376 1459.58 306.431 1455 Q309.51 1450.39 315.32 1450.39 Z" fill="#000000" fill-rule="nonzero" fill-opacity="1" /><path clip-path="url(#clip800)" d="M964.962 1451.02 L983.319 1451.02 L983.319 1454.96 L969.245 1454.96 L969.245 1463.43 Q970.263 1463.08 971.282 1462.92 Q972.3 1462.73 973.319 1462.73 Q979.106 1462.73 982.485 1465.9 Q985.865 1469.08 985.865 1474.49 Q985.865 1480.07 982.393 1483.17 Q978.92 1486.25 972.601 1486.25 Q970.425 1486.25 968.157 1485.88 Q965.911 1485.51 963.504 1484.77 L963.504 1480.07 Q965.587 1481.2 967.809 1481.76 Q970.032 1482.32 972.508 1482.32 Q976.513 1482.32 978.851 1480.21 Q981.189 1478.1 981.189 1474.49 Q981.189 1470.88 978.851 1468.77 Q976.513 1466.67 972.508 1466.67 Q970.633 1466.67 968.758 1467.08 Q966.907 1467.5 964.962 1468.38 L964.962 1451.02 Z" fill="#000000" fill-rule="nonzero" fill-opacity="1" /><path clip-path="url(#clip800)" d="M1608.74 1481.64 L1616.38 1481.64 L1616.38 1455.28 L1608.07 1456.95 L1608.07 1452.69 L1616.33 1451.02 L1621 1451.02 L1621 1481.64 L1628.64 1481.64 L1628.64 1485.58 L1608.74 1485.58 L1608.74 1481.64 Z" fill="#000000" fill-rule="nonzero" fill-opacity="1" /><path clip-path="url(#clip800)" d="M1648.09 1454.1 Q1644.48 1454.1 1642.65 1457.66 Q1640.84 1461.2 1640.84 1468.33 Q1640.84 1475.44 1642.65 1479.01 Q1644.48 1482.55 1648.09 1482.55 Q1651.72 1482.55 1653.53 1479.01 Q1655.36 1475.44 1655.36 1468.33 Q1655.36 1461.2 1653.53 1457.66 Q1651.72 1454.1 1648.09 1454.1 M1648.09 1450.39 Q1653.9 1450.39 1656.95 1455 Q1660.03 1459.58 1660.03 1468.33 Q1660.03 1477.06 1656.95 1481.67 Q1653.9 1486.25 1648.09 1486.25 Q1642.28 1486.25 1639.2 1481.67 Q1636.14 1477.06 1636.14 1468.33 Q1636.14 1459.58 1639.2 1455 Q1642.28 1450.39 1648.09 1450.39 Z" fill="#000000" fill-rule="nonzero" fill-opacity="1" /><path clip-path="url(#clip800)" d="M2268.6 1481.64 L2276.24 1481.64 L2276.24 1455.28 L2267.93 1456.95 L2267.93 1452.69 L2276.19 1451.02 L2280.87 1451.02 L2280.87 1481.64 L2288.51 1481.64 L2288.51 1485.58 L2268.6 1485.58 L2268.6 1481.64 Z" fill="#000000" fill-rule="nonzero" fill-opacity="1" /><path clip-path="url(#clip800)" d="M2298 1451.02 L2316.35 1451.02 L2316.35 1454.96 L2302.28 1454.96 L2302.28 1463.43 Q2303.3 1463.08 2304.32 1462.92 Q2305.33 1462.73 2306.35 1462.73 Q2312.14 1462.73 2315.52 1465.9 Q2318.9 1469.08 2318.9 1474.49 Q2318.9 1480.07 2315.43 1483.17 Q2311.95 1486.25 2305.64 1486.25 Q2303.46 1486.25 2301.19 1485.88 Q2298.95 1485.51 2296.54 1484.77 L2296.54 1480.07 Q2298.62 1481.2 2300.84 1481.76 Q2303.07 1482.32 2305.54 1482.32 Q2309.55 1482.32 2311.89 1480.21 Q2314.22 1478.1 2314.22 1474.49 Q2314.22 1470.88 2311.89 1468.77 Q2309.55 1466.67 2305.54 1466.67 Q2303.67 1466.67 2301.79 1467.08 Q2299.94 1467.5 2298 1468.38 L2298 1451.02 Z" fill="#000000" fill-rule="nonzero" fill-opacity="1" /><path clip-path="url(#clip800)" d="M1229.33 1537.87 Q1228.34 1537.3 1227.17 1537.04 Q1226.02 1536.76 1224.62 1536.76 Q1219.65 1536.76 1216.98 1540 Q1214.34 1543.22 1214.34 1549.27 L1214.34 1568.04 L1208.45 1568.04 L1208.45 1532.4 L1214.34 1532.4 L1214.34 1537.93 Q1216.19 1534.69 1219.15 1533.13 Q1222.11 1531.54 1226.34 1531.54 Q1226.94 1531.54 1227.68 1531.63 Q1228.41 1531.7 1229.3 1531.85 L1229.33 1537.87 Z" fill="#000000" fill-rule="nonzero" fill-opacity="1" /><path clip-path="url(#clip800)" d="M1270.26 1518.58 Q1266 1525.9 1263.93 1533.06 Q1261.86 1540.23 1261.86 1547.58 Q1261.86 1554.93 1263.93 1562.16 Q1266.03 1569.35 1270.26 1576.64 L1265.17 1576.64 Q1260.4 1569.16 1258.01 1561.93 Q1255.65 1554.71 1255.65 1547.58 Q1255.65 1540.48 1258.01 1533.29 Q1260.36 1526.09 1265.17 1518.58 L1270.26 1518.58 Z" fill="#000000" fill-rule="nonzero" fill-opacity="1" /><path clip-path="url(#clip800)" d="M1281.02 1581.6 L1281.02 1532.4 L1286.88 1532.4 L1286.88 1554.55 Q1286.88 1559.16 1289.07 1561.52 Q1291.27 1563.87 1295.57 1563.87 Q1300.28 1563.87 1302.63 1561.2 Q1305.02 1558.53 1305.02 1553.18 L1305.02 1532.4 L1310.88 1532.4 L1310.88 1559.83 Q1310.88 1561.74 1311.42 1562.66 Q1311.99 1563.56 1313.17 1563.56 Q1313.45 1563.56 1313.96 1563.4 Q1314.47 1563.21 1315.36 1562.82 L1315.36 1567.53 Q1314.06 1568.27 1312.88 1568.62 Q1311.73 1568.97 1310.62 1568.97 Q1308.42 1568.97 1307.12 1567.73 Q1305.81 1566.48 1305.34 1563.94 Q1303.75 1566.45 1301.42 1567.73 Q1299.13 1568.97 1296.01 1568.97 Q1292.77 1568.97 1290.47 1567.73 Q1288.21 1566.48 1286.88 1564 L1286.88 1581.6 L1281.02 1581.6 Z" fill="#000000" fill-rule="nonzero" fill-opacity="1" /><path clip-path="url(#clip800)" d="M1350.85 1539.24 Q1353.05 1535.29 1356.1 1533.41 Q1359.16 1531.54 1363.3 1531.54 Q1368.87 1531.54 1371.89 1535.45 Q1374.91 1539.33 1374.91 1546.53 L1374.91 1568.04 L1369.03 1568.04 L1369.03 1546.72 Q1369.03 1541.59 1367.21 1539.11 Q1365.4 1536.63 1361.67 1536.63 Q1357.12 1536.63 1354.48 1539.65 Q1351.84 1542.68 1351.84 1547.9 L1351.84 1568.04 L1345.95 1568.04 L1345.95 1546.72 Q1345.95 1541.56 1344.14 1539.11 Q1342.32 1536.63 1338.53 1536.63 Q1334.05 1536.63 1331.4 1539.68 Q1328.76 1542.71 1328.76 1547.9 L1328.76 1568.04 L1322.87 1568.04 L1322.87 1532.4 L1328.76 1532.4 L1328.76 1537.93 Q1330.77 1534.66 1333.57 1533.1 Q1336.37 1531.54 1340.22 1531.54 Q1344.1 1531.54 1346.81 1533.51 Q1349.55 1535.48 1350.85 1539.24 Z" fill="#000000" fill-rule="nonzero" fill-opacity="1" /><path clip-path="url(#clip800)" d="M1385.67 1518.58 L1390.77 1518.58 Q1395.54 1526.09 1397.89 1533.29 Q1400.28 1540.48 1400.28 1547.58 Q1400.28 1554.71 1397.89 1561.93 Q1395.54 1569.16 1390.77 1576.64 L1385.67 1576.64 Q1389.91 1569.35 1391.97 1562.16 Q1394.08 1554.93 1394.08 1547.58 Q1394.08 1540.23 1391.97 1533.06 Q1389.91 1525.9 1385.67 1518.58 Z" fill="#000000" fill-rule="nonzero" fill-opacity="1" /><polyline clip-path="url(#clip800)" style="stroke:#000000; stroke-linecap:round; stroke-linejoin:round; stroke-width:4; stroke-opacity:1; fill:none" points="255.977,1423.18 255.977,47.2441 "/>
<polyline clip-path="url(#clip800)" style="stroke:#000000; stroke-linecap:round; stroke-linejoin:round; stroke-width:4; stroke-opacity:1; fill:none" points="255.977,1293.61 274.875,1293.61 "/>
<polyline clip-path="url(#clip800)" style="stroke:#000000; stroke-linecap:round; stroke-linejoin:round; stroke-width:4; stroke-opacity:1; fill:none" points="255.977,1011.54 274.875,1011.54 "/>
<polyline clip-path="url(#clip800)" style="stroke:#000000; stroke-linecap:round; stroke-linejoin:round; stroke-width:4; stroke-opacity:1; fill:none" points="255.977,729.47 274.875,729.47 "/>
<polyline clip-path="url(#clip800)" style="stroke:#000000; stroke-linecap:round; stroke-linejoin:round; stroke-width:4; stroke-opacity:1; fill:none" points="255.977,447.398 274.875,447.398 "/>
<polyline clip-path="url(#clip800)" style="stroke:#000000; stroke-linecap:round; stroke-linejoin:round; stroke-width:4; stroke-opacity:1; fill:none" points="255.977,165.326 274.875,165.326 "/>
<path clip-path="url(#clip800)" d="M114.26 1294.07 L143.936 1294.07 L143.936 1298 L114.26 1298 L114.26 1294.07 Z" fill="#000000" fill-rule="nonzero" fill-opacity="1" /><path clip-path="url(#clip800)" d="M164.028 1279.41 Q160.417 1279.41 158.589 1282.98 Q156.783 1286.52 156.783 1293.65 Q156.783 1300.75 158.589 1304.32 Q160.417 1307.86 164.028 1307.86 Q167.663 1307.86 169.468 1304.32 Q171.297 1300.75 171.297 1293.65 Q171.297 1286.52 169.468 1282.98 Q167.663 1279.41 164.028 1279.41 M164.028 1275.71 Q169.839 1275.71 172.894 1280.32 Q175.973 1284.9 175.973 1293.65 Q175.973 1302.38 172.894 1306.98 Q169.839 1311.57 164.028 1311.57 Q158.218 1311.57 155.14 1306.98 Q152.084 1302.38 152.084 1293.65 Q152.084 1284.9 155.14 1280.32 Q158.218 1275.71 164.028 1275.71 Z" fill="#000000" fill-rule="nonzero" fill-opacity="1" /><path clip-path="url(#clip800)" d="M184.19 1305.01 L189.075 1305.01 L189.075 1310.89 L184.19 1310.89 L184.19 1305.01 Z" fill="#000000" fill-rule="nonzero" fill-opacity="1" /><path clip-path="url(#clip800)" d="M200.07 1306.96 L207.709 1306.96 L207.709 1280.59 L199.399 1282.26 L199.399 1278 L207.662 1276.33 L212.338 1276.33 L212.338 1306.96 L219.977 1306.96 L219.977 1310.89 L200.07 1310.89 L200.07 1306.96 Z" fill="#000000" fill-rule="nonzero" fill-opacity="1" /><path clip-path="url(#clip800)" d="M162.802 997.341 Q159.19 997.341 157.362 1000.91 Q155.556 1004.45 155.556 1011.58 Q155.556 1018.68 157.362 1022.25 Q159.19 1025.79 162.802 1025.79 Q166.436 1025.79 168.241 1022.25 Q170.07 1018.68 170.07 1011.58 Q170.07 1004.45 168.241 1000.91 Q166.436 997.341 162.802 997.341 M162.802 993.637 Q168.612 993.637 171.667 998.243 Q174.746 1002.83 174.746 1011.58 Q174.746 1020.3 171.667 1024.91 Q168.612 1029.49 162.802 1029.49 Q156.991 1029.49 153.913 1024.91 Q150.857 1020.3 150.857 1011.58 Q150.857 1002.83 153.913 998.243 Q156.991 993.637 162.802 993.637 Z" fill="#000000" fill-rule="nonzero" fill-opacity="1" /><path clip-path="url(#clip800)" d="M182.963 1022.94 L187.848 1022.94 L187.848 1028.82 L182.963 1028.82 L182.963 1022.94 Z" fill="#000000" fill-rule="nonzero" fill-opacity="1" /><path clip-path="url(#clip800)" d="M208.033 997.341 Q204.422 997.341 202.593 1000.91 Q200.787 1004.45 200.787 1011.58 Q200.787 1018.68 202.593 1022.25 Q204.422 1025.79 208.033 1025.79 Q211.667 1025.79 213.473 1022.25 Q215.301 1018.68 215.301 1011.58 Q215.301 1004.45 213.473 1000.91 Q211.667 997.341 208.033 997.341 M208.033 993.637 Q213.843 993.637 216.898 998.243 Q219.977 1002.83 219.977 1011.58 Q219.977 1020.3 216.898 1024.91 Q213.843 1029.49 208.033 1029.49 Q202.223 1029.49 199.144 1024.91 Q196.088 1020.3 196.088 1011.58 Q196.088 1002.83 199.144 998.243 Q202.223 993.637 208.033 993.637 Z" fill="#000000" fill-rule="nonzero" fill-opacity="1" /><path clip-path="url(#clip800)" d="M164.028 715.269 Q160.417 715.269 158.589 718.833 Q156.783 722.375 156.783 729.505 Q156.783 736.611 158.589 740.176 Q160.417 743.718 164.028 743.718 Q167.663 743.718 169.468 740.176 Q171.297 736.611 171.297 729.505 Q171.297 722.375 169.468 718.833 Q167.663 715.269 164.028 715.269 M164.028 711.565 Q169.839 711.565 172.894 716.171 Q175.973 720.755 175.973 729.505 Q175.973 738.231 172.894 742.838 Q169.839 747.421 164.028 747.421 Q158.218 747.421 155.14 742.838 Q152.084 738.231 152.084 729.505 Q152.084 720.755 155.14 716.171 Q158.218 711.565 164.028 711.565 Z" fill="#000000" fill-rule="nonzero" fill-opacity="1" /><path clip-path="url(#clip800)" d="M184.19 740.87 L189.075 740.87 L189.075 746.75 L184.19 746.75 L184.19 740.87 Z" fill="#000000" fill-rule="nonzero" fill-opacity="1" /><path clip-path="url(#clip800)" d="M200.07 742.815 L207.709 742.815 L207.709 716.449 L199.399 718.116 L199.399 713.857 L207.662 712.19 L212.338 712.19 L212.338 742.815 L219.977 742.815 L219.977 746.75 L200.07 746.75 L200.07 742.815 Z" fill="#000000" fill-rule="nonzero" fill-opacity="1" /><path clip-path="url(#clip800)" d="M164.399 433.197 Q160.788 433.197 158.959 436.761 Q157.153 440.303 157.153 447.433 Q157.153 454.539 158.959 458.104 Q160.788 461.646 164.399 461.646 Q168.033 461.646 169.839 458.104 Q171.667 454.539 171.667 447.433 Q171.667 440.303 169.839 436.761 Q168.033 433.197 164.399 433.197 M164.399 429.493 Q170.209 429.493 173.264 434.099 Q176.343 438.683 176.343 447.433 Q176.343 456.16 173.264 460.766 Q170.209 465.349 164.399 465.349 Q158.589 465.349 155.51 460.766 Q152.454 456.16 152.454 447.433 Q152.454 438.683 155.51 434.099 Q158.589 429.493 164.399 429.493 Z" fill="#000000" fill-rule="nonzero" fill-opacity="1" /><path clip-path="url(#clip800)" d="M184.561 458.798 L189.445 458.798 L189.445 464.678 L184.561 464.678 L184.561 458.798 Z" fill="#000000" fill-rule="nonzero" fill-opacity="1" /><path clip-path="url(#clip800)" d="M203.658 460.743 L219.977 460.743 L219.977 464.678 L198.033 464.678 L198.033 460.743 Q200.695 457.988 205.278 453.359 Q209.885 448.706 211.065 447.363 Q213.311 444.84 214.19 443.104 Q215.093 441.345 215.093 439.655 Q215.093 436.9 213.149 435.164 Q211.227 433.428 208.125 433.428 Q205.926 433.428 203.473 434.192 Q201.042 434.956 198.264 436.507 L198.264 431.785 Q201.088 430.65 203.542 430.072 Q205.996 429.493 208.033 429.493 Q213.403 429.493 216.598 432.178 Q219.792 434.863 219.792 439.354 Q219.792 441.484 218.982 443.405 Q218.195 445.303 216.088 447.896 Q215.51 448.567 212.408 451.785 Q209.306 454.979 203.658 460.743 Z" fill="#000000" fill-rule="nonzero" fill-opacity="1" /><path clip-path="url(#clip800)" d="M163.45 151.125 Q159.839 151.125 158.01 154.69 Q156.204 158.231 156.204 165.361 Q156.204 172.467 158.01 176.032 Q159.839 179.574 163.45 179.574 Q167.084 179.574 168.889 176.032 Q170.718 172.467 170.718 165.361 Q170.718 158.231 168.889 154.69 Q167.084 151.125 163.45 151.125 M163.45 147.421 Q169.26 147.421 172.315 152.028 Q175.394 156.611 175.394 165.361 Q175.394 174.088 172.315 178.694 Q169.26 183.277 163.45 183.277 Q157.64 183.277 154.561 178.694 Q151.505 174.088 151.505 165.361 Q151.505 156.611 154.561 152.028 Q157.64 147.421 163.45 147.421 Z" fill="#000000" fill-rule="nonzero" fill-opacity="1" /><path clip-path="url(#clip800)" d="M183.612 176.726 L188.496 176.726 L188.496 182.606 L183.612 182.606 L183.612 176.726 Z" fill="#000000" fill-rule="nonzero" fill-opacity="1" /><path clip-path="url(#clip800)" d="M212.848 163.972 Q216.204 164.689 218.079 166.958 Q219.977 169.226 219.977 172.56 Q219.977 177.676 216.459 180.476 Q212.94 183.277 206.459 183.277 Q204.283 183.277 201.968 182.838 Q199.676 182.421 197.223 181.564 L197.223 177.051 Q199.167 178.185 201.482 178.763 Q203.797 179.342 206.32 179.342 Q210.718 179.342 213.01 177.606 Q215.324 175.87 215.324 172.56 Q215.324 169.504 213.172 167.791 Q211.042 166.055 207.223 166.055 L203.195 166.055 L203.195 162.213 L207.408 162.213 Q210.857 162.213 212.686 160.847 Q214.514 159.458 214.514 156.865 Q214.514 154.203 212.616 152.791 Q210.741 151.356 207.223 151.356 Q205.301 151.356 203.102 151.773 Q200.903 152.19 198.264 153.069 L198.264 148.903 Q200.926 148.162 203.241 147.791 Q205.579 147.421 207.639 147.421 Q212.963 147.421 216.065 149.852 Q219.167 152.259 219.167 156.379 Q219.167 159.25 217.523 161.24 Q215.88 163.208 212.848 163.972 Z" fill="#000000" fill-rule="nonzero" fill-opacity="1" /><path clip-path="url(#clip800)" d="M33.8307 816.359 Q33.2578 817.345 33.0032 818.523 Q32.7167 819.669 32.7167 821.069 Q32.7167 826.035 35.9632 828.708 Q39.1779 831.35 45.2253 831.35 L64.0042 831.35 L64.0042 837.238 L28.3562 837.238 L28.3562 831.35 L33.8944 831.35 Q30.6479 829.504 29.0883 826.544 Q27.4968 823.584 27.4968 819.351 Q27.4968 818.746 27.5923 818.014 Q27.656 817.282 27.8151 816.391 L33.8307 816.359 Z" fill="#000000" fill-rule="nonzero" fill-opacity="1" /><path clip-path="url(#clip800)" d="M44.7161 781.156 L47.5806 781.156 L47.5806 808.083 Q53.6281 807.701 56.8109 804.455 Q59.9619 801.177 59.9619 795.352 Q59.9619 791.978 59.1344 788.827 Q58.3069 785.644 56.6518 782.525 L62.1899 782.525 Q63.5267 785.676 64.227 788.986 Q64.9272 792.296 64.9272 795.702 Q64.9272 804.232 59.9619 809.229 Q54.9967 814.194 46.5303 814.194 Q37.7774 814.194 32.6531 809.484 Q27.4968 804.741 27.4968 796.721 Q27.4968 789.527 32.1438 785.358 Q36.7589 781.156 44.7161 781.156 M42.9973 787.013 Q38.1912 787.077 35.3266 789.718 Q32.4621 792.328 32.4621 796.657 Q32.4621 801.559 35.2312 804.519 Q38.0002 807.447 43.0292 807.892 L42.9973 787.013 Z" fill="#000000" fill-rule="nonzero" fill-opacity="1" /><path clip-path="url(#clip800)" d="M46.0847 755.344 Q46.0847 762.441 47.7079 765.179 Q49.3312 767.916 53.2461 767.916 Q56.3653 767.916 58.2114 765.879 Q60.0256 763.81 60.0256 760.277 Q60.0256 755.407 56.5881 752.479 Q53.1188 749.519 47.3897 749.519 L46.0847 749.519 L46.0847 755.344 M43.6657 743.662 L64.0042 743.662 L64.0042 749.519 L58.5933 749.519 Q61.8398 751.524 63.3994 754.516 Q64.9272 757.508 64.9272 761.837 Q64.9272 767.311 61.8716 770.558 Q58.7843 773.772 53.6281 773.772 Q47.6125 773.772 44.5569 769.762 Q41.5014 765.72 41.5014 757.731 L41.5014 749.519 L40.9285 749.519 Q36.8862 749.519 34.6901 752.192 Q32.4621 754.834 32.4621 759.64 Q32.4621 762.696 33.1941 765.592 Q33.9262 768.489 35.3903 771.162 L29.9795 771.162 Q28.7381 767.948 28.1334 764.924 Q27.4968 761.9 27.4968 759.036 Q27.4968 751.301 31.5072 747.482 Q35.5176 743.662 43.6657 743.662 Z" fill="#000000" fill-rule="nonzero" fill-opacity="1" /><path clip-path="url(#clip800)" d="M14.479 731.599 L14.479 725.743 L64.0042 725.743 L64.0042 731.599 L14.479 731.599 Z" fill="#000000" fill-rule="nonzero" fill-opacity="1" /><path clip-path="url(#clip800)" d="M14.5426 699.421 Q21.8632 703.686 29.0246 705.755 Q36.186 707.824 43.5384 707.824 Q50.8908 707.824 58.1159 705.755 Q65.3091 703.654 72.5979 699.421 L72.5979 704.513 Q65.1182 709.288 57.8931 711.675 Q50.668 714.03 43.5384 714.03 Q36.4406 714.03 29.2474 711.675 Q22.0542 709.319 14.5426 704.513 L14.5426 699.421 Z" fill="#000000" fill-rule="nonzero" fill-opacity="1" /><path clip-path="url(#clip800)" d="M16.4842 687.803 L16.4842 657.757 L21.895 657.757 L21.895 681.374 L35.9632 681.374 L35.9632 658.744 L41.3741 658.744 L41.3741 681.374 L58.5933 681.374 L58.5933 657.184 L64.0042 657.184 L64.0042 687.803 L16.4842 687.803 Z" fill="#000000" fill-rule="nonzero" fill-opacity="1" /><path clip-path="url(#clip800)" d="M14.5426 647.795 L14.5426 642.702 Q22.0542 637.928 29.2474 635.573 Q36.4406 633.186 43.5384 633.186 Q50.668 633.186 57.8931 635.573 Q65.1182 637.928 72.5979 642.702 L72.5979 647.795 Q65.3091 643.562 58.1159 641.493 Q50.8908 639.392 43.5384 639.392 Q36.186 639.392 29.0246 641.493 Q21.8632 643.562 14.5426 647.795 Z" fill="#000000" fill-rule="nonzero" fill-opacity="1" /><polyline clip-path="url(#clip802)" style="stroke:#009af9; stroke-linecap:round; stroke-linejoin:round; stroke-width:4; stroke-opacity:1; fill:none" points="315.32,503.639 316.639,503.642 317.957,503.652 319.276,503.669 320.595,503.692 321.914,503.723 323.232,503.759 324.551,503.803 325.87,503.853 327.189,503.91 328.507,503.973 329.826,504.043 331.145,504.12 332.463,504.204 333.782,504.294 335.101,504.391 336.42,504.494 337.738,504.605 339.057,504.721 340.376,504.845 341.695,504.975 343.013,505.112 344.332,505.255 345.651,505.406 346.969,505.562 348.288,505.726 349.607,505.896 350.926,506.073 352.244,506.256 353.563,506.446 354.882,506.643 356.201,506.846 357.519,507.056 358.838,507.272 360.157,507.496 361.475,507.725 362.794,507.962 364.113,508.205 365.432,508.454 366.75,508.71 368.069,508.973 369.388,509.242 370.707,509.518 372.025,509.801 373.344,510.09 374.663,510.385 375.982,510.687 377.3,510.996 378.619,511.311 379.938,511.633 381.256,511.961 382.575,512.296 383.894,512.637 385.213,512.985 386.531,513.339 387.85,513.7 389.169,514.067 390.488,514.441 391.806,514.821 393.125,515.208 394.444,515.601 395.762,516.001 397.081,516.407 398.4,516.819 399.719,517.238 401.037,517.663 402.356,518.095 403.675,518.533 404.994,518.978 406.312,519.428 407.631,519.886 408.95,520.349 410.268,520.819 411.587,521.296 412.906,521.778 414.225,522.267 415.543,522.763 416.862,523.264 418.181,523.772 419.5,524.286 420.818,524.807 422.137,525.334 423.456,525.867 424.774,526.406 426.093,526.951 427.412,527.503 428.731,528.061 430.049,528.625 431.368,529.196 432.687,529.772 434.006,530.355 435.324,530.944 436.643,531.539 437.962,532.14 439.28,532.747 440.599,533.36 441.918,533.98 443.237,534.605 444.555,535.237 445.874,535.874 447.193,536.518 448.512,537.168 449.83,537.824 451.149,538.486 452.468,539.153 453.786,539.827 455.105,540.507 456.424,541.193 457.743,541.884 459.061,542.582 460.38,543.285 461.699,543.995 463.018,544.71 464.336,545.431 465.655,546.158 466.974,546.891 468.293,547.63 469.611,548.374 470.93,549.125 472.249,549.881 473.567,550.643 474.886,551.41 476.205,552.184 477.524,552.963 478.842,553.748 480.161,554.538 481.48,555.335 482.799,556.137 484.117,556.944 485.436,557.757 486.755,558.576 488.073,559.401 489.392,560.231 490.711,561.066 492.03,561.907 493.348,562.754 494.667,563.606 495.986,564.464 497.305,565.327 498.623,566.196 499.942,567.07 501.261,567.949 502.579,568.834 503.898,569.725 505.217,570.62 506.536,571.521 507.854,572.428 509.173,573.34 510.492,574.257 511.811,575.179 513.129,576.107 514.448,577.04 515.767,577.978 517.085,578.922 518.404,579.87 519.723,580.824 521.042,581.783 522.36,582.747 523.679,583.716 524.998,584.691 526.317,585.67 527.635,586.655 528.954,587.644 530.273,588.639 531.591,589.639 532.91,590.643 534.229,591.653 535.548,592.667 536.866,593.687 538.185,594.711 539.504,595.741 540.823,596.775 542.141,597.814 543.46,598.858 544.779,599.906 546.098,600.96 547.416,602.018 548.735,603.081 550.054,604.149 551.372,605.221 552.691,606.299 554.01,607.38 555.329,608.467 556.647,609.558 557.966,610.654 559.285,611.754 560.604,612.859 561.922,613.968 563.241,615.082 564.56,616.201 565.878,617.324 567.197,618.451 568.516,619.583 569.835,620.719 571.153,621.859 572.472,623.004 573.791,624.154 575.11,625.307 576.428,626.465 577.747,627.628 579.066,628.794 580.384,629.965 581.703,631.14 583.022,632.319 584.341,633.502 585.659,634.689 586.978,635.881 588.297,637.076 589.616,638.276 590.934,639.48 592.253,640.688 593.572,641.899 594.89,643.115 596.209,644.335 597.528,645.558 598.847,646.786 600.165,648.017 601.484,649.253 602.803,650.492 604.122,651.735 605.44,652.981 606.759,654.232 608.078,655.486 609.396,656.744 610.715,658.006 612.034,659.271 613.353,660.54 614.671,661.812 615.99,663.088 617.309,664.368 618.628,665.651 619.946,666.938 621.265,668.228 622.584,669.522 623.903,670.819 625.221,672.12 626.54,673.424 627.859,674.731 629.177,676.042 630.496,677.356 631.815,678.673 633.134,679.994 634.452,681.318 635.771,682.645 637.09,683.975 638.409,685.308 639.727,686.645 641.046,687.984 642.365,689.327 643.683,690.673 645.002,692.022 646.321,693.373 647.64,694.728 648.958,696.086 650.277,697.447 651.596,698.81 652.915,700.177 654.233,701.546 655.552,702.918 656.871,704.293 658.189,705.671 659.508,707.051 660.827,708.435 662.146,709.821 663.464,711.209 664.783,712.6 666.102,713.994 667.421,715.391 668.739,716.79 670.058,718.191 671.377,719.595 672.695,721.002 674.014,722.411 675.333,723.822 676.652,725.236 677.97,726.652 679.289,728.07 680.608,729.491 681.927,730.914 683.245,732.34 684.564,733.767 685.883,735.197 687.201,736.629 688.52,738.063 689.839,739.499 691.158,740.938 692.476,742.378 693.795,743.821 695.114,745.265 696.433,746.712 697.751,748.16 699.07,749.611 700.389,751.063 701.708,752.517 703.026,753.973 704.345,755.431 705.664,756.891 706.982,758.352 708.301,759.815 709.62,761.28 710.939,762.747 712.257,764.215 713.576,765.685 714.895,767.156 716.214,768.629 717.532,770.104 718.851,771.58 720.17,773.058 721.488,774.537 722.807,776.017 724.126,777.499 725.445,778.982 726.763,780.467 728.082,781.953 729.401,783.44 730.72,784.929 732.038,786.418 733.357,787.909 734.676,789.401 735.994,790.895 737.313,792.389 738.632,793.885 739.951,795.381 741.269,796.879 742.588,798.378 743.907,799.877 745.226,801.378 746.544,802.879 747.863,804.382 749.182,805.885 750.5,807.389 751.819,808.894 753.138,810.4 754.457,811.906 755.775,813.413 757.094,814.921 758.413,816.43 759.732,817.939 761.05,819.449 762.369,820.959 763.688,822.47 765.006,823.982 766.325,825.494 767.644,827.006 768.963,828.519 770.281,830.033 771.6,831.547 772.919,833.061 774.238,834.575 775.556,836.09 776.875,837.605 778.194,839.12 779.512,840.636 780.831,842.151 782.15,843.667 783.469,845.183 784.787,846.699 786.106,848.216 787.425,849.732 788.744,851.248 790.062,852.764 791.381,854.281 792.7,855.797 794.019,857.313 795.337,858.829 796.656,860.345 797.975,861.86 799.293,863.376 800.612,864.891 801.931,866.406 803.25,867.921 804.568,869.435 805.887,870.949 807.206,872.463 808.525,873.976 809.843,875.489 811.162,877.001 812.481,878.513 813.799,880.025 815.118,881.536 816.437,883.046 817.756,884.556 819.074,886.065 820.393,887.573 821.712,889.081 823.031,890.588 824.349,892.094 825.668,893.6 826.987,895.105 828.305,896.609 829.624,898.112 830.943,899.614 832.262,901.116 833.58,902.616 834.899,904.116 836.218,905.614 837.537,907.112 838.855,908.608 840.174,910.104 841.493,911.598 842.811,913.091 844.13,914.572 845.449,916.031 846.768,917.468 848.086,918.882 849.405,920.275 850.724,921.647 852.043,922.998 853.361,924.329 854.68,925.639 855.999,926.929 857.317,928.2 858.636,929.451 859.955,930.683 861.274,931.897 862.592,933.092 863.911,934.269 865.23,935.428 866.549,936.569 867.867,937.694 869.186,938.801 870.505,939.891 871.824,940.965 873.142,942.022 874.461,943.064 875.78,944.089 877.098,945.1 878.417,946.094 879.736,947.074 881.055,948.039 882.373,948.989 883.692,949.925 885.011,950.847 886.33,951.755 887.648,952.649 888.967,953.529 890.286,954.396 891.604,955.25 892.923,956.092 894.242,956.92 895.561,957.736 896.879,958.54 898.198,959.331 899.517,960.11 900.836,960.878 902.154,961.634 903.473,962.379 904.792,963.112 906.11,963.835 907.429,964.546 908.748,965.247 910.067,965.937 911.385,966.617 912.704,967.286 914.023,967.946 915.342,968.595 916.66,969.235 917.979,969.865 919.298,970.486 920.616,971.097 921.935,971.699 923.254,972.292 924.573,972.876 925.891,973.451 927.21,974.018 928.529,974.576 929.848,975.125 931.166,975.667 932.485,976.2 933.804,976.725 935.122,977.242 936.441,977.752 937.76,978.254 939.079,978.748 940.397,979.235 941.716,979.714 943.035,980.187 944.354,980.652 945.672,981.11 946.991,981.561 948.31,982.006 949.629,982.444 950.947,982.875 952.266,983.3 953.585,983.719 954.903,984.131 956.222,984.537 957.541,984.937 958.86,985.331 960.178,985.719 961.497,986.101 962.816,986.477 964.135,986.848 965.453,987.213 966.772,987.573 968.091,987.927 969.409,988.276 970.728,988.62 972.047,988.959 973.366,989.292 974.684,989.621 976.003,989.944 977.322,990.263 978.641,990.577 979.959,990.887 981.278,991.191 982.597,991.491 983.915,991.787 985.234,992.078 986.553,992.365 987.872,992.647 989.19,992.926 990.509,993.2 991.828,993.47 993.147,993.736 994.465,993.998 995.784,994.256 997.103,994.51 998.421,994.76 999.74,995.007 1001.06,995.25 1002.38,995.489 1003.7,995.725 1005.02,995.957 1006.33,996.186 1007.65,996.411 1008.97,996.633 1010.29,996.851 1011.61,997.066 1012.93,997.279 1014.25,997.487 1015.56,997.693 1016.88,997.896 1018.2,998.095 1019.52,998.292 1020.84,998.486 1022.16,998.676 1023.48,998.864 1024.8,999.049 1026.11,999.232 1027.43,999.411 1028.75,999.588 1030.07,999.762 1031.39,999.934 1032.71,1000.1 1034.03,1000.27 1035.35,1000.43 1036.66,1000.6 1037.98,1000.75 1039.3,1000.91 1040.62,1001.07 1041.94,1001.22 1043.26,1001.37 1044.58,1001.51 1045.9,1001.66 1047.21,1001.8 1048.53,1001.94 1049.85,1002.08 1051.17,1002.22 1052.49,1002.35 1053.81,1002.49 1055.13,1002.62 1056.45,1002.75 1057.76,1002.87 1059.08,1003 1060.4,1003.12 1061.72,1003.24 1063.04,1003.36 1064.36,1003.48 1065.68,1003.59 1067,1003.71 1068.31,1003.82 1069.63,1003.93 1070.95,1004.04 1072.27,1004.15 1073.59,1004.25 1074.91,1004.36 1076.23,1004.46 1077.55,1004.56 1078.86,1004.66 1080.18,1004.76 1081.5,1004.85 1082.82,1004.95 1084.14,1005.04 1085.46,1005.13 1086.78,1005.22 1088.1,1005.31 1089.41,1005.4 1090.73,1005.49 1092.05,1005.57 1093.37,1005.65 1094.69,1005.74 1096.01,1005.82 1097.33,1005.9 1098.64,1005.98 1099.96,1006.05 1101.28,1006.13 1102.6,1006.21 1103.92,1006.28 1105.24,1006.35 1106.56,1006.42 1107.88,1006.49 1109.19,1006.56 1110.51,1006.63 1111.83,1006.7 1113.15,1006.77 1114.47,1006.83 1115.79,1006.89 1117.11,1006.96 1118.43,1007.02 1119.74,1007.08 1121.06,1007.14 1122.38,1007.2 1123.7,1007.26 1125.02,1007.32 1126.34,1007.37 1127.66,1007.43 1128.98,1007.48 1130.29,1007.54 1131.61,1007.59 1132.93,1007.64 1134.25,1007.69 1135.57,1007.74 1136.89,1007.79 1138.21,1007.84 1139.53,1007.89 1140.84,1007.94 1142.16,1007.98 1143.48,1008.03 1144.8,1008.07 1146.12,1008.12 1147.44,1008.16 1148.76,1008.2 1150.08,1008.25 1151.39,1008.29 1152.71,1008.33 1154.03,1008.37 1155.35,1008.41 1156.67,1008.45 1157.99,1008.48 1159.31,1008.52 1160.63,1008.56 1161.94,1008.59 1163.26,1008.63 1164.58,1008.66 1165.9,1008.7 1167.22,1008.73 1168.54,1008.76 1169.86,1008.79 1171.17,1008.83 1172.49,1008.86 1173.81,1008.89 1175.13,1008.92 1176.45,1008.95 1177.77,1008.98 1179.09,1009 1180.41,1009.03 1181.72,1009.06 1183.04,1009.09 1184.36,1009.11 1185.68,1009.14 1187,1009.16 1188.32,1009.19 1189.64,1009.21 1190.96,1009.24 1192.27,1009.26 1193.59,1009.28 1194.91,1009.3 1196.23,1009.33 1197.55,1009.35 1198.87,1009.37 1200.19,1009.39 1201.51,1009.41 1202.82,1009.43 1204.14,1009.45 1205.46,1009.46 1206.78,1009.48 1208.1,1009.5 1209.42,1009.52 1210.74,1009.53 1212.06,1009.55 1213.37,1009.57 1214.69,1009.58 1216.01,1009.6 1217.33,1009.61 1218.65,1009.63 1219.97,1009.64 1221.29,1009.65 1222.61,1009.67 1223.92,1009.68 1225.24,1009.69 1226.56,1009.71 1227.88,1009.72 1229.2,1009.73 1230.52,1009.74 1231.84,1009.75 1233.16,1009.76 1234.47,1009.77 1235.79,1009.78 1237.11,1009.79 1238.43,1009.8 1239.75,1009.81 1241.07,1009.82 1242.39,1009.82 1243.71,1009.83 1245.02,1009.84 1246.34,1009.85 1247.66,1009.86 1248.98,1009.87 1250.3,1009.87 1251.62,1009.88 1252.94,1009.89 1254.25,1009.9 1255.57,1009.91 1256.89,1009.92 1258.21,1009.92 1259.53,1009.93 1260.85,1009.94 1262.17,1009.95 1263.49,1009.96 1264.8,1009.96 1266.12,1009.97 1267.44,1009.98 1268.76,1009.99 1270.08,1009.99 1271.4,1010 1272.72,1010.01 1274.04,1010.02 1275.35,1010.02 1276.67,1010.03 1277.99,1010.04 1279.31,1010.05 1280.63,1010.05 1281.95,1010.06 1283.27,1010.07 1284.59,1010.08 1285.9,1010.08 1287.22,1010.09 1288.54,1010.1 1289.86,1010.1 1291.18,1010.11 1292.5,1010.12 1293.82,1010.13 1295.14,1010.13 1296.45,1010.14 1297.77,1010.15 1299.09,1010.15 1300.41,1010.16 1301.73,1010.17 1303.05,1010.17 1304.37,1010.18 1305.69,1010.19 1307,1010.19 1308.32,1010.2 1309.64,1010.21 1310.96,1010.21 1312.28,1010.22 1313.6,1010.23 1314.92,1010.23 1316.24,1010.24 1317.55,1010.25 1318.87,1010.25 1320.19,1010.26 1321.51,1010.27 1322.83,1010.27 1324.15,1010.28 1325.47,1010.28 1326.78,1010.29 1328.1,1010.3 1329.42,1010.3 1330.74,1010.31 1332.06,1010.31 1333.38,1010.32 1334.7,1010.33 1336.02,1010.33 1337.33,1010.34 1338.65,1010.34 1339.97,1010.35 1341.29,1010.36 1342.61,1010.36 1343.93,1010.37 1345.25,1010.37 1346.57,1010.38 1347.88,1010.38 1349.2,1010.39 1350.52,1010.4 1351.84,1010.4 1353.16,1010.41 1354.48,1010.41 1355.8,1010.42 1357.12,1010.42 1358.43,1010.43 1359.75,1010.43 1361.07,1010.44 1362.39,1010.45 1363.71,1010.45 1365.03,1010.46 1366.35,1010.46 1367.67,1010.47 1368.98,1010.47 1370.3,1010.48 1371.62,1010.48 1372.94,1010.49 1374.26,1010.49 1375.58,1010.5 1376.9,1010.5 1378.22,1010.51 1379.53,1010.51 1380.85,1010.52 1382.17,1010.52 1383.49,1010.53 1384.81,1010.53 1386.13,1010.54 1387.45,1010.54 1388.77,1010.55 1390.08,1010.55 1391.4,1010.56 1392.72,1010.56 1394.04,1010.57 1395.36,1010.57 1396.68,1010.58 1398,1010.58 1399.32,1010.59 1400.63,1010.59 1401.95,1010.59 1403.27,1010.6 1404.59,1010.6 1405.91,1010.61 1407.23,1010.61 1408.55,1010.62 1409.86,1010.62 1411.18,1010.63 1412.5,1010.63 1413.82,1010.64 1415.14,1010.64 1416.46,1010.64 1417.78,1010.65 1419.1,1010.65 1420.41,1010.66 1421.73,1010.66 1423.05,1010.67 1424.37,1010.67 1425.69,1010.67 1427.01,1010.68 1428.33,1010.68 1429.65,1010.69 1430.96,1010.69 1432.28,1010.69 1433.6,1010.7 1434.92,1010.7 1436.24,1010.71 1437.56,1010.71 1438.88,1010.72 1440.2,1010.72 1441.51,1010.72 1442.83,1010.73 1444.15,1010.73 1445.47,1010.73 1446.79,1010.74 1448.11,1010.74 1449.43,1010.75 1450.75,1010.75 1452.06,1010.75 1453.38,1010.76 1454.7,1010.76 1456.02,1010.77 1457.34,1010.77 1458.66,1010.77 1459.98,1010.78 1461.3,1010.78 1462.61,1010.78 1463.93,1010.79 1465.25,1010.79 1466.57,1010.8 1467.89,1010.8 1469.21,1010.8 1470.53,1010.81 1471.85,1010.81 1473.16,1010.81 1474.48,1010.82 1475.8,1010.82 1477.12,1010.82 1478.44,1010.83 1479.76,1010.83 1481.08,1010.83 1482.39,1010.84 1483.71,1010.84 1485.03,1010.84 1486.35,1010.85 1487.67,1010.85 1488.99,1010.85 1490.31,1010.86 1491.63,1010.86 1492.94,1010.86 1494.26,1010.87 1495.58,1010.87 1496.9,1010.87 1498.22,1010.88 1499.54,1010.88 1500.86,1010.88 1502.18,1010.89 1503.49,1010.89 1504.81,1010.89 1506.13,1010.9 1507.45,1010.9 1508.77,1010.9 1510.09,1010.91 1511.41,1010.91 1512.73,1010.91 1514.04,1010.91 1515.36,1010.92 1516.68,1010.92 1518,1010.92 1519.32,1010.93 1520.64,1010.93 1521.96,1010.93 1523.28,1010.93 1524.59,1010.94 1525.91,1010.94 1527.23,1010.94 1528.55,1010.95 1529.87,1010.95 1531.19,1010.95 1532.51,1010.96 1533.83,1010.96 1535.14,1010.96 1536.46,1010.96 1537.78,1010.97 1539.1,1010.97 1540.42,1010.97 1541.74,1010.97 1543.06,1010.98 1544.38,1010.98 1545.69,1010.98 1547.01,1010.99 1548.33,1010.99 1549.65,1010.99 1550.97,1010.99 1552.29,1011 1553.61,1011 1554.93,1011 1556.24,1011 1557.56,1011.01 1558.88,1011.01 1560.2,1011.01 1561.52,1011.01 1562.84,1011.02 1564.16,1011.02 1565.47,1011.02 1566.79,1011.02 1568.11,1011.03 1569.43,1011.03 1570.75,1011.03 1572.07,1011.03 1573.39,1011.04 1574.71,1011.04 1576.02,1011.04 1577.34,1011.04 1578.66,1011.05 1579.98,1011.05 1581.3,1011.05 1582.62,1011.05 1583.94,1011.05 1585.26,1011.06 1586.57,1011.06 1587.89,1011.06 1589.21,1011.06 1590.53,1011.07 1591.85,1011.07 1593.17,1011.07 1594.49,1011.07 1595.81,1011.08 1597.12,1011.08 1598.44,1011.08 1599.76,1011.08 1601.08,1011.08 1602.4,1011.09 1603.72,1011.09 1605.04,1011.09 1606.36,1011.09 1607.67,1011.1 1608.99,1011.1 1610.31,1011.1 1611.63,1011.1 1612.95,1011.1 1614.27,1011.11 1615.59,1011.11 1616.91,1011.11 1618.22,1011.11 1619.54,1011.11 1620.86,1011.12 1622.18,1011.12 1623.5,1011.12 1624.82,1011.12 1626.14,1011.12 1627.46,1011.13 1628.77,1011.13 1630.09,1011.13 1631.41,1011.13 1632.73,1011.13 1634.05,1011.14 1635.37,1011.14 1636.69,1011.14 1638,1011.14 1639.32,1011.14 1640.64,1011.15 1641.96,1011.15 1643.28,1011.15 1644.6,1011.15 1645.92,1011.15 1647.24,1011.15 1648.55,1011.16 1649.87,1011.16 1651.19,1011.16 1652.51,1011.16 1653.83,1011.16 1655.15,1011.17 1656.47,1011.17 1657.79,1011.17 1659.1,1011.17 1660.42,1011.17 1661.74,1011.17 1663.06,1011.18 1664.38,1011.18 1665.7,1011.18 1667.02,1011.18 1668.34,1011.18 1669.65,1011.18 1670.97,1011.19 1672.29,1011.19 1673.61,1011.19 1674.93,1011.19 1676.25,1011.19 1677.57,1011.19 1678.89,1011.2 1680.2,1011.2 1681.52,1011.2 1682.84,1011.2 1684.16,1011.2 1685.48,1011.2 1686.8,1011.21 1688.12,1011.21 1689.44,1011.21 1690.75,1011.21 1692.07,1011.21 1693.39,1011.21 1694.71,1011.21 1696.03,1011.22 1697.35,1011.22 1698.67,1011.22 1699.99,1011.22 1701.3,1011.22 1702.62,1011.22 1703.94,1011.23 1705.26,1011.23 1706.58,1011.23 1707.9,1011.23 1709.22,1011.23 1710.54,1011.23 1711.85,1011.23 1713.17,1011.24 1714.49,1011.24 1715.81,1011.24 1717.13,1011.24 1718.45,1011.24 1719.77,1011.24 1721.08,1011.24 1722.4,1011.25 1723.72,1011.25 1725.04,1011.25 1726.36,1011.25 1727.68,1011.25 1729,1011.25 1730.32,1011.25 1731.63,1011.26 1732.95,1011.26 1734.27,1011.26 1735.59,1011.26 1736.91,1011.26 1738.23,1011.26 1739.55,1011.26 1740.87,1011.26 1742.18,1011.27 1743.5,1011.27 1744.82,1011.27 1746.14,1011.27 1747.46,1011.27 1748.78,1011.27 1750.1,1011.27 1751.42,1011.27 1752.73,1011.28 1754.05,1011.28 1755.37,1011.28 1756.69,1011.28 1758.01,1011.28 1759.33,1011.28 1760.65,1011.28 1761.97,1011.28 1763.28,1011.29 1764.6,1011.29 1765.92,1011.29 1767.24,1011.29 1768.56,1011.29 1769.88,1011.29 1771.2,1011.29 1772.52,1011.29 1773.83,1011.29 1775.15,1011.3 1776.47,1011.3 1777.79,1011.3 1779.11,1011.3 1780.43,1011.3 1781.75,1011.3 1783.07,1011.3 1784.38,1011.3 1785.7,1011.31 1787.02,1011.31 1788.34,1011.31 1789.66,1011.31 1790.98,1011.31 1792.3,1011.31 1793.61,1011.31 1794.93,1011.31 1796.25,1011.31 1797.57,1011.31 1798.89,1011.32 1800.21,1011.32 1801.53,1011.32 1802.85,1011.32 1804.16,1011.32 1805.48,1011.32 1806.8,1011.32 1808.12,1011.32 1809.44,1011.32 1810.76,1011.32 1812.08,1011.33 1813.4,1011.33 1814.71,1011.33 1816.03,1011.33 1817.35,1011.33 1818.67,1011.33 1819.99,1011.33 1821.31,1011.33 1822.63,1011.33 1823.95,1011.33 1825.26,1011.34 1826.58,1011.34 1827.9,1011.34 1829.22,1011.34 1830.54,1011.34 1831.86,1011.34 1833.18,1011.34 1834.5,1011.34 1835.81,1011.34 1837.13,1011.34 1838.45,1011.34 1839.77,1011.35 1841.09,1011.35 1842.41,1011.35 1843.73,1011.35 1845.05,1011.35 1846.36,1011.35 1847.68,1011.35 1849,1011.35 1850.32,1011.35 1851.64,1011.35 1852.96,1011.35 1854.28,1011.36 1855.6,1011.36 1856.91,1011.36 1858.23,1011.36 1859.55,1011.36 1860.87,1011.36 1862.19,1011.36 1863.51,1011.36 1864.83,1011.36 1866.14,1011.36 1867.46,1011.36 1868.78,1011.36 1870.1,1011.37 1871.42,1011.37 1872.74,1011.37 1874.06,1011.37 1875.38,1011.37 1876.69,1011.37 1878.01,1011.37 1879.33,1011.37 1880.65,1011.37 1881.97,1011.37 1883.29,1011.37 1884.61,1011.37 1885.93,1011.37 1887.24,1011.38 1888.56,1011.38 1889.88,1011.38 1891.2,1011.38 1892.52,1011.38 1893.84,1011.38 1895.16,1011.38 1896.48,1011.38 1897.79,1011.38 1899.11,1011.38 1900.43,1011.38 1901.75,1011.38 1903.07,1011.38 1904.39,1011.38 1905.71,1011.39 1907.03,1011.39 1908.34,1011.39 1909.66,1011.39 1910.98,1011.39 1912.3,1011.39 1913.62,1011.39 1914.94,1011.39 1916.26,1011.39 1917.58,1011.39 1918.89,1011.39 1920.21,1011.39 1921.53,1011.39 1922.85,1011.39 1924.17,1011.39 1925.49,1011.4 1926.81,1011.4 1928.13,1011.4 1929.44,1011.4 1930.76,1011.4 1932.08,1011.4 1933.4,1011.4 1934.72,1011.4 1936.04,1011.4 1937.36,1011.4 1938.68,1011.4 1939.99,1011.4 1941.31,1011.4 1942.63,1011.4 1943.95,1011.4 1945.27,1011.4 1946.59,1011.41 1947.91,1011.41 1949.22,1011.41 1950.54,1011.41 1951.86,1011.41 1953.18,1011.41 1954.5,1011.41 1955.82,1011.41 1957.14,1011.41 1958.46,1011.41 1959.77,1011.41 1961.09,1011.41 1962.41,1011.41 1963.73,1011.41 1965.05,1011.41 1966.37,1011.41 1967.69,1011.41 1969.01,1011.41 1970.32,1011.41 1971.64,1011.41 1972.96,1011.41 1974.28,1011.42 1975.6,1011.42 1976.92,1011.42 1978.24,1011.42 1979.56,1011.42 1980.87,1011.42 1982.19,1011.42 1983.51,1011.42 1984.83,1011.42 1986.15,1011.42 1987.47,1011.42 1988.79,1011.42 1990.11,1011.42 1991.42,1011.42 1992.74,1011.42 1994.06,1011.42 1995.38,1011.42 1996.7,1011.42 1998.02,1011.42 1999.34,1011.42 2000.66,1011.42 2001.97,1011.42 2003.29,1011.42 2004.61,1011.42 2005.93,1011.42 2007.25,1011.43 2008.57,1011.43 2009.89,1011.43 2011.21,1011.43 2012.52,1011.43 2013.84,1011.43 2015.16,1011.43 2016.48,1011.43 2017.8,1011.43 2019.12,1011.43 2020.44,1011.43 2021.75,1011.43 2023.07,1011.43 2024.39,1011.43 2025.71,1011.43 2027.03,1011.43 2028.35,1011.43 2029.67,1011.43 2030.99,1011.43 2032.3,1011.43 2033.62,1011.43 2034.94,1011.43 2036.26,1011.43 2037.58,1011.43 2038.9,1011.43 2040.22,1011.43 2041.54,1011.43 2042.85,1011.43 2044.17,1011.43 2045.49,1011.43 2046.81,1011.43 2048.13,1011.44 2049.45,1011.44 2050.77,1011.44 2052.09,1011.44 2053.4,1011.44 2054.72,1011.44 2056.04,1011.44 2057.36,1011.44 2058.68,1011.44 2060,1011.44 2061.32,1011.44 2062.64,1011.44 2063.95,1011.44 2065.27,1011.44 2066.59,1011.44 2067.91,1011.44 2069.23,1011.44 2070.55,1011.44 2071.87,1011.44 2073.19,1011.44 2074.5,1011.44 2075.82,1011.44 2077.14,1011.44 2078.46,1011.44 2079.78,1011.44 2081.1,1011.44 2082.42,1011.45 2083.74,1011.45 2085.05,1011.45 2086.37,1011.45 2087.69,1011.45 2089.01,1011.45 2090.33,1011.45 2091.65,1011.45 2092.97,1011.45 2094.29,1011.45 2095.6,1011.45 2096.92,1011.45 2098.24,1011.45 2099.56,1011.45 2100.88,1011.45 2102.2,1011.45 2103.52,1011.45 2104.83,1011.46 2106.15,1011.46 2107.47,1011.46 2108.79,1011.46 2110.11,1011.46 2111.43,1011.46 2112.75,1011.46 2114.07,1011.46 2115.38,1011.46 2116.7,1011.46 2118.02,1011.46 2119.34,1011.46 2120.66,1011.46 2121.98,1011.47 2123.3,1011.47 2124.62,1011.47 2125.93,1011.47 2127.25,1011.47 2128.57,1011.47 2129.89,1011.47 2131.21,1011.47 2132.53,1011.47 2133.85,1011.47 2135.17,1011.48 2136.48,1011.48 2137.8,1011.48 2139.12,1011.48 2140.44,1011.48 2141.76,1011.48 2143.08,1011.48 2144.4,1011.48 2145.72,1011.48 2147.03,1011.49 2148.35,1011.49 2149.67,1011.49 2150.99,1011.49 2152.31,1011.49 2153.63,1011.49 2154.95,1011.49 2156.27,1011.49 2157.58,1011.5 2158.9,1011.5 2160.22,1011.5 2161.54,1011.5 2162.86,1011.5 2164.18,1011.5 2165.5,1011.5 2166.82,1011.51 2168.13,1011.51 2169.45,1011.51 2170.77,1011.51 2172.09,1011.51 2173.41,1011.51 2174.73,1011.51 2176.05,1011.52 2177.36,1011.52 2178.68,1011.52 2180,1011.52 2181.32,1011.52 2182.64,1011.52 2183.96,1011.52 2185.28,1011.53 2186.6,1011.53 2187.91,1011.53 2189.23,1011.53 2190.55,1011.53 2191.87,1011.53 2193.19,1011.53 2194.51,1011.54 2195.83,1011.54 2197.15,1011.54 2198.46,1011.54 2199.78,1011.54 2201.1,1011.54 2202.42,1011.54 2203.74,1011.55 2205.06,1011.55 2206.38,1011.55 2207.7,1011.55 2209.01,1011.55 2210.33,1011.55 2211.65,1011.55 2212.97,1011.55 2214.29,1011.56 2215.61,1011.56 2216.93,1011.56 2218.25,1011.56 2219.56,1011.56 2220.88,1011.56 2222.2,1011.56 2223.52,1011.56 2224.84,1011.56 2226.16,1011.56 2227.48,1011.56 2228.8,1011.57 2230.11,1011.57 2231.43,1011.57 2232.75,1011.57 2234.07,1011.57 2235.39,1011.57 2236.71,1011.57 2238.03,1011.57 2239.35,1011.57 2240.66,1011.57 2241.98,1011.57 2243.3,1011.57 2244.62,1011.57 2245.94,1011.57 2247.26,1011.57 2248.58,1011.57 2249.9,1011.57 2251.21,1011.57 2252.53,1011.57 2253.85,1011.57 2255.17,1011.57 2256.49,1011.57 2257.81,1011.57 2259.13,1011.57 2260.44,1011.57 2261.76,1011.57 2263.08,1011.56 2264.4,1011.56 2265.72,1011.56 2267.04,1011.56 2268.36,1011.56 2269.68,1011.56 2270.99,1011.56 2272.31,1011.56 2273.63,1011.56 2274.95,1011.56 2276.27,1011.56 2277.59,1011.55 2278.91,1011.55 2280.23,1011.55 2281.54,1011.55 2282.86,1011.55 2284.18,1011.55 2285.5,1011.55 2286.82,1011.55 2288.14,1011.55 2289.46,1011.55 2290.78,1011.54 2292.09,1011.54 2293.41,1011.54 "/>
<polyline clip-path="url(#clip802)" style="stroke:#e26f46; stroke-linecap:round; stroke-linejoin:round; stroke-width:4; stroke-opacity:1; fill:none" points="315.32,86.1857 316.639,86.2166 317.957,86.3095 319.276,86.4644 320.595,86.6811 321.914,86.9598 323.232,87.3003 324.551,87.7026 325.87,88.1667 327.189,88.6925 328.507,89.2801 329.826,89.9293 331.145,90.64 332.463,91.4122 333.782,92.2459 335.101,93.1408 336.42,94.097 337.738,95.1144 339.057,96.1928 340.376,97.3321 341.695,98.5323 343.013,99.7931 344.332,101.115 345.651,102.496 346.969,103.939 348.288,105.441 349.607,107.003 350.926,108.625 352.244,110.307 353.563,112.049 354.882,113.85 356.201,115.709 357.519,117.628 358.838,119.606 360.157,121.642 361.475,123.737 362.794,125.89 364.113,128.1 365.432,130.369 366.75,132.695 368.069,135.078 369.388,137.519 370.707,140.016 372.025,142.569 373.344,145.179 374.663,147.845 375.982,150.567 377.3,153.344 378.619,156.177 379.938,159.064 381.256,162.006 382.575,165.003 383.894,168.053 385.213,171.157 386.531,174.315 387.85,177.525 389.169,180.789 390.488,184.105 391.806,187.473 393.125,190.893 394.444,194.364 395.762,197.887 397.081,201.46 398.4,205.083 399.719,208.757 401.037,212.481 402.356,216.253 403.675,220.075 404.994,223.945 406.312,227.863 407.631,231.829 408.95,235.843 410.268,239.903 411.587,244.01 412.906,248.164 414.225,252.363 415.543,256.607 416.862,260.896 418.181,265.23 419.5,269.608 420.818,274.029 422.137,278.494 423.456,283.001 424.774,287.551 426.093,292.143 427.412,296.776 428.731,301.449 430.049,306.164 431.368,310.918 432.687,315.712 434.006,320.545 435.324,325.417 436.643,330.326 437.962,335.274 439.28,340.258 440.599,345.279 441.918,350.337 443.237,355.429 444.555,360.558 445.874,365.72 447.193,370.917 448.512,376.148 449.83,381.411 451.149,386.707 452.468,392.035 453.786,397.395 455.105,402.786 456.424,408.207 457.743,413.659 459.061,419.139 460.38,424.649 461.699,430.187 463.018,435.753 464.336,441.346 465.655,446.965 466.974,452.611 468.293,458.283 469.611,463.979 470.93,469.7 472.249,475.445 473.567,481.214 474.886,487.005 476.205,492.819 477.524,498.654 478.842,504.51 480.161,510.387 481.48,516.284 482.799,522.2 484.117,528.136 485.436,534.089 486.755,540.06 488.073,546.049 489.392,552.053 490.711,558.074 492.03,564.11 493.348,570.161 494.667,576.227 495.986,582.305 497.305,588.397 498.623,594.502 499.942,600.618 501.261,606.745 502.579,612.883 503.898,619.032 505.217,625.189 506.536,631.356 507.854,637.531 509.173,643.714 510.492,649.904 511.811,656.101 513.129,662.303 514.448,668.511 515.767,674.724 517.085,680.94 518.404,687.161 519.723,693.385 521.042,699.61 522.36,705.838 523.679,712.067 524.998,718.297 526.317,724.527 527.635,730.756 528.954,736.984 530.273,743.211 531.591,749.435 532.91,755.656 534.229,761.874 535.548,768.088 536.866,774.298 538.185,780.502 539.504,786.7 540.823,792.892 542.141,799.077 543.46,805.255 544.779,811.424 546.098,817.585 547.416,823.737 548.735,829.879 550.054,836.01 551.372,842.131 552.691,848.24 554.01,854.337 555.329,860.422 556.647,866.493 557.966,872.551 559.285,878.594 560.604,884.622 561.922,890.636 563.241,896.633 564.56,902.613 565.878,908.577 567.197,914.523 568.516,920.451 569.835,926.361 571.153,932.251 572.472,938.122 573.791,943.972 575.11,949.801 576.428,955.61 577.747,961.396 579.066,967.161 580.384,972.902 581.703,978.62 583.022,984.314 584.341,989.984 585.659,995.629 586.978,1001.25 588.297,1006.84 589.616,1012.41 590.934,1017.95 592.253,1023.46 593.572,1028.95 594.89,1034.41 596.209,1039.84 597.528,1045.24 598.847,1050.6 600.165,1055.94 601.484,1061.25 602.803,1066.53 604.122,1071.78 605.44,1076.99 606.759,1082.17 608.078,1087.32 609.396,1092.44 610.715,1097.52 612.034,1102.57 613.353,1107.58 614.671,1112.56 615.99,1117.51 617.309,1122.41 618.628,1127.28 619.946,1132.12 621.265,1136.92 622.584,1141.68 623.903,1146.4 625.221,1151.08 626.54,1155.73 627.859,1160.34 629.177,1164.91 630.496,1169.43 631.815,1173.92 633.134,1178.37 634.452,1182.78 635.771,1187.14 637.09,1191.47 638.409,1195.75 639.727,1199.99 641.046,1204.19 642.365,1208.34 643.683,1212.46 645.002,1216.53 646.321,1220.55 647.64,1224.53 648.958,1228.47 650.277,1232.36 651.596,1236.21 652.915,1240.02 654.233,1243.77 655.552,1247.49 656.871,1251.15 658.189,1254.77 659.508,1258.35 660.827,1261.87 662.146,1265.35 663.464,1268.79 664.783,1272.17 666.102,1275.51 667.421,1278.8 668.739,1282.04 670.058,1285.24 671.377,1288.38 672.695,1291.48 674.014,1294.53 675.333,1297.53 676.652,1300.48 677.97,1303.38 679.289,1306.23 680.608,1309.03 681.927,1311.78 683.245,1314.49 684.564,1317.14 685.883,1319.74 687.201,1322.29 688.52,1324.79 689.839,1327.24 691.158,1329.64 692.476,1331.99 693.795,1334.28 695.114,1336.53 696.433,1338.72 697.751,1340.87 699.07,1342.96 700.389,1345 701.708,1346.99 703.026,1348.92 704.345,1350.81 705.664,1352.64 706.982,1354.43 708.301,1356.16 709.62,1357.83 710.939,1359.46 712.257,1361.04 713.576,1362.56 714.895,1364.03 716.214,1365.45 717.532,1366.81 718.851,1368.13 720.17,1369.39 721.488,1370.6 722.807,1371.76 724.126,1372.87 725.445,1373.93 726.763,1374.93 728.082,1375.88 729.401,1376.78 730.72,1377.63 732.038,1378.43 733.357,1379.17 734.676,1379.86 735.994,1380.51 737.313,1381.1 738.632,1381.64 739.951,1382.13 741.269,1382.56 742.588,1382.95 743.907,1383.28 745.226,1383.57 746.544,1383.8 747.863,1383.99 749.182,1384.12 750.5,1384.2 751.819,1384.24 753.138,1384.22 754.457,1384.16 755.775,1384.04 757.094,1383.87 758.413,1383.66 759.732,1383.4 761.05,1383.08 762.369,1382.72 763.688,1382.31 765.006,1381.85 766.325,1381.35 767.644,1380.79 768.963,1380.19 770.281,1379.54 771.6,1378.84 772.919,1378.1 774.238,1377.31 775.556,1376.47 776.875,1375.58 778.194,1374.65 779.512,1373.68 780.831,1372.66 782.15,1371.59 783.469,1370.48 784.787,1369.32 786.106,1368.12 787.425,1366.87 788.744,1365.58 790.062,1364.25 791.381,1362.87 792.7,1361.45 794.019,1359.99 795.337,1358.48 796.656,1356.93 797.975,1355.34 799.293,1353.71 800.612,1352.04 801.931,1350.33 803.25,1348.57 804.568,1346.78 805.887,1344.94 807.206,1343.07 808.525,1341.15 809.843,1339.2 811.162,1337.21 812.481,1335.18 813.799,1333.11 815.118,1331.01 816.437,1328.86 817.756,1326.68 819.074,1324.47 820.393,1322.22 821.712,1319.93 823.031,1317.61 824.349,1315.25 825.668,1312.86 826.987,1310.43 828.305,1307.97 829.624,1305.48 830.943,1302.95 832.262,1300.4 833.58,1297.81 834.899,1295.18 836.218,1292.53 837.537,1289.85 838.855,1287.13 840.174,1284.39 841.493,1281.61 842.811,1278.81 844.13,1276.01 845.449,1273.23 846.768,1270.49 848.086,1267.78 849.405,1265.09 850.724,1262.44 852.043,1259.81 853.361,1257.21 854.68,1254.64 855.999,1252.09 857.317,1249.58 858.636,1247.09 859.955,1244.62 861.274,1242.19 862.592,1239.78 863.911,1237.39 865.23,1235.03 866.549,1232.7 867.867,1230.39 869.186,1228.1 870.505,1225.84 871.824,1223.6 873.142,1221.39 874.461,1219.2 875.78,1217.04 877.098,1214.89 878.417,1212.77 879.736,1210.68 881.055,1208.6 882.373,1206.55 883.692,1204.52 885.011,1202.51 886.33,1200.52 887.648,1198.55 888.967,1196.6 890.286,1194.68 891.604,1192.77 892.923,1190.89 894.242,1189.02 895.561,1187.17 896.879,1185.35 898.198,1183.54 899.517,1181.75 900.836,1179.99 902.154,1178.23 903.473,1176.5 904.792,1174.79 906.11,1173.09 907.429,1171.42 908.748,1169.76 910.067,1168.11 911.385,1166.49 912.704,1164.88 914.023,1163.29 915.342,1161.72 916.66,1160.16 917.979,1158.62 919.298,1157.09 920.616,1155.58 921.935,1154.09 923.254,1152.61 924.573,1151.15 925.891,1149.71 927.21,1148.27 928.529,1146.86 929.848,1145.46 931.166,1144.07 932.485,1142.7 933.804,1141.34 935.122,1140 936.441,1138.67 937.76,1137.35 939.079,1136.05 940.397,1134.76 941.716,1133.49 943.035,1132.22 944.354,1130.98 945.672,1129.74 946.991,1128.52 948.31,1127.31 949.629,1126.11 950.947,1124.93 952.266,1123.76 953.585,1122.6 954.903,1121.45 956.222,1120.31 957.541,1119.19 958.86,1118.08 960.178,1116.98 961.497,1115.89 962.816,1114.81 964.135,1113.74 965.453,1112.69 966.772,1111.64 968.091,1110.61 969.409,1109.58 970.728,1108.57 972.047,1107.57 973.366,1106.58 974.684,1105.6 976.003,1104.63 977.322,1103.67 978.641,1102.71 979.959,1101.77 981.278,1100.84 982.597,1099.92 983.915,1099.01 985.234,1098.11 986.553,1097.21 987.872,1096.33 989.19,1095.45 990.509,1094.59 991.828,1093.73 993.147,1092.88 994.465,1092.04 995.784,1091.21 997.103,1090.39 998.421,1089.58 999.74,1088.77 1001.06,1087.97 1002.38,1087.18 1003.7,1086.4 1005.02,1085.63 1006.33,1084.87 1007.65,1084.11 1008.97,1083.36 1010.29,1082.62 1011.61,1081.88 1012.93,1081.16 1014.25,1080.44 1015.56,1079.73 1016.88,1079.02 1018.2,1078.33 1019.52,1077.64 1020.84,1076.95 1022.16,1076.28 1023.48,1075.61 1024.8,1074.95 1026.11,1074.29 1027.43,1073.64 1028.75,1073 1030.07,1072.37 1031.39,1071.74 1032.71,1071.11 1034.03,1070.5 1035.35,1069.89 1036.66,1069.28 1037.98,1068.69 1039.3,1068.1 1040.62,1067.51 1041.94,1066.93 1043.26,1066.36 1044.58,1065.79 1045.9,1065.23 1047.21,1064.67 1048.53,1064.12 1049.85,1063.57 1051.17,1063.04 1052.49,1062.5 1053.81,1061.97 1055.13,1061.45 1056.45,1060.93 1057.76,1060.42 1059.08,1059.91 1060.4,1059.41 1061.72,1058.91 1063.04,1058.42 1064.36,1057.93 1065.68,1057.45 1067,1056.97 1068.31,1056.5 1069.63,1056.03 1070.95,1055.57 1072.27,1055.11 1073.59,1054.65 1074.91,1054.2 1076.23,1053.76 1077.55,1053.32 1078.86,1052.88 1080.18,1052.45 1081.5,1052.02 1082.82,1051.6 1084.14,1051.18 1085.46,1050.76 1086.78,1050.35 1088.1,1049.95 1089.41,1049.54 1090.73,1049.15 1092.05,1048.75 1093.37,1048.36 1094.69,1047.97 1096.01,1047.59 1097.33,1047.21 1098.64,1046.84 1099.96,1046.46 1101.28,1046.1 1102.6,1045.73 1103.92,1045.37 1105.24,1045.01 1106.56,1044.66 1107.88,1044.31 1109.19,1043.96 1110.51,1043.62 1111.83,1043.28 1113.15,1042.94 1114.47,1042.61 1115.79,1042.28 1117.11,1041.95 1118.43,1041.63 1119.74,1041.31 1121.06,1040.99 1122.38,1040.67 1123.7,1040.36 1125.02,1040.05 1126.34,1039.75 1127.66,1039.45 1128.98,1039.15 1130.29,1038.85 1131.61,1038.56 1132.93,1038.27 1134.25,1037.98 1135.57,1037.69 1136.89,1037.41 1138.21,1037.13 1139.53,1036.85 1140.84,1036.58 1142.16,1036.31 1143.48,1036.04 1144.8,1035.77 1146.12,1035.51 1147.44,1035.25 1148.76,1034.99 1150.08,1034.73 1151.39,1034.48 1152.71,1034.22 1154.03,1033.97 1155.35,1033.73 1156.67,1033.48 1157.99,1033.24 1159.31,1033 1160.63,1032.76 1161.94,1032.53 1163.26,1032.29 1164.58,1032.06 1165.9,1031.83 1167.22,1031.6 1168.54,1031.38 1169.86,1031.16 1171.17,1030.93 1172.49,1030.72 1173.81,1030.5 1175.13,1030.28 1176.45,1030.07 1177.77,1029.86 1179.09,1029.65 1180.41,1029.44 1181.72,1029.24 1183.04,1029.04 1184.36,1028.83 1185.68,1028.63 1187,1028.44 1188.32,1028.24 1189.64,1028.05 1190.96,1027.85 1192.27,1027.66 1193.59,1027.47 1194.91,1027.28 1196.23,1027.1 1197.55,1026.91 1198.87,1026.73 1200.19,1026.55 1201.51,1026.37 1202.82,1026.19 1204.14,1026.02 1205.46,1025.84 1206.78,1025.67 1208.1,1025.5 1209.42,1025.33 1210.74,1025.16 1212.06,1024.99 1213.37,1024.82 1214.69,1024.66 1216.01,1024.49 1217.33,1024.33 1218.65,1024.17 1219.97,1024.01 1221.29,1023.85 1222.61,1023.7 1223.92,1023.54 1225.24,1023.39 1226.56,1023.24 1227.88,1023.08 1229.2,1022.93 1230.52,1022.78 1231.84,1022.64 1233.16,1022.49 1234.47,1022.34 1235.79,1022.2 1237.11,1022.06 1238.43,1021.91 1239.75,1021.77 1241.07,1021.63 1242.39,1021.49 1243.71,1021.34 1245.02,1021.2 1246.34,1021.05 1247.66,1020.91 1248.98,1020.76 1250.3,1020.61 1251.62,1020.46 1252.94,1020.31 1254.25,1020.17 1255.57,1020.02 1256.89,1019.87 1258.21,1019.72 1259.53,1019.56 1260.85,1019.41 1262.17,1019.26 1263.49,1019.11 1264.8,1018.95 1266.12,1018.8 1267.44,1018.65 1268.76,1018.49 1270.08,1018.34 1271.4,1018.18 1272.72,1018.03 1274.04,1017.87 1275.35,1017.71 1276.67,1017.56 1277.99,1017.4 1279.31,1017.24 1280.63,1017.08 1281.95,1016.93 1283.27,1016.77 1284.59,1016.61 1285.9,1016.45 1287.22,1016.29 1288.54,1016.13 1289.86,1015.97 1291.18,1015.81 1292.5,1015.65 1293.82,1015.49 1295.14,1015.33 1296.45,1015.17 1297.77,1015.01 1299.09,1014.85 1300.41,1014.69 1301.73,1014.53 1303.05,1014.37 1304.37,1014.21 1305.69,1014.05 1307,1013.89 1308.32,1013.73 1309.64,1013.57 1310.96,1013.41 1312.28,1013.25 1313.6,1013.09 1314.92,1012.93 1316.24,1012.77 1317.55,1012.61 1318.87,1012.45 1320.19,1012.29 1321.51,1012.13 1322.83,1011.97 1324.15,1011.81 1325.47,1011.65 1326.78,1011.49 1328.1,1011.33 1329.42,1011.17 1330.74,1011.01 1332.06,1010.86 1333.38,1010.7 1334.7,1010.54 1336.02,1010.38 1337.33,1010.23 1338.65,1010.07 1339.97,1009.91 1341.29,1009.76 1342.61,1009.6 1343.93,1009.45 1345.25,1009.29 1346.57,1009.14 1347.88,1008.98 1349.2,1008.83 1350.52,1008.67 1351.84,1008.52 1353.16,1008.37 1354.48,1008.22 1355.8,1008.07 1357.12,1007.92 1358.43,1007.76 1359.75,1007.61 1361.07,1007.47 1362.39,1007.32 1363.71,1007.17 1365.03,1007.02 1366.35,1006.87 1367.67,1006.73 1368.98,1006.58 1370.3,1006.44 1371.62,1006.29 1372.94,1006.15 1374.26,1006 1375.58,1005.86 1376.9,1005.72 1378.22,1005.58 1379.53,1005.44 1380.85,1005.3 1382.17,1005.16 1383.49,1005.02 1384.81,1004.88 1386.13,1004.75 1387.45,1004.61 1388.77,1004.47 1390.08,1004.34 1391.4,1004.21 1392.72,1004.07 1394.04,1003.94 1395.36,1003.81 1396.68,1003.68 1398,1003.55 1399.32,1003.42 1400.63,1003.29 1401.95,1003.17 1403.27,1003.04 1404.59,1002.91 1405.91,1002.79 1407.23,1002.67 1408.55,1002.54 1409.86,1002.42 1411.18,1002.3 1412.5,1002.18 1413.82,1002.06 1415.14,1001.95 1416.46,1001.83 1417.78,1001.71 1419.1,1001.6 1420.41,1001.49 1421.73,1001.37 1423.05,1001.26 1424.37,1001.15 1425.69,1001.04 1427.01,1000.93 1428.33,1000.83 1429.65,1000.72 1430.96,1000.62 1432.28,1000.51 1433.6,1000.41 1434.92,1000.31 1436.24,1000.21 1437.56,1000.11 1438.88,1000.01 1440.2,999.911 1441.51,999.815 1442.83,999.72 1444.15,999.626 1445.47,999.533 1446.79,999.442 1448.11,999.352 1449.43,999.262 1450.75,999.175 1452.06,999.088 1453.38,999.002 1454.7,998.918 1456.02,998.835 1457.34,998.753 1458.66,998.672 1459.98,998.593 1461.3,998.515 1462.61,998.438 1463.93,998.362 1465.25,998.288 1466.57,998.215 1467.89,998.143 1469.21,998.072 1470.53,998.003 1471.85,997.935 1473.16,997.868 1474.48,997.803 1475.8,997.739 1477.12,997.676 1478.44,997.614 1479.76,997.554 1481.08,997.495 1482.39,997.437 1483.71,997.381 1485.03,997.326 1486.35,997.272 1487.67,997.22 1488.99,997.169 1490.31,997.119 1491.63,997.071 1492.94,997.024 1494.26,996.978 1495.58,996.934 1496.9,996.891 1498.22,996.85 1499.54,996.809 1500.86,996.77 1502.18,996.733 1503.49,996.697 1504.81,996.662 1506.13,996.628 1507.45,996.596 1508.77,996.566 1510.09,996.536 1511.41,996.508 1512.73,996.482 1514.04,996.456 1515.36,996.432 1516.68,996.41 1518,996.389 1519.32,996.369 1520.64,996.35 1521.96,996.333 1523.28,996.318 1524.59,996.303 1525.91,996.29 1527.23,996.279 1528.55,996.269 1529.87,996.26 1531.19,996.252 1532.51,996.246 1533.83,996.241 1535.14,996.238 1536.46,996.236 1537.78,996.235 1539.1,996.236 1540.42,996.238 1541.74,996.242 1543.06,996.246 1544.38,996.253 1545.69,996.26 1547.01,996.269 1548.33,996.279 1549.65,996.291 1550.97,996.304 1552.29,996.318 1553.61,996.333 1554.93,996.35 1556.24,996.369 1557.56,996.388 1558.88,996.409 1560.2,996.431 1561.52,996.455 1562.84,996.48 1564.16,996.506 1565.47,996.533 1566.79,996.562 1568.11,996.592 1569.43,996.624 1570.75,996.656 1572.07,996.69 1573.39,996.725 1574.71,996.762 1576.02,996.8 1577.34,996.839 1578.66,996.879 1579.98,996.921 1581.3,996.964 1582.62,997.008 1583.94,997.053 1585.26,997.1 1586.57,997.148 1587.89,997.197 1589.21,997.247 1590.53,997.299 1591.85,997.351 1593.17,997.405 1594.49,997.46 1595.81,997.517 1597.12,997.574 1598.44,997.633 1599.76,997.693 1601.08,997.754 1602.4,997.816 1603.72,997.88 1605.04,997.944 1606.36,998.01 1607.67,998.077 1608.99,998.145 1610.31,998.214 1611.63,998.284 1612.95,998.355 1614.27,998.428 1615.59,998.501 1616.91,998.576 1618.22,998.651 1619.54,998.728 1620.86,998.806 1622.18,998.885 1623.5,998.965 1624.82,999.046 1626.14,999.128 1627.46,999.211 1628.77,999.295 1630.09,999.38 1631.41,999.466 1632.73,999.553 1634.05,999.641 1635.37,999.73 1636.69,999.819 1638,999.91 1639.32,1000 1640.64,1000.09 1641.96,1000.19 1643.28,1000.28 1644.6,1000.38 1645.92,1000.48 1647.24,1000.57 1648.55,1000.67 1649.87,1000.77 1651.19,1000.87 1652.51,1000.97 1653.83,1001.07 1655.15,1001.17 1656.47,1001.28 1657.79,1001.38 1659.1,1001.49 1660.42,1001.59 1661.74,1001.7 1663.06,1001.81 1664.38,1001.91 1665.7,1002.02 1667.02,1002.13 1668.34,1002.24 1669.65,1002.35 1670.97,1002.47 1672.29,1002.58 1673.61,1002.69 1674.93,1002.8 1676.25,1002.92 1677.57,1003.03 1678.89,1003.15 1680.2,1003.27 1681.52,1003.38 1682.84,1003.5 1684.16,1003.62 1685.48,1003.74 1686.8,1003.86 1688.12,1003.98 1689.44,1004.1 1690.75,1004.22 1692.07,1004.34 1693.39,1004.46 1694.71,1004.58 1696.03,1004.71 1697.35,1004.83 1698.67,1004.96 1699.99,1005.08 1701.3,1005.2 1702.62,1005.33 1703.94,1005.46 1705.26,1005.58 1706.58,1005.71 1707.9,1005.84 1709.22,1005.96 1710.54,1006.09 1711.85,1006.22 1713.17,1006.35 1714.49,1006.48 1715.81,1006.61 1717.13,1006.74 1718.45,1006.87 1719.77,1007 1721.08,1007.13 1722.4,1007.26 1723.72,1007.39 1725.04,1007.52 1726.36,1007.65 1727.68,1007.78 1729,1007.92 1730.32,1008.05 1731.63,1008.18 1732.95,1008.31 1734.27,1008.45 1735.59,1008.58 1736.91,1008.71 1738.23,1008.84 1739.55,1008.98 1740.87,1009.11 1742.18,1009.24 1743.5,1009.38 1744.82,1009.51 1746.14,1009.65 1747.46,1009.78 1748.78,1009.91 1750.1,1010.05 1751.42,1010.18 1752.73,1010.31 1754.05,1010.45 1755.37,1010.58 1756.69,1010.72 1758.01,1010.85 1759.33,1010.98 1760.65,1011.12 1761.97,1011.25 1763.28,1011.38 1764.6,1011.52 1765.92,1011.65 1767.24,1011.78 1768.56,1011.92 1769.88,1012.05 1771.2,1012.18 1772.52,1012.31 1773.83,1012.45 1775.15,1012.58 1776.47,1012.71 1777.79,1012.84 1779.11,1012.97 1780.43,1013.1 1781.75,1013.23 1783.07,1013.36 1784.38,1013.49 1785.7,1013.62 1787.02,1013.75 1788.34,1013.88 1789.66,1014.01 1790.98,1014.14 1792.3,1014.27 1793.61,1014.4 1794.93,1014.53 1796.25,1014.65 1797.57,1014.78 1798.89,1014.91 1800.21,1015.03 1801.53,1015.16 1802.85,1015.28 1804.16,1015.41 1805.48,1015.53 1806.8,1015.66 1808.12,1015.78 1809.44,1015.9 1810.76,1016.03 1812.08,1016.15 1813.4,1016.27 1814.71,1016.39 1816.03,1016.51 1817.35,1016.63 1818.67,1016.75 1819.99,1016.87 1821.31,1016.99 1822.63,1017.1 1823.95,1017.22 1825.26,1017.34 1826.58,1017.45 1827.9,1017.57 1829.22,1017.68 1830.54,1017.8 1831.86,1017.91 1833.18,1018.02 1834.5,1018.13 1835.81,1018.25 1837.13,1018.36 1838.45,1018.47 1839.77,1018.57 1841.09,1018.68 1842.41,1018.79 1843.73,1018.9 1845.05,1019 1846.36,1019.11 1847.68,1019.21 1849,1019.32 1850.32,1019.42 1851.64,1019.52 1852.96,1019.62 1854.28,1019.73 1855.6,1019.83 1856.91,1019.92 1858.23,1020.02 1859.55,1020.12 1860.87,1020.22 1862.19,1020.31 1863.51,1020.41 1864.83,1020.5 1866.14,1020.59 1867.46,1020.69 1868.78,1020.78 1870.1,1020.87 1871.42,1020.96 1872.74,1021.05 1874.06,1021.13 1875.38,1021.22 1876.69,1021.31 1878.01,1021.39 1879.33,1021.48 1880.65,1021.56 1881.97,1021.64 1883.29,1021.72 1884.61,1021.8 1885.93,1021.88 1887.24,1021.96 1888.56,1022.04 1889.88,1022.11 1891.2,1022.19 1892.52,1022.26 1893.84,1022.33 1895.16,1022.41 1896.48,1022.48 1897.79,1022.55 1899.11,1022.62 1900.43,1022.68 1901.75,1022.75 1903.07,1022.82 1904.39,1022.88 1905.71,1022.95 1907.03,1023.01 1908.34,1023.07 1909.66,1023.13 1910.98,1023.19 1912.3,1023.24 1913.62,1023.3 1914.94,1023.35 1916.26,1023.41 1917.58,1023.46 1918.89,1023.51 1920.21,1023.55 1921.53,1023.6 1922.85,1023.65 1924.17,1023.69 1925.49,1023.73 1926.81,1023.77 1928.13,1023.81 1929.44,1023.84 1930.76,1023.88 1932.08,1023.91 1933.4,1023.94 1934.72,1023.97 1936.04,1023.99 1937.36,1024.02 1938.68,1024.04 1939.99,1024.06 1941.31,1024.08 1942.63,1024.1 1943.95,1024.11 1945.27,1024.12 1946.59,1024.13 1947.91,1024.14 1949.22,1024.14 1950.54,1024.15 1951.86,1024.15 1953.18,1024.15 1954.5,1024.14 1955.82,1024.13 1957.14,1024.13 1958.46,1024.11 1959.77,1024.1 1961.09,1024.08 1962.41,1024.06 1963.73,1024.04 1965.05,1024.02 1966.37,1023.99 1967.69,1023.96 1969.01,1023.93 1970.32,1023.9 1971.64,1023.86 1972.96,1023.82 1974.28,1023.78 1975.6,1023.74 1976.92,1023.69 1978.24,1023.64 1979.56,1023.59 1980.87,1023.54 1982.19,1023.48 1983.51,1023.42 1984.83,1023.36 1986.15,1023.3 1987.47,1023.23 1988.79,1023.16 1990.11,1023.09 1991.42,1023.02 1992.74,1022.94 1994.06,1022.86 1995.38,1022.78 1996.7,1022.7 1998.02,1022.61 1999.34,1022.52 2000.66,1022.43 2001.97,1022.34 2003.29,1022.25 2004.61,1022.15 2005.93,1022.05 2007.25,1021.95 2008.57,1021.85 2009.89,1021.75 2011.21,1021.64 2012.52,1021.54 2013.84,1021.43 2015.16,1021.32 2016.48,1021.2 2017.8,1021.09 2019.12,1020.97 2020.44,1020.86 2021.75,1020.74 2023.07,1020.62 2024.39,1020.5 2025.71,1020.38 2027.03,1020.25 2028.35,1020.13 2029.67,1020 2030.99,1019.88 2032.3,1019.75 2033.62,1019.62 2034.94,1019.49 2036.26,1019.36 2037.58,1019.23 2038.9,1019.1 2040.22,1018.97 2041.54,1018.84 2042.85,1018.71 2044.17,1018.58 2045.49,1018.45 2046.81,1018.31 2048.13,1018.18 2049.45,1018.05 2050.77,1017.92 2052.09,1017.79 2053.4,1017.66 2054.72,1017.52 2056.04,1017.39 2057.36,1017.26 2058.68,1017.13 2060,1017.01 2061.32,1016.88 2062.64,1016.75 2063.95,1016.62 2065.27,1016.5 2066.59,1016.37 2067.91,1016.25 2069.23,1016.13 2070.55,1016.01 2071.87,1015.89 2073.19,1015.77 2074.5,1015.65 2075.82,1015.53 2077.14,1015.42 2078.46,1015.31 2079.78,1015.19 2081.1,1015.08 2082.42,1014.97 2083.74,1014.87 2085.05,1014.76 2086.37,1014.66 2087.69,1014.55 2089.01,1014.45 2090.33,1014.36 2091.65,1014.26 2092.97,1014.16 2094.29,1014.07 2095.6,1013.98 2096.92,1013.89 2098.24,1013.8 2099.56,1013.71 2100.88,1013.63 2102.2,1013.55 2103.52,1013.47 2104.83,1013.39 2106.15,1013.31 2107.47,1013.24 2108.79,1013.17 2110.11,1013.1 2111.43,1013.03 2112.75,1012.96 2114.07,1012.9 2115.38,1012.83 2116.7,1012.77 2118.02,1012.71 2119.34,1012.66 2120.66,1012.6 2121.98,1012.55 2123.3,1012.49 2124.62,1012.44 2125.93,1012.4 2127.25,1012.35 2128.57,1012.3 2129.89,1012.26 2131.21,1012.22 2132.53,1012.18 2133.85,1012.14 2135.17,1012.1 2136.48,1012.07 2137.8,1012.03 2139.12,1012 2140.44,1011.97 2141.76,1011.94 2143.08,1011.91 2144.4,1011.89 2145.72,1011.86 2147.03,1011.84 2148.35,1011.81 2149.67,1011.79 2150.99,1011.77 2152.31,1011.75 2153.63,1011.73 2154.95,1011.71 2156.27,1011.7 2157.58,1011.68 2158.9,1011.67 2160.22,1011.65 2161.54,1011.64 2162.86,1011.63 2164.18,1011.62 2165.5,1011.6 2166.82,1011.59 2168.13,1011.59 2169.45,1011.58 2170.77,1011.57 2172.09,1011.56 2173.41,1011.55 2174.73,1011.55 2176.05,1011.54 2177.36,1011.54 2178.68,1011.53 2180,1011.53 2181.32,1011.53 2182.64,1011.52 2183.96,1011.52 2185.28,1011.52 2186.6,1011.51 2187.91,1011.51 2189.23,1011.51 2190.55,1011.51 2191.87,1011.51 2193.19,1011.51 2194.51,1011.51 2195.83,1011.5 2197.15,1011.5 2198.46,1011.5 2199.78,1011.5 2201.1,1011.5 2202.42,1011.5 2203.74,1011.5 2205.06,1011.5 2206.38,1011.5 2207.7,1011.51 2209.01,1011.51 2210.33,1011.51 2211.65,1011.51 2212.97,1011.51 2214.29,1011.51 2215.61,1011.51 2216.93,1011.51 2218.25,1011.51 2219.56,1011.51 2220.88,1011.51 2222.2,1011.51 2223.52,1011.52 2224.84,1011.52 2226.16,1011.52 2227.48,1011.52 2228.8,1011.52 2230.11,1011.52 2231.43,1011.52 2232.75,1011.52 2234.07,1011.52 2235.39,1011.52 2236.71,1011.52 2238.03,1011.53 2239.35,1011.53 2240.66,1011.53 2241.98,1011.53 2243.3,1011.53 2244.62,1011.53 2245.94,1011.53 2247.26,1011.53 2248.58,1011.53 2249.9,1011.53 2251.21,1011.53 2252.53,1011.53 2253.85,1011.53 2255.17,1011.53 2256.49,1011.53 2257.81,1011.54 2259.13,1011.54 2260.44,1011.54 2261.76,1011.54 2263.08,1011.54 2264.4,1011.54 2265.72,1011.54 2267.04,1011.54 2268.36,1011.54 2269.68,1011.54 2270.99,1011.54 2272.31,1011.54 2273.63,1011.54 2274.95,1011.54 2276.27,1011.54 2277.59,1011.54 2278.91,1011.54 2280.23,1011.54 2281.54,1011.54 2282.86,1011.54 2284.18,1011.54 2285.5,1011.54 2286.82,1011.54 2288.14,1011.54 2289.46,1011.54 2290.78,1011.54 2292.09,1011.54 2293.41,1011.54 "/>
<path clip-path="url(#clip800)" d="M1966.89 248.629 L2282.86 248.629 L2282.86 93.1086 L1966.89 93.1086  Z" fill="#ffffff" fill-rule="evenodd" fill-opacity="1"/>
<polyline clip-path="url(#clip800)" style="stroke:#000000; stroke-linecap:round; stroke-linejoin:round; stroke-width:4; stroke-opacity:1; fill:none" points="1966.89,248.629 2282.86,248.629 2282.86,93.1086 1966.89,93.1086 1966.89,248.629 "/>
<polyline clip-path="url(#clip800)" style="stroke:#009af9; stroke-linecap:round; stroke-linejoin:round; stroke-width:4; stroke-opacity:1; fill:none" points="1990.19,144.949 2129.97,144.949 "/>
<path clip-path="url(#clip800)" d="M2153.27 127.669 L2157.95 127.669 L2157.95 158.293 L2174.77 158.293 L2174.77 162.229 L2153.27 162.229 L2153.27 127.669 Z" fill="#000000" fill-rule="nonzero" fill-opacity="1" /><path clip-path="url(#clip800)" d="M2184.36 131.511 L2184.36 144.497 L2190.24 144.497 Q2193.5 144.497 2195.28 142.807 Q2197.07 141.118 2197.07 137.993 Q2197.07 134.891 2195.28 133.201 Q2193.5 131.511 2190.24 131.511 L2184.36 131.511 M2179.68 127.669 L2190.24 127.669 Q2196.05 127.669 2199.01 130.307 Q2202 132.923 2202 137.993 Q2202 143.108 2199.01 145.724 Q2196.05 148.34 2190.24 148.34 L2184.36 148.34 L2184.36 162.229 L2179.68 162.229 L2179.68 127.669 Z" fill="#000000" fill-rule="nonzero" fill-opacity="1" /><path clip-path="url(#clip800)" d="M2218.69 130.747 Q2215.08 130.747 2213.25 134.312 Q2211.44 137.854 2211.44 144.983 Q2211.44 152.09 2213.25 155.655 Q2215.08 159.196 2218.69 159.196 Q2222.32 159.196 2224.13 155.655 Q2225.95 152.09 2225.95 144.983 Q2225.95 137.854 2224.13 134.312 Q2222.32 130.747 2218.69 130.747 M2218.69 127.044 Q2224.5 127.044 2227.55 131.65 Q2230.63 136.233 2230.63 144.983 Q2230.63 153.71 2227.55 158.317 Q2224.5 162.9 2218.69 162.9 Q2212.88 162.9 2209.8 158.317 Q2206.74 153.71 2206.74 144.983 Q2206.74 136.233 2209.8 131.65 Q2212.88 127.044 2218.69 127.044 Z" fill="#000000" fill-rule="nonzero" fill-opacity="1" /><path clip-path="url(#clip800)" d="M2239.66 158.293 L2247.3 158.293 L2247.3 131.928 L2238.99 133.595 L2238.99 129.335 L2247.25 127.669 L2251.93 127.669 L2251.93 158.293 L2259.57 158.293 L2259.57 162.229 L2239.66 162.229 L2239.66 158.293 Z" fill="#000000" fill-rule="nonzero" fill-opacity="1" /><polyline clip-path="url(#clip800)" style="stroke:#e26f46; stroke-linecap:round; stroke-linejoin:round; stroke-width:4; stroke-opacity:1; fill:none" points="1990.19,196.789 2129.97,196.789 "/>
<path clip-path="url(#clip800)" d="M2153.27 179.509 L2157.95 179.509 L2157.95 210.133 L2174.77 210.133 L2174.77 214.069 L2153.27 214.069 L2153.27 179.509 Z" fill="#000000" fill-rule="nonzero" fill-opacity="1" /><path clip-path="url(#clip800)" d="M2184.36 183.351 L2184.36 196.337 L2190.24 196.337 Q2193.5 196.337 2195.28 194.647 Q2197.07 192.958 2197.07 189.833 Q2197.07 186.731 2195.28 185.041 Q2193.5 183.351 2190.24 183.351 L2184.36 183.351 M2179.68 179.509 L2190.24 179.509 Q2196.05 179.509 2199.01 182.147 Q2202 184.763 2202 189.833 Q2202 194.948 2199.01 197.564 Q2196.05 200.18 2190.24 200.18 L2184.36 200.18 L2184.36 214.069 L2179.68 214.069 L2179.68 179.509 Z" fill="#000000" fill-rule="nonzero" fill-opacity="1" /><path clip-path="url(#clip800)" d="M2218.69 182.587 Q2215.08 182.587 2213.25 186.152 Q2211.44 189.694 2211.44 196.823 Q2211.44 203.93 2213.25 207.495 Q2215.08 211.036 2218.69 211.036 Q2222.32 211.036 2224.13 207.495 Q2225.95 203.93 2225.95 196.823 Q2225.95 189.694 2224.13 186.152 Q2222.32 182.587 2218.69 182.587 M2218.69 178.884 Q2224.5 178.884 2227.55 183.49 Q2230.63 188.073 2230.63 196.823 Q2230.63 205.55 2227.55 210.157 Q2224.5 214.74 2218.69 214.74 Q2212.88 214.74 2209.8 210.157 Q2206.74 205.55 2206.74 196.823 Q2206.74 188.073 2209.8 183.49 Q2212.88 178.884 2218.69 178.884 Z" fill="#000000" fill-rule="nonzero" fill-opacity="1" /><path clip-path="url(#clip800)" d="M2242.88 210.133 L2259.2 210.133 L2259.2 214.069 L2237.25 214.069 L2237.25 210.133 Q2239.91 207.379 2244.5 202.749 Q2249.1 198.096 2250.28 196.754 Q2252.53 194.231 2253.41 192.495 Q2254.31 190.735 2254.31 189.046 Q2254.31 186.291 2252.37 184.555 Q2250.45 182.819 2247.34 182.819 Q2245.14 182.819 2242.69 183.583 Q2240.26 184.347 2237.48 185.897 L2237.48 181.175 Q2240.31 180.041 2242.76 179.462 Q2245.21 178.884 2247.25 178.884 Q2252.62 178.884 2255.82 181.569 Q2259.01 184.254 2259.01 188.745 Q2259.01 190.874 2258.2 192.796 Q2257.41 194.694 2255.31 197.286 Q2254.73 197.958 2251.63 201.175 Q2248.52 204.37 2242.88 210.133 Z" fill="#000000" fill-rule="nonzero" fill-opacity="1" /></svg>
