<?xml version="1.0" encoding="utf-8"?>
<svg xmlns="http://www.w3.org/2000/svg" xmlns:xlink="http://www.w3.org/1999/xlink" width="600" height="400" viewBox="0 0 2400 1600">
<defs>
  <clipPath id="clip020">
    <rect x="0" y="0" width="2400" height="1600"/>
  </clipPath>
</defs>
<path clip-path="url(#clip020)" d="M0 1600 L2400 1600 L2400 0 L0 0  Z" fill="#ffffff" fill-rule="evenodd" fill-opacity="1"/>
<defs>
  <clipPath id="clip021">
    <rect x="480" y="0" width="1681" height="1600"/>
  </clipPath>
</defs>
<path clip-path="url(#clip020)" d="M255.977 1423.18 L2352.76 1423.18 L2352.76 47.2441 L255.977 47.2441  Z" fill="#ffffff" fill-rule="evenodd" fill-opacity="1"/>
<defs>
  <clipPath id="clip022">
    <rect x="255" y="47" width="2098" height="1377"/>
  </clipPath>
</defs>
<polyline clip-path="url(#clip022)" style="stroke:#000000; stroke-linecap:round; stroke-linejoin:round; stroke-width:2; stroke-opacity:0.1; fill:none" points="315.32,1423.18 315.32,47.2441 "/>
<polyline clip-path="url(#clip022)" style="stroke:#000000; stroke-linecap:round; stroke-linejoin:round; stroke-width:2; stroke-opacity:0.1; fill:none" points="974.684,1423.18 974.684,47.2441 "/>
<polyline clip-path="url(#clip022)" style="stroke:#000000; stroke-linecap:round; stroke-linejoin:round; stroke-width:2; stroke-opacity:0.1; fill:none" points="1634.05,1423.18 1634.05,47.2441 "/>
<polyline clip-path="url(#clip022)" style="stroke:#000000; stroke-linecap:round; stroke-linejoin:round; stroke-width:2; stroke-opacity:0.1; fill:none" points="2293.41,1423.18 2293.41,47.2441 "/>
<polyline clip-path="url(#clip022)" style="stroke:#000000; stroke-linecap:round; stroke-linejoin:round; stroke-width:2; stroke-opacity:0.1; fill:none" points="255.977,1143.22 2352.76,1143.22 "/>
<polyline clip-path="url(#clip022)" style="stroke:#000000; stroke-linecap:round; stroke-linejoin:round; stroke-width:2; stroke-opacity:0.1; fill:none" points="255.977,855.341 2352.76,855.341 "/>
<polyline clip-path="url(#clip022)" style="stroke:#000000; stroke-linecap:round; stroke-linejoin:round; stroke-width:2; stroke-opacity:0.1; fill:none" points="255.977,567.459 2352.76,567.459 "/>
<polyline clip-path="url(#clip022)" style="stroke:#000000; stroke-linecap:round; stroke-linejoin:round; stroke-width:2; stroke-opacity:0.1; fill:none" points="255.977,279.577 2352.76,279.577 "/>
<polyline clip-path="url(#clip020)" style="stroke:#000000; stroke-linecap:round; stroke-linejoin:round; stroke-width:4; stroke-opacity:1; fill:none" points="255.977,1423.18 2352.76,1423.18 "/>
<polyline clip-path="url(#clip020)" style="stroke:#000000; stroke-linecap:round; stroke-linejoin:round; stroke-width:4; stroke-opacity:1; fill:none" points="315.32,1423.18 315.32,1404.28 "/>
<polyline clip-path="url(#clip020)" style="stroke:#000000; stroke-linecap:round; stroke-linejoin:round; stroke-width:4; stroke-opacity:1; fill:none" points="974.684,1423.18 974.684,1404.28 "/>
<polyline clip-path="url(#clip020)" style="stroke:#000000; stroke-linecap:round; stroke-linejoin:round; stroke-width:4; stroke-opacity:1; fill:none" points="1634.05,1423.18 1634.05,1404.28 "/>
<polyline clip-path="url(#clip020)" style="stroke:#000000; stroke-linecap:round; stroke-linejoin:round; stroke-width:4; stroke-opacity:1; fill:none" points="2293.41,1423.18 2293.41,1404.28 "/>
<path clip-path="url(#clip020)" d="M315.32 1454.1 Q311.709 1454.1 309.88 1457.66 Q308.075 1461.2 308.075 1468.33 Q308.075 1475.44 309.88 1479.01 Q311.709 1482.55 315.32 1482.55 Q318.954 1482.55 320.76 1479.01 Q322.588 1475.44 322.588 1468.33 Q322.588 1461.2 320.76 1457.66 Q318.954 1454.1 315.32 1454.1 M315.32 1450.39 Q321.13 1450.39 324.186 1455 Q327.264 1459.58 327.264 1468.33 Q327.264 1477.06 324.186 1481.67 Q321.13 1486.25 315.32 1486.25 Q309.51 1486.25 306.431 1481.67 Q303.376 1477.06 303.376 1468.33 Q303.376 1459.58 306.431 1455 Q309.51 1450.39 315.32 1450.39 Z" fill="#000000" fill-rule="nonzero" fill-opacity="1" /><path clip-path="url(#clip020)" d="M964.962 1451.02 L983.319 1451.02 L983.319 1454.96 L969.245 1454.96 L969.245 1463.43 Q970.263 1463.08 971.282 1462.92 Q972.3 1462.73 973.319 1462.73 Q979.106 1462.73 982.485 1465.9 Q985.865 1469.08 985.865 1474.49 Q985.865 1480.07 982.393 1483.17 Q978.92 1486.25 972.601 1486.25 Q970.425 1486.25 968.157 1485.88 Q965.911 1485.51 963.504 1484.77 L963.504 1480.07 Q965.587 1481.2 967.809 1481.76 Q970.032 1482.32 972.508 1482.32 Q976.513 1482.32 978.851 1480.21 Q981.189 1478.1 981.189 1474.49 Q981.189 1470.88 978.851 1468.77 Q976.513 1466.67 972.508 1466.67 Q970.633 1466.67 968.758 1467.08 Q966.907 1467.5 964.962 1468.38 L964.962 1451.02 Z" fill="#000000" fill-rule="nonzero" fill-opacity="1" /><path clip-path="url(#clip020)" d="M1608.74 1481.64 L1616.38 1481.64 L1616.38 1455.28 L1608.07 1456.95 L1608.07 1452.69 L1616.33 1451.02 L1621 1451.02 L1621 1481.64 L1628.64 1481.64 L1628.64 1485.58 L1608.74 1485.58 L1608.74 1481.64 Z" fill="#000000" fill-rule="nonzero" fill-opacity="1" /><path clip-path="url(#clip020)" d="M1648.09 1454.1 Q1644.48 1454.1 1642.65 1457.66 Q1640.84 1461.2 1640.84 1468.33 Q1640.84 1475.44 1642.65 1479.01 Q1644.48 1482.55 1648.09 1482.55 Q1651.72 1482.55 1653.53 1479.01 Q1655.36 1475.44 1655.36 1468.33 Q1655.36 1461.2 1653.53 1457.66 Q1651.72 1454.1 1648.09 1454.1 M1648.09 1450.39 Q1653.9 1450.39 1656.95 1455 Q1660.03 1459.58 1660.03 1468.33 Q1660.03 1477.06 1656.95 1481.67 Q1653.9 1486.25 1648.09 1486.25 Q1642.28 1486.25 1639.2 1481.67 Q1636.14 1477.06 1636.14 1468.33 Q1636.14 1459.58 1639.2 1455 Q1642.28 1450.39 1648.09 1450.39 Z" fill="#000000" fill-rule="nonzero" fill-opacity="1" /><path clip-path="url(#clip020)" d="M2268.6 1481.64 L2276.24 1481.64 L2276.24 1455.28 L2267.93 1456.95 L2267.93 1452.69 L2276.19 1451.02 L2280.87 1451.02 L2280.87 1481.64 L2288.51 1481.64 L2288.51 1485.58 L2268.6 1485.58 L2268.6 1481.64 Z" fill="#000000" fill-rule="nonzero" fill-opacity="1" /><path clip-path="url(#clip020)" d="M2298 1451.02 L2316.35 1451.02 L2316.35 1454.96 L2302.28 1454.96 L2302.28 1463.43 Q2303.3 1463.08 2304.32 1462.92 Q2305.33 1462.73 2306.35 1462.73 Q2312.14 1462.73 2315.52 1465.9 Q2318.9 1469.08 2318.9 1474.49 Q2318.9 1480.07 2315.43 1483.17 Q2311.95 1486.25 2305.64 1486.25 Q2303.46 1486.25 2301.19 1485.88 Q2298.95 1485.51 2296.54 1484.77 L2296.54 1480.07 Q2298.62 1481.2 2300.84 1481.76 Q2303.07 1482.32 2305.54 1482.32 Q2309.55 1482.32 2311.89 1480.21 Q2314.22 1478.1 2314.22 1474.49 Q2314.22 1470.88 2311.89 1468.77 Q2309.55 1466.67 2305.54 1466.67 Q2303.67 1466.67 2301.79 1467.08 Q2299.94 1467.5 2298 1468.38 L2298 1451.02 Z" fill="#000000" fill-rule="nonzero" fill-opacity="1" /><path clip-path="url(#clip020)" d="M1229.33 1537.87 Q1228.34 1537.3 1227.17 1537.04 Q1226.02 1536.76 1224.62 1536.76 Q1219.65 1536.76 1216.98 1540 Q1214.34 1543.22 1214.34 1549.27 L1214.34 1568.04 L1208.45 1568.04 L1208.45 1532.4 L1214.34 1532.4 L1214.34 1537.93 Q1216.19 1534.69 1219.15 1533.13 Q1222.11 1531.54 1226.34 1531.54 Q1226.94 1531.54 1227.68 1531.63 Q1228.41 1531.7 1229.3 1531.85 L1229.33 1537.87 Z" fill="#000000" fill-rule="nonzero" fill-opacity="1" /><path clip-path="url(#clip020)" d="M1270.26 1518.58 Q1266 1525.9 1263.93 1533.06 Q1261.86 1540.23 1261.86 1547.58 Q1261.86 1554.93 1263.93 1562.16 Q1266.03 1569.35 1270.26 1576.64 L1265.17 1576.64 Q1260.4 1569.16 1258.01 1561.93 Q1255.65 1554.71 1255.65 1547.58 Q1255.65 1540.48 1258.01 1533.29 Q1260.36 1526.09 1265.17 1518.58 L1270.26 1518.58 Z" fill="#000000" fill-rule="nonzero" fill-opacity="1" /><path clip-path="url(#clip020)" d="M1281.02 1581.6 L1281.02 1532.4 L1286.88 1532.4 L1286.88 1554.55 Q1286.88 1559.16 1289.07 1561.52 Q1291.27 1563.87 1295.57 1563.87 Q1300.28 1563.87 1302.63 1561.2 Q1305.02 1558.53 1305.02 1553.18 L1305.02 1532.4 L1310.88 1532.4 L1310.88 1559.83 Q1310.88 1561.74 1311.42 1562.66 Q1311.99 1563.56 1313.17 1563.56 Q1313.45 1563.56 1313.96 1563.4 Q1314.47 1563.21 1315.36 1562.82 L1315.36 1567.53 Q1314.06 1568.27 1312.88 1568.62 Q1311.73 1568.97 1310.62 1568.97 Q1308.42 1568.97 1307.12 1567.73 Q1305.81 1566.48 1305.34 1563.94 Q1303.75 1566.45 1301.42 1567.73 Q1299.13 1568.97 1296.01 1568.97 Q1292.77 1568.97 1290.47 1567.73 Q1288.21 1566.48 1286.88 1564 L1286.88 1581.6 L1281.02 1581.6 Z" fill="#000000" fill-rule="nonzero" fill-opacity="1" /><path clip-path="url(#clip020)" d="M1350.85 1539.24 Q1353.05 1535.29 1356.1 1533.41 Q1359.16 1531.54 1363.3 1531.54 Q1368.87 1531.54 1371.89 1535.45 Q1374.91 1539.33 1374.91 1546.53 L1374.91 1568.04 L1369.03 1568.04 L1369.03 1546.72 Q1369.03 1541.59 1367.21 1539.11 Q1365.4 1536.63 1361.67 1536.63 Q1357.12 1536.63 1354.48 1539.65 Q1351.84 1542.68 1351.84 1547.9 L1351.84 1568.04 L1345.95 1568.04 L1345.95 1546.72 Q1345.95 1541.56 1344.14 1539.11 Q1342.32 1536.63 1338.53 1536.63 Q1334.05 1536.63 1331.4 1539.68 Q1328.76 1542.71 1328.76 1547.9 L1328.76 1568.04 L1322.87 1568.04 L1322.87 1532.4 L1328.76 1532.4 L1328.76 1537.93 Q1330.77 1534.66 1333.57 1533.1 Q1336.37 1531.54 1340.22 1531.54 Q1344.1 1531.54 1346.81 1533.51 Q1349.55 1535.48 1350.85 1539.24 Z" fill="#000000" fill-rule="nonzero" fill-opacity="1" /><path clip-path="url(#clip020)" d="M1385.67 1518.58 L1390.77 1518.58 Q1395.54 1526.09 1397.89 1533.29 Q1400.28 1540.48 1400.28 1547.58 Q1400.28 1554.71 1397.89 1561.93 Q1395.54 1569.16 1390.77 1576.64 L1385.67 1576.64 Q1389.91 1569.35 1391.97 1562.16 Q1394.08 1554.93 1394.08 1547.58 Q1394.08 1540.23 1391.97 1533.06 Q1389.91 1525.9 1385.67 1518.58 Z" fill="#000000" fill-rule="nonzero" fill-opacity="1" /><polyline clip-path="url(#clip020)" style="stroke:#000000; stroke-linecap:round; stroke-linejoin:round; stroke-width:4; stroke-opacity:1; fill:none" points="255.977,1423.18 255.977,47.2441 "/>
<polyline clip-path="url(#clip020)" style="stroke:#000000; stroke-linecap:round; stroke-linejoin:round; stroke-width:4; stroke-opacity:1; fill:none" points="255.977,1143.22 274.875,1143.22 "/>
<polyline clip-path="url(#clip020)" style="stroke:#000000; stroke-linecap:round; stroke-linejoin:round; stroke-width:4; stroke-opacity:1; fill:none" points="255.977,855.341 274.875,855.341 "/>
<polyline clip-path="url(#clip020)" style="stroke:#000000; stroke-linecap:round; stroke-linejoin:round; stroke-width:4; stroke-opacity:1; fill:none" points="255.977,567.459 274.875,567.459 "/>
<polyline clip-path="url(#clip020)" style="stroke:#000000; stroke-linecap:round; stroke-linejoin:round; stroke-width:4; stroke-opacity:1; fill:none" points="255.977,279.577 274.875,279.577 "/>
<path clip-path="url(#clip020)" d="M114.631 1143.67 L144.306 1143.67 L144.306 1147.61 L114.631 1147.61 L114.631 1143.67 Z" fill="#000000" fill-rule="nonzero" fill-opacity="1" /><path clip-path="url(#clip020)" d="M164.399 1129.02 Q160.788 1129.02 158.959 1132.59 Q157.153 1136.13 157.153 1143.26 Q157.153 1150.36 158.959 1153.93 Q160.788 1157.47 164.399 1157.47 Q168.033 1157.47 169.839 1153.93 Q171.667 1150.36 171.667 1143.26 Q171.667 1136.13 169.839 1132.59 Q168.033 1129.02 164.399 1129.02 M164.399 1125.32 Q170.209 1125.32 173.264 1129.92 Q176.343 1134.51 176.343 1143.26 Q176.343 1151.98 173.264 1156.59 Q170.209 1161.17 164.399 1161.17 Q158.589 1161.17 155.51 1156.59 Q152.454 1151.98 152.454 1143.26 Q152.454 1134.51 155.51 1129.92 Q158.589 1125.32 164.399 1125.32 Z" fill="#000000" fill-rule="nonzero" fill-opacity="1" /><path clip-path="url(#clip020)" d="M184.561 1154.62 L189.445 1154.62 L189.445 1160.5 L184.561 1160.5 L184.561 1154.62 Z" fill="#000000" fill-rule="nonzero" fill-opacity="1" /><path clip-path="url(#clip020)" d="M203.658 1156.57 L219.977 1156.57 L219.977 1160.5 L198.033 1160.5 L198.033 1156.57 Q200.695 1153.81 205.278 1149.18 Q209.885 1144.53 211.065 1143.19 Q213.311 1140.66 214.19 1138.93 Q215.093 1137.17 215.093 1135.48 Q215.093 1132.72 213.149 1130.99 Q211.227 1129.25 208.125 1129.25 Q205.926 1129.25 203.473 1130.02 Q201.042 1130.78 198.264 1132.33 L198.264 1127.61 Q201.088 1126.47 203.542 1125.9 Q205.996 1125.32 208.033 1125.32 Q213.403 1125.32 216.598 1128 Q219.792 1130.69 219.792 1135.18 Q219.792 1137.31 218.982 1139.23 Q218.195 1141.13 216.088 1143.72 Q215.51 1144.39 212.408 1147.61 Q209.306 1150.8 203.658 1156.57 Z" fill="#000000" fill-rule="nonzero" fill-opacity="1" /><path clip-path="url(#clip020)" d="M114.26 855.792 L143.936 855.792 L143.936 859.727 L114.26 859.727 L114.26 855.792 Z" fill="#000000" fill-rule="nonzero" fill-opacity="1" /><path clip-path="url(#clip020)" d="M164.028 841.139 Q160.417 841.139 158.589 844.704 Q156.783 848.246 156.783 855.375 Q156.783 862.482 158.589 866.046 Q160.417 869.588 164.028 869.588 Q167.663 869.588 169.468 866.046 Q171.297 862.482 171.297 855.375 Q171.297 848.246 169.468 844.704 Q167.663 841.139 164.028 841.139 M164.028 837.436 Q169.839 837.436 172.894 842.042 Q175.973 846.625 175.973 855.375 Q175.973 864.102 172.894 868.709 Q169.839 873.292 164.028 873.292 Q158.218 873.292 155.14 868.709 Q152.084 864.102 152.084 855.375 Q152.084 846.625 155.14 842.042 Q158.218 837.436 164.028 837.436 Z" fill="#000000" fill-rule="nonzero" fill-opacity="1" /><path clip-path="url(#clip020)" d="M184.19 866.741 L189.075 866.741 L189.075 872.621 L184.19 872.621 L184.19 866.741 Z" fill="#000000" fill-rule="nonzero" fill-opacity="1" /><path clip-path="url(#clip020)" d="M200.07 868.685 L207.709 868.685 L207.709 842.32 L199.399 843.986 L199.399 839.727 L207.662 838.061 L212.338 838.061 L212.338 868.685 L219.977 868.685 L219.977 872.621 L200.07 872.621 L200.07 868.685 Z" fill="#000000" fill-rule="nonzero" fill-opacity="1" /><path clip-path="url(#clip020)" d="M162.802 553.258 Q159.19 553.258 157.362 556.822 Q155.556 560.364 155.556 567.494 Q155.556 574.6 157.362 578.165 Q159.19 581.707 162.802 581.707 Q166.436 581.707 168.241 578.165 Q170.07 574.6 170.07 567.494 Q170.07 560.364 168.241 556.822 Q166.436 553.258 162.802 553.258 M162.802 549.554 Q168.612 549.554 171.667 554.16 Q174.746 558.744 174.746 567.494 Q174.746 576.221 171.667 580.827 Q168.612 585.41 162.802 585.41 Q156.991 585.41 153.913 580.827 Q150.857 576.221 150.857 567.494 Q150.857 558.744 153.913 554.16 Q156.991 549.554 162.802 549.554 Z" fill="#000000" fill-rule="nonzero" fill-opacity="1" /><path clip-path="url(#clip020)" d="M182.963 578.859 L187.848 578.859 L187.848 584.739 L182.963 584.739 L182.963 578.859 Z" fill="#000000" fill-rule="nonzero" fill-opacity="1" /><path clip-path="url(#clip020)" d="M208.033 553.258 Q204.422 553.258 202.593 556.822 Q200.787 560.364 200.787 567.494 Q200.787 574.6 202.593 578.165 Q204.422 581.707 208.033 581.707 Q211.667 581.707 213.473 578.165 Q215.301 574.6 215.301 567.494 Q215.301 560.364 213.473 556.822 Q211.667 553.258 208.033 553.258 M208.033 549.554 Q213.843 549.554 216.898 554.16 Q219.977 558.744 219.977 567.494 Q219.977 576.221 216.898 580.827 Q213.843 585.41 208.033 585.41 Q202.223 585.41 199.144 580.827 Q196.088 576.221 196.088 567.494 Q196.088 558.744 199.144 554.16 Q202.223 549.554 208.033 549.554 Z" fill="#000000" fill-rule="nonzero" fill-opacity="1" /><path clip-path="url(#clip020)" d="M164.028 265.376 Q160.417 265.376 158.589 268.941 Q156.783 272.483 156.783 279.612 Q156.783 286.719 158.589 290.283 Q160.417 293.825 164.028 293.825 Q167.663 293.825 169.468 290.283 Q171.297 286.719 171.297 279.612 Q171.297 272.483 169.468 268.941 Q167.663 265.376 164.028 265.376 M164.028 261.672 Q169.839 261.672 172.894 266.279 Q175.973 270.862 175.973 279.612 Q175.973 288.339 172.894 292.945 Q169.839 297.529 164.028 297.529 Q158.218 297.529 155.14 292.945 Q152.084 288.339 152.084 279.612 Q152.084 270.862 155.14 266.279 Q158.218 261.672 164.028 261.672 Z" fill="#000000" fill-rule="nonzero" fill-opacity="1" /><path clip-path="url(#clip020)" d="M184.19 290.978 L189.075 290.978 L189.075 296.857 L184.19 296.857 L184.19 290.978 Z" fill="#000000" fill-rule="nonzero" fill-opacity="1" /><path clip-path="url(#clip020)" d="M200.07 292.922 L207.709 292.922 L207.709 266.557 L199.399 268.223 L199.399 263.964 L207.662 262.297 L212.338 262.297 L212.338 292.922 L219.977 292.922 L219.977 296.857 L200.07 296.857 L200.07 292.922 Z" fill="#000000" fill-rule="nonzero" fill-opacity="1" /><path clip-path="url(#clip020)" d="M33.8307 816.359 Q33.2578 817.345 33.0032 818.523 Q32.7167 819.669 32.7167 821.069 Q32.7167 826.035 35.9632 828.708 Q39.1779 831.35 45.2253 831.35 L64.0042 831.35 L64.0042 837.238 L28.3562 837.238 L28.3562 831.35 L33.8944 831.35 Q30.6479 829.504 29.0883 826.544 Q27.4968 823.584 27.4968 819.351 Q27.4968 818.746 27.5923 818.014 Q27.656 817.282 27.8151 816.391 L33.8307 816.359 Z" fill="#000000" fill-rule="nonzero" fill-opacity="1" /><path clip-path="url(#clip020)" d="M44.7161 781.156 L47.5806 781.156 L47.5806 808.083 Q53.6281 807.701 56.8109 804.455 Q59.9619 801.177 59.9619 795.352 Q59.9619 791.978 59.1344 788.827 Q58.3069 785.644 56.6518 782.525 L62.1899 782.525 Q63.5267 785.676 64.227 788.986 Q64.9272 792.296 64.9272 795.702 Q64.9272 804.232 59.9619 809.229 Q54.9967 814.194 46.5303 814.194 Q37.7774 814.194 32.6531 809.484 Q27.4968 804.741 27.4968 796.721 Q27.4968 789.527 32.1438 785.358 Q36.7589 781.156 44.7161 781.156 M42.9973 787.013 Q38.1912 787.077 35.3266 789.718 Q32.4621 792.328 32.4621 796.657 Q32.4621 801.559 35.2312 804.519 Q38.0002 807.447 43.0292 807.892 L42.9973 787.013 Z" fill="#000000" fill-rule="nonzero" fill-opacity="1" /><path clip-path="url(#clip020)" d="M46.0847 755.344 Q46.0847 762.441 47.7079 765.179 Q49.3312 767.916 53.2461 767.916 Q56.3653 767.916 58.2114 765.879 Q60.0256 763.81 60.0256 760.277 Q60.0256 755.407 56.5881 752.479 Q53.1188 749.519 47.3897 749.519 L46.0847 749.519 L46.0847 755.344 M43.6657 743.662 L64.0042 743.662 L64.0042 749.519 L58.5933 749.519 Q61.8398 751.524 63.3994 754.516 Q64.9272 757.508 64.9272 761.837 Q64.9272 767.311 61.8716 770.558 Q58.7843 773.772 53.6281 773.772 Q47.6125 773.772 44.5569 769.762 Q41.5014 765.72 41.5014 757.731 L41.5014 749.519 L40.9285 749.519 Q36.8862 749.519 34.6901 752.192 Q32.4621 754.834 32.4621 759.64 Q32.4621 762.696 33.1941 765.592 Q33.9262 768.489 35.3903 771.162 L29.9795 771.162 Q28.7381 767.948 28.1334 764.924 Q27.4968 761.9 27.4968 759.036 Q27.4968 751.301 31.5072 747.482 Q35.5176 743.662 43.6657 743.662 Z" fill="#000000" fill-rule="nonzero" fill-opacity="1" /><path clip-path="url(#clip020)" d="M14.479 731.599 L14.479 725.743 L64.0042 725.743 L64.0042 731.599 L14.479 731.599 Z" fill="#000000" fill-rule="nonzero" fill-opacity="1" /><path clip-path="url(#clip020)" d="M14.5426 699.421 Q21.8632 703.686 29.0246 705.755 Q36.186 707.824 43.5384 707.824 Q50.8908 707.824 58.1159 705.755 Q65.3091 703.654 72.5979 699.421 L72.5979 704.513 Q65.1182 709.288 57.8931 711.675 Q50.668 714.03 43.5384 714.03 Q36.4406 714.03 29.2474 711.675 Q22.0542 709.319 14.5426 704.513 L14.5426 699.421 Z" fill="#000000" fill-rule="nonzero" fill-opacity="1" /><path clip-path="url(#clip020)" d="M16.4842 687.803 L16.4842 657.757 L21.895 657.757 L21.895 681.374 L35.9632 681.374 L35.9632 658.744 L41.3741 658.744 L41.3741 681.374 L58.5933 681.374 L58.5933 657.184 L64.0042 657.184 L64.0042 687.803 L16.4842 687.803 Z" fill="#000000" fill-rule="nonzero" fill-opacity="1" /><path clip-path="url(#clip020)" d="M14.5426 647.795 L14.5426 642.702 Q22.0542 637.928 29.2474 635.573 Q36.4406 633.186 43.5384 633.186 Q50.668 633.186 57.8931 635.573 Q65.1182 637.928 72.5979 642.702 L72.5979 647.795 Q65.3091 643.562 58.1159 641.493 Q50.8908 639.392 43.5384 639.392 Q36.186 639.392 29.0246 641.493 Q21.8632 643.562 14.5426 647.795 Z" fill="#000000" fill-rule="nonzero" fill-opacity="1" /><polyline clip-path="url(#clip022)" style="stroke:#009af9; stroke-linecap:round; stroke-linejoin:round; stroke-width:4; stroke-opacity:1; fill:none" points="315.32,86.1857 316.639,86.1888 317.957,86.1983 319.276,86.2142 320.595,86.2363 321.914,86.2649 323.232,86.2997 324.551,86.3409 325.87,86.3884 327.189,86.4422 328.507,86.5023 329.826,86.5688 331.145,86.6417 332.463,86.7208 333.782,86.8063 335.101,86.898 336.42,86.9962 337.738,87.1006 339.057,87.2113 340.376,87.3284 341.695,87.4517 343.013,87.5814 344.332,87.7174 345.651,87.8597 346.969,88.0083 348.288,88.1632 349.607,88.3244 350.926,88.4918 352.244,88.6656 353.563,88.8457 354.882,89.032 356.201,89.2246 357.519,89.4235 358.838,89.6287 360.157,89.8401 361.475,90.0578 362.794,90.2817 364.113,90.5119 365.432,90.7484 366.75,90.991 368.069,91.24 369.388,91.4951 370.707,91.7565 372.025,92.0242 373.344,92.298 374.663,92.5781 375.982,92.8643 377.3,93.1568 378.619,93.4554 379.938,93.7603 381.256,94.0713 382.575,94.3885 383.894,94.7119 385.213,95.0415 386.531,95.3772 387.85,95.7191 389.169,96.0671 390.488,96.4212 391.806,96.7815 393.125,97.1479 394.444,97.5205 395.762,97.8991 397.081,98.2839 398.4,98.6747 399.719,99.0716 401.037,99.4746 402.356,99.8837 403.675,100.299 404.994,100.72 406.312,101.147 407.631,101.581 408.95,102.02 410.268,102.465 411.587,102.917 412.906,103.374 414.225,103.837 415.543,104.307 416.862,104.782 418.181,105.263 419.5,105.751 420.818,106.244 422.137,106.743 423.456,107.248 424.774,107.759 426.093,108.276 427.412,108.799 428.731,109.327 430.049,109.862 431.368,110.402 432.687,110.949 434.006,111.501 435.324,112.059 436.643,112.622 437.962,113.192 439.28,113.767 440.599,114.349 441.918,114.936 443.237,115.528 444.555,116.127 445.874,116.731 447.193,117.341 448.512,117.957 449.83,118.578 451.149,119.205 452.468,119.838 453.786,120.476 455.105,121.121 456.424,121.77 457.743,122.426 459.061,123.087 460.38,123.753 461.699,124.426 463.018,125.103 464.336,125.787 465.655,126.476 466.974,127.17 468.293,127.87 469.611,128.576 470.93,129.287 472.249,130.003 473.567,130.725 474.886,131.453 476.205,132.185 477.524,132.924 478.842,133.667 480.161,134.416 481.48,135.171 482.799,135.931 484.117,136.696 485.436,137.467 486.755,138.242 488.073,139.024 489.392,139.81 490.711,140.602 492.03,141.399 493.348,142.201 494.667,143.009 495.986,143.821 497.305,144.639 498.623,145.462 499.942,146.291 501.261,147.124 502.579,147.963 503.898,148.806 505.217,149.655 506.536,150.509 507.854,151.368 509.173,152.232 510.492,153.101 511.811,153.975 513.129,154.854 514.448,155.738 515.767,156.627 517.085,157.521 518.404,158.42 519.723,159.324 521.042,160.233 522.36,161.146 523.679,162.065 524.998,162.988 526.317,163.916 527.635,164.849 528.954,165.787 530.273,166.729 531.591,167.676 532.91,168.628 534.229,169.585 535.548,170.546 536.866,171.512 538.185,172.483 539.504,173.458 540.823,174.438 542.141,175.423 543.46,176.412 544.779,177.406 546.098,178.404 547.416,179.407 548.735,180.414 550.054,181.426 551.372,182.442 552.691,183.463 554.01,184.488 555.329,185.517 556.647,186.551 557.966,187.59 559.285,188.632 560.604,189.679 561.922,190.73 563.241,191.786 564.56,192.846 565.878,193.91 567.197,194.978 568.516,196.05 569.835,197.127 571.153,198.208 572.472,199.293 573.791,200.382 575.11,201.475 576.428,202.572 577.747,203.673 579.066,204.779 580.384,205.888 581.703,207.001 583.022,208.119 584.341,209.24 585.659,210.365 586.978,211.494 588.297,212.627 589.616,213.764 590.934,214.904 592.253,216.049 593.572,217.197 594.89,218.349 596.209,219.505 597.528,220.664 598.847,221.827 600.165,222.994 601.484,224.165 602.803,225.339 604.122,226.517 605.44,227.698 606.759,228.883 608.078,230.071 609.396,231.263 610.715,232.459 612.034,233.658 613.353,234.86 614.671,236.066 615.99,237.275 617.309,238.488 618.628,239.704 619.946,240.923 621.265,242.146 622.584,243.371 623.903,244.601 625.221,245.833 626.54,247.069 627.859,248.307 629.177,249.549 630.496,250.795 631.815,252.043 633.134,253.294 634.452,254.548 635.771,255.806 637.09,257.066 638.409,258.33 639.727,259.596 641.046,260.866 642.365,262.138 643.683,263.413 645.002,264.691 646.321,265.972 647.64,267.256 648.958,268.543 650.277,269.832 651.596,271.124 652.915,272.419 654.233,273.716 655.552,275.017 656.871,276.32 658.189,277.625 659.508,278.933 660.827,280.244 662.146,281.557 663.464,282.873 664.783,284.191 666.102,285.512 667.421,286.835 668.739,288.161 670.058,289.489 671.377,290.819 672.695,292.152 674.014,293.487 675.333,294.824 676.652,296.164 677.97,297.506 679.289,298.85 680.608,300.196 681.927,301.545 683.245,302.895 684.564,304.248 685.883,305.603 687.201,306.96 688.52,308.319 689.839,309.68 691.158,311.043 692.476,312.408 693.795,313.775 695.114,315.143 696.433,316.514 697.751,317.887 699.07,319.261 700.389,320.637 701.708,322.015 703.026,323.395 704.345,324.776 705.664,326.159 706.982,327.544 708.301,328.931 709.62,330.319 710.939,331.708 712.257,333.1 713.576,334.492 714.895,335.887 716.214,337.282 717.532,338.68 718.851,340.078 720.17,341.479 721.488,342.88 722.807,344.283 724.126,345.687 725.445,347.093 726.763,348.499 728.082,349.907 729.401,351.317 730.72,352.727 732.038,354.139 733.357,355.552 734.676,356.966 735.994,358.381 737.313,359.797 738.632,361.214 739.951,362.632 741.269,364.051 742.588,365.471 743.907,366.892 745.226,368.314 746.544,369.737 747.863,371.16 749.182,372.585 750.5,374.01 751.819,375.436 753.138,376.863 754.457,378.29 755.775,379.718 757.094,381.147 758.413,382.577 759.732,384.007 761.05,385.438 762.369,386.869 763.688,388.301 765.006,389.733 766.325,391.166 767.644,392.599 768.963,394.032 770.281,395.467 771.6,396.901 772.919,398.336 774.238,399.771 775.556,401.206 776.875,402.642 778.194,404.078 779.512,405.514 780.831,406.95 782.15,408.386 783.469,409.823 784.787,411.259 786.106,412.696 787.425,414.133 788.744,415.57 790.062,417.006 791.381,418.443 792.7,419.88 794.019,421.316 795.337,422.753 796.656,424.189 797.975,425.625 799.293,427.061 800.612,428.497 801.931,429.933 803.25,431.368 804.568,432.803 805.887,434.238 807.206,435.672 808.525,437.106 809.843,438.539 811.162,439.973 812.481,441.405 813.799,442.837 815.118,444.269 816.437,445.7 817.756,447.131 819.074,448.561 820.393,449.99 821.712,451.419 823.031,452.847 824.349,454.274 825.668,455.701 826.987,457.127 828.305,458.552 829.624,459.976 830.943,461.4 832.262,462.822 833.58,464.244 834.899,465.665 836.218,467.085 837.537,468.504 838.855,469.922 840.174,471.339 841.493,472.755 842.811,474.17 844.13,475.574 845.449,476.956 846.768,478.317 848.086,479.658 849.405,480.978 850.724,482.278 852.043,483.558 853.361,484.818 854.68,486.06 855.999,487.282 857.317,488.486 858.636,489.672 859.955,490.84 861.274,491.99 862.592,493.122 863.911,494.237 865.23,495.336 866.549,496.417 867.867,497.483 869.186,498.532 870.505,499.565 871.824,500.582 873.142,501.584 874.461,502.571 875.78,503.543 877.098,504.5 878.417,505.443 879.736,506.371 881.055,507.286 882.373,508.186 883.692,509.073 885.011,509.946 886.33,510.806 887.648,511.654 888.967,512.488 890.286,513.31 891.604,514.119 892.923,514.916 894.242,515.701 895.561,516.474 896.879,517.236 898.198,517.986 899.517,518.724 900.836,519.452 902.154,520.168 903.473,520.874 904.792,521.569 906.11,522.253 907.429,522.927 908.748,523.591 910.067,524.245 911.385,524.89 912.704,525.524 914.023,526.149 915.342,526.764 916.66,527.37 917.979,527.967 919.298,528.555 920.616,529.135 921.935,529.705 923.254,530.267 924.573,530.82 925.891,531.365 927.21,531.902 928.529,532.431 929.848,532.952 931.166,533.465 932.485,533.97 933.804,534.467 935.122,534.958 936.441,535.44 937.76,535.916 939.079,536.384 940.397,536.846 941.716,537.3 943.035,537.748 944.354,538.188 945.672,538.623 946.991,539.05 948.31,539.472 949.629,539.887 950.947,540.295 952.266,540.698 953.585,541.094 954.903,541.485 956.222,541.87 957.541,542.249 958.86,542.622 960.178,542.99 961.497,543.352 962.816,543.708 964.135,544.06 965.453,544.406 966.772,544.747 968.091,545.082 969.409,545.413 970.728,545.739 972.047,546.06 973.366,546.376 974.684,546.687 976.003,546.994 977.322,547.296 978.641,547.594 979.959,547.887 981.278,548.175 982.597,548.46 983.915,548.74 985.234,549.016 986.553,549.287 987.872,549.555 989.19,549.819 990.509,550.079 991.828,550.334 993.147,550.586 994.465,550.835 995.784,551.079 997.103,551.32 998.421,551.557 999.74,551.791 1001.06,552.021 1002.38,552.248 1003.7,552.471 1005.02,552.691 1006.33,552.908 1007.65,553.121 1008.97,553.331 1010.29,553.539 1011.61,553.743 1012.93,553.943 1014.25,554.141 1015.56,554.336 1016.88,554.528 1018.2,554.718 1019.52,554.904 1020.84,555.087 1022.16,555.268 1023.48,555.446 1024.8,555.622 1026.11,555.794 1027.43,555.964 1028.75,556.132 1030.07,556.297 1031.39,556.46 1032.71,556.62 1034.03,556.778 1035.35,556.933 1036.66,557.086 1037.98,557.237 1039.3,557.385 1040.62,557.532 1041.94,557.676 1043.26,557.818 1044.58,557.957 1045.9,558.095 1047.21,558.231 1048.53,558.364 1049.85,558.496 1051.17,558.625 1052.49,558.753 1053.81,558.878 1055.13,559.002 1056.45,559.124 1057.76,559.244 1059.08,559.362 1060.4,559.479 1061.72,559.594 1063.04,559.707 1064.36,559.818 1065.68,559.927 1067,560.035 1068.31,560.142 1069.63,560.246 1070.95,560.349 1072.27,560.451 1073.59,560.551 1074.91,560.649 1076.23,560.746 1077.55,560.842 1078.86,560.936 1080.18,561.028 1081.5,561.119 1082.82,561.209 1084.14,561.298 1085.46,561.385 1086.78,561.471 1088.1,561.555 1089.41,561.638 1090.73,561.72 1092.05,561.8 1093.37,561.88 1094.69,561.958 1096.01,562.035 1097.33,562.111 1098.64,562.185 1099.96,562.259 1101.28,562.331 1102.6,562.402 1103.92,562.472 1105.24,562.541 1106.56,562.609 1107.88,562.676 1109.19,562.742 1110.51,562.806 1111.83,562.87 1113.15,562.933 1114.47,562.995 1115.79,563.056 1117.11,563.115 1118.43,563.174 1119.74,563.232 1121.06,563.289 1122.38,563.345 1123.7,563.401 1125.02,563.455 1126.34,563.509 1127.66,563.561 1128.98,563.613 1130.29,563.664 1131.61,563.714 1132.93,563.763 1134.25,563.812 1135.57,563.86 1136.89,563.907 1138.21,563.953 1139.53,563.998 1140.84,564.043 1142.16,564.087 1143.48,564.13 1144.8,564.173 1146.12,564.215 1147.44,564.256 1148.76,564.296 1150.08,564.336 1151.39,564.375 1152.71,564.413 1154.03,564.451 1155.35,564.488 1156.67,564.525 1157.99,564.56 1159.31,564.596 1160.63,564.63 1161.94,564.664 1163.26,564.698 1164.58,564.731 1165.9,564.763 1167.22,564.794 1168.54,564.825 1169.86,564.856 1171.17,564.886 1172.49,564.915 1173.81,564.944 1175.13,564.973 1176.45,565 1177.77,565.028 1179.09,565.055 1180.41,565.081 1181.72,565.107 1183.04,565.132 1184.36,565.157 1185.68,565.181 1187,565.205 1188.32,565.228 1189.64,565.251 1190.96,565.273 1192.27,565.295 1193.59,565.317 1194.91,565.338 1196.23,565.359 1197.55,565.379 1198.87,565.398 1200.19,565.418 1201.51,565.437 1202.82,565.455 1204.14,565.473 1205.46,565.491 1206.78,565.508 1208.1,565.525 1209.42,565.541 1210.74,565.557 1212.06,565.573 1213.37,565.588 1214.69,565.603 1216.01,565.617 1217.33,565.631 1218.65,565.645 1219.97,565.658 1221.29,565.671 1222.61,565.684 1223.92,565.696 1225.24,565.708 1226.56,565.719 1227.88,565.73 1229.2,565.741 1230.52,565.752 1231.84,565.762 1233.16,565.771 1234.47,565.781 1235.79,565.79 1237.11,565.799 1238.43,565.807 1239.75,565.815 1241.07,565.823 1242.39,565.832 1243.71,565.84 1245.02,565.848 1246.34,565.856 1247.66,565.864 1248.98,565.871 1250.3,565.879 1251.62,565.887 1252.94,565.895 1254.25,565.903 1255.57,565.91 1256.89,565.918 1258.21,565.926 1259.53,565.933 1260.85,565.941 1262.17,565.948 1263.49,565.956 1264.8,565.963 1266.12,565.971 1267.44,565.978 1268.76,565.985 1270.08,565.993 1271.4,566 1272.72,566.007 1274.04,566.014 1275.35,566.021 1276.67,566.028 1277.99,566.035 1279.31,566.043 1280.63,566.049 1281.95,566.056 1283.27,566.063 1284.59,566.07 1285.9,566.077 1287.22,566.084 1288.54,566.091 1289.86,566.097 1291.18,566.104 1292.5,566.111 1293.82,566.117 1295.14,566.124 1296.45,566.131 1297.77,566.137 1299.09,566.144 1300.41,566.15 1301.73,566.157 1303.05,566.163 1304.37,566.169 1305.69,566.176 1307,566.182 1308.32,566.188 1309.64,566.195 1310.96,566.201 1312.28,566.207 1313.6,566.213 1314.92,566.219 1316.24,566.225 1317.55,566.231 1318.87,566.237 1320.19,566.243 1321.51,566.249 1322.83,566.255 1324.15,566.261 1325.47,566.267 1326.78,566.273 1328.1,566.279 1329.42,566.285 1330.74,566.29 1332.06,566.296 1333.38,566.302 1334.7,566.307 1336.02,566.313 1337.33,566.319 1338.65,566.324 1339.97,566.33 1341.29,566.335 1342.61,566.341 1343.93,566.346 1345.25,566.352 1346.57,566.357 1347.88,566.363 1349.2,566.368 1350.52,566.373 1351.84,566.379 1353.16,566.384 1354.48,566.389 1355.8,566.394 1357.12,566.4 1358.43,566.405 1359.75,566.41 1361.07,566.415 1362.39,566.42 1363.71,566.425 1365.03,566.43 1366.35,566.435 1367.67,566.44 1368.98,566.445 1370.3,566.45 1371.62,566.455 1372.94,566.46 1374.26,566.465 1375.58,566.47 1376.9,566.475 1378.22,566.479 1379.53,566.484 1380.85,566.489 1382.17,566.494 1383.49,566.498 1384.81,566.503 1386.13,566.508 1387.45,566.512 1388.77,566.517 1390.08,566.522 1391.4,566.526 1392.72,566.531 1394.04,566.535 1395.36,566.54 1396.68,566.544 1398,566.549 1399.32,566.553 1400.63,566.557 1401.95,566.562 1403.27,566.566 1404.59,566.57 1405.91,566.575 1407.23,566.579 1408.55,566.583 1409.86,566.588 1411.18,566.592 1412.5,566.596 1413.82,566.6 1415.14,566.604 1416.46,566.609 1417.78,566.613 1419.1,566.617 1420.41,566.621 1421.73,566.625 1423.05,566.629 1424.37,566.633 1425.69,566.637 1427.01,566.641 1428.33,566.645 1429.65,566.649 1430.96,566.653 1432.28,566.657 1433.6,566.661 1434.92,566.665 1436.24,566.668 1437.56,566.672 1438.88,566.676 1440.2,566.68 1441.51,566.684 1442.83,566.687 1444.15,566.691 1445.47,566.695 1446.79,566.699 1448.11,566.702 1449.43,566.706 1450.75,566.71 1452.06,566.713 1453.38,566.717 1454.7,566.72 1456.02,566.724 1457.34,566.727 1458.66,566.731 1459.98,566.735 1461.3,566.738 1462.61,566.742 1463.93,566.745 1465.25,566.748 1466.57,566.752 1467.89,566.755 1469.21,566.759 1470.53,566.762 1471.85,566.765 1473.16,566.769 1474.48,566.772 1475.8,566.775 1477.12,566.779 1478.44,566.782 1479.76,566.785 1481.08,566.789 1482.39,566.792 1483.71,566.795 1485.03,566.798 1486.35,566.801 1487.67,566.805 1488.99,566.808 1490.31,566.811 1491.63,566.814 1492.94,566.817 1494.26,566.82 1495.58,566.823 1496.9,566.826 1498.22,566.829 1499.54,566.832 1500.86,566.835 1502.18,566.838 1503.49,566.841 1504.81,566.844 1506.13,566.847 1507.45,566.85 1508.77,566.853 1510.09,566.856 1511.41,566.859 1512.73,566.862 1514.04,566.865 1515.36,566.868 1516.68,566.87 1518,566.873 1519.32,566.876 1520.64,566.879 1521.96,566.882 1523.28,566.884 1524.59,566.887 1525.91,566.89 1527.23,566.893 1528.55,566.895 1529.87,566.898 1531.19,566.901 1532.51,566.904 1533.83,566.906 1535.14,566.909 1536.46,566.911 1537.78,566.914 1539.1,566.917 1540.42,566.919 1541.74,566.922 1543.06,566.924 1544.38,566.927 1545.69,566.93 1547.01,566.932 1548.33,566.935 1549.65,566.937 1550.97,566.94 1552.29,566.942 1553.61,566.945 1554.93,566.947 1556.24,566.95 1557.56,566.952 1558.88,566.954 1560.2,566.957 1561.52,566.959 1562.84,566.962 1564.16,566.964 1565.47,566.966 1566.79,566.969 1568.11,566.971 1569.43,566.973 1570.75,566.976 1572.07,566.978 1573.39,566.98 1574.71,566.983 1576.02,566.985 1577.34,566.987 1578.66,566.989 1579.98,566.992 1581.3,566.994 1582.62,566.996 1583.94,566.998 1585.26,567.001 1586.57,567.003 1587.89,567.005 1589.21,567.007 1590.53,567.009 1591.85,567.011 1593.17,567.014 1594.49,567.016 1595.81,567.018 1597.12,567.02 1598.44,567.022 1599.76,567.024 1601.08,567.026 1602.4,567.028 1603.72,567.03 1605.04,567.032 1606.36,567.034 1607.67,567.036 1608.99,567.038 1610.31,567.04 1611.63,567.042 1612.95,567.044 1614.27,567.046 1615.59,567.048 1616.91,567.05 1618.22,567.052 1619.54,567.054 1620.86,567.056 1622.18,567.058 1623.5,567.06 1624.82,567.062 1626.14,567.064 1627.46,567.066 1628.77,567.067 1630.09,567.069 1631.41,567.071 1632.73,567.073 1634.05,567.075 1635.37,567.077 1636.69,567.078 1638,567.08 1639.32,567.082 1640.64,567.084 1641.96,567.086 1643.28,567.087 1644.6,567.089 1645.92,567.091 1647.24,567.093 1648.55,567.094 1649.87,567.096 1651.19,567.098 1652.51,567.1 1653.83,567.101 1655.15,567.103 1656.47,567.105 1657.79,567.106 1659.1,567.108 1660.42,567.11 1661.74,567.111 1663.06,567.113 1664.38,567.115 1665.7,567.116 1667.02,567.118 1668.34,567.12 1669.65,567.121 1670.97,567.123 1672.29,567.124 1673.61,567.126 1674.93,567.127 1676.25,567.129 1677.57,567.131 1678.89,567.132 1680.2,567.134 1681.52,567.135 1682.84,567.137 1684.16,567.138 1685.48,567.14 1686.8,567.141 1688.12,567.143 1689.44,567.144 1690.75,567.146 1692.07,567.147 1693.39,567.149 1694.71,567.15 1696.03,567.152 1697.35,567.153 1698.67,567.155 1699.99,567.156 1701.3,567.157 1702.62,567.159 1703.94,567.16 1705.26,567.162 1706.58,567.163 1707.9,567.165 1709.22,567.166 1710.54,567.167 1711.85,567.169 1713.17,567.17 1714.49,567.171 1715.81,567.173 1717.13,567.174 1718.45,567.175 1719.77,567.177 1721.08,567.178 1722.4,567.179 1723.72,567.181 1725.04,567.182 1726.36,567.183 1727.68,567.185 1729,567.186 1730.32,567.187 1731.63,567.189 1732.95,567.19 1734.27,567.191 1735.59,567.192 1736.91,567.194 1738.23,567.195 1739.55,567.196 1740.87,567.197 1742.18,567.199 1743.5,567.2 1744.82,567.201 1746.14,567.202 1747.46,567.203 1748.78,567.205 1750.1,567.206 1751.42,567.207 1752.73,567.208 1754.05,567.209 1755.37,567.211 1756.69,567.212 1758.01,567.213 1759.33,567.214 1760.65,567.215 1761.97,567.216 1763.28,567.217 1764.6,567.219 1765.92,567.22 1767.24,567.221 1768.56,567.222 1769.88,567.223 1771.2,567.224 1772.52,567.225 1773.83,567.226 1775.15,567.227 1776.47,567.229 1777.79,567.23 1779.11,567.231 1780.43,567.232 1781.75,567.233 1783.07,567.234 1784.38,567.235 1785.7,567.236 1787.02,567.237 1788.34,567.238 1789.66,567.239 1790.98,567.24 1792.3,567.241 1793.61,567.242 1794.93,567.243 1796.25,567.244 1797.57,567.245 1798.89,567.246 1800.21,567.247 1801.53,567.248 1802.85,567.249 1804.16,567.25 1805.48,567.251 1806.8,567.252 1808.12,567.253 1809.44,567.254 1810.76,567.255 1812.08,567.256 1813.4,567.257 1814.71,567.258 1816.03,567.259 1817.35,567.26 1818.67,567.261 1819.99,567.262 1821.31,567.262 1822.63,567.263 1823.95,567.264 1825.26,567.265 1826.58,567.266 1827.9,567.267 1829.22,567.268 1830.54,567.269 1831.86,567.27 1833.18,567.27 1834.5,567.271 1835.81,567.272 1837.13,567.273 1838.45,567.274 1839.77,567.275 1841.09,567.276 1842.41,567.277 1843.73,567.277 1845.05,567.278 1846.36,567.279 1847.68,567.28 1849,567.281 1850.32,567.282 1851.64,567.282 1852.96,567.283 1854.28,567.284 1855.6,567.285 1856.91,567.286 1858.23,567.286 1859.55,567.287 1860.87,567.288 1862.19,567.289 1863.51,567.29 1864.83,567.29 1866.14,567.291 1867.46,567.292 1868.78,567.293 1870.1,567.293 1871.42,567.294 1872.74,567.295 1874.06,567.296 1875.38,567.297 1876.69,567.297 1878.01,567.298 1879.33,567.299 1880.65,567.3 1881.97,567.3 1883.29,567.301 1884.61,567.302 1885.93,567.302 1887.24,567.303 1888.56,567.304 1889.88,567.305 1891.2,567.305 1892.52,567.306 1893.84,567.307 1895.16,567.307 1896.48,567.308 1897.79,567.309 1899.11,567.309 1900.43,567.31 1901.75,567.311 1903.07,567.312 1904.39,567.312 1905.71,567.313 1907.03,567.314 1908.34,567.314 1909.66,567.315 1910.98,567.316 1912.3,567.316 1913.62,567.317 1914.94,567.317 1916.26,567.318 1917.58,567.319 1918.89,567.319 1920.21,567.32 1921.53,567.321 1922.85,567.321 1924.17,567.322 1925.49,567.322 1926.81,567.323 1928.13,567.324 1929.44,567.324 1930.76,567.325 1932.08,567.325 1933.4,567.326 1934.72,567.327 1936.04,567.327 1937.36,567.328 1938.68,567.328 1939.99,567.329 1941.31,567.329 1942.63,567.33 1943.95,567.33 1945.27,567.331 1946.59,567.331 1947.91,567.332 1949.22,567.332 1950.54,567.333 1951.86,567.333 1953.18,567.334 1954.5,567.334 1955.82,567.335 1957.14,567.335 1958.46,567.336 1959.77,567.336 1961.09,567.337 1962.41,567.337 1963.73,567.338 1965.05,567.338 1966.37,567.339 1967.69,567.339 1969.01,567.339 1970.32,567.34 1971.64,567.34 1972.96,567.341 1974.28,567.341 1975.6,567.341 1976.92,567.342 1978.24,567.342 1979.56,567.343 1980.87,567.343 1982.19,567.343 1983.51,567.344 1984.83,567.344 1986.15,567.344 1987.47,567.345 1988.79,567.345 1990.11,567.345 1991.42,567.346 1992.74,567.346 1994.06,567.346 1995.38,567.347 1996.7,567.347 1998.02,567.347 1999.34,567.348 2000.66,567.348 2001.97,567.348 2003.29,567.349 2004.61,567.349 2005.93,567.349 2007.25,567.35 2008.57,567.35 2009.89,567.35 2011.21,567.35 2012.52,567.351 2013.84,567.351 2015.16,567.351 2016.48,567.352 2017.8,567.352 2019.12,567.352 2020.44,567.352 2021.75,567.353 2023.07,567.353 2024.39,567.353 2025.71,567.353 2027.03,567.354 2028.35,567.354 2029.67,567.354 2030.99,567.354 2032.3,567.355 2033.62,567.355 2034.94,567.355 2036.26,567.356 2037.58,567.356 2038.9,567.356 2040.22,567.356 2041.54,567.357 2042.85,567.357 2044.17,567.357 2045.49,567.357 2046.81,567.358 2048.13,567.358 2049.45,567.358 2050.77,567.358 2052.09,567.359 2053.4,567.359 2054.72,567.359 2056.04,567.36 2057.36,567.36 2058.68,567.36 2060,567.36 2061.32,567.361 2062.64,567.361 2063.95,567.361 2065.27,567.362 2066.59,567.362 2067.91,567.362 2069.23,567.363 2070.55,567.363 2071.87,567.363 2073.19,567.364 2074.5,567.364 2075.82,567.364 2077.14,567.365 2078.46,567.365 2079.78,567.366 2081.1,567.366 2082.42,567.366 2083.74,567.367 2085.05,567.367 2086.37,567.368 2087.69,567.368 2089.01,567.368 2090.33,567.369 2091.65,567.369 2092.97,567.37 2094.29,567.37 2095.6,567.371 2096.92,567.371 2098.24,567.372 2099.56,567.372 2100.88,567.373 2102.2,567.374 2103.52,567.374 2104.83,567.375 2106.15,567.375 2107.47,567.376 2108.79,567.377 2110.11,567.377 2111.43,567.378 2112.75,567.379 2114.07,567.379 2115.38,567.38 2116.7,567.381 2118.02,567.381 2119.34,567.382 2120.66,567.383 2121.98,567.384 2123.3,567.384 2124.62,567.385 2125.93,567.386 2127.25,567.387 2128.57,567.388 2129.89,567.389 2131.21,567.389 2132.53,567.39 2133.85,567.391 2135.17,567.392 2136.48,567.393 2137.8,567.394 2139.12,567.395 2140.44,567.396 2141.76,567.397 2143.08,567.398 2144.4,567.399 2145.72,567.4 2147.03,567.401 2148.35,567.402 2149.67,567.403 2150.99,567.404 2152.31,567.406 2153.63,567.407 2154.95,567.408 2156.27,567.409 2157.58,567.41 2158.9,567.411 2160.22,567.413 2161.54,567.414 2162.86,567.415 2164.18,567.416 2165.5,567.418 2166.82,567.419 2168.13,567.42 2169.45,567.421 2170.77,567.423 2172.09,567.424 2173.41,567.425 2174.73,567.427 2176.05,567.428 2177.36,567.429 2178.68,567.431 2180,567.432 2181.32,567.433 2182.64,567.435 2183.96,567.436 2185.28,567.437 2186.6,567.438 2187.91,567.44 2189.23,567.441 2190.55,567.442 2191.87,567.444 2193.19,567.445 2194.51,567.446 2195.83,567.448 2197.15,567.449 2198.46,567.45 2199.78,567.451 2201.1,567.453 2202.42,567.454 2203.74,567.455 2205.06,567.456 2206.38,567.457 2207.7,567.459 2209.01,567.46 2210.33,567.461 2211.65,567.462 2212.97,567.463 2214.29,567.464 2215.61,567.465 2216.93,567.466 2218.25,567.467 2219.56,567.468 2220.88,567.469 2222.2,567.47 2223.52,567.47 2224.84,567.471 2226.16,567.472 2227.48,567.473 2228.8,567.473 2230.11,567.474 2231.43,567.474 2232.75,567.475 2234.07,567.476 2235.39,567.476 2236.71,567.476 2238.03,567.477 2239.35,567.477 2240.66,567.477 2241.98,567.478 2243.3,567.478 2244.62,567.478 2245.94,567.478 2247.26,567.478 2248.58,567.478 2249.9,567.478 2251.21,567.478 2252.53,567.478 2253.85,567.477 2255.17,567.477 2256.49,567.477 2257.81,567.477 2259.13,567.476 2260.44,567.476 2261.76,567.475 2263.08,567.475 2264.4,567.474 2265.72,567.474 2267.04,567.473 2268.36,567.473 2269.68,567.472 2270.99,567.471 2272.31,567.471 2273.63,567.47 2274.95,567.469 2276.27,567.469 2277.59,567.468 2278.91,567.467 2280.23,567.466 2281.54,567.466 2282.86,567.465 2284.18,567.464 2285.5,567.463 2286.82,567.462 2288.14,567.462 2289.46,567.461 2290.78,567.46 2292.09,567.46 2293.41,567.459 "/>
<polyline clip-path="url(#clip022)" style="stroke:#e26f46; stroke-linecap:round; stroke-linejoin:round; stroke-width:4; stroke-opacity:1; fill:none" points="315.32,1384.24 316.639,1384.21 317.957,1384.13 319.276,1383.99 320.595,1383.8 321.914,1383.55 323.232,1383.25 324.551,1382.9 325.87,1382.49 327.189,1382.02 328.507,1381.51 329.826,1380.93 331.145,1380.3 332.463,1379.62 333.782,1378.89 335.101,1378.1 336.42,1377.25 337.738,1376.35 339.057,1375.4 340.376,1374.39 341.695,1373.33 343.013,1372.22 344.332,1371.05 345.651,1369.83 346.969,1368.56 348.288,1367.23 349.607,1365.85 350.926,1364.42 352.244,1362.94 353.563,1361.4 354.882,1359.81 356.201,1358.16 357.519,1356.47 358.838,1354.72 360.157,1352.93 361.475,1351.08 362.794,1349.17 364.113,1347.22 365.432,1345.22 366.75,1343.16 368.069,1341.06 369.388,1338.9 370.707,1336.7 372.025,1334.44 373.344,1332.14 374.663,1329.78 375.982,1327.38 377.3,1324.93 378.619,1322.43 379.938,1319.88 381.256,1317.28 382.575,1314.63 383.894,1311.94 385.213,1309.2 386.531,1306.41 387.85,1303.57 389.169,1300.69 390.488,1297.76 391.806,1294.79 393.125,1291.77 394.444,1288.7 395.762,1285.59 397.081,1282.44 398.4,1279.24 399.719,1275.99 401.037,1272.7 402.356,1269.37 403.675,1266 404.994,1262.58 406.312,1259.12 407.631,1255.62 408.95,1252.07 410.268,1248.49 411.587,1244.86 412.906,1241.19 414.225,1237.49 415.543,1233.74 416.862,1229.95 418.181,1226.12 419.5,1222.26 420.818,1218.35 422.137,1214.41 423.456,1210.43 424.774,1206.41 426.093,1202.36 427.412,1198.26 428.731,1194.14 430.049,1189.97 431.368,1185.78 432.687,1181.54 434.006,1177.27 435.324,1172.97 436.643,1168.64 437.962,1164.27 439.28,1159.87 440.599,1155.43 441.918,1150.97 443.237,1146.47 444.555,1141.94 445.874,1137.38 447.193,1132.79 448.512,1128.17 449.83,1123.53 451.149,1118.85 452.468,1114.14 453.786,1109.41 455.105,1104.65 456.424,1099.86 457.743,1095.05 459.061,1090.21 460.38,1085.35 461.699,1080.46 463.018,1075.54 464.336,1070.6 465.655,1065.64 466.974,1060.65 468.293,1055.65 469.611,1050.62 470.93,1045.56 472.249,1040.49 473.567,1035.4 474.886,1030.28 476.205,1025.15 477.524,1020 478.842,1014.83 480.161,1009.64 481.48,1004.43 482.799,999.206 484.117,993.965 485.436,988.708 486.755,983.436 488.073,978.148 489.392,972.846 490.711,967.53 492.03,962.2 493.348,956.857 494.667,951.502 495.986,946.134 497.305,940.755 498.623,935.365 499.942,929.965 501.261,924.555 502.579,919.135 503.898,913.706 505.217,908.269 506.536,902.825 507.854,897.372 509.173,891.913 510.492,886.448 511.811,880.977 513.129,875.5 514.448,870.019 515.767,864.534 517.085,859.045 518.404,853.553 519.723,848.058 521.042,842.561 522.36,837.062 523.679,831.563 524.998,826.062 526.317,820.562 527.635,815.062 528.954,809.563 530.273,804.066 531.591,798.571 532.91,793.078 534.229,787.588 535.548,782.102 536.866,776.62 538.185,771.143 539.504,765.671 540.823,760.204 542.141,754.743 543.46,749.29 544.779,743.843 546.098,738.404 547.416,732.973 548.735,727.551 550.054,722.137 551.372,716.734 552.691,711.341 554.01,705.958 555.329,700.587 556.647,695.227 557.966,689.879 559.285,684.544 560.604,679.222 561.922,673.914 563.241,668.62 564.56,663.34 565.878,658.076 567.197,652.826 568.516,647.593 569.835,642.377 571.153,637.177 572.472,631.995 573.791,626.831 575.11,621.685 576.428,616.558 577.747,611.45 579.066,606.362 580.384,601.294 581.703,596.246 583.022,591.22 584.341,586.215 585.659,581.232 586.978,576.272 588.297,571.334 589.616,566.42 590.934,561.53 592.253,556.663 593.572,551.821 594.89,547.005 596.209,542.213 597.528,537.447 598.847,532.708 600.165,527.995 601.484,523.309 602.803,518.651 604.122,514.021 605.44,509.419 606.759,504.845 608.078,500.3 609.396,495.785 610.715,491.3 612.034,486.845 613.353,482.42 614.671,478.026 615.99,473.663 617.309,469.333 618.628,465.034 619.946,460.767 621.265,456.533 622.584,452.332 623.903,448.165 625.221,444.031 626.54,439.931 627.859,435.866 629.177,431.835 630.496,427.84 631.815,423.879 633.134,419.955 634.452,416.066 635.771,412.214 637.09,408.398 638.409,404.619 639.727,400.877 641.046,397.173 642.365,393.507 643.683,389.878 645.002,386.288 646.321,382.736 647.64,379.223 648.958,375.749 650.277,372.315 651.596,368.92 652.915,365.565 654.233,362.249 655.552,358.975 656.871,355.741 658.189,352.547 659.508,349.395 660.827,346.283 662.146,343.214 663.464,340.185 664.783,337.199 666.102,334.255 667.421,331.353 668.739,328.493 670.058,325.676 671.377,322.902 672.695,320.17 674.014,317.482 675.333,314.837 676.652,312.236 677.97,309.678 679.289,307.164 680.608,304.693 681.927,302.267 683.245,299.885 684.564,297.547 685.883,295.254 687.201,293.005 688.52,290.801 689.839,288.642 691.158,286.527 692.476,284.458 693.795,282.433 695.114,280.454 696.433,278.52 697.751,276.631 699.07,274.788 700.389,272.99 701.708,271.237 703.026,269.531 704.345,267.869 705.664,266.254 706.982,264.684 708.301,263.16 709.62,261.682 710.939,260.249 712.257,258.863 713.576,257.522 714.895,256.227 716.214,254.979 717.532,253.776 718.851,252.618 720.17,251.507 721.488,250.442 722.807,249.422 724.126,248.448 725.445,247.52 726.763,246.638 728.082,245.802 729.401,245.011 730.72,244.266 732.038,243.566 733.357,242.912 734.676,242.304 735.994,241.741 737.313,241.223 738.632,240.75 739.951,240.323 741.269,239.94 742.588,239.603 743.907,239.311 745.226,239.063 746.544,238.86 747.863,238.701 749.182,238.587 750.5,238.518 751.819,238.492 753.138,238.511 754.457,238.573 755.775,238.68 757.094,238.83 758.413,239.023 759.732,239.26 761.05,239.54 762.369,239.863 763.688,240.229 765.006,240.638 766.325,241.089 767.644,241.582 768.963,242.118 770.281,242.695 771.6,243.315 772.919,243.976 774.238,244.678 775.556,245.421 776.875,246.206 778.194,247.031 779.512,247.897 780.831,248.802 782.15,249.748 783.469,250.734 784.787,251.76 786.106,252.824 787.425,253.928 788.744,255.071 790.062,256.252 791.381,257.472 792.7,258.73 794.019,260.025 795.337,261.358 796.656,262.729 797.975,264.136 799.293,265.58 800.612,267.061 801.931,268.578 803.25,270.13 804.568,271.718 805.887,273.342 807.206,275 808.525,276.694 809.843,278.421 811.162,280.183 812.481,281.978 813.799,283.807 815.118,285.669 816.437,287.563 817.756,289.491 819.074,291.45 820.393,293.441 821.712,295.463 823.031,297.517 824.349,299.602 825.668,301.716 826.987,303.861 828.305,306.036 829.624,308.24 830.943,310.473 832.262,312.735 833.58,315.025 834.899,317.343 836.218,319.689 837.537,322.062 838.855,324.462 840.174,326.888 841.493,329.34 842.811,331.818 844.13,334.295 845.449,336.746 846.768,339.171 848.086,341.57 849.405,343.943 850.724,346.29 852.043,348.613 853.361,350.911 854.68,353.184 855.999,355.433 857.317,357.659 858.636,359.86 859.955,362.038 861.274,364.193 862.592,366.325 863.911,368.434 865.23,370.52 866.549,372.585 867.867,374.628 869.186,376.649 870.505,378.648 871.824,380.626 873.142,382.584 874.461,384.52 875.78,386.436 877.098,388.332 878.417,390.207 879.736,392.063 881.055,393.899 882.373,395.716 883.692,397.514 885.011,399.292 886.33,401.052 887.648,402.793 888.967,404.516 890.286,406.22 891.604,407.907 892.923,409.576 894.242,411.227 895.561,412.861 896.879,414.478 898.198,416.077 899.517,417.66 900.836,419.227 902.154,420.776 903.473,422.31 904.792,423.827 906.11,425.329 907.429,426.814 908.748,428.285 910.067,429.739 911.385,431.179 912.704,432.603 914.023,434.013 915.342,435.408 916.66,436.788 917.979,438.153 919.298,439.505 920.616,440.842 921.935,442.166 923.254,443.475 924.573,444.771 925.891,446.054 927.21,447.323 928.529,448.579 929.848,449.822 931.166,451.052 932.485,452.269 933.804,453.473 935.122,454.665 936.441,455.845 937.76,457.012 939.079,458.167 940.397,459.31 941.716,460.442 943.035,461.561 944.354,462.669 945.672,463.766 946.991,464.851 948.31,465.925 949.629,466.988 950.947,468.04 952.266,469.082 953.585,470.112 954.903,471.132 956.222,472.141 957.541,473.14 958.86,474.129 960.178,475.107 961.497,476.075 962.816,477.034 964.135,477.982 965.453,478.921 966.772,479.85 968.091,480.77 969.409,481.68 970.728,482.581 972.047,483.473 973.366,484.356 974.684,485.229 976.003,486.094 977.322,486.95 978.641,487.797 979.959,488.636 981.278,489.466 982.597,490.287 983.915,491.1 985.234,491.905 986.553,492.702 987.872,493.491 989.19,494.271 990.509,495.044 991.828,495.809 993.147,496.566 994.465,497.315 995.784,498.057 997.103,498.792 998.421,499.519 999.74,500.238 1001.06,500.951 1002.38,501.656 1003.7,502.354 1005.02,503.046 1006.33,503.73 1007.65,504.407 1008.97,505.078 1010.29,505.741 1011.61,506.399 1012.93,507.049 1014.25,507.693 1015.56,508.331 1016.88,508.962 1018.2,509.588 1019.52,510.206 1020.84,510.819 1022.16,511.426 1023.48,512.026 1024.8,512.621 1026.11,513.21 1027.43,513.792 1028.75,514.37 1030.07,514.941 1031.39,515.507 1032.71,516.067 1034.03,516.622 1035.35,517.171 1036.66,517.715 1037.98,518.253 1039.3,518.787 1040.62,519.315 1041.94,519.838 1043.26,520.355 1044.58,520.868 1045.9,521.376 1047.21,521.879 1048.53,522.377 1049.85,522.87 1051.17,523.358 1052.49,523.842 1053.81,524.32 1055.13,524.795 1056.45,525.265 1057.76,525.73 1059.08,526.19 1060.4,526.647 1061.72,527.099 1063.04,527.546 1064.36,527.99 1065.68,528.429 1067,528.864 1068.31,529.295 1069.63,529.722 1070.95,530.144 1072.27,530.563 1073.59,530.978 1074.91,531.389 1076.23,531.796 1077.55,532.199 1078.86,532.598 1080.18,532.994 1081.5,533.386 1082.82,533.774 1084.14,534.159 1085.46,534.54 1086.78,534.918 1088.1,535.292 1089.41,535.663 1090.73,536.03 1092.05,536.394 1093.37,536.755 1094.69,537.112 1096.01,537.466 1097.33,537.817 1098.64,538.165 1099.96,538.51 1101.28,538.851 1102.6,539.189 1103.92,539.525 1105.24,539.857 1106.56,540.187 1107.88,540.513 1109.19,540.837 1110.51,541.157 1111.83,541.475 1113.15,541.79 1114.47,542.103 1115.79,542.412 1117.11,542.719 1118.43,543.023 1119.74,543.325 1121.06,543.624 1122.38,543.921 1123.7,544.215 1125.02,544.506 1126.34,544.795 1127.66,545.081 1128.98,545.366 1130.29,545.647 1131.61,545.927 1132.93,546.204 1134.25,546.478 1135.57,546.751 1136.89,547.021 1138.21,547.289 1139.53,547.555 1140.84,547.818 1142.16,548.08 1143.48,548.339 1144.8,548.596 1146.12,548.852 1147.44,549.105 1148.76,549.356 1150.08,549.605 1151.39,549.853 1152.71,550.098 1154.03,550.342 1155.35,550.583 1156.67,550.823 1157.99,551.061 1159.31,551.297 1160.63,551.531 1161.94,551.764 1163.26,551.995 1164.58,552.224 1165.9,552.451 1167.22,552.677 1168.54,552.901 1169.86,553.124 1171.17,553.345 1172.49,553.564 1173.81,553.782 1175.13,553.998 1176.45,554.213 1177.77,554.426 1179.09,554.638 1180.41,554.849 1181.72,555.058 1183.04,555.265 1184.36,555.472 1185.68,555.677 1187,555.88 1188.32,556.082 1189.64,556.283 1190.96,556.483 1192.27,556.681 1193.59,556.878 1194.91,557.074 1196.23,557.269 1197.55,557.463 1198.87,557.655 1200.19,557.846 1201.51,558.036 1202.82,558.225 1204.14,558.413 1205.46,558.6 1206.78,558.786 1208.1,558.971 1209.42,559.155 1210.74,559.337 1212.06,559.519 1213.37,559.7 1214.69,559.88 1216.01,560.059 1217.33,560.237 1218.65,560.414 1219.97,560.591 1221.29,560.766 1222.61,560.941 1223.92,561.115 1225.24,561.288 1226.56,561.46 1227.88,561.631 1229.2,561.802 1230.52,561.972 1231.84,562.141 1233.16,562.31 1234.47,562.478 1235.79,562.645 1237.11,562.812 1238.43,562.977 1239.75,563.143 1241.07,563.309 1242.39,563.475 1243.71,563.641 1245.02,563.807 1246.34,563.973 1247.66,564.14 1248.98,564.306 1250.3,564.472 1251.62,564.639 1252.94,564.805 1254.25,564.972 1255.57,565.138 1256.89,565.305 1258.21,565.471 1259.53,565.638 1260.85,565.804 1262.17,565.97 1263.49,566.136 1264.8,566.303 1266.12,566.468 1267.44,566.634 1268.76,566.8 1270.08,566.965 1271.4,567.131 1272.72,567.296 1274.04,567.46 1275.35,567.625 1276.67,567.789 1277.99,567.954 1279.31,568.118 1280.63,568.281 1281.95,568.444 1283.27,568.607 1284.59,568.77 1285.9,568.932 1287.22,569.094 1288.54,569.256 1289.86,569.417 1291.18,569.578 1292.5,569.739 1293.82,569.899 1295.14,570.058 1296.45,570.218 1297.77,570.376 1299.09,570.535 1300.41,570.692 1301.73,570.85 1303.05,571.006 1304.37,571.163 1305.69,571.318 1307,571.474 1308.32,571.628 1309.64,571.782 1310.96,571.936 1312.28,572.088 1313.6,572.241 1314.92,572.392 1316.24,572.543 1317.55,572.694 1318.87,572.843 1320.19,572.992 1321.51,573.141 1322.83,573.288 1324.15,573.435 1325.47,573.581 1326.78,573.727 1328.1,573.872 1329.42,574.015 1330.74,574.159 1332.06,574.301 1333.38,574.443 1334.7,574.584 1336.02,574.724 1337.33,574.863 1338.65,575.001 1339.97,575.139 1341.29,575.275 1342.61,575.411 1343.93,575.546 1345.25,575.68 1346.57,575.813 1347.88,575.945 1349.2,576.077 1350.52,576.207 1351.84,576.336 1353.16,576.465 1354.48,576.592 1355.8,576.719 1357.12,576.844 1358.43,576.969 1359.75,577.092 1361.07,577.215 1362.39,577.336 1363.71,577.457 1365.03,577.576 1366.35,577.695 1367.67,577.812 1368.98,577.929 1370.3,578.044 1371.62,578.158 1372.94,578.271 1374.26,578.383 1375.58,578.494 1376.9,578.603 1378.22,578.712 1379.53,578.819 1380.85,578.926 1382.17,579.031 1383.49,579.135 1384.81,579.238 1386.13,579.339 1387.45,579.44 1388.77,579.539 1390.08,579.637 1391.4,579.734 1392.72,579.83 1394.04,579.925 1395.36,580.018 1396.68,580.11 1398,580.201 1399.32,580.29 1400.63,580.379 1401.95,580.466 1403.27,580.551 1404.59,580.636 1405.91,580.719 1407.23,580.801 1408.55,580.882 1409.86,580.961 1411.18,581.039 1412.5,581.116 1413.82,581.192 1415.14,581.266 1416.46,581.339 1417.78,581.41 1419.1,581.481 1420.41,581.55 1421.73,581.617 1423.05,581.683 1424.37,581.748 1425.69,581.812 1427.01,581.874 1428.33,581.935 1429.65,581.994 1430.96,582.053 1432.28,582.109 1433.6,582.165 1434.92,582.219 1436.24,582.271 1437.56,582.323 1438.88,582.373 1440.2,582.421 1441.51,582.468 1442.83,582.514 1444.15,582.558 1445.47,582.601 1446.79,582.643 1448.11,582.683 1449.43,582.722 1450.75,582.759 1452.06,582.795 1453.38,582.83 1454.7,582.863 1456.02,582.895 1457.34,582.925 1458.66,582.954 1459.98,582.981 1461.3,583.007 1462.61,583.032 1463.93,583.055 1465.25,583.077 1466.57,583.098 1467.89,583.117 1469.21,583.134 1470.53,583.151 1471.85,583.165 1473.16,583.179 1474.48,583.191 1475.8,583.201 1477.12,583.211 1478.44,583.218 1479.76,583.225 1481.08,583.23 1482.39,583.233 1483.71,583.235 1485.03,583.236 1486.35,583.235 1487.67,583.233 1488.99,583.23 1490.31,583.225 1491.63,583.218 1492.94,583.211 1494.26,583.202 1495.58,583.191 1496.9,583.179 1498.22,583.166 1499.54,583.151 1500.86,583.135 1502.18,583.118 1503.49,583.099 1504.81,583.079 1506.13,583.058 1507.45,583.035 1508.77,583.011 1510.09,582.985 1511.41,582.958 1512.73,582.93 1514.04,582.9 1515.36,582.869 1516.68,582.837 1518,582.803 1519.32,582.768 1520.64,582.732 1521.96,582.694 1523.28,582.656 1524.59,582.615 1525.91,582.574 1527.23,582.531 1528.55,582.487 1529.87,582.441 1531.19,582.395 1532.51,582.347 1533.83,582.298 1535.14,582.247 1536.46,582.195 1537.78,582.142 1539.1,582.088 1540.42,582.032 1541.74,581.976 1543.06,581.918 1544.38,581.858 1545.69,581.798 1547.01,581.736 1548.33,581.674 1549.65,581.61 1550.97,581.544 1552.29,581.478 1553.61,581.41 1554.93,581.342 1556.24,581.272 1557.56,581.201 1558.88,581.128 1560.2,581.055 1561.52,580.98 1562.84,580.905 1564.16,580.828 1565.47,580.75 1566.79,580.671 1568.11,580.591 1569.43,580.51 1570.75,580.428 1572.07,580.345 1573.39,580.26 1574.71,580.175 1576.02,580.088 1577.34,580.001 1578.66,579.913 1579.98,579.823 1581.3,579.733 1582.62,579.641 1583.94,579.548 1585.26,579.455 1586.57,579.361 1587.89,579.265 1589.21,579.169 1590.53,579.071 1591.85,578.973 1593.17,578.874 1594.49,578.774 1595.81,578.673 1597.12,578.571 1598.44,578.468 1599.76,578.365 1601.08,578.26 1602.4,578.155 1603.72,578.049 1605.04,577.942 1606.36,577.834 1607.67,577.725 1608.99,577.616 1610.31,577.505 1611.63,577.394 1612.95,577.282 1614.27,577.17 1615.59,577.056 1616.91,576.942 1618.22,576.827 1619.54,576.712 1620.86,576.596 1622.18,576.479 1623.5,576.361 1624.82,576.243 1626.14,576.124 1627.46,576.004 1628.77,575.884 1630.09,575.763 1631.41,575.642 1632.73,575.519 1634.05,575.397 1635.37,575.273 1636.69,575.15 1638,575.025 1639.32,574.9 1640.64,574.775 1641.96,574.648 1643.28,574.522 1644.6,574.395 1645.92,574.267 1647.24,574.139 1648.55,574.011 1649.87,573.882 1651.19,573.752 1652.51,573.622 1653.83,573.492 1655.15,573.361 1656.47,573.23 1657.79,573.099 1659.1,572.967 1660.42,572.835 1661.74,572.702 1663.06,572.569 1664.38,572.436 1665.7,572.302 1667.02,572.169 1668.34,572.034 1669.65,571.9 1670.97,571.765 1672.29,571.63 1673.61,571.495 1674.93,571.36 1676.25,571.224 1677.57,571.088 1678.89,570.952 1680.2,570.816 1681.52,570.68 1682.84,570.543 1684.16,570.406 1685.48,570.27 1686.8,570.133 1688.12,569.996 1689.44,569.859 1690.75,569.721 1692.07,569.584 1693.39,569.447 1694.71,569.309 1696.03,569.172 1697.35,569.034 1698.67,568.897 1699.99,568.759 1701.3,568.622 1702.62,568.484 1703.94,568.347 1705.26,568.21 1706.58,568.072 1707.9,567.935 1709.22,567.798 1710.54,567.661 1711.85,567.524 1713.17,567.387 1714.49,567.25 1715.81,567.114 1717.13,566.978 1718.45,566.841 1719.77,566.705 1721.08,566.569 1722.4,566.434 1723.72,566.298 1725.04,566.163 1726.36,566.028 1727.68,565.894 1729,565.759 1730.32,565.625 1731.63,565.491 1732.95,565.357 1734.27,565.224 1735.59,565.091 1736.91,564.959 1738.23,564.826 1739.55,564.694 1740.87,564.563 1742.18,564.432 1743.5,564.301 1744.82,564.17 1746.14,564.04 1747.46,563.911 1748.78,563.782 1750.1,563.653 1751.42,563.525 1752.73,563.397 1754.05,563.27 1755.37,563.143 1756.69,563.017 1758.01,562.891 1759.33,562.765 1760.65,562.641 1761.97,562.517 1763.28,562.393 1764.6,562.27 1765.92,562.147 1767.24,562.025 1768.56,561.904 1769.88,561.783 1771.2,561.663 1772.52,561.543 1773.83,561.425 1775.15,561.306 1776.47,561.189 1777.79,561.072 1779.11,560.955 1780.43,560.84 1781.75,560.725 1783.07,560.611 1784.38,560.497 1785.7,560.385 1787.02,560.272 1788.34,560.161 1789.66,560.051 1790.98,559.941 1792.3,559.832 1793.61,559.723 1794.93,559.616 1796.25,559.509 1797.57,559.403 1798.89,559.298 1800.21,559.194 1801.53,559.091 1802.85,558.988 1804.16,558.886 1805.48,558.785 1806.8,558.685 1808.12,558.586 1809.44,558.488 1810.76,558.39 1812.08,558.294 1813.4,558.198 1814.71,558.103 1816.03,558.01 1817.35,557.917 1818.67,557.825 1819.99,557.734 1821.31,557.644 1822.63,557.554 1823.95,557.466 1825.26,557.379 1826.58,557.293 1827.9,557.207 1829.22,557.123 1830.54,557.04 1831.86,556.957 1833.18,556.876 1834.5,556.796 1835.81,556.717 1837.13,556.638 1838.45,556.561 1839.77,556.485 1841.09,556.41 1842.41,556.336 1843.73,556.263 1845.05,556.191 1846.36,556.12 1847.68,556.05 1849,555.981 1850.32,555.913 1851.64,555.847 1852.96,555.781 1854.28,555.717 1855.6,555.653 1856.91,555.591 1858.23,555.53 1859.55,555.47 1860.87,555.411 1862.19,555.353 1863.51,555.297 1864.83,555.241 1866.14,555.187 1867.46,555.133 1868.78,555.081 1870.1,555.03 1871.42,554.98 1872.74,554.932 1874.06,554.884 1875.38,554.838 1876.69,554.793 1878.01,554.748 1879.33,554.706 1880.65,554.664 1881.97,554.623 1883.29,554.584 1884.61,554.546 1885.93,554.509 1887.24,554.473 1888.56,554.438 1889.88,554.405 1891.2,554.372 1892.52,554.341 1893.84,554.312 1895.16,554.283 1896.48,554.255 1897.79,554.229 1899.11,554.204 1900.43,554.18 1901.75,554.157 1903.07,554.136 1904.39,554.116 1905.71,554.097 1907.03,554.08 1908.34,554.064 1909.66,554.05 1910.98,554.037 1912.3,554.026 1913.62,554.016 1914.94,554.007 1916.26,554.001 1917.58,553.996 1918.89,553.992 1920.21,553.991 1921.53,553.991 1922.85,553.992 1924.17,553.996 1925.49,554.001 1926.81,554.009 1928.13,554.018 1929.44,554.029 1930.76,554.041 1932.08,554.056 1933.4,554.073 1934.72,554.092 1936.04,554.112 1937.36,554.135 1938.68,554.16 1939.99,554.187 1941.31,554.216 1942.63,554.247 1943.95,554.28 1945.27,554.315 1946.59,554.353 1947.91,554.392 1949.22,554.434 1950.54,554.478 1951.86,554.524 1953.18,554.572 1954.5,554.623 1955.82,554.676 1957.14,554.731 1958.46,554.788 1959.77,554.847 1961.09,554.909 1962.41,554.973 1963.73,555.039 1965.05,555.107 1966.37,555.178 1967.69,555.251 1969.01,555.326 1970.32,555.403 1971.64,555.482 1972.96,555.563 1974.28,555.647 1975.6,555.732 1976.92,555.82 1978.24,555.91 1979.56,556.002 1980.87,556.096 1982.19,556.192 1983.51,556.29 1984.83,556.389 1986.15,556.491 1987.47,556.595 1988.79,556.7 1990.11,556.807 1991.42,556.917 1992.74,557.027 1994.06,557.14 1995.38,557.254 1996.7,557.37 1998.02,557.487 1999.34,557.606 2000.66,557.726 2001.97,557.847 2003.29,557.97 2004.61,558.095 2005.93,558.22 2007.25,558.347 2008.57,558.474 2009.89,558.603 2011.21,558.733 2012.52,558.864 2013.84,558.996 2015.16,559.128 2016.48,559.262 2017.8,559.396 2019.12,559.53 2020.44,559.665 2021.75,559.801 2023.07,559.937 2024.39,560.074 2025.71,560.21 2027.03,560.347 2028.35,560.484 2029.67,560.622 2030.99,560.759 2032.3,560.896 2033.62,561.033 2034.94,561.17 2036.26,561.306 2037.58,561.442 2038.9,561.578 2040.22,561.714 2041.54,561.848 2042.85,561.983 2044.17,562.116 2045.49,562.249 2046.81,562.381 2048.13,562.512 2049.45,562.642 2050.77,562.771 2052.09,562.899 2053.4,563.026 2054.72,563.152 2056.04,563.277 2057.36,563.4 2058.68,563.522 2060,563.643 2061.32,563.762 2062.64,563.88 2063.95,563.996 2065.27,564.111 2066.59,564.224 2067.91,564.335 2069.23,564.444 2070.55,564.552 2071.87,564.658 2073.19,564.763 2074.5,564.865 2075.82,564.966 2077.14,565.064 2078.46,565.161 2079.78,565.256 2081.1,565.348 2082.42,565.439 2083.74,565.528 2085.05,565.615 2086.37,565.7 2087.69,565.782 2089.01,565.863 2090.33,565.942 2091.65,566.018 2092.97,566.093 2094.29,566.165 2095.6,566.236 2096.92,566.304 2098.24,566.37 2099.56,566.435 2100.88,566.497 2102.2,566.557 2103.52,566.615 2104.83,566.671 2106.15,566.726 2107.47,566.778 2108.79,566.829 2110.11,566.877 2111.43,566.924 2112.75,566.969 2114.07,567.012 2115.38,567.053 2116.7,567.092 2118.02,567.13 2119.34,567.166 2120.66,567.2 2121.98,567.233 2123.3,567.264 2124.62,567.293 2125.93,567.321 2127.25,567.348 2128.57,567.373 2129.89,567.397 2131.21,567.419 2132.53,567.44 2133.85,567.459 2135.17,567.478 2136.48,567.495 2137.8,567.511 2139.12,567.526 2140.44,567.539 2141.76,567.552 2143.08,567.564 2144.4,567.574 2145.72,567.584 2147.03,567.593 2148.35,567.601 2149.67,567.608 2150.99,567.614 2152.31,567.619 2153.63,567.624 2154.95,567.628 2156.27,567.632 2157.58,567.635 2158.9,567.637 2160.22,567.639 2161.54,567.64 2162.86,567.641 2164.18,567.641 2165.5,567.641 2166.82,567.64 2168.13,567.639 2169.45,567.638 2170.77,567.636 2172.09,567.634 2173.41,567.632 2174.73,567.63 2176.05,567.627 2177.36,567.624 2178.68,567.621 2180,567.618 2181.32,567.615 2182.64,567.611 2183.96,567.608 2185.28,567.604 2186.6,567.6 2187.91,567.596 2189.23,567.593 2190.55,567.589 2191.87,567.585 2193.19,567.581 2194.51,567.577 2195.83,567.573 2197.15,567.569 2198.46,567.566 2199.78,567.562 2201.1,567.558 2202.42,567.554 2203.74,567.551 2205.06,567.547 2206.38,567.544 2207.7,567.54 2209.01,567.537 2210.33,567.533 2211.65,567.53 2212.97,567.527 2214.29,567.524 2215.61,567.521 2216.93,567.518 2218.25,567.515 2219.56,567.513 2220.88,567.51 2222.2,567.508 2223.52,567.505 2224.84,567.503 2226.16,567.5 2227.48,567.498 2228.8,567.496 2230.11,567.494 2231.43,567.492 2232.75,567.49 2234.07,567.489 2235.39,567.487 2236.71,567.485 2238.03,567.484 2239.35,567.482 2240.66,567.481 2241.98,567.48 2243.3,567.478 2244.62,567.477 2245.94,567.476 2247.26,567.475 2248.58,567.474 2249.9,567.473 2251.21,567.472 2252.53,567.471 2253.85,567.47 2255.17,567.47 2256.49,567.469 2257.81,567.468 2259.13,567.467 2260.44,567.467 2261.76,567.466 2263.08,567.466 2264.4,567.465 2265.72,567.465 2267.04,567.464 2268.36,567.464 2269.68,567.463 2270.99,567.463 2272.31,567.463 2273.63,567.462 2274.95,567.462 2276.27,567.462 2277.59,567.462 2278.91,567.461 2280.23,567.461 2281.54,567.461 2282.86,567.461 2284.18,567.46 2285.5,567.46 2286.82,567.46 2288.14,567.46 2289.46,567.46 2290.78,567.459 2292.09,567.459 2293.41,567.459 "/>
<path clip-path="url(#clip020)" d="M1966.89 248.629 L2282.86 248.629 L2282.86 93.1086 L1966.89 93.1086  Z" fill="#ffffff" fill-rule="evenodd" fill-opacity="1"/>
<polyline clip-path="url(#clip020)" style="stroke:#000000; stroke-linecap:round; stroke-linejoin:round; stroke-width:4; stroke-opacity:1; fill:none" points="1966.89,248.629 2282.86,248.629 2282.86,93.1086 1966.89,93.1086 1966.89,248.629 "/>
<polyline clip-path="url(#clip020)" style="stroke:#009af9; stroke-linecap:round; stroke-linejoin:round; stroke-width:4; stroke-opacity:1; fill:none" points="1990.19,144.949 2129.97,144.949 "/>
<path clip-path="url(#clip020)" d="M2153.27 127.669 L2157.95 127.669 L2157.95 158.293 L2174.77 158.293 L2174.77 162.229 L2153.27 162.229 L2153.27 127.669 Z" fill="#000000" fill-rule="nonzero" fill-opacity="1" /><path clip-path="url(#clip020)" d="M2184.36 131.511 L2184.36 144.497 L2190.24 144.497 Q2193.5 144.497 2195.28 142.807 Q2197.07 141.118 2197.07 137.993 Q2197.07 134.891 2195.28 133.201 Q2193.5 131.511 2190.24 131.511 L2184.36 131.511 M2179.68 127.669 L2190.24 127.669 Q2196.05 127.669 2199.01 130.307 Q2202 132.923 2202 137.993 Q2202 143.108 2199.01 145.724 Q2196.05 148.34 2190.24 148.34 L2184.36 148.34 L2184.36 162.229 L2179.68 162.229 L2179.68 127.669 Z" fill="#000000" fill-rule="nonzero" fill-opacity="1" /><path clip-path="url(#clip020)" d="M2218.69 130.747 Q2215.08 130.747 2213.25 134.312 Q2211.44 137.854 2211.44 144.983 Q2211.44 152.09 2213.25 155.655 Q2215.08 159.196 2218.69 159.196 Q2222.32 159.196 2224.13 155.655 Q2225.95 152.09 2225.95 144.983 Q2225.95 137.854 2224.13 134.312 Q2222.32 130.747 2218.69 130.747 M2218.69 127.044 Q2224.5 127.044 2227.55 131.65 Q2230.63 136.233 2230.63 144.983 Q2230.63 153.71 2227.55 158.317 Q2224.5 162.9 2218.69 162.9 Q2212.88 162.9 2209.8 158.317 Q2206.74 153.71 2206.74 144.983 Q2206.74 136.233 2209.8 131.65 Q2212.88 127.044 2218.69 127.044 Z" fill="#000000" fill-rule="nonzero" fill-opacity="1" /><path clip-path="url(#clip020)" d="M2239.66 158.293 L2247.3 158.293 L2247.3 131.928 L2238.99 133.595 L2238.99 129.335 L2247.25 127.669 L2251.93 127.669 L2251.93 158.293 L2259.57 158.293 L2259.57 162.229 L2239.66 162.229 L2239.66 158.293 Z" fill="#000000" fill-rule="nonzero" fill-opacity="1" /><polyline clip-path="url(#clip020)" style="stroke:#e26f46; stroke-linecap:round; stroke-linejoin:round; stroke-width:4; stroke-opacity:1; fill:none" points="1990.19,196.789 2129.97,196.789 "/>
<path clip-path="url(#clip020)" d="M2153.27 179.509 L2157.95 179.509 L2157.95 210.133 L2174.77 210.133 L2174.77 214.069 L2153.27 214.069 L2153.27 179.509 Z" fill="#000000" fill-rule="nonzero" fill-opacity="1" /><path clip-path="url(#clip020)" d="M2184.36 183.351 L2184.36 196.337 L2190.24 196.337 Q2193.5 196.337 2195.28 194.647 Q2197.07 192.958 2197.07 189.833 Q2197.07 186.731 2195.28 185.041 Q2193.5 183.351 2190.24 183.351 L2184.36 183.351 M2179.68 179.509 L2190.24 179.509 Q2196.05 179.509 2199.01 182.147 Q2202 184.763 2202 189.833 Q2202 194.948 2199.01 197.564 Q2196.05 200.18 2190.24 200.18 L2184.36 200.18 L2184.36 214.069 L2179.68 214.069 L2179.68 179.509 Z" fill="#000000" fill-rule="nonzero" fill-opacity="1" /><path clip-path="url(#clip020)" d="M2218.69 182.587 Q2215.08 182.587 2213.25 186.152 Q2211.44 189.694 2211.44 196.823 Q2211.44 203.93 2213.25 207.495 Q2215.08 211.036 2218.69 211.036 Q2222.32 211.036 2224.13 207.495 Q2225.95 203.93 2225.95 196.823 Q2225.95 189.694 2224.13 186.152 Q2222.32 182.587 2218.69 182.587 M2218.69 178.884 Q2224.5 178.884 2227.55 183.49 Q2230.63 188.073 2230.63 196.823 Q2230.63 205.55 2227.55 210.157 Q2224.5 214.74 2218.69 214.74 Q2212.88 214.74 2209.8 210.157 Q2206.74 205.55 2206.74 196.823 Q2206.74 188.073 2209.8 183.49 Q2212.88 178.884 2218.69 178.884 Z" fill="#000000" fill-rule="nonzero" fill-opacity="1" /><path clip-path="url(#clip020)" d="M2242.88 210.133 L2259.2 210.133 L2259.2 214.069 L2237.25 214.069 L2237.25 210.133 Q2239.91 207.379 2244.5 202.749 Q2249.1 198.096 2250.28 196.754 Q2252.53 194.231 2253.41 192.495 Q2254.31 190.735 2254.31 189.046 Q2254.31 186.291 2252.37 184.555 Q2250.45 182.819 2247.34 182.819 Q2245.14 182.819 2242.69 183.583 Q2240.26 184.347 2237.48 185.897 L2237.48 181.175 Q2240.31 180.041 2242.76 179.462 Q2245.21 178.884 2247.25 178.884 Q2252.62 178.884 2255.82 181.569 Q2259.01 184.254 2259.01 188.745 Q2259.01 190.874 2258.2 192.796 Q2257.41 194.694 2255.31 197.286 Q2254.73 197.958 2251.63 201.175 Q2248.52 204.37 2242.88 210.133 Z" fill="#000000" fill-rule="nonzero" fill-opacity="1" /></svg>
