<?xml version="1.0" encoding="utf-8"?>
<svg xmlns="http://www.w3.org/2000/svg" xmlns:xlink="http://www.w3.org/1999/xlink" width="600" height="400" viewBox="0 0 2400 1600">
<defs>
  <clipPath id="clip990">
    <rect x="0" y="0" width="2400" height="1600"/>
  </clipPath>
</defs>
<path clip-path="url(#clip990)" d="M0 1600 L2400 1600 L2400 0 L0 0  Z" fill="#ffffff" fill-rule="evenodd" fill-opacity="1"/>
<defs>
  <clipPath id="clip991">
    <rect x="407" y="47" width="1946" height="1377"/>
  </clipPath>
</defs>
<path clip-path="url(#clip990)" d="M407.875 1423.18 L2352.76 1423.18 L2352.76 47.2441 L407.875 47.2441  Z" fill="#ffffff" fill-rule="evenodd" fill-opacity="1"/>
<polyline clip-path="url(#clip991)" style="stroke:#000000; stroke-linecap:round; stroke-linejoin:round; stroke-width:2; stroke-opacity:0.1; fill:none" points="462.918,1423.18 462.918,47.2441 "/>
<polyline clip-path="url(#clip991)" style="stroke:#000000; stroke-linecap:round; stroke-linejoin:round; stroke-width:2; stroke-opacity:0.1; fill:none" points="1074.52,1423.18 1074.52,47.2441 "/>
<polyline clip-path="url(#clip991)" style="stroke:#000000; stroke-linecap:round; stroke-linejoin:round; stroke-width:2; stroke-opacity:0.1; fill:none" points="1686.11,1423.18 1686.11,47.2441 "/>
<polyline clip-path="url(#clip991)" style="stroke:#000000; stroke-linecap:round; stroke-linejoin:round; stroke-width:2; stroke-opacity:0.1; fill:none" points="2297.71,1423.18 2297.71,47.2441 "/>
<polyline clip-path="url(#clip991)" style="stroke:#000000; stroke-linecap:round; stroke-linejoin:round; stroke-width:2; stroke-opacity:0.1; fill:none" points="407.875,1302 2352.76,1302 "/>
<polyline clip-path="url(#clip991)" style="stroke:#000000; stroke-linecap:round; stroke-linejoin:round; stroke-width:2; stroke-opacity:0.1; fill:none" points="407.875,1041.38 2352.76,1041.38 "/>
<polyline clip-path="url(#clip991)" style="stroke:#000000; stroke-linecap:round; stroke-linejoin:round; stroke-width:2; stroke-opacity:0.1; fill:none" points="407.875,780.756 2352.76,780.756 "/>
<polyline clip-path="url(#clip991)" style="stroke:#000000; stroke-linecap:round; stroke-linejoin:round; stroke-width:2; stroke-opacity:0.1; fill:none" points="407.875,520.135 2352.76,520.135 "/>
<polyline clip-path="url(#clip991)" style="stroke:#000000; stroke-linecap:round; stroke-linejoin:round; stroke-width:2; stroke-opacity:0.1; fill:none" points="407.875,259.513 2352.76,259.513 "/>
<polyline clip-path="url(#clip990)" style="stroke:#000000; stroke-linecap:round; stroke-linejoin:round; stroke-width:4; stroke-opacity:1; fill:none" points="407.875,1423.18 2352.76,1423.18 "/>
<polyline clip-path="url(#clip990)" style="stroke:#000000; stroke-linecap:round; stroke-linejoin:round; stroke-width:4; stroke-opacity:1; fill:none" points="462.918,1423.18 462.918,1404.28 "/>
<polyline clip-path="url(#clip990)" style="stroke:#000000; stroke-linecap:round; stroke-linejoin:round; stroke-width:4; stroke-opacity:1; fill:none" points="1074.52,1423.18 1074.52,1404.28 "/>
<polyline clip-path="url(#clip990)" style="stroke:#000000; stroke-linecap:round; stroke-linejoin:round; stroke-width:4; stroke-opacity:1; fill:none" points="1686.11,1423.18 1686.11,1404.28 "/>
<polyline clip-path="url(#clip990)" style="stroke:#000000; stroke-linecap:round; stroke-linejoin:round; stroke-width:4; stroke-opacity:1; fill:none" points="2297.71,1423.18 2297.71,1404.28 "/>
<path clip-path="url(#clip990)" d="M462.918 1454.1 Q459.307 1454.1 457.479 1457.66 Q455.673 1461.2 455.673 1468.33 Q455.673 1475.44 457.479 1479.01 Q459.307 1482.55 462.918 1482.55 Q466.553 1482.55 468.358 1479.01 Q470.187 1475.44 470.187 1468.33 Q470.187 1461.2 468.358 1457.66 Q466.553 1454.1 462.918 1454.1 M462.918 1450.39 Q468.728 1450.39 471.784 1455 Q474.863 1459.58 474.863 1468.33 Q474.863 1477.06 471.784 1481.67 Q468.728 1486.25 462.918 1486.25 Q457.108 1486.25 454.029 1481.67 Q450.974 1477.06 450.974 1468.33 Q450.974 1459.58 454.029 1455 Q457.108 1450.39 462.918 1450.39 Z" fill="#000000" fill-rule="nonzero" fill-opacity="1" /><path clip-path="url(#clip990)" d="M1064.79 1451.02 L1083.15 1451.02 L1083.15 1454.96 L1069.08 1454.96 L1069.08 1463.43 Q1070.09 1463.08 1071.11 1462.92 Q1072.13 1462.73 1073.15 1462.73 Q1078.94 1462.73 1082.32 1465.9 Q1085.7 1469.08 1085.7 1474.49 Q1085.7 1480.07 1082.22 1483.17 Q1078.75 1486.25 1072.43 1486.25 Q1070.26 1486.25 1067.99 1485.88 Q1065.74 1485.51 1063.34 1484.77 L1063.34 1480.07 Q1065.42 1481.2 1067.64 1481.76 Q1069.86 1482.32 1072.34 1482.32 Q1076.34 1482.32 1078.68 1480.21 Q1081.02 1478.1 1081.02 1474.49 Q1081.02 1470.88 1078.68 1468.77 Q1076.34 1466.67 1072.34 1466.67 Q1070.47 1466.67 1068.59 1467.08 Q1066.74 1467.5 1064.79 1468.38 L1064.79 1451.02 Z" fill="#000000" fill-rule="nonzero" fill-opacity="1" /><path clip-path="url(#clip990)" d="M1660.8 1481.64 L1668.44 1481.64 L1668.44 1455.28 L1660.13 1456.95 L1660.13 1452.69 L1668.39 1451.02 L1673.07 1451.02 L1673.07 1481.64 L1680.71 1481.64 L1680.71 1485.58 L1660.8 1485.58 L1660.8 1481.64 Z" fill="#000000" fill-rule="nonzero" fill-opacity="1" /><path clip-path="url(#clip990)" d="M1700.15 1454.1 Q1696.54 1454.1 1694.71 1457.66 Q1692.91 1461.2 1692.91 1468.33 Q1692.91 1475.44 1694.71 1479.01 Q1696.54 1482.55 1700.15 1482.55 Q1703.79 1482.55 1705.59 1479.01 Q1707.42 1475.44 1707.42 1468.33 Q1707.42 1461.2 1705.59 1457.66 Q1703.79 1454.1 1700.15 1454.1 M1700.15 1450.39 Q1705.96 1450.39 1709.02 1455 Q1712.1 1459.58 1712.1 1468.33 Q1712.1 1477.06 1709.02 1481.67 Q1705.96 1486.25 1700.15 1486.25 Q1694.34 1486.25 1691.26 1481.67 Q1688.21 1477.06 1688.21 1468.33 Q1688.21 1459.58 1691.26 1455 Q1694.34 1450.39 1700.15 1450.39 Z" fill="#000000" fill-rule="nonzero" fill-opacity="1" /><path clip-path="url(#clip990)" d="M2272.9 1481.64 L2280.54 1481.64 L2280.54 1455.28 L2272.23 1456.95 L2272.23 1452.69 L2280.49 1451.02 L2285.17 1451.02 L2285.17 1481.64 L2292.8 1481.64 L2292.8 1485.58 L2272.9 1485.58 L2272.9 1481.64 Z" fill="#000000" fill-rule="nonzero" fill-opacity="1" /><path clip-path="url(#clip990)" d="M2302.3 1451.02 L2320.65 1451.02 L2320.65 1454.96 L2306.58 1454.96 L2306.58 1463.43 Q2307.6 1463.08 2308.61 1462.92 Q2309.63 1462.73 2310.65 1462.73 Q2316.44 1462.73 2319.82 1465.9 Q2323.2 1469.08 2323.2 1474.49 Q2323.2 1480.07 2319.73 1483.17 Q2316.25 1486.25 2309.93 1486.25 Q2307.76 1486.25 2305.49 1485.88 Q2303.24 1485.51 2300.84 1484.77 L2300.84 1480.07 Q2302.92 1481.2 2305.14 1481.76 Q2307.36 1482.32 2309.84 1482.32 Q2313.85 1482.32 2316.18 1480.21 Q2318.52 1478.1 2318.52 1474.49 Q2318.52 1470.88 2316.18 1468.77 Q2313.85 1466.67 2309.84 1466.67 Q2307.97 1466.67 2306.09 1467.08 Q2304.24 1467.5 2302.3 1468.38 L2302.3 1451.02 Z" fill="#000000" fill-rule="nonzero" fill-opacity="1" /><path clip-path="url(#clip990)" d="M1305.28 1537.87 Q1304.29 1537.3 1303.12 1537.04 Q1301.97 1536.76 1300.57 1536.76 Q1295.6 1536.76 1292.93 1540 Q1290.29 1543.22 1290.29 1549.27 L1290.29 1568.04 L1284.4 1568.04 L1284.4 1532.4 L1290.29 1532.4 L1290.29 1537.93 Q1292.13 1534.69 1295.09 1533.13 Q1298.05 1531.54 1302.29 1531.54 Q1302.89 1531.54 1303.62 1531.63 Q1304.36 1531.7 1305.25 1531.85 L1305.28 1537.87 Z" fill="#000000" fill-rule="nonzero" fill-opacity="1" /><path clip-path="url(#clip990)" d="M1346.21 1518.58 Q1341.95 1525.9 1339.88 1533.06 Q1337.81 1540.23 1337.81 1547.58 Q1337.81 1554.93 1339.88 1562.16 Q1341.98 1569.35 1346.21 1576.64 L1341.12 1576.64 Q1336.34 1569.16 1333.96 1561.93 Q1331.6 1554.71 1331.6 1547.58 Q1331.6 1540.48 1333.96 1533.29 Q1336.31 1526.09 1341.12 1518.58 L1346.21 1518.58 Z" fill="#000000" fill-rule="nonzero" fill-opacity="1" /><path clip-path="url(#clip990)" d="M1356.97 1581.6 L1356.97 1532.4 L1362.83 1532.4 L1362.83 1554.55 Q1362.83 1559.16 1365.02 1561.52 Q1367.22 1563.87 1371.51 1563.87 Q1376.23 1563.87 1378.58 1561.2 Q1380.97 1558.53 1380.97 1553.18 L1380.97 1532.4 L1386.82 1532.4 L1386.82 1559.83 Q1386.82 1561.74 1387.37 1562.66 Q1387.94 1563.56 1389.12 1563.56 Q1389.4 1563.56 1389.91 1563.4 Q1390.42 1563.21 1391.31 1562.82 L1391.31 1567.53 Q1390.01 1568.27 1388.83 1568.62 Q1387.68 1568.97 1386.57 1568.97 Q1384.37 1568.97 1383.07 1567.73 Q1381.76 1566.48 1381.29 1563.94 Q1379.69 1566.45 1377.37 1567.73 Q1375.08 1568.97 1371.96 1568.97 Q1368.71 1568.97 1366.42 1567.73 Q1364.16 1566.48 1362.83 1564 L1362.83 1581.6 L1356.97 1581.6 Z" fill="#000000" fill-rule="nonzero" fill-opacity="1" /><path clip-path="url(#clip990)" d="M1426.8 1539.24 Q1429 1535.29 1432.05 1533.41 Q1435.11 1531.54 1439.25 1531.54 Q1444.82 1531.54 1447.84 1535.45 Q1450.86 1539.33 1450.86 1546.53 L1450.86 1568.04 L1444.97 1568.04 L1444.97 1546.72 Q1444.97 1541.59 1443.16 1539.11 Q1441.35 1536.63 1437.62 1536.63 Q1433.07 1536.63 1430.43 1539.65 Q1427.79 1542.68 1427.79 1547.9 L1427.79 1568.04 L1421.9 1568.04 L1421.9 1546.72 Q1421.9 1541.56 1420.08 1539.11 Q1418.27 1536.63 1414.48 1536.63 Q1410 1536.63 1407.35 1539.68 Q1404.71 1542.71 1404.71 1547.9 L1404.71 1568.04 L1398.82 1568.04 L1398.82 1532.4 L1404.71 1532.4 L1404.71 1537.93 Q1406.72 1534.66 1409.52 1533.1 Q1412.32 1531.54 1416.17 1531.54 Q1420.05 1531.54 1422.76 1533.51 Q1425.5 1535.48 1426.8 1539.24 Z" fill="#000000" fill-rule="nonzero" fill-opacity="1" /><path clip-path="url(#clip990)" d="M1461.62 1518.58 L1466.71 1518.58 Q1471.49 1526.09 1473.84 1533.29 Q1476.23 1540.48 1476.23 1547.58 Q1476.23 1554.71 1473.84 1561.93 Q1471.49 1569.16 1466.71 1576.64 L1461.62 1576.64 Q1465.85 1569.35 1467.92 1562.16 Q1470.02 1554.93 1470.02 1547.58 Q1470.02 1540.23 1467.92 1533.06 Q1465.85 1525.9 1461.62 1518.58 Z" fill="#000000" fill-rule="nonzero" fill-opacity="1" /><polyline clip-path="url(#clip990)" style="stroke:#000000; stroke-linecap:round; stroke-linejoin:round; stroke-width:4; stroke-opacity:1; fill:none" points="407.875,1423.18 407.875,47.2441 "/>
<polyline clip-path="url(#clip990)" style="stroke:#000000; stroke-linecap:round; stroke-linejoin:round; stroke-width:4; stroke-opacity:1; fill:none" points="407.875,1302 426.772,1302 "/>
<polyline clip-path="url(#clip990)" style="stroke:#000000; stroke-linecap:round; stroke-linejoin:round; stroke-width:4; stroke-opacity:1; fill:none" points="407.875,1041.38 426.772,1041.38 "/>
<polyline clip-path="url(#clip990)" style="stroke:#000000; stroke-linecap:round; stroke-linejoin:round; stroke-width:4; stroke-opacity:1; fill:none" points="407.875,780.756 426.772,780.756 "/>
<polyline clip-path="url(#clip990)" style="stroke:#000000; stroke-linecap:round; stroke-linejoin:round; stroke-width:4; stroke-opacity:1; fill:none" points="407.875,520.135 426.772,520.135 "/>
<polyline clip-path="url(#clip990)" style="stroke:#000000; stroke-linecap:round; stroke-linejoin:round; stroke-width:4; stroke-opacity:1; fill:none" points="407.875,259.513 426.772,259.513 "/>
<path clip-path="url(#clip990)" d="M114.26 1308.9 L143.936 1308.9 L143.936 1312.83 L114.26 1312.83 L114.26 1308.9 Z" fill="#000000" fill-rule="nonzero" fill-opacity="1" /><path clip-path="url(#clip990)" d="M154.075 1291.17 L172.431 1291.17 L172.431 1295.1 L158.357 1295.1 L158.357 1303.57 Q159.376 1303.23 160.394 1303.06 Q161.413 1302.88 162.431 1302.88 Q168.218 1302.88 171.598 1306.05 Q174.977 1309.22 174.977 1314.64 Q174.977 1320.22 171.505 1323.32 Q168.033 1326.4 161.714 1326.4 Q159.538 1326.4 157.269 1326.03 Q155.024 1325.66 152.616 1324.92 L152.616 1320.22 Q154.7 1321.35 156.922 1321.91 Q159.144 1322.46 161.621 1322.46 Q165.626 1322.46 167.964 1320.36 Q170.302 1318.25 170.302 1314.64 Q170.302 1311.03 167.964 1308.92 Q165.626 1306.81 161.621 1306.81 Q159.746 1306.81 157.871 1307.23 Q156.019 1307.65 154.075 1308.53 L154.075 1291.17 Z" fill="#000000" fill-rule="nonzero" fill-opacity="1" /><path clip-path="url(#clip990)" d="M184.19 1319.85 L189.075 1319.85 L189.075 1325.73 L184.19 1325.73 L184.19 1319.85 Z" fill="#000000" fill-rule="nonzero" fill-opacity="1" /><path clip-path="url(#clip990)" d="M209.26 1294.25 Q205.649 1294.25 203.82 1297.81 Q202.014 1301.35 202.014 1308.48 Q202.014 1315.59 203.82 1319.15 Q205.649 1322.69 209.26 1322.69 Q212.894 1322.69 214.699 1319.15 Q216.528 1315.59 216.528 1308.48 Q216.528 1301.35 214.699 1297.81 Q212.894 1294.25 209.26 1294.25 M209.26 1290.54 Q215.07 1290.54 218.125 1295.15 Q221.204 1299.73 221.204 1308.48 Q221.204 1317.21 218.125 1321.81 Q215.07 1326.4 209.26 1326.4 Q203.449 1326.4 200.371 1321.81 Q197.315 1317.21 197.315 1308.48 Q197.315 1299.73 200.371 1295.15 Q203.449 1290.54 209.26 1290.54 Z" fill="#000000" fill-rule="nonzero" fill-opacity="1" /><path clip-path="url(#clip990)" d="M239.422 1294.25 Q235.81 1294.25 233.982 1297.81 Q232.176 1301.35 232.176 1308.48 Q232.176 1315.59 233.982 1319.15 Q235.81 1322.69 239.422 1322.69 Q243.056 1322.69 244.861 1319.15 Q246.69 1315.59 246.69 1308.48 Q246.69 1301.35 244.861 1297.81 Q243.056 1294.25 239.422 1294.25 M239.422 1290.54 Q245.232 1290.54 248.287 1295.15 Q251.366 1299.73 251.366 1308.48 Q251.366 1317.21 248.287 1321.81 Q245.232 1326.4 239.422 1326.4 Q233.611 1326.4 230.533 1321.81 Q227.477 1317.21 227.477 1308.48 Q227.477 1299.73 230.533 1295.15 Q233.611 1290.54 239.422 1290.54 Z" fill="#000000" fill-rule="nonzero" fill-opacity="1" /><path clip-path="url(#clip990)" d="M287.755 1300.26 L277.176 1310.89 L287.755 1321.47 L285 1324.27 L274.375 1313.64 L263.75 1324.27 L261.019 1321.47 L271.574 1310.89 L261.019 1300.26 L263.75 1297.46 L274.375 1308.09 L285 1297.46 L287.755 1300.26 Z" fill="#000000" fill-rule="nonzero" fill-opacity="1" /><path clip-path="url(#clip990)" d="M300.116 1321.79 L307.754 1321.79 L307.754 1295.43 L299.444 1297.09 L299.444 1292.83 L307.708 1291.17 L312.384 1291.17 L312.384 1321.79 L320.023 1321.79 L320.023 1325.73 L300.116 1325.73 L300.116 1321.79 Z" fill="#000000" fill-rule="nonzero" fill-opacity="1" /><path clip-path="url(#clip990)" d="M339.467 1294.25 Q335.856 1294.25 334.027 1297.81 Q332.222 1301.35 332.222 1308.48 Q332.222 1315.59 334.027 1319.15 Q335.856 1322.69 339.467 1322.69 Q343.102 1322.69 344.907 1319.15 Q346.736 1315.59 346.736 1308.48 Q346.736 1301.35 344.907 1297.81 Q343.102 1294.25 339.467 1294.25 M339.467 1290.54 Q345.277 1290.54 348.333 1295.15 Q351.412 1299.73 351.412 1308.48 Q351.412 1317.21 348.333 1321.81 Q345.277 1326.4 339.467 1326.4 Q333.657 1326.4 330.578 1321.81 Q327.523 1317.21 327.523 1308.48 Q327.523 1299.73 330.578 1295.15 Q333.657 1290.54 339.467 1290.54 Z" fill="#000000" fill-rule="nonzero" fill-opacity="1" /><path clip-path="url(#clip990)" d="M364.088 1273.55 L354.496 1288.54 L364.088 1288.54 L364.088 1273.55 M363.091 1270.24 L367.868 1270.24 L367.868 1288.54 L371.875 1288.54 L371.875 1291.7 L367.868 1291.7 L367.868 1298.32 L364.088 1298.32 L364.088 1291.7 L351.412 1291.7 L351.412 1288.03 L363.091 1270.24 Z" fill="#000000" fill-rule="nonzero" fill-opacity="1" /><path clip-path="url(#clip990)" d="M359.93 1027.18 Q356.319 1027.18 354.49 1030.74 Q352.685 1034.28 352.685 1041.41 Q352.685 1048.52 354.49 1052.08 Q356.319 1055.62 359.93 1055.62 Q363.564 1055.62 365.37 1052.08 Q367.199 1048.52 367.199 1041.41 Q367.199 1034.28 365.37 1030.74 Q363.564 1027.18 359.93 1027.18 M359.93 1023.47 Q365.74 1023.47 368.796 1028.08 Q371.875 1032.66 371.875 1041.41 Q371.875 1050.14 368.796 1054.75 Q365.74 1059.33 359.93 1059.33 Q354.12 1059.33 351.041 1054.75 Q347.986 1050.14 347.986 1041.41 Q347.986 1032.66 351.041 1028.08 Q354.12 1023.47 359.93 1023.47 Z" fill="#000000" fill-rule="nonzero" fill-opacity="1" /><path clip-path="url(#clip990)" d="M154.075 769.924 L172.431 769.924 L172.431 773.859 L158.357 773.859 L158.357 782.331 Q159.376 781.984 160.394 781.822 Q161.413 781.636 162.431 781.636 Q168.218 781.636 171.598 784.808 Q174.977 787.979 174.977 793.396 Q174.977 798.974 171.505 802.076 Q168.033 805.155 161.714 805.155 Q159.538 805.155 157.269 804.784 Q155.024 804.414 152.616 803.673 L152.616 798.974 Q154.7 800.109 156.922 800.664 Q159.144 801.22 161.621 801.22 Q165.626 801.22 167.964 799.113 Q170.302 797.007 170.302 793.396 Q170.302 789.785 167.964 787.678 Q165.626 785.572 161.621 785.572 Q159.746 785.572 157.871 785.988 Q156.019 786.405 154.075 787.285 L154.075 769.924 Z" fill="#000000" fill-rule="nonzero" fill-opacity="1" /><path clip-path="url(#clip990)" d="M184.19 798.604 L189.075 798.604 L189.075 804.484 L184.19 804.484 L184.19 798.604 Z" fill="#000000" fill-rule="nonzero" fill-opacity="1" /><path clip-path="url(#clip990)" d="M209.26 773.002 Q205.649 773.002 203.82 776.567 Q202.014 780.109 202.014 787.238 Q202.014 794.345 203.82 797.91 Q205.649 801.451 209.26 801.451 Q212.894 801.451 214.699 797.91 Q216.528 794.345 216.528 787.238 Q216.528 780.109 214.699 776.567 Q212.894 773.002 209.26 773.002 M209.26 769.299 Q215.07 769.299 218.125 773.905 Q221.204 778.488 221.204 787.238 Q221.204 795.965 218.125 800.572 Q215.07 805.155 209.26 805.155 Q203.449 805.155 200.371 800.572 Q197.315 795.965 197.315 787.238 Q197.315 778.488 200.371 773.905 Q203.449 769.299 209.26 769.299 Z" fill="#000000" fill-rule="nonzero" fill-opacity="1" /><path clip-path="url(#clip990)" d="M239.422 773.002 Q235.81 773.002 233.982 776.567 Q232.176 780.109 232.176 787.238 Q232.176 794.345 233.982 797.91 Q235.81 801.451 239.422 801.451 Q243.056 801.451 244.861 797.91 Q246.69 794.345 246.69 787.238 Q246.69 780.109 244.861 776.567 Q243.056 773.002 239.422 773.002 M239.422 769.299 Q245.232 769.299 248.287 773.905 Q251.366 778.488 251.366 787.238 Q251.366 795.965 248.287 800.572 Q245.232 805.155 239.422 805.155 Q233.611 805.155 230.533 800.572 Q227.477 795.965 227.477 787.238 Q227.477 778.488 230.533 773.905 Q233.611 769.299 239.422 769.299 Z" fill="#000000" fill-rule="nonzero" fill-opacity="1" /><path clip-path="url(#clip990)" d="M287.755 779.021 L277.176 789.646 L287.755 800.224 L285 803.025 L274.375 792.4 L263.75 803.025 L261.019 800.224 L271.574 789.646 L261.019 779.021 L263.75 776.22 L274.375 786.845 L285 776.22 L287.755 779.021 Z" fill="#000000" fill-rule="nonzero" fill-opacity="1" /><path clip-path="url(#clip990)" d="M300.116 800.548 L307.754 800.548 L307.754 774.183 L299.444 775.849 L299.444 771.59 L307.708 769.924 L312.384 769.924 L312.384 800.548 L320.023 800.548 L320.023 804.484 L300.116 804.484 L300.116 800.548 Z" fill="#000000" fill-rule="nonzero" fill-opacity="1" /><path clip-path="url(#clip990)" d="M339.467 773.002 Q335.856 773.002 334.027 776.567 Q332.222 780.109 332.222 787.238 Q332.222 794.345 334.027 797.91 Q335.856 801.451 339.467 801.451 Q343.102 801.451 344.907 797.91 Q346.736 794.345 346.736 787.238 Q346.736 780.109 344.907 776.567 Q343.102 773.002 339.467 773.002 M339.467 769.299 Q345.277 769.299 348.333 773.905 Q351.412 778.488 351.412 787.238 Q351.412 795.965 348.333 800.572 Q345.277 805.155 339.467 805.155 Q333.657 805.155 330.578 800.572 Q327.523 795.965 327.523 787.238 Q327.523 778.488 330.578 773.905 Q333.657 769.299 339.467 769.299 Z" fill="#000000" fill-rule="nonzero" fill-opacity="1" /><path clip-path="url(#clip990)" d="M364.088 752.303 L354.496 767.293 L364.088 767.293 L364.088 752.303 M363.091 748.993 L367.868 748.993 L367.868 767.293 L371.875 767.293 L371.875 770.453 L367.868 770.453 L367.868 777.073 L364.088 777.073 L364.088 770.453 L351.412 770.453 L351.412 766.785 L363.091 748.993 Z" fill="#000000" fill-rule="nonzero" fill-opacity="1" /><path clip-path="url(#clip990)" d="M157.133 539.927 L164.772 539.927 L164.772 513.561 L156.462 515.228 L156.462 510.969 L164.726 509.302 L169.402 509.302 L169.402 539.927 L177.04 539.927 L177.04 543.862 L157.133 543.862 L157.133 539.927 Z" fill="#000000" fill-rule="nonzero" fill-opacity="1" /><path clip-path="url(#clip990)" d="M186.485 537.983 L191.369 537.983 L191.369 543.862 L186.485 543.862 L186.485 537.983 Z" fill="#000000" fill-rule="nonzero" fill-opacity="1" /><path clip-path="url(#clip990)" d="M211.554 512.381 Q207.943 512.381 206.114 515.946 Q204.309 519.487 204.309 526.617 Q204.309 533.723 206.114 537.288 Q207.943 540.83 211.554 540.83 Q215.188 540.83 216.994 537.288 Q218.823 533.723 218.823 526.617 Q218.823 519.487 216.994 515.946 Q215.188 512.381 211.554 512.381 M211.554 508.677 Q217.364 508.677 220.42 513.284 Q223.499 517.867 223.499 526.617 Q223.499 535.344 220.42 539.95 Q217.364 544.533 211.554 544.533 Q205.744 544.533 202.665 539.95 Q199.61 535.344 199.61 526.617 Q199.61 517.867 202.665 513.284 Q205.744 508.677 211.554 508.677 Z" fill="#000000" fill-rule="nonzero" fill-opacity="1" /><path clip-path="url(#clip990)" d="M241.716 512.381 Q238.105 512.381 236.276 515.946 Q234.471 519.487 234.471 526.617 Q234.471 533.723 236.276 537.288 Q238.105 540.83 241.716 540.83 Q245.35 540.83 247.156 537.288 Q248.985 533.723 248.985 526.617 Q248.985 519.487 247.156 515.946 Q245.35 512.381 241.716 512.381 M241.716 508.677 Q247.526 508.677 250.582 513.284 Q253.66 517.867 253.66 526.617 Q253.66 535.344 250.582 539.95 Q247.526 544.533 241.716 544.533 Q235.906 544.533 232.827 539.95 Q229.772 535.344 229.772 526.617 Q229.772 517.867 232.827 513.284 Q235.906 508.677 241.716 508.677 Z" fill="#000000" fill-rule="nonzero" fill-opacity="1" /><path clip-path="url(#clip990)" d="M290.049 518.399 L279.47 529.024 L290.049 539.603 L287.295 542.404 L276.67 531.779 L266.045 542.404 L263.313 539.603 L273.869 529.024 L263.313 518.399 L266.045 515.598 L276.67 526.223 L287.295 515.598 L290.049 518.399 Z" fill="#000000" fill-rule="nonzero" fill-opacity="1" /><path clip-path="url(#clip990)" d="M302.41 539.927 L310.049 539.927 L310.049 513.561 L301.739 515.228 L301.739 510.969 L310.003 509.302 L314.679 509.302 L314.679 539.927 L322.317 539.927 L322.317 543.862 L302.41 543.862 L302.41 539.927 Z" fill="#000000" fill-rule="nonzero" fill-opacity="1" /><path clip-path="url(#clip990)" d="M341.762 512.381 Q338.151 512.381 336.322 515.946 Q334.517 519.487 334.517 526.617 Q334.517 533.723 336.322 537.288 Q338.151 540.83 341.762 540.83 Q345.396 540.83 347.202 537.288 Q349.03 533.723 349.03 526.617 Q349.03 519.487 347.202 515.946 Q345.396 512.381 341.762 512.381 M341.762 508.677 Q347.572 508.677 350.628 513.284 Q353.706 517.867 353.706 526.617 Q353.706 535.344 350.628 539.95 Q347.572 544.533 341.762 544.533 Q335.952 544.533 332.873 539.95 Q329.817 535.344 329.817 526.617 Q329.817 517.867 332.873 513.284 Q335.952 508.677 341.762 508.677 Z" fill="#000000" fill-rule="nonzero" fill-opacity="1" /><path clip-path="url(#clip990)" d="M354.891 488.372 L369.806 488.372 L369.806 491.569 L358.371 491.569 L358.371 498.453 Q359.198 498.171 360.026 498.039 Q360.853 497.888 361.681 497.888 Q366.383 497.888 369.129 500.465 Q371.875 503.042 371.875 507.443 Q371.875 511.976 369.053 514.496 Q366.232 516.997 361.098 516.997 Q359.33 516.997 357.487 516.696 Q355.662 516.395 353.706 515.793 L353.706 511.976 Q355.399 512.897 357.204 513.348 Q359.01 513.8 361.022 513.8 Q364.276 513.8 366.176 512.088 Q368.075 510.377 368.075 507.443 Q368.075 504.509 366.176 502.797 Q364.276 501.086 361.022 501.086 Q359.499 501.086 357.976 501.424 Q356.471 501.763 354.891 502.478 L354.891 488.372 Z" fill="#000000" fill-rule="nonzero" fill-opacity="1" /><path clip-path="url(#clip990)" d="M157.133 279.306 L164.772 279.306 L164.772 252.94 L156.462 254.607 L156.462 250.347 L164.726 248.681 L169.402 248.681 L169.402 279.306 L177.04 279.306 L177.04 283.241 L157.133 283.241 L157.133 279.306 Z" fill="#000000" fill-rule="nonzero" fill-opacity="1" /><path clip-path="url(#clip990)" d="M186.485 277.361 L191.369 277.361 L191.369 283.241 L186.485 283.241 L186.485 277.361 Z" fill="#000000" fill-rule="nonzero" fill-opacity="1" /><path clip-path="url(#clip990)" d="M201.601 248.681 L219.957 248.681 L219.957 252.616 L205.883 252.616 L205.883 261.088 Q206.901 260.741 207.92 260.579 Q208.938 260.394 209.957 260.394 Q215.744 260.394 219.124 263.565 Q222.503 266.736 222.503 272.153 Q222.503 277.732 219.031 280.833 Q215.559 283.912 209.239 283.912 Q207.063 283.912 204.795 283.542 Q202.55 283.171 200.142 282.431 L200.142 277.732 Q202.226 278.866 204.448 279.421 Q206.67 279.977 209.147 279.977 Q213.151 279.977 215.489 277.87 Q217.827 275.764 217.827 272.153 Q217.827 268.542 215.489 266.435 Q213.151 264.329 209.147 264.329 Q207.272 264.329 205.397 264.745 Q203.545 265.162 201.601 266.042 L201.601 248.681 Z" fill="#000000" fill-rule="nonzero" fill-opacity="1" /><path clip-path="url(#clip990)" d="M241.716 251.759 Q238.105 251.759 236.276 255.324 Q234.471 258.866 234.471 265.995 Q234.471 273.102 236.276 276.667 Q238.105 280.208 241.716 280.208 Q245.35 280.208 247.156 276.667 Q248.985 273.102 248.985 265.995 Q248.985 258.866 247.156 255.324 Q245.35 251.759 241.716 251.759 M241.716 248.056 Q247.526 248.056 250.582 252.662 Q253.66 257.246 253.66 265.995 Q253.66 274.722 250.582 279.329 Q247.526 283.912 241.716 283.912 Q235.906 283.912 232.827 279.329 Q229.772 274.722 229.772 265.995 Q229.772 257.246 232.827 252.662 Q235.906 248.056 241.716 248.056 Z" fill="#000000" fill-rule="nonzero" fill-opacity="1" /><path clip-path="url(#clip990)" d="M290.049 257.778 L279.47 268.403 L290.049 278.982 L287.295 281.782 L276.67 271.157 L266.045 281.782 L263.313 278.982 L273.869 268.403 L263.313 257.778 L266.045 254.977 L276.67 265.602 L287.295 254.977 L290.049 257.778 Z" fill="#000000" fill-rule="nonzero" fill-opacity="1" /><path clip-path="url(#clip990)" d="M302.41 279.306 L310.049 279.306 L310.049 252.94 L301.739 254.607 L301.739 250.347 L310.003 248.681 L314.679 248.681 L314.679 279.306 L322.317 279.306 L322.317 283.241 L302.41 283.241 L302.41 279.306 Z" fill="#000000" fill-rule="nonzero" fill-opacity="1" /><path clip-path="url(#clip990)" d="M341.762 251.759 Q338.151 251.759 336.322 255.324 Q334.517 258.866 334.517 265.995 Q334.517 273.102 336.322 276.667 Q338.151 280.208 341.762 280.208 Q345.396 280.208 347.202 276.667 Q349.03 273.102 349.03 265.995 Q349.03 258.866 347.202 255.324 Q345.396 251.759 341.762 251.759 M341.762 248.056 Q347.572 248.056 350.628 252.662 Q353.706 257.246 353.706 265.995 Q353.706 274.722 350.628 279.329 Q347.572 283.912 341.762 283.912 Q335.952 283.912 332.873 279.329 Q329.817 274.722 329.817 265.995 Q329.817 257.246 332.873 252.662 Q335.952 248.056 341.762 248.056 Z" fill="#000000" fill-rule="nonzero" fill-opacity="1" /><path clip-path="url(#clip990)" d="M354.891 227.75 L369.806 227.75 L369.806 230.948 L358.371 230.948 L358.371 237.831 Q359.198 237.549 360.026 237.418 Q360.853 237.267 361.681 237.267 Q366.383 237.267 369.129 239.844 Q371.875 242.42 371.875 246.821 Q371.875 251.354 369.053 253.874 Q366.232 256.376 361.098 256.376 Q359.33 256.376 357.487 256.075 Q355.662 255.774 353.706 255.172 L353.706 251.354 Q355.399 252.276 357.204 252.727 Q359.01 253.178 361.022 253.178 Q364.276 253.178 366.176 251.467 Q368.075 249.755 368.075 246.821 Q368.075 243.887 366.176 242.176 Q364.276 240.464 361.022 240.464 Q359.499 240.464 357.976 240.803 Q356.471 241.141 354.891 241.856 L354.891 227.75 Z" fill="#000000" fill-rule="nonzero" fill-opacity="1" /><path clip-path="url(#clip990)" d="M33.8307 976.361 Q33.2578 977.348 33.0032 978.525 Q32.7167 979.671 32.7167 981.071 Q32.7167 986.037 35.9632 988.71 Q39.1779 991.352 45.2253 991.352 L64.0042 991.352 L64.0042 997.24 L28.3562 997.24 L28.3562 991.352 L33.8944 991.352 Q30.6479 989.506 29.0883 986.546 Q27.4968 983.586 27.4968 979.353 Q27.4968 978.748 27.5923 978.016 Q27.656 977.284 27.8151 976.393 L33.8307 976.361 Z" fill="#000000" fill-rule="nonzero" fill-opacity="1" /><path clip-path="url(#clip990)" d="M44.7161 941.158 L47.5806 941.158 L47.5806 968.085 Q53.6281 967.703 56.8109 964.457 Q59.9619 961.179 59.9619 955.354 Q59.9619 951.98 59.1344 948.829 Q58.3069 945.646 56.6518 942.527 L62.1899 942.527 Q63.5267 945.678 64.227 948.988 Q64.9272 952.298 64.9272 955.704 Q64.9272 964.234 59.9619 969.231 Q54.9967 974.197 46.5303 974.197 Q37.7774 974.197 32.6531 969.486 Q27.4968 964.743 27.4968 956.723 Q27.4968 949.529 32.1438 945.36 Q36.7589 941.158 44.7161 941.158 M42.9973 947.015 Q38.1912 947.079 35.3266 949.72 Q32.4621 952.33 32.4621 956.659 Q32.4621 961.561 35.2312 964.521 Q38.0002 967.449 43.0292 967.894 L42.9973 947.015 Z" fill="#000000" fill-rule="nonzero" fill-opacity="1" /><path clip-path="url(#clip990)" d="M46.0847 915.346 Q46.0847 922.443 47.7079 925.181 Q49.3312 927.918 53.2461 927.918 Q56.3653 927.918 58.2114 925.881 Q60.0256 923.812 60.0256 920.279 Q60.0256 915.409 56.5881 912.481 Q53.1188 909.521 47.3897 909.521 L46.0847 909.521 L46.0847 915.346 M43.6657 903.664 L64.0042 903.664 L64.0042 909.521 L58.5933 909.521 Q61.8398 911.526 63.3994 914.518 Q64.9272 917.51 64.9272 921.839 Q64.9272 927.313 61.8716 930.56 Q58.7843 933.774 53.6281 933.774 Q47.6125 933.774 44.5569 929.764 Q41.5014 925.722 41.5014 917.733 L41.5014 909.521 L40.9285 909.521 Q36.8862 909.521 34.6901 912.195 Q32.4621 914.836 32.4621 919.642 Q32.4621 922.698 33.1941 925.594 Q33.9262 928.491 35.3903 931.164 L29.9795 931.164 Q28.7381 927.95 28.1334 924.926 Q27.4968 921.902 27.4968 919.038 Q27.4968 911.303 31.5072 907.484 Q35.5176 903.664 43.6657 903.664 Z" fill="#000000" fill-rule="nonzero" fill-opacity="1" /><path clip-path="url(#clip990)" d="M14.479 891.601 L14.479 885.745 L64.0042 885.745 L64.0042 891.601 L14.479 891.601 Z" fill="#000000" fill-rule="nonzero" fill-opacity="1" /><path clip-path="url(#clip990)" d="M14.5426 859.423 Q21.8632 863.688 29.0246 865.757 Q36.186 867.826 43.5384 867.826 Q50.8908 867.826 58.1159 865.757 Q65.3091 863.656 72.5979 859.423 L72.5979 864.515 Q65.1182 869.29 57.8931 871.677 Q50.668 874.032 43.5384 874.032 Q36.4406 874.032 29.2474 871.677 Q22.0542 869.321 14.5426 864.515 L14.5426 859.423 Z" fill="#000000" fill-rule="nonzero" fill-opacity="1" /><path clip-path="url(#clip990)" d="M16.4842 847.805 L16.4842 817.759 L21.895 817.759 L21.895 841.376 L35.9632 841.376 L35.9632 818.746 L41.3741 818.746 L41.3741 841.376 L58.5933 841.376 L58.5933 817.186 L64.0042 817.186 L64.0042 847.805 L16.4842 847.805 Z" fill="#000000" fill-rule="nonzero" fill-opacity="1" /><path clip-path="url(#clip990)" d="M14.5426 807.797 L14.5426 802.704 Q22.0542 797.93 29.2474 795.575 Q36.4406 793.188 43.5384 793.188 Q50.668 793.188 57.8931 795.575 Q65.1182 797.93 72.5979 802.704 L72.5979 807.797 Q65.3091 803.564 58.1159 801.495 Q50.8908 799.394 43.5384 799.394 Q36.186 799.394 29.0246 801.495 Q21.8632 803.564 14.5426 807.797 Z" fill="#000000" fill-rule="nonzero" fill-opacity="1" /><path clip-path="url(#clip990)" d="M14.5426 746.654 Q21.8632 750.919 29.0246 752.988 Q36.186 755.057 43.5384 755.057 Q50.8908 755.057 58.1159 752.988 Q65.3091 750.888 72.5979 746.654 L72.5979 751.747 Q65.1182 756.521 57.8931 758.908 Q50.668 761.264 43.5384 761.264 Q36.4406 761.264 29.2474 758.908 Q22.0542 756.553 14.5426 751.747 L14.5426 746.654 Z" fill="#000000" fill-rule="nonzero" fill-opacity="1" /><path clip-path="url(#clip990)" d="M64.0042 722.783 L16.4842 740.925 L16.4842 734.209 L56.4926 719.154 L16.4842 704.068 L16.4842 697.384 L64.0042 715.494 L64.0042 722.783 Z" fill="#000000" fill-rule="nonzero" fill-opacity="1" /><path clip-path="url(#clip990)" d="M35.1993 642.225 Q31.2526 640.029 29.3747 636.973 Q27.4968 633.918 27.4968 629.78 Q27.4968 624.21 31.4117 621.186 Q35.2948 618.163 42.4881 618.163 L64.0042 618.163 L64.0042 624.051 L42.679 624.051 Q37.5546 624.051 35.072 625.865 Q32.5894 627.679 32.5894 631.403 Q32.5894 635.955 35.6131 638.596 Q38.6368 641.238 43.8567 641.238 L64.0042 641.238 L64.0042 647.127 L42.679 647.127 Q37.5228 647.127 35.072 648.941 Q32.5894 650.755 32.5894 654.543 Q32.5894 659.03 35.6449 661.672 Q38.6686 664.314 43.8567 664.314 L64.0042 664.314 L64.0042 670.202 L28.3562 670.202 L28.3562 664.314 L33.8944 664.314 Q30.616 662.309 29.0564 659.508 Q27.4968 656.707 27.4968 652.856 Q27.4968 648.973 29.4702 646.267 Q31.4436 643.53 35.1993 642.225 Z" fill="#000000" fill-rule="nonzero" fill-opacity="1" /><path clip-path="url(#clip990)" d="M16.4842 582.196 L34.2127 564.913 L34.2127 571.311 L21.6404 585.315 L34.2127 599.32 L34.2127 605.718 L16.4842 588.435 L16.4842 582.196 Z" fill="#000000" fill-rule="nonzero" fill-opacity="1" /><path clip-path="url(#clip990)" d="M43.5384 554.824 L43.5384 537.668 L48.7583 537.668 L48.7583 554.824 L43.5384 554.824 Z" fill="#000000" fill-rule="nonzero" fill-opacity="1" /><path clip-path="url(#clip990)" d="M58.5933 526.401 L58.5933 515.897 L22.3406 515.897 L24.6323 527.324 L18.7758 527.324 L16.4842 515.961 L16.4842 509.532 L58.5933 509.532 L58.5933 499.028 L64.0042 499.028 L64.0042 526.401 L58.5933 526.401 Z" fill="#000000" fill-rule="nonzero" fill-opacity="1" /><path clip-path="url(#clip990)" d="M14.5426 487.793 L14.5426 482.7 Q22.0542 477.926 29.2474 475.571 Q36.4406 473.184 43.5384 473.184 Q50.668 473.184 57.8931 475.571 Q65.1182 477.926 72.5979 482.7 L72.5979 487.793 Q65.3091 483.56 58.1159 481.491 Q50.8908 479.39 43.5384 479.39 Q36.186 479.39 29.0246 481.491 Q21.8632 483.56 14.5426 487.793 Z" fill="#000000" fill-rule="nonzero" fill-opacity="1" /><polyline clip-path="url(#clip991)" style="stroke:#009af9; stroke-linecap:round; stroke-linejoin:round; stroke-width:4; stroke-opacity:1; fill:none" points="462.918,86.1857 464.142,86.192 465.365,86.2108 466.588,86.2422 467.811,86.2862 469.034,86.3428 470.258,86.412 471.481,86.4937 472.704,86.5879 473.927,86.6948 475.15,86.8142 476.373,86.9461 477.597,87.0907 478.82,87.2477 480.043,87.4174 481.266,87.5995 482.489,87.7942 483.713,88.0015 484.936,88.2213 486.159,88.4536 487.382,88.6985 488.605,88.9558 489.829,89.2257 491.052,89.5081 492.275,89.8031 493.498,90.1105 494.721,90.4304 495.945,90.7628 497.168,91.1076 498.391,91.465 499.614,91.8348 500.837,92.2171 502.061,92.6118 503.284,93.019 504.507,93.4386 505.73,93.8707 506.953,94.3151 508.177,94.772 509.4,95.2413 510.623,95.723 511.846,96.217 513.069,96.7235 514.293,97.2423 515.516,97.7734 516.739,98.3169 517.962,98.8727 519.185,99.4409 520.409,100.021 521.632,100.614 522.855,101.219 524.078,101.836 525.301,102.466 526.525,103.108 527.748,103.762 528.971,104.428 530.194,105.107 531.417,105.798 532.64,106.5 533.864,107.215 535.087,107.943 536.31,108.682 537.533,109.434 538.756,110.197 539.98,110.973 541.203,111.761 542.426,112.561 543.649,113.372 544.872,114.196 546.096,115.032 547.319,115.88 548.542,116.74 549.765,117.612 550.988,118.496 552.212,119.392 553.435,120.3 554.658,121.219 555.881,122.151 557.104,123.094 558.328,124.049 559.551,125.016 560.774,125.995 561.997,126.986 563.22,127.988 564.444,129.002 565.667,130.028 566.89,131.066 568.113,132.115 569.336,133.176 570.56,134.249 571.783,135.333 573.006,136.429 574.229,137.536 575.452,138.655 576.676,139.786 577.899,140.928 579.122,142.081 580.345,143.246 581.568,144.423 582.792,145.61 584.015,146.81 585.238,148.02 586.461,149.242 587.684,150.476 588.908,151.72 590.131,152.976 591.354,154.243 592.577,155.522 593.8,156.811 595.023,158.112 596.247,159.424 597.47,160.747 598.693,162.081 599.916,163.426 601.139,164.783 602.363,166.15 603.586,167.528 604.809,168.918 606.032,170.318 607.255,171.729 608.479,173.151 609.702,174.584 610.925,176.028 612.148,177.482 613.371,178.947 614.595,180.423 615.818,181.91 617.041,183.408 618.264,184.916 619.487,186.434 620.711,187.964 621.934,189.504 623.157,191.054 624.38,192.615 625.603,194.187 626.827,195.768 628.05,197.361 629.273,198.963 630.496,200.576 631.719,202.2 632.943,203.833 634.166,205.477 635.389,207.131 636.612,208.796 637.835,210.47 639.059,212.155 640.282,213.849 641.505,215.554 642.728,217.269 643.951,218.994 645.175,220.729 646.398,222.473 647.621,224.228 648.844,225.992 650.067,227.766 651.29,229.55 652.514,231.344 653.737,233.148 654.96,234.961 656.183,236.784 657.406,238.616 658.63,240.458 659.853,242.31 661.076,244.171 662.299,246.041 663.522,247.921 664.746,249.811 665.969,251.71 667.192,253.618 668.415,255.535 669.638,257.461 670.862,259.397 672.085,261.342 673.308,263.296 674.531,265.26 675.754,267.232 676.978,269.213 678.201,271.203 679.424,273.202 680.647,275.211 681.87,277.227 683.094,279.253 684.317,281.288 685.54,283.331 686.763,285.383 687.986,287.444 689.21,289.513 690.433,291.591 691.656,293.677 692.879,295.772 694.102,297.876 695.326,299.987 696.549,302.108 697.772,304.236 698.995,306.373 700.218,308.518 701.442,310.671 702.665,312.833 703.888,315.002 705.111,317.18 706.334,319.366 707.557,321.559 708.781,323.761 710.004,325.971 711.227,328.188 712.45,330.413 713.673,332.647 714.897,334.887 716.12,337.136 717.343,339.392 718.566,341.656 719.789,343.927 721.013,346.206 722.236,348.493 723.459,350.786 724.682,353.088 725.905,355.396 727.129,357.712 728.352,360.035 729.575,362.365 730.798,364.703 732.021,367.048 733.245,369.399 734.468,371.758 735.691,374.124 736.914,376.496 738.137,378.876 739.361,381.262 740.584,383.656 741.807,386.056 743.03,388.462 744.253,390.876 745.477,393.296 746.7,395.722 747.923,398.155 749.146,400.595 750.369,403.041 751.593,405.493 752.816,407.952 754.039,410.417 755.262,412.888 756.485,415.365 757.709,417.849 758.932,420.338 760.155,422.834 761.378,425.336 762.601,427.843 763.825,430.357 765.048,432.876 766.271,435.401 767.494,437.932 768.717,440.469 769.94,443.011 771.164,445.559 772.387,448.113 773.61,450.672 774.833,453.236 776.056,455.806 777.28,458.381 778.503,460.962 779.726,463.548 780.949,466.139 782.172,468.735 783.396,471.336 784.619,473.943 785.842,476.554 787.065,479.171 788.288,481.792 789.512,484.418 790.735,487.049 791.958,489.685 793.181,492.325 794.404,494.97 795.628,497.62 796.851,500.274 798.074,502.933 799.297,505.597 800.52,508.264 801.744,510.936 802.967,513.613 804.19,516.293 805.413,518.978 806.636,521.667 807.86,524.36 809.083,527.057 810.306,529.758 811.529,532.464 812.752,535.173 813.976,537.885 815.199,540.602 816.422,543.322 817.645,546.046 818.868,548.774 820.092,551.505 821.315,554.24 822.538,556.979 823.761,559.72 824.984,562.466 826.207,565.214 827.431,567.966 828.654,570.721 829.877,573.479 831.1,576.24 832.323,579.004 833.547,581.772 834.77,584.542 835.993,587.315 837.216,590.091 838.439,592.87 839.663,595.652 840.886,598.436 842.109,601.223 843.332,604.012 844.555,606.804 845.779,609.599 847.002,612.396 848.225,615.195 849.448,617.997 850.671,620.801 851.895,623.607 853.118,626.416 854.341,629.226 855.564,632.039 856.787,634.853 858.011,637.67 859.234,640.488 860.457,643.308 861.68,646.13 862.903,648.954 864.127,651.78 865.35,654.607 866.573,657.436 867.796,660.266 869.019,663.098 870.243,665.931 871.466,668.765 872.689,671.601 873.912,674.438 875.135,677.277 876.359,680.116 877.582,682.957 878.805,685.799 880.028,688.641 881.251,691.485 882.475,694.329 883.698,697.175 884.921,700.021 886.144,702.868 887.367,705.715 888.59,708.563 889.814,711.412 891.037,714.261 892.26,717.111 893.483,719.961 894.706,722.812 895.93,725.663 897.153,728.514 898.376,731.365 899.599,734.217 900.822,737.068 902.046,739.92 903.269,742.771 904.492,745.623 905.715,748.474 906.938,751.326 908.162,754.177 909.385,757.027 910.608,759.878 911.831,762.728 913.054,765.577 914.278,768.427 915.501,771.275 916.724,774.123 917.947,776.971 919.17,779.817 920.394,782.663 921.617,785.508 922.84,788.353 924.063,791.196 925.286,794.039 926.51,796.88 927.733,799.72 928.956,802.56 930.179,805.398 931.402,808.235 932.626,811.07 933.849,813.904 935.072,816.737 936.295,819.569 937.518,822.399 938.742,825.227 939.965,828.054 941.188,830.88 942.411,833.703 943.634,836.525 944.857,839.345 946.081,842.163 947.304,844.98 948.527,847.794 949.75,850.607 950.973,853.417 952.197,856.225 953.42,859.011 954.643,861.754 955.866,864.456 957.089,867.116 958.313,869.736 959.536,872.316 960.759,874.857 961.982,877.359 963.205,879.823 964.429,882.249 965.652,884.639 966.875,886.992 968.098,889.31 969.321,891.592 970.545,893.84 971.768,896.053 972.991,898.233 974.214,900.38 975.437,902.494 976.661,904.576 977.884,906.627 979.107,908.646 980.33,910.635 981.553,912.593 982.777,914.522 984,916.422 985.223,918.293 986.446,920.135 987.669,921.95 988.893,923.737 990.116,925.497 991.339,927.231 992.562,928.938 993.785,930.619 995.009,932.275 996.232,933.906 997.455,935.512 998.678,937.094 999.901,938.652 1001.12,940.187 1002.35,941.698 1003.57,943.186 1004.79,944.652 1006.02,946.096 1007.24,947.518 1008.46,948.919 1009.69,950.298 1010.91,951.657 1012.13,952.995 1013.36,954.313 1014.58,955.611 1015.8,956.889 1017.03,958.148 1018.25,959.388 1019.47,960.61 1020.7,961.813 1021.92,962.998 1023.14,964.165 1024.37,965.314 1025.59,966.446 1026.81,967.561 1028.03,968.66 1029.26,969.741 1030.48,970.807 1031.7,971.856 1032.93,972.89 1034.15,973.908 1035.37,974.911 1036.6,975.898 1037.82,976.871 1039.04,977.83 1040.27,978.773 1041.49,979.703 1042.71,980.619 1043.94,981.52 1045.16,982.409 1046.38,983.284 1047.61,984.145 1048.83,984.994 1050.05,985.83 1051.28,986.654 1052.5,987.465 1053.72,988.264 1054.95,989.051 1056.17,989.826 1057.39,990.59 1058.61,991.342 1059.84,992.083 1061.06,992.812 1062.28,993.531 1063.51,994.239 1064.73,994.936 1065.95,995.623 1067.18,996.3 1068.4,996.966 1069.62,997.623 1070.85,998.269 1072.07,998.906 1073.29,999.533 1074.52,1000.15 1075.74,1000.76 1076.96,1001.36 1078.19,1001.95 1079.41,1002.53 1080.63,1003.1 1081.86,1003.67 1083.08,1004.22 1084.3,1004.77 1085.53,1005.31 1086.75,1005.84 1087.97,1006.37 1089.19,1006.88 1090.42,1007.39 1091.64,1007.89 1092.86,1008.38 1094.09,1008.87 1095.31,1009.35 1096.53,1009.82 1097.76,1010.28 1098.98,1010.74 1100.2,1011.19 1101.43,1011.63 1102.65,1012.07 1103.87,1012.5 1105.1,1012.92 1106.32,1013.34 1107.54,1013.75 1108.77,1014.15 1109.99,1014.55 1111.21,1014.95 1112.44,1015.33 1113.66,1015.71 1114.88,1016.09 1116.1,1016.46 1117.33,1016.82 1118.55,1017.18 1119.77,1017.54 1121,1017.88 1122.22,1018.23 1123.44,1018.56 1124.67,1018.9 1125.89,1019.22 1127.11,1019.55 1128.34,1019.86 1129.56,1020.18 1130.78,1020.49 1132.01,1020.79 1133.23,1021.09 1134.45,1021.38 1135.68,1021.67 1136.9,1021.96 1138.12,1022.24 1139.35,1022.52 1140.57,1022.79 1141.79,1023.06 1143.02,1023.33 1144.24,1023.59 1145.46,1023.84 1146.68,1024.1 1147.91,1024.35 1149.13,1024.59 1150.35,1024.83 1151.58,1025.07 1152.8,1025.31 1154.02,1025.54 1155.25,1025.77 1156.47,1025.99 1157.69,1026.21 1158.92,1026.43 1160.14,1026.64 1161.36,1026.85 1162.59,1027.06 1163.81,1027.27 1165.03,1027.47 1166.26,1027.67 1167.48,1027.86 1168.7,1028.05 1169.93,1028.24 1171.15,1028.43 1172.37,1028.61 1173.6,1028.8 1174.82,1028.97 1176.04,1029.15 1177.26,1029.32 1178.49,1029.49 1179.71,1029.66 1180.93,1029.82 1182.16,1029.99 1183.38,1030.15 1184.6,1030.3 1185.83,1030.46 1187.05,1030.61 1188.27,1030.76 1189.5,1030.91 1190.72,1031.06 1191.94,1031.2 1193.17,1031.34 1194.39,1031.48 1195.61,1031.62 1196.84,1031.75 1198.06,1031.88 1199.28,1032.01 1200.51,1032.14 1201.73,1032.27 1202.95,1032.39 1204.18,1032.52 1205.4,1032.64 1206.62,1032.76 1207.84,1032.87 1209.07,1032.99 1210.29,1033.1 1211.51,1033.21 1212.74,1033.32 1213.96,1033.43 1215.18,1033.54 1216.41,1033.64 1217.63,1033.74 1218.85,1033.85 1220.08,1033.94 1221.3,1034.04 1222.52,1034.14 1223.75,1034.23 1224.97,1034.33 1226.19,1034.42 1227.42,1034.51 1228.64,1034.6 1229.86,1034.68 1231.09,1034.77 1232.31,1034.85 1233.53,1034.94 1234.75,1035.02 1235.98,1035.1 1237.2,1035.18 1238.42,1035.26 1239.65,1035.33 1240.87,1035.41 1242.09,1035.48 1243.32,1035.55 1244.54,1035.62 1245.76,1035.69 1246.99,1035.76 1248.21,1035.83 1249.43,1035.9 1250.66,1035.96 1251.88,1036.03 1253.1,1036.09 1254.33,1036.15 1255.55,1036.21 1256.77,1036.27 1258,1036.33 1259.22,1036.39 1260.44,1036.44 1261.67,1036.5 1262.89,1036.55 1264.11,1036.61 1265.33,1036.66 1266.56,1036.71 1267.78,1036.76 1269,1036.81 1270.23,1036.86 1271.45,1036.9 1272.67,1036.95 1273.9,1036.99 1275.12,1037.04 1276.34,1037.08 1277.57,1037.13 1278.79,1037.17 1280.01,1037.21 1281.24,1037.25 1282.46,1037.29 1283.68,1037.33 1284.91,1037.36 1286.13,1037.4 1287.35,1037.44 1288.58,1037.47 1289.8,1037.5 1291.02,1037.54 1292.25,1037.57 1293.47,1037.6 1294.69,1037.63 1295.91,1037.66 1297.14,1037.69 1298.36,1037.72 1299.58,1037.75 1300.81,1037.78 1302.03,1037.8 1303.25,1037.83 1304.48,1037.85 1305.7,1037.88 1306.92,1037.9 1308.15,1037.92 1309.37,1037.95 1310.59,1037.97 1311.82,1037.99 1313.04,1038.01 1314.26,1038.03 1315.49,1038.05 1316.71,1038.06 1317.93,1038.08 1319.16,1038.1 1320.38,1038.11 1321.6,1038.13 1322.83,1038.15 1324.05,1038.16 1325.27,1038.18 1326.49,1038.19 1327.72,1038.21 1328.94,1038.23 1330.16,1038.24 1331.39,1038.26 1332.61,1038.27 1333.83,1038.29 1335.06,1038.3 1336.28,1038.32 1337.5,1038.33 1338.73,1038.35 1339.95,1038.36 1341.17,1038.38 1342.4,1038.39 1343.62,1038.41 1344.84,1038.42 1346.07,1038.44 1347.29,1038.45 1348.51,1038.47 1349.74,1038.48 1350.96,1038.5 1352.18,1038.51 1353.4,1038.52 1354.63,1038.54 1355.85,1038.55 1357.07,1038.57 1358.3,1038.58 1359.52,1038.59 1360.74,1038.61 1361.97,1038.62 1363.19,1038.63 1364.41,1038.65 1365.64,1038.66 1366.86,1038.67 1368.08,1038.69 1369.31,1038.7 1370.53,1038.71 1371.75,1038.73 1372.98,1038.74 1374.2,1038.75 1375.42,1038.77 1376.65,1038.78 1377.87,1038.79 1379.09,1038.8 1380.32,1038.82 1381.54,1038.83 1382.76,1038.84 1383.98,1038.85 1385.21,1038.87 1386.43,1038.88 1387.65,1038.89 1388.88,1038.9 1390.1,1038.92 1391.32,1038.93 1392.55,1038.94 1393.77,1038.95 1394.99,1038.96 1396.22,1038.98 1397.44,1038.99 1398.66,1039 1399.89,1039.01 1401.11,1039.02 1402.33,1039.03 1403.56,1039.05 1404.78,1039.06 1406,1039.07 1407.23,1039.08 1408.45,1039.09 1409.67,1039.1 1410.9,1039.11 1412.12,1039.12 1413.34,1039.14 1414.56,1039.15 1415.79,1039.16 1417.01,1039.17 1418.23,1039.18 1419.46,1039.19 1420.68,1039.2 1421.9,1039.21 1423.13,1039.22 1424.35,1039.23 1425.57,1039.24 1426.8,1039.25 1428.02,1039.26 1429.24,1039.27 1430.47,1039.28 1431.69,1039.29 1432.91,1039.3 1434.14,1039.31 1435.36,1039.32 1436.58,1039.33 1437.81,1039.34 1439.03,1039.35 1440.25,1039.36 1441.48,1039.37 1442.7,1039.38 1443.92,1039.39 1445.14,1039.4 1446.37,1039.41 1447.59,1039.42 1448.81,1039.43 1450.04,1039.44 1451.26,1039.45 1452.48,1039.46 1453.71,1039.47 1454.93,1039.48 1456.15,1039.49 1457.38,1039.5 1458.6,1039.51 1459.82,1039.52 1461.05,1039.52 1462.27,1039.53 1463.49,1039.54 1464.72,1039.55 1465.94,1039.56 1467.16,1039.57 1468.39,1039.58 1469.61,1039.59 1470.83,1039.6 1472.05,1039.6 1473.28,1039.61 1474.5,1039.62 1475.72,1039.63 1476.95,1039.64 1478.17,1039.65 1479.39,1039.66 1480.62,1039.66 1481.84,1039.67 1483.06,1039.68 1484.29,1039.69 1485.51,1039.7 1486.73,1039.7 1487.96,1039.71 1489.18,1039.72 1490.4,1039.73 1491.63,1039.74 1492.85,1039.75 1494.07,1039.75 1495.3,1039.76 1496.52,1039.77 1497.74,1039.78 1498.97,1039.78 1500.19,1039.79 1501.41,1039.8 1502.63,1039.81 1503.86,1039.81 1505.08,1039.82 1506.3,1039.83 1507.53,1039.84 1508.75,1039.84 1509.97,1039.85 1511.2,1039.86 1512.42,1039.87 1513.64,1039.87 1514.87,1039.88 1516.09,1039.89 1517.31,1039.9 1518.54,1039.9 1519.76,1039.91 1520.98,1039.92 1522.21,1039.92 1523.43,1039.93 1524.65,1039.94 1525.88,1039.95 1527.1,1039.95 1528.32,1039.96 1529.55,1039.97 1530.77,1039.97 1531.99,1039.98 1533.21,1039.99 1534.44,1039.99 1535.66,1040 1536.88,1040.01 1538.11,1040.01 1539.33,1040.02 1540.55,1040.03 1541.78,1040.03 1543,1040.04 1544.22,1040.05 1545.45,1040.05 1546.67,1040.06 1547.89,1040.06 1549.12,1040.07 1550.34,1040.08 1551.56,1040.08 1552.79,1040.09 1554.01,1040.1 1555.23,1040.1 1556.46,1040.11 1557.68,1040.11 1558.9,1040.12 1560.13,1040.13 1561.35,1040.13 1562.57,1040.14 1563.79,1040.14 1565.02,1040.15 1566.24,1040.16 1567.46,1040.16 1568.69,1040.17 1569.91,1040.17 1571.13,1040.18 1572.36,1040.19 1573.58,1040.19 1574.8,1040.2 1576.03,1040.2 1577.25,1040.21 1578.47,1040.21 1579.7,1040.22 1580.92,1040.22 1582.14,1040.23 1583.37,1040.24 1584.59,1040.24 1585.81,1040.25 1587.04,1040.25 1588.26,1040.26 1589.48,1040.26 1590.7,1040.27 1591.93,1040.27 1593.15,1040.28 1594.37,1040.28 1595.6,1040.29 1596.82,1040.29 1598.04,1040.3 1599.27,1040.3 1600.49,1040.31 1601.71,1040.31 1602.94,1040.32 1604.16,1040.33 1605.38,1040.33 1606.61,1040.34 1607.83,1040.34 1609.05,1040.35 1610.28,1040.35 1611.5,1040.35 1612.72,1040.36 1613.95,1040.36 1615.17,1040.37 1616.39,1040.37 1617.62,1040.38 1618.84,1040.38 1620.06,1040.39 1621.28,1040.39 1622.51,1040.4 1623.73,1040.4 1624.95,1040.41 1626.18,1040.41 1627.4,1040.42 1628.62,1040.42 1629.85,1040.43 1631.07,1040.43 1632.29,1040.43 1633.52,1040.44 1634.74,1040.44 1635.96,1040.45 1637.19,1040.45 1638.41,1040.46 1639.63,1040.46 1640.86,1040.47 1642.08,1040.47 1643.3,1040.47 1644.53,1040.48 1645.75,1040.48 1646.97,1040.49 1648.2,1040.49 1649.42,1040.5 1650.64,1040.5 1651.86,1040.5 1653.09,1040.51 1654.31,1040.51 1655.53,1040.52 1656.76,1040.52 1657.98,1040.52 1659.2,1040.53 1660.43,1040.53 1661.65,1040.54 1662.87,1040.54 1664.1,1040.54 1665.32,1040.55 1666.54,1040.55 1667.77,1040.56 1668.99,1040.56 1670.21,1040.56 1671.44,1040.57 1672.66,1040.57 1673.88,1040.58 1675.11,1040.58 1676.33,1040.58 1677.55,1040.59 1678.77,1040.59 1680,1040.59 1681.22,1040.6 1682.44,1040.6 1683.67,1040.61 1684.89,1040.61 1686.11,1040.61 1687.34,1040.62 1688.56,1040.62 1689.78,1040.62 1691.01,1040.63 1692.23,1040.63 1693.45,1040.63 1694.68,1040.64 1695.9,1040.64 1697.12,1040.64 1698.35,1040.65 1699.57,1040.65 1700.79,1040.65 1702.02,1040.66 1703.24,1040.66 1704.46,1040.67 1705.69,1040.67 1706.91,1040.67 1708.13,1040.68 1709.35,1040.68 1710.58,1040.68 1711.8,1040.69 1713.02,1040.69 1714.25,1040.69 1715.47,1040.69 1716.69,1040.7 1717.92,1040.7 1719.14,1040.7 1720.36,1040.71 1721.59,1040.71 1722.81,1040.71 1724.03,1040.72 1725.26,1040.72 1726.48,1040.72 1727.7,1040.73 1728.93,1040.73 1730.15,1040.73 1731.37,1040.74 1732.6,1040.74 1733.82,1040.74 1735.04,1040.74 1736.27,1040.75 1737.49,1040.75 1738.71,1040.75 1739.93,1040.76 1741.16,1040.76 1742.38,1040.76 1743.6,1040.76 1744.83,1040.77 1746.05,1040.77 1747.27,1040.77 1748.5,1040.78 1749.72,1040.78 1750.94,1040.78 1752.17,1040.78 1753.39,1040.79 1754.61,1040.79 1755.84,1040.79 1757.06,1040.8 1758.28,1040.8 1759.51,1040.8 1760.73,1040.8 1761.95,1040.81 1763.18,1040.81 1764.4,1040.81 1765.62,1040.81 1766.85,1040.82 1768.07,1040.82 1769.29,1040.82 1770.51,1040.82 1771.74,1040.83 1772.96,1040.83 1774.18,1040.83 1775.41,1040.84 1776.63,1040.84 1777.85,1040.84 1779.08,1040.84 1780.3,1040.85 1781.52,1040.85 1782.75,1040.85 1783.97,1040.85 1785.19,1040.86 1786.42,1040.86 1787.64,1040.86 1788.86,1040.86 1790.09,1040.86 1791.31,1040.87 1792.53,1040.87 1793.76,1040.87 1794.98,1040.87 1796.2,1040.88 1797.42,1040.88 1798.65,1040.88 1799.87,1040.88 1801.09,1040.89 1802.32,1040.89 1803.54,1040.89 1804.76,1040.89 1805.99,1040.89 1807.21,1040.9 1808.43,1040.9 1809.66,1040.9 1810.88,1040.9 1812.1,1040.91 1813.33,1040.91 1814.55,1040.91 1815.77,1040.91 1817,1040.91 1818.22,1040.92 1819.44,1040.92 1820.67,1040.92 1821.89,1040.92 1823.11,1040.93 1824.34,1040.93 1825.56,1040.93 1826.78,1040.93 1828,1040.93 1829.23,1040.94 1830.45,1040.94 1831.67,1040.94 1832.9,1040.94 1834.12,1040.94 1835.34,1040.95 1836.57,1040.95 1837.79,1040.95 1839.01,1040.95 1840.24,1040.95 1841.46,1040.96 1842.68,1040.96 1843.91,1040.96 1845.13,1040.96 1846.35,1040.96 1847.58,1040.96 1848.8,1040.97 1850.02,1040.97 1851.25,1040.97 1852.47,1040.97 1853.69,1040.97 1854.92,1040.98 1856.14,1040.98 1857.36,1040.98 1858.58,1040.98 1859.81,1040.98 1861.03,1040.99 1862.25,1040.99 1863.48,1040.99 1864.7,1040.99 1865.92,1040.99 1867.15,1040.99 1868.37,1041 1869.59,1041 1870.82,1041 1872.04,1041 1873.26,1041 1874.49,1041 1875.71,1041.01 1876.93,1041.01 1878.16,1041.01 1879.38,1041.01 1880.6,1041.01 1881.83,1041.01 1883.05,1041.02 1884.27,1041.02 1885.5,1041.02 1886.72,1041.02 1887.94,1041.02 1889.16,1041.02 1890.39,1041.03 1891.61,1041.03 1892.83,1041.03 1894.06,1041.03 1895.28,1041.03 1896.5,1041.03 1897.73,1041.04 1898.95,1041.04 1900.17,1041.04 1901.4,1041.04 1902.62,1041.04 1903.84,1041.04 1905.07,1041.04 1906.29,1041.05 1907.51,1041.05 1908.74,1041.05 1909.96,1041.05 1911.18,1041.05 1912.41,1041.05 1913.63,1041.05 1914.85,1041.06 1916.07,1041.06 1917.3,1041.06 1918.52,1041.06 1919.74,1041.06 1920.97,1041.06 1922.19,1041.06 1923.41,1041.07 1924.64,1041.07 1925.86,1041.07 1927.08,1041.07 1928.31,1041.07 1929.53,1041.07 1930.75,1041.07 1931.98,1041.08 1933.2,1041.08 1934.42,1041.08 1935.65,1041.08 1936.87,1041.08 1938.09,1041.08 1939.32,1041.08 1940.54,1041.09 1941.76,1041.09 1942.99,1041.09 1944.21,1041.09 1945.43,1041.09 1946.65,1041.09 1947.88,1041.09 1949.1,1041.09 1950.32,1041.1 1951.55,1041.1 1952.77,1041.1 1953.99,1041.1 1955.22,1041.1 1956.44,1041.1 1957.66,1041.1 1958.89,1041.1 1960.11,1041.1 1961.33,1041.11 1962.56,1041.11 1963.78,1041.11 1965,1041.11 1966.23,1041.11 1967.45,1041.11 1968.67,1041.11 1969.9,1041.11 1971.12,1041.11 1972.34,1041.12 1973.57,1041.12 1974.79,1041.12 1976.01,1041.12 1977.23,1041.12 1978.46,1041.12 1979.68,1041.12 1980.9,1041.12 1982.13,1041.12 1983.35,1041.13 1984.57,1041.13 1985.8,1041.13 1987.02,1041.13 1988.24,1041.13 1989.47,1041.13 1990.69,1041.13 1991.91,1041.13 1993.14,1041.13 1994.36,1041.13 1995.58,1041.13 1996.81,1041.14 1998.03,1041.14 1999.25,1041.14 2000.48,1041.14 2001.7,1041.14 2002.92,1041.14 2004.15,1041.14 2005.37,1041.14 2006.59,1041.14 2007.81,1041.14 2009.04,1041.14 2010.26,1041.14 2011.48,1041.14 2012.71,1041.15 2013.93,1041.15 2015.15,1041.15 2016.38,1041.15 2017.6,1041.15 2018.82,1041.15 2020.05,1041.15 2021.27,1041.15 2022.49,1041.15 2023.72,1041.15 2024.94,1041.15 2026.16,1041.15 2027.39,1041.15 2028.61,1041.15 2029.83,1041.16 2031.06,1041.16 2032.28,1041.16 2033.5,1041.16 2034.72,1041.16 2035.95,1041.16 2037.17,1041.16 2038.39,1041.16 2039.62,1041.16 2040.84,1041.16 2042.06,1041.16 2043.29,1041.16 2044.51,1041.16 2045.73,1041.16 2046.96,1041.16 2048.18,1041.17 2049.4,1041.17 2050.63,1041.17 2051.85,1041.17 2053.07,1041.17 2054.3,1041.17 2055.52,1041.17 2056.74,1041.17 2057.97,1041.17 2059.19,1041.17 2060.41,1041.17 2061.64,1041.17 2062.86,1041.17 2064.08,1041.17 2065.3,1041.17 2066.53,1041.17 2067.75,1041.18 2068.97,1041.18 2070.2,1041.18 2071.42,1041.18 2072.64,1041.18 2073.87,1041.18 2075.09,1041.18 2076.31,1041.18 2077.54,1041.18 2078.76,1041.18 2079.98,1041.18 2081.21,1041.18 2082.43,1041.18 2083.65,1041.18 2084.88,1041.18 2086.1,1041.19 2087.32,1041.19 2088.55,1041.19 2089.77,1041.19 2090.99,1041.19 2092.22,1041.19 2093.44,1041.19 2094.66,1041.19 2095.88,1041.19 2097.11,1041.19 2098.33,1041.19 2099.55,1041.19 2100.78,1041.2 2102,1041.2 2103.22,1041.2 2104.45,1041.2 2105.67,1041.2 2106.89,1041.2 2108.12,1041.2 2109.34,1041.2 2110.56,1041.2 2111.79,1041.2 2113.01,1041.21 2114.23,1041.21 2115.46,1041.21 2116.68,1041.21 2117.9,1041.21 2119.13,1041.21 2120.35,1041.21 2121.57,1041.21 2122.8,1041.22 2124.02,1041.22 2125.24,1041.22 2126.46,1041.22 2127.69,1041.22 2128.91,1041.22 2130.13,1041.22 2131.36,1041.23 2132.58,1041.23 2133.8,1041.23 2135.03,1041.23 2136.25,1041.23 2137.47,1041.23 2138.7,1041.24 2139.92,1041.24 2141.14,1041.24 2142.37,1041.24 2143.59,1041.24 2144.81,1041.24 2146.04,1041.25 2147.26,1041.25 2148.48,1041.25 2149.71,1041.25 2150.93,1041.25 2152.15,1041.26 2153.37,1041.26 2154.6,1041.26 2155.82,1041.26 2157.04,1041.26 2158.27,1041.27 2159.49,1041.27 2160.71,1041.27 2161.94,1041.27 2163.16,1041.28 2164.38,1041.28 2165.61,1041.28 2166.83,1041.28 2168.05,1041.29 2169.28,1041.29 2170.5,1041.29 2171.72,1041.29 2172.95,1041.3 2174.17,1041.3 2175.39,1041.3 2176.62,1041.3 2177.84,1041.31 2179.06,1041.31 2180.29,1041.31 2181.51,1041.31 2182.73,1041.32 2183.95,1041.32 2185.18,1041.32 2186.4,1041.33 2187.62,1041.33 2188.85,1041.33 2190.07,1041.33 2191.29,1041.34 2192.52,1041.34 2193.74,1041.34 2194.96,1041.34 2196.19,1041.35 2197.41,1041.35 2198.63,1041.35 2199.86,1041.36 2201.08,1041.36 2202.3,1041.36 2203.53,1041.36 2204.75,1041.37 2205.97,1041.37 2207.2,1041.37 2208.42,1041.37 2209.64,1041.38 2210.87,1041.38 2212.09,1041.38 2213.31,1041.39 2214.53,1041.39 2215.76,1041.39 2216.98,1041.39 2218.2,1041.39 2219.43,1041.4 2220.65,1041.4 2221.87,1041.4 2223.1,1041.4 2224.32,1041.41 2225.54,1041.41 2226.77,1041.41 2227.99,1041.41 2229.21,1041.41 2230.44,1041.42 2231.66,1041.42 2232.88,1041.42 2234.11,1041.42 2235.33,1041.42 2236.55,1041.42 2237.78,1041.42 2239,1041.43 2240.22,1041.43 2241.45,1041.43 2242.67,1041.43 2243.89,1041.43 2245.11,1041.43 2246.34,1041.43 2247.56,1041.43 2248.78,1041.43 2250.01,1041.43 2251.23,1041.43 2252.45,1041.43 2253.68,1041.43 2254.9,1041.43 2256.12,1041.43 2257.35,1041.43 2258.57,1041.43 2259.79,1041.43 2261.02,1041.43 2262.24,1041.43 2263.46,1041.43 2264.69,1041.43 2265.91,1041.43 2267.13,1041.43 2268.36,1041.42 2269.58,1041.42 2270.8,1041.42 2272.02,1041.42 2273.25,1041.42 2274.47,1041.42 2275.69,1041.42 2276.92,1041.41 2278.14,1041.41 2279.36,1041.41 2280.59,1041.41 2281.81,1041.41 2283.03,1041.4 2284.26,1041.4 2285.48,1041.4 2286.7,1041.4 2287.93,1041.39 2289.15,1041.39 2290.37,1041.39 2291.6,1041.39 2292.82,1041.39 2294.04,1041.38 2295.27,1041.38 2296.49,1041.38 2297.71,1041.38 "/>
<polyline clip-path="url(#clip991)" style="stroke:#e26f46; stroke-linecap:round; stroke-linejoin:round; stroke-width:4; stroke-opacity:1; fill:none" points="462.918,1384.24 464.142,1384.23 465.365,1384.19 466.588,1384.14 467.811,1384.06 469.034,1383.95 470.258,1383.83 471.481,1383.68 472.704,1383.51 473.927,1383.32 475.15,1383.1 476.373,1382.86 477.597,1382.6 478.82,1382.31 480.043,1382.01 481.266,1381.68 482.489,1381.33 483.713,1380.95 484.936,1380.55 486.159,1380.14 487.382,1379.69 488.605,1379.23 489.829,1378.74 491.052,1378.23 492.275,1377.7 493.498,1377.15 494.721,1376.58 495.945,1375.98 497.168,1375.36 498.391,1374.72 499.614,1374.06 500.837,1373.37 502.061,1372.66 503.284,1371.94 504.507,1371.19 505.73,1370.42 506.953,1369.62 508.177,1368.81 509.4,1367.97 510.623,1367.12 511.846,1366.24 513.069,1365.34 514.293,1364.42 515.516,1363.48 516.739,1362.52 517.962,1361.54 519.185,1360.54 520.409,1359.52 521.632,1358.47 522.855,1357.41 524.078,1356.33 525.301,1355.22 526.525,1354.1 527.748,1352.96 528.971,1351.8 530.194,1350.61 531.417,1349.41 532.64,1348.19 533.864,1346.95 535.087,1345.69 536.31,1344.41 537.533,1343.12 538.756,1341.8 539.98,1340.47 541.203,1339.11 542.426,1337.74 543.649,1336.35 544.872,1334.95 546.096,1333.52 547.319,1332.08 548.542,1330.62 549.765,1329.14 550.988,1327.64 552.212,1326.13 553.435,1324.6 554.658,1323.06 555.881,1321.49 557.104,1319.91 558.328,1318.32 559.551,1316.7 560.774,1315.08 561.997,1313.43 563.22,1311.77 564.444,1310.09 565.667,1308.4 566.89,1306.7 568.113,1304.97 569.336,1303.24 570.56,1301.49 571.783,1299.72 573.006,1297.94 574.229,1296.15 575.452,1294.34 576.676,1292.51 577.899,1290.68 579.122,1288.83 580.345,1286.96 581.568,1285.09 582.792,1283.2 584.015,1281.3 585.238,1279.38 586.461,1277.45 587.684,1275.51 588.908,1273.56 590.131,1271.6 591.354,1269.62 592.577,1267.64 593.8,1265.64 595.023,1263.63 596.247,1261.61 597.47,1259.58 598.693,1257.54 599.916,1255.48 601.139,1253.42 602.363,1251.35 603.586,1249.27 604.809,1247.18 606.032,1245.08 607.255,1242.97 608.479,1240.85 609.702,1238.72 610.925,1236.59 612.148,1234.45 613.371,1232.29 614.595,1230.13 615.818,1227.97 617.041,1225.79 618.264,1223.61 619.487,1221.42 620.711,1219.23 621.934,1217.02 623.157,1214.82 624.38,1212.6 625.603,1210.38 626.827,1208.15 628.05,1205.92 629.273,1203.68 630.496,1201.44 631.719,1199.19 632.943,1196.94 634.166,1194.68 635.389,1192.42 636.612,1190.16 637.835,1187.89 639.059,1185.62 640.282,1183.34 641.505,1181.06 642.728,1178.78 643.951,1176.5 645.175,1174.21 646.398,1171.92 647.621,1169.63 648.844,1167.33 650.067,1165.04 651.29,1162.74 652.514,1160.44 653.737,1158.15 654.96,1155.85 656.183,1153.55 657.406,1151.25 658.63,1148.94 659.853,1146.64 661.076,1144.34 662.299,1142.04 663.522,1139.75 664.746,1137.45 665.969,1135.15 667.192,1132.85 668.415,1130.56 669.638,1128.27 670.862,1125.98 672.085,1123.69 673.308,1121.4 674.531,1119.12 675.754,1116.84 676.978,1114.56 678.201,1112.29 679.424,1110.02 680.647,1107.75 681.87,1105.49 683.094,1103.23 684.317,1100.98 685.54,1098.73 686.763,1096.48 687.986,1094.24 689.21,1092.01 690.433,1089.78 691.656,1087.55 692.879,1085.34 694.102,1083.12 695.326,1080.92 696.549,1078.72 697.772,1076.52 698.995,1074.34 700.218,1072.16 701.442,1069.98 702.665,1067.82 703.888,1065.66 705.111,1063.51 706.334,1061.37 707.557,1059.23 708.781,1057.11 710.004,1054.99 711.227,1052.88 712.45,1050.78 713.673,1048.69 714.897,1046.61 716.12,1044.54 717.343,1042.47 718.566,1040.42 719.789,1038.38 721.013,1036.34 722.236,1034.32 723.459,1032.31 724.682,1030.31 725.905,1028.32 727.129,1026.34 728.352,1024.37 729.575,1022.41 730.798,1020.47 732.021,1018.53 733.245,1016.61 734.468,1014.7 735.691,1012.8 736.914,1010.91 738.137,1009.04 739.361,1007.18 740.584,1005.33 741.807,1003.49 743.03,1001.67 744.253,999.863 745.477,998.067 746.7,996.285 747.923,994.516 749.146,992.761 750.369,991.02 751.593,989.293 752.816,987.581 754.039,985.883 755.262,984.199 756.485,982.529 757.709,980.875 758.932,979.235 760.155,977.611 761.378,976.001 762.601,974.407 763.825,972.828 765.048,971.265 766.271,969.717 767.494,968.186 768.717,966.669 769.94,965.169 771.164,963.685 772.387,962.217 773.61,960.766 774.833,959.331 776.056,957.912 777.28,956.51 778.503,955.125 779.726,953.756 780.949,952.404 782.172,951.07 783.396,949.752 784.619,948.452 785.842,947.169 787.065,945.903 788.288,944.655 789.512,943.424 790.735,942.211 791.958,941.015 793.181,939.838 794.404,938.678 795.628,937.536 796.851,936.412 798.074,935.306 799.297,934.218 800.52,933.148 801.744,932.097 802.967,931.063 804.19,930.049 805.413,929.052 806.636,928.074 807.86,927.115 809.083,926.174 810.306,925.252 811.529,924.348 812.752,923.463 813.976,922.597 815.199,921.75 816.422,920.921 817.645,920.111 818.868,919.32 820.092,918.549 821.315,917.796 822.538,917.062 823.761,916.347 824.984,915.651 826.207,914.974 827.431,914.316 828.654,913.677 829.877,913.057 831.1,912.457 832.323,911.875 833.547,911.313 834.77,910.769 835.993,910.245 837.216,909.74 838.439,909.254 839.663,908.787 840.886,908.34 842.109,907.911 843.332,907.502 844.555,907.111 845.779,906.74 847.002,906.388 848.225,906.055 849.448,905.74 850.671,905.445 851.895,905.169 853.118,904.912 854.341,904.673 855.564,904.454 856.787,904.253 858.011,904.072 859.234,903.909 860.457,903.765 861.68,903.639 862.903,903.532 864.127,903.444 865.35,903.375 866.573,903.324 867.796,903.291 869.019,903.277 870.243,903.281 871.466,903.304 872.689,903.345 873.912,903.404 875.135,903.481 876.359,903.576 877.582,903.689 878.805,903.821 880.028,903.97 881.251,904.137 882.475,904.321 883.698,904.524 884.921,904.744 886.144,904.981 887.367,905.236 888.59,905.508 889.814,905.797 891.037,906.104 892.26,906.428 893.483,906.769 894.706,907.126 895.93,907.501 897.153,907.892 898.376,908.3 899.599,908.724 900.822,909.165 902.046,909.622 903.269,910.095 904.492,910.585 905.715,911.09 906.938,911.611 908.162,912.149 909.385,912.701 910.608,913.27 911.831,913.854 913.054,914.453 914.278,915.067 915.501,915.697 916.724,916.342 917.947,917.001 919.17,917.675 920.394,918.364 921.617,919.067 922.84,919.785 924.063,920.517 925.286,921.263 926.51,922.023 927.733,922.797 928.956,923.585 930.179,924.386 931.402,925.2 932.626,926.028 933.849,926.869 935.072,927.723 936.295,928.59 937.518,929.47 938.742,930.363 939.965,931.267 941.188,932.184 942.411,933.114 943.634,934.055 944.857,935.008 946.081,935.973 947.304,936.949 948.527,937.937 949.75,938.936 950.973,939.946 952.197,940.968 953.42,941.988 954.643,942.998 955.866,943.996 957.089,944.984 958.313,945.96 959.536,946.926 960.759,947.88 961.982,948.825 963.205,949.758 964.429,950.682 965.652,951.595 966.875,952.498 968.098,953.391 969.321,954.274 970.545,955.147 971.768,956.011 972.991,956.865 974.214,957.709 975.437,958.544 976.661,959.37 977.884,960.187 979.107,960.994 980.33,961.793 981.553,962.582 982.777,963.363 984,964.135 985.223,964.898 986.446,965.653 987.669,966.4 988.893,967.138 990.116,967.868 991.339,968.589 992.562,969.303 993.785,970.008 995.009,970.706 996.232,971.396 997.455,972.078 998.678,972.752 999.901,973.419 1001.12,974.079 1002.35,974.73 1003.57,975.375 1004.79,976.012 1006.02,976.642 1007.24,977.265 1008.46,977.881 1009.69,978.49 1010.91,979.092 1012.13,979.687 1013.36,980.275 1014.58,980.857 1015.8,981.432 1017.03,982.001 1018.25,982.563 1019.47,983.118 1020.7,983.668 1021.92,984.211 1023.14,984.747 1024.37,985.278 1025.59,985.802 1026.81,986.321 1028.03,986.833 1029.26,987.34 1030.48,987.84 1031.7,988.335 1032.93,988.824 1034.15,989.308 1035.37,989.786 1036.6,990.258 1037.82,990.725 1039.04,991.186 1040.27,991.642 1041.49,992.092 1042.71,992.538 1043.94,992.978 1045.16,993.412 1046.38,993.842 1047.61,994.267 1048.83,994.686 1050.05,995.101 1051.28,995.51 1052.5,995.915 1053.72,996.315 1054.95,996.71 1056.17,997.1 1057.39,997.486 1058.61,997.867 1059.84,998.243 1061.06,998.615 1062.28,998.982 1063.51,999.345 1064.73,999.703 1065.95,1000.06 1067.18,1000.41 1068.4,1000.75 1069.62,1001.09 1070.85,1001.43 1072.07,1001.76 1073.29,1002.09 1074.52,1002.41 1075.74,1002.73 1076.96,1003.05 1078.19,1003.36 1079.41,1003.67 1080.63,1003.97 1081.86,1004.28 1083.08,1004.57 1084.3,1004.86 1085.53,1005.15 1086.75,1005.44 1087.97,1005.72 1089.19,1006 1090.42,1006.27 1091.64,1006.54 1092.86,1006.81 1094.09,1007.07 1095.31,1007.33 1096.53,1007.59 1097.76,1007.84 1098.98,1008.09 1100.2,1008.33 1101.43,1008.58 1102.65,1008.82 1103.87,1009.05 1105.1,1009.28 1106.32,1009.51 1107.54,1009.74 1108.77,1009.96 1109.99,1010.18 1111.21,1010.4 1112.44,1010.61 1113.66,1010.82 1114.88,1011.03 1116.1,1011.23 1117.33,1011.43 1118.55,1011.63 1119.77,1011.83 1121,1012.02 1122.22,1012.21 1123.44,1012.39 1124.67,1012.58 1125.89,1012.76 1127.11,1012.93 1128.34,1013.11 1129.56,1013.28 1130.78,1013.45 1132.01,1013.62 1133.23,1013.78 1134.45,1013.94 1135.68,1014.1 1136.9,1014.25 1138.12,1014.41 1139.35,1014.56 1140.57,1014.7 1141.79,1014.85 1143.02,1014.99 1144.24,1015.13 1145.46,1015.27 1146.68,1015.4 1147.91,1015.54 1149.13,1015.67 1150.35,1015.79 1151.58,1015.92 1152.8,1016.04 1154.02,1016.16 1155.25,1016.28 1156.47,1016.39 1157.69,1016.5 1158.92,1016.61 1160.14,1016.72 1161.36,1016.83 1162.59,1016.93 1163.81,1017.03 1165.03,1017.13 1166.26,1017.22 1167.48,1017.32 1168.7,1017.41 1169.93,1017.5 1171.15,1017.59 1172.37,1017.67 1173.6,1017.75 1174.82,1017.83 1176.04,1017.91 1177.26,1017.99 1178.49,1018.06 1179.71,1018.13 1180.93,1018.2 1182.16,1018.27 1183.38,1018.33 1184.6,1018.4 1185.83,1018.46 1187.05,1018.52 1188.27,1018.57 1189.5,1018.63 1190.72,1018.68 1191.94,1018.73 1193.17,1018.78 1194.39,1018.82 1195.61,1018.87 1196.84,1018.91 1198.06,1018.95 1199.28,1018.99 1200.51,1019.02 1201.73,1019.06 1202.95,1019.09 1204.18,1019.12 1205.4,1019.15 1206.62,1019.17 1207.84,1019.2 1209.07,1019.22 1210.29,1019.24 1211.51,1019.26 1212.74,1019.27 1213.96,1019.29 1215.18,1019.3 1216.41,1019.31 1217.63,1019.32 1218.85,1019.32 1220.08,1019.33 1221.3,1019.33 1222.52,1019.33 1223.75,1019.33 1224.97,1019.32 1226.19,1019.32 1227.42,1019.31 1228.64,1019.3 1229.86,1019.29 1231.09,1019.28 1232.31,1019.26 1233.53,1019.24 1234.75,1019.23 1235.98,1019.21 1237.2,1019.18 1238.42,1019.16 1239.65,1019.13 1240.87,1019.1 1242.09,1019.07 1243.32,1019.04 1244.54,1019.01 1245.76,1018.97 1246.99,1018.93 1248.21,1018.89 1249.43,1018.85 1250.66,1018.81 1251.88,1018.76 1253.1,1018.71 1254.33,1018.66 1255.55,1018.61 1256.77,1018.56 1258,1018.5 1259.22,1018.45 1260.44,1018.39 1261.67,1018.33 1262.89,1018.26 1264.11,1018.2 1265.33,1018.13 1266.56,1018.06 1267.78,1017.99 1269,1017.92 1270.23,1017.84 1271.45,1017.77 1272.67,1017.69 1273.9,1017.61 1275.12,1017.53 1276.34,1017.44 1277.57,1017.36 1278.79,1017.27 1280.01,1017.18 1281.24,1017.09 1282.46,1016.99 1283.68,1016.9 1284.91,1016.8 1286.13,1016.7 1287.35,1016.59 1288.58,1016.49 1289.8,1016.38 1291.02,1016.28 1292.25,1016.17 1293.47,1016.05 1294.69,1015.94 1295.91,1015.82 1297.14,1015.7 1298.36,1015.58 1299.58,1015.46 1300.81,1015.33 1302.03,1015.21 1303.25,1015.08 1304.48,1014.95 1305.7,1014.81 1306.92,1014.68 1308.15,1014.54 1309.37,1014.4 1310.59,1014.26 1311.82,1014.12 1313.04,1013.97 1314.26,1013.82 1315.49,1013.67 1316.71,1013.52 1317.93,1013.36 1319.16,1013.21 1320.38,1013.05 1321.6,1012.89 1322.83,1012.74 1324.05,1012.59 1325.27,1012.45 1326.49,1012.3 1327.72,1012.16 1328.94,1012.03 1330.16,1011.89 1331.39,1011.76 1332.61,1011.63 1333.83,1011.5 1335.06,1011.38 1336.28,1011.26 1337.5,1011.14 1338.73,1011.03 1339.95,1010.91 1341.17,1010.81 1342.4,1010.7 1343.62,1010.6 1344.84,1010.49 1346.07,1010.4 1347.29,1010.3 1348.51,1010.21 1349.74,1010.12 1350.96,1010.03 1352.18,1009.95 1353.4,1009.87 1354.63,1009.79 1355.85,1009.72 1357.07,1009.65 1358.3,1009.58 1359.52,1009.51 1360.74,1009.45 1361.97,1009.39 1363.19,1009.33 1364.41,1009.28 1365.64,1009.23 1366.86,1009.18 1368.08,1009.13 1369.31,1009.09 1370.53,1009.05 1371.75,1009.01 1372.98,1008.98 1374.2,1008.95 1375.42,1008.92 1376.65,1008.9 1377.87,1008.88 1379.09,1008.86 1380.32,1008.84 1381.54,1008.83 1382.76,1008.82 1383.98,1008.81 1385.21,1008.8 1386.43,1008.8 1387.65,1008.8 1388.88,1008.81 1390.1,1008.82 1391.32,1008.83 1392.55,1008.84 1393.77,1008.85 1394.99,1008.87 1396.22,1008.89 1397.44,1008.92 1398.66,1008.95 1399.89,1008.98 1401.11,1009.01 1402.33,1009.04 1403.56,1009.08 1404.78,1009.12 1406,1009.17 1407.23,1009.21 1408.45,1009.26 1409.67,1009.32 1410.9,1009.37 1412.12,1009.43 1413.34,1009.49 1414.56,1009.55 1415.79,1009.62 1417.01,1009.69 1418.23,1009.76 1419.46,1009.84 1420.68,1009.91 1421.9,1009.99 1423.13,1010.08 1424.35,1010.16 1425.57,1010.25 1426.8,1010.34 1428.02,1010.43 1429.24,1010.53 1430.47,1010.63 1431.69,1010.73 1432.91,1010.83 1434.14,1010.94 1435.36,1011.05 1436.58,1011.16 1437.81,1011.27 1439.03,1011.39 1440.25,1011.51 1441.48,1011.63 1442.7,1011.75 1443.92,1011.88 1445.14,1012.01 1446.37,1012.14 1447.59,1012.28 1448.81,1012.41 1450.04,1012.55 1451.26,1012.69 1452.48,1012.84 1453.71,1012.98 1454.93,1013.13 1456.15,1013.28 1457.38,1013.43 1458.6,1013.59 1459.82,1013.75 1461.05,1013.91 1462.27,1014.07 1463.49,1014.23 1464.72,1014.4 1465.94,1014.57 1467.16,1014.74 1468.39,1014.91 1469.61,1015.09 1470.83,1015.26 1472.05,1015.44 1473.28,1015.62 1474.5,1015.81 1475.72,1015.99 1476.95,1016.18 1478.17,1016.37 1479.39,1016.56 1480.62,1016.75 1481.84,1016.95 1483.06,1017.15 1484.29,1017.35 1485.51,1017.55 1486.73,1017.75 1487.96,1017.96 1489.18,1018.16 1490.4,1018.37 1491.63,1018.58 1492.85,1018.8 1494.07,1019.01 1495.3,1019.22 1496.52,1019.44 1497.74,1019.66 1498.97,1019.88 1500.19,1020.11 1501.41,1020.33 1502.63,1020.56 1503.86,1020.78 1505.08,1021.01 1506.3,1021.24 1507.53,1021.47 1508.75,1021.71 1509.97,1021.94 1511.2,1022.18 1512.42,1022.42 1513.64,1022.66 1514.87,1022.9 1516.09,1023.14 1517.31,1023.38 1518.54,1023.63 1519.76,1023.87 1520.98,1024.12 1522.21,1024.37 1523.43,1024.62 1524.65,1024.87 1525.88,1025.12 1527.1,1025.37 1528.32,1025.63 1529.55,1025.88 1530.77,1026.14 1531.99,1026.4 1533.21,1026.66 1534.44,1026.92 1535.66,1027.18 1536.88,1027.44 1538.11,1027.7 1539.33,1027.97 1540.55,1028.23 1541.78,1028.5 1543,1028.76 1544.22,1029.03 1545.45,1029.3 1546.67,1029.57 1547.89,1029.84 1549.12,1030.11 1550.34,1030.38 1551.56,1030.65 1552.79,1030.92 1554.01,1031.19 1555.23,1031.47 1556.46,1031.74 1557.68,1032.01 1558.9,1032.29 1560.13,1032.57 1561.35,1032.84 1562.57,1033.12 1563.79,1033.39 1565.02,1033.67 1566.24,1033.95 1567.46,1034.23 1568.69,1034.51 1569.91,1034.78 1571.13,1035.06 1572.36,1035.34 1573.58,1035.62 1574.8,1035.9 1576.03,1036.18 1577.25,1036.46 1578.47,1036.74 1579.7,1037.02 1580.92,1037.3 1582.14,1037.58 1583.37,1037.86 1584.59,1038.14 1585.81,1038.42 1587.04,1038.7 1588.26,1038.99 1589.48,1039.27 1590.7,1039.55 1591.93,1039.83 1593.15,1040.11 1594.37,1040.39 1595.6,1040.66 1596.82,1040.94 1598.04,1041.22 1599.27,1041.5 1600.49,1041.78 1601.71,1042.06 1602.94,1042.34 1604.16,1042.61 1605.38,1042.89 1606.61,1043.17 1607.83,1043.44 1609.05,1043.72 1610.28,1043.99 1611.5,1044.27 1612.72,1044.54 1613.95,1044.81 1615.17,1045.09 1616.39,1045.36 1617.62,1045.63 1618.84,1045.9 1620.06,1046.17 1621.28,1046.44 1622.51,1046.71 1623.73,1046.98 1624.95,1047.25 1626.18,1047.51 1627.4,1047.78 1628.62,1048.04 1629.85,1048.31 1631.07,1048.57 1632.29,1048.83 1633.52,1049.09 1634.74,1049.35 1635.96,1049.61 1637.19,1049.87 1638.41,1050.13 1639.63,1050.39 1640.86,1050.64 1642.08,1050.89 1643.3,1051.15 1644.53,1051.4 1645.75,1051.65 1646.97,1051.9 1648.2,1052.15 1649.42,1052.4 1650.64,1052.64 1651.86,1052.89 1653.09,1053.13 1654.31,1053.37 1655.53,1053.61 1656.76,1053.85 1657.98,1054.09 1659.2,1054.33 1660.43,1054.56 1661.65,1054.8 1662.87,1055.03 1664.1,1055.26 1665.32,1055.49 1666.54,1055.72 1667.77,1055.94 1668.99,1056.17 1670.21,1056.39 1671.44,1056.61 1672.66,1056.83 1673.88,1057.05 1675.11,1057.27 1676.33,1057.49 1677.55,1057.7 1678.77,1057.91 1680,1058.12 1681.22,1058.33 1682.44,1058.54 1683.67,1058.74 1684.89,1058.95 1686.11,1059.15 1687.34,1059.35 1688.56,1059.55 1689.78,1059.75 1691.01,1059.94 1692.23,1060.13 1693.45,1060.32 1694.68,1060.51 1695.9,1060.7 1697.12,1060.89 1698.35,1061.07 1699.57,1061.25 1700.79,1061.43 1702.02,1061.61 1703.24,1061.78 1704.46,1061.96 1705.69,1062.13 1706.91,1062.3 1708.13,1062.47 1709.35,1062.63 1710.58,1062.8 1711.8,1062.96 1713.02,1063.12 1714.25,1063.27 1715.47,1063.43 1716.69,1063.58 1717.92,1063.73 1719.14,1063.88 1720.36,1064.03 1721.59,1064.17 1722.81,1064.32 1724.03,1064.46 1725.26,1064.59 1726.48,1064.73 1727.7,1064.86 1728.93,1065 1730.15,1065.12 1731.37,1065.25 1732.6,1065.38 1733.82,1065.5 1735.04,1065.62 1736.27,1065.74 1737.49,1065.85 1738.71,1065.97 1739.93,1066.08 1741.16,1066.19 1742.38,1066.29 1743.6,1066.4 1744.83,1066.5 1746.05,1066.6 1747.27,1066.7 1748.5,1066.79 1749.72,1066.88 1750.94,1066.97 1752.17,1067.06 1753.39,1067.15 1754.61,1067.23 1755.84,1067.31 1757.06,1067.39 1758.28,1067.46 1759.51,1067.54 1760.73,1067.61 1761.95,1067.68 1763.18,1067.74 1764.4,1067.81 1765.62,1067.87 1766.85,1067.93 1768.07,1067.99 1769.29,1068.04 1770.51,1068.09 1771.74,1068.14 1772.96,1068.19 1774.18,1068.23 1775.41,1068.28 1776.63,1068.31 1777.85,1068.35 1779.08,1068.39 1780.3,1068.42 1781.52,1068.45 1782.75,1068.48 1783.97,1068.5 1785.19,1068.52 1786.42,1068.55 1787.64,1068.56 1788.86,1068.58 1790.09,1068.59 1791.31,1068.6 1792.53,1068.61 1793.76,1068.62 1794.98,1068.62 1796.2,1068.62 1797.42,1068.62 1798.65,1068.61 1799.87,1068.61 1801.09,1068.6 1802.32,1068.59 1803.54,1068.57 1804.76,1068.56 1805.99,1068.54 1807.21,1068.52 1808.43,1068.5 1809.66,1068.47 1810.88,1068.44 1812.1,1068.41 1813.33,1068.38 1814.55,1068.34 1815.77,1068.31 1817,1068.27 1818.22,1068.22 1819.44,1068.18 1820.67,1068.13 1821.89,1068.08 1823.11,1068.03 1824.34,1067.98 1825.56,1067.92 1826.78,1067.86 1828,1067.8 1829.23,1067.74 1830.45,1067.67 1831.67,1067.61 1832.9,1067.54 1834.12,1067.46 1835.34,1067.39 1836.57,1067.31 1837.79,1067.23 1839.01,1067.15 1840.24,1067.07 1841.46,1066.98 1842.68,1066.89 1843.91,1066.8 1845.13,1066.71 1846.35,1066.62 1847.58,1066.52 1848.8,1066.42 1850.02,1066.32 1851.25,1066.22 1852.47,1066.11 1853.69,1066.01 1854.92,1065.9 1856.14,1065.79 1857.36,1065.67 1858.58,1065.56 1859.81,1065.44 1861.03,1065.32 1862.25,1065.2 1863.48,1065.07 1864.7,1064.95 1865.92,1064.82 1867.15,1064.69 1868.37,1064.56 1869.59,1064.43 1870.82,1064.29 1872.04,1064.15 1873.26,1064.01 1874.49,1063.87 1875.71,1063.73 1876.93,1063.58 1878.16,1063.44 1879.38,1063.29 1880.6,1063.14 1881.83,1062.99 1883.05,1062.83 1884.27,1062.68 1885.5,1062.52 1886.72,1062.36 1887.94,1062.2 1889.16,1062.03 1890.39,1061.87 1891.61,1061.7 1892.83,1061.54 1894.06,1061.37 1895.28,1061.2 1896.5,1061.02 1897.73,1060.85 1898.95,1060.67 1900.17,1060.49 1901.4,1060.32 1902.62,1060.14 1903.84,1059.95 1905.07,1059.77 1906.29,1059.58 1907.51,1059.4 1908.74,1059.21 1909.96,1059.02 1911.18,1058.83 1912.41,1058.64 1913.63,1058.44 1914.85,1058.25 1916.07,1058.05 1917.3,1057.85 1918.52,1057.66 1919.74,1057.46 1920.97,1057.25 1922.19,1057.05 1923.41,1056.85 1924.64,1056.64 1925.86,1056.44 1927.08,1056.23 1928.31,1056.02 1929.53,1055.81 1930.75,1055.6 1931.98,1055.39 1933.2,1055.17 1934.42,1054.96 1935.65,1054.74 1936.87,1054.53 1938.09,1054.31 1939.32,1054.09 1940.54,1053.87 1941.76,1053.65 1942.99,1053.43 1944.21,1053.21 1945.43,1052.98 1946.65,1052.76 1947.88,1052.53 1949.1,1052.3 1950.32,1052.07 1951.55,1051.84 1952.77,1051.61 1953.99,1051.38 1955.22,1051.15 1956.44,1050.92 1957.66,1050.68 1958.89,1050.45 1960.11,1050.21 1961.33,1049.98 1962.56,1049.74 1963.78,1049.5 1965,1049.26 1966.23,1049.02 1967.45,1048.78 1968.67,1048.54 1969.9,1048.3 1971.12,1048.06 1972.34,1047.82 1973.57,1047.58 1974.79,1047.33 1976.01,1047.09 1977.23,1046.85 1978.46,1046.61 1979.68,1046.37 1980.9,1046.12 1982.13,1045.88 1983.35,1045.64 1984.57,1045.4 1985.8,1045.16 1987.02,1044.92 1988.24,1044.68 1989.47,1044.44 1990.69,1044.2 1991.91,1043.96 1993.14,1043.72 1994.36,1043.48 1995.58,1043.25 1996.81,1043.01 1998.03,1042.78 1999.25,1042.55 2000.48,1042.32 2001.7,1042.09 2002.92,1041.86 2004.15,1041.64 2005.37,1041.41 2006.59,1041.19 2007.81,1040.97 2009.04,1040.75 2010.26,1040.54 2011.48,1040.32 2012.71,1040.11 2013.93,1039.9 2015.15,1039.69 2016.38,1039.49 2017.6,1039.29 2018.82,1039.09 2020.05,1038.89 2021.27,1038.7 2022.49,1038.51 2023.72,1038.32 2024.94,1038.14 2026.16,1037.96 2027.39,1037.78 2028.61,1037.61 2029.83,1037.44 2031.06,1037.27 2032.28,1037.11 2033.5,1036.95 2034.72,1036.79 2035.95,1036.64 2037.17,1036.5 2038.39,1036.35 2039.62,1036.21 2040.84,1036.08 2042.06,1035.95 2043.29,1035.82 2044.51,1035.7 2045.73,1035.58 2046.96,1035.46 2048.18,1035.35 2049.4,1035.25 2050.63,1035.15 2051.85,1035.05 2053.07,1034.96 2054.3,1034.87 2055.52,1034.79 2056.74,1034.71 2057.97,1034.64 2059.19,1034.57 2060.41,1034.51 2061.64,1034.45 2062.86,1034.39 2064.08,1034.34 2065.3,1034.3 2066.53,1034.26 2067.75,1034.22 2068.97,1034.19 2070.2,1034.16 2071.42,1034.14 2072.64,1034.12 2073.87,1034.11 2075.09,1034.1 2076.31,1034.09 2077.54,1034.09 2078.76,1034.09 2079.98,1034.1 2081.21,1034.11 2082.43,1034.13 2083.65,1034.14 2084.88,1034.17 2086.1,1034.19 2087.32,1034.22 2088.55,1034.26 2089.77,1034.3 2090.99,1034.34 2092.22,1034.38 2093.44,1034.43 2094.66,1034.48 2095.88,1034.53 2097.11,1034.59 2098.33,1034.65 2099.55,1034.71 2100.78,1034.78 2102,1034.85 2103.22,1034.92 2104.45,1034.99 2105.67,1035.07 2106.89,1035.14 2108.12,1035.22 2109.34,1035.31 2110.56,1035.39 2111.79,1035.47 2113.01,1035.56 2114.23,1035.65 2115.46,1035.74 2116.68,1035.83 2117.9,1035.92 2119.13,1036.01 2120.35,1036.11 2121.57,1036.2 2122.8,1036.3 2124.02,1036.4 2125.24,1036.49 2126.46,1036.59 2127.69,1036.69 2128.91,1036.78 2130.13,1036.88 2131.36,1036.98 2132.58,1037.08 2133.8,1037.18 2135.03,1037.27 2136.25,1037.37 2137.47,1037.47 2138.7,1037.57 2139.92,1037.66 2141.14,1037.76 2142.37,1037.85 2143.59,1037.94 2144.81,1038.04 2146.04,1038.13 2147.26,1038.22 2148.48,1038.31 2149.71,1038.4 2150.93,1038.49 2152.15,1038.57 2153.37,1038.66 2154.6,1038.74 2155.82,1038.83 2157.04,1038.91 2158.27,1038.99 2159.49,1039.07 2160.71,1039.15 2161.94,1039.22 2163.16,1039.3 2164.38,1039.37 2165.61,1039.44 2166.83,1039.51 2168.05,1039.58 2169.28,1039.64 2170.5,1039.71 2171.72,1039.77 2172.95,1039.83 2174.17,1039.9 2175.39,1039.95 2176.62,1040.01 2177.84,1040.07 2179.06,1040.12 2180.29,1040.17 2181.51,1040.22 2182.73,1040.27 2183.95,1040.32 2185.18,1040.37 2186.4,1040.41 2187.62,1040.46 2188.85,1040.5 2190.07,1040.54 2191.29,1040.58 2192.52,1040.61 2193.74,1040.65 2194.96,1040.69 2196.19,1040.72 2197.41,1040.75 2198.63,1040.78 2199.86,1040.81 2201.08,1040.84 2202.3,1040.87 2203.53,1040.9 2204.75,1040.92 2205.97,1040.95 2207.2,1040.97 2208.42,1040.99 2209.64,1041.01 2210.87,1041.03 2212.09,1041.05 2213.31,1041.07 2214.53,1041.09 2215.76,1041.1 2216.98,1041.12 2218.2,1041.14 2219.43,1041.15 2220.65,1041.16 2221.87,1041.18 2223.1,1041.19 2224.32,1041.2 2225.54,1041.21 2226.77,1041.22 2227.99,1041.23 2229.21,1041.24 2230.44,1041.25 2231.66,1041.26 2232.88,1041.27 2234.11,1041.27 2235.33,1041.28 2236.55,1041.29 2237.78,1041.29 2239,1041.3 2240.22,1041.31 2241.45,1041.31 2242.67,1041.32 2243.89,1041.32 2245.11,1041.32 2246.34,1041.33 2247.56,1041.33 2248.78,1041.34 2250.01,1041.34 2251.23,1041.34 2252.45,1041.34 2253.68,1041.35 2254.9,1041.35 2256.12,1041.35 2257.35,1041.35 2258.57,1041.36 2259.79,1041.36 2261.02,1041.36 2262.24,1041.36 2263.46,1041.36 2264.69,1041.36 2265.91,1041.36 2267.13,1041.37 2268.36,1041.37 2269.58,1041.37 2270.8,1041.37 2272.02,1041.37 2273.25,1041.37 2274.47,1041.37 2275.69,1041.37 2276.92,1041.37 2278.14,1041.37 2279.36,1041.37 2280.59,1041.37 2281.81,1041.37 2283.03,1041.37 2284.26,1041.37 2285.48,1041.37 2286.7,1041.38 2287.93,1041.38 2289.15,1041.38 2290.37,1041.38 2291.6,1041.38 2292.82,1041.38 2294.04,1041.38 2295.27,1041.38 2296.49,1041.38 2297.71,1041.38 "/>
<path clip-path="url(#clip990)" d="M1987.14 248.629 L2287.93 248.629 L2287.93 93.1086 L1987.14 93.1086  Z" fill="#ffffff" fill-rule="evenodd" fill-opacity="1"/>
<polyline clip-path="url(#clip990)" style="stroke:#000000; stroke-linecap:round; stroke-linejoin:round; stroke-width:4; stroke-opacity:1; fill:none" points="1987.14,248.629 2287.93,248.629 2287.93,93.1086 1987.14,93.1086 1987.14,248.629 "/>
<polyline clip-path="url(#clip990)" style="stroke:#009af9; stroke-linecap:round; stroke-linejoin:round; stroke-width:4; stroke-opacity:1; fill:none" points="2008.75,144.949 2138.41,144.949 "/>
<path clip-path="url(#clip990)" d="M2160.02 127.669 L2164.7 127.669 L2164.7 158.293 L2181.53 158.293 L2181.53 162.229 L2160.02 162.229 L2160.02 127.669 Z" fill="#000000" fill-rule="nonzero" fill-opacity="1" /><path clip-path="url(#clip990)" d="M2191.11 131.511 L2191.11 144.497 L2196.99 144.497 Q2200.25 144.497 2202.03 142.807 Q2203.82 141.118 2203.82 137.993 Q2203.82 134.891 2202.03 133.201 Q2200.25 131.511 2196.99 131.511 L2191.11 131.511 M2186.43 127.669 L2196.99 127.669 Q2202.8 127.669 2205.76 130.307 Q2208.75 132.923 2208.75 137.993 Q2208.75 143.108 2205.76 145.724 Q2202.8 148.34 2196.99 148.34 L2191.11 148.34 L2191.11 162.229 L2186.43 162.229 L2186.43 127.669 Z" fill="#000000" fill-rule="nonzero" fill-opacity="1" /><path clip-path="url(#clip990)" d="M2225.44 130.747 Q2221.83 130.747 2220 134.312 Q2218.19 137.854 2218.19 144.983 Q2218.19 152.09 2220 155.655 Q2221.83 159.196 2225.44 159.196 Q2229.07 159.196 2230.88 155.655 Q2232.71 152.09 2232.71 144.983 Q2232.71 137.854 2230.88 134.312 Q2229.07 130.747 2225.44 130.747 M2225.44 127.044 Q2231.25 127.044 2234.3 131.65 Q2237.38 136.233 2237.38 144.983 Q2237.38 153.71 2234.3 158.317 Q2231.25 162.9 2225.44 162.9 Q2219.63 162.9 2216.55 158.317 Q2213.49 153.71 2213.49 144.983 Q2213.49 136.233 2216.55 131.65 Q2219.63 127.044 2225.44 127.044 Z" fill="#000000" fill-rule="nonzero" fill-opacity="1" /><path clip-path="url(#clip990)" d="M2246.41 158.293 L2254.05 158.293 L2254.05 131.928 L2245.74 133.595 L2245.74 129.335 L2254 127.669 L2258.68 127.669 L2258.68 158.293 L2266.32 158.293 L2266.32 162.229 L2246.41 162.229 L2246.41 158.293 Z" fill="#000000" fill-rule="nonzero" fill-opacity="1" /><polyline clip-path="url(#clip990)" style="stroke:#e26f46; stroke-linecap:round; stroke-linejoin:round; stroke-width:4; stroke-opacity:1; fill:none" points="2008.75,196.789 2138.41,196.789 "/>
<path clip-path="url(#clip990)" d="M2160.02 179.509 L2164.7 179.509 L2164.7 210.133 L2181.53 210.133 L2181.53 214.069 L2160.02 214.069 L2160.02 179.509 Z" fill="#000000" fill-rule="nonzero" fill-opacity="1" /><path clip-path="url(#clip990)" d="M2191.11 183.351 L2191.11 196.337 L2196.99 196.337 Q2200.25 196.337 2202.03 194.647 Q2203.82 192.958 2203.82 189.833 Q2203.82 186.731 2202.03 185.041 Q2200.25 183.351 2196.99 183.351 L2191.11 183.351 M2186.43 179.509 L2196.99 179.509 Q2202.8 179.509 2205.76 182.147 Q2208.75 184.763 2208.75 189.833 Q2208.75 194.948 2205.76 197.564 Q2202.8 200.18 2196.99 200.18 L2191.11 200.18 L2191.11 214.069 L2186.43 214.069 L2186.43 179.509 Z" fill="#000000" fill-rule="nonzero" fill-opacity="1" /><path clip-path="url(#clip990)" d="M2225.44 182.587 Q2221.83 182.587 2220 186.152 Q2218.19 189.694 2218.19 196.823 Q2218.19 203.93 2220 207.495 Q2221.83 211.036 2225.44 211.036 Q2229.07 211.036 2230.88 207.495 Q2232.71 203.93 2232.71 196.823 Q2232.71 189.694 2230.88 186.152 Q2229.07 182.587 2225.44 182.587 M2225.44 178.884 Q2231.25 178.884 2234.3 183.49 Q2237.38 188.073 2237.38 196.823 Q2237.38 205.55 2234.3 210.157 Q2231.25 214.74 2225.44 214.74 Q2219.63 214.74 2216.55 210.157 Q2213.49 205.55 2213.49 196.823 Q2213.49 188.073 2216.55 183.49 Q2219.63 178.884 2225.44 178.884 Z" fill="#000000" fill-rule="nonzero" fill-opacity="1" /><path clip-path="url(#clip990)" d="M2249.63 210.133 L2265.95 210.133 L2265.95 214.069 L2244 214.069 L2244 210.133 Q2246.66 207.379 2251.25 202.749 Q2255.85 198.096 2257.03 196.754 Q2259.28 194.231 2260.16 192.495 Q2261.06 190.735 2261.06 189.046 Q2261.06 186.291 2259.12 184.555 Q2257.2 182.819 2254.09 182.819 Q2251.9 182.819 2249.44 183.583 Q2247.01 184.347 2244.23 185.897 L2244.23 181.175 Q2247.06 180.041 2249.51 179.462 Q2251.96 178.884 2254 178.884 Q2259.37 178.884 2262.57 181.569 Q2265.76 184.254 2265.76 188.745 Q2265.76 190.874 2264.95 192.796 Q2264.16 194.694 2262.06 197.286 Q2261.48 197.958 2258.38 201.175 Q2255.28 204.37 2249.63 210.133 Z" fill="#000000" fill-rule="nonzero" fill-opacity="1" /></svg>
