<?xml version="1.0" encoding="utf-8"?>
<svg xmlns="http://www.w3.org/2000/svg" xmlns:xlink="http://www.w3.org/1999/xlink" width="600" height="400" viewBox="0 0 2400 1600">
<defs>
  <clipPath id="clip050">
    <rect x="0" y="0" width="2400" height="1600"/>
  </clipPath>
</defs>
<path clip-path="url(#clip050)" d="M0 1600 L2400 1600 L2400 0 L0 0  Z" fill="#ffffff" fill-rule="evenodd" fill-opacity="1"/>
<defs>
  <clipPath id="clip051">
    <rect x="247" y="47" width="2106" height="1377"/>
  </clipPath>
</defs>
<path clip-path="url(#clip050)" d="M247.945 1423.18 L2352.76 1423.18 L2352.76 47.2441 L247.945 47.2441  Z" fill="#ffffff" fill-rule="evenodd" fill-opacity="1"/>
<polyline clip-path="url(#clip051)" style="stroke:#000000; stroke-linecap:round; stroke-linejoin:round; stroke-width:2; stroke-opacity:0.1; fill:none" points="307.515,1423.18 307.515,47.2441 "/>
<polyline clip-path="url(#clip051)" style="stroke:#000000; stroke-linecap:round; stroke-linejoin:round; stroke-width:2; stroke-opacity:0.1; fill:none" points="803.933,1423.18 803.933,47.2441 "/>
<polyline clip-path="url(#clip051)" style="stroke:#000000; stroke-linecap:round; stroke-linejoin:round; stroke-width:2; stroke-opacity:0.1; fill:none" points="1300.35,1423.18 1300.35,47.2441 "/>
<polyline clip-path="url(#clip051)" style="stroke:#000000; stroke-linecap:round; stroke-linejoin:round; stroke-width:2; stroke-opacity:0.1; fill:none" points="1796.77,1423.18 1796.77,47.2441 "/>
<polyline clip-path="url(#clip051)" style="stroke:#000000; stroke-linecap:round; stroke-linejoin:round; stroke-width:2; stroke-opacity:0.1; fill:none" points="2293.19,1423.18 2293.19,47.2441 "/>
<polyline clip-path="url(#clip051)" style="stroke:#000000; stroke-linecap:round; stroke-linejoin:round; stroke-width:2; stroke-opacity:0.1; fill:none" points="247.945,1423.18 2352.76,1423.18 "/>
<polyline clip-path="url(#clip051)" style="stroke:#000000; stroke-linecap:round; stroke-linejoin:round; stroke-width:2; stroke-opacity:0.1; fill:none" points="247.945,1079.2 2352.76,1079.2 "/>
<polyline clip-path="url(#clip051)" style="stroke:#000000; stroke-linecap:round; stroke-linejoin:round; stroke-width:2; stroke-opacity:0.1; fill:none" points="247.945,735.212 2352.76,735.212 "/>
<polyline clip-path="url(#clip051)" style="stroke:#000000; stroke-linecap:round; stroke-linejoin:round; stroke-width:2; stroke-opacity:0.1; fill:none" points="247.945,391.228 2352.76,391.228 "/>
<polyline clip-path="url(#clip050)" style="stroke:#000000; stroke-linecap:round; stroke-linejoin:round; stroke-width:4; stroke-opacity:1; fill:none" points="247.945,1423.18 2352.76,1423.18 "/>
<polyline clip-path="url(#clip050)" style="stroke:#000000; stroke-linecap:round; stroke-linejoin:round; stroke-width:4; stroke-opacity:1; fill:none" points="307.515,1423.18 307.515,1404.28 "/>
<polyline clip-path="url(#clip050)" style="stroke:#000000; stroke-linecap:round; stroke-linejoin:round; stroke-width:4; stroke-opacity:1; fill:none" points="803.933,1423.18 803.933,1404.28 "/>
<polyline clip-path="url(#clip050)" style="stroke:#000000; stroke-linecap:round; stroke-linejoin:round; stroke-width:4; stroke-opacity:1; fill:none" points="1300.35,1423.18 1300.35,1404.28 "/>
<polyline clip-path="url(#clip050)" style="stroke:#000000; stroke-linecap:round; stroke-linejoin:round; stroke-width:4; stroke-opacity:1; fill:none" points="1796.77,1423.18 1796.77,1404.28 "/>
<polyline clip-path="url(#clip050)" style="stroke:#000000; stroke-linecap:round; stroke-linejoin:round; stroke-width:4; stroke-opacity:1; fill:none" points="2293.19,1423.18 2293.19,1404.28 "/>
<path clip-path="url(#clip050)" d="M284.946 1454.1 Q281.335 1454.1 279.506 1457.66 Q277.7 1461.2 277.7 1468.33 Q277.7 1475.44 279.506 1479.01 Q281.335 1482.55 284.946 1482.55 Q288.58 1482.55 290.385 1479.01 Q292.214 1475.44 292.214 1468.33 Q292.214 1461.2 290.385 1457.66 Q288.58 1454.1 284.946 1454.1 M284.946 1450.39 Q290.756 1450.39 293.811 1455 Q296.89 1459.58 296.89 1468.33 Q296.89 1477.06 293.811 1481.67 Q290.756 1486.25 284.946 1486.25 Q279.135 1486.25 276.057 1481.67 Q273.001 1477.06 273.001 1468.33 Q273.001 1459.58 276.057 1455 Q279.135 1450.39 284.946 1450.39 Z" fill="#000000" fill-rule="nonzero" fill-opacity="1" /><path clip-path="url(#clip050)" d="M305.108 1479.7 L309.992 1479.7 L309.992 1485.58 L305.108 1485.58 L305.108 1479.7 Z" fill="#000000" fill-rule="nonzero" fill-opacity="1" /><path clip-path="url(#clip050)" d="M330.177 1469.17 Q326.844 1469.17 324.922 1470.95 Q323.024 1472.73 323.024 1475.86 Q323.024 1478.98 324.922 1480.77 Q326.844 1482.55 330.177 1482.55 Q333.51 1482.55 335.431 1480.77 Q337.353 1478.96 337.353 1475.86 Q337.353 1472.73 335.431 1470.95 Q333.533 1469.17 330.177 1469.17 M325.501 1467.18 Q322.492 1466.44 320.802 1464.38 Q319.135 1462.32 319.135 1459.35 Q319.135 1455.21 322.075 1452.8 Q325.038 1450.39 330.177 1450.39 Q335.339 1450.39 338.279 1452.8 Q341.218 1455.21 341.218 1459.35 Q341.218 1462.32 339.529 1464.38 Q337.862 1466.44 334.876 1467.18 Q338.256 1467.96 340.131 1470.26 Q342.029 1472.55 342.029 1475.86 Q342.029 1480.88 338.95 1483.57 Q335.894 1486.25 330.177 1486.25 Q324.459 1486.25 321.381 1483.57 Q318.325 1480.88 318.325 1475.86 Q318.325 1472.55 320.223 1470.26 Q322.121 1467.96 325.501 1467.18 M323.788 1459.79 Q323.788 1462.48 325.455 1463.98 Q327.144 1465.49 330.177 1465.49 Q333.186 1465.49 334.876 1463.98 Q336.589 1462.48 336.589 1459.79 Q336.589 1457.11 334.876 1455.6 Q333.186 1454.1 330.177 1454.1 Q327.144 1454.1 325.455 1455.6 Q323.788 1457.11 323.788 1459.79 Z" fill="#000000" fill-rule="nonzero" fill-opacity="1" /><path clip-path="url(#clip050)" d="M771.086 1481.64 L778.724 1481.64 L778.724 1455.28 L770.414 1456.95 L770.414 1452.69 L778.678 1451.02 L783.354 1451.02 L783.354 1481.64 L790.993 1481.64 L790.993 1485.58 L771.086 1485.58 L771.086 1481.64 Z" fill="#000000" fill-rule="nonzero" fill-opacity="1" /><path clip-path="url(#clip050)" d="M800.437 1479.7 L805.322 1479.7 L805.322 1485.58 L800.437 1485.58 L800.437 1479.7 Z" fill="#000000" fill-rule="nonzero" fill-opacity="1" /><path clip-path="url(#clip050)" d="M825.507 1454.1 Q821.896 1454.1 820.067 1457.66 Q818.261 1461.2 818.261 1468.33 Q818.261 1475.44 820.067 1479.01 Q821.896 1482.55 825.507 1482.55 Q829.141 1482.55 830.946 1479.01 Q832.775 1475.44 832.775 1468.33 Q832.775 1461.2 830.946 1457.66 Q829.141 1454.1 825.507 1454.1 M825.507 1450.39 Q831.317 1450.39 834.372 1455 Q837.451 1459.58 837.451 1468.33 Q837.451 1477.06 834.372 1481.67 Q831.317 1486.25 825.507 1486.25 Q819.696 1486.25 816.618 1481.67 Q813.562 1477.06 813.562 1468.33 Q813.562 1459.58 816.618 1455 Q819.696 1450.39 825.507 1450.39 Z" fill="#000000" fill-rule="nonzero" fill-opacity="1" /><path clip-path="url(#clip050)" d="M1268.3 1481.64 L1275.94 1481.64 L1275.94 1455.28 L1267.63 1456.95 L1267.63 1452.69 L1275.89 1451.02 L1280.57 1451.02 L1280.57 1481.64 L1288.21 1481.64 L1288.21 1485.58 L1268.3 1485.58 L1268.3 1481.64 Z" fill="#000000" fill-rule="nonzero" fill-opacity="1" /><path clip-path="url(#clip050)" d="M1297.65 1479.7 L1302.54 1479.7 L1302.54 1485.58 L1297.65 1485.58 L1297.65 1479.7 Z" fill="#000000" fill-rule="nonzero" fill-opacity="1" /><path clip-path="url(#clip050)" d="M1316.75 1481.64 L1333.07 1481.64 L1333.07 1485.58 L1311.13 1485.58 L1311.13 1481.64 Q1313.79 1478.89 1318.37 1474.26 Q1322.98 1469.61 1324.16 1468.27 Q1326.4 1465.74 1327.28 1464.01 Q1328.19 1462.25 1328.19 1460.56 Q1328.19 1457.8 1326.24 1456.07 Q1324.32 1454.33 1321.22 1454.33 Q1319.02 1454.33 1316.57 1455.09 Q1314.14 1455.86 1311.36 1457.41 L1311.36 1452.69 Q1314.18 1451.55 1316.63 1450.97 Q1319.09 1450.39 1321.13 1450.39 Q1326.5 1450.39 1329.69 1453.08 Q1332.88 1455.77 1332.88 1460.26 Q1332.88 1462.39 1332.07 1464.31 Q1331.29 1466.2 1329.18 1468.8 Q1328.6 1469.47 1325.5 1472.69 Q1322.4 1475.88 1316.75 1481.64 Z" fill="#000000" fill-rule="nonzero" fill-opacity="1" /><path clip-path="url(#clip050)" d="M1763.68 1481.64 L1771.32 1481.64 L1771.32 1455.28 L1763.01 1456.95 L1763.01 1452.69 L1771.27 1451.02 L1775.95 1451.02 L1775.95 1481.64 L1783.59 1481.64 L1783.59 1485.58 L1763.68 1485.58 L1763.68 1481.64 Z" fill="#000000" fill-rule="nonzero" fill-opacity="1" /><path clip-path="url(#clip050)" d="M1793.03 1479.7 L1797.91 1479.7 L1797.91 1485.58 L1793.03 1485.58 L1793.03 1479.7 Z" fill="#000000" fill-rule="nonzero" fill-opacity="1" /><path clip-path="url(#clip050)" d="M1820.95 1455.09 L1809.14 1473.54 L1820.95 1473.54 L1820.95 1455.09 M1819.72 1451.02 L1825.6 1451.02 L1825.6 1473.54 L1830.53 1473.54 L1830.53 1477.43 L1825.6 1477.43 L1825.6 1485.58 L1820.95 1485.58 L1820.95 1477.43 L1805.34 1477.43 L1805.34 1472.92 L1819.72 1451.02 Z" fill="#000000" fill-rule="nonzero" fill-opacity="1" /><path clip-path="url(#clip050)" d="M2260.26 1481.64 L2267.9 1481.64 L2267.9 1455.28 L2259.59 1456.95 L2259.59 1452.69 L2267.85 1451.02 L2272.53 1451.02 L2272.53 1481.64 L2280.17 1481.64 L2280.17 1485.58 L2260.26 1485.58 L2260.26 1481.64 Z" fill="#000000" fill-rule="nonzero" fill-opacity="1" /><path clip-path="url(#clip050)" d="M2289.61 1479.7 L2294.49 1479.7 L2294.49 1485.58 L2289.61 1485.58 L2289.61 1479.7 Z" fill="#000000" fill-rule="nonzero" fill-opacity="1" /><path clip-path="url(#clip050)" d="M2315.26 1466.44 Q2312.11 1466.44 2310.26 1468.59 Q2308.43 1470.74 2308.43 1474.49 Q2308.43 1478.22 2310.26 1480.39 Q2312.11 1482.55 2315.26 1482.55 Q2318.41 1482.55 2320.23 1480.39 Q2322.09 1478.22 2322.09 1474.49 Q2322.09 1470.74 2320.23 1468.59 Q2318.41 1466.44 2315.26 1466.44 M2324.54 1451.78 L2324.54 1456.04 Q2322.78 1455.21 2320.97 1454.77 Q2319.19 1454.33 2317.43 1454.33 Q2312.8 1454.33 2310.35 1457.45 Q2307.92 1460.58 2307.57 1466.9 Q2308.94 1464.89 2311 1463.82 Q2313.06 1462.73 2315.54 1462.73 Q2320.74 1462.73 2323.75 1465.9 Q2326.79 1469.05 2326.79 1474.49 Q2326.79 1479.82 2323.64 1483.03 Q2320.49 1486.25 2315.26 1486.25 Q2309.26 1486.25 2306.09 1481.67 Q2302.92 1477.06 2302.92 1468.33 Q2302.92 1460.14 2306.81 1455.28 Q2310.7 1450.39 2317.25 1450.39 Q2319.01 1450.39 2320.79 1450.74 Q2322.6 1451.09 2324.54 1451.78 Z" fill="#000000" fill-rule="nonzero" fill-opacity="1" /><path clip-path="url(#clip050)" d="M1022.61 1520.52 L1029.11 1520.52 L1039.1 1560.69 L1049.06 1520.52 L1056.29 1520.52 L1066.28 1560.69 L1076.25 1520.52 L1082.77 1520.52 L1070.83 1568.04 L1062.75 1568.04 L1052.72 1526.79 L1042.6 1568.04 L1034.52 1568.04 L1022.61 1520.52 Z" fill="#000000" fill-rule="nonzero" fill-opacity="1" /><path clip-path="url(#clip050)" d="M1103.08 1550.12 Q1095.98 1550.12 1093.24 1551.75 Q1090.5 1553.37 1090.5 1557.29 Q1090.5 1560.4 1092.54 1562.25 Q1094.61 1564.07 1098.14 1564.07 Q1103.01 1564.07 1105.94 1560.63 Q1108.9 1557.16 1108.9 1551.43 L1108.9 1550.12 L1103.08 1550.12 M1114.76 1547.71 L1114.76 1568.04 L1108.9 1568.04 L1108.9 1562.63 Q1106.9 1565.88 1103.9 1567.44 Q1100.91 1568.97 1096.58 1568.97 Q1091.11 1568.97 1087.86 1565.91 Q1084.65 1562.82 1084.65 1557.67 Q1084.65 1551.65 1088.66 1548.6 Q1092.7 1545.54 1100.69 1545.54 L1108.9 1545.54 L1108.9 1544.97 Q1108.9 1540.93 1106.23 1538.73 Q1103.59 1536.5 1098.78 1536.5 Q1095.72 1536.5 1092.83 1537.23 Q1089.93 1537.97 1087.26 1539.43 L1087.26 1534.02 Q1090.47 1532.78 1093.5 1532.17 Q1096.52 1531.54 1099.39 1531.54 Q1107.12 1531.54 1110.94 1535.55 Q1114.76 1539.56 1114.76 1547.71 Z" fill="#000000" fill-rule="nonzero" fill-opacity="1" /><path clip-path="url(#clip050)" d="M1122.62 1532.4 L1128.83 1532.4 L1139.97 1562.31 L1151.11 1532.4 L1157.31 1532.4 L1143.94 1568.04 L1135.99 1568.04 L1122.62 1532.4 Z" fill="#000000" fill-rule="nonzero" fill-opacity="1" /><path clip-path="url(#clip050)" d="M1195.89 1548.76 L1195.89 1551.62 L1168.96 1551.62 Q1169.34 1557.67 1172.59 1560.85 Q1175.87 1564 1181.69 1564 Q1185.07 1564 1188.22 1563.17 Q1191.4 1562.35 1194.52 1560.69 L1194.52 1566.23 Q1191.37 1567.57 1188.06 1568.27 Q1184.75 1568.97 1181.34 1568.97 Q1172.81 1568.97 1167.82 1564 Q1162.85 1559.04 1162.85 1550.57 Q1162.85 1541.82 1167.56 1536.69 Q1172.3 1531.54 1180.32 1531.54 Q1187.52 1531.54 1191.69 1536.18 Q1195.89 1540.8 1195.89 1548.76 M1190.03 1547.04 Q1189.97 1542.23 1187.33 1539.37 Q1184.72 1536.5 1180.39 1536.5 Q1175.49 1536.5 1172.53 1539.27 Q1169.6 1542.04 1169.15 1547.07 L1190.03 1547.04 Z" fill="#000000" fill-rule="nonzero" fill-opacity="1" /><path clip-path="url(#clip050)" d="M1205.5 1518.52 L1211.36 1518.52 L1211.36 1568.04 L1205.5 1568.04 L1205.5 1518.52 Z" fill="#000000" fill-rule="nonzero" fill-opacity="1" /><path clip-path="url(#clip050)" d="M1254.1 1548.76 L1254.1 1551.62 L1227.18 1551.62 Q1227.56 1557.67 1230.81 1560.85 Q1234.08 1564 1239.91 1564 Q1243.28 1564 1246.43 1563.17 Q1249.62 1562.35 1252.73 1560.69 L1252.73 1566.23 Q1249.58 1567.57 1246.27 1568.27 Q1242.96 1568.97 1239.56 1568.97 Q1231.03 1568.97 1226.03 1564 Q1221.07 1559.04 1221.07 1550.57 Q1221.07 1541.82 1225.78 1536.69 Q1230.52 1531.54 1238.54 1531.54 Q1245.73 1531.54 1249.9 1536.18 Q1254.1 1540.8 1254.1 1548.76 M1248.25 1547.04 Q1248.18 1542.23 1245.54 1539.37 Q1242.93 1536.5 1238.6 1536.5 Q1233.7 1536.5 1230.74 1539.27 Q1227.81 1542.04 1227.37 1547.07 L1248.25 1547.04 Z" fill="#000000" fill-rule="nonzero" fill-opacity="1" /><path clip-path="url(#clip050)" d="M1293.35 1546.53 L1293.35 1568.04 L1287.49 1568.04 L1287.49 1546.72 Q1287.49 1541.66 1285.52 1539.14 Q1283.54 1536.63 1279.6 1536.63 Q1274.86 1536.63 1272.12 1539.65 Q1269.38 1542.68 1269.38 1547.9 L1269.38 1568.04 L1263.49 1568.04 L1263.49 1532.4 L1269.38 1532.4 L1269.38 1537.93 Q1271.48 1534.72 1274.31 1533.13 Q1277.18 1531.54 1280.9 1531.54 Q1287.05 1531.54 1290.2 1535.36 Q1293.35 1539.14 1293.35 1546.53 Z" fill="#000000" fill-rule="nonzero" fill-opacity="1" /><path clip-path="url(#clip050)" d="M1328.49 1549.81 Q1328.49 1543.44 1325.85 1539.94 Q1323.24 1536.44 1318.49 1536.44 Q1313.78 1536.44 1311.14 1539.94 Q1308.53 1543.44 1308.53 1549.81 Q1308.53 1556.14 1311.14 1559.64 Q1313.78 1563.14 1318.49 1563.14 Q1323.24 1563.14 1325.85 1559.64 Q1328.49 1556.14 1328.49 1549.81 M1334.34 1563.62 Q1334.34 1572.72 1330.3 1577.15 Q1326.26 1581.6 1317.92 1581.6 Q1314.83 1581.6 1312.1 1581.13 Q1309.36 1580.68 1306.78 1579.72 L1306.78 1574.03 Q1309.36 1575.43 1311.87 1576.1 Q1314.39 1576.76 1317 1576.76 Q1322.76 1576.76 1325.62 1573.74 Q1328.49 1570.75 1328.49 1564.67 L1328.49 1561.77 Q1326.67 1564.92 1323.84 1566.48 Q1321.01 1568.04 1317.06 1568.04 Q1310.5 1568.04 1306.49 1563.05 Q1302.48 1558.05 1302.48 1549.81 Q1302.48 1541.53 1306.49 1536.53 Q1310.5 1531.54 1317.06 1531.54 Q1321.01 1531.54 1323.84 1533.1 Q1326.67 1534.66 1328.49 1537.81 L1328.49 1532.4 L1334.34 1532.4 L1334.34 1563.62 Z" fill="#000000" fill-rule="nonzero" fill-opacity="1" /><path clip-path="url(#clip050)" d="M1352.2 1522.27 L1352.2 1532.4 L1364.26 1532.4 L1364.26 1536.95 L1352.2 1536.95 L1352.2 1556.3 Q1352.2 1560.66 1353.38 1561.9 Q1354.59 1563.14 1358.25 1563.14 L1364.26 1563.14 L1364.26 1568.04 L1358.25 1568.04 Q1351.47 1568.04 1348.89 1565.53 Q1346.31 1562.98 1346.31 1556.3 L1346.31 1536.95 L1342.01 1536.95 L1342.01 1532.4 L1346.31 1532.4 L1346.31 1522.27 L1352.2 1522.27 Z" fill="#000000" fill-rule="nonzero" fill-opacity="1" /><path clip-path="url(#clip050)" d="M1401.6 1546.53 L1401.6 1568.04 L1395.74 1568.04 L1395.74 1546.72 Q1395.74 1541.66 1393.77 1539.14 Q1391.79 1536.63 1387.85 1536.63 Q1383.1 1536.63 1380.37 1539.65 Q1377.63 1542.68 1377.63 1547.9 L1377.63 1568.04 L1371.74 1568.04 L1371.74 1518.52 L1377.63 1518.52 L1377.63 1537.93 Q1379.73 1534.72 1382.56 1533.13 Q1385.43 1531.54 1389.15 1531.54 Q1395.29 1531.54 1398.45 1535.36 Q1401.6 1539.14 1401.6 1546.53 Z" fill="#000000" fill-rule="nonzero" fill-opacity="1" /><path clip-path="url(#clip050)" d="M1448.07 1518.58 Q1443.8 1525.9 1441.73 1533.06 Q1439.66 1540.23 1439.66 1547.58 Q1439.66 1554.93 1441.73 1562.16 Q1443.83 1569.35 1448.07 1576.64 L1442.97 1576.64 Q1438.2 1569.16 1435.81 1561.93 Q1433.46 1554.71 1433.46 1547.58 Q1433.46 1540.48 1435.81 1533.29 Q1438.17 1526.09 1442.97 1518.58 L1448.07 1518.58 Z" fill="#000000" fill-rule="nonzero" fill-opacity="1" /><path clip-path="url(#clip050)" d="M1458.82 1581.6 L1458.82 1532.4 L1464.68 1532.4 L1464.68 1554.55 Q1464.68 1559.16 1466.88 1561.52 Q1469.07 1563.87 1473.37 1563.87 Q1478.08 1563.87 1480.44 1561.2 Q1482.82 1558.53 1482.82 1553.18 L1482.82 1532.4 L1488.68 1532.4 L1488.68 1559.83 Q1488.68 1561.74 1489.22 1562.66 Q1489.79 1563.56 1490.97 1563.56 Q1491.26 1563.56 1491.77 1563.4 Q1492.28 1563.21 1493.17 1562.82 L1493.17 1567.53 Q1491.86 1568.27 1490.68 1568.62 Q1489.54 1568.97 1488.43 1568.97 Q1486.23 1568.97 1484.92 1567.73 Q1483.62 1566.48 1483.14 1563.94 Q1481.55 1566.45 1479.23 1567.73 Q1476.94 1568.97 1473.82 1568.97 Q1470.57 1568.97 1468.28 1567.73 Q1466.02 1566.48 1464.68 1564 L1464.68 1581.6 L1458.82 1581.6 Z" fill="#000000" fill-rule="nonzero" fill-opacity="1" /><path clip-path="url(#clip050)" d="M1528.66 1539.24 Q1530.85 1535.29 1533.91 1533.41 Q1536.96 1531.54 1541.1 1531.54 Q1546.67 1531.54 1549.7 1535.45 Q1552.72 1539.33 1552.72 1546.53 L1552.72 1568.04 L1546.83 1568.04 L1546.83 1546.72 Q1546.83 1541.59 1545.02 1539.11 Q1543.2 1536.63 1539.48 1536.63 Q1534.93 1536.63 1532.28 1539.65 Q1529.64 1542.68 1529.64 1547.9 L1529.64 1568.04 L1523.75 1568.04 L1523.75 1546.72 Q1523.75 1541.56 1521.94 1539.11 Q1520.13 1536.63 1516.34 1536.63 Q1511.85 1536.63 1509.21 1539.68 Q1506.57 1542.71 1506.57 1547.9 L1506.57 1568.04 L1500.68 1568.04 L1500.68 1532.4 L1506.57 1532.4 L1506.57 1537.93 Q1508.57 1534.66 1511.37 1533.1 Q1514.17 1531.54 1518.03 1531.54 Q1521.91 1531.54 1524.61 1533.51 Q1527.35 1535.48 1528.66 1539.24 Z" fill="#000000" fill-rule="nonzero" fill-opacity="1" /><path clip-path="url(#clip050)" d="M1563.48 1518.58 L1568.57 1518.58 Q1573.34 1526.09 1575.7 1533.29 Q1578.09 1540.48 1578.09 1547.58 Q1578.09 1554.71 1575.7 1561.93 Q1573.34 1569.16 1568.57 1576.64 L1563.48 1576.64 Q1567.71 1569.35 1569.78 1562.16 Q1571.88 1554.93 1571.88 1547.58 Q1571.88 1540.23 1569.78 1533.06 Q1567.71 1525.9 1563.48 1518.58 Z" fill="#000000" fill-rule="nonzero" fill-opacity="1" /><polyline clip-path="url(#clip050)" style="stroke:#000000; stroke-linecap:round; stroke-linejoin:round; stroke-width:4; stroke-opacity:1; fill:none" points="247.945,1423.18 247.945,47.2441 "/>
<polyline clip-path="url(#clip050)" style="stroke:#000000; stroke-linecap:round; stroke-linejoin:round; stroke-width:4; stroke-opacity:1; fill:none" points="247.945,1423.18 266.842,1423.18 "/>
<polyline clip-path="url(#clip050)" style="stroke:#000000; stroke-linecap:round; stroke-linejoin:round; stroke-width:4; stroke-opacity:1; fill:none" points="247.945,1079.2 266.842,1079.2 "/>
<polyline clip-path="url(#clip050)" style="stroke:#000000; stroke-linecap:round; stroke-linejoin:round; stroke-width:4; stroke-opacity:1; fill:none" points="247.945,735.212 266.842,735.212 "/>
<polyline clip-path="url(#clip050)" style="stroke:#000000; stroke-linecap:round; stroke-linejoin:round; stroke-width:4; stroke-opacity:1; fill:none" points="247.945,391.228 266.842,391.228 "/>
<path clip-path="url(#clip050)" d="M116.066 1436.52 L123.705 1436.52 L123.705 1410.16 L115.394 1411.83 L115.394 1407.57 L123.658 1405.9 L128.334 1405.9 L128.334 1436.52 L135.973 1436.52 L135.973 1440.46 L116.066 1440.46 L116.066 1436.52 Z" fill="#000000" fill-rule="nonzero" fill-opacity="1" /><path clip-path="url(#clip050)" d="M145.417 1434.58 L150.302 1434.58 L150.302 1440.46 L145.417 1440.46 L145.417 1434.58 Z" fill="#000000" fill-rule="nonzero" fill-opacity="1" /><path clip-path="url(#clip050)" d="M173.334 1409.97 L161.528 1428.42 L173.334 1428.42 L173.334 1409.97 M172.107 1405.9 L177.987 1405.9 L177.987 1428.42 L182.917 1428.42 L182.917 1432.31 L177.987 1432.31 L177.987 1440.46 L173.334 1440.46 L173.334 1432.31 L157.732 1432.31 L157.732 1427.8 L172.107 1405.9 Z" fill="#000000" fill-rule="nonzero" fill-opacity="1" /><path clip-path="url(#clip050)" d="M204.815 1421.83 Q208.172 1422.54 210.047 1424.81 Q211.945 1427.08 211.945 1430.41 Q211.945 1435.53 208.426 1438.33 Q204.908 1441.13 198.426 1441.13 Q196.25 1441.13 193.936 1440.69 Q191.644 1440.27 189.19 1439.42 L189.19 1434.9 Q191.135 1436.04 193.45 1436.62 Q195.764 1437.2 198.287 1437.2 Q202.686 1437.2 204.977 1435.46 Q207.292 1433.72 207.292 1430.41 Q207.292 1427.36 205.139 1425.65 Q203.01 1423.91 199.19 1423.91 L195.163 1423.91 L195.163 1420.07 L199.375 1420.07 Q202.824 1420.07 204.653 1418.7 Q206.482 1417.31 206.482 1414.72 Q206.482 1412.06 204.584 1410.65 Q202.709 1409.21 199.19 1409.21 Q197.269 1409.21 195.07 1409.63 Q192.871 1410.04 190.232 1410.92 L190.232 1406.76 Q192.894 1406.02 195.209 1405.65 Q197.547 1405.27 199.607 1405.27 Q204.931 1405.27 208.033 1407.71 Q211.135 1410.11 211.135 1414.23 Q211.135 1417.1 209.491 1419.09 Q207.848 1421.06 204.815 1421.83 Z" fill="#000000" fill-rule="nonzero" fill-opacity="1" /><path clip-path="url(#clip050)" d="M114.931 1092.54 L122.57 1092.54 L122.57 1066.18 L114.26 1067.84 L114.26 1063.58 L122.524 1061.92 L127.2 1061.92 L127.2 1092.54 L134.839 1092.54 L134.839 1096.48 L114.931 1096.48 L114.931 1092.54 Z" fill="#000000" fill-rule="nonzero" fill-opacity="1" /><path clip-path="url(#clip050)" d="M144.283 1090.6 L149.167 1090.6 L149.167 1096.48 L144.283 1096.48 L144.283 1090.6 Z" fill="#000000" fill-rule="nonzero" fill-opacity="1" /><path clip-path="url(#clip050)" d="M172.2 1065.99 L160.394 1084.44 L172.2 1084.44 L172.2 1065.99 M170.973 1061.92 L176.852 1061.92 L176.852 1084.44 L181.783 1084.44 L181.783 1088.33 L176.852 1088.33 L176.852 1096.48 L172.2 1096.48 L172.2 1088.33 L156.598 1088.33 L156.598 1083.81 L170.973 1061.92 Z" fill="#000000" fill-rule="nonzero" fill-opacity="1" /><path clip-path="url(#clip050)" d="M202.362 1065.99 L190.556 1084.44 L202.362 1084.44 L202.362 1065.99 M201.135 1061.92 L207.014 1061.92 L207.014 1084.44 L211.945 1084.44 L211.945 1088.33 L207.014 1088.33 L207.014 1096.48 L202.362 1096.48 L202.362 1088.33 L186.76 1088.33 L186.76 1083.81 L201.135 1061.92 Z" fill="#000000" fill-rule="nonzero" fill-opacity="1" /><path clip-path="url(#clip050)" d="M116.413 748.557 L124.052 748.557 L124.052 722.191 L115.742 723.858 L115.742 719.599 L124.005 717.932 L128.681 717.932 L128.681 748.557 L136.32 748.557 L136.32 752.492 L116.413 752.492 L116.413 748.557 Z" fill="#000000" fill-rule="nonzero" fill-opacity="1" /><path clip-path="url(#clip050)" d="M145.765 746.612 L150.649 746.612 L150.649 752.492 L145.765 752.492 L145.765 746.612 Z" fill="#000000" fill-rule="nonzero" fill-opacity="1" /><path clip-path="url(#clip050)" d="M173.681 722.006 L161.876 740.455 L173.681 740.455 L173.681 722.006 M172.454 717.932 L178.334 717.932 L178.334 740.455 L183.264 740.455 L183.264 744.344 L178.334 744.344 L178.334 752.492 L173.681 752.492 L173.681 744.344 L158.079 744.344 L158.079 739.83 L172.454 717.932 Z" fill="#000000" fill-rule="nonzero" fill-opacity="1" /><path clip-path="url(#clip050)" d="M191.042 717.932 L209.399 717.932 L209.399 721.867 L195.325 721.867 L195.325 730.339 Q196.343 729.992 197.362 729.83 Q198.38 729.645 199.399 729.645 Q205.186 729.645 208.565 732.816 Q211.945 735.987 211.945 741.404 Q211.945 746.983 208.473 750.085 Q205 753.163 198.681 753.163 Q196.505 753.163 194.237 752.793 Q191.991 752.423 189.584 751.682 L189.584 746.983 Q191.667 748.117 193.889 748.673 Q196.112 749.228 198.588 749.228 Q202.593 749.228 204.931 747.122 Q207.269 745.015 207.269 741.404 Q207.269 737.793 204.931 735.687 Q202.593 733.58 198.588 733.58 Q196.713 733.58 194.838 733.997 Q192.987 734.413 191.042 735.293 L191.042 717.932 Z" fill="#000000" fill-rule="nonzero" fill-opacity="1" /><path clip-path="url(#clip050)" d="M115.256 404.573 L122.894 404.573 L122.894 378.207 L114.584 379.874 L114.584 375.615 L122.848 373.948 L127.524 373.948 L127.524 404.573 L135.163 404.573 L135.163 408.508 L115.256 408.508 L115.256 404.573 Z" fill="#000000" fill-rule="nonzero" fill-opacity="1" /><path clip-path="url(#clip050)" d="M144.607 402.628 L149.491 402.628 L149.491 408.508 L144.607 408.508 L144.607 402.628 Z" fill="#000000" fill-rule="nonzero" fill-opacity="1" /><path clip-path="url(#clip050)" d="M172.524 378.022 L160.718 396.471 L172.524 396.471 L172.524 378.022 M171.297 373.948 L177.176 373.948 L177.176 396.471 L182.107 396.471 L182.107 400.36 L177.176 400.36 L177.176 408.508 L172.524 408.508 L172.524 400.36 L156.922 400.36 L156.922 395.846 L171.297 373.948 Z" fill="#000000" fill-rule="nonzero" fill-opacity="1" /><path clip-path="url(#clip050)" d="M200.417 389.365 Q197.269 389.365 195.417 391.517 Q193.588 393.67 193.588 397.42 Q193.588 401.147 195.417 403.323 Q197.269 405.476 200.417 405.476 Q203.565 405.476 205.394 403.323 Q207.246 401.147 207.246 397.42 Q207.246 393.67 205.394 391.517 Q203.565 389.365 200.417 389.365 M209.699 374.712 L209.699 378.971 Q207.94 378.138 206.135 377.698 Q204.352 377.258 202.593 377.258 Q197.963 377.258 195.51 380.383 Q193.079 383.508 192.732 389.828 Q194.098 387.814 196.158 386.749 Q198.218 385.661 200.695 385.661 Q205.903 385.661 208.912 388.832 Q211.945 391.98 211.945 397.42 Q211.945 402.744 208.797 405.962 Q205.649 409.179 200.417 409.179 Q194.422 409.179 191.25 404.596 Q188.079 399.99 188.079 391.263 Q188.079 383.068 191.968 378.207 Q195.857 373.323 202.408 373.323 Q204.167 373.323 205.949 373.67 Q207.755 374.017 209.699 374.712 Z" fill="#000000" fill-rule="nonzero" fill-opacity="1" /><path clip-path="url(#clip050)" d="M16.4842 973.162 L16.4842 943.116 L21.895 943.116 L21.895 966.733 L35.9632 966.733 L35.9632 944.103 L41.3741 944.103 L41.3741 966.733 L58.5933 966.733 L58.5933 942.543 L64.0042 942.543 L64.0042 973.162 L16.4842 973.162 Z" fill="#000000" fill-rule="nonzero" fill-opacity="1" /><path clip-path="url(#clip050)" d="M14.479 914.184 L19.3487 914.184 L19.3487 919.786 Q19.3487 922.937 20.6219 924.178 Q21.895 925.387 25.2052 925.387 L28.3562 925.387 L28.3562 915.743 L32.9077 915.743 L32.9077 925.387 L64.0042 925.387 L64.0042 931.276 L32.9077 931.276 L32.9077 936.878 L28.3562 936.878 L28.3562 931.276 L25.8736 931.276 Q19.9216 931.276 17.2162 928.507 Q14.479 925.738 14.479 919.722 L14.479 914.184 Z" fill="#000000" fill-rule="nonzero" fill-opacity="1" /><path clip-path="url(#clip050)" d="M14.479 891.235 L19.3487 891.235 L19.3487 896.837 Q19.3487 899.988 20.6219 901.23 Q21.895 902.439 25.2052 902.439 L28.3562 902.439 L28.3562 892.795 L32.9077 892.795 L32.9077 902.439 L64.0042 902.439 L64.0042 908.327 L32.9077 908.327 L32.9077 913.929 L28.3562 913.929 L28.3562 908.327 L25.8736 908.327 Q19.9216 908.327 17.2162 905.558 Q14.479 902.789 14.479 896.774 L14.479 891.235 Z" fill="#000000" fill-rule="nonzero" fill-opacity="1" /><path clip-path="url(#clip050)" d="M44.7161 855.842 L47.5806 855.842 L47.5806 882.769 Q53.6281 882.387 56.8109 879.141 Q59.9619 875.862 59.9619 870.038 Q59.9619 866.664 59.1344 863.513 Q58.3069 860.33 56.6518 857.211 L62.1899 857.211 Q63.5267 860.362 64.227 863.672 Q64.9272 866.982 64.9272 870.388 Q64.9272 878.918 59.9619 883.915 Q54.9967 888.88 46.5303 888.88 Q37.7774 888.88 32.6531 884.17 Q27.4968 879.427 27.4968 871.406 Q27.4968 864.213 32.1438 860.043 Q36.7589 855.842 44.7161 855.842 M42.9973 861.699 Q38.1912 861.762 35.3266 864.404 Q32.4621 867.014 32.4621 871.343 Q32.4621 876.244 35.2312 879.204 Q38.0002 882.132 43.0292 882.578 L42.9973 861.699 Z" fill="#000000" fill-rule="nonzero" fill-opacity="1" /><path clip-path="url(#clip050)" d="M29.7248 820.576 L35.1993 820.576 Q33.8307 823.059 33.1623 825.573 Q32.4621 828.056 32.4621 830.602 Q32.4621 836.299 36.0905 839.45 Q39.6872 842.601 46.212 842.601 Q52.7369 842.601 56.3653 839.45 Q59.9619 836.299 59.9619 830.602 Q59.9619 828.056 59.2935 825.573 Q58.5933 823.059 57.2247 820.576 L62.6355 820.576 Q63.7814 823.027 64.3543 825.669 Q64.9272 828.279 64.9272 831.239 Q64.9272 839.291 59.8664 844.034 Q54.8057 848.776 46.212 848.776 Q37.491 848.776 32.4939 844.002 Q27.4968 839.196 27.4968 830.857 Q27.4968 828.151 28.0697 825.573 Q28.6108 822.995 29.7248 820.576 Z" fill="#000000" fill-rule="nonzero" fill-opacity="1" /><path clip-path="url(#clip050)" d="M18.2347 804.598 L28.3562 804.598 L28.3562 792.535 L32.9077 792.535 L32.9077 804.598 L52.2594 804.598 Q56.6199 804.598 57.8613 803.421 Q59.1026 802.211 59.1026 798.551 L59.1026 792.535 L64.0042 792.535 L64.0042 798.551 Q64.0042 805.33 61.4897 807.908 Q58.9434 810.486 52.2594 810.486 L32.9077 810.486 L32.9077 814.783 L28.3562 814.783 L28.3562 810.486 L18.2347 810.486 L18.2347 804.598 Z" fill="#000000" fill-rule="nonzero" fill-opacity="1" /><path clip-path="url(#clip050)" d="M28.3562 784.833 L28.3562 778.976 L64.0042 778.976 L64.0042 784.833 L28.3562 784.833 M14.479 784.833 L14.479 778.976 L21.895 778.976 L21.895 784.833 L14.479 784.833 Z" fill="#000000" fill-rule="nonzero" fill-opacity="1" /><path clip-path="url(#clip050)" d="M28.3562 770.924 L28.3562 764.717 L58.275 753.577 L28.3562 742.437 L28.3562 736.23 L64.0042 749.598 L64.0042 757.556 L28.3562 770.924 Z" fill="#000000" fill-rule="nonzero" fill-opacity="1" /><path clip-path="url(#clip050)" d="M44.7161 697.654 L47.5806 697.654 L47.5806 724.581 Q53.6281 724.199 56.8109 720.953 Q59.9619 717.674 59.9619 711.85 Q59.9619 708.476 59.1344 705.325 Q58.3069 702.142 56.6518 699.023 L62.1899 699.023 Q63.5267 702.174 64.227 705.484 Q64.9272 708.794 64.9272 712.2 Q64.9272 720.73 59.9619 725.727 Q54.9967 730.692 46.5303 730.692 Q37.7774 730.692 32.6531 725.982 Q27.4968 721.239 27.4968 713.218 Q27.4968 706.025 32.1438 701.856 Q36.7589 697.654 44.7161 697.654 M42.9973 703.511 Q38.1912 703.574 35.3266 706.216 Q32.4621 708.826 32.4621 713.155 Q32.4621 718.056 35.2312 721.016 Q38.0002 723.945 43.0292 724.39 L42.9973 703.511 Z" fill="#000000" fill-rule="nonzero" fill-opacity="1" /><path clip-path="url(#clip050)" d="M28.3562 667.322 L28.3562 661.465 L64.0042 661.465 L64.0042 667.322 L28.3562 667.322 M14.479 667.322 L14.479 661.465 L21.895 661.465 L21.895 667.322 L14.479 667.322 Z" fill="#000000" fill-rule="nonzero" fill-opacity="1" /><path clip-path="url(#clip050)" d="M42.4881 619.579 L64.0042 619.579 L64.0042 625.435 L42.679 625.435 Q37.6183 625.435 35.1038 627.409 Q32.5894 629.382 32.5894 633.329 Q32.5894 638.071 35.6131 640.809 Q38.6368 643.546 43.8567 643.546 L64.0042 643.546 L64.0042 649.434 L28.3562 649.434 L28.3562 643.546 L33.8944 643.546 Q30.6797 641.445 29.0883 638.612 Q27.4968 635.748 27.4968 632.024 Q27.4968 625.881 31.3163 622.73 Q35.1038 619.579 42.4881 619.579 Z" fill="#000000" fill-rule="nonzero" fill-opacity="1" /><path clip-path="url(#clip050)" d="M33.7671 584.44 L14.479 584.44 L14.479 578.584 L64.0042 578.584 L64.0042 584.44 L58.657 584.44 Q61.8398 586.286 63.3994 589.119 Q64.9272 591.92 64.9272 595.867 Q64.9272 602.328 59.771 606.402 Q54.6147 610.444 46.212 610.444 Q37.8093 610.444 32.6531 606.402 Q27.4968 602.328 27.4968 595.867 Q27.4968 591.92 29.0564 589.119 Q30.5842 586.286 33.7671 584.44 M46.212 604.397 Q52.6732 604.397 56.3653 601.755 Q60.0256 599.081 60.0256 594.434 Q60.0256 589.787 56.3653 587.114 Q52.6732 584.44 46.212 584.44 Q39.7508 584.44 36.0905 587.114 Q32.3984 589.787 32.3984 594.434 Q32.3984 599.081 36.0905 601.755 Q39.7508 604.397 46.212 604.397 Z" fill="#000000" fill-rule="nonzero" fill-opacity="1" /><path clip-path="url(#clip050)" d="M44.7161 536.029 L47.5806 536.029 L47.5806 562.956 Q53.6281 562.574 56.8109 559.327 Q59.9619 556.049 59.9619 550.225 Q59.9619 546.851 59.1344 543.7 Q58.3069 540.517 56.6518 537.398 L62.1899 537.398 Q63.5267 540.549 64.227 543.859 Q64.9272 547.169 64.9272 550.575 Q64.9272 559.105 59.9619 564.102 Q54.9967 569.067 46.5303 569.067 Q37.7774 569.067 32.6531 564.356 Q27.4968 559.614 27.4968 551.593 Q27.4968 544.4 32.1438 540.23 Q36.7589 536.029 44.7161 536.029 M42.9973 541.885 Q38.1912 541.949 35.3266 544.591 Q32.4621 547.201 32.4621 551.53 Q32.4621 556.431 35.2312 559.391 Q38.0002 562.319 43.0292 562.765 L42.9973 541.885 Z" fill="#000000" fill-rule="nonzero" fill-opacity="1" /><path clip-path="url(#clip050)" d="M28.3562 497.93 L45.7028 510.821 L64.0042 497.262 L64.0042 504.169 L49.9996 514.545 L64.0042 524.921 L64.0042 531.828 L45.3526 517.982 L28.3562 530.65 L28.3562 523.743 L41.0558 514.29 L28.3562 504.837 L28.3562 497.93 Z" fill="#000000" fill-rule="nonzero" fill-opacity="1" /><polyline clip-path="url(#clip051)" style="stroke:#000000; stroke-linecap:round; stroke-linejoin:round; stroke-width:4; stroke-opacity:1; fill:none" points="307.515,735.212 369.567,735.212 431.619,735.212 493.672,735.212 555.724,735.212 617.776,735.212 679.828,735.212 741.88,735.212 803.933,735.212 865.985,735.212 928.037,735.212 990.089,735.212 1052.14,735.212 1114.19,735.212 1176.25,735.212 1238.3,735.212 1300.35,735.212 1362.4,735.212 1424.45,735.212 1486.51,735.212 1548.56,735.212 1610.61,735.212 1672.66,735.212 1734.72,735.212 1796.77,735.212 1858.82,735.212 1920.87,735.212 1982.92,735.212 2044.98,735.212 2107.03,735.212 2169.08,735.212 2231.13,735.212 2293.19,735.212 "/>
<polyline clip-path="url(#clip051)" style="stroke:#ff0000; stroke-linecap:round; stroke-linejoin:round; stroke-width:4; stroke-opacity:1; fill:none" points="307.515,135.479 369.567,140.146 431.619,144.881 493.672,149.678 555.724,154.534 617.776,159.445 679.828,164.406 741.88,169.414 803.933,174.464 865.985,179.552 928.037,184.674 990.089,189.825 1052.14,195.001 1114.19,200.197 1176.25,205.409 1238.3,210.633 1300.35,215.863 1362.4,221.094 1424.45,226.323 1486.51,231.545 1548.56,236.754 1610.61,241.947 1672.66,247.118 1734.72,252.264 1796.77,257.378 1858.82,262.458 1920.87,267.499 1982.92,272.496 2044.98,277.446 2107.03,282.345 2169.08,287.188 2231.13,291.973 2293.19,296.696 "/>
<polyline clip-path="url(#clip051)" style="stroke:#008000; stroke-linecap:round; stroke-linejoin:round; stroke-width:4; stroke-opacity:1; fill:none" points="307.515,135.51 369.567,140.19 431.619,144.94 493.672,149.758 555.724,154.641 617.776,159.585 679.828,164.589 741.88,169.648 803.933,174.762 865.985,179.926 928.037,185.14 990.089,190.4 1052.14,195.705 1114.19,201.052 1176.25,206.439 1238.3,211.866 1300.35,217.329 1362.4,222.827 1424.45,228.36 1486.51,233.924 1548.56,239.519 1610.61,245.144 1672.66,250.797 1734.72,256.477 1796.77,262.183 1858.82,267.915 1920.87,273.67 1982.92,279.449 2044.98,285.25 2107.03,291.072 2169.08,296.916 2231.13,302.78 2293.19,308.664 "/>
<polyline clip-path="url(#clip051)" style="stroke:#0000ff; stroke-linecap:round; stroke-linejoin:round; stroke-width:4; stroke-opacity:1; fill:none" points="307.515,135.513 369.567,140.195 431.619,144.947 493.672,149.768 555.724,154.654 617.776,159.603 679.828,164.611 741.88,169.677 803.933,174.798 865.985,179.972 928.037,185.197 990.089,190.471 1052.14,195.791 1114.19,201.157 1176.25,206.567 1238.3,212.019 1300.35,217.511 1362.4,223.044 1424.45,228.614 1486.51,234.222 1548.56,239.867 1610.61,245.547 1672.66,251.262 1734.72,257.011 1796.77,262.794 1858.82,268.61 1920.87,274.46 1982.92,280.341 2044.98,286.255 2107.03,292.202 2169.08,298.18 2231.13,304.191 2293.19,310.233 "/>
<polyline clip-path="url(#clip051)" style="stroke:#ff0000; stroke-linecap:round; stroke-linejoin:round; stroke-width:4; stroke-opacity:1; fill:none" points="307.515,269.154 369.567,280.734 431.619,292.466 493.672,304.343 555.724,316.356 617.776,328.499 679.828,340.764 741.88,353.148 803.933,365.643 865.985,378.246 928.037,390.953 990.089,403.761 1052.14,416.666 1114.19,429.667 1176.25,442.762 1238.3,455.95 1300.35,469.231 1362.4,482.603 1424.45,496.068 1486.51,509.626 1548.56,523.278 1610.61,537.026 1672.66,550.87 1734.72,564.812 1796.77,578.856 1858.82,593.002 1920.87,607.252 1982.92,621.611 2044.98,636.078 2107.03,650.659 2169.08,665.354 2231.13,680.167 2293.19,695.1 "/>
<polyline clip-path="url(#clip051)" style="stroke:#008000; stroke-linecap:round; stroke-linejoin:round; stroke-width:4; stroke-opacity:1; fill:none" points="307.515,268.937 369.567,280.428 431.619,292.041 493.672,303.763 555.724,315.576 617.776,327.464 679.828,339.41 741.88,351.397 803.933,363.406 865.985,375.418 928.037,387.413 990.089,399.372 1052.14,411.275 1114.19,423.102 1176.25,434.832 1238.3,446.447 1300.35,457.926 1362.4,469.253 1424.45,480.41 1486.51,491.381 1548.56,502.153 1610.61,512.715 1672.66,523.055 1734.72,533.167 1796.77,543.044 1858.82,552.685 1920.87,562.087 1982.92,571.252 2044.98,580.183 2107.03,588.885 2169.08,597.363 2231.13,605.625 2293.19,613.68 "/>
<polyline clip-path="url(#clip051)" style="stroke:#0000ff; stroke-linecap:round; stroke-linejoin:round; stroke-width:4; stroke-opacity:1; fill:none" points="307.515,268.998 369.567,280.514 431.619,292.162 493.672,303.928 555.724,315.799 617.776,327.761 679.828,339.8 741.88,351.902 803.933,364.053 865.985,376.238 928.037,388.442 990.089,400.65 1052.14,412.846 1114.19,425.015 1176.25,437.142 1238.3,449.212 1300.35,461.209 1362.4,473.12 1424.45,484.929 1486.51,496.623 1548.56,508.189 1610.61,519.616 1672.66,530.893 1734.72,542.011 1796.77,552.961 1858.82,563.737 1920.87,574.334 1982.92,584.748 2044.98,594.978 2107.03,605.024 2169.08,614.885 2231.13,624.566 2293.19,634.069 "/>
<polyline clip-path="url(#clip051)" style="stroke:#ff0000; stroke-linecap:round; stroke-linejoin:round; stroke-width:4; stroke-opacity:1; fill:none" points="307.515,269.458 369.567,281.052 431.619,292.798 493.672,304.687 555.724,316.713 617.776,328.869 679.828,341.147 741.88,353.543 803.933,366.051 865.985,378.666 928.037,391.384 990.089,404.203 1052.14,417.12 1114.19,430.131 1176.25,443.237 1238.3,456.434 1300.35,469.724 1362.4,483.106 1424.45,496.58 1486.51,510.147 1548.56,523.807 1610.61,537.562 1672.66,551.414 1734.72,565.364 1796.77,579.414 1858.82,593.567 1920.87,607.824 1982.92,622.188 2044.98,636.662 2107.03,651.247 2169.08,665.948 2231.13,680.766 2293.19,695.704 "/>
<polyline clip-path="url(#clip051)" style="stroke:#008000; stroke-linecap:round; stroke-linejoin:round; stroke-width:4; stroke-opacity:1; fill:none" points="307.515,269.398 369.567,280.967 431.619,292.681 493.672,304.53 555.724,316.503 617.776,328.593 679.828,340.79 741.88,353.085 803.933,365.47 865.985,377.939 928.037,390.483 990.089,403.096 1052.14,415.772 1114.19,428.505 1176.25,441.289 1238.3,454.12 1300.35,466.994 1362.4,479.906 1424.45,492.854 1486.51,505.833 1548.56,518.843 1610.61,531.881 1672.66,544.945 1734.72,558.035 1796.77,571.149 1858.82,584.288 1920.87,597.451 1982.92,610.64 2044.98,623.854 2107.03,637.094 2169.08,650.363 2231.13,663.662 2293.19,676.991 "/>
<polyline clip-path="url(#clip051)" style="stroke:#0000ff; stroke-linecap:round; stroke-linejoin:round; stroke-width:4; stroke-opacity:1; fill:none" points="307.515,269.303 369.567,280.833 431.619,292.494 493.672,304.274 555.724,316.158 617.776,328.133 679.828,340.186 741.88,352.301 803.933,364.465 865.985,376.662 928.037,388.878 990.089,401.097 1052.14,413.305 1114.19,425.485 1176.25,437.622 1238.3,449.702 1300.35,461.709 1362.4,473.628 1424.45,485.445 1486.51,497.146 1548.56,508.719 1610.61,520.152 1672.66,531.435 1734.72,542.557 1796.77,553.511 1858.82,564.29 1920.87,574.889 1982.92,585.305 2044.98,595.536 2107.03,605.581 2169.08,615.443 2231.13,625.122 2293.19,634.624 "/>
<polyline clip-path="url(#clip051)" style="stroke:#ff0000; stroke-linecap:round; stroke-linejoin:round; stroke-width:4; stroke-opacity:1; fill:none" points="307.515,440.478 369.567,460.223 431.619,480.062 493.672,499.953 555.724,519.856 617.776,539.728 679.828,559.527 741.88,579.213 803.933,598.744 865.985,618.086 928.037,637.205 990.089,656.072 1052.14,674.665 1114.19,692.968 1176.25,710.969 1238.3,728.667 1300.35,741.185 1362.4,750.214 1424.45,758.921 1486.51,767.391 1548.56,775.692 1610.61,783.882 1672.66,792.008 1734.72,800.113 1796.77,808.233 1858.82,816.399 1920.87,824.638 1982.92,832.973 2044.98,841.425 2107.03,850.012 2169.08,858.75 2231.13,867.653 2293.19,876.735 "/>
<polyline clip-path="url(#clip051)" style="stroke:#008000; stroke-linecap:round; stroke-linejoin:round; stroke-width:4; stroke-opacity:1; fill:none" points="307.515,440.835 369.567,460.586 431.619,480.414 493.672,500.267 555.724,520.088 617.776,539.813 679.828,559.371 741.88,578.68 803.933,597.656 865.985,616.207 928.037,634.242 990.089,651.675 1052.14,668.435 1114.19,684.468 1176.25,699.751 1238.3,714.285 1300.35,728.098 1362.4,741.236 1424.45,753.76 1486.51,765.74 1548.56,777.243 1610.61,788.34 1672.66,799.093 1734.72,809.56 1796.77,819.795 1858.82,829.842 1920.87,839.744 1982.92,849.535 2044.98,859.248 2107.03,868.908 2169.08,878.54 2231.13,888.164 2293.19,897.799 "/>
<polyline clip-path="url(#clip051)" style="stroke:#0000ff; stroke-linecap:round; stroke-linejoin:round; stroke-width:4; stroke-opacity:1; fill:none" points="307.515,440.896 369.567,460.805 431.619,480.854 493.672,501.011 555.724,521.241 617.776,541.506 679.828,561.768 741.88,581.983 803.933,602.106 865.985,622.086 928.037,641.871 990.089,661.406 1052.14,680.637 1114.19,699.51 1176.25,717.98 1238.3,736.01 1300.35,753.58 1362.4,770.688 1424.45,787.35 1486.51,803.601 1548.56,819.494 1610.61,835.091 1672.66,850.462 1734.72,865.678 1796.77,880.809 1858.82,895.92 1920.87,911.072 1982.92,926.316 2044.98,941.698 2107.03,957.257 2169.08,973.026 2231.13,989.032 2293.19,1005.3 "/>
<polyline clip-path="url(#clip051)" style="stroke:#ff0000; stroke-linecap:round; stroke-linejoin:round; stroke-width:4; stroke-opacity:1; fill:none" points="307.515,440.802 369.567,460.561 431.619,480.412 493.672,500.317 555.724,520.232 617.776,540.116 679.828,559.926 741.88,579.622 803.933,599.163 865.985,618.513 928.037,637.64 990.089,656.513 1052.14,675.111 1114.19,693.416 1176.25,711.416 1238.3,729.079 1300.35,746.062 1362.4,763.165 1424.45,779.987 1486.51,796.548 1548.56,812.866 1610.61,828.966 1672.66,844.871 1734.72,860.607 1796.77,876.198 1858.82,891.669 1920.87,907.043 1982.92,922.344 2044.98,937.593 2107.03,952.809 2169.08,968.012 2231.13,983.219 2293.19,998.446 "/>
<polyline clip-path="url(#clip051)" style="stroke:#008000; stroke-linecap:round; stroke-linejoin:round; stroke-width:4; stroke-opacity:1; fill:none" points="307.515,441.191 369.567,461.235 431.619,481.471 493.672,501.881 555.724,522.45 617.776,543.163 679.828,564.009 741.88,584.979 803.933,606.064 865.985,627.258 928.037,648.558 990.089,669.962 1052.14,691.468 1114.19,713.08 1176.25,734.798 1238.3,756.626 1300.35,778.571 1362.4,800.637 1424.45,822.83 1486.51,845.159 1548.56,867.631 1610.61,890.253 1672.66,913.033 1734.72,935.981 1796.77,959.104 1858.82,982.411 1920.87,1005.91 1982.92,1029.61 2044.98,1053.51 2107.03,1075.3 2169.08,1093.89 2231.13,1113.05 2293.19,1132.79 "/>
<polyline clip-path="url(#clip051)" style="stroke:#0000ff; stroke-linecap:round; stroke-linejoin:round; stroke-width:4; stroke-opacity:1; fill:none" points="307.515,441.217 369.567,461.138 431.619,481.199 493.672,501.367 555.724,521.607 617.776,541.882 679.828,562.152 741.88,582.375 803.933,602.503 865.985,622.488 928.037,642.276 990.089,661.812 1052.14,681.041 1114.19,699.91 1176.25,718.374 1238.3,736.396 1300.35,753.956 1362.4,771.052 1424.45,787.7 1486.51,803.937 1548.56,819.816 1610.61,835.399 1672.66,850.756 1734.72,865.96 1796.77,881.079 1858.82,896.181 1920.87,911.324 1982.92,926.56 2044.98,941.937 2107.03,957.491 2169.08,973.257 2231.13,989.26 2293.19,1005.52 "/>
<polyline clip-path="url(#clip051)" style="stroke:#ff0000; stroke-linecap:round; stroke-linejoin:round; stroke-width:4; stroke-opacity:1; fill:none" points="307.515,493.526 369.567,514.541 431.619,535.263 493.672,555.561 555.724,575.294 617.776,594.321 679.828,612.506 741.88,629.733 803.933,645.92 865.985,661.028 928.037,675.063 990.089,688.074 1052.14,700.146 1114.19,711.383 1176.25,721.904 1238.3,731.85 1300.35,746.553 1362.4,763.641 1424.45,780.46 1486.51,797.017 1548.56,813.334 1610.61,829.431 1672.66,845.333 1734.72,861.065 1796.77,876.653 1858.82,892.12 1920.87,907.491 1982.92,922.789 2044.98,938.034 2107.03,953.246 2169.08,968.446 2231.13,983.649 2293.19,998.872 "/>
<polyline clip-path="url(#clip051)" style="stroke:#008000; stroke-linecap:round; stroke-linejoin:round; stroke-width:4; stroke-opacity:1; fill:none" points="307.515,495.117 369.567,516.892 431.619,538.67 493.672,560.407 555.724,582.06 617.776,603.594 679.828,624.982 741.88,646.207 803.933,667.269 865.985,688.186 928.037,708.991 990.089,729.736 1052.14,750.48 1114.19,771.285 1176.25,792.209 1238.3,813.298 1300.35,834.585 1362.4,856.091 1424.45,877.827 1486.51,899.794 1548.56,921.992 1610.61,944.417 1672.66,961.602 1734.72,976.096 1796.77,991.165 1858.82,1006.82 1920.87,1023.06 1982.92,1039.89 2044.98,1057.31 2107.03,1077.64 2169.08,1101.98 2231.13,1126.56 2293.19,1151.37 "/>
<polyline clip-path="url(#clip051)" style="stroke:#0000ff; stroke-linecap:round; stroke-linejoin:round; stroke-width:4; stroke-opacity:1; fill:none" points="307.515,495.311 369.567,517.173 431.619,539.067 493.672,560.952 555.724,582.788 617.776,604.537 679.828,626.163 741.88,647.628 803.933,668.902 865.985,689.952 928.037,710.753 990.089,731.28 1052.14,751.515 1114.19,771.445 1176.25,791.064 1238.3,810.371 1300.35,829.376 1362.4,848.09 1424.45,866.536 1486.51,884.738 1548.56,902.726 1610.61,920.533 1672.66,938.192 1734.72,955.737 1796.77,973.202 1858.82,990.62 1920.87,1008.02 1982.92,1025.43 2044.98,1042.88 2107.03,1060.39 2169.08,1077.99 2231.13,1095.69 2293.19,1113.51 "/>
<polyline clip-path="url(#clip051)" style="stroke:#ff0000; stroke-linecap:round; stroke-linejoin:round; stroke-width:4; stroke-opacity:1; fill:none" points="307.515,641.791 369.567,668.802 431.619,694.955 493.672,719.942 555.724,743.462 617.776,765.282 679.828,785.29 741.88,803.526 803.933,820.155 865.985,835.422 928.037,849.589 990.089,862.904 1052.14,875.578 1114.19,887.781 1176.25,899.649 1238.3,911.289 1300.35,922.784 1362.4,934.197 1424.45,945.579 1486.51,956.97 1548.56,968.402 1610.61,979.899 1672.66,991.483 1734.72,1003.17 1796.77,1014.98 1858.82,1026.91 1920.87,1038.98 1982.92,1051.2 2044.98,1063.57 2107.03,1076.1 2169.08,1088.79 2231.13,1101.65 2293.19,1114.68 "/>
<polyline clip-path="url(#clip051)" style="stroke:#008000; stroke-linecap:round; stroke-linejoin:round; stroke-width:4; stroke-opacity:1; fill:none" points="307.515,641.739 369.567,669.461 431.619,696.679 493.672,723.173 555.724,748.708 617.776,773.065 679.828,787.325 741.88,797.477 803.933,806.994 865.985,816.291 928.037,825.568 990.089,834.948 1052.14,844.522 1114.19,854.357 1176.25,864.51 1238.3,875.027 1300.35,885.948 1362.4,897.308 1424.45,909.135 1486.51,921.457 1548.56,934.297 1610.61,947.673 1672.66,967.063 1734.72,989.928 1796.77,1013.01 1858.82,1036.3 1920.87,1059.81 1982.92,1083.53 2044.98,1107.46 2107.03,1131.61 2169.08,1155.99 2231.13,1180.59 2293.19,1205.42 "/>
<polyline clip-path="url(#clip051)" style="stroke:#0000ff; stroke-linecap:round; stroke-linejoin:round; stroke-width:4; stroke-opacity:1; fill:none" points="307.515,641.465 369.567,669.145 431.619,696.384 493.672,723.034 555.724,748.961 617.776,774.064 679.828,798.29 741.88,819.703 803.933,830.878 865.985,842.223 928.037,853.914 990.089,866.1 1052.14,878.91 1114.19,892.457 1176.25,906.836 1238.3,922.127 1300.35,938.388 1362.4,955.658 1424.45,973.953 1486.51,993.266 1548.56,1013.57 1610.61,1034.84 1672.66,1057.02 1734.72,1080.06 1796.77,1103.92 1858.82,1128.54 1920.87,1153.89 1982.92,1179.92 2044.98,1206.61 2107.03,1233.92 2169.08,1261.83 2231.13,1290.33 2293.19,1319.38 "/>
<polyline clip-path="url(#clip051)" style="stroke:#ff0000; stroke-linecap:round; stroke-linejoin:round; stroke-width:4; stroke-opacity:1; fill:none" points="307.515,645.53 369.567,675.035 431.619,704.729 493.672,734.599 555.724,764.636 617.776,794.836 679.828,825.2 741.88,855.734 803.933,886.438 865.985,910.47 928.037,930.693 990.089,952.526 1052.14,975.905 1114.19,1000.73 1176.25,1026.91 1238.3,1054.33 1300.35,1082.88 1362.4,1112.49 1424.45,1143.07 1486.51,1174.56 1548.56,1206.9 1610.61,1240.04 1672.66,1273.95 1734.72,1308.59 1796.77,1343.93 1858.82,1379.95 1920.87,1416.64 1982.92,1453.98 2044.98,1491.95 2107.03,1530.56 2169.08,1569.78 2231.13,1609.62 2293.19,1650.08 "/>
<polyline clip-path="url(#clip051)" style="stroke:#008000; stroke-linecap:round; stroke-linejoin:round; stroke-width:4; stroke-opacity:1; fill:none" points="307.515,644.741 369.567,673.357 431.619,701.77 493.672,729.661 555.724,755.778 617.776,775.109 679.828,796.085 741.88,817.719 803.933,838.036 865.985,857.199 928.037,875.424 990.089,892.93 1052.14,909.918 1114.19,926.559 1176.25,942.991 1238.3,959.328 1300.35,975.659 1362.4,992.054 1424.45,1008.57 1486.51,1025.26 1548.56,1042.16 1610.61,1059.29 1672.66,1076.69 1734.72,1094.37 1796.77,1112.36 1858.82,1130.67 1920.87,1149.3 1982.92,1168.28 2044.98,1187.62 2107.03,1207.31 2169.08,1227.36 2231.13,1247.79 2293.19,1268.6 "/>
<polyline clip-path="url(#clip051)" style="stroke:#0000ff; stroke-linecap:round; stroke-linejoin:round; stroke-width:4; stroke-opacity:1; fill:none" points="307.515,645.14 369.567,674.015 431.619,702.883 493.672,731.694 555.724,760.409 617.776,788.993 679.828,808.477 741.88,819.832 803.933,831.021 865.985,842.348 928.037,854.025 990.089,866.201 1052.14,879.005 1114.19,892.549 1176.25,906.928 1238.3,922.222 1300.35,938.49 1362.4,955.768 1424.45,974.073 1486.51,993.397 1548.56,1013.72 1610.61,1034.99 1672.66,1057.18 1734.72,1080.24 1796.77,1104.1 1858.82,1128.74 1920.87,1154.09 1982.92,1180.13 2044.98,1206.83 2107.03,1234.14 2169.08,1262.06 2231.13,1290.56 2293.19,1319.62 "/>
<polyline clip-path="url(#clip051)" style="stroke:#ff0000; stroke-linecap:round; stroke-linejoin:round; stroke-width:4; stroke-opacity:1; fill:none" points="307.515,737.205 369.567,766.842 431.619,796.07 493.672,822.325 555.724,833.526 617.776,845.946 679.828,859.739 741.88,875.039 803.933,891.954 865.985,917.389 928.037,948.505 990.089,979.859 1052.14,1011.46 1114.19,1043.33 1176.25,1075.5 1238.3,1107.97 1300.35,1140.77 1362.4,1173.92 1424.45,1201.98 1486.51,1229.71 1548.56,1258.37 1610.61,1287.97 1672.66,1318.47 1734.72,1349.85 1796.77,1382.1 1858.82,1415.19 1920.87,1449.11 1982.92,1483.84 2044.98,1519.35 2107.03,1555.64 2169.08,1592.68 2231.13,1630.47 2293.19,1668.99 "/>
<polyline clip-path="url(#clip051)" style="stroke:#008000; stroke-linecap:round; stroke-linejoin:round; stroke-width:4; stroke-opacity:1; fill:none" points="307.515,711.425 369.567,729.741 431.619,745.506 493.672,759.501 555.724,773.497 617.776,792.95 679.828,818.531 741.88,845.443 803.933,872.443 865.985,899.264 928.037,925.826 990.089,946.332 1052.14,964.086 1114.19,982.857 1176.25,1002.6 1238.3,1023.24 1300.35,1044.71 1362.4,1066.94 1424.45,1089.85 1486.51,1113.36 1548.56,1137.41 1610.61,1161.95 1672.66,1186.94 1734.72,1212.34 1796.77,1238.13 1858.82,1264.29 1920.87,1290.83 1982.92,1317.72 2044.98,1344.98 2107.03,1372.62 2169.08,1400.63 2231.13,1429.03 2293.19,1457.82 "/>
<polyline clip-path="url(#clip051)" style="stroke:#0000ff; stroke-linecap:round; stroke-linejoin:round; stroke-width:4; stroke-opacity:1; fill:none" points="307.515,718.019 369.567,738.386 431.619,755.977 493.672,771.202 555.724,784.655 617.776,796.92 679.828,808.695 741.88,821.714 803.933,844.255 865.985,866.169 928.037,887.579 990.089,908.653 1052.14,929.56 1114.19,950.455 1176.25,971.471 1238.3,992.723 1300.35,1014.3 1362.4,1036.28 1424.45,1058.71 1486.51,1081.62 1548.56,1105.05 1610.61,1129.01 1672.66,1153.51 1734.72,1178.55 1796.77,1204.13 1858.82,1230.24 1920.87,1256.88 1982.92,1284.05 2044.98,1311.74 2107.03,1339.95 2169.08,1368.66 2231.13,1397.88 2293.19,1427.61 "/>
<polyline clip-path="url(#clip051)" style="stroke:#ff0000; stroke-linecap:round; stroke-linejoin:round; stroke-width:4; stroke-opacity:1; fill:none" points="307.515,737.956 369.567,767.582 431.619,796.793 493.672,824.903 555.724,853.376 617.776,881.545 679.828,909.474 741.88,937.237 803.933,964.911 865.985,992.562 928.037,1015.06 990.089,1035.1 1052.14,1056.05 1114.19,1077.94 1176.25,1100.79 1238.3,1124.62 1300.35,1149.44 1362.4,1175.23 1424.45,1201.99 1486.51,1229.72 1548.56,1258.39 1610.61,1287.98 1672.66,1318.48 1734.72,1349.87 1796.77,1382.12 1858.82,1415.21 1920.87,1449.13 1982.92,1483.86 2044.98,1519.37 2107.03,1555.66 2169.08,1592.7 2231.13,1630.49 2293.19,1669.01 "/>
<polyline clip-path="url(#clip051)" style="stroke:#008000; stroke-linecap:round; stroke-linejoin:round; stroke-width:4; stroke-opacity:1; fill:none" points="307.515,732.403 369.567,759.691 431.619,786.085 493.672,811.76 555.724,837.019 617.776,861.102 679.828,872.966 741.88,885.682 803.933,899.326 865.985,913.959 928.037,929.621 990.089,952.113 1052.14,978.135 1114.19,1003.92 1176.25,1029.5 1238.3,1054.93 1300.35,1080.25 1362.4,1105.51 1424.45,1130.76 1486.51,1156.05 1548.56,1181.4 1610.61,1206.88 1672.66,1232.51 1734.72,1258.32 1796.77,1284.35 1858.82,1310.63 1920.87,1337.17 1982.92,1364 2044.98,1391.14 2107.03,1418.6 2169.08,1446.41 2231.13,1474.57 2293.19,1503.1 "/>
<polyline clip-path="url(#clip051)" style="stroke:#0000ff; stroke-linecap:round; stroke-linejoin:round; stroke-width:4; stroke-opacity:1; fill:none" points="307.515,718.632 369.567,738.922 431.619,756.429 493.672,771.577 555.724,784.963 617.776,797.174 679.828,817.427 741.88,845.691 803.933,873.784 865.985,901.711 928.037,929.485 990.089,957.126 1052.14,984.661 1114.19,1012.12 1176.25,1039.54 1238.3,1066.95 1300.35,1094.38 1362.4,1121.88 1424.45,1149.48 1486.51,1177.2 1548.56,1205.08 1610.61,1233.15 1672.66,1261.43 1734.72,1289.95 1796.77,1318.72 1858.82,1347.78 1920.87,1377.13 1982.92,1406.8 2044.98,1436.79 2107.03,1467.13 2169.08,1497.83 2231.13,1528.89 2293.19,1560.33 "/>
<polyline clip-path="url(#clip051)" style="stroke:#ff0000; stroke-linecap:round; stroke-linejoin:round; stroke-width:4; stroke-opacity:1; fill:none" points="307.515,794.29 369.567,802.889 431.619,812.172 493.672,825.604 555.724,854.052 617.776,882.191 679.828,910.09 741.88,937.822 803.933,965.466 865.985,993.098 928.037,1015.14 990.089,1035.15 1052.14,1056.09 1114.19,1077.96 1176.25,1100.81 1238.3,1124.63 1300.35,1149.44 1362.4,1175.23 1424.45,1207.44 1486.51,1241.34 1548.56,1275.65 1610.61,1310.37 1672.66,1345.53 1734.72,1381.14 1796.77,1417.2 1858.82,1453.75 1920.87,1490.77 1982.92,1528.3 2044.98,1566.33 2107.03,1604.87 2169.08,1643.95 2231.13,1683.55 2293.19,1723.7 "/>
<polyline clip-path="url(#clip051)" style="stroke:#008000; stroke-linecap:round; stroke-linejoin:round; stroke-width:4; stroke-opacity:1; fill:none" points="307.515,810.945 369.567,820.205 431.619,829.68 493.672,839.566 555.724,850.002 617.776,862.238 679.828,887.788 741.88,913.95 803.933,940.88 865.985,968.617 928.037,997.128 990.089,1026.35 1052.14,1056.21 1114.19,1086.66 1176.25,1117.66 1238.3,1149.19 1300.35,1181.24 1362.4,1213.8 1424.45,1244.74 1486.51,1272.01 1548.56,1300.25 1610.61,1329.49 1672.66,1359.74 1734.72,1390.99 1796.77,1423.24 1858.82,1456.49 1920.87,1490.71 1982.92,1525.9 2044.98,1562.03 2107.03,1599.1 2169.08,1637.08 2231.13,1675.95 2293.19,1715.7 "/>
<polyline clip-path="url(#clip051)" style="stroke:#0000ff; stroke-linecap:round; stroke-linejoin:round; stroke-width:4; stroke-opacity:1; fill:none" points="307.515,838.633 369.567,857.404 431.619,877.334 493.672,898.339 555.724,919.893 617.776,941.53 679.828,962.985 741.88,984.178 803.933,1005.14 865.985,1025.97 928.037,1046.75 990.089,1067.58 1052.14,1088.55 1114.19,1109.72 1176.25,1131.13 1238.3,1152.85 1300.35,1174.9 1362.4,1197.31 1424.45,1220.11 1486.51,1243.32 1548.56,1266.94 1610.61,1291 1672.66,1315.5 1734.72,1340.46 1796.77,1365.88 1858.82,1391.76 1920.87,1418.13 1982.92,1444.97 2044.98,1472.29 2107.03,1500.1 2169.08,1528.39 2231.13,1557.18 2293.19,1586.47 "/>
<polyline clip-path="url(#clip051)" style="stroke:#ff0000; stroke-linecap:round; stroke-linejoin:round; stroke-width:4; stroke-opacity:1; fill:none" points="307.515,844.66 369.567,863.421 431.619,879.834 493.672,895.485 555.724,911.055 617.776,926.882 679.828,943.165 741.88,960.038 803.933,977.601 865.985,995.941 928.037,1020.32 990.089,1048.17 1052.14,1076.22 1114.19,1104.52 1176.25,1133.13 1238.3,1162.08 1300.35,1191.42 1362.4,1221.18 1424.45,1251.39 1486.51,1282.08 1548.56,1313.28 1610.61,1344.99 1672.66,1377.24 1734.72,1410.05 1796.77,1443.42 1858.82,1477.37 1920.87,1511.92 1982.92,1547.05 2044.98,1582.8 2107.03,1619.15 2169.08,1656.12 2231.13,1693.72 2293.19,1731.94 "/>
<polyline clip-path="url(#clip051)" style="stroke:#008000; stroke-linecap:round; stroke-linejoin:round; stroke-width:4; stroke-opacity:1; fill:none" points="307.515,850.135 369.567,876.093 431.619,899.427 493.672,920.814 555.724,940.959 617.776,960.422 679.828,979.603 741.88,998.782 803.933,1018.16 865.985,1037.88 928.037,1058.06 990.089,1078.79 1052.14,1100.15 1114.19,1122.2 1176.25,1145.01 1238.3,1168.62 1300.35,1193.09 1362.4,1218.46 1424.45,1246.9 1486.51,1280.5 1548.56,1314.64 1610.61,1349.32 1672.66,1384.57 1734.72,1420.38 1796.77,1456.78 1858.82,1493.77 1920.87,1531.37 1982.92,1569.58 2044.98,1608.41 2107.03,1647.87 2169.08,1687.98 2231.13,1728.73 2293.19,1770.14 "/>
<polyline clip-path="url(#clip051)" style="stroke:#0000ff; stroke-linecap:round; stroke-linejoin:round; stroke-width:4; stroke-opacity:1; fill:none" points="307.515,838.817 369.567,857.611 431.619,877.593 493.672,898.64 555.724,920.221 617.776,941.869 679.828,963.324 741.88,984.51 803.933,1005.47 865.985,1026.28 928.037,1047.05 990.089,1067.88 1052.14,1088.83 1114.19,1109.99 1176.25,1131.41 1238.3,1153.12 1300.35,1175.17 1362.4,1197.58 1424.45,1220.37 1486.51,1243.57 1548.56,1267.2 1610.61,1291.26 1672.66,1315.76 1734.72,1340.72 1796.77,1366.14 1858.82,1392.02 1920.87,1418.39 1982.92,1445.23 2044.98,1472.55 2107.03,1500.36 2169.08,1528.66 2231.13,1557.46 2293.19,1586.74 "/>
<polyline clip-path="url(#clip051)" style="stroke:#ff0000; stroke-linecap:round; stroke-linejoin:round; stroke-width:4; stroke-opacity:1; fill:none" points="307.515,845.51 369.567,863.997 431.619,880.246 493.672,895.796 555.724,911.299 617.776,927.076 679.828,943.321 741.88,960.163 803.933,977.699 865.985,996.005 928.037,1020.79 990.089,1048.62 1052.14,1076.64 1114.19,1104.92 1176.25,1133.5 1238.3,1162.43 1300.35,1191.74 1362.4,1221.48 1424.45,1251.67 1486.51,1282.34 1548.56,1313.52 1610.61,1345.22 1672.66,1377.45 1734.72,1410.25 1796.77,1443.61 1858.82,1477.55 1920.87,1512.07 1982.92,1547.2 2044.98,1582.93 2107.03,1619.28 2169.08,1656.24 2231.13,1693.83 2293.19,1732.05 "/>
<polyline clip-path="url(#clip051)" style="stroke:#008000; stroke-linecap:round; stroke-linejoin:round; stroke-width:4; stroke-opacity:1; fill:none" points="307.515,864.896 369.567,888.017 431.619,913.949 493.672,942.024 555.724,971.45 617.776,1001.51 679.828,1031.66 741.88,1061.58 803.933,1091.2 865.985,1120.62 928.037,1150.01 990.089,1179.58 1052.14,1209.48 1114.19,1239.84 1176.25,1270.73 1238.3,1302.23 1300.35,1334.36 1362.4,1367.13 1424.45,1400.56 1486.51,1434.66 1548.56,1469.42 1610.61,1504.84 1672.66,1540.92 1734.72,1577.66 1796.77,1615.05 1858.82,1653.09 1920.87,1691.79 1982.92,1731.14 2044.98,1771.14 2107.03,1811.8 2169.08,1853.11 2231.13,1895.08 2293.19,1937.71 "/>
<polyline clip-path="url(#clip051)" style="stroke:#0000ff; stroke-linecap:round; stroke-linejoin:round; stroke-width:4; stroke-opacity:1; fill:none" points="307.515,866.701 369.567,898.9 431.619,919.598 493.672,938.998 555.724,959.947 617.776,982.63 679.828,1007.17 741.88,1033.63 803.933,1061.99 865.985,1092.19 928.037,1124.14 990.089,1157.71 1052.14,1192.8 1114.19,1229.3 1176.25,1267.11 1238.3,1306.15 1300.35,1346.37 1362.4,1387.72 1424.45,1430.14 1486.51,1473.61 1548.56,1518.11 1610.61,1563.61 1672.66,1610.1 1734.72,1657.57 1796.77,1706.01 1858.82,1755.42 1920.87,1805.78 1982.92,1857.1 2044.98,1909.38 2107.03,1962.61 2169.08,2016.8 2231.13,2071.94 2293.19,2128.03 "/>
<polyline clip-path="url(#clip051)" style="stroke:#ff0000; stroke-linecap:round; stroke-linejoin:round; stroke-width:4; stroke-opacity:1; fill:none" points="307.515,865.347 369.567,878.159 431.619,892.538 493.672,908.799 555.724,927.246 617.776,948.118 679.828,971.534 741.88,997.461 803.933,1025.74 865.985,1056.14 928.037,1088.41 990.089,1122.3 1052.14,1157.63 1114.19,1194.22 1176.25,1231.97 1238.3,1270.76 1300.35,1310.53 1362.4,1351.23 1424.45,1392.82 1486.51,1435.26 1548.56,1478.55 1610.61,1522.66 1672.66,1567.58 1734.72,1613.31 1796.77,1659.84 1858.82,1707.18 1920.87,1755.31 1982.92,1804.25 2044.98,1853.99 2107.03,1904.53 2169.08,1955.88 2231.13,2008.04 2293.19,2061.02 "/>
<polyline clip-path="url(#clip051)" style="stroke:#008000; stroke-linecap:round; stroke-linejoin:round; stroke-width:4; stroke-opacity:1; fill:none" points="307.515,869.246 369.567,905.024 431.619,939.748 493.672,973.137 555.724,1005.1 617.776,1035.74 679.828,1065.36 741.88,1094.3 803.933,1122.9 865.985,1151.41 928.037,1180.02 990.089,1208.89 1052.14,1238.11 1114.19,1267.77 1176.25,1297.93 1238.3,1328.61 1300.35,1359.87 1362.4,1391.72 1424.45,1424.19 1486.51,1457.28 1548.56,1491.01 1610.61,1525.4 1672.66,1560.44 1734.72,1596.15 1796.77,1632.52 1858.82,1669.58 1920.87,1707.31 1982.92,1745.72 2044.98,1784.82 2107.03,1824.6 2169.08,1865.07 2231.13,1906.24 2293.19,1948.1 "/>
<polyline clip-path="url(#clip051)" style="stroke:#0000ff; stroke-linecap:round; stroke-linejoin:round; stroke-width:4; stroke-opacity:1; fill:none" points="307.515,867.771 369.567,899.937 431.619,930.742 493.672,962.203 555.724,993.701 617.776,1025.66 679.828,1058.34 741.88,1091.87 803.933,1126.28 865.985,1161.55 928.037,1197.64 990.089,1234.54 1052.14,1272.22 1114.19,1310.68 1176.25,1349.93 1238.3,1389.97 1300.35,1430.82 1362.4,1472.49 1424.45,1515 1486.51,1558.36 1548.56,1602.58 1610.61,1647.69 1672.66,1693.68 1734.72,1740.58 1796.77,1788.39 1858.82,1837.12 1920.87,1886.77 1982.92,1937.36 2044.98,1988.9 2107.03,2041.37 2169.08,2094.81 2231.13,2149.19 2293.19,2204.54 "/>
<polyline clip-path="url(#clip051)" style="stroke:#ff0000; stroke-linecap:round; stroke-linejoin:round; stroke-width:4; stroke-opacity:1; fill:none" points="307.515,885.822 369.567,918.486 431.619,953.112 493.672,988.351 555.724,1023.73 617.776,1059.09 679.828,1094.42 741.88,1129.76 803.933,1165.17 865.985,1200.74 928.037,1236.53 990.089,1272.63 1052.14,1309.1 1114.19,1346 1176.25,1383.39 1238.3,1421.31 1300.35,1459.81 1362.4,1498.92 1424.45,1538.68 1486.51,1579.12 1548.56,1620.25 1610.61,1662.11 1672.66,1704.72 1734.72,1748.08 1796.77,1792.23 1858.82,1837.16 1920.87,1882.9 1982.92,1929.45 2044.98,1976.82 2107.03,2025.03 2169.08,2074.09 2231.13,2123.99 2293.19,2174.75 "/>
<polyline clip-path="url(#clip051)" style="stroke:#008000; stroke-linecap:round; stroke-linejoin:round; stroke-width:4; stroke-opacity:1; fill:none" points="307.515,921.858 369.567,943.006 431.619,966.386 493.672,992.069 555.724,1020.03 617.776,1050.15 679.828,1082.3 741.88,1116.29 803.933,1151.99 865.985,1189.26 928.037,1227.99 990.089,1268.1 1052.14,1309.52 1114.19,1352.2 1176.25,1396.09 1238.3,1441.17 1300.35,1487.39 1362.4,1534.74 1424.45,1583.2 1486.51,1632.75 1548.56,1683.39 1610.61,1735.09 1672.66,1787.86 1734.72,1841.68 1796.77,1896.55 1858.82,1952.46 1920.87,2009.42 1982.92,2067.41 2044.98,2126.44 2107.03,2186.52 2169.08,2247.62 2231.13,2309.77 2293.19,2372.96 "/>
<polyline clip-path="url(#clip051)" style="stroke:#0000ff; stroke-linecap:round; stroke-linejoin:round; stroke-width:4; stroke-opacity:1; fill:none" points="307.515,884.41 369.567,901.51 431.619,931.723 493.672,963.118 555.724,994.56 617.776,1026.47 679.828,1059.12 741.88,1092.63 803.933,1127.01 865.985,1162.25 928.037,1198.32 990.089,1235.19 1052.14,1272.85 1114.19,1311.28 1176.25,1350.5 1238.3,1390.52 1300.35,1431.35 1362.4,1472.99 1424.45,1515.48 1486.51,1558.82 1548.56,1603.02 1610.61,1648.11 1672.66,1694.08 1734.72,1740.96 1796.77,1788.75 1858.82,1837.47 1920.87,1887.11 1982.92,1937.69 2044.98,1989.2 2107.03,2041.67 2169.08,2095.09 2231.13,2149.46 2293.19,2204.8 "/>
<polyline clip-path="url(#clip051)" style="stroke:#ff0000; stroke-linecap:round; stroke-linejoin:round; stroke-width:4; stroke-opacity:1; fill:none" points="307.515,886.093 369.567,918.989 431.619,953.74 493.672,989.038 555.724,1024.44 617.776,1059.81 679.828,1095.14 741.88,1130.47 803.933,1165.88 865.985,1201.44 928.037,1237.23 990.089,1273.32 1052.14,1309.78 1114.19,1346.67 1176.25,1384.05 1238.3,1421.97 1300.35,1460.46 1362.4,1499.57 1424.45,1539.33 1486.51,1579.77 1548.56,1620.9 1610.61,1662.76 1672.66,1705.37 1734.72,1748.74 1796.77,1792.88 1858.82,1837.82 1920.87,1883.55 1982.92,1930.11 2044.98,1977.49 2107.03,2025.7 2169.08,2074.75 2231.13,2124.66 2293.19,2175.42 "/>
<polyline clip-path="url(#clip051)" style="stroke:#008000; stroke-linecap:round; stroke-linejoin:round; stroke-width:4; stroke-opacity:1; fill:none" points="307.515,944.03 369.567,974.333 431.619,1006.47 493.672,1040.01 555.724,1068.34 617.776,1096.03 679.828,1126.14 741.88,1158.78 803.933,1193.86 865.985,1231.2 928.037,1270.52 990.089,1311.58 1052.14,1354.17 1114.19,1398.13 1176.25,1443.33 1238.3,1489.7 1300.35,1537.16 1362.4,1585.67 1424.45,1635.2 1486.51,1683.57 1548.56,1732.13 1610.61,1781.78 1672.66,1832.53 1734.72,1884.38 1796.77,1937.33 1858.82,1991.37 1920.87,2046.51 1982.92,2102.75 2044.98,2160.08 2107.03,2218.51 2169.08,2278.02 2231.13,2338.64 2293.19,2400.34 "/>
<polyline clip-path="url(#clip051)" style="stroke:#0000ff; stroke-linecap:round; stroke-linejoin:round; stroke-width:4; stroke-opacity:1; fill:none" points="307.515,978.351 369.567,1010.48 431.619,1044.23 493.672,1080.08 555.724,1118 617.776,1157.75 679.828,1194.52 741.88,1225.48 803.933,1257.64 865.985,1291.03 928.037,1325.64 990.089,1361.44 1052.14,1398.42 1114.19,1436.56 1176.25,1475.84 1238.3,1516.22 1300.35,1557.69 1362.4,1600.23 1424.45,1643.81 1486.51,1688.41 1548.56,1734.02 1610.61,1780.62 1672.66,1828.2 1734.72,1876.75 1796.77,1926.25 1858.82,1976.71 1920.87,2028.11 1982.92,2080.45 2044.98,2133.74 2107.03,2187.96 2169.08,2243.11 2231.13,2299.2 2293.19,2356.23 "/>
<polyline clip-path="url(#clip051)" style="stroke:#ff0000; stroke-linecap:round; stroke-linejoin:round; stroke-width:4; stroke-opacity:1; fill:none" points="307.515,1025.2 369.567,1051.43 431.619,1078.12 493.672,1105.43 555.724,1133.46 617.776,1162.23 679.828,1191.78 741.88,1222.1 803.933,1253.21 865.985,1285.11 928.037,1317.79 990.089,1351.25 1052.14,1385.51 1114.19,1420.56 1176.25,1456.4 1238.3,1493.04 1300.35,1530.49 1362.4,1568.74 1424.45,1607.8 1486.51,1647.68 1548.56,1688.39 1610.61,1729.92 1672.66,1772.28 1734.72,1815.48 1796.77,1859.52 1858.82,1903.43 1920.87,1947.87 1982.92,1993.21 2044.98,2039.44 2107.03,2086.58 2169.08,2134.62 2231.13,2183.57 2293.19,2233.43 "/>
<polyline clip-path="url(#clip051)" style="stroke:#008000; stroke-linecap:round; stroke-linejoin:round; stroke-width:4; stroke-opacity:1; fill:none" points="307.515,949.252 369.567,979.569 431.619,1010.36 493.672,1042.15 555.724,1074.48 617.776,1109.61 679.828,1145.29 741.88,1181.53 803.933,1218.4 865.985,1255.98 928.037,1294.35 990.089,1333.59 1052.14,1373.76 1114.19,1414.89 1176.25,1457.03 1238.3,1500.2 1300.35,1544.43 1362.4,1589.73 1424.45,1636.11 1486.51,1685.72 1548.56,1737.24 1610.61,1789.72 1672.66,1843.17 1734.72,1897.58 1796.77,1952.96 1858.82,2009.3 1920.87,2066.61 1982.92,2124.87 2044.98,2184.08 2107.03,2244.18 2169.08,2304.86 2231.13,2366.01 2293.19,2428.04 "/>
<polyline clip-path="url(#clip051)" style="stroke:#0000ff; stroke-linecap:round; stroke-linejoin:round; stroke-width:4; stroke-opacity:1; fill:none" points="307.515,978.82 369.567,1011.02 431.619,1044.85 493.672,1080.78 555.724,1118.78 617.776,1158.57 679.828,1198.79 741.88,1238.7 803.933,1276.22 865.985,1313.99 928.037,1352.43 990.089,1391.63 1052.14,1431.6 1114.19,1472.36 1176.25,1513.91 1238.3,1556.26 1300.35,1599.42 1362.4,1643.38 1424.45,1688.16 1486.51,1733.76 1548.56,1780.19 1610.61,1827.46 1672.66,1875.57 1734.72,1924.53 1796.77,1974.35 1858.82,2025.03 1920.87,2076.59 1982.92,2129.02 2044.98,2182.34 2107.03,2236.55 2169.08,2291.66 2231.13,2347.68 2293.19,2404.6 "/>
<polyline clip-path="url(#clip051)" style="stroke:#ff0000; stroke-linecap:round; stroke-linejoin:round; stroke-width:4; stroke-opacity:1; fill:none" points="307.515,1025.27 369.567,1051.52 431.619,1078.23 493.672,1105.56 555.724,1133.61 617.776,1162.4 679.828,1191.96 741.88,1222.31 803.933,1253.43 865.985,1285.34 928.037,1318.03 990.089,1351.5 1052.14,1385.77 1114.19,1420.82 1176.25,1456.67 1238.3,1493.31 1300.35,1530.76 1362.4,1569.02 1424.45,1608.08 1486.51,1647.96 1548.56,1688.67 1610.61,1730.2 1672.66,1772.56 1734.72,1815.76 1796.77,1859.76 1858.82,1904.4 1920.87,1950.14 1982.92,1996.73 2044.98,2044.17 2107.03,2092.48 2169.08,2141.65 2231.13,2191.7 2293.19,2242.62 "/>
<polyline clip-path="url(#clip051)" style="stroke:#008000; stroke-linecap:round; stroke-linejoin:round; stroke-width:4; stroke-opacity:1; fill:none" points="307.515,976.113 369.567,997.044 431.619,1019.17 493.672,1042.82 555.724,1075.33 617.776,1110 679.828,1146.1 741.88,1183.47 803.933,1221.92 865.985,1261.36 928.037,1301.71 990.089,1342.93 1052.14,1385.01 1114.19,1427.96 1176.25,1471.8 1238.3,1516.53 1300.35,1562.17 1362.4,1608.75 1424.45,1656.29 1486.51,1704.79 1548.56,1754.27 1610.61,1804.75 1672.66,1856.24 1734.72,1908.75 1796.77,1962.29 1858.82,2016.86 1920.87,2072.48 1982.92,2129.15 2044.98,2186.91 2107.03,2245.81 2169.08,2306.18 2231.13,2368.13 2293.19,2431.27 "/>
<polyline clip-path="url(#clip051)" style="stroke:#0000ff; stroke-linecap:round; stroke-linejoin:round; stroke-width:4; stroke-opacity:1; fill:none" points="307.515,1004.42 369.567,1035.05 431.619,1067.13 493.672,1100.23 555.724,1134.14 617.776,1164.78 679.828,1199.57 741.88,1238.97 803.933,1276.36 865.985,1314.11 928.037,1352.57 990.089,1391.79 1052.14,1431.79 1114.19,1472.57 1176.25,1514.15 1238.3,1556.52 1300.35,1599.7 1362.4,1643.68 1424.45,1688.48 1486.51,1734.1 1548.56,1780.54 1610.61,1827.82 1672.66,1875.95 1734.72,1924.92 1796.77,1974.75 1858.82,2025.44 1920.87,2077.01 1982.92,2129.45 2044.98,2182.78 2107.03,2236.99 2169.08,2292.11 2231.13,2348.13 2293.19,2405.07 "/>
<polyline clip-path="url(#clip051)" style="stroke:#ff0000; stroke-linecap:round; stroke-linejoin:round; stroke-width:4; stroke-opacity:1; fill:none" points="307.515,1051.82 369.567,1080.74 431.619,1108.74 493.672,1136.4 555.724,1164.1 617.776,1192.1 679.828,1220.54 741.88,1249.54 803.933,1279.17 865.985,1309.47 928.037,1340.5 990.089,1372.26 1052.14,1404.8 1114.19,1438.13 1176.25,1472.25 1238.3,1507.2 1300.35,1542.97 1362.4,1579.58 1424.45,1617.03 1486.51,1655.33 1548.56,1694.5 1610.61,1734.53 1672.66,1775.44 1734.72,1817.22 1796.77,1859.92 1858.82,1904.69 1920.87,1950.42 1982.92,1997.01 2044.98,2044.45 2107.03,2092.76 2169.08,2141.93 2231.13,2191.97 2293.19,2242.89 "/>
<polyline clip-path="url(#clip051)" style="stroke:#008000; stroke-linecap:round; stroke-linejoin:round; stroke-width:4; stroke-opacity:1; fill:none" points="307.515,1009.88 369.567,1044.29 431.619,1080.29 493.672,1117.94 555.724,1157.27 617.776,1198.22 679.828,1240.68 741.88,1284.51 803.933,1329.57 865.985,1375.76 928.037,1422.98 990.089,1471.17 1052.14,1520.28 1114.19,1570.3 1176.25,1621.2 1238.3,1672.98 1300.35,1724.34 1362.4,1774.06 1424.45,1825.03 1486.51,1877.25 1548.56,1930.72 1610.61,1985.43 1672.66,2041.38 1734.72,2098.55 1796.77,2156.94 1858.82,2216.55 1920.87,2277.38 1982.92,2339.41 2044.98,2402.66 2107.03,2467.12 2169.08,2532.78 2231.13,2599.65 2293.19,2667.74 "/>
<polyline clip-path="url(#clip051)" style="stroke:#0000ff; stroke-linecap:round; stroke-linejoin:round; stroke-width:4; stroke-opacity:1; fill:none" points="307.515,1004.42 369.567,1035.06 431.619,1067.14 493.672,1100.23 555.724,1134.15 617.776,1168.86 679.828,1204.66 741.88,1243.76 803.933,1287.3 865.985,1332.58 928.037,1379.08 990.089,1423.46 1052.14,1468.06 1114.19,1513.99 1176.25,1561.25 1238.3,1609.85 1300.35,1659.76 1362.4,1711 1424.45,1763.53 1486.51,1817.36 1548.56,1872.47 1610.61,1928.86 1672.66,1986.51 1734.72,2045.43 1796.77,2105.6 1858.82,2167.01 1920.87,2229.67 1982.92,2293.56 2044.98,2358.69 2107.03,2425.05 2169.08,2492.64 2231.13,2561.46 2293.19,2631.51 "/>
<polyline clip-path="url(#clip051)" style="stroke:#ff0000; stroke-linecap:round; stroke-linejoin:round; stroke-width:4; stroke-opacity:1; fill:none" points="307.515,1093.99 369.567,1139.68 431.619,1186.72 493.672,1235.06 555.724,1284.76 617.776,1335.86 679.828,1388.42 741.88,1442.47 803.933,1498.03 865.985,1555.12 928.037,1613.75 990.089,1673.9 1052.14,1735.58 1114.19,1798.79 1176.25,1863.51 1238.3,1926.62 1300.35,1991.01 1362.4,2057.09 1424.45,2124.87 1486.51,2194.33 1548.56,2265.48 1610.61,2338.32 1672.66,2412.83 1734.72,2489.02 1796.77,2566.88 1858.82,2646.42 1920.87,2727.64 1982.92,2810.53 2044.98,2895.11 2107.03,2981.37 2169.08,3069.31 2231.13,3158.94 2293.19,3250.27 "/>
<polyline clip-path="url(#clip051)" style="stroke:#008000; stroke-linecap:round; stroke-linejoin:round; stroke-width:4; stroke-opacity:1; fill:none" points="307.515,1090.13 369.567,1123.68 431.619,1157.11 493.672,1190.86 555.724,1225.24 617.776,1260.46 679.828,1296.65 741.88,1333.91 803.933,1372.32 865.985,1411.93 928.037,1452.76 990.089,1494.85 1052.14,1538.2 1114.19,1582.82 1176.25,1628.72 1238.3,1675.9 1300.35,1725.65 1362.4,1779.22 1424.45,1833.7 1486.51,1889.09 1548.56,1945.43 1610.61,2002.71 1672.66,2060.97 1734.72,2120.21 1796.77,2180.46 1858.82,2241.72 1920.87,2304.01 1982.92,2367.35 2044.98,2431.76 2107.03,2497.23 2169.08,2563.79 2231.13,2631.45 2293.19,2700.23 "/>
<polyline clip-path="url(#clip051)" style="stroke:#0000ff; stroke-linecap:round; stroke-linejoin:round; stroke-width:4; stroke-opacity:1; fill:none" points="307.515,1014.74 369.567,1046.78 431.619,1079.56 493.672,1108.83 555.724,1136.23 617.776,1168.89 679.828,1204.78 741.88,1244.45 803.933,1288.17 865.985,1333.47 928.037,1379.94 990.089,1426.73 1052.14,1475.46 1114.19,1525.28 1176.25,1576.18 1238.3,1628.14 1300.35,1681.18 1362.4,1735.29 1424.45,1790.48 1486.51,1846.76 1548.56,1904.12 1610.61,1962.57 1672.66,2022.12 1734.72,2082.78 1796.77,2144.54 1858.82,2207.41 1920.87,2271.41 1982.92,2336.52 2044.98,2402.77 2107.03,2470.16 2169.08,2538.68 2231.13,2608.36 2293.19,2679.19 "/>
<polyline clip-path="url(#clip051)" style="stroke:#ff0000; stroke-linecap:round; stroke-linejoin:round; stroke-width:4; stroke-opacity:1; fill:none" points="307.515,1094.57 369.567,1140.33 431.619,1187.43 493.672,1235.83 555.724,1285.58 617.776,1336.74 679.828,1389.34 741.88,1443.44 803.933,1499.04 865.985,1556.17 928.037,1614.83 990.089,1675.01 1052.14,1736.72 1114.19,1799.96 1176.25,1863.93 1238.3,1929.65 1300.35,1996.57 1362.4,2064.96 1424.45,2134.98 1486.51,2206.62 1548.56,2279.89 1610.61,2354.78 1672.66,2431.29 1734.72,2509.41 1796.77,2589.15 1858.82,2670.5 1920.87,2753.46 1982.92,2838.05 2044.98,2924.26 2107.03,3012.1 2169.08,3101.57 2231.13,3192.68 2293.19,3285.43 "/>
<polyline clip-path="url(#clip051)" style="stroke:#008000; stroke-linecap:round; stroke-linejoin:round; stroke-width:4; stroke-opacity:1; fill:none" points="307.515,1095.39 369.567,1133.71 431.619,1171.92 493.672,1210.6 555.724,1250.06 617.776,1290.44 679.828,1330.81 741.88,1371.84 803.933,1413.94 865.985,1457.09 928.037,1501.27 990.089,1546.49 1052.14,1592.72 1114.19,1639.97 1176.25,1688.24 1238.3,1737.54 1300.35,1787.85 1362.4,1839.2 1424.45,1891.59 1486.51,1945.03 1548.56,1999.51 1610.61,2055.07 1672.66,2111.69 1734.72,2169.39 1796.77,2228.19 1858.82,2288.07 1920.87,2349.07 1982.92,2411.18 2044.98,2474.41 2107.03,2538.78 2169.08,2604.28 2231.13,2670.93 2293.19,2738.73 "/>
<polyline clip-path="url(#clip051)" style="stroke:#0000ff; stroke-linecap:round; stroke-linejoin:round; stroke-width:4; stroke-opacity:1; fill:none" points="307.515,1032.98 369.567,1057.28 431.619,1082.53 493.672,1113.2 555.724,1147.81 617.776,1183.49 679.828,1220.33 741.88,1258.38 803.933,1297.69 865.985,1338.29 928.037,1380.26 990.089,1427.63 1052.14,1476.36 1114.19,1526.17 1176.25,1577.05 1238.3,1628.99 1300.35,1682.01 1362.4,1736.11 1424.45,1791.29 1486.51,1847.54 1548.56,1904.89 1610.61,1963.33 1672.66,2022.87 1734.72,2083.5 1796.77,2145.25 1858.82,2208.11 1920.87,2272.09 1982.92,2337.2 2044.98,2403.43 2107.03,2470.81 2169.08,2539.32 2231.13,2608.99 2293.19,2679.81 "/>
<polyline clip-path="url(#clip051)" style="stroke:#ff0000; stroke-linecap:round; stroke-linejoin:round; stroke-width:4; stroke-opacity:1; fill:none" points="307.515,1128.84 369.567,1172.25 431.619,1216.46 493.672,1261.72 555.724,1308.26 617.776,1356.28 679.828,1405.91 741.88,1457.21 803.933,1510.24 865.985,1565.02 928.037,1621.54 990.089,1679.79 1052.14,1739.78 1114.19,1801.47 1176.25,1864.7 1238.3,1929.92 1300.35,1996.65 1362.4,2065.03 1424.45,2135.05 1486.51,2206.7 1548.56,2279.98 1610.61,2354.88 1672.66,2431.4 1734.72,2509.53 1796.77,2589.27 1858.82,2670.63 1920.87,2753.6 1982.92,2838.2 2044.98,2924.42 2107.03,3012.26 2169.08,3101.74 2231.13,3192.85 2293.19,3285.61 "/>
<polyline clip-path="url(#clip051)" style="stroke:#008000; stroke-linecap:round; stroke-linejoin:round; stroke-width:4; stroke-opacity:1; fill:none" points="307.515,1105.57 369.567,1143.14 431.619,1178.15 493.672,1214.5 555.724,1252.1 617.776,1290.88 679.828,1331.8 741.88,1374.14 803.933,1417.46 865.985,1461.75 928.037,1506.98 990.089,1553.14 1052.14,1600.25 1114.19,1648.28 1176.25,1697.26 1238.3,1747.19 1300.35,1798.08 1362.4,1849.94 1424.45,1902.8 1486.51,1956.65 1548.56,2011.53 1610.61,2067.43 1672.66,2124.37 1734.72,2182.38 1796.77,2241.45 1858.82,2301.59 1920.87,2362.83 1982.92,2425.18 2044.98,2488.63 2107.03,2553.2 2169.08,2618.91 2231.13,2685.75 2293.19,2753.75 "/>
<polyline clip-path="url(#clip051)" style="stroke:#0000ff; stroke-linecap:round; stroke-linejoin:round; stroke-width:4; stroke-opacity:1; fill:none" points="307.515,1121.69 369.567,1166.79 431.619,1212.26 493.672,1258.28 555.724,1305.01 617.776,1352.6 679.828,1401.17 741.88,1450.83 803.933,1501.64 865.985,1553.67 928.037,1606.95 990.089,1661.52 1052.14,1717.41 1114.19,1774.62 1176.25,1833.17 1238.3,1893.07 1300.35,1954.32 1362.4,2016.94 1424.45,2080.92 1486.51,2146.27 1548.56,2212.99 1610.61,2281.09 1672.66,2350.58 1734.72,2421.45 1796.77,2493.72 1858.82,2565.78 1920.87,2638.78 1982.92,2713.29 2044.98,2789.32 2107.03,2866.86 2169.08,2945.93 2231.13,3026.51 2293.19,3108.62 "/>
<polyline clip-path="url(#clip051)" style="stroke:#ff0000; stroke-linecap:round; stroke-linejoin:round; stroke-width:4; stroke-opacity:1; fill:none" points="307.515,1128.94 369.567,1172.31 431.619,1216.48 493.672,1261.73 555.724,1308.29 617.776,1356.32 679.828,1405.95 741.88,1457.26 803.933,1510.29 865.985,1565.06 928.037,1621.57 990.089,1679.82 1052.14,1739.8 1114.19,1801.48 1176.25,1864.87 1238.3,1930.05 1300.35,1997.62 1362.4,2066.9 1424.45,2137.71 1486.51,2210.06 1548.56,2283.93 1610.61,2359.34 1672.66,2436.28 1734.72,2514.78 1796.77,2594.82 1858.82,2676.42 1920.87,2759.59 1982.92,2844.34 2044.98,2930.67 2107.03,3018.59 2169.08,3108.12 2231.13,3199.26 2293.19,3292.02 "/>
<polyline clip-path="url(#clip051)" style="stroke:#008000; stroke-linecap:round; stroke-linejoin:round; stroke-width:4; stroke-opacity:1; fill:none" points="307.515,1109.57 369.567,1152.02 431.619,1199.85 493.672,1248.88 555.724,1299.04 617.776,1350.28 679.828,1402.57 741.88,1455.92 803.933,1510.3 865.985,1565.69 928.037,1622.08 990.089,1679.43 1052.14,1737.71 1114.19,1796.87 1176.25,1856.92 1238.3,1917.83 1300.35,1979.63 1362.4,2042.37 1424.45,2106.09 1486.51,2170.87 1548.56,2236.76 1610.61,2303.82 1672.66,2372.1 1734.72,2441.64 1796.77,2512.46 1858.82,2584.02 1920.87,2656.49 1982.92,2730.4 2044.98,2805.77 2107.03,2882.6 2169.08,2960.9 2231.13,3040.67 2293.19,3121.92 "/>
<polyline clip-path="url(#clip051)" style="stroke:#0000ff; stroke-linecap:round; stroke-linejoin:round; stroke-width:4; stroke-opacity:1; fill:none" points="307.515,1121.84 369.567,1166.94 431.619,1212.41 493.672,1258.43 555.724,1305.16 617.776,1352.74 679.828,1401.31 741.88,1450.96 803.933,1501.77 865.985,1553.8 928.037,1607.09 990.089,1661.67 1052.14,1717.56 1114.19,1774.78 1176.25,1833.34 1238.3,1893.24 1300.35,1954.51 1362.4,2017.13 1424.45,2081.12 1486.51,2146.48 1548.56,2213.22 1610.61,2281.33 1672.66,2350.83 1734.72,2421.71 1796.77,2493.99 1858.82,2567.4 1920.87,2642.48 1982.92,2718.97 2044.98,2796.88 2107.03,2876.22 2169.08,2956.99 2231.13,3039.2 2293.19,3122.86 "/>
<polyline clip-path="url(#clip051)" style="stroke:#ff0000; stroke-linecap:round; stroke-linejoin:round; stroke-width:4; stroke-opacity:1; fill:none" points="307.515,1155 369.567,1199.24 431.619,1243.5 493.672,1286.31 555.724,1330.59 617.776,1376.42 679.828,1423.86 741.88,1472.94 803.933,1523.69 865.985,1576.13 928.037,1630.27 990.089,1686.12 1052.14,1743.68 1114.19,1802.95 1176.25,1864.87 1238.3,1931 1300.35,1998.79 1362.4,2068.1 1424.45,2138.93 1486.51,2211.29 1548.56,2285.17 1610.61,2360.59 1672.66,2437.54 1734.72,2516.04 1796.77,2596.09 1858.82,2677.69 1920.87,2760.87 1982.92,2845.62 2044.98,2931.95 2107.03,3019.87 2169.08,3109.4 2231.13,3200.53 2293.19,3293.29 "/>
<polyline clip-path="url(#clip051)" style="stroke:#008000; stroke-linecap:round; stroke-linejoin:round; stroke-width:4; stroke-opacity:1; fill:none" points="307.515,1138.03 369.567,1180.93 431.619,1225.45 493.672,1271.23 555.724,1318.17 617.776,1366.3 679.828,1415.69 741.88,1466.42 803.933,1518.59 865.985,1572.26 928.037,1627.48 990.089,1684.28 1052.14,1742.7 1114.19,1802.74 1176.25,1864.41 1238.3,1927.7 1300.35,1992.6 1362.4,2055.54 1424.45,2116.7 1486.51,2179.24 1548.56,2243.17 1610.61,2308.5 1672.66,2375.24 1734.72,2443.41 1796.77,2513 1858.82,2584.61 1920.87,2658.1 1982.92,2732.95 2044.98,2809.18 2107.03,2886.81 2169.08,2965.84 2231.13,3046.3 2293.19,3128.18 "/>
<polyline clip-path="url(#clip051)" style="stroke:#0000ff; stroke-linecap:round; stroke-linejoin:round; stroke-width:4; stroke-opacity:1; fill:none" points="307.515,1217.7 369.567,1255.89 431.619,1295 493.672,1335.15 555.724,1376.43 617.776,1418.9 679.828,1462.64 741.88,1507.69 803.933,1554.09 865.985,1601.87 928.037,1651.06 990.089,1701.67 1052.14,1753.73 1114.19,1807.24 1176.25,1862.23 1238.3,1918.7 1300.35,1976.65 1362.4,2036.1 1424.45,2097.05 1486.51,2159.49 1548.56,2223.44 1610.61,2288.9 1672.66,2355.85 1734.72,2424.32 1796.77,2494.31 1858.82,2567.68 1920.87,2642.76 1982.92,2719.26 2044.98,2797.18 2107.03,2876.53 2169.08,2957.31 2231.13,3039.53 2293.19,3123.2 "/>
<polyline clip-path="url(#clip051)" style="stroke:#ff0000; stroke-linecap:round; stroke-linejoin:round; stroke-width:4; stroke-opacity:1; fill:none" points="307.515,1161.93 369.567,1202.1 431.619,1246.07 493.672,1294.88 555.724,1345.4 617.776,1397.43 679.828,1450.88 741.88,1505.71 803.933,1561.9 865.985,1619.45 928.037,1678.36 990.089,1738.65 1052.14,1800.34 1114.19,1863.45 1176.25,1927.98 1238.3,1993.96 1300.35,2061.39 1362.4,2130.31 1424.45,2200.71 1486.51,2272.61 1548.56,2346.02 1610.61,2420.96 1672.66,2497.44 1734.72,2575.46 1796.77,2655.04 1858.82,2736.19 1920.87,2818.92 1982.92,2903.24 2044.98,2989.15 2107.03,3076.67 2169.08,3165.81 2231.13,3256.58 2293.19,3348.98 "/>
<polyline clip-path="url(#clip051)" style="stroke:#008000; stroke-linecap:round; stroke-linejoin:round; stroke-width:4; stroke-opacity:1; fill:none" points="307.515,1188.13 369.567,1233.18 431.619,1278.91 493.672,1325.04 555.724,1371.52 617.776,1418.43 679.828,1465.92 741.88,1514.12 803.933,1563.16 865.985,1613.17 928.037,1664.21 990.089,1716.38 1052.14,1769.73 1114.19,1824.3 1176.25,1880.14 1238.3,1937.28 1300.35,1995.74 1362.4,2059.12 1424.45,2127.24 1486.51,2196.95 1548.56,2268.25 1610.61,2341.12 1672.66,2415.57 1734.72,2491.59 1796.77,2569.17 1858.82,2648.32 1920.87,2729.03 1982.92,2811.3 2044.98,2895.13 2107.03,2980.53 2169.08,3067.5 2231.13,3156.04 2293.19,3246.15 "/>
<polyline clip-path="url(#clip051)" style="stroke:#0000ff; stroke-linecap:round; stroke-linejoin:round; stroke-width:4; stroke-opacity:1; fill:none" points="307.515,1239.25 369.567,1286.74 431.619,1329.9 493.672,1373.19 555.724,1417.53 617.776,1463.04 679.828,1509.78 741.88,1557.77 803.933,1607.04 865.985,1657.59 928.037,1709.43 990.089,1762.58 1052.14,1817.04 1114.19,1872.83 1176.25,1929.94 1238.3,1988.4 1300.35,2048.21 1362.4,2109.38 1424.45,2171.92 1486.51,2235.84 1548.56,2301.15 1610.61,2367.85 1672.66,2435.95 1734.72,2505.47 1796.77,2576.4 1858.82,2648.76 1920.87,2722.56 1982.92,2797.8 2044.98,2874.48 2107.03,2952.63 2169.08,3032.23 2231.13,3113.31 2293.19,3195.87 "/>
<polyline clip-path="url(#clip051)" style="stroke:#ff0000; stroke-linecap:round; stroke-linejoin:round; stroke-width:4; stroke-opacity:1; fill:none" points="307.515,1230.81 369.567,1274.79 431.619,1321.15 493.672,1369.79 555.724,1420.56 617.776,1473.31 679.828,1527.93 741.88,1584.3 803.933,1642.32 865.985,1701.93 928.037,1763.07 990.089,1825.7 1052.14,1889.81 1114.19,1955.35 1176.25,2022.34 1238.3,2090.76 1300.35,2160.61 1362.4,2231.9 1424.45,2304.62 1486.51,2378.79 1548.56,2454.41 1610.61,2531.5 1672.66,2610.06 1734.72,2690.1 1796.77,2771.65 1858.82,2853.37 1920.87,2936.52 1982.92,3021.28 2044.98,3107.66 2107.03,3195.65 2169.08,3285.28 2231.13,3376.55 2293.19,3469.47 "/>
<polyline clip-path="url(#clip051)" style="stroke:#008000; stroke-linecap:round; stroke-linejoin:round; stroke-width:4; stroke-opacity:1; fill:none" points="307.515,1230.7 369.567,1271.57 431.619,1313.26 493.672,1355.89 555.724,1399.58 617.776,1444.45 679.828,1490.59 741.88,1538.1 803.933,1587.06 865.985,1637.57 928.037,1689.69 990.089,1743.52 1052.14,1799.12 1114.19,1856.56 1176.25,1915.89 1238.3,1977.14 1300.35,2040.31 1362.4,2105.37 1424.45,2172.28 1486.51,2240.99 1548.56,2311.46 1610.61,2383.63 1672.66,2457.48 1734.72,2532.97 1796.77,2610.09 1858.82,2688.8 1920.87,2769.11 1982.92,2851 2044.98,2934.48 2107.03,3019.53 2169.08,3106.16 2231.13,3194.36 2293.19,3284.16 "/>
<polyline clip-path="url(#clip051)" style="stroke:#0000ff; stroke-linecap:round; stroke-linejoin:round; stroke-width:4; stroke-opacity:1; fill:none" points="307.515,1244.93 369.567,1287.43 431.619,1329.95 493.672,1373.23 555.724,1417.57 617.776,1463.09 679.828,1509.83 741.88,1557.82 803.933,1607.08 865.985,1657.62 928.037,1709.46 990.089,1762.61 1052.14,1817.06 1114.19,1872.84 1176.25,1929.96 1238.3,1988.42 1300.35,2048.23 1362.4,2109.4 1424.45,2171.95 1486.51,2235.87 1548.56,2301.18 1610.61,2367.89 1672.66,2436 1734.72,2505.52 1796.77,2576.46 1858.82,2648.82 1920.87,2722.62 1982.92,2797.87 2044.98,2874.56 2107.03,2952.7 2169.08,3032.32 2231.13,3113.4 2293.19,3195.96 "/>
<polyline clip-path="url(#clip051)" style="stroke:#ff0000; stroke-linecap:round; stroke-linejoin:round; stroke-width:4; stroke-opacity:1; fill:none" points="307.515,1230.84 369.567,1274.81 431.619,1321.16 493.672,1369.79 555.724,1420.56 617.776,1473.33 679.828,1527.95 741.88,1584.32 803.933,1642.35 865.985,1701.97 928.037,1763.11 990.089,1825.75 1052.14,1889.86 1114.19,1955.41 1176.25,2022.4 1238.3,2090.82 1300.35,2160.67 1362.4,2231.96 1424.45,2304.68 1486.51,2378.85 1548.56,2454.47 1610.61,2531.56 1672.66,2610.12 1734.72,2690.16 1796.77,2771.7 1858.82,2854.69 1920.87,2939.26 1982.92,3025.36 2044.98,3113 2107.03,3202.19 2169.08,3292.96 2231.13,3385.3 2293.19,3479.23 "/>
<polyline clip-path="url(#clip051)" style="stroke:#008000; stroke-linecap:round; stroke-linejoin:round; stroke-width:4; stroke-opacity:1; fill:none" points="307.515,1293.91 369.567,1341.32 431.619,1390.99 493.672,1442.95 555.724,1497.11 617.776,1553.01 679.828,1609.03 741.88,1666.88 803.933,1726.59 865.985,1788.16 928.037,1851.61 990.089,1916.92 1052.14,1984.09 1114.19,2053.11 1176.25,2123.97 1238.3,2196.64 1300.35,2271.14 1362.4,2347.45 1424.45,2425.55 1486.51,2505.46 1548.56,2587.16 1610.61,2670.66 1672.66,2755.95 1734.72,2843.04 1796.77,2931.93 1858.82,3022.62 1920.87,3115.13 1982.92,3209.44 2044.98,3305.58 2107.03,3403.55 2169.08,3503.35 2231.13,3605 2293.19,3708.51 "/>
<polyline clip-path="url(#clip051)" style="stroke:#0000ff; stroke-linecap:round; stroke-linejoin:round; stroke-width:4; stroke-opacity:1; fill:none" points="307.515,1244.96 369.567,1287.52 431.619,1334.7 493.672,1382.74 555.724,1431.06 617.776,1479.82 679.828,1529.15 741.88,1579.2 803.933,1630.09 865.985,1681.92 928.037,1734.77 990.089,1788.71 1052.14,1843.78 1114.19,1900.04 1176.25,1957.5 1238.3,2016.22 1300.35,2076.2 1362.4,2137.47 1424.45,2200.05 1486.51,2263.97 1548.56,2329.22 1610.61,2395.83 1672.66,2463.82 1734.72,2533.19 1796.77,2603.95 1858.82,2676.11 1920.87,2749.7 1982.92,2824.71 2044.98,2901.15 2107.03,2979.04 2169.08,3058.38 2231.13,3139.19 2293.19,3221.47 "/>
<polyline clip-path="url(#clip051)" style="stroke:#ff0000; stroke-linecap:round; stroke-linejoin:round; stroke-width:4; stroke-opacity:1; fill:none" points="307.515,1248.54 369.567,1298.28 431.619,1350.27 493.672,1404.16 555.724,1459.69 617.776,1515.34 679.828,1568.38 741.88,1622.72 803.933,1678.41 865.985,1735.5 928.037,1794.01 990.089,1853.98 1052.14,1915.41 1114.19,1978.34 1176.25,2042.76 1238.3,2108.71 1300.35,2176.17 1362.4,2245.18 1424.45,2315.72 1486.51,2387.82 1548.56,2461.48 1610.61,2536.7 1672.66,2613.49 1734.72,2691.86 1796.77,2771.82 1858.82,2854.74 1920.87,2939.31 1982.92,3025.4 2044.98,3113.04 2107.03,3202.24 2169.08,3293 2231.13,3385.34 2293.19,3479.27 "/>
<polyline clip-path="url(#clip051)" style="stroke:#008000; stroke-linecap:round; stroke-linejoin:round; stroke-width:4; stroke-opacity:1; fill:none" points="307.515,1297.89 369.567,1345.99 431.619,1395.41 493.672,1446.3 555.724,1498.8 617.776,1553.37 679.828,1611.54 741.88,1671.57 803.933,1733.36 865.985,1796.85 928.037,1862.02 990.089,1928.84 1052.14,1997.3 1114.19,2067.41 1176.25,2139.17 1238.3,2212.59 1300.35,2287.67 1362.4,2364.42 1424.45,2442.87 1486.51,2523.01 1548.56,2604.86 1610.61,2688.43 1672.66,2773.73 1734.72,2860.77 1796.77,2949.57 1858.82,3040.14 1920.87,3132.48 1982.92,3226.61 2044.98,3322.54 2107.03,3420.29 2169.08,3519.86 2231.13,3621.26 2293.19,3724.52 "/>
<polyline clip-path="url(#clip051)" style="stroke:#0000ff; stroke-linecap:round; stroke-linejoin:round; stroke-width:4; stroke-opacity:1; fill:none" points="307.515,1266.32 369.567,1317.07 431.619,1371.53 493.672,1428.8 555.724,1488.41 617.776,1550.14 679.828,1613.87 741.88,1679.51 803.933,1747.03 865.985,1816.4 928.037,1887.6 990.089,1960.64 1052.14,2035.49 1114.19,2112.18 1176.25,2190.7 1238.3,2271.06 1300.35,2353.26 1362.4,2437.32 1424.45,2523.22 1486.51,2610.99 1548.56,2700.64 1610.61,2792.16 1672.66,2885.57 1734.72,2980.88 1796.77,3078.09 1858.82,3177.22 1920.87,3278.28 1982.92,3381.28 2044.98,3486.22 2107.03,3593.13 2169.08,3702.01 2231.13,3812.88 2293.19,3925.75 "/>
<polyline clip-path="url(#clip051)" style="stroke:#ff0000; stroke-linecap:round; stroke-linejoin:round; stroke-width:4; stroke-opacity:1; fill:none" points="307.515,1248.63 369.567,1298.42 431.619,1350.45 493.672,1404.39 555.724,1459.96 617.776,1516.68 679.828,1574.98 741.88,1634.52 803.933,1695.27 865.985,1757.2 928.037,1820.3 990.089,1884.59 1052.14,1950.09 1114.19,2016.81 1176.25,2084.78 1238.3,2154.02 1300.35,2224.56 1362.4,2296.41 1424.45,2369.61 1486.51,2444.18 1548.56,2520.13 1610.61,2597.49 1672.66,2676.28 1734.72,2756.52 1796.77,2838.22 1858.82,2921.4 1920.87,3006.08 1982.92,3092.28 2044.98,3180.01 2107.03,3269.28 2169.08,3360.11 2231.13,3452.51 2293.19,3546.51 "/>
<polyline clip-path="url(#clip051)" style="stroke:#008000; stroke-linecap:round; stroke-linejoin:round; stroke-width:4; stroke-opacity:1; fill:none" points="307.515,1344.24 369.567,1400.14 431.619,1459.11 493.672,1520.98 555.724,1585.59 617.776,1648.17 679.828,1709.84 741.88,1772.12 803.933,1834.98 865.985,1898.07 928.037,1962.57 990.089,2028.59 1052.14,2096.15 1114.19,2165.28 1176.25,2236 1238.3,2308.33 1300.35,2382.3 1362.4,2457.93 1424.45,2535.22 1486.51,2614.21 1548.56,2694.9 1610.61,2777.31 1672.66,2861.45 1734.72,2947.35 1796.77,3035.01 1858.82,3124.45 1920.87,3215.69 1982.92,3308.72 2044.98,3403.58 2107.03,3500.26 2169.08,3598.79 2231.13,3699.18 2293.19,3801.44 "/>
<polyline clip-path="url(#clip051)" style="stroke:#0000ff; stroke-linecap:round; stroke-linejoin:round; stroke-width:4; stroke-opacity:1; fill:none" points="307.515,1266.49 369.567,1317.26 431.619,1371.75 493.672,1429.02 555.724,1488.65 617.776,1550.39 679.828,1614.13 741.88,1679.79 803.933,1747.32 865.985,1816.69 928.037,1887.91 990.089,1960.95 1052.14,2035.81 1114.19,2112.51 1176.25,2191.04 1238.3,2271.41 1300.35,2353.61 1362.4,2437.67 1424.45,2523.59 1486.51,2611.36 1548.56,2701.01 1610.61,2792.54 1672.66,2885.95 1734.72,2981.26 1796.77,3078.48 1858.82,3177.62 1920.87,3278.68 1982.92,3381.68 2044.98,3486.63 2107.03,3593.54 2169.08,3702.42 2231.13,3813.29 2293.19,3926.16 "/>
<polyline clip-path="url(#clip051)" style="stroke:#ff0000; stroke-linecap:round; stroke-linejoin:round; stroke-width:4; stroke-opacity:1; fill:none" points="307.515,1266.92 369.567,1314.75 431.619,1363.37 493.672,1412.93 555.724,1463.55 617.776,1516.98 679.828,1575.32 741.88,1634.89 803.933,1695.66 865.985,1757.61 928.037,1820.74 990.089,1885.05 1052.14,1950.56 1114.19,2017.3 1176.25,2085.28 1238.3,2154.53 1300.35,2225.08 1362.4,2296.94 1424.45,2370.15 1486.51,2444.72 1548.56,2520.68 1610.61,2598.05 1672.66,2676.84 1734.72,2757.08 1796.77,2838.79 1858.82,2921.98 1920.87,3006.66 1982.92,3092.86 2044.98,3180.59 2107.03,3269.86 2169.08,3360.69 2231.13,3453.1 2293.19,3547.1 "/>
<polyline clip-path="url(#clip051)" style="stroke:#008000; stroke-linecap:round; stroke-linejoin:round; stroke-width:4; stroke-opacity:1; fill:none" points="307.515,1350.16 369.567,1406.99 431.619,1465.77 493.672,1525.94 555.724,1586.87 617.776,1652.79 679.828,1713.41 741.88,1773.56 803.933,1835.46 865.985,1899.72 928.037,1965.33 990.089,2032.32 1052.14,2100.77 1114.19,2170.73 1176.25,2242.24 1238.3,2315.33 1300.35,2390.03 1362.4,2466.36 1424.45,2544.35 1486.51,2624.01 1548.56,2705.37 1610.61,2788.43 1672.66,2873.22 1734.72,2959.75 1796.77,3048.02 1858.82,3138.07 1920.87,3229.89 1982.92,3323.51 2044.98,3418.93 2107.03,3516.18 2169.08,3615.26 2231.13,3716.18 2293.19,3818.96 "/>
<polyline clip-path="url(#clip051)" style="stroke:#0000ff; stroke-linecap:round; stroke-linejoin:round; stroke-width:4; stroke-opacity:1; fill:none" points="307.515,1316.18 369.567,1368.26 431.619,1422.52 493.672,1479.09 555.724,1537.96 617.776,1599.05 679.828,1662.27 741.88,1727.53 803.933,1794.75 865.985,1863.88 928.037,1934.89 990.089,2007.74 1052.14,2082.43 1114.19,2158.95 1176.25,2237.29 1238.3,2317.45 1300.35,2399.45 1362.4,2483.28 1424.45,2568.94 1486.51,2656.46 1548.56,2745.84 1610.61,2837.08 1672.66,2930.2 1734.72,3025.2 1796.77,3122.11 1858.82,3220.93 1920.87,3321.67 1982.92,3424.35 2044.98,3528.97 2107.03,3635.56 2169.08,3744.12 2231.13,3854.67 2293.19,3967.22 "/>
<path clip-path="url(#clip050)" d="M2040.49 300.469 L2282.6 300.469 L2282.6 93.1086 L2040.49 93.1086  Z" fill="#ffffff" fill-rule="evenodd" fill-opacity="1"/>
<polyline clip-path="url(#clip050)" style="stroke:#000000; stroke-linecap:round; stroke-linejoin:round; stroke-width:4; stroke-opacity:1; fill:none" points="2040.49,300.469 2282.6,300.469 2282.6,93.1086 2040.49,93.1086 2040.49,300.469 "/>
<polyline clip-path="url(#clip050)" style="stroke:#ff0000; stroke-linecap:round; stroke-linejoin:round; stroke-width:4; stroke-opacity:1; fill:none" points="2063.88,144.949 2204.2,144.949 "/>
<path clip-path="url(#clip050)" d="M2227.59 162.229 L2227.59 127.669 L2249.09 127.669 L2249.09 131.604 L2232.26 131.604 L2232.26 162.229 L2227.59 162.229 Z" fill="#000000" fill-rule="nonzero" fill-opacity="1" /><polyline clip-path="url(#clip050)" style="stroke:#008000; stroke-linecap:round; stroke-linejoin:round; stroke-width:4; stroke-opacity:1; fill:none" points="2063.88,196.789 2204.2,196.789 "/>
<path clip-path="url(#clip050)" d="M2227.59 179.509 L2234.56 179.509 L2243.38 203.027 L2252.24 179.509 L2259.21 179.509 L2259.21 214.069 L2254.65 214.069 L2254.65 183.722 L2245.74 207.425 L2241.04 207.425 L2232.13 183.722 L2232.13 214.069 L2227.59 214.069 L2227.59 179.509 Z" fill="#000000" fill-rule="nonzero" fill-opacity="1" /><polyline clip-path="url(#clip050)" style="stroke:#0000ff; stroke-linecap:round; stroke-linejoin:round; stroke-width:4; stroke-opacity:1; fill:none" points="2063.88,248.629 2204.2,248.629 "/>
<path clip-path="url(#clip050)" d="M2227.59 231.349 L2232.26 231.349 L2232.26 245.955 L2247.77 231.349 L2253.79 231.349 L2236.64 247.46 L2255.02 265.909 L2248.86 265.909 L2232.26 249.265 L2232.26 265.909 L2227.59 265.909 L2227.59 231.349 Z" fill="#000000" fill-rule="nonzero" fill-opacity="1" /></svg>
