<?xml version="1.0" encoding="utf-8"?>
<svg xmlns="http://www.w3.org/2000/svg" xmlns:xlink="http://www.w3.org/1999/xlink" width="600" height="400" viewBox="0 0 2400 1600">
<defs>
  <clipPath id="clip020">
    <rect x="0" y="0" width="2400" height="1600"/>
  </clipPath>
</defs>
<path clip-path="url(#clip020)" d="M0 1600 L2400 1600 L2400 0 L0 0  Z" fill="#ffffff" fill-rule="evenodd" fill-opacity="1"/>
<defs>
  <clipPath id="clip021">
    <rect x="221" y="47" width="2132" height="1377"/>
  </clipPath>
</defs>
<path clip-path="url(#clip020)" d="M221.637 1423.18 L2352.76 1423.18 L2352.76 47.2441 L221.637 47.2441  Z" fill="#ffffff" fill-rule="evenodd" fill-opacity="1"/>
<polyline clip-path="url(#clip021)" style="stroke:#000000; stroke-linecap:round; stroke-linejoin:round; stroke-width:2; stroke-opacity:0.1; fill:none" points="505.339,1423.18 505.339,47.2441 "/>
<polyline clip-path="url(#clip021)" style="stroke:#000000; stroke-linecap:round; stroke-linejoin:round; stroke-width:2; stroke-opacity:0.1; fill:none" points="952.115,1423.18 952.115,47.2441 "/>
<polyline clip-path="url(#clip021)" style="stroke:#000000; stroke-linecap:round; stroke-linejoin:round; stroke-width:2; stroke-opacity:0.1; fill:none" points="1398.89,1423.18 1398.89,47.2441 "/>
<polyline clip-path="url(#clip021)" style="stroke:#000000; stroke-linecap:round; stroke-linejoin:round; stroke-width:2; stroke-opacity:0.1; fill:none" points="1845.67,1423.18 1845.67,47.2441 "/>
<polyline clip-path="url(#clip021)" style="stroke:#000000; stroke-linecap:round; stroke-linejoin:round; stroke-width:2; stroke-opacity:0.1; fill:none" points="2292.44,1423.18 2292.44,47.2441 "/>
<polyline clip-path="url(#clip021)" style="stroke:#000000; stroke-linecap:round; stroke-linejoin:round; stroke-width:2; stroke-opacity:0.1; fill:none" points="221.637,972.513 2352.76,972.513 "/>
<polyline clip-path="url(#clip021)" style="stroke:#000000; stroke-linecap:round; stroke-linejoin:round; stroke-width:2; stroke-opacity:0.1; fill:none" points="221.637,326.576 2352.76,326.576 "/>
<polyline clip-path="url(#clip020)" style="stroke:#000000; stroke-linecap:round; stroke-linejoin:round; stroke-width:4; stroke-opacity:1; fill:none" points="221.637,1423.18 2352.76,1423.18 "/>
<polyline clip-path="url(#clip020)" style="stroke:#000000; stroke-linecap:round; stroke-linejoin:round; stroke-width:4; stroke-opacity:1; fill:none" points="505.339,1423.18 505.339,1404.28 "/>
<polyline clip-path="url(#clip020)" style="stroke:#000000; stroke-linecap:round; stroke-linejoin:round; stroke-width:4; stroke-opacity:1; fill:none" points="952.115,1423.18 952.115,1404.28 "/>
<polyline clip-path="url(#clip020)" style="stroke:#000000; stroke-linecap:round; stroke-linejoin:round; stroke-width:4; stroke-opacity:1; fill:none" points="1398.89,1423.18 1398.89,1404.28 "/>
<polyline clip-path="url(#clip020)" style="stroke:#000000; stroke-linecap:round; stroke-linejoin:round; stroke-width:4; stroke-opacity:1; fill:none" points="1845.67,1423.18 1845.67,1404.28 "/>
<polyline clip-path="url(#clip020)" style="stroke:#000000; stroke-linecap:round; stroke-linejoin:round; stroke-width:4; stroke-opacity:1; fill:none" points="2292.44,1423.18 2292.44,1404.28 "/>
<path clip-path="url(#clip020)" d="M499.992 1481.64 L516.312 1481.64 L516.312 1485.58 L494.367 1485.58 L494.367 1481.64 Q497.029 1478.89 501.613 1474.26 Q506.219 1469.61 507.4 1468.27 Q509.645 1465.74 510.525 1464.01 Q511.427 1462.25 511.427 1460.56 Q511.427 1457.8 509.483 1456.07 Q507.562 1454.33 504.46 1454.33 Q502.261 1454.33 499.807 1455.09 Q497.377 1455.86 494.599 1457.41 L494.599 1452.69 Q497.423 1451.55 499.877 1450.97 Q502.33 1450.39 504.367 1450.39 Q509.738 1450.39 512.932 1453.08 Q516.126 1455.77 516.126 1460.26 Q516.126 1462.39 515.316 1464.31 Q514.529 1466.2 512.423 1468.8 Q511.844 1469.47 508.742 1472.69 Q505.64 1475.88 499.992 1481.64 Z" fill="#000000" fill-rule="nonzero" fill-opacity="1" /><path clip-path="url(#clip020)" d="M955.124 1455.09 L943.319 1473.54 L955.124 1473.54 L955.124 1455.09 M953.897 1451.02 L959.777 1451.02 L959.777 1473.54 L964.707 1473.54 L964.707 1477.43 L959.777 1477.43 L959.777 1485.58 L955.124 1485.58 L955.124 1477.43 L939.522 1477.43 L939.522 1472.92 L953.897 1451.02 Z" fill="#000000" fill-rule="nonzero" fill-opacity="1" /><path clip-path="url(#clip020)" d="M1399.3 1466.44 Q1396.15 1466.44 1394.3 1468.59 Q1392.47 1470.74 1392.47 1474.49 Q1392.47 1478.22 1394.3 1480.39 Q1396.15 1482.55 1399.3 1482.55 Q1402.44 1482.55 1404.27 1480.39 Q1406.12 1478.22 1406.12 1474.49 Q1406.12 1470.74 1404.27 1468.59 Q1402.44 1466.44 1399.3 1466.44 M1408.58 1451.78 L1408.58 1456.04 Q1406.82 1455.21 1405.01 1454.77 Q1403.23 1454.33 1401.47 1454.33 Q1396.84 1454.33 1394.39 1457.45 Q1391.96 1460.58 1391.61 1466.9 Q1392.98 1464.89 1395.04 1463.82 Q1397.1 1462.73 1399.57 1462.73 Q1404.78 1462.73 1407.79 1465.9 Q1410.82 1469.05 1410.82 1474.49 Q1410.82 1479.82 1407.68 1483.03 Q1404.53 1486.25 1399.3 1486.25 Q1393.3 1486.25 1390.13 1481.67 Q1386.96 1477.06 1386.96 1468.33 Q1386.96 1460.14 1390.85 1455.28 Q1394.74 1450.39 1401.29 1450.39 Q1403.05 1450.39 1404.83 1450.74 Q1406.63 1451.09 1408.58 1451.78 Z" fill="#000000" fill-rule="nonzero" fill-opacity="1" /><path clip-path="url(#clip020)" d="M1845.67 1469.17 Q1842.33 1469.17 1840.41 1470.95 Q1838.51 1472.73 1838.51 1475.86 Q1838.51 1478.98 1840.41 1480.77 Q1842.33 1482.55 1845.67 1482.55 Q1849 1482.55 1850.92 1480.77 Q1852.84 1478.96 1852.84 1475.86 Q1852.84 1472.73 1850.92 1470.95 Q1849.02 1469.17 1845.67 1469.17 M1840.99 1467.18 Q1837.98 1466.44 1836.29 1464.38 Q1834.62 1462.32 1834.62 1459.35 Q1834.62 1455.21 1837.56 1452.8 Q1840.53 1450.39 1845.67 1450.39 Q1850.83 1450.39 1853.77 1452.8 Q1856.71 1455.21 1856.71 1459.35 Q1856.71 1462.32 1855.02 1464.38 Q1853.35 1466.44 1850.36 1467.18 Q1853.74 1467.96 1855.62 1470.26 Q1857.52 1472.55 1857.52 1475.86 Q1857.52 1480.88 1854.44 1483.57 Q1851.38 1486.25 1845.67 1486.25 Q1839.95 1486.25 1836.87 1483.57 Q1833.81 1480.88 1833.81 1475.86 Q1833.81 1472.55 1835.71 1470.26 Q1837.61 1467.96 1840.99 1467.18 M1839.28 1459.79 Q1839.28 1462.48 1840.94 1463.98 Q1842.63 1465.49 1845.67 1465.49 Q1848.68 1465.49 1850.36 1463.98 Q1852.08 1462.48 1852.08 1459.79 Q1852.08 1457.11 1850.36 1455.6 Q1848.68 1454.1 1845.67 1454.1 Q1842.63 1454.1 1840.94 1455.6 Q1839.28 1457.11 1839.28 1459.79 Z" fill="#000000" fill-rule="nonzero" fill-opacity="1" /><path clip-path="url(#clip020)" d="M2267.13 1481.64 L2274.77 1481.64 L2274.77 1455.28 L2266.46 1456.95 L2266.46 1452.69 L2274.72 1451.02 L2279.4 1451.02 L2279.4 1481.64 L2287.04 1481.64 L2287.04 1485.58 L2267.13 1485.58 L2267.13 1481.64 Z" fill="#000000" fill-rule="nonzero" fill-opacity="1" /><path clip-path="url(#clip020)" d="M2306.48 1454.1 Q2302.87 1454.1 2301.04 1457.66 Q2299.24 1461.2 2299.24 1468.33 Q2299.24 1475.44 2301.04 1479.01 Q2302.87 1482.55 2306.48 1482.55 Q2310.11 1482.55 2311.92 1479.01 Q2313.75 1475.44 2313.75 1468.33 Q2313.75 1461.2 2311.92 1457.66 Q2310.11 1454.1 2306.48 1454.1 M2306.48 1450.39 Q2312.29 1450.39 2315.35 1455 Q2318.42 1459.58 2318.42 1468.33 Q2318.42 1477.06 2315.35 1481.67 Q2312.29 1486.25 2306.48 1486.25 Q2300.67 1486.25 2297.59 1481.67 Q2294.54 1477.06 2294.54 1468.33 Q2294.54 1459.58 2297.59 1455 Q2300.67 1450.39 2306.48 1450.39 Z" fill="#000000" fill-rule="nonzero" fill-opacity="1" /><path clip-path="url(#clip020)" d="M1175.88 1545.76 Q1177.95 1546.46 1179.89 1548.76 Q1181.86 1551.05 1183.83 1555.06 L1190.36 1568.04 L1183.45 1568.04 L1177.37 1555.85 Q1175.02 1551.08 1172.79 1549.52 Q1170.59 1547.96 1166.77 1547.96 L1159.77 1547.96 L1159.77 1568.04 L1153.34 1568.04 L1153.34 1520.52 L1167.86 1520.52 Q1176 1520.52 1180.01 1523.93 Q1184.02 1527.34 1184.02 1534.21 Q1184.02 1538.7 1181.92 1541.66 Q1179.85 1544.62 1175.88 1545.76 M1159.77 1525.81 L1159.77 1542.68 L1167.86 1542.68 Q1172.5 1542.68 1174.86 1540.54 Q1177.24 1538.38 1177.24 1534.21 Q1177.24 1530.04 1174.86 1527.94 Q1172.5 1525.81 1167.86 1525.81 L1159.77 1525.81 Z" fill="#000000" fill-rule="nonzero" fill-opacity="1" /><path clip-path="url(#clip020)" d="M1224.03 1533.76 L1224.03 1539.24 Q1221.55 1537.87 1219.04 1537.2 Q1216.55 1536.5 1214.01 1536.5 Q1208.31 1536.5 1205.16 1540.13 Q1202.01 1543.73 1202.01 1550.25 Q1202.01 1556.78 1205.16 1560.4 Q1208.31 1564 1214.01 1564 Q1216.55 1564 1219.04 1563.33 Q1221.55 1562.63 1224.03 1561.26 L1224.03 1566.68 Q1221.58 1567.82 1218.94 1568.39 Q1216.33 1568.97 1213.37 1568.97 Q1205.32 1568.97 1200.58 1563.91 Q1195.83 1558.85 1195.83 1550.25 Q1195.83 1541.53 1200.61 1536.53 Q1205.41 1531.54 1213.75 1531.54 Q1216.46 1531.54 1219.04 1532.11 Q1221.61 1532.65 1224.03 1533.76 Z" fill="#000000" fill-rule="nonzero" fill-opacity="1" /><path clip-path="url(#clip020)" d="M1269.01 1518.58 Q1264.74 1525.9 1262.67 1533.06 Q1260.6 1540.23 1260.6 1547.58 Q1260.6 1554.93 1262.67 1562.16 Q1264.77 1569.35 1269.01 1576.64 L1263.91 1576.64 Q1259.14 1569.16 1256.75 1561.93 Q1254.4 1554.71 1254.4 1547.58 Q1254.4 1540.48 1256.75 1533.29 Q1259.11 1526.09 1263.91 1518.58 L1269.01 1518.58 Z" fill="#000000" fill-rule="nonzero" fill-opacity="1" /><path clip-path="url(#clip020)" d="M1308.12 1539.24 Q1310.32 1535.29 1313.38 1533.41 Q1316.43 1531.54 1320.57 1531.54 Q1326.14 1531.54 1329.16 1535.45 Q1332.19 1539.33 1332.19 1546.53 L1332.19 1568.04 L1326.3 1568.04 L1326.3 1546.72 Q1326.3 1541.59 1324.48 1539.11 Q1322.67 1536.63 1318.95 1536.63 Q1314.39 1536.63 1311.75 1539.65 Q1309.11 1542.68 1309.11 1547.9 L1309.11 1568.04 L1303.22 1568.04 L1303.22 1546.72 Q1303.22 1541.56 1301.41 1539.11 Q1299.59 1536.63 1295.81 1536.63 Q1291.32 1536.63 1288.68 1539.68 Q1286.03 1542.71 1286.03 1547.9 L1286.03 1568.04 L1280.15 1568.04 L1280.15 1532.4 L1286.03 1532.4 L1286.03 1537.93 Q1288.04 1534.66 1290.84 1533.1 Q1293.64 1531.54 1297.49 1531.54 Q1301.38 1531.54 1304.08 1533.51 Q1306.82 1535.48 1308.12 1539.24 Z" fill="#000000" fill-rule="nonzero" fill-opacity="1" /><path clip-path="url(#clip020)" d="M1371.62 1539.24 Q1373.82 1535.29 1376.87 1533.41 Q1379.93 1531.54 1384.07 1531.54 Q1389.64 1531.54 1392.66 1535.45 Q1395.68 1539.33 1395.68 1546.53 L1395.68 1568.04 L1389.8 1568.04 L1389.8 1546.72 Q1389.8 1541.59 1387.98 1539.11 Q1386.17 1536.63 1382.44 1536.63 Q1377.89 1536.63 1375.25 1539.65 Q1372.61 1542.68 1372.61 1547.9 L1372.61 1568.04 L1366.72 1568.04 L1366.72 1546.72 Q1366.72 1541.56 1364.91 1539.11 Q1363.09 1536.63 1359.3 1536.63 Q1354.82 1536.63 1352.17 1539.68 Q1349.53 1542.71 1349.53 1547.9 L1349.53 1568.04 L1343.64 1568.04 L1343.64 1532.4 L1349.53 1532.4 L1349.53 1537.93 Q1351.54 1534.66 1354.34 1533.1 Q1357.14 1531.54 1360.99 1531.54 Q1364.87 1531.54 1367.58 1533.51 Q1370.32 1535.48 1371.62 1539.24 Z" fill="#000000" fill-rule="nonzero" fill-opacity="1" /><path clip-path="url(#clip020)" d="M1406.44 1518.58 L1411.53 1518.58 Q1416.31 1526.09 1418.66 1533.29 Q1421.05 1540.48 1421.05 1547.58 Q1421.05 1554.71 1418.66 1561.93 Q1416.31 1569.16 1411.53 1576.64 L1406.44 1576.64 Q1410.68 1569.35 1412.74 1562.16 Q1414.84 1554.93 1414.84 1547.58 Q1414.84 1540.23 1412.74 1533.06 Q1410.68 1525.9 1406.44 1518.58 Z" fill="#000000" fill-rule="nonzero" fill-opacity="1" /><polyline clip-path="url(#clip020)" style="stroke:#000000; stroke-linecap:round; stroke-linejoin:round; stroke-width:4; stroke-opacity:1; fill:none" points="221.637,1423.18 221.637,47.2441 "/>
<polyline clip-path="url(#clip020)" style="stroke:#000000; stroke-linecap:round; stroke-linejoin:round; stroke-width:4; stroke-opacity:1; fill:none" points="221.637,972.513 240.535,972.513 "/>
<polyline clip-path="url(#clip020)" style="stroke:#000000; stroke-linecap:round; stroke-linejoin:round; stroke-width:4; stroke-opacity:1; fill:none" points="221.637,326.576 240.535,326.576 "/>
<path clip-path="url(#clip020)" d="M114.931 992.305 L122.57 992.305 L122.57 965.94 L114.26 967.606 L114.26 963.347 L122.524 961.68 L127.2 961.68 L127.2 992.305 L134.839 992.305 L134.839 996.24 L114.931 996.24 L114.931 992.305 Z" fill="#000000" fill-rule="nonzero" fill-opacity="1" /><path clip-path="url(#clip020)" d="M154.283 964.759 Q150.672 964.759 148.843 968.324 Q147.038 971.865 147.038 978.995 Q147.038 986.101 148.843 989.666 Q150.672 993.208 154.283 993.208 Q157.917 993.208 159.723 989.666 Q161.552 986.101 161.552 978.995 Q161.552 971.865 159.723 968.324 Q157.917 964.759 154.283 964.759 M154.283 961.055 Q160.093 961.055 163.149 965.662 Q166.227 970.245 166.227 978.995 Q166.227 987.722 163.149 992.328 Q160.093 996.912 154.283 996.912 Q148.473 996.912 145.394 992.328 Q142.339 987.722 142.339 978.995 Q142.339 970.245 145.394 965.662 Q148.473 961.055 154.283 961.055 Z" fill="#000000" fill-rule="nonzero" fill-opacity="1" /><path clip-path="url(#clip020)" d="M175.932 943.251 Q172.998 943.251 171.512 946.148 Q170.045 949.025 170.045 954.818 Q170.045 960.592 171.512 963.488 Q172.998 966.366 175.932 966.366 Q178.885 966.366 180.352 963.488 Q181.838 960.592 181.838 954.818 Q181.838 949.025 180.352 946.148 Q178.885 943.251 175.932 943.251 M175.932 940.242 Q180.653 940.242 183.136 943.985 Q185.637 947.709 185.637 954.818 Q185.637 961.909 183.136 965.651 Q180.653 969.375 175.932 969.375 Q171.212 969.375 168.71 965.651 Q166.227 961.909 166.227 954.818 Q166.227 947.709 168.71 943.985 Q171.212 940.242 175.932 940.242 Z" fill="#000000" fill-rule="nonzero" fill-opacity="1" /><path clip-path="url(#clip020)" d="M115.853 346.369 L123.492 346.369 L123.492 320.003 L115.182 321.67 L115.182 317.411 L123.446 315.744 L128.121 315.744 L128.121 346.369 L135.76 346.369 L135.76 350.304 L115.853 350.304 L115.853 346.369 Z" fill="#000000" fill-rule="nonzero" fill-opacity="1" /><path clip-path="url(#clip020)" d="M155.205 318.823 Q151.594 318.823 149.765 322.387 Q147.959 325.929 147.959 333.059 Q147.959 340.165 149.765 343.73 Q151.594 347.272 155.205 347.272 Q158.839 347.272 160.644 343.73 Q162.473 340.165 162.473 333.059 Q162.473 325.929 160.644 322.387 Q158.839 318.823 155.205 318.823 M155.205 315.119 Q161.015 315.119 164.07 319.725 Q167.149 324.309 167.149 333.059 Q167.149 341.785 164.07 346.392 Q161.015 350.975 155.205 350.975 Q149.395 350.975 146.316 346.392 Q143.26 341.785 143.26 333.059 Q143.26 324.309 146.316 319.725 Q149.395 315.119 155.205 315.119 Z" fill="#000000" fill-rule="nonzero" fill-opacity="1" /><path clip-path="url(#clip020)" d="M179.844 307.753 Q182.571 308.336 184.095 310.179 Q185.637 312.023 185.637 314.731 Q185.637 318.887 182.778 321.163 Q179.92 323.439 174.653 323.439 Q172.885 323.439 171.005 323.082 Q169.143 322.743 167.149 322.047 L167.149 318.38 Q168.729 319.301 170.61 319.771 Q172.49 320.242 174.541 320.242 Q178.114 320.242 179.976 318.831 Q181.857 317.42 181.857 314.731 Q181.857 312.248 180.108 310.857 Q178.377 309.446 175.274 309.446 L172.001 309.446 L172.001 306.324 L175.424 306.324 Q178.227 306.324 179.713 305.214 Q181.198 304.086 181.198 301.979 Q181.198 299.816 179.656 298.669 Q178.133 297.503 175.274 297.503 Q173.713 297.503 171.926 297.842 Q170.139 298.18 167.995 298.895 L167.995 295.509 Q170.158 294.908 172.039 294.607 Q173.939 294.306 175.613 294.306 Q179.938 294.306 182.459 296.281 Q184.979 298.237 184.979 301.584 Q184.979 303.916 183.643 305.534 Q182.308 307.133 179.844 307.753 Z" fill="#000000" fill-rule="nonzero" fill-opacity="1" /><path clip-path="url(#clip020)" d="M33.958 868.064 L55.9834 860.266 L28.3562 849.126 L28.3562 842.92 L64.0042 857.338 L77.5631 857.338 L77.5631 863.195 L64.0042 863.195 L37.3955 872.552 Q33.3851 873.953 33.3851 876.976 L33.3851 878.536 L28.3562 878.536 L28.3562 876.308 Q28.3562 870.038 33.958 868.064 Z" fill="#000000" fill-rule="nonzero" fill-opacity="1" /><path clip-path="url(#clip020)" d="M14.5426 800.047 Q21.8632 804.312 29.0246 806.381 Q36.186 808.449 43.5384 808.449 Q50.8908 808.449 58.1159 806.381 Q65.3091 804.28 72.5979 800.047 L72.5979 805.139 Q65.1182 809.914 57.8931 812.301 Q50.668 814.656 43.5384 814.656 Q36.4406 814.656 29.2474 812.301 Q22.0542 809.945 14.5426 805.139 L14.5426 800.047 Z" fill="#000000" fill-rule="nonzero" fill-opacity="1" /><path clip-path="url(#clip020)" d="M35.1993 760.929 Q31.2526 758.733 29.3747 755.678 Q27.4968 752.622 27.4968 748.484 Q27.4968 742.914 31.4117 739.891 Q35.2948 736.867 42.4881 736.867 L64.0042 736.867 L64.0042 742.755 L42.679 742.755 Q37.5546 742.755 35.072 744.57 Q32.5894 746.384 32.5894 750.108 Q32.5894 754.659 35.6131 757.301 Q38.6368 759.943 43.8567 759.943 L64.0042 759.943 L64.0042 765.831 L42.679 765.831 Q37.5228 765.831 35.072 767.645 Q32.5894 769.459 32.5894 773.247 Q32.5894 777.735 35.6449 780.377 Q38.6686 783.018 43.8567 783.018 L64.0042 783.018 L64.0042 788.907 L28.3562 788.907 L28.3562 783.018 L33.8944 783.018 Q30.616 781.013 29.0564 778.212 Q27.4968 775.411 27.4968 771.56 Q27.4968 767.677 29.4702 764.972 Q31.4436 762.234 35.1993 760.929 Z" fill="#000000" fill-rule="nonzero" fill-opacity="1" /><path clip-path="url(#clip020)" d="M16.4842 700.901 L34.2127 683.618 L34.2127 690.015 L21.6404 704.02 L34.2127 718.025 L34.2127 724.422 L16.4842 707.139 L16.4842 700.901 Z" fill="#000000" fill-rule="nonzero" fill-opacity="1" /><path clip-path="url(#clip020)" d="M43.5384 673.528 L43.5384 656.373 L48.7583 656.373 L48.7583 673.528 L43.5384 673.528 Z" fill="#000000" fill-rule="nonzero" fill-opacity="1" /><path clip-path="url(#clip020)" d="M58.5933 645.105 L58.5933 634.602 L22.3406 634.602 L24.6323 646.028 L18.7758 646.028 L16.4842 634.666 L16.4842 628.236 L58.5933 628.236 L58.5933 617.733 L64.0042 617.733 L64.0042 645.105 L58.5933 645.105 Z" fill="#000000" fill-rule="nonzero" fill-opacity="1" /><path clip-path="url(#clip020)" d="M14.5426 606.497 L14.5426 601.405 Q22.0542 596.631 29.2474 594.275 Q36.4406 591.888 43.5384 591.888 Q50.668 591.888 57.8931 594.275 Q65.1182 596.631 72.5979 601.405 L72.5979 606.497 Q65.3091 602.264 58.1159 600.195 Q50.8908 598.095 43.5384 598.095 Q36.186 598.095 29.0246 600.195 Q21.8632 602.264 14.5426 606.497 Z" fill="#000000" fill-rule="nonzero" fill-opacity="1" /><polyline clip-path="url(#clip021)" style="stroke:#009af9; stroke-linecap:round; stroke-linejoin:round; stroke-width:4; stroke-opacity:1; fill:none" points="281.952,86.1857 284.186,87.9477 286.42,89.7052 288.653,91.4581 290.887,93.2067 293.121,94.9509 295.355,96.6909 297.589,98.4267 299.823,100.158 302.057,101.886 304.291,103.61 306.524,105.33 308.758,107.046 310.992,108.759 313.226,110.467 315.46,112.172 317.694,113.874 319.928,115.572 322.162,117.267 324.395,118.958 326.629,120.646 328.863,122.331 331.097,124.013 333.331,125.691 335.565,127.367 337.799,129.039 340.033,130.708 342.266,132.375 344.5,134.038 346.734,135.699 348.968,137.357 351.202,139.012 353.436,140.664 355.67,142.314 357.904,143.961 360.137,145.606 362.371,147.247 364.605,148.887 366.839,150.524 369.073,152.158 371.307,153.79 373.541,155.42 375.775,157.047 378.008,158.672 380.242,160.294 382.476,161.915 384.71,163.533 386.944,165.149 389.178,166.763 391.412,168.374 393.646,169.984 395.88,171.591 398.113,173.197 400.347,174.8 402.581,176.402 404.815,178.001 407.049,179.598 409.283,181.194 411.517,182.788 413.751,184.38 415.984,185.969 418.218,187.558 420.452,189.144 422.686,190.728 424.92,192.311 427.154,193.892 429.388,195.472 431.622,197.049 433.855,198.625 436.089,200.199 438.323,201.772 440.557,203.343 442.791,204.913 445.025,206.48 447.259,208.047 449.493,209.612 451.726,211.175 453.96,212.736 456.194,214.297 458.428,215.855 460.662,217.413 462.896,218.969 465.13,220.523 467.364,222.076 469.597,223.628 471.831,225.178 474.065,226.727 476.299,228.274 478.533,229.82 480.767,231.365 483.001,232.909 485.235,234.451 487.468,235.992 489.702,237.532 491.936,239.07 494.17,240.607 496.404,242.143 498.638,243.678 500.872,245.212 503.106,246.744 505.339,248.275 507.573,249.805 509.807,251.334 512.041,252.862 514.275,254.388 516.509,255.914 518.743,257.438 520.977,258.961 523.211,260.483 525.444,262.004 527.678,263.524 529.912,265.043 532.146,266.561 534.38,268.078 536.614,269.594 538.848,271.109 541.082,272.622 543.315,274.135 545.549,275.647 547.783,277.158 550.017,278.668 552.251,280.177 554.485,281.684 556.719,283.191 558.953,284.697 561.186,286.202 563.42,287.707 565.654,289.21 567.888,290.712 570.122,292.214 572.356,293.714 574.59,295.214 576.824,296.713 579.057,298.211 581.291,299.708 583.525,301.204 585.759,302.699 587.993,304.194 590.227,305.687 592.461,307.18 594.695,308.672 596.928,310.163 599.162,311.654 601.396,313.143 603.63,314.632 605.864,316.12 608.098,317.608 610.332,319.094 612.566,320.58 614.799,322.065 617.033,323.549 619.267,325.032 621.501,326.515 623.735,327.997 625.969,329.478 628.203,330.959 630.437,332.439 632.67,333.918 634.904,335.396 637.138,336.874 639.372,338.351 641.606,339.827 643.84,341.303 646.074,342.778 648.308,344.252 650.542,345.726 652.775,347.198 655.009,348.671 657.243,350.142 659.477,351.613 661.711,353.084 663.945,354.553 666.179,356.022 668.413,357.491 670.646,358.958 672.88,360.426 675.114,361.892 677.348,363.358 679.582,364.823 681.816,366.288 684.05,367.752 686.284,369.216 688.517,370.679 690.751,372.141 692.985,373.603 695.219,375.064 697.453,376.524 699.687,377.984 701.921,379.444 704.155,380.903 706.388,382.361 708.622,383.819 710.856,385.276 713.09,386.733 715.324,388.189 717.558,389.644 719.792,391.099 722.026,392.554 724.259,394.008 726.493,395.461 728.727,396.914 730.961,398.367 733.195,399.818 735.429,401.27 737.663,402.721 739.897,404.171 742.13,405.621 744.364,407.07 746.598,408.519 748.832,409.968 751.066,411.415 753.3,412.863 755.534,414.31 757.768,415.756 760.001,417.202 762.235,418.648 764.469,420.093 766.703,421.537 768.937,422.981 771.171,424.425 773.405,425.868 775.639,427.311 777.873,428.753 780.106,430.195 782.34,431.636 784.574,433.077 786.808,434.517 789.042,435.957 791.276,437.397 793.51,438.836 795.744,440.275 797.977,441.713 800.211,443.151 802.445,444.588 804.679,446.025 806.913,447.462 809.147,448.898 811.381,450.334 813.615,451.769 815.848,453.204 818.082,454.639 820.316,456.073 822.55,457.507 824.784,458.94 827.018,460.373 829.252,461.805 831.486,463.238 833.719,464.669 835.953,466.101 838.187,467.532 840.421,468.962 842.655,470.393 844.889,471.822 847.123,473.252 849.357,474.681 851.59,476.11 853.824,477.538 856.058,478.966 858.292,480.393 860.526,481.821 862.76,483.248 864.994,484.674 867.228,486.1 869.461,487.526 871.695,488.952 873.929,490.377 876.163,491.801 878.397,493.226 880.631,494.65 882.865,496.073 885.099,497.497 887.332,498.92 889.566,500.342 891.8,501.765 894.034,503.187 896.268,504.608 898.502,506.03 900.736,507.451 902.97,508.871 905.204,510.292 907.437,511.712 909.671,513.132 911.905,514.551 914.139,515.97 916.373,517.389 918.607,518.807 920.841,520.225 923.075,521.643 925.308,523.06 927.542,524.478 929.776,525.894 932.01,527.311 934.244,528.727 936.478,530.143 938.712,531.559 940.946,532.974 943.179,534.389 945.413,535.804 947.647,537.218 949.881,538.633 952.115,540.046 954.349,541.46 956.583,542.873 958.817,544.286 961.05,545.699 963.284,547.111 965.518,548.523 967.752,549.935 969.986,551.347 972.22,552.758 974.454,554.169 976.688,555.58 978.921,556.99 981.155,558.4 983.389,559.81 985.623,561.22 987.857,562.629 990.091,564.038 992.325,565.447 994.559,566.856 996.792,568.264 999.026,569.672 1001.26,571.08 1003.49,572.487 1005.73,573.894 1007.96,575.301 1010.2,576.708 1012.43,578.114 1014.66,579.521 1016.9,580.927 1019.13,582.332 1021.37,583.738 1023.6,585.143 1025.83,586.548 1028.07,587.952 1030.3,589.357 1032.53,590.761 1034.77,592.165 1037,593.569 1039.24,594.972 1041.47,596.375 1043.7,597.778 1045.94,599.181 1048.17,600.583 1050.41,601.986 1052.64,603.388 1054.87,604.789 1057.11,606.191 1059.34,607.592 1061.57,608.993 1063.81,610.394 1066.04,611.795 1068.28,613.195 1070.51,614.595 1072.74,615.995 1074.98,617.395 1077.21,618.794 1079.45,620.194 1081.68,621.593 1083.91,622.991 1086.15,624.39 1088.38,625.788 1090.62,627.186 1092.85,628.584 1095.08,629.982 1097.32,631.379 1099.55,632.777 1101.78,634.174 1104.02,635.571 1106.25,636.967 1108.49,638.364 1110.72,639.76 1112.95,641.156 1115.19,642.552 1117.42,643.947 1119.66,645.342 1121.89,646.738 1124.12,648.133 1126.36,649.527 1128.59,650.922 1130.83,652.316 1133.06,653.71 1135.29,655.104 1137.53,656.498 1139.76,657.891 1141.99,659.285 1144.23,660.678 1146.46,662.071 1148.7,663.463 1150.93,664.856 1153.16,666.248 1155.4,667.64 1157.63,669.032 1159.87,670.424 1162.1,671.816 1164.33,673.207 1166.57,674.598 1168.8,675.989 1171.03,677.38 1173.27,678.771 1175.5,680.161 1177.74,681.551 1179.97,682.941 1182.2,684.331 1184.44,685.721 1186.67,687.11 1188.91,688.5 1191.14,689.889 1193.37,691.278 1195.61,692.667 1197.84,694.055 1200.08,695.444 1202.31,696.832 1204.54,698.22 1206.78,699.608 1209.01,700.995 1211.24,702.383 1213.48,703.77 1215.71,705.157 1217.95,706.544 1220.18,707.931 1222.41,709.318 1224.65,710.704 1226.88,712.091 1229.12,713.477 1231.35,714.863 1233.58,716.248 1235.82,717.634 1238.05,719.02 1240.29,720.405 1242.52,721.79 1244.75,723.175 1246.99,724.56 1249.22,725.944 1251.45,727.329 1253.69,728.713 1255.92,730.097 1258.16,731.481 1260.39,732.865 1262.62,734.249 1264.86,735.632 1267.09,737.015 1269.33,738.399 1271.56,739.782 1273.79,741.164 1276.03,742.547 1278.26,743.93 1280.49,745.312 1282.73,746.694 1284.96,748.076 1287.2,749.458 1289.43,750.84 1291.66,752.221 1293.9,753.603 1296.13,754.984 1298.37,756.365 1300.6,757.746 1302.83,759.127 1305.07,760.508 1307.3,761.888 1309.54,763.269 1311.77,764.649 1314,766.029 1316.24,767.409 1318.47,768.789 1320.7,770.168 1322.94,771.548 1325.17,772.927 1327.41,774.307 1329.64,775.686 1331.87,777.064 1334.11,778.443 1336.34,779.822 1338.58,781.2 1340.81,782.579 1343.04,783.957 1345.28,785.335 1347.51,786.713 1349.75,788.091 1351.98,789.468 1354.21,790.846 1356.45,792.223 1358.68,793.6 1360.91,794.977 1363.15,796.354 1365.38,797.731 1367.62,799.108 1369.85,800.484 1372.08,801.861 1374.32,803.237 1376.55,804.613 1378.79,805.989 1381.02,807.365 1383.25,808.741 1385.49,810.116 1387.72,811.492 1389.95,812.867 1392.19,814.242 1394.42,815.617 1396.66,816.992 1398.89,818.367 1401.12,819.742 1403.36,821.116 1405.59,822.491 1407.83,823.865 1410.06,825.239 1412.29,826.613 1414.53,827.987 1416.76,829.361 1419,830.735 1421.23,832.108 1423.46,833.482 1425.7,834.855 1427.93,836.228 1430.16,837.601 1432.4,838.974 1434.63,840.347 1436.87,841.719 1439.1,843.092 1441.33,844.464 1443.57,845.837 1445.8,847.209 1448.04,848.581 1450.27,849.953 1452.5,851.325 1454.74,852.696 1456.97,854.068 1459.21,855.439 1461.44,856.811 1463.67,858.182 1465.91,859.553 1468.14,860.924 1470.37,862.295 1472.61,863.665 1474.84,865.036 1477.08,866.407 1479.31,867.777 1481.54,869.147 1483.78,870.517 1486.01,871.887 1488.25,873.257 1490.48,874.627 1492.71,875.997 1494.95,877.366 1497.18,878.736 1499.41,880.105 1501.65,881.475 1503.88,882.844 1506.12,884.213 1508.35,885.582 1510.58,886.95 1512.82,888.319 1515.05,889.688 1517.29,891.056 1519.52,892.425 1521.75,893.793 1523.99,895.161 1526.22,896.529 1528.46,897.897 1530.69,899.265 1532.92,900.632 1535.16,902 1537.39,903.368 1539.62,904.735 1541.86,906.102 1544.09,907.469 1546.33,908.836 1548.56,910.203 1550.79,911.57 1553.03,912.937 1555.26,914.304 1557.5,915.67 1559.73,917.037 1561.96,918.403 1564.2,919.769 1566.43,921.135 1568.67,922.501 1570.9,923.867 1573.13,925.233 1575.37,926.599 1577.6,927.965 1579.83,929.33 1582.07,930.695 1584.3,932.061 1586.54,933.426 1588.77,934.791 1591,936.156 1593.24,937.521 1595.47,938.886 1597.71,940.251 1599.94,941.615 1602.17,942.98 1604.41,944.344 1606.64,945.709 1608.87,947.073 1611.11,948.437 1613.34,949.801 1615.58,951.165 1617.81,952.529 1620.04,953.893 1622.28,955.256 1624.51,956.62 1626.75,957.983 1628.98,959.347 1631.21,960.71 1633.45,962.073 1635.68,963.436 1637.92,964.799 1640.15,966.162 1642.38,967.525 1644.62,968.888 1646.85,970.25 1649.08,971.613 1651.32,972.975 1653.55,974.338 1655.79,975.7 1658.02,977.062 1660.25,978.424 1662.49,979.786 1664.72,981.148 1666.96,982.51 1669.19,983.871 1671.42,985.233 1673.66,986.595 1675.89,987.956 1678.13,989.317 1680.36,990.679 1682.59,992.04 1684.83,993.401 1687.06,994.762 1689.29,996.123 1691.53,997.484 1693.76,998.844 1696,1000.2 1698.23,1001.57 1700.46,1002.93 1702.7,1004.29 1704.93,1005.65 1707.17,1007.01 1709.4,1008.37 1711.63,1009.73 1713.87,1011.09 1716.1,1012.45 1718.33,1013.81 1720.57,1015.17 1722.8,1016.53 1725.04,1017.89 1727.27,1019.24 1729.5,1020.6 1731.74,1021.96 1733.97,1023.32 1736.21,1024.68 1738.44,1026.04 1740.67,1027.4 1742.91,1028.76 1745.14,1030.12 1747.38,1031.48 1749.61,1032.83 1751.84,1034.19 1754.08,1035.55 1756.31,1036.91 1758.54,1038.27 1760.78,1039.63 1763.01,1040.98 1765.25,1042.34 1767.48,1043.7 1769.71,1045.06 1771.95,1046.42 1774.18,1047.77 1776.42,1049.13 1778.65,1050.49 1780.88,1051.85 1783.12,1053.2 1785.35,1054.56 1787.58,1055.92 1789.82,1057.28 1792.05,1058.63 1794.29,1059.99 1796.52,1061.35 1798.75,1062.7 1800.99,1064.06 1803.22,1065.42 1805.46,1066.77 1807.69,1068.13 1809.92,1069.49 1812.16,1070.84 1814.39,1072.2 1816.63,1073.56 1818.86,1074.91 1821.09,1076.27 1823.33,1077.62 1825.56,1078.98 1827.79,1080.34 1830.03,1081.69 1832.26,1083.05 1834.5,1084.4 1836.73,1085.76 1838.96,1087.12 1841.2,1088.47 1843.43,1089.83 1845.67,1091.18 1847.9,1092.54 1850.13,1093.89 1852.37,1095.25 1854.6,1096.6 1856.84,1097.96 1859.07,1099.31 1861.3,1100.67 1863.54,1102.02 1865.77,1103.38 1868,1104.73 1870.24,1106.08 1872.47,1107.44 1874.71,1108.79 1876.94,1110.15 1879.17,1111.5 1881.41,1112.86 1883.64,1114.21 1885.88,1115.56 1888.11,1116.92 1890.34,1118.27 1892.58,1119.63 1894.81,1120.98 1897.04,1122.33 1899.28,1123.69 1901.51,1125.04 1903.75,1126.39 1905.98,1127.75 1908.21,1129.1 1910.45,1130.45 1912.68,1131.81 1914.92,1133.16 1917.15,1134.51 1919.38,1135.87 1921.62,1137.22 1923.85,1138.57 1926.09,1139.92 1928.32,1141.28 1930.55,1142.63 1932.79,1143.98 1935.02,1145.34 1937.25,1146.69 1939.49,1148.04 1941.72,1149.39 1943.96,1150.74 1946.19,1152.1 1948.42,1153.45 1950.66,1154.8 1952.89,1156.15 1955.13,1157.5 1957.36,1158.86 1959.59,1160.21 1961.83,1161.56 1964.06,1162.91 1966.3,1164.26 1968.53,1165.61 1970.76,1166.97 1973,1168.32 1975.23,1169.67 1977.46,1171.02 1979.7,1172.37 1981.93,1173.72 1984.17,1175.07 1986.4,1176.42 1988.63,1177.78 1990.87,1179.13 1993.1,1180.48 1995.34,1181.83 1997.57,1183.18 1999.8,1184.53 2002.04,1185.88 2004.27,1187.23 2006.5,1188.58 2008.74,1189.93 2010.97,1191.28 2013.21,1192.63 2015.44,1193.98 2017.67,1195.33 2019.91,1196.68 2022.14,1198.03 2024.38,1199.38 2026.61,1200.73 2028.84,1202.08 2031.08,1203.43 2033.31,1204.78 2035.55,1206.13 2037.78,1207.48 2040.01,1208.83 2042.25,1210.18 2044.48,1211.53 2046.71,1212.88 2048.95,1214.23 2051.18,1215.58 2053.42,1216.93 2055.65,1218.28 2057.88,1219.63 2060.12,1220.97 2062.35,1222.32 2064.59,1223.67 2066.82,1225.02 2069.05,1226.37 2071.29,1227.72 2073.52,1229.07 2075.76,1230.42 2077.99,1231.76 2080.22,1233.11 2082.46,1234.46 2084.69,1235.81 2086.92,1237.16 2089.16,1238.51 2091.39,1239.85 2093.63,1241.2 2095.86,1242.55 2098.09,1243.9 2100.33,1245.25 2102.56,1246.59 2104.8,1247.94 2107.03,1249.29 2109.26,1250.64 2111.5,1251.99 2113.73,1253.33 2115.96,1254.68 2118.2,1256.03 2120.43,1257.38 2122.67,1258.72 2124.9,1260.07 2127.13,1261.42 2129.37,1262.77 2131.6,1264.11 2133.84,1265.46 2136.07,1266.81 2138.3,1268.15 2140.54,1269.5 2142.77,1270.85 2145.01,1272.2 2147.24,1273.54 2149.47,1274.89 2151.71,1276.24 2153.94,1277.58 2156.17,1278.93 2158.41,1280.28 2160.64,1281.62 2162.88,1282.97 2165.11,1284.32 2167.34,1285.66 2169.58,1287.01 2171.81,1288.35 2174.05,1289.7 2176.28,1291.05 2178.51,1292.39 2180.75,1293.74 2182.98,1295.08 2185.22,1296.43 2187.45,1297.78 2189.68,1299.12 2191.92,1300.47 2194.15,1301.81 2196.38,1303.16 2198.62,1304.51 2200.85,1305.85 2203.09,1307.2 2205.32,1308.54 2207.55,1309.89 2209.79,1311.23 2212.02,1312.58 2214.26,1313.92 2216.49,1315.27 2218.72,1316.61 2220.96,1317.96 2223.19,1319.3 2225.42,1320.65 2227.66,1321.99 2229.89,1323.34 2232.13,1324.68 2234.36,1326.03 2236.59,1327.37 2238.83,1328.72 2241.06,1330.06 2243.3,1331.41 2245.53,1332.75 2247.76,1334.1 2250,1335.44 2252.23,1336.79 2254.47,1338.13 2256.7,1339.47 2258.93,1340.82 2261.17,1342.16 2263.4,1343.51 2265.63,1344.85 2267.87,1346.2 2270.1,1347.54 2272.34,1348.88 2274.57,1350.23 2276.8,1351.57 2279.04,1352.92 2281.27,1354.26 2283.51,1355.6 2285.74,1356.95 2287.97,1358.29 2290.21,1359.63 2292.44,1360.98 "/>
<polyline clip-path="url(#clip021)" style="stroke:#e26f46; stroke-linecap:round; stroke-linejoin:round; stroke-width:4; stroke-opacity:1; fill:none" points="281.952,151.768 505.339,307.518 728.727,443.578 952.115,576.526 1175.5,708.583 1398.89,847.014 1622.28,976.67 1845.67,1115.11 2069.05,1255.95 2292.44,1384.24 "/>
<path clip-path="url(#clip020)" d="M1728.4 248.629 L2281.72 248.629 L2281.72 93.1086 L1728.4 93.1086  Z" fill="#ffffff" fill-rule="evenodd" fill-opacity="1"/>
<polyline clip-path="url(#clip020)" style="stroke:#000000; stroke-linecap:round; stroke-linejoin:round; stroke-width:4; stroke-opacity:1; fill:none" points="1728.4,248.629 2281.72,248.629 2281.72,93.1086 1728.4,93.1086 1728.4,248.629 "/>
<polyline clip-path="url(#clip020)" style="stroke:#009af9; stroke-linecap:round; stroke-linejoin:round; stroke-width:4; stroke-opacity:1; fill:none" points="1752.08,144.949 1894.15,144.949 "/>
<path clip-path="url(#clip020)" d="M1940.08 128.803 L1940.08 133.363 Q1937.42 132.09 1935.06 131.465 Q1932.69 130.84 1930.49 130.84 Q1926.68 130.84 1924.59 132.321 Q1922.53 133.803 1922.53 136.534 Q1922.53 138.826 1923.9 140.007 Q1925.29 141.164 1929.13 141.882 L1931.95 142.46 Q1937.18 143.456 1939.66 145.979 Q1942.16 148.479 1942.16 152.692 Q1942.16 157.715 1938.78 160.307 Q1935.43 162.9 1928.92 162.9 Q1926.47 162.9 1923.69 162.344 Q1920.93 161.789 1917.97 160.701 L1917.97 155.886 Q1920.82 157.483 1923.55 158.293 Q1926.28 159.104 1928.92 159.104 Q1932.93 159.104 1935.1 157.53 Q1937.28 155.956 1937.28 153.039 Q1937.28 150.493 1935.7 149.057 Q1934.15 147.622 1930.59 146.905 L1927.74 146.349 Q1922.51 145.307 1920.17 143.085 Q1917.83 140.863 1917.83 136.905 Q1917.83 132.321 1921.05 129.682 Q1924.29 127.044 1929.96 127.044 Q1932.39 127.044 1934.92 127.483 Q1937.44 127.923 1940.08 128.803 Z" fill="#000000" fill-rule="nonzero" fill-opacity="1" /><path clip-path="url(#clip020)" d="M1970.82 146.581 L1970.82 162.229 L1966.56 162.229 L1966.56 146.719 Q1966.56 143.039 1965.12 141.21 Q1963.69 139.382 1960.82 139.382 Q1957.37 139.382 1955.38 141.581 Q1953.39 143.78 1953.39 147.576 L1953.39 162.229 L1949.11 162.229 L1949.11 136.303 L1953.39 136.303 L1953.39 140.331 Q1954.92 137.993 1956.98 136.835 Q1959.06 135.678 1961.77 135.678 Q1966.24 135.678 1968.53 138.456 Q1970.82 141.21 1970.82 146.581 Z" fill="#000000" fill-rule="nonzero" fill-opacity="1" /><path clip-path="url(#clip020)" d="M1990.1 164.636 Q1988.3 169.266 1986.58 170.678 Q1984.87 172.09 1982 172.09 L1978.6 172.09 L1978.6 168.525 L1981.1 168.525 Q1982.86 168.525 1983.83 167.692 Q1984.8 166.858 1985.98 163.756 L1986.74 161.812 L1976.26 136.303 L1980.77 136.303 L1988.87 156.581 L1996.98 136.303 L2001.49 136.303 L1990.1 164.636 Z" fill="#000000" fill-rule="nonzero" fill-opacity="1" /><path clip-path="url(#clip020)" d="M2024.43 140.238 L2024.43 126.21 L2028.69 126.21 L2028.69 162.229 L2024.43 162.229 L2024.43 158.34 Q2023.09 160.655 2021.03 161.789 Q2018.99 162.9 2016.12 162.9 Q2011.42 162.9 2008.46 159.15 Q2005.52 155.4 2005.52 149.289 Q2005.52 143.178 2008.46 139.428 Q2011.42 135.678 2016.12 135.678 Q2018.99 135.678 2021.03 136.812 Q2023.09 137.923 2024.43 140.238 M2009.92 149.289 Q2009.92 153.988 2011.84 156.673 Q2013.78 159.335 2017.16 159.335 Q2020.54 159.335 2022.49 156.673 Q2024.43 153.988 2024.43 149.289 Q2024.43 144.59 2022.49 141.928 Q2020.54 139.243 2017.16 139.243 Q2013.78 139.243 2011.84 141.928 Q2009.92 144.59 2009.92 149.289 Z" fill="#000000" fill-rule="nonzero" fill-opacity="1" /><path clip-path="url(#clip020)" d="M2059.64 148.201 L2059.64 150.284 L2040.05 150.284 Q2040.33 154.682 2042.69 156.997 Q2045.08 159.289 2049.31 159.289 Q2051.77 159.289 2054.06 158.687 Q2056.37 158.085 2058.64 156.881 L2058.64 160.909 Q2056.35 161.881 2053.94 162.391 Q2051.54 162.9 2049.06 162.9 Q2042.86 162.9 2039.22 159.289 Q2035.61 155.678 2035.61 149.52 Q2035.61 143.155 2039.04 139.428 Q2042.49 135.678 2048.32 135.678 Q2053.55 135.678 2056.58 139.057 Q2059.64 142.414 2059.64 148.201 M2055.38 146.951 Q2055.33 143.456 2053.41 141.372 Q2051.51 139.289 2048.36 139.289 Q2044.8 139.289 2042.65 141.303 Q2040.52 143.317 2040.19 146.974 L2055.38 146.951 Z" fill="#000000" fill-rule="nonzero" fill-opacity="1" /><path clip-path="url(#clip020)" d="M2081.65 140.284 Q2080.93 139.868 2080.08 139.682 Q2079.24 139.474 2078.23 139.474 Q2074.61 139.474 2072.67 141.835 Q2070.75 144.173 2070.75 148.571 L2070.75 162.229 L2066.47 162.229 L2066.47 136.303 L2070.75 136.303 L2070.75 140.331 Q2072.09 137.969 2074.24 136.835 Q2076.4 135.678 2079.48 135.678 Q2079.92 135.678 2080.45 135.747 Q2080.98 135.794 2081.63 135.909 L2081.65 140.284 Z" fill="#000000" fill-rule="nonzero" fill-opacity="1" /><path clip-path="url(#clip020)" d="M2108.25 143.641 Q2106.14 145.516 2105.15 147.391 Q2104.17 149.243 2104.17 151.28 Q2104.17 154.659 2106.63 156.905 Q2109.08 159.15 2112.79 159.15 Q2114.98 159.15 2116.91 158.432 Q2118.83 157.692 2120.52 156.21 L2108.25 143.641 M2111.51 141.048 L2123.27 153.085 Q2124.64 151.025 2125.4 148.687 Q2126.17 146.326 2126.3 143.687 L2130.61 143.687 Q2130.33 146.743 2129.13 149.729 Q2127.92 152.715 2125.77 155.631 L2132.23 162.229 L2126.4 162.229 L2123.09 158.826 Q2120.68 160.886 2118.04 161.905 Q2115.4 162.9 2112.37 162.9 Q2106.79 162.9 2103.25 159.729 Q2099.71 156.534 2099.71 151.557 Q2099.71 148.594 2101.26 146.002 Q2102.81 143.386 2105.91 141.094 Q2104.8 139.636 2104.22 138.201 Q2103.64 136.743 2103.64 135.354 Q2103.64 131.604 2106.21 129.335 Q2108.78 127.044 2113.04 127.044 Q2114.96 127.044 2116.86 127.46 Q2118.78 127.877 2120.75 128.71 L2120.75 132.923 Q2118.73 131.835 2116.91 131.28 Q2115.08 130.701 2113.5 130.701 Q2111.07 130.701 2109.54 131.997 Q2108.04 133.27 2108.04 135.307 Q2108.04 136.488 2108.71 137.692 Q2109.41 138.872 2111.51 141.048 Z" fill="#000000" fill-rule="nonzero" fill-opacity="1" /><path clip-path="url(#clip020)" d="M2153.41 127.669 L2158.09 127.669 L2158.09 158.293 L2174.91 158.293 L2174.91 162.229 L2153.41 162.229 L2153.41 127.669 Z" fill="#000000" fill-rule="nonzero" fill-opacity="1" /><path clip-path="url(#clip020)" d="M2188.85 139.289 Q2185.42 139.289 2183.43 141.974 Q2181.44 144.636 2181.44 149.289 Q2181.44 153.942 2183.41 156.627 Q2185.4 159.289 2188.85 159.289 Q2192.25 159.289 2194.24 156.604 Q2196.23 153.918 2196.23 149.289 Q2196.23 144.682 2194.24 141.997 Q2192.25 139.289 2188.85 139.289 M2188.85 135.678 Q2194.41 135.678 2197.58 139.289 Q2200.75 142.9 2200.75 149.289 Q2200.75 155.655 2197.58 159.289 Q2194.41 162.9 2188.85 162.9 Q2183.27 162.9 2180.1 159.289 Q2176.95 155.655 2176.95 149.289 Q2176.95 142.9 2180.1 139.289 Q2183.27 135.678 2188.85 135.678 Z" fill="#000000" fill-rule="nonzero" fill-opacity="1" /><path clip-path="url(#clip020)" d="M2204.75 136.303 L2209.27 136.303 L2217.37 158.062 L2225.47 136.303 L2229.98 136.303 L2220.26 162.229 L2214.47 162.229 L2204.75 136.303 Z" fill="#000000" fill-rule="nonzero" fill-opacity="1" /><path clip-path="url(#clip020)" d="M2258.04 148.201 L2258.04 150.284 L2238.46 150.284 Q2238.73 154.682 2241.1 156.997 Q2243.48 159.289 2247.72 159.289 Q2250.17 159.289 2252.46 158.687 Q2254.78 158.085 2257.04 156.881 L2257.04 160.909 Q2254.75 161.881 2252.35 162.391 Q2249.94 162.9 2247.46 162.9 Q2241.26 162.9 2237.62 159.289 Q2234.01 155.678 2234.01 149.52 Q2234.01 143.155 2237.44 139.428 Q2240.89 135.678 2246.72 135.678 Q2251.95 135.678 2254.98 139.057 Q2258.04 142.414 2258.04 148.201 M2253.78 146.951 Q2253.73 143.456 2251.81 141.372 Q2249.91 139.289 2246.77 139.289 Q2243.2 139.289 2241.05 141.303 Q2238.92 143.317 2238.6 146.974 L2253.78 146.951 Z" fill="#000000" fill-rule="nonzero" fill-opacity="1" /><polyline clip-path="url(#clip020)" style="stroke:#e26f46; stroke-linecap:round; stroke-linejoin:round; stroke-width:4; stroke-opacity:1; fill:none" points="1752.08,196.789 1894.15,196.789 "/>
<path clip-path="url(#clip020)" d="M1917.83 179.509 L1937.69 179.509 L1937.69 183.444 L1922.51 183.444 L1922.51 193.629 L1936.21 193.629 L1936.21 197.564 L1922.51 197.564 L1922.51 214.069 L1917.83 214.069 L1917.83 179.509 Z" fill="#000000" fill-rule="nonzero" fill-opacity="1" /><path clip-path="url(#clip020)" d="M1945.1 179.509 L1966.95 179.509 L1966.95 183.444 L1949.78 183.444 L1949.78 193.675 L1966.24 193.675 L1966.24 197.61 L1949.78 197.61 L1949.78 210.133 L1967.37 210.133 L1967.37 214.069 L1945.1 214.069 L1945.1 179.509 Z" fill="#000000" fill-rule="nonzero" fill-opacity="1" /><path clip-path="url(#clip020)" d="M1975.05 179.509 L1982.02 179.509 L1990.84 203.027 L1999.71 179.509 L2006.68 179.509 L2006.68 214.069 L2002.11 214.069 L2002.11 183.722 L1993.2 207.425 L1988.5 207.425 L1979.59 183.722 L1979.59 214.069 L1975.05 214.069 L1975.05 179.509 Z" fill="#000000" fill-rule="nonzero" fill-opacity="1" /><path clip-path="url(#clip020)" d="M2020.4 210.133 L2036.72 210.133 L2036.72 214.069 L2014.78 214.069 L2014.78 210.133 Q2017.44 207.379 2022.02 202.749 Q2026.63 198.096 2027.81 196.754 Q2030.05 194.231 2030.93 192.495 Q2031.84 190.735 2031.84 189.046 Q2031.84 186.291 2029.89 184.555 Q2027.97 182.819 2024.87 182.819 Q2022.67 182.819 2020.22 183.583 Q2017.79 184.347 2015.01 185.897 L2015.01 181.175 Q2017.83 180.041 2020.29 179.462 Q2022.74 178.884 2024.78 178.884 Q2030.15 178.884 2033.34 181.569 Q2036.54 184.254 2036.54 188.745 Q2036.54 190.874 2035.73 192.796 Q2034.94 194.694 2032.83 197.286 Q2032.25 197.958 2029.15 201.175 Q2026.05 204.37 2020.4 210.133 Z" fill="#000000" fill-rule="nonzero" fill-opacity="1" /><path clip-path="url(#clip020)" d="M2050.8 183.351 L2050.8 210.226 L2056.44 210.226 Q2063.6 210.226 2066.91 206.985 Q2070.24 203.745 2070.24 196.754 Q2070.24 189.809 2066.91 186.592 Q2063.6 183.351 2056.44 183.351 L2050.8 183.351 M2046.12 179.509 L2055.73 179.509 Q2065.77 179.509 2070.47 183.698 Q2075.17 187.865 2075.17 196.754 Q2075.17 205.689 2070.45 209.879 Q2065.73 214.069 2055.73 214.069 L2046.12 214.069 L2046.12 179.509 Z" fill="#000000" fill-rule="nonzero" fill-opacity="1" /></svg>
