<?xml version="1.0" encoding="utf-8"?>
<svg xmlns="http://www.w3.org/2000/svg" xmlns:xlink="http://www.w3.org/1999/xlink" width="600" height="400" viewBox="0 0 2400 1600">
<defs>
  <clipPath id="clip240">
    <rect x="0" y="0" width="2400" height="1600"/>
  </clipPath>
</defs>
<path clip-path="url(#clip240)" d="M0 1600 L2400 1600 L2400 0 L0 0  Z" fill="#ffffff" fill-rule="evenodd" fill-opacity="1"/>
<defs>
  <clipPath id="clip241">
    <rect x="369" y="47" width="1984" height="1377"/>
  </clipPath>
</defs>
<path clip-path="url(#clip240)" d="M369.518 1423.18 L2352.76 1423.18 L2352.76 47.2441 L369.518 47.2441  Z" fill="#ffffff" fill-rule="evenodd" fill-opacity="1"/>
<polyline clip-path="url(#clip241)" style="stroke:#000000; stroke-linecap:round; stroke-linejoin:round; stroke-width:2; stroke-opacity:0.1; fill:none" points="425.648,1423.18 425.648,47.2441 "/>
<polyline clip-path="url(#clip241)" style="stroke:#000000; stroke-linecap:round; stroke-linejoin:round; stroke-width:2; stroke-opacity:0.1; fill:none" points="1049.31,1423.18 1049.31,47.2441 "/>
<polyline clip-path="url(#clip241)" style="stroke:#000000; stroke-linecap:round; stroke-linejoin:round; stroke-width:2; stroke-opacity:0.1; fill:none" points="1672.97,1423.18 1672.97,47.2441 "/>
<polyline clip-path="url(#clip241)" style="stroke:#000000; stroke-linecap:round; stroke-linejoin:round; stroke-width:2; stroke-opacity:0.1; fill:none" points="2296.63,1423.18 2296.63,47.2441 "/>
<polyline clip-path="url(#clip241)" style="stroke:#000000; stroke-linecap:round; stroke-linejoin:round; stroke-width:2; stroke-opacity:0.1; fill:none" points="369.518,1216.23 2352.76,1216.23 "/>
<polyline clip-path="url(#clip241)" style="stroke:#000000; stroke-linecap:round; stroke-linejoin:round; stroke-width:2; stroke-opacity:0.1; fill:none" points="369.518,874.464 2352.76,874.464 "/>
<polyline clip-path="url(#clip241)" style="stroke:#000000; stroke-linecap:round; stroke-linejoin:round; stroke-width:2; stroke-opacity:0.1; fill:none" points="369.518,532.7 2352.76,532.7 "/>
<polyline clip-path="url(#clip241)" style="stroke:#000000; stroke-linecap:round; stroke-linejoin:round; stroke-width:2; stroke-opacity:0.1; fill:none" points="369.518,190.936 2352.76,190.936 "/>
<polyline clip-path="url(#clip240)" style="stroke:#000000; stroke-linecap:round; stroke-linejoin:round; stroke-width:4; stroke-opacity:1; fill:none" points="369.518,1423.18 2352.76,1423.18 "/>
<polyline clip-path="url(#clip240)" style="stroke:#000000; stroke-linecap:round; stroke-linejoin:round; stroke-width:4; stroke-opacity:1; fill:none" points="425.648,1423.18 425.648,1404.28 "/>
<polyline clip-path="url(#clip240)" style="stroke:#000000; stroke-linecap:round; stroke-linejoin:round; stroke-width:4; stroke-opacity:1; fill:none" points="1049.31,1423.18 1049.31,1404.28 "/>
<polyline clip-path="url(#clip240)" style="stroke:#000000; stroke-linecap:round; stroke-linejoin:round; stroke-width:4; stroke-opacity:1; fill:none" points="1672.97,1423.18 1672.97,1404.28 "/>
<polyline clip-path="url(#clip240)" style="stroke:#000000; stroke-linecap:round; stroke-linejoin:round; stroke-width:4; stroke-opacity:1; fill:none" points="2296.63,1423.18 2296.63,1404.28 "/>
<path clip-path="url(#clip240)" d="M425.648 1454.1 Q422.037 1454.1 420.208 1457.66 Q418.402 1461.2 418.402 1468.33 Q418.402 1475.44 420.208 1479.01 Q422.037 1482.55 425.648 1482.55 Q429.282 1482.55 431.087 1479.01 Q432.916 1475.44 432.916 1468.33 Q432.916 1461.2 431.087 1457.66 Q429.282 1454.1 425.648 1454.1 M425.648 1450.39 Q431.458 1450.39 434.513 1455 Q437.592 1459.58 437.592 1468.33 Q437.592 1477.06 434.513 1481.67 Q431.458 1486.25 425.648 1486.25 Q419.837 1486.25 416.759 1481.67 Q413.703 1477.06 413.703 1468.33 Q413.703 1459.58 416.759 1455 Q419.837 1450.39 425.648 1450.39 Z" fill="#000000" fill-rule="nonzero" fill-opacity="1" /><path clip-path="url(#clip240)" d="M1039.59 1451.02 L1057.94 1451.02 L1057.94 1454.96 L1043.87 1454.96 L1043.87 1463.43 Q1044.89 1463.08 1045.9 1462.92 Q1046.92 1462.73 1047.94 1462.73 Q1053.73 1462.73 1057.11 1465.9 Q1060.49 1469.08 1060.49 1474.49 Q1060.49 1480.07 1057.02 1483.17 Q1053.54 1486.25 1047.22 1486.25 Q1045.05 1486.25 1042.78 1485.88 Q1040.53 1485.51 1038.13 1484.77 L1038.13 1480.07 Q1040.21 1481.2 1042.43 1481.76 Q1044.65 1482.32 1047.13 1482.32 Q1051.14 1482.32 1053.47 1480.21 Q1055.81 1478.1 1055.81 1474.49 Q1055.81 1470.88 1053.47 1468.77 Q1051.14 1466.67 1047.13 1466.67 Q1045.26 1466.67 1043.38 1467.08 Q1041.53 1467.5 1039.59 1468.38 L1039.59 1451.02 Z" fill="#000000" fill-rule="nonzero" fill-opacity="1" /><path clip-path="url(#clip240)" d="M1647.65 1481.64 L1655.29 1481.64 L1655.29 1455.28 L1646.98 1456.95 L1646.98 1452.69 L1655.25 1451.02 L1659.92 1451.02 L1659.92 1481.64 L1667.56 1481.64 L1667.56 1485.58 L1647.65 1485.58 L1647.65 1481.64 Z" fill="#000000" fill-rule="nonzero" fill-opacity="1" /><path clip-path="url(#clip240)" d="M1687.01 1454.1 Q1683.4 1454.1 1681.57 1457.66 Q1679.76 1461.2 1679.76 1468.33 Q1679.76 1475.44 1681.57 1479.01 Q1683.4 1482.55 1687.01 1482.55 Q1690.64 1482.55 1692.45 1479.01 Q1694.27 1475.44 1694.27 1468.33 Q1694.27 1461.2 1692.45 1457.66 Q1690.64 1454.1 1687.01 1454.1 M1687.01 1450.39 Q1692.82 1450.39 1695.87 1455 Q1698.95 1459.58 1698.95 1468.33 Q1698.95 1477.06 1695.87 1481.67 Q1692.82 1486.25 1687.01 1486.25 Q1681.2 1486.25 1678.12 1481.67 Q1675.06 1477.06 1675.06 1468.33 Q1675.06 1459.58 1678.12 1455 Q1681.2 1450.39 1687.01 1450.39 Z" fill="#000000" fill-rule="nonzero" fill-opacity="1" /><path clip-path="url(#clip240)" d="M2271.81 1481.64 L2279.45 1481.64 L2279.45 1455.28 L2271.14 1456.95 L2271.14 1452.69 L2279.4 1451.02 L2284.08 1451.02 L2284.08 1481.64 L2291.72 1481.64 L2291.72 1485.58 L2271.81 1485.58 L2271.81 1481.64 Z" fill="#000000" fill-rule="nonzero" fill-opacity="1" /><path clip-path="url(#clip240)" d="M2301.21 1451.02 L2319.57 1451.02 L2319.57 1454.96 L2305.49 1454.96 L2305.49 1463.43 Q2306.51 1463.08 2307.53 1462.92 Q2308.55 1462.73 2309.57 1462.73 Q2315.35 1462.73 2318.73 1465.9 Q2322.11 1469.08 2322.11 1474.49 Q2322.11 1480.07 2318.64 1483.17 Q2315.17 1486.25 2308.85 1486.25 Q2306.67 1486.25 2304.4 1485.88 Q2302.16 1485.51 2299.75 1484.77 L2299.75 1480.07 Q2301.83 1481.2 2304.06 1481.76 Q2306.28 1482.32 2308.76 1482.32 Q2312.76 1482.32 2315.1 1480.21 Q2317.44 1478.1 2317.44 1474.49 Q2317.44 1470.88 2315.1 1468.77 Q2312.76 1466.67 2308.76 1466.67 Q2306.88 1466.67 2305.01 1467.08 Q2303.15 1467.5 2301.21 1468.38 L2301.21 1451.02 Z" fill="#000000" fill-rule="nonzero" fill-opacity="1" /><path clip-path="url(#clip240)" d="M1286.1 1537.87 Q1285.11 1537.3 1283.94 1537.04 Q1282.79 1536.76 1281.39 1536.76 Q1276.43 1536.76 1273.75 1540 Q1271.11 1543.22 1271.11 1549.27 L1271.11 1568.04 L1265.22 1568.04 L1265.22 1532.4 L1271.11 1532.4 L1271.11 1537.93 Q1272.96 1534.69 1275.92 1533.13 Q1278.88 1531.54 1283.11 1531.54 Q1283.71 1531.54 1284.45 1531.63 Q1285.18 1531.7 1286.07 1531.85 L1286.1 1537.87 Z" fill="#000000" fill-rule="nonzero" fill-opacity="1" /><path clip-path="url(#clip240)" d="M1327.03 1518.58 Q1322.77 1525.9 1320.7 1533.06 Q1318.63 1540.23 1318.63 1547.58 Q1318.63 1554.93 1320.7 1562.16 Q1322.8 1569.35 1327.03 1576.64 L1321.94 1576.64 Q1317.17 1569.16 1314.78 1561.93 Q1312.42 1554.71 1312.42 1547.58 Q1312.42 1540.48 1314.78 1533.29 Q1317.13 1526.09 1321.94 1518.58 L1327.03 1518.58 Z" fill="#000000" fill-rule="nonzero" fill-opacity="1" /><path clip-path="url(#clip240)" d="M1337.79 1581.6 L1337.79 1532.4 L1343.65 1532.4 L1343.65 1554.55 Q1343.65 1559.16 1345.84 1561.52 Q1348.04 1563.87 1352.34 1563.87 Q1357.05 1563.87 1359.4 1561.2 Q1361.79 1558.53 1361.79 1553.18 L1361.79 1532.4 L1367.65 1532.4 L1367.65 1559.83 Q1367.65 1561.74 1368.19 1562.66 Q1368.76 1563.56 1369.94 1563.56 Q1370.22 1563.56 1370.73 1563.4 Q1371.24 1563.21 1372.13 1562.82 L1372.13 1567.53 Q1370.83 1568.27 1369.65 1568.62 Q1368.51 1568.97 1367.39 1568.97 Q1365.2 1568.97 1363.89 1567.73 Q1362.59 1566.48 1362.11 1563.94 Q1360.52 1566.45 1358.19 1567.73 Q1355.9 1568.97 1352.78 1568.97 Q1349.54 1568.97 1347.24 1567.73 Q1344.98 1566.48 1343.65 1564 L1343.65 1581.6 L1337.79 1581.6 Z" fill="#000000" fill-rule="nonzero" fill-opacity="1" /><path clip-path="url(#clip240)" d="M1407.62 1539.24 Q1409.82 1535.29 1412.87 1533.41 Q1415.93 1531.54 1420.07 1531.54 Q1425.64 1531.54 1428.66 1535.45 Q1431.69 1539.33 1431.69 1546.53 L1431.69 1568.04 L1425.8 1568.04 L1425.8 1546.72 Q1425.8 1541.59 1423.98 1539.11 Q1422.17 1536.63 1418.44 1536.63 Q1413.89 1536.63 1411.25 1539.65 Q1408.61 1542.68 1408.61 1547.9 L1408.61 1568.04 L1402.72 1568.04 L1402.72 1546.72 Q1402.72 1541.56 1400.91 1539.11 Q1399.09 1536.63 1395.31 1536.63 Q1390.82 1536.63 1388.18 1539.68 Q1385.53 1542.71 1385.53 1547.9 L1385.53 1568.04 L1379.65 1568.04 L1379.65 1532.4 L1385.53 1532.4 L1385.53 1537.93 Q1387.54 1534.66 1390.34 1533.1 Q1393.14 1531.54 1396.99 1531.54 Q1400.87 1531.54 1403.58 1533.51 Q1406.32 1535.48 1407.62 1539.24 Z" fill="#000000" fill-rule="nonzero" fill-opacity="1" /><path clip-path="url(#clip240)" d="M1442.44 1518.58 L1447.54 1518.58 Q1452.31 1526.09 1454.67 1533.29 Q1457.05 1540.48 1457.05 1547.58 Q1457.05 1554.71 1454.67 1561.93 Q1452.31 1569.16 1447.54 1576.64 L1442.44 1576.64 Q1446.68 1569.35 1448.75 1562.16 Q1450.85 1554.93 1450.85 1547.58 Q1450.85 1540.23 1448.75 1533.06 Q1446.68 1525.9 1442.44 1518.58 Z" fill="#000000" fill-rule="nonzero" fill-opacity="1" /><polyline clip-path="url(#clip240)" style="stroke:#000000; stroke-linecap:round; stroke-linejoin:round; stroke-width:4; stroke-opacity:1; fill:none" points="369.518,1423.18 369.518,47.2441 "/>
<polyline clip-path="url(#clip240)" style="stroke:#000000; stroke-linecap:round; stroke-linejoin:round; stroke-width:4; stroke-opacity:1; fill:none" points="369.518,1216.23 388.416,1216.23 "/>
<polyline clip-path="url(#clip240)" style="stroke:#000000; stroke-linecap:round; stroke-linejoin:round; stroke-width:4; stroke-opacity:1; fill:none" points="369.518,874.464 388.416,874.464 "/>
<polyline clip-path="url(#clip240)" style="stroke:#000000; stroke-linecap:round; stroke-linejoin:round; stroke-width:4; stroke-opacity:1; fill:none" points="369.518,532.7 388.416,532.7 "/>
<polyline clip-path="url(#clip240)" style="stroke:#000000; stroke-linecap:round; stroke-linejoin:round; stroke-width:4; stroke-opacity:1; fill:none" points="369.518,190.936 388.416,190.936 "/>
<path clip-path="url(#clip240)" d="M321.574 1202.03 Q317.963 1202.03 316.134 1205.59 Q314.329 1209.13 314.329 1216.26 Q314.329 1223.37 316.134 1226.93 Q317.963 1230.48 321.574 1230.48 Q325.208 1230.48 327.014 1226.93 Q328.842 1223.37 328.842 1216.26 Q328.842 1209.13 327.014 1205.59 Q325.208 1202.03 321.574 1202.03 M321.574 1198.32 Q327.384 1198.32 330.44 1202.93 Q333.518 1207.51 333.518 1216.26 Q333.518 1224.99 330.44 1229.6 Q327.384 1234.18 321.574 1234.18 Q315.764 1234.18 312.685 1229.6 Q309.629 1224.99 309.629 1216.26 Q309.629 1207.51 312.685 1202.93 Q315.764 1198.32 321.574 1198.32 Z" fill="#000000" fill-rule="nonzero" fill-opacity="1" /><path clip-path="url(#clip240)" d="M115.718 863.631 L134.075 863.631 L134.075 867.567 L120.001 867.567 L120.001 876.039 Q121.019 875.692 122.038 875.53 Q123.056 875.344 124.075 875.344 Q129.862 875.344 133.242 878.516 Q136.621 881.687 136.621 887.104 Q136.621 892.682 133.149 895.784 Q129.677 898.863 123.357 898.863 Q121.181 898.863 118.913 898.492 Q116.668 898.122 114.26 897.381 L114.26 892.682 Q116.343 893.817 118.566 894.372 Q120.788 894.928 123.265 894.928 Q127.269 894.928 129.607 892.821 Q131.945 890.715 131.945 887.104 Q131.945 883.492 129.607 881.386 Q127.269 879.28 123.265 879.28 Q121.39 879.28 119.515 879.696 Q117.663 880.113 115.718 880.992 L115.718 863.631 Z" fill="#000000" fill-rule="nonzero" fill-opacity="1" /><path clip-path="url(#clip240)" d="M145.834 892.312 L150.718 892.312 L150.718 898.191 L145.834 898.191 L145.834 892.312 Z" fill="#000000" fill-rule="nonzero" fill-opacity="1" /><path clip-path="url(#clip240)" d="M170.903 866.71 Q167.292 866.71 165.464 870.275 Q163.658 873.817 163.658 880.946 Q163.658 888.053 165.464 891.617 Q167.292 895.159 170.903 895.159 Q174.538 895.159 176.343 891.617 Q178.172 888.053 178.172 880.946 Q178.172 873.817 176.343 870.275 Q174.538 866.71 170.903 866.71 M170.903 863.006 Q176.714 863.006 179.769 867.613 Q182.848 872.196 182.848 880.946 Q182.848 889.673 179.769 894.279 Q176.714 898.863 170.903 898.863 Q165.093 898.863 162.015 894.279 Q158.959 889.673 158.959 880.946 Q158.959 872.196 162.015 867.613 Q165.093 863.006 170.903 863.006 Z" fill="#000000" fill-rule="nonzero" fill-opacity="1" /><path clip-path="url(#clip240)" d="M201.065 866.71 Q197.454 866.71 195.625 870.275 Q193.82 873.817 193.82 880.946 Q193.82 888.053 195.625 891.617 Q197.454 895.159 201.065 895.159 Q204.699 895.159 206.505 891.617 Q208.334 888.053 208.334 880.946 Q208.334 873.817 206.505 870.275 Q204.699 866.71 201.065 866.71 M201.065 863.006 Q206.875 863.006 209.931 867.613 Q213.01 872.196 213.01 880.946 Q213.01 889.673 209.931 894.279 Q206.875 898.863 201.065 898.863 Q195.255 898.863 192.176 894.279 Q189.121 889.673 189.121 880.946 Q189.121 872.196 192.176 867.613 Q195.255 863.006 201.065 863.006 Z" fill="#000000" fill-rule="nonzero" fill-opacity="1" /><path clip-path="url(#clip240)" d="M249.398 872.729 L238.82 883.354 L249.398 893.932 L246.644 896.733 L236.019 886.108 L225.394 896.733 L222.662 893.932 L233.218 883.354 L222.662 872.729 L225.394 869.928 L236.019 880.553 L246.644 869.928 L249.398 872.729 Z" fill="#000000" fill-rule="nonzero" fill-opacity="1" /><path clip-path="url(#clip240)" d="M261.759 894.256 L269.398 894.256 L269.398 867.891 L261.088 869.557 L261.088 865.298 L269.352 863.631 L274.028 863.631 L274.028 894.256 L281.667 894.256 L281.667 898.191 L261.759 898.191 L261.759 894.256 Z" fill="#000000" fill-rule="nonzero" fill-opacity="1" /><path clip-path="url(#clip240)" d="M301.111 866.71 Q297.5 866.71 295.671 870.275 Q293.866 873.817 293.866 880.946 Q293.866 888.053 295.671 891.617 Q297.5 895.159 301.111 895.159 Q304.745 895.159 306.551 891.617 Q308.379 888.053 308.379 880.946 Q308.379 873.817 306.551 870.275 Q304.745 866.71 301.111 866.71 M301.111 863.006 Q306.921 863.006 309.977 867.613 Q313.055 872.196 313.055 880.946 Q313.055 889.673 309.977 894.279 Q306.921 898.863 301.111 898.863 Q295.301 898.863 292.222 894.279 Q289.167 889.673 289.167 880.946 Q289.167 872.196 292.222 867.613 Q295.301 863.006 301.111 863.006 Z" fill="#000000" fill-rule="nonzero" fill-opacity="1" /><path clip-path="url(#clip240)" d="M325.732 846.011 L316.14 861.001 L325.732 861.001 L325.732 846.011 M324.735 842.701 L329.512 842.701 L329.512 861.001 L333.518 861.001 L333.518 864.161 L329.512 864.161 L329.512 870.781 L325.732 870.781 L325.732 864.161 L313.055 864.161 L313.055 860.493 L324.735 842.701 Z" fill="#000000" fill-rule="nonzero" fill-opacity="1" /><path clip-path="url(#clip240)" d="M118.777 552.492 L126.416 552.492 L126.416 526.127 L118.106 527.793 L118.106 523.534 L126.369 521.867 L131.045 521.867 L131.045 552.492 L138.684 552.492 L138.684 556.427 L118.777 556.427 L118.777 552.492 Z" fill="#000000" fill-rule="nonzero" fill-opacity="1" /><path clip-path="url(#clip240)" d="M148.129 550.548 L153.013 550.548 L153.013 556.427 L148.129 556.427 L148.129 550.548 Z" fill="#000000" fill-rule="nonzero" fill-opacity="1" /><path clip-path="url(#clip240)" d="M173.198 524.946 Q169.587 524.946 167.758 528.511 Q165.953 532.053 165.953 539.182 Q165.953 546.289 167.758 549.853 Q169.587 553.395 173.198 553.395 Q176.832 553.395 178.638 549.853 Q180.466 546.289 180.466 539.182 Q180.466 532.053 178.638 528.511 Q176.832 524.946 173.198 524.946 M173.198 521.242 Q179.008 521.242 182.064 525.849 Q185.142 530.432 185.142 539.182 Q185.142 547.909 182.064 552.515 Q179.008 557.099 173.198 557.099 Q167.388 557.099 164.309 552.515 Q161.254 547.909 161.254 539.182 Q161.254 530.432 164.309 525.849 Q167.388 521.242 173.198 521.242 Z" fill="#000000" fill-rule="nonzero" fill-opacity="1" /><path clip-path="url(#clip240)" d="M203.36 524.946 Q199.749 524.946 197.92 528.511 Q196.114 532.053 196.114 539.182 Q196.114 546.289 197.92 549.853 Q199.749 553.395 203.36 553.395 Q206.994 553.395 208.8 549.853 Q210.628 546.289 210.628 539.182 Q210.628 532.053 208.8 528.511 Q206.994 524.946 203.36 524.946 M203.36 521.242 Q209.17 521.242 212.225 525.849 Q215.304 530.432 215.304 539.182 Q215.304 547.909 212.225 552.515 Q209.17 557.099 203.36 557.099 Q197.55 557.099 194.471 552.515 Q191.415 547.909 191.415 539.182 Q191.415 530.432 194.471 525.849 Q197.55 521.242 203.36 521.242 Z" fill="#000000" fill-rule="nonzero" fill-opacity="1" /><path clip-path="url(#clip240)" d="M251.693 530.965 L241.114 541.589 L251.693 552.168 L248.938 554.969 L238.313 544.344 L227.688 554.969 L224.957 552.168 L235.512 541.589 L224.957 530.965 L227.688 528.164 L238.313 538.789 L248.938 528.164 L251.693 530.965 Z" fill="#000000" fill-rule="nonzero" fill-opacity="1" /><path clip-path="url(#clip240)" d="M264.054 552.492 L271.693 552.492 L271.693 526.127 L263.383 527.793 L263.383 523.534 L271.646 521.867 L276.322 521.867 L276.322 552.492 L283.961 552.492 L283.961 556.427 L264.054 556.427 L264.054 552.492 Z" fill="#000000" fill-rule="nonzero" fill-opacity="1" /><path clip-path="url(#clip240)" d="M303.406 524.946 Q299.794 524.946 297.966 528.511 Q296.16 532.053 296.16 539.182 Q296.16 546.289 297.966 549.853 Q299.794 553.395 303.406 553.395 Q307.04 553.395 308.845 549.853 Q310.674 546.289 310.674 539.182 Q310.674 532.053 308.845 528.511 Q307.04 524.946 303.406 524.946 M303.406 521.242 Q309.216 521.242 312.271 525.849 Q315.35 530.432 315.35 539.182 Q315.35 547.909 312.271 552.515 Q309.216 557.099 303.406 557.099 Q297.595 557.099 294.517 552.515 Q291.461 547.909 291.461 539.182 Q291.461 530.432 294.517 525.849 Q297.595 521.242 303.406 521.242 Z" fill="#000000" fill-rule="nonzero" fill-opacity="1" /><path clip-path="url(#clip240)" d="M316.535 500.937 L331.449 500.937 L331.449 504.134 L320.014 504.134 L320.014 511.018 Q320.842 510.736 321.669 510.604 Q322.497 510.454 323.324 510.454 Q328.026 510.454 330.772 513.03 Q333.518 515.607 333.518 520.008 Q333.518 524.541 330.697 527.061 Q327.876 529.562 322.741 529.562 Q320.973 529.562 319.13 529.261 Q317.306 528.961 315.35 528.359 L315.35 524.541 Q317.043 525.462 318.848 525.914 Q320.654 526.365 322.666 526.365 Q325.92 526.365 327.819 524.654 Q329.719 522.942 329.719 520.008 Q329.719 517.074 327.819 515.363 Q325.92 513.651 322.666 513.651 Q321.143 513.651 319.619 513.99 Q318.115 514.328 316.535 515.043 L316.535 500.937 Z" fill="#000000" fill-rule="nonzero" fill-opacity="1" /><path clip-path="url(#clip240)" d="M118.777 210.728 L126.416 210.728 L126.416 184.363 L118.106 186.029 L118.106 181.77 L126.369 180.103 L131.045 180.103 L131.045 210.728 L138.684 210.728 L138.684 214.663 L118.777 214.663 L118.777 210.728 Z" fill="#000000" fill-rule="nonzero" fill-opacity="1" /><path clip-path="url(#clip240)" d="M148.129 208.784 L153.013 208.784 L153.013 214.663 L148.129 214.663 L148.129 208.784 Z" fill="#000000" fill-rule="nonzero" fill-opacity="1" /><path clip-path="url(#clip240)" d="M163.244 180.103 L181.601 180.103 L181.601 184.038 L167.527 184.038 L167.527 192.511 Q168.545 192.163 169.564 192.001 Q170.582 191.816 171.601 191.816 Q177.388 191.816 180.767 194.987 Q184.147 198.159 184.147 203.575 Q184.147 209.154 180.675 212.256 Q177.203 215.335 170.883 215.335 Q168.707 215.335 166.439 214.964 Q164.193 214.594 161.786 213.853 L161.786 209.154 Q163.869 210.288 166.091 210.844 Q168.314 211.399 170.791 211.399 Q174.795 211.399 177.133 209.293 Q179.471 207.186 179.471 203.575 Q179.471 199.964 177.133 197.858 Q174.795 195.751 170.791 195.751 Q168.916 195.751 167.041 196.168 Q165.189 196.585 163.244 197.464 L163.244 180.103 Z" fill="#000000" fill-rule="nonzero" fill-opacity="1" /><path clip-path="url(#clip240)" d="M203.36 183.182 Q199.749 183.182 197.92 186.747 Q196.114 190.288 196.114 197.418 Q196.114 204.524 197.92 208.089 Q199.749 211.631 203.36 211.631 Q206.994 211.631 208.8 208.089 Q210.628 204.524 210.628 197.418 Q210.628 190.288 208.8 186.747 Q206.994 183.182 203.36 183.182 M203.36 179.478 Q209.17 179.478 212.225 184.085 Q215.304 188.668 215.304 197.418 Q215.304 206.145 212.225 210.751 Q209.17 215.335 203.36 215.335 Q197.55 215.335 194.471 210.751 Q191.415 206.145 191.415 197.418 Q191.415 188.668 194.471 184.085 Q197.55 179.478 203.36 179.478 Z" fill="#000000" fill-rule="nonzero" fill-opacity="1" /><path clip-path="url(#clip240)" d="M251.693 189.2 L241.114 199.825 L251.693 210.404 L248.938 213.205 L238.313 202.58 L227.688 213.205 L224.957 210.404 L235.512 199.825 L224.957 189.2 L227.688 186.4 L238.313 197.024 L248.938 186.4 L251.693 189.2 Z" fill="#000000" fill-rule="nonzero" fill-opacity="1" /><path clip-path="url(#clip240)" d="M264.054 210.728 L271.693 210.728 L271.693 184.363 L263.383 186.029 L263.383 181.77 L271.646 180.103 L276.322 180.103 L276.322 210.728 L283.961 210.728 L283.961 214.663 L264.054 214.663 L264.054 210.728 Z" fill="#000000" fill-rule="nonzero" fill-opacity="1" /><path clip-path="url(#clip240)" d="M303.406 183.182 Q299.794 183.182 297.966 186.747 Q296.16 190.288 296.16 197.418 Q296.16 204.524 297.966 208.089 Q299.794 211.631 303.406 211.631 Q307.04 211.631 308.845 208.089 Q310.674 204.524 310.674 197.418 Q310.674 190.288 308.845 186.747 Q307.04 183.182 303.406 183.182 M303.406 179.478 Q309.216 179.478 312.271 184.085 Q315.35 188.668 315.35 197.418 Q315.35 206.145 312.271 210.751 Q309.216 215.335 303.406 215.335 Q297.595 215.335 294.517 210.751 Q291.461 206.145 291.461 197.418 Q291.461 188.668 294.517 184.085 Q297.595 179.478 303.406 179.478 Z" fill="#000000" fill-rule="nonzero" fill-opacity="1" /><path clip-path="url(#clip240)" d="M316.535 159.173 L331.449 159.173 L331.449 162.37 L320.014 162.37 L320.014 169.254 Q320.842 168.972 321.669 168.84 Q322.497 168.69 323.324 168.69 Q328.026 168.69 330.772 171.266 Q333.518 173.843 333.518 178.244 Q333.518 182.777 330.697 185.297 Q327.876 187.798 322.741 187.798 Q320.973 187.798 319.13 187.497 Q317.306 187.196 315.35 186.595 L315.35 182.777 Q317.043 183.698 318.848 184.15 Q320.654 184.601 322.666 184.601 Q325.92 184.601 327.819 182.889 Q329.719 181.178 329.719 178.244 Q329.719 175.31 327.819 173.598 Q325.92 171.887 322.666 171.887 Q321.143 171.887 319.619 172.225 Q318.115 172.564 316.535 173.279 L316.535 159.173 Z" fill="#000000" fill-rule="nonzero" fill-opacity="1" /><path clip-path="url(#clip240)" d="M33.8307 976.361 Q33.2578 977.348 33.0032 978.525 Q32.7167 979.671 32.7167 981.071 Q32.7167 986.037 35.9632 988.71 Q39.1779 991.352 45.2253 991.352 L64.0042 991.352 L64.0042 997.24 L28.3562 997.24 L28.3562 991.352 L33.8944 991.352 Q30.6479 989.506 29.0883 986.546 Q27.4968 983.586 27.4968 979.353 Q27.4968 978.748 27.5923 978.016 Q27.656 977.284 27.8151 976.393 L33.8307 976.361 Z" fill="#000000" fill-rule="nonzero" fill-opacity="1" /><path clip-path="url(#clip240)" d="M44.7161 941.158 L47.5806 941.158 L47.5806 968.085 Q53.6281 967.703 56.8109 964.457 Q59.9619 961.179 59.9619 955.354 Q59.9619 951.98 59.1344 948.829 Q58.3069 945.646 56.6518 942.527 L62.1899 942.527 Q63.5267 945.678 64.227 948.988 Q64.9272 952.298 64.9272 955.704 Q64.9272 964.234 59.9619 969.231 Q54.9967 974.197 46.5303 974.197 Q37.7774 974.197 32.6531 969.486 Q27.4968 964.743 27.4968 956.723 Q27.4968 949.529 32.1438 945.36 Q36.7589 941.158 44.7161 941.158 M42.9973 947.015 Q38.1912 947.079 35.3266 949.72 Q32.4621 952.33 32.4621 956.659 Q32.4621 961.561 35.2312 964.521 Q38.0002 967.449 43.0292 967.894 L42.9973 947.015 Z" fill="#000000" fill-rule="nonzero" fill-opacity="1" /><path clip-path="url(#clip240)" d="M46.0847 915.346 Q46.0847 922.443 47.7079 925.181 Q49.3312 927.918 53.2461 927.918 Q56.3653 927.918 58.2114 925.881 Q60.0256 923.812 60.0256 920.279 Q60.0256 915.409 56.5881 912.481 Q53.1188 909.521 47.3897 909.521 L46.0847 909.521 L46.0847 915.346 M43.6657 903.664 L64.0042 903.664 L64.0042 909.521 L58.5933 909.521 Q61.8398 911.526 63.3994 914.518 Q64.9272 917.51 64.9272 921.839 Q64.9272 927.313 61.8716 930.56 Q58.7843 933.774 53.6281 933.774 Q47.6125 933.774 44.5569 929.764 Q41.5014 925.722 41.5014 917.733 L41.5014 909.521 L40.9285 909.521 Q36.8862 909.521 34.6901 912.195 Q32.4621 914.836 32.4621 919.642 Q32.4621 922.698 33.1941 925.594 Q33.9262 928.491 35.3903 931.164 L29.9795 931.164 Q28.7381 927.95 28.1334 924.926 Q27.4968 921.902 27.4968 919.038 Q27.4968 911.303 31.5072 907.484 Q35.5176 903.664 43.6657 903.664 Z" fill="#000000" fill-rule="nonzero" fill-opacity="1" /><path clip-path="url(#clip240)" d="M14.479 891.601 L14.479 885.745 L64.0042 885.745 L64.0042 891.601 L14.479 891.601 Z" fill="#000000" fill-rule="nonzero" fill-opacity="1" /><path clip-path="url(#clip240)" d="M14.5426 859.423 Q21.8632 863.688 29.0246 865.757 Q36.186 867.826 43.5384 867.826 Q50.8908 867.826 58.1159 865.757 Q65.3091 863.656 72.5979 859.423 L72.5979 864.515 Q65.1182 869.29 57.8931 871.677 Q50.668 874.032 43.5384 874.032 Q36.4406 874.032 29.2474 871.677 Q22.0542 869.321 14.5426 864.515 L14.5426 859.423 Z" fill="#000000" fill-rule="nonzero" fill-opacity="1" /><path clip-path="url(#clip240)" d="M16.4842 847.805 L16.4842 817.759 L21.895 817.759 L21.895 841.376 L35.9632 841.376 L35.9632 818.746 L41.3741 818.746 L41.3741 841.376 L58.5933 841.376 L58.5933 817.186 L64.0042 817.186 L64.0042 847.805 L16.4842 847.805 Z" fill="#000000" fill-rule="nonzero" fill-opacity="1" /><path clip-path="url(#clip240)" d="M14.5426 807.797 L14.5426 802.704 Q22.0542 797.93 29.2474 795.575 Q36.4406 793.188 43.5384 793.188 Q50.668 793.188 57.8931 795.575 Q65.1182 797.93 72.5979 802.704 L72.5979 807.797 Q65.3091 803.564 58.1159 801.495 Q50.8908 799.394 43.5384 799.394 Q36.186 799.394 29.0246 801.495 Q21.8632 803.564 14.5426 807.797 Z" fill="#000000" fill-rule="nonzero" fill-opacity="1" /><path clip-path="url(#clip240)" d="M14.5426 746.654 Q21.8632 750.919 29.0246 752.988 Q36.186 755.057 43.5384 755.057 Q50.8908 755.057 58.1159 752.988 Q65.3091 750.888 72.5979 746.654 L72.5979 751.747 Q65.1182 756.521 57.8931 758.908 Q50.668 761.264 43.5384 761.264 Q36.4406 761.264 29.2474 758.908 Q22.0542 756.553 14.5426 751.747 L14.5426 746.654 Z" fill="#000000" fill-rule="nonzero" fill-opacity="1" /><path clip-path="url(#clip240)" d="M64.0042 722.783 L16.4842 740.925 L16.4842 734.209 L56.4926 719.154 L16.4842 704.068 L16.4842 697.384 L64.0042 715.494 L64.0042 722.783 Z" fill="#000000" fill-rule="nonzero" fill-opacity="1" /><path clip-path="url(#clip240)" d="M35.1993 642.225 Q31.2526 640.029 29.3747 636.973 Q27.4968 633.918 27.4968 629.78 Q27.4968 624.21 31.4117 621.186 Q35.2948 618.163 42.4881 618.163 L64.0042 618.163 L64.0042 624.051 L42.679 624.051 Q37.5546 624.051 35.072 625.865 Q32.5894 627.679 32.5894 631.403 Q32.5894 635.955 35.6131 638.596 Q38.6368 641.238 43.8567 641.238 L64.0042 641.238 L64.0042 647.127 L42.679 647.127 Q37.5228 647.127 35.072 648.941 Q32.5894 650.755 32.5894 654.543 Q32.5894 659.03 35.6449 661.672 Q38.6686 664.314 43.8567 664.314 L64.0042 664.314 L64.0042 670.202 L28.3562 670.202 L28.3562 664.314 L33.8944 664.314 Q30.616 662.309 29.0564 659.508 Q27.4968 656.707 27.4968 652.856 Q27.4968 648.973 29.4702 646.267 Q31.4436 643.53 35.1993 642.225 Z" fill="#000000" fill-rule="nonzero" fill-opacity="1" /><path clip-path="url(#clip240)" d="M16.4842 582.196 L34.2127 564.913 L34.2127 571.311 L21.6404 585.315 L34.2127 599.32 L34.2127 605.718 L16.4842 588.435 L16.4842 582.196 Z" fill="#000000" fill-rule="nonzero" fill-opacity="1" /><path clip-path="url(#clip240)" d="M43.5384 554.824 L43.5384 537.668 L48.7583 537.668 L48.7583 554.824 L43.5384 554.824 Z" fill="#000000" fill-rule="nonzero" fill-opacity="1" /><path clip-path="url(#clip240)" d="M58.5933 526.401 L58.5933 515.897 L22.3406 515.897 L24.6323 527.324 L18.7758 527.324 L16.4842 515.961 L16.4842 509.532 L58.5933 509.532 L58.5933 499.028 L64.0042 499.028 L64.0042 526.401 L58.5933 526.401 Z" fill="#000000" fill-rule="nonzero" fill-opacity="1" /><path clip-path="url(#clip240)" d="M14.5426 487.793 L14.5426 482.7 Q22.0542 477.926 29.2474 475.571 Q36.4406 473.184 43.5384 473.184 Q50.668 473.184 57.8931 475.571 Q65.1182 477.926 72.5979 482.7 L72.5979 487.793 Q65.3091 483.56 58.1159 481.491 Q50.8908 479.39 43.5384 479.39 Q36.186 479.39 29.0246 481.491 Q21.8632 483.56 14.5426 487.793 Z" fill="#000000" fill-rule="nonzero" fill-opacity="1" /><polyline clip-path="url(#clip241)" style="stroke:#009af9; stroke-linecap:round; stroke-linejoin:round; stroke-width:4; stroke-opacity:1; fill:none" points="425.648,86.1857 426.895,86.1931 428.142,86.2154 429.39,86.2526 430.637,86.3047 431.884,86.3716 433.132,86.4534 434.379,86.55 435.626,86.6616 436.873,86.788 438.121,86.9292 439.368,87.0853 440.615,87.2563 441.863,87.4421 443.11,87.6428 444.357,87.8583 445.605,88.0887 446.852,88.3339 448.099,88.5939 449.347,88.8688 450.594,89.1584 451.841,89.4629 453.089,89.7822 454.336,90.1163 455.583,90.4652 456.831,90.8289 458.078,91.2074 459.325,91.6006 460.573,92.0086 461.82,92.4314 463.067,92.8689 464.315,93.3212 465.562,93.7882 466.809,94.2699 468.056,94.7663 469.304,95.2774 470.551,95.8033 471.798,96.3438 473.046,96.899 474.293,97.4688 475.54,98.0533 476.788,98.6524 478.035,99.2662 479.282,99.8946 480.53,100.538 481.777,101.195 483.024,101.867 484.272,102.554 485.519,103.255 486.766,103.971 488.014,104.701 489.261,105.446 490.508,106.206 491.756,106.979 493.003,107.768 494.25,108.57 495.497,109.388 496.745,110.219 497.992,111.065 499.239,111.925 500.487,112.8 501.734,113.689 502.981,114.593 504.229,115.51 505.476,116.442 506.723,117.389 507.971,118.349 509.218,119.324 510.465,120.313 511.713,121.316 512.96,122.333 514.207,123.365 515.455,124.411 516.702,125.47 517.949,126.544 519.197,127.632 520.444,128.734 521.691,129.85 522.939,130.98 524.186,132.125 525.433,133.283 526.68,134.455 527.928,135.64 529.175,136.84 530.422,138.054 531.67,139.281 532.917,140.523 534.164,141.778 535.412,143.047 536.659,144.33 537.906,145.626 539.154,146.936 540.401,148.26 541.648,149.597 542.896,150.948 544.143,152.313 545.39,153.691 546.638,155.083 547.885,156.488 549.132,157.907 550.38,159.339 551.627,160.785 552.874,162.244 554.121,163.716 555.369,165.202 556.616,166.701 557.863,168.214 559.111,169.739 560.358,171.278 561.605,172.83 562.853,174.396 564.1,175.974 565.347,177.566 566.595,179.17 567.842,180.788 569.089,182.418 570.337,184.062 571.584,185.718 572.831,187.388 574.079,189.07 575.326,190.765 576.573,192.473 577.821,194.194 579.068,195.928 580.315,197.674 581.563,199.433 582.81,201.204 584.057,202.989 585.304,204.785 586.552,206.595 587.799,208.416 589.046,210.251 590.294,212.097 591.541,213.956 592.788,215.828 594.036,217.712 595.283,219.608 596.53,221.516 597.778,223.436 599.025,225.369 600.272,227.314 601.52,229.271 602.767,231.24 604.014,233.221 605.262,235.214 606.509,237.219 607.756,239.236 609.004,241.264 610.251,243.305 611.498,245.357 612.746,247.421 613.993,249.497 615.24,251.584 616.487,253.683 617.735,255.794 618.982,257.916 620.229,260.05 621.477,262.195 622.724,264.351 623.971,266.519 625.219,268.698 626.466,270.889 627.713,273.091 628.961,275.304 630.208,277.528 631.455,279.763 632.703,282.009 633.95,284.266 635.197,286.535 636.445,288.814 637.692,291.104 638.939,293.405 640.187,295.717 641.434,298.04 642.681,300.373 643.928,302.717 645.176,305.071 646.423,307.436 647.67,309.812 648.918,312.198 650.165,314.595 651.412,317.002 652.66,319.419 653.907,321.847 655.154,324.285 656.402,326.733 657.649,329.191 658.896,331.659 660.144,334.138 661.391,336.626 662.638,339.124 663.886,341.633 665.133,344.151 666.38,346.679 667.628,349.217 668.875,351.764 670.122,354.321 671.37,356.888 672.617,359.464 673.864,362.05 675.111,364.645 676.359,367.25 677.606,369.864 678.853,372.487 680.101,375.12 681.348,377.762 682.595,380.413 683.843,383.073 685.09,385.742 686.337,388.42 687.585,391.108 688.832,393.804 690.079,396.509 691.327,399.222 692.574,401.945 693.821,404.676 695.069,407.416 696.316,410.164 697.563,412.921 698.811,415.686 700.058,418.46 701.305,421.242 702.552,424.033 703.8,426.832 705.047,429.639 706.294,432.454 707.542,435.277 708.789,438.108 710.036,440.948 711.284,443.795 712.531,446.65 713.778,449.513 715.026,452.384 716.273,455.262 717.52,458.148 718.768,461.042 720.015,463.943 721.262,466.852 722.51,469.768 723.757,472.692 725.004,475.622 726.252,478.561 727.499,481.506 728.746,484.458 729.994,487.418 731.241,490.385 732.488,493.358 733.735,496.339 734.983,499.326 736.23,502.321 737.477,505.322 738.725,508.329 739.972,511.344 741.219,514.365 742.467,517.392 743.714,520.426 744.961,523.466 746.209,526.513 747.456,529.566 748.703,532.625 749.951,535.69 751.198,538.762 752.445,541.839 753.693,544.923 754.94,548.012 756.187,551.108 757.435,554.209 758.682,557.316 759.929,560.428 761.176,563.546 762.424,566.67 763.671,569.8 764.918,572.934 766.166,576.075 767.413,579.22 768.66,582.371 769.908,585.527 771.155,588.688 772.402,591.854 773.65,595.026 774.897,598.202 776.144,601.383 777.392,604.569 778.639,607.76 779.886,610.956 781.134,614.156 782.381,617.361 783.628,620.57 784.876,623.784 786.123,627.003 787.37,630.225 788.618,633.452 789.865,636.684 791.112,639.919 792.359,643.159 793.607,646.402 794.854,649.65 796.101,652.902 797.349,656.157 798.596,659.416 799.843,662.679 801.091,665.946 802.338,669.216 803.585,672.49 804.833,675.768 806.08,679.048 807.327,682.333 808.575,685.62 809.822,688.911 811.069,692.205 812.317,695.502 813.564,698.802 814.811,702.105 816.059,705.411 817.306,708.72 818.553,712.032 819.801,715.347 821.048,718.664 822.295,721.984 823.542,725.306 824.79,728.631 826.037,731.959 827.284,735.288 828.532,738.62 829.779,741.955 831.026,745.291 832.274,748.63 833.521,751.971 834.768,755.313 836.016,758.658 837.263,762.005 838.51,765.353 839.758,768.703 841.005,772.055 842.252,775.408 843.5,778.763 844.747,782.12 845.994,785.478 847.242,788.837 848.489,792.198 849.736,795.559 850.983,798.922 852.231,802.287 853.478,805.652 854.725,809.018 855.973,812.385 857.22,815.753 858.467,819.122 859.715,822.492 860.962,825.862 862.209,829.233 863.457,832.604 864.704,835.976 865.951,839.348 867.199,842.721 868.446,846.094 869.693,849.467 870.941,852.841 872.188,856.214 873.435,859.588 874.683,862.961 875.93,866.335 877.177,869.708 878.425,873.081 879.672,876.454 880.919,879.827 882.166,883.199 883.414,886.571 884.661,889.942 885.908,893.313 887.156,896.683 888.403,900.052 889.65,903.421 890.898,906.789 892.145,910.156 893.392,913.522 894.64,916.886 895.887,920.25 897.134,923.613 898.382,926.975 899.629,930.335 900.876,933.694 902.124,937.052 903.371,940.408 904.618,943.762 905.866,947.116 907.113,950.467 908.36,953.817 909.607,957.165 910.855,960.511 912.102,963.856 913.349,967.198 914.597,970.538 915.844,973.877 917.091,977.213 918.339,980.547 919.586,983.879 920.833,987.209 922.081,990.536 923.328,993.861 924.575,997.183 925.823,1000.48 927.07,1003.72 928.317,1006.92 929.565,1010.07 930.812,1013.17 932.059,1016.22 933.307,1019.23 934.554,1022.19 935.801,1025.1 937.049,1027.97 938.296,1030.8 939.543,1033.58 940.79,1036.32 942.038,1039.02 943.285,1041.68 944.532,1044.3 945.78,1046.88 947.027,1049.42 948.274,1051.92 949.522,1054.38 950.769,1056.81 952.016,1059.2 953.264,1061.55 954.511,1063.87 955.758,1066.15 957.006,1068.4 958.253,1070.61 959.5,1072.79 960.748,1074.94 961.995,1077.05 963.242,1079.14 964.49,1081.19 965.737,1083.21 966.984,1085.2 968.231,1087.15 969.479,1089.08 970.726,1090.98 971.973,1092.86 973.221,1094.7 974.468,1096.51 975.715,1098.3 976.963,1100.06 978.21,1101.8 979.457,1103.51 980.705,1105.19 981.952,1106.84 983.199,1108.48 984.447,1110.08 985.694,1111.67 986.941,1113.23 988.189,1114.76 989.436,1116.27 990.683,1117.76 991.931,1119.23 993.178,1120.68 994.425,1122.1 995.673,1123.5 996.92,1124.88 998.167,1126.24 999.414,1127.58 1000.66,1128.9 1001.91,1130.2 1003.16,1131.48 1004.4,1132.74 1005.65,1133.98 1006.9,1135.2 1008.15,1136.41 1009.39,1137.59 1010.64,1138.76 1011.89,1139.91 1013.13,1141.05 1014.38,1142.16 1015.63,1143.26 1016.88,1144.35 1018.12,1145.41 1019.37,1146.46 1020.62,1147.5 1021.87,1148.52 1023.11,1149.52 1024.36,1150.51 1025.61,1151.49 1026.86,1152.45 1028.1,1153.39 1029.35,1154.32 1030.6,1155.24 1031.84,1156.14 1033.09,1157.03 1034.34,1157.91 1035.59,1158.77 1036.83,1159.62 1038.08,1160.46 1039.33,1161.29 1040.58,1162.1 1041.82,1162.9 1043.07,1163.69 1044.32,1164.46 1045.57,1165.23 1046.81,1165.98 1048.06,1166.72 1049.31,1167.46 1050.55,1168.18 1051.8,1168.88 1053.05,1169.58 1054.3,1170.27 1055.54,1170.95 1056.79,1171.62 1058.04,1172.27 1059.29,1172.92 1060.53,1173.56 1061.78,1174.19 1063.03,1174.81 1064.28,1175.42 1065.52,1176.02 1066.77,1176.61 1068.02,1177.19 1069.26,1177.77 1070.51,1178.33 1071.76,1178.89 1073.01,1179.44 1074.25,1179.98 1075.5,1180.51 1076.75,1181.04 1078,1181.55 1079.24,1182.06 1080.49,1182.56 1081.74,1183.06 1082.98,1183.54 1084.23,1184.02 1085.48,1184.49 1086.73,1184.96 1087.97,1185.42 1089.22,1185.87 1090.47,1186.31 1091.72,1186.75 1092.96,1187.18 1094.21,1187.6 1095.46,1188.02 1096.71,1188.43 1097.95,1188.84 1099.2,1189.24 1100.45,1189.63 1101.69,1190.02 1102.94,1190.4 1104.19,1190.78 1105.44,1191.15 1106.68,1191.51 1107.93,1191.87 1109.18,1192.23 1110.43,1192.57 1111.67,1192.92 1112.92,1193.26 1114.17,1193.59 1115.42,1193.92 1116.66,1194.24 1117.91,1194.56 1119.16,1194.87 1120.4,1195.18 1121.65,1195.49 1122.9,1195.79 1124.15,1196.08 1125.39,1196.37 1126.64,1196.66 1127.89,1196.94 1129.14,1197.22 1130.38,1197.49 1131.63,1197.76 1132.88,1198.02 1134.12,1198.29 1135.37,1198.54 1136.62,1198.8 1137.87,1199.05 1139.11,1199.29 1140.36,1199.53 1141.61,1199.77 1142.86,1200.01 1144.1,1200.24 1145.35,1200.47 1146.6,1200.69 1147.85,1200.91 1149.09,1201.13 1150.34,1201.34 1151.59,1201.55 1152.83,1201.76 1154.08,1201.97 1155.33,1202.17 1156.58,1202.37 1157.82,1202.56 1159.07,1202.75 1160.32,1202.94 1161.57,1203.13 1162.81,1203.31 1164.06,1203.49 1165.31,1203.67 1166.56,1203.85 1167.8,1204.02 1169.05,1204.19 1170.3,1204.35 1171.54,1204.52 1172.79,1204.68 1174.04,1204.84 1175.29,1205 1176.53,1205.15 1177.78,1205.3 1179.03,1205.45 1180.28,1205.6 1181.52,1205.75 1182.77,1205.89 1184.02,1206.03 1185.27,1206.17 1186.51,1206.3 1187.76,1206.44 1189.01,1206.57 1190.25,1206.7 1191.5,1206.83 1192.75,1206.95 1194,1207.08 1195.24,1207.2 1196.49,1207.32 1197.74,1207.43 1198.99,1207.55 1200.23,1207.66 1201.48,1207.78 1202.73,1207.89 1203.97,1208 1205.22,1208.1 1206.47,1208.21 1207.72,1208.31 1208.96,1208.41 1210.21,1208.51 1211.46,1208.61 1212.71,1208.71 1213.95,1208.8 1215.2,1208.89 1216.45,1208.99 1217.7,1209.08 1218.94,1209.17 1220.19,1209.25 1221.44,1209.34 1222.68,1209.42 1223.93,1209.5 1225.18,1209.59 1226.43,1209.67 1227.67,1209.74 1228.92,1209.82 1230.17,1209.9 1231.42,1209.97 1232.66,1210.04 1233.91,1210.12 1235.16,1210.19 1236.41,1210.26 1237.65,1210.32 1238.9,1210.39 1240.15,1210.46 1241.39,1210.52 1242.64,1210.58 1243.89,1210.64 1245.14,1210.7 1246.38,1210.76 1247.63,1210.82 1248.88,1210.88 1250.13,1210.94 1251.37,1210.99 1252.62,1211.04 1253.87,1211.1 1255.11,1211.15 1256.36,1211.2 1257.61,1211.25 1258.86,1211.3 1260.1,1211.34 1261.35,1211.39 1262.6,1211.43 1263.85,1211.48 1265.09,1211.52 1266.34,1211.56 1267.59,1211.61 1268.84,1211.65 1270.08,1211.69 1271.33,1211.72 1272.58,1211.76 1273.82,1211.8 1275.07,1211.83 1276.32,1211.87 1277.57,1211.9 1278.81,1211.94 1280.06,1211.97 1281.31,1212 1282.56,1212.03 1283.8,1212.06 1285.05,1212.09 1286.3,1212.12 1287.55,1212.14 1288.79,1212.17 1290.04,1212.19 1291.29,1212.22 1292.53,1212.24 1293.78,1212.27 1295.03,1212.29 1296.28,1212.31 1297.52,1212.33 1298.77,1212.35 1300.02,1212.37 1301.27,1212.39 1302.51,1212.41 1303.76,1212.43 1305.01,1212.44 1306.26,1212.46 1307.5,1212.48 1308.75,1212.5 1310,1212.52 1311.24,1212.54 1312.49,1212.56 1313.74,1212.57 1314.99,1212.59 1316.23,1212.61 1317.48,1212.63 1318.73,1212.65 1319.98,1212.66 1321.22,1212.68 1322.47,1212.7 1323.72,1212.72 1324.96,1212.73 1326.21,1212.75 1327.46,1212.77 1328.71,1212.78 1329.95,1212.8 1331.2,1212.82 1332.45,1212.84 1333.7,1212.85 1334.94,1212.87 1336.19,1212.89 1337.44,1212.9 1338.69,1212.92 1339.93,1212.93 1341.18,1212.95 1342.43,1212.97 1343.67,1212.98 1344.92,1213 1346.17,1213.02 1347.42,1213.03 1348.66,1213.05 1349.91,1213.06 1351.16,1213.08 1352.41,1213.09 1353.65,1213.11 1354.9,1213.12 1356.15,1213.14 1357.4,1213.15 1358.64,1213.17 1359.89,1213.19 1361.14,1213.2 1362.38,1213.21 1363.63,1213.23 1364.88,1213.24 1366.13,1213.26 1367.37,1213.27 1368.62,1213.29 1369.87,1213.3 1371.12,1213.32 1372.36,1213.33 1373.61,1213.35 1374.86,1213.36 1376.1,1213.37 1377.35,1213.39 1378.6,1213.4 1379.85,1213.42 1381.09,1213.43 1382.34,1213.44 1383.59,1213.46 1384.84,1213.47 1386.08,1213.48 1387.33,1213.5 1388.58,1213.51 1389.83,1213.52 1391.07,1213.54 1392.32,1213.55 1393.57,1213.56 1394.81,1213.58 1396.06,1213.59 1397.31,1213.6 1398.56,1213.62 1399.8,1213.63 1401.05,1213.64 1402.3,1213.65 1403.55,1213.67 1404.79,1213.68 1406.04,1213.69 1407.29,1213.7 1408.54,1213.72 1409.78,1213.73 1411.03,1213.74 1412.28,1213.75 1413.52,1213.76 1414.77,1213.78 1416.02,1213.79 1417.27,1213.8 1418.51,1213.81 1419.76,1213.82 1421.01,1213.84 1422.26,1213.85 1423.5,1213.86 1424.75,1213.87 1426,1213.88 1427.24,1213.89 1428.49,1213.91 1429.74,1213.92 1430.99,1213.93 1432.23,1213.94 1433.48,1213.95 1434.73,1213.96 1435.98,1213.97 1437.22,1213.98 1438.47,1213.99 1439.72,1214.01 1440.97,1214.02 1442.21,1214.03 1443.46,1214.04 1444.71,1214.05 1445.95,1214.06 1447.2,1214.07 1448.45,1214.08 1449.7,1214.09 1450.94,1214.1 1452.19,1214.11 1453.44,1214.12 1454.69,1214.13 1455.93,1214.14 1457.18,1214.15 1458.43,1214.16 1459.68,1214.17 1460.92,1214.18 1462.17,1214.19 1463.42,1214.2 1464.66,1214.21 1465.91,1214.22 1467.16,1214.23 1468.41,1214.24 1469.65,1214.25 1470.9,1214.26 1472.15,1214.27 1473.4,1214.28 1474.64,1214.29 1475.89,1214.3 1477.14,1214.31 1478.39,1214.32 1479.63,1214.33 1480.88,1214.34 1482.13,1214.34 1483.37,1214.35 1484.62,1214.36 1485.87,1214.37 1487.12,1214.38 1488.36,1214.39 1489.61,1214.4 1490.86,1214.41 1492.11,1214.42 1493.35,1214.43 1494.6,1214.43 1495.85,1214.44 1497.09,1214.45 1498.34,1214.46 1499.59,1214.47 1500.84,1214.48 1502.08,1214.49 1503.33,1214.49 1504.58,1214.5 1505.83,1214.51 1507.07,1214.52 1508.32,1214.53 1509.57,1214.54 1510.82,1214.54 1512.06,1214.55 1513.31,1214.56 1514.56,1214.57 1515.8,1214.58 1517.05,1214.58 1518.3,1214.59 1519.55,1214.6 1520.79,1214.61 1522.04,1214.62 1523.29,1214.62 1524.54,1214.63 1525.78,1214.64 1527.03,1214.65 1528.28,1214.65 1529.53,1214.66 1530.77,1214.67 1532.02,1214.68 1533.27,1214.68 1534.51,1214.69 1535.76,1214.7 1537.01,1214.71 1538.26,1214.71 1539.5,1214.72 1540.75,1214.73 1542,1214.74 1543.25,1214.74 1544.49,1214.75 1545.74,1214.76 1546.99,1214.76 1548.23,1214.77 1549.48,1214.78 1550.73,1214.79 1551.98,1214.79 1553.22,1214.8 1554.47,1214.81 1555.72,1214.81 1556.97,1214.82 1558.21,1214.83 1559.46,1214.83 1560.71,1214.84 1561.96,1214.85 1563.2,1214.85 1564.45,1214.86 1565.7,1214.87 1566.94,1214.87 1568.19,1214.88 1569.44,1214.89 1570.69,1214.89 1571.93,1214.9 1573.18,1214.9 1574.43,1214.91 1575.68,1214.92 1576.92,1214.92 1578.17,1214.93 1579.42,1214.94 1580.67,1214.94 1581.91,1214.95 1583.16,1214.95 1584.41,1214.96 1585.65,1214.97 1586.9,1214.97 1588.15,1214.98 1589.4,1214.99 1590.64,1214.99 1591.89,1215 1593.14,1215 1594.39,1215.01 1595.63,1215.01 1596.88,1215.02 1598.13,1215.03 1599.38,1215.03 1600.62,1215.04 1601.87,1215.04 1603.12,1215.05 1604.36,1215.05 1605.61,1215.06 1606.86,1215.07 1608.11,1215.07 1609.35,1215.08 1610.6,1215.08 1611.85,1215.09 1613.1,1215.09 1614.34,1215.1 1615.59,1215.1 1616.84,1215.11 1618.08,1215.12 1619.33,1215.12 1620.58,1215.13 1621.83,1215.13 1623.07,1215.14 1624.32,1215.14 1625.57,1215.15 1626.82,1215.15 1628.06,1215.16 1629.31,1215.16 1630.56,1215.17 1631.81,1215.17 1633.05,1215.18 1634.3,1215.18 1635.55,1215.19 1636.79,1215.19 1638.04,1215.2 1639.29,1215.2 1640.54,1215.21 1641.78,1215.21 1643.03,1215.22 1644.28,1215.22 1645.53,1215.23 1646.77,1215.23 1648.02,1215.24 1649.27,1215.24 1650.52,1215.25 1651.76,1215.25 1653.01,1215.25 1654.26,1215.26 1655.5,1215.26 1656.75,1215.27 1658,1215.27 1659.25,1215.28 1660.49,1215.28 1661.74,1215.29 1662.99,1215.29 1664.24,1215.3 1665.48,1215.3 1666.73,1215.3 1667.98,1215.31 1669.22,1215.31 1670.47,1215.32 1671.72,1215.32 1672.97,1215.33 1674.21,1215.33 1675.46,1215.33 1676.71,1215.34 1677.96,1215.34 1679.2,1215.35 1680.45,1215.35 1681.7,1215.36 1682.95,1215.36 1684.19,1215.36 1685.44,1215.37 1686.69,1215.37 1687.93,1215.38 1689.18,1215.38 1690.43,1215.38 1691.68,1215.39 1692.92,1215.39 1694.17,1215.4 1695.42,1215.4 1696.67,1215.4 1697.91,1215.41 1699.16,1215.41 1700.41,1215.42 1701.66,1215.42 1702.9,1215.42 1704.15,1215.43 1705.4,1215.43 1706.64,1215.43 1707.89,1215.44 1709.14,1215.44 1710.39,1215.45 1711.63,1215.45 1712.88,1215.45 1714.13,1215.46 1715.38,1215.46 1716.62,1215.46 1717.87,1215.47 1719.12,1215.47 1720.37,1215.48 1721.61,1215.48 1722.86,1215.48 1724.11,1215.49 1725.35,1215.49 1726.6,1215.49 1727.85,1215.5 1729.1,1215.5 1730.34,1215.5 1731.59,1215.51 1732.84,1215.51 1734.09,1215.51 1735.33,1215.52 1736.58,1215.52 1737.83,1215.52 1739.07,1215.53 1740.32,1215.53 1741.57,1215.53 1742.82,1215.54 1744.06,1215.54 1745.31,1215.54 1746.56,1215.55 1747.81,1215.55 1749.05,1215.55 1750.3,1215.56 1751.55,1215.56 1752.8,1215.56 1754.04,1215.57 1755.29,1215.57 1756.54,1215.57 1757.78,1215.58 1759.03,1215.58 1760.28,1215.58 1761.53,1215.58 1762.77,1215.59 1764.02,1215.59 1765.27,1215.59 1766.52,1215.6 1767.76,1215.6 1769.01,1215.6 1770.26,1215.61 1771.51,1215.61 1772.75,1215.61 1774,1215.61 1775.25,1215.62 1776.49,1215.62 1777.74,1215.62 1778.99,1215.63 1780.24,1215.63 1781.48,1215.63 1782.73,1215.63 1783.98,1215.64 1785.23,1215.64 1786.47,1215.64 1787.72,1215.64 1788.97,1215.65 1790.21,1215.65 1791.46,1215.65 1792.71,1215.66 1793.96,1215.66 1795.2,1215.66 1796.45,1215.66 1797.7,1215.67 1798.95,1215.67 1800.19,1215.67 1801.44,1215.67 1802.69,1215.68 1803.94,1215.68 1805.18,1215.68 1806.43,1215.68 1807.68,1215.69 1808.92,1215.69 1810.17,1215.69 1811.42,1215.69 1812.67,1215.7 1813.91,1215.7 1815.16,1215.7 1816.41,1215.7 1817.66,1215.71 1818.9,1215.71 1820.15,1215.71 1821.4,1215.71 1822.65,1215.72 1823.89,1215.72 1825.14,1215.72 1826.39,1215.72 1827.63,1215.73 1828.88,1215.73 1830.13,1215.73 1831.38,1215.73 1832.62,1215.74 1833.87,1215.74 1835.12,1215.74 1836.37,1215.74 1837.61,1215.74 1838.86,1215.75 1840.11,1215.75 1841.35,1215.75 1842.6,1215.75 1843.85,1215.76 1845.1,1215.76 1846.34,1215.76 1847.59,1215.76 1848.84,1215.76 1850.09,1215.77 1851.33,1215.77 1852.58,1215.77 1853.83,1215.77 1855.08,1215.78 1856.32,1215.78 1857.57,1215.78 1858.82,1215.78 1860.06,1215.78 1861.31,1215.79 1862.56,1215.79 1863.81,1215.79 1865.05,1215.79 1866.3,1215.79 1867.55,1215.8 1868.8,1215.8 1870.04,1215.8 1871.29,1215.8 1872.54,1215.8 1873.79,1215.81 1875.03,1215.81 1876.28,1215.81 1877.53,1215.81 1878.77,1215.81 1880.02,1215.82 1881.27,1215.82 1882.52,1215.82 1883.76,1215.82 1885.01,1215.82 1886.26,1215.83 1887.51,1215.83 1888.75,1215.83 1890,1215.83 1891.25,1215.83 1892.5,1215.83 1893.74,1215.84 1894.99,1215.84 1896.24,1215.84 1897.48,1215.84 1898.73,1215.84 1899.98,1215.85 1901.23,1215.85 1902.47,1215.85 1903.72,1215.85 1904.97,1215.85 1906.22,1215.85 1907.46,1215.86 1908.71,1215.86 1909.96,1215.86 1911.2,1215.86 1912.45,1215.86 1913.7,1215.86 1914.95,1215.87 1916.19,1215.87 1917.44,1215.87 1918.69,1215.87 1919.94,1215.87 1921.18,1215.87 1922.43,1215.88 1923.68,1215.88 1924.93,1215.88 1926.17,1215.88 1927.42,1215.88 1928.67,1215.88 1929.91,1215.89 1931.16,1215.89 1932.41,1215.89 1933.66,1215.89 1934.9,1215.89 1936.15,1215.89 1937.4,1215.89 1938.65,1215.9 1939.89,1215.9 1941.14,1215.9 1942.39,1215.9 1943.64,1215.9 1944.88,1215.9 1946.13,1215.91 1947.38,1215.91 1948.62,1215.91 1949.87,1215.91 1951.12,1215.91 1952.37,1215.91 1953.61,1215.91 1954.86,1215.91 1956.11,1215.92 1957.36,1215.92 1958.6,1215.92 1959.85,1215.92 1961.1,1215.92 1962.34,1215.92 1963.59,1215.92 1964.84,1215.93 1966.09,1215.93 1967.33,1215.93 1968.58,1215.93 1969.83,1215.93 1971.08,1215.93 1972.32,1215.93 1973.57,1215.93 1974.82,1215.93 1976.07,1215.94 1977.31,1215.94 1978.56,1215.94 1979.81,1215.94 1981.05,1215.94 1982.3,1215.94 1983.55,1215.94 1984.8,1215.94 1986.04,1215.94 1987.29,1215.95 1988.54,1215.95 1989.79,1215.95 1991.03,1215.95 1992.28,1215.95 1993.53,1215.95 1994.78,1215.95 1996.02,1215.95 1997.27,1215.95 1998.52,1215.95 1999.76,1215.96 2001.01,1215.96 2002.26,1215.96 2003.51,1215.96 2004.75,1215.96 2006,1215.96 2007.25,1215.96 2008.5,1215.96 2009.74,1215.96 2010.99,1215.96 2012.24,1215.96 2013.49,1215.96 2014.73,1215.97 2015.98,1215.97 2017.23,1215.97 2018.47,1215.97 2019.72,1215.97 2020.97,1215.97 2022.22,1215.97 2023.46,1215.97 2024.71,1215.97 2025.96,1215.97 2027.21,1215.97 2028.45,1215.97 2029.7,1215.97 2030.95,1215.97 2032.19,1215.97 2033.44,1215.98 2034.69,1215.98 2035.94,1215.98 2037.18,1215.98 2038.43,1215.98 2039.68,1215.98 2040.93,1215.98 2042.17,1215.98 2043.42,1215.98 2044.67,1215.98 2045.92,1215.98 2047.16,1215.98 2048.41,1215.98 2049.66,1215.98 2050.9,1215.98 2052.15,1215.98 2053.4,1215.99 2054.65,1215.99 2055.89,1215.99 2057.14,1215.99 2058.39,1215.99 2059.64,1215.99 2060.88,1215.99 2062.13,1215.99 2063.38,1215.99 2064.63,1215.99 2065.87,1215.99 2067.12,1215.99 2068.37,1215.99 2069.61,1215.99 2070.86,1215.99 2072.11,1215.99 2073.36,1216 2074.6,1216 2075.85,1216 2077.1,1216 2078.35,1216 2079.59,1216 2080.84,1216 2082.09,1216 2083.33,1216 2084.58,1216 2085.83,1216 2087.08,1216 2088.32,1216 2089.57,1216 2090.82,1216.01 2092.07,1216.01 2093.31,1216.01 2094.56,1216.01 2095.81,1216.01 2097.06,1216.01 2098.3,1216.01 2099.55,1216.01 2100.8,1216.01 2102.04,1216.01 2103.29,1216.01 2104.54,1216.02 2105.79,1216.02 2107.03,1216.02 2108.28,1216.02 2109.53,1216.02 2110.78,1216.02 2112.02,1216.02 2113.27,1216.02 2114.52,1216.03 2115.77,1216.03 2117.01,1216.03 2118.26,1216.03 2119.51,1216.03 2120.75,1216.03 2122,1216.03 2123.25,1216.04 2124.5,1216.04 2125.74,1216.04 2126.99,1216.04 2128.24,1216.04 2129.49,1216.04 2130.73,1216.04 2131.98,1216.05 2133.23,1216.05 2134.48,1216.05 2135.72,1216.05 2136.97,1216.05 2138.22,1216.06 2139.46,1216.06 2140.71,1216.06 2141.96,1216.06 2143.21,1216.06 2144.45,1216.07 2145.7,1216.07 2146.95,1216.07 2148.2,1216.07 2149.44,1216.07 2150.69,1216.08 2151.94,1216.08 2153.18,1216.08 2154.43,1216.08 2155.68,1216.09 2156.93,1216.09 2158.17,1216.09 2159.42,1216.09 2160.67,1216.1 2161.92,1216.1 2163.16,1216.1 2164.41,1216.1 2165.66,1216.11 2166.91,1216.11 2168.15,1216.11 2169.4,1216.11 2170.65,1216.12 2171.89,1216.12 2173.14,1216.12 2174.39,1216.13 2175.64,1216.13 2176.88,1216.13 2178.13,1216.13 2179.38,1216.14 2180.63,1216.14 2181.87,1216.14 2183.12,1216.15 2184.37,1216.15 2185.62,1216.15 2186.86,1216.16 2188.11,1216.16 2189.36,1216.16 2190.6,1216.17 2191.85,1216.17 2193.1,1216.17 2194.35,1216.17 2195.59,1216.18 2196.84,1216.18 2198.09,1216.18 2199.34,1216.19 2200.58,1216.19 2201.83,1216.19 2203.08,1216.2 2204.32,1216.2 2205.57,1216.2 2206.82,1216.2 2208.07,1216.21 2209.31,1216.21 2210.56,1216.21 2211.81,1216.22 2213.06,1216.22 2214.3,1216.22 2215.55,1216.22 2216.8,1216.23 2218.05,1216.23 2219.29,1216.23 2220.54,1216.23 2221.79,1216.24 2223.03,1216.24 2224.28,1216.24 2225.53,1216.24 2226.78,1216.25 2228.02,1216.25 2229.27,1216.25 2230.52,1216.25 2231.77,1216.25 2233.01,1216.26 2234.26,1216.26 2235.51,1216.26 2236.76,1216.26 2238,1216.26 2239.25,1216.26 2240.5,1216.26 2241.74,1216.27 2242.99,1216.27 2244.24,1216.27 2245.49,1216.27 2246.73,1216.27 2247.98,1216.27 2249.23,1216.27 2250.48,1216.27 2251.72,1216.27 2252.97,1216.27 2254.22,1216.27 2255.47,1216.27 2256.71,1216.27 2257.96,1216.27 2259.21,1216.27 2260.45,1216.27 2261.7,1216.27 2262.95,1216.27 2264.2,1216.27 2265.44,1216.27 2266.69,1216.26 2267.94,1216.26 2269.19,1216.26 2270.43,1216.26 2271.68,1216.26 2272.93,1216.26 2274.17,1216.26 2275.42,1216.26 2276.67,1216.25 2277.92,1216.25 2279.16,1216.25 2280.41,1216.25 2281.66,1216.25 2282.91,1216.25 2284.15,1216.24 2285.4,1216.24 2286.65,1216.24 2287.9,1216.24 2289.14,1216.24 2290.39,1216.24 2291.64,1216.23 2292.88,1216.23 2294.13,1216.23 2295.38,1216.23 2296.63,1216.23 "/>
<polyline clip-path="url(#clip241)" style="stroke:#e26f46; stroke-linecap:round; stroke-linejoin:round; stroke-width:4; stroke-opacity:1; fill:none" points="425.648,1384.24 426.895,1384.23 428.142,1384.22 429.39,1384.19 430.637,1384.15 431.884,1384.1 433.132,1384.03 434.379,1383.96 435.626,1383.87 436.873,1383.78 438.121,1383.67 439.368,1383.55 440.615,1383.42 441.863,1383.27 443.11,1383.12 444.357,1382.95 445.605,1382.78 446.852,1382.59 448.099,1382.39 449.347,1382.18 450.594,1381.96 451.841,1381.73 453.089,1381.48 454.336,1381.23 455.583,1380.96 456.831,1380.68 458.078,1380.39 459.325,1380.1 460.573,1379.78 461.82,1379.46 463.067,1379.13 464.315,1378.79 465.562,1378.43 466.809,1378.07 468.056,1377.69 469.304,1377.31 470.551,1376.91 471.798,1376.5 473.046,1376.08 474.293,1375.65 475.54,1375.21 476.788,1374.76 478.035,1374.3 479.282,1373.83 480.53,1373.35 481.777,1372.86 483.024,1372.35 484.272,1371.84 485.519,1371.32 486.766,1370.79 488.014,1370.24 489.261,1369.69 490.508,1369.13 491.756,1368.55 493.003,1367.97 494.25,1367.38 495.497,1366.78 496.745,1366.17 497.992,1365.54 499.239,1364.91 500.487,1364.27 501.734,1363.62 502.981,1362.96 504.229,1362.3 505.476,1361.62 506.723,1360.93 507.971,1360.24 509.218,1359.53 510.465,1358.82 511.713,1358.09 512.96,1357.36 514.207,1356.62 515.455,1355.87 516.702,1355.12 517.949,1354.35 519.197,1353.58 520.444,1352.79 521.691,1352 522.939,1351.2 524.186,1350.4 525.433,1349.58 526.68,1348.76 527.928,1347.93 529.175,1347.09 530.422,1346.24 531.67,1345.39 532.917,1344.53 534.164,1343.66 535.412,1342.79 536.659,1341.9 537.906,1341.01 539.154,1340.11 540.401,1339.21 541.648,1338.3 542.896,1337.38 544.143,1336.46 545.39,1335.52 546.638,1334.59 547.885,1333.64 549.132,1332.69 550.38,1331.74 551.627,1330.77 552.874,1329.8 554.121,1328.83 555.369,1327.85 556.616,1326.86 557.863,1325.87 559.111,1324.87 560.358,1323.87 561.605,1322.86 562.853,1321.85 564.1,1320.83 565.347,1319.8 566.595,1318.77 567.842,1317.74 569.089,1316.7 570.337,1315.66 571.584,1314.61 572.831,1313.56 574.079,1312.5 575.326,1311.44 576.573,1310.38 577.821,1309.31 579.068,1308.24 580.315,1307.16 581.563,1306.08 582.81,1305 584.057,1303.91 585.304,1302.82 586.552,1301.73 587.799,1300.63 589.046,1299.53 590.294,1298.43 591.541,1297.32 592.788,1296.21 594.036,1295.1 595.283,1293.99 596.53,1292.87 597.778,1291.75 599.025,1290.63 600.272,1289.51 601.52,1288.39 602.767,1287.26 604.014,1286.13 605.262,1285 606.509,1283.87 607.756,1282.74 609.004,1281.6 610.251,1280.47 611.498,1279.33 612.746,1278.2 613.993,1277.06 615.24,1275.92 616.487,1274.78 617.735,1273.64 618.982,1272.5 620.229,1271.36 621.477,1270.22 622.724,1269.08 623.971,1267.94 625.219,1266.8 626.466,1265.66 627.713,1264.52 628.961,1263.38 630.208,1262.24 631.455,1261.1 632.703,1259.96 633.95,1258.83 635.197,1257.69 636.445,1256.55 637.692,1255.42 638.939,1254.29 640.187,1253.16 641.434,1252.03 642.681,1250.9 643.928,1249.78 645.176,1248.65 646.423,1247.53 647.67,1246.41 648.918,1245.29 650.165,1244.18 651.412,1243.06 652.66,1241.95 653.907,1240.85 655.154,1239.74 656.402,1238.64 657.649,1237.54 658.896,1236.44 660.144,1235.35 661.391,1234.26 662.638,1233.17 663.886,1232.09 665.133,1231.01 666.38,1229.93 667.628,1228.86 668.875,1227.79 670.122,1226.73 671.37,1225.66 672.617,1224.61 673.864,1223.55 675.111,1222.51 676.359,1221.46 677.606,1220.42 678.853,1219.39 680.101,1218.36 681.348,1217.33 682.595,1216.31 683.843,1215.29 685.09,1214.28 686.337,1213.28 687.585,1212.28 688.832,1211.28 690.079,1210.29 691.327,1209.31 692.574,1208.33 693.821,1207.35 695.069,1206.39 696.316,1205.42 697.563,1204.47 698.811,1203.52 700.058,1202.57 701.305,1201.64 702.552,1200.71 703.8,1199.78 705.047,1198.86 706.294,1197.95 707.542,1197.04 708.789,1196.14 710.036,1195.25 711.284,1194.37 712.531,1193.49 713.778,1192.61 715.026,1191.75 716.273,1190.89 717.52,1190.04 718.768,1189.2 720.015,1188.36 721.262,1187.53 722.51,1186.71 723.757,1185.89 725.004,1185.09 726.252,1184.29 727.499,1183.5 728.746,1182.71 729.994,1181.94 731.241,1181.17 732.488,1180.41 733.735,1179.65 734.983,1178.91 736.23,1178.17 737.477,1177.44 738.725,1176.72 739.972,1176.01 741.219,1175.31 742.467,1174.61 743.714,1173.93 744.961,1173.25 746.209,1172.58 747.456,1171.92 748.703,1171.26 749.951,1170.62 751.198,1169.98 752.445,1169.36 753.693,1168.74 754.94,1168.13 756.187,1167.53 757.435,1166.94 758.682,1166.35 759.929,1165.78 761.176,1165.21 762.424,1164.66 763.671,1164.11 764.918,1163.57 766.166,1163.05 767.413,1162.53 768.66,1162.02 769.908,1161.52 771.155,1161.02 772.402,1160.54 773.65,1160.07 774.897,1159.6 776.144,1159.15 777.392,1158.71 778.639,1158.27 779.886,1157.84 781.134,1157.43 782.381,1157.02 783.628,1156.62 784.876,1156.23 786.123,1155.85 787.37,1155.48 788.618,1155.12 789.865,1154.77 791.112,1154.43 792.359,1154.1 793.607,1153.78 794.854,1153.47 796.101,1153.17 797.349,1152.87 798.596,1152.59 799.843,1152.31 801.091,1152.05 802.338,1151.8 803.585,1151.55 804.833,1151.32 806.08,1151.09 807.327,1150.87 808.575,1150.67 809.822,1150.47 811.069,1150.28 812.317,1150.1 813.564,1149.94 814.811,1149.78 816.059,1149.63 817.306,1149.49 818.553,1149.36 819.801,1149.24 821.048,1149.13 822.295,1149.02 823.542,1148.93 824.79,1148.85 826.037,1148.78 827.284,1148.71 828.532,1148.66 829.779,1148.61 831.026,1148.58 832.274,1148.55 833.521,1148.53 834.768,1148.52 836.016,1148.53 837.263,1148.54 838.51,1148.55 839.758,1148.58 841.005,1148.62 842.252,1148.67 843.5,1148.72 844.747,1148.79 845.994,1148.86 847.242,1148.95 848.489,1149.04 849.736,1149.14 850.983,1149.25 852.231,1149.36 853.478,1149.49 854.725,1149.63 855.973,1149.77 857.22,1149.92 858.467,1150.09 859.715,1150.26 860.962,1150.43 862.209,1150.62 863.457,1150.82 864.704,1151.02 865.951,1151.23 867.199,1151.45 868.446,1151.68 869.693,1151.92 870.941,1152.16 872.188,1152.41 873.435,1152.67 874.683,1152.94 875.93,1153.22 877.177,1153.5 878.425,1153.8 879.672,1154.1 880.919,1154.4 882.166,1154.72 883.414,1155.04 884.661,1155.37 885.908,1155.71 887.156,1156.05 888.403,1156.4 889.65,1156.76 890.898,1157.13 892.145,1157.5 893.392,1157.88 894.64,1158.27 895.887,1158.66 897.134,1159.06 898.382,1159.47 899.629,1159.88 900.876,1160.3 902.124,1160.73 903.371,1161.16 904.618,1161.6 905.866,1162.05 907.113,1162.5 908.36,1162.96 909.607,1163.43 910.855,1163.9 912.102,1164.37 913.349,1164.86 914.597,1165.34 915.844,1165.84 917.091,1166.34 918.339,1166.84 919.586,1167.35 920.833,1167.87 922.081,1168.39 923.328,1168.91 924.575,1169.45 925.823,1169.98 927.07,1170.5 928.317,1171.02 929.565,1171.54 930.812,1172.05 932.059,1172.55 933.307,1173.06 934.554,1173.55 935.801,1174.04 937.049,1174.53 938.296,1175.01 939.543,1175.49 940.79,1175.96 942.038,1176.43 943.285,1176.89 944.532,1177.35 945.78,1177.8 947.027,1178.25 948.274,1178.7 949.522,1179.14 950.769,1179.57 952.016,1180.01 953.264,1180.44 954.511,1180.86 955.758,1181.28 957.006,1181.7 958.253,1182.11 959.5,1182.52 960.748,1182.92 961.995,1183.33 963.242,1183.72 964.49,1184.12 965.737,1184.51 966.984,1184.89 968.231,1185.28 969.479,1185.66 970.726,1186.03 971.973,1186.41 973.221,1186.78 974.468,1187.14 975.715,1187.51 976.963,1187.86 978.21,1188.22 979.457,1188.57 980.705,1188.92 981.952,1189.27 983.199,1189.61 984.447,1189.96 985.694,1190.29 986.941,1190.63 988.189,1190.96 989.436,1191.29 990.683,1191.62 991.931,1191.94 993.178,1192.26 994.425,1192.58 995.673,1192.89 996.92,1193.21 998.167,1193.52 999.414,1193.82 1000.66,1194.13 1001.91,1194.43 1003.16,1194.73 1004.4,1195.03 1005.65,1195.32 1006.9,1195.61 1008.15,1195.9 1009.39,1196.19 1010.64,1196.48 1011.89,1196.76 1013.13,1197.04 1014.38,1197.32 1015.63,1197.6 1016.88,1197.87 1018.12,1198.14 1019.37,1198.41 1020.62,1198.68 1021.87,1198.95 1023.11,1199.21 1024.36,1199.47 1025.61,1199.73 1026.86,1199.99 1028.1,1200.25 1029.35,1200.5 1030.6,1200.75 1031.84,1201.01 1033.09,1201.25 1034.34,1201.5 1035.59,1201.75 1036.83,1201.99 1038.08,1202.23 1039.33,1202.47 1040.58,1202.71 1041.82,1202.95 1043.07,1203.18 1044.32,1203.42 1045.57,1203.65 1046.81,1203.88 1048.06,1204.11 1049.31,1204.34 1050.55,1204.56 1051.8,1204.79 1053.05,1205.01 1054.3,1205.23 1055.54,1205.45 1056.79,1205.67 1058.04,1205.89 1059.29,1206.11 1060.53,1206.32 1061.78,1206.54 1063.03,1206.75 1064.28,1206.96 1065.52,1207.17 1066.77,1207.38 1068.02,1207.59 1069.26,1207.8 1070.51,1208 1071.76,1208.21 1073.01,1208.41 1074.25,1208.62 1075.5,1208.82 1076.75,1209.02 1078,1209.22 1079.24,1209.42 1080.49,1209.61 1081.74,1209.81 1082.98,1210.01 1084.23,1210.2 1085.48,1210.4 1086.73,1210.59 1087.97,1210.78 1089.22,1210.98 1090.47,1211.17 1091.72,1211.36 1092.96,1211.55 1094.21,1211.74 1095.46,1211.92 1096.71,1212.11 1097.95,1212.3 1099.2,1212.48 1100.45,1212.67 1101.69,1212.85 1102.94,1213.04 1104.19,1213.22 1105.44,1213.4 1106.68,1213.59 1107.93,1213.77 1109.18,1213.95 1110.43,1214.13 1111.67,1214.31 1112.92,1214.49 1114.17,1214.67 1115.42,1214.85 1116.66,1215.03 1117.91,1215.21 1119.16,1215.38 1120.4,1215.56 1121.65,1215.74 1122.9,1215.92 1124.15,1216.09 1125.39,1216.27 1126.64,1216.44 1127.89,1216.62 1129.14,1216.8 1130.38,1216.97 1131.63,1217.15 1132.88,1217.32 1134.12,1217.49 1135.37,1217.67 1136.62,1217.84 1137.87,1218.02 1139.11,1218.19 1140.36,1218.36 1141.61,1218.54 1142.86,1218.71 1144.1,1218.88 1145.35,1219.06 1146.6,1219.23 1147.85,1219.41 1149.09,1219.58 1150.34,1219.75 1151.59,1219.93 1152.83,1220.1 1154.08,1220.27 1155.33,1220.45 1156.58,1220.62 1157.82,1220.79 1159.07,1220.97 1160.32,1221.14 1161.57,1221.32 1162.81,1221.49 1164.06,1221.66 1165.31,1221.84 1166.56,1222.01 1167.8,1222.19 1169.05,1222.36 1170.3,1222.54 1171.54,1222.72 1172.79,1222.89 1174.04,1223.07 1175.29,1223.25 1176.53,1223.42 1177.78,1223.6 1179.03,1223.78 1180.28,1223.96 1181.52,1224.14 1182.77,1224.31 1184.02,1224.49 1185.27,1224.67 1186.51,1224.85 1187.76,1225.04 1189.01,1225.22 1190.25,1225.4 1191.5,1225.58 1192.75,1225.76 1194,1225.95 1195.24,1226.13 1196.49,1226.32 1197.74,1226.5 1198.99,1226.69 1200.23,1226.87 1201.48,1227.06 1202.73,1227.25 1203.97,1227.44 1205.22,1227.63 1206.47,1227.82 1207.72,1228.01 1208.96,1228.2 1210.21,1228.39 1211.46,1228.58 1212.71,1228.78 1213.95,1228.97 1215.2,1229.17 1216.45,1229.36 1217.7,1229.56 1218.94,1229.76 1220.19,1229.95 1221.44,1230.15 1222.68,1230.35 1223.93,1230.56 1225.18,1230.76 1226.43,1230.96 1227.67,1231.17 1228.92,1231.37 1230.17,1231.58 1231.42,1231.78 1232.66,1231.99 1233.91,1232.2 1235.16,1232.41 1236.41,1232.62 1237.65,1232.84 1238.9,1233.05 1240.15,1233.27 1241.39,1233.48 1242.64,1233.7 1243.89,1233.92 1245.14,1234.14 1246.38,1234.36 1247.63,1234.58 1248.88,1234.8 1250.13,1235.03 1251.37,1235.26 1252.62,1235.48 1253.87,1235.71 1255.11,1235.94 1256.36,1236.17 1257.61,1236.41 1258.86,1236.64 1260.1,1236.88 1261.35,1237.11 1262.6,1237.35 1263.85,1237.59 1265.09,1237.84 1266.34,1238.08 1267.59,1238.32 1268.84,1238.57 1270.08,1238.82 1271.33,1239.07 1272.58,1239.32 1273.82,1239.57 1275.07,1239.83 1276.32,1240.08 1277.57,1240.34 1278.81,1240.6 1280.06,1240.86 1281.31,1241.13 1282.56,1241.39 1283.8,1241.66 1285.05,1241.93 1286.3,1242.2 1287.55,1242.47 1288.79,1242.74 1290.04,1243.02 1291.29,1243.3 1292.53,1243.58 1293.78,1243.86 1295.03,1244.15 1296.28,1244.43 1297.52,1244.72 1298.77,1245.01 1300.02,1245.3 1301.27,1245.59 1302.51,1245.87 1303.76,1246.15 1305.01,1246.43 1306.26,1246.71 1307.5,1246.98 1308.75,1247.25 1310,1247.51 1311.24,1247.77 1312.49,1248.03 1313.74,1248.29 1314.99,1248.54 1316.23,1248.79 1317.48,1249.04 1318.73,1249.28 1319.98,1249.52 1321.22,1249.76 1322.47,1249.99 1323.72,1250.22 1324.96,1250.45 1326.21,1250.67 1327.46,1250.89 1328.71,1251.11 1329.95,1251.32 1331.2,1251.53 1332.45,1251.74 1333.7,1251.94 1334.94,1252.14 1336.19,1252.33 1337.44,1252.53 1338.69,1252.72 1339.93,1252.9 1341.18,1253.08 1342.43,1253.26 1343.67,1253.44 1344.92,1253.61 1346.17,1253.78 1347.42,1253.94 1348.66,1254.1 1349.91,1254.26 1351.16,1254.41 1352.41,1254.56 1353.65,1254.71 1354.9,1254.85 1356.15,1254.99 1357.4,1255.13 1358.64,1255.26 1359.89,1255.39 1361.14,1255.51 1362.38,1255.63 1363.63,1255.75 1364.88,1255.86 1366.13,1255.97 1367.37,1256.08 1368.62,1256.18 1369.87,1256.28 1371.12,1256.37 1372.36,1256.47 1373.61,1256.55 1374.86,1256.64 1376.1,1256.72 1377.35,1256.79 1378.6,1256.87 1379.85,1256.94 1381.09,1257 1382.34,1257.06 1383.59,1257.12 1384.84,1257.18 1386.08,1257.23 1387.33,1257.27 1388.58,1257.32 1389.83,1257.36 1391.07,1257.39 1392.32,1257.42 1393.57,1257.45 1394.81,1257.48 1396.06,1257.5 1397.31,1257.52 1398.56,1257.53 1399.8,1257.54 1401.05,1257.55 1402.3,1257.55 1403.55,1257.55 1404.79,1257.54 1406.04,1257.53 1407.29,1257.52 1408.54,1257.51 1409.78,1257.49 1411.03,1257.46 1412.28,1257.44 1413.52,1257.41 1414.77,1257.37 1416.02,1257.34 1417.27,1257.29 1418.51,1257.25 1419.76,1257.2 1421.01,1257.15 1422.26,1257.09 1423.5,1257.04 1424.75,1256.97 1426,1256.91 1427.24,1256.84 1428.49,1256.76 1429.74,1256.69 1430.99,1256.61 1432.23,1256.52 1433.48,1256.44 1434.73,1256.35 1435.98,1256.25 1437.22,1256.15 1438.47,1256.05 1439.72,1255.95 1440.97,1255.84 1442.21,1255.73 1443.46,1255.62 1444.71,1255.5 1445.95,1255.38 1447.2,1255.25 1448.45,1255.12 1449.7,1254.99 1450.94,1254.86 1452.19,1254.72 1453.44,1254.58 1454.69,1254.43 1455.93,1254.29 1457.18,1254.14 1458.43,1253.98 1459.68,1253.83 1460.92,1253.67 1462.17,1253.5 1463.42,1253.34 1464.66,1253.17 1465.91,1252.99 1467.16,1252.82 1468.41,1252.64 1469.65,1252.46 1470.9,1252.27 1472.15,1252.08 1473.4,1251.89 1474.64,1251.7 1475.89,1251.5 1477.14,1251.3 1478.39,1251.1 1479.63,1250.9 1480.88,1250.69 1482.13,1250.48 1483.37,1250.26 1484.62,1250.05 1485.87,1249.83 1487.12,1249.6 1488.36,1249.38 1489.61,1249.15 1490.86,1248.92 1492.11,1248.69 1493.35,1248.45 1494.6,1248.22 1495.85,1247.98 1497.09,1247.73 1498.34,1247.49 1499.59,1247.24 1500.84,1246.99 1502.08,1246.74 1503.33,1246.48 1504.58,1246.22 1505.83,1245.96 1507.07,1245.7 1508.32,1245.44 1509.57,1245.17 1510.82,1244.9 1512.06,1244.63 1513.31,1244.35 1514.56,1244.08 1515.8,1243.8 1517.05,1243.52 1518.3,1243.24 1519.55,1242.95 1520.79,1242.66 1522.04,1242.38 1523.29,1242.09 1524.54,1241.79 1525.78,1241.5 1527.03,1241.2 1528.28,1240.9 1529.53,1240.6 1530.77,1240.3 1532.02,1240 1533.27,1239.69 1534.51,1239.38 1535.76,1239.07 1537.01,1238.76 1538.26,1238.45 1539.5,1238.14 1540.75,1237.82 1542,1237.5 1543.25,1237.19 1544.49,1236.87 1545.74,1236.54 1546.99,1236.22 1548.23,1235.9 1549.48,1235.57 1550.73,1235.24 1551.98,1234.91 1553.22,1234.58 1554.47,1234.25 1555.72,1233.92 1556.97,1233.59 1558.21,1233.25 1559.46,1232.91 1560.71,1232.58 1561.96,1232.24 1563.2,1231.9 1564.45,1231.56 1565.7,1231.22 1566.94,1230.87 1568.19,1230.53 1569.44,1230.19 1570.69,1229.84 1571.93,1229.5 1573.18,1229.15 1574.43,1228.8 1575.68,1228.45 1576.92,1228.1 1578.17,1227.76 1579.42,1227.4 1580.67,1227.05 1581.91,1226.7 1583.16,1226.35 1584.41,1226 1585.65,1225.64 1586.9,1225.29 1588.15,1224.94 1589.4,1224.58 1590.64,1224.23 1591.89,1223.87 1593.14,1223.52 1594.39,1223.16 1595.63,1222.81 1596.88,1222.45 1598.13,1222.09 1599.38,1221.74 1600.62,1221.38 1601.87,1221.02 1603.12,1220.67 1604.36,1220.31 1605.61,1219.95 1606.86,1219.6 1608.11,1219.24 1609.35,1218.88 1610.6,1218.53 1611.85,1218.17 1613.1,1217.81 1614.34,1217.46 1615.59,1217.1 1616.84,1216.75 1618.08,1216.39 1619.33,1216.04 1620.58,1215.68 1621.83,1215.33 1623.07,1214.98 1624.32,1214.62 1625.57,1214.27 1626.82,1213.92 1628.06,1213.57 1629.31,1213.22 1630.56,1212.87 1631.81,1212.52 1633.05,1212.17 1634.3,1211.82 1635.55,1211.47 1636.79,1211.13 1638.04,1210.78 1639.29,1210.44 1640.54,1210.09 1641.78,1209.75 1643.03,1209.41 1644.28,1209.07 1645.53,1208.73 1646.77,1208.39 1648.02,1208.05 1649.27,1207.71 1650.52,1207.37 1651.76,1207.04 1653.01,1206.71 1654.26,1206.37 1655.5,1206.04 1656.75,1205.71 1658,1205.38 1659.25,1205.06 1660.49,1204.73 1661.74,1204.4 1662.99,1204.08 1664.24,1203.76 1665.48,1203.44 1666.73,1203.12 1667.98,1202.8 1669.22,1202.48 1670.47,1202.17 1671.72,1201.86 1672.97,1201.54 1674.21,1201.23 1675.46,1200.93 1676.71,1200.62 1677.96,1200.31 1679.2,1200.01 1680.45,1199.71 1681.7,1199.41 1682.95,1199.11 1684.19,1198.82 1685.44,1198.52 1686.69,1198.23 1687.93,1197.94 1689.18,1197.65 1690.43,1197.36 1691.68,1197.08 1692.92,1196.79 1694.17,1196.51 1695.42,1196.23 1696.67,1195.96 1697.91,1195.68 1699.16,1195.41 1700.41,1195.14 1701.66,1194.87 1702.9,1194.61 1704.15,1194.34 1705.4,1194.08 1706.64,1193.82 1707.89,1193.56 1709.14,1193.31 1710.39,1193.05 1711.63,1192.8 1712.88,1192.56 1714.13,1192.31 1715.38,1192.07 1716.62,1191.83 1717.87,1191.59 1719.12,1191.35 1720.37,1191.12 1721.61,1190.88 1722.86,1190.66 1724.11,1190.43 1725.35,1190.21 1726.6,1189.98 1727.85,1189.76 1729.1,1189.55 1730.34,1189.33 1731.59,1189.12 1732.84,1188.91 1734.09,1188.71 1735.33,1188.51 1736.58,1188.3 1737.83,1188.11 1739.07,1187.91 1740.32,1187.72 1741.57,1187.53 1742.82,1187.34 1744.06,1187.16 1745.31,1186.98 1746.56,1186.8 1747.81,1186.62 1749.05,1186.45 1750.3,1186.28 1751.55,1186.11 1752.8,1185.94 1754.04,1185.78 1755.29,1185.62 1756.54,1185.47 1757.78,1185.31 1759.03,1185.16 1760.28,1185.02 1761.53,1184.87 1762.77,1184.73 1764.02,1184.59 1765.27,1184.45 1766.52,1184.32 1767.76,1184.19 1769.01,1184.06 1770.26,1183.94 1771.51,1183.82 1772.75,1183.7 1774,1183.59 1775.25,1183.47 1776.49,1183.36 1777.74,1183.26 1778.99,1183.15 1780.24,1183.05 1781.48,1182.96 1782.73,1182.86 1783.98,1182.77 1785.23,1182.69 1786.47,1182.6 1787.72,1182.52 1788.97,1182.44 1790.21,1182.36 1791.46,1182.29 1792.71,1182.22 1793.96,1182.16 1795.2,1182.09 1796.45,1182.03 1797.7,1181.98 1798.95,1181.92 1800.19,1181.87 1801.44,1181.82 1802.69,1181.78 1803.94,1181.74 1805.18,1181.7 1806.43,1181.66 1807.68,1181.63 1808.92,1181.6 1810.17,1181.58 1811.42,1181.55 1812.67,1181.53 1813.91,1181.52 1815.16,1181.5 1816.41,1181.49 1817.66,1181.49 1818.9,1181.48 1820.15,1181.48 1821.4,1181.48 1822.65,1181.49 1823.89,1181.49 1825.14,1181.51 1826.39,1181.52 1827.63,1181.54 1828.88,1181.56 1830.13,1181.58 1831.38,1181.61 1832.62,1181.64 1833.87,1181.67 1835.12,1181.71 1836.37,1181.74 1837.61,1181.79 1838.86,1181.83 1840.11,1181.88 1841.35,1181.93 1842.6,1181.98 1843.85,1182.04 1845.1,1182.1 1846.34,1182.16 1847.59,1182.23 1848.84,1182.3 1850.09,1182.37 1851.33,1182.44 1852.58,1182.52 1853.83,1182.6 1855.08,1182.68 1856.32,1182.77 1857.57,1182.86 1858.82,1182.95 1860.06,1183.05 1861.31,1183.14 1862.56,1183.24 1863.81,1183.35 1865.05,1183.45 1866.3,1183.56 1867.55,1183.68 1868.8,1183.79 1870.04,1183.91 1871.29,1184.03 1872.54,1184.15 1873.79,1184.28 1875.03,1184.41 1876.28,1184.54 1877.53,1184.67 1878.77,1184.81 1880.02,1184.95 1881.27,1185.09 1882.52,1185.23 1883.76,1185.38 1885.01,1185.53 1886.26,1185.68 1887.51,1185.84 1888.75,1186 1890,1186.16 1891.25,1186.32 1892.5,1186.48 1893.74,1186.65 1894.99,1186.82 1896.24,1187 1897.48,1187.17 1898.73,1187.35 1899.98,1187.53 1901.23,1187.71 1902.47,1187.9 1903.72,1188.08 1904.97,1188.27 1906.22,1188.47 1907.46,1188.66 1908.71,1188.86 1909.96,1189.05 1911.2,1189.26 1912.45,1189.46 1913.7,1189.66 1914.95,1189.87 1916.19,1190.08 1917.44,1190.29 1918.69,1190.51 1919.94,1190.72 1921.18,1190.94 1922.43,1191.16 1923.68,1191.39 1924.93,1191.61 1926.17,1191.84 1927.42,1192.07 1928.67,1192.3 1929.91,1192.53 1931.16,1192.77 1932.41,1193 1933.66,1193.24 1934.9,1193.49 1936.15,1193.73 1937.4,1193.98 1938.65,1194.23 1939.89,1194.48 1941.14,1194.73 1942.39,1194.99 1943.64,1195.24 1944.88,1195.5 1946.13,1195.77 1947.38,1196.03 1948.62,1196.3 1949.87,1196.57 1951.12,1196.84 1952.37,1197.11 1953.61,1197.39 1954.86,1197.67 1956.11,1197.95 1957.36,1198.23 1958.6,1198.51 1959.85,1198.8 1961.1,1199.09 1962.34,1199.38 1963.59,1199.67 1964.84,1199.97 1966.09,1200.26 1967.33,1200.56 1968.58,1200.86 1969.83,1201.16 1971.08,1201.46 1972.32,1201.77 1973.57,1202.07 1974.82,1202.38 1976.07,1202.68 1977.31,1202.99 1978.56,1203.3 1979.81,1203.61 1981.05,1203.93 1982.3,1204.24 1983.55,1204.55 1984.8,1204.87 1986.04,1205.18 1987.29,1205.5 1988.54,1205.81 1989.79,1206.13 1991.03,1206.44 1992.28,1206.76 1993.53,1207.07 1994.78,1207.39 1996.02,1207.71 1997.27,1208.02 1998.52,1208.33 1999.76,1208.65 2001.01,1208.96 2002.26,1209.27 2003.51,1209.58 2004.75,1209.89 2006,1210.2 2007.25,1210.51 2008.5,1210.81 2009.74,1211.12 2010.99,1211.42 2012.24,1211.72 2013.49,1212.02 2014.73,1212.31 2015.98,1212.61 2017.23,1212.9 2018.47,1213.19 2019.72,1213.47 2020.97,1213.75 2022.22,1214.03 2023.46,1214.31 2024.71,1214.58 2025.96,1214.85 2027.21,1215.12 2028.45,1215.38 2029.7,1215.64 2030.95,1215.9 2032.19,1216.15 2033.44,1216.4 2034.69,1216.64 2035.94,1216.88 2037.18,1217.12 2038.43,1217.35 2039.68,1217.57 2040.93,1217.79 2042.17,1218.01 2043.42,1218.22 2044.67,1218.43 2045.92,1218.63 2047.16,1218.83 2048.41,1219.02 2049.66,1219.21 2050.9,1219.39 2052.15,1219.56 2053.4,1219.73 2054.65,1219.9 2055.89,1220.06 2057.14,1220.21 2058.39,1220.36 2059.64,1220.5 2060.88,1220.64 2062.13,1220.77 2063.38,1220.9 2064.63,1221.02 2065.87,1221.13 2067.12,1221.24 2068.37,1221.34 2069.61,1221.44 2070.86,1221.53 2072.11,1221.62 2073.36,1221.7 2074.6,1221.77 2075.85,1221.84 2077.1,1221.91 2078.35,1221.97 2079.59,1222.02 2080.84,1222.07 2082.09,1222.11 2083.33,1222.15 2084.58,1222.18 2085.83,1222.21 2087.08,1222.23 2088.32,1222.24 2089.57,1222.26 2090.82,1222.26 2092.07,1222.27 2093.31,1222.26 2094.56,1222.26 2095.81,1222.25 2097.06,1222.23 2098.3,1222.21 2099.55,1222.19 2100.8,1222.16 2102.04,1222.13 2103.29,1222.09 2104.54,1222.06 2105.79,1222.01 2107.03,1221.97 2108.28,1221.92 2109.53,1221.87 2110.78,1221.81 2112.02,1221.76 2113.27,1221.7 2114.52,1221.63 2115.77,1221.57 2117.01,1221.5 2118.26,1221.43 2119.51,1221.36 2120.75,1221.28 2122,1221.21 2123.25,1221.13 2124.5,1221.05 2125.74,1220.97 2126.99,1220.89 2128.24,1220.81 2129.49,1220.72 2130.73,1220.64 2131.98,1220.55 2133.23,1220.47 2134.48,1220.38 2135.72,1220.29 2136.97,1220.21 2138.22,1220.12 2139.46,1220.03 2140.71,1219.94 2141.96,1219.85 2143.21,1219.77 2144.45,1219.68 2145.7,1219.59 2146.95,1219.51 2148.2,1219.42 2149.44,1219.33 2150.69,1219.25 2151.94,1219.16 2153.18,1219.08 2154.43,1219 2155.68,1218.92 2156.93,1218.83 2158.17,1218.75 2159.42,1218.68 2160.67,1218.6 2161.92,1218.52 2163.16,1218.45 2164.41,1218.37 2165.66,1218.3 2166.91,1218.23 2168.15,1218.16 2169.4,1218.09 2170.65,1218.02 2171.89,1217.96 2173.14,1217.9 2174.39,1217.83 2175.64,1217.77 2176.88,1217.71 2178.13,1217.65 2179.38,1217.6 2180.63,1217.54 2181.87,1217.49 2183.12,1217.44 2184.37,1217.39 2185.62,1217.34 2186.86,1217.29 2188.11,1217.24 2189.36,1217.2 2190.6,1217.15 2191.85,1217.11 2193.1,1217.07 2194.35,1217.03 2195.59,1217 2196.84,1216.96 2198.09,1216.92 2199.34,1216.89 2200.58,1216.86 2201.83,1216.83 2203.08,1216.8 2204.32,1216.77 2205.57,1216.74 2206.82,1216.71 2208.07,1216.69 2209.31,1216.66 2210.56,1216.64 2211.81,1216.62 2213.06,1216.6 2214.3,1216.58 2215.55,1216.56 2216.8,1216.54 2218.05,1216.52 2219.29,1216.5 2220.54,1216.49 2221.79,1216.47 2223.03,1216.46 2224.28,1216.44 2225.53,1216.43 2226.78,1216.42 2228.02,1216.41 2229.27,1216.39 2230.52,1216.38 2231.77,1216.37 2233.01,1216.36 2234.26,1216.36 2235.51,1216.35 2236.76,1216.34 2238,1216.33 2239.25,1216.32 2240.5,1216.32 2241.74,1216.31 2242.99,1216.31 2244.24,1216.3 2245.49,1216.3 2246.73,1216.29 2247.98,1216.29 2249.23,1216.28 2250.48,1216.28 2251.72,1216.27 2252.97,1216.27 2254.22,1216.27 2255.47,1216.26 2256.71,1216.26 2257.96,1216.26 2259.21,1216.26 2260.45,1216.25 2261.7,1216.25 2262.95,1216.25 2264.2,1216.25 2265.44,1216.25 2266.69,1216.25 2267.94,1216.24 2269.19,1216.24 2270.43,1216.24 2271.68,1216.24 2272.93,1216.24 2274.17,1216.24 2275.42,1216.24 2276.67,1216.24 2277.92,1216.24 2279.16,1216.23 2280.41,1216.23 2281.66,1216.23 2282.91,1216.23 2284.15,1216.23 2285.4,1216.23 2286.65,1216.23 2287.9,1216.23 2289.14,1216.23 2290.39,1216.23 2291.64,1216.23 2292.88,1216.23 2294.13,1216.23 2295.38,1216.23 2296.63,1216.23 "/>
<path clip-path="url(#clip240)" d="M1982.03 248.629 L2286.65 248.629 L2286.65 93.1086 L1982.03 93.1086  Z" fill="#ffffff" fill-rule="evenodd" fill-opacity="1"/>
<polyline clip-path="url(#clip240)" style="stroke:#000000; stroke-linecap:round; stroke-linejoin:round; stroke-width:4; stroke-opacity:1; fill:none" points="1982.03,248.629 2286.65,248.629 2286.65,93.1086 1982.03,93.1086 1982.03,248.629 "/>
<polyline clip-path="url(#clip240)" style="stroke:#009af9; stroke-linecap:round; stroke-linejoin:round; stroke-width:4; stroke-opacity:1; fill:none" points="2004.06,144.949 2136.28,144.949 "/>
<path clip-path="url(#clip240)" d="M2158.32 127.669 L2162.99 127.669 L2162.99 158.293 L2179.82 158.293 L2179.82 162.229 L2158.32 162.229 L2158.32 127.669 Z" fill="#000000" fill-rule="nonzero" fill-opacity="1" /><path clip-path="url(#clip240)" d="M2189.4 131.511 L2189.4 144.497 L2195.28 144.497 Q2198.55 144.497 2200.33 142.807 Q2202.11 141.118 2202.11 137.993 Q2202.11 134.891 2200.33 133.201 Q2198.55 131.511 2195.28 131.511 L2189.4 131.511 M2184.73 127.669 L2195.28 127.669 Q2201.09 127.669 2204.06 130.307 Q2207.04 132.923 2207.04 137.993 Q2207.04 143.108 2204.06 145.724 Q2201.09 148.34 2195.28 148.34 L2189.4 148.34 L2189.4 162.229 L2184.73 162.229 L2184.73 127.669 Z" fill="#000000" fill-rule="nonzero" fill-opacity="1" /><path clip-path="url(#clip240)" d="M2223.73 130.747 Q2220.12 130.747 2218.29 134.312 Q2216.49 137.854 2216.49 144.983 Q2216.49 152.09 2218.29 155.655 Q2220.12 159.196 2223.73 159.196 Q2227.37 159.196 2229.17 155.655 Q2231 152.09 2231 144.983 Q2231 137.854 2229.17 134.312 Q2227.37 130.747 2223.73 130.747 M2223.73 127.044 Q2229.54 127.044 2232.6 131.65 Q2235.68 136.233 2235.68 144.983 Q2235.68 153.71 2232.6 158.317 Q2229.54 162.9 2223.73 162.9 Q2217.92 162.9 2214.84 158.317 Q2211.79 153.71 2211.79 144.983 Q2211.79 136.233 2214.84 131.65 Q2217.92 127.044 2223.73 127.044 Z" fill="#000000" fill-rule="nonzero" fill-opacity="1" /><path clip-path="url(#clip240)" d="M2244.7 158.293 L2252.34 158.293 L2252.34 131.928 L2244.03 133.595 L2244.03 129.335 L2252.3 127.669 L2256.97 127.669 L2256.97 158.293 L2264.61 158.293 L2264.61 162.229 L2244.7 162.229 L2244.7 158.293 Z" fill="#000000" fill-rule="nonzero" fill-opacity="1" /><polyline clip-path="url(#clip240)" style="stroke:#e26f46; stroke-linecap:round; stroke-linejoin:round; stroke-width:4; stroke-opacity:1; fill:none" points="2004.06,196.789 2136.28,196.789 "/>
<path clip-path="url(#clip240)" d="M2158.32 179.509 L2162.99 179.509 L2162.99 210.133 L2179.82 210.133 L2179.82 214.069 L2158.32 214.069 L2158.32 179.509 Z" fill="#000000" fill-rule="nonzero" fill-opacity="1" /><path clip-path="url(#clip240)" d="M2189.4 183.351 L2189.4 196.337 L2195.28 196.337 Q2198.55 196.337 2200.33 194.647 Q2202.11 192.958 2202.11 189.833 Q2202.11 186.731 2200.33 185.041 Q2198.55 183.351 2195.28 183.351 L2189.4 183.351 M2184.73 179.509 L2195.28 179.509 Q2201.09 179.509 2204.06 182.147 Q2207.04 184.763 2207.04 189.833 Q2207.04 194.948 2204.06 197.564 Q2201.09 200.18 2195.28 200.18 L2189.4 200.18 L2189.4 214.069 L2184.73 214.069 L2184.73 179.509 Z" fill="#000000" fill-rule="nonzero" fill-opacity="1" /><path clip-path="url(#clip240)" d="M2223.73 182.587 Q2220.12 182.587 2218.29 186.152 Q2216.49 189.694 2216.49 196.823 Q2216.49 203.93 2218.29 207.495 Q2220.12 211.036 2223.73 211.036 Q2227.37 211.036 2229.17 207.495 Q2231 203.93 2231 196.823 Q2231 189.694 2229.17 186.152 Q2227.37 182.587 2223.73 182.587 M2223.73 178.884 Q2229.54 178.884 2232.6 183.49 Q2235.68 188.073 2235.68 196.823 Q2235.68 205.55 2232.6 210.157 Q2229.54 214.74 2223.73 214.74 Q2217.92 214.74 2214.84 210.157 Q2211.79 205.55 2211.79 196.823 Q2211.79 188.073 2214.84 183.49 Q2217.92 178.884 2223.73 178.884 Z" fill="#000000" fill-rule="nonzero" fill-opacity="1" /><path clip-path="url(#clip240)" d="M2247.92 210.133 L2264.24 210.133 L2264.24 214.069 L2242.3 214.069 L2242.3 210.133 Q2244.96 207.379 2249.54 202.749 Q2254.15 198.096 2255.33 196.754 Q2257.58 194.231 2258.45 192.495 Q2259.36 190.735 2259.36 189.046 Q2259.36 186.291 2257.41 184.555 Q2255.49 182.819 2252.39 182.819 Q2250.19 182.819 2247.74 183.583 Q2245.31 184.347 2242.53 185.897 L2242.53 181.175 Q2245.35 180.041 2247.81 179.462 Q2250.26 178.884 2252.3 178.884 Q2257.67 178.884 2260.86 181.569 Q2264.06 184.254 2264.06 188.745 Q2264.06 190.874 2263.25 192.796 Q2262.46 194.694 2260.35 197.286 Q2259.77 197.958 2256.67 201.175 Q2253.57 204.37 2247.92 210.133 Z" fill="#000000" fill-rule="nonzero" fill-opacity="1" /></svg>
